<?xml version="1.0" encoding="UTF-8"?>
<svg width="928px" height="522px" viewBox="0 0 928 522" version="1.1" xmlns="http://www.w3.org/2000/svg" xmlns:xlink="http://www.w3.org/1999/xlink">
    <!-- Generator: Sketch 52.4 (67378) - http://www.bohemiancoding.com/sketch -->
    <title>Layout_overview_Columns and Rows</title>
    <desc>Created with Sketch.</desc>
    <g id="Columns-and-Rows" stroke="none" stroke-width="1" fill="none" fill-rule="evenodd">
        <g id="Columns-Copy-3" transform="translate(64.000000, 64.000000)">
            <g id="animation">
                <g id="columns" transform="translate(1.000000, 20.000000)" stroke="#97C1FF">
                    <path d="M-0.5,299.5 L49.5,299.5 L49.5,374.5 L-0.5,374.5 L-0.5,299.5 Z" id="Rectangle-17-Copy-487"></path>
                    <path d="M49.5,299.5 L99.5,299.5 L99.5,374.5 L49.5,374.5 L49.5,299.5 Z" id="Rectangle-17-Copy-488"></path>
                    <path d="M99.5,299.5 L149.5,299.5 L149.5,374.5 L99.5,374.5 L99.5,299.5 Z" id="Rectangle-17-Copy-489"></path>
                    <path d="M149.5,299.5 L199.5,299.5 L199.5,374.5 L149.5,374.5 L149.5,299.5 Z" id="Rectangle-17-Copy-490"></path>
                    <path d="M199.5,299.5 L249.5,299.5 L249.5,374.5 L199.5,374.5 L199.5,299.5 Z" id="Rectangle-17-Copy-491"></path>
                    <path d="M249.5,299.5 L299.5,299.5 L299.5,374.5 L249.5,374.5 L249.5,299.5 Z" id="Rectangle-17-Copy-492"></path>
                    <path d="M299.5,299.5 L349.5,299.5 L349.5,374.5 L299.5,374.5 L299.5,299.5 Z" id="Rectangle-17-Copy-493"></path>
                    <path d="M349.5,299.5 L399.5,299.5 L399.5,374.5 L349.5,374.5 L349.5,299.5 Z" id="Rectangle-17-Copy-494"></path>
                    <path d="M399.5,299.5 L449.5,299.5 L449.5,374.5 L399.5,374.5 L399.5,299.5 Z" id="Rectangle-17-Copy-495"></path>
                    <path d="M449.5,299.5 L499.5,299.5 L499.5,374.5 L449.5,374.5 L449.5,299.5 Z" id="Rectangle-17-Copy-496"></path>
                    <path d="M499.5,299.5 L549.5,299.5 L549.5,374.5 L499.5,374.5 L499.5,299.5 Z" id="Rectangle-17-Copy-497"></path>
                    <path d="M549.5,299.5 L599.5,299.5 L599.5,374.5 L549.5,374.5 L549.5,299.5 Z" id="Rectangle-17-Copy-498"></path>
                    <path d="M599.5,299.5 L649.5,299.5 L649.5,374.5 L599.5,374.5 L599.5,299.5 Z" id="Rectangle-17-Copy-499"></path>
                    <path d="M649.5,299.5 L699.5,299.5 L699.5,374.5 L649.5,374.5 L649.5,299.5 Z" id="Rectangle-17-Copy-500"></path>
                    <path d="M699.5,299.5 L749.5,299.5 L749.5,374.5 L699.5,374.5 L699.5,299.5 Z" id="Rectangle-17-Copy-501"></path>
                    <path d="M749.5,299.5 L799.5,299.5 L799.5,374.5 L749.5,374.5 L749.5,299.5 Z" id="Rectangle-17-Copy-502"></path>
                    <path d="M-0.5,224.5 L99.5,224.5 L99.5,299.5 L-0.5,299.5 L-0.5,224.5 Z" id="Rectangle-17-Copy-487"></path>
                    <path d="M99.5,224.5 L199.5,224.5 L199.5,299.5 L99.5,299.5 L99.5,224.5 Z" id="Rectangle-17-Copy-487"></path>
                    <path d="M199.5,224.5 L299.5,224.5 L299.5,299.5 L199.5,299.5 L199.5,224.5 Z" id="Rectangle-17-Copy-487"></path>
                    <path d="M299.5,224.5 L399.5,224.5 L399.5,299.5 L299.5,299.5 L299.5,224.5 Z" id="Rectangle-17-Copy-487"></path>
                    <path d="M399.5,224.5 L499.5,224.5 L499.5,299.5 L399.5,299.5 L399.5,224.5 Z" id="Rectangle-17-Copy-487"></path>
                    <path d="M499.5,224.5 L599.5,224.5 L599.5,299.5 L499.5,299.5 L499.5,224.5 Z" id="Rectangle-17-Copy-487"></path>
                    <path d="M599.5,224.5 L699.5,224.5 L699.5,299.5 L599.5,299.5 L599.5,224.5 Z" id="Rectangle-17-Copy-487"></path>
                    <path d="M699.5,224.5 L799.5,224.5 L799.5,299.5 L699.5,299.5 L699.5,224.5 Z" id="Rectangle-17-Copy-487"></path>
                    <path d="M599.5,149.5 L799.5,149.5 L799.5,224.5 L599.5,224.5 L599.5,149.5 Z" id="Rectangle-17-Copy-487"></path>
                    <path d="M399.5,149.5 L599.5,149.5 L599.5,224.5 L399.5,224.5 L399.5,149.5 Z" id="Rectangle-17-Copy-487"></path>
                    <path d="M199.5,149.5 L399.5,149.5 L399.5,224.5 L199.5,224.5 L199.5,149.5 Z" id="Rectangle-17-Copy-487"></path>
                    <path d="M-0.5,149.5 L199.5,149.5 L199.5,224.5 L-0.5,224.5 L-0.5,149.5 Z" id="Rectangle-17-Copy-487"></path>
                    <path d="M-0.5,74.5 L399.5,74.5 L399.5,149.5 L-0.5,149.5 L-0.5,74.5 Z" id="Rectangle-17-Copy-487"></path>
                    <path d="M399.5,74.5 L799.5,74.5 L799.5,149.5 L399.5,149.5 L399.5,74.5 Z" id="Rectangle-17-Copy-487"></path>
                    <path d="M-0.5,-0.5 L799.5,-0.5 L799.5,74.5 L-0.5,74.5 L-0.5,-0.5 Z" id="Rectangle-17-Copy-487"></path>
                </g>
                <g id="browser">
                    <rect id="Rectangle-17-Copy-487" stroke="#BEBEBE" x="0.5" y="19.5" width="800" height="375"></rect>
                    <path d="M2.53090909,0 L798.469091,0 C799.866873,-2.56768479e-16 801,1.1331266 801,2.53090909 L801,19.9518987 L0,19.9518987 L0,2.53090909 C-1.71178986e-16,1.1331266 1.1331266,2.56768479e-16 2.53090909,0 Z" id="Rectangle-2-Copy-25" fill="#565656"></path>
                    <ellipse id="Oval-5-Copy-18" fill="#FFFFFF" cx="13" cy="9.99240506" rx="3" ry="2.99240506"></ellipse>
                    <ellipse id="Oval-5-Copy-19" fill="#FFFFFF" cx="25" cy="9.99240506" rx="3" ry="2.99240506"></ellipse>
                </g>
            </g>
        </g>
    </g>
</svg>