<?xml version="1.0" encoding="UTF-8"?>
<svg width="288px" height="288px" viewBox="0 0 288 288" version="1.1" xmlns="http://www.w3.org/2000/svg" xmlns:xlink="http://www.w3.org/1999/xlink">
    <!-- Generator: Sketch 52.4 (67378) - http://www.bohemiancoding.com/sketch -->
    <title>Layout_overview_Paddings Dont</title>
    <desc>Created with Sketch.</desc>
    <defs>
        <rect id="path-1" x="55" y="90" width="179" height="130"></rect>
    </defs>
    <g id="Paddings-Dont" stroke="none" stroke-width="1" fill="none" fill-rule="evenodd">
        <g id="Rectangle-17-Copy-388">
            <use fill="#FFFFFF" fill-rule="evenodd" xlink:href="#path-1"></use>
            <rect stroke="#97C1FF" stroke-width="1" x="54.5" y="89.5" width="180" height="131"></rect>
            <rect stroke="#EDF4FF" stroke-width="10" stroke-linejoin="square" x="60" y="95" width="169" height="120"></rect>
        </g>
        <path d="M72.304,118 L69.84,118 L67.88,112.232 L59.984,112.232 L58.024,118 L55.644,118 L62.476,98.456 L65.472,98.456 L72.304,118 Z M67.292,110.16 L63.988,100.64 L63.848,100.64 L60.544,110.16 L67.292,110.16 Z M79.696,118 L77.708,118 C76.168,118 75.328,117.02 75.328,115.676 L75.328,97.28 L77.568,97.28 L77.568,116.04 L79.696,116.04 L79.696,118 Z M85.156,118 L81.292,103.552 L83.476,103.552 L85.016,109.796 L86.556,116.124 L86.612,116.124 L88.376,109.796 L90.196,103.552 L92.184,103.552 L94.06,109.796 L95.852,116.124 L95.908,116.124 L97.392,109.796 L98.96,103.552 L101.06,103.552 L97.224,118 L94.452,118 L92.436,111.056 L91.176,106.66 L91.12,106.66 L89.888,111.056 L87.872,118 L85.156,118 Z M115.816,118 L114.556,118 C112.904,118 112.232,116.992 112.064,115.648 L111.924,115.648 C111.308,117.412 109.768,118.336 107.752,118.336 C104.7,118.336 102.908,116.656 102.908,113.968 C102.908,111.252 104.868,109.74 109.068,109.74 L111.924,109.74 L111.924,108.312 C111.924,106.268 110.804,105.148 108.508,105.148 C106.772,105.148 105.624,105.988 104.84,107.304 L103.496,106.044 C104.28,104.504 106.016,103.216 108.62,103.216 C112.092,103.216 114.164,105.036 114.164,108.088 L114.164,116.04 L115.816,116.04 L115.816,118 Z M108.116,116.432 C110.328,116.432 111.924,115.284 111.924,113.8 L111.924,111.42 L108.956,111.42 C106.408,111.42 105.26,112.204 105.26,113.604 L105.26,114.192 C105.26,115.62 106.38,116.432 108.116,116.432 Z M124.272,113.38 L127.772,103.552 L129.984,103.552 L123.516,121.36 C122.872,123.096 122.284,123.6 120.156,123.6 L119.008,123.6 L119.008,121.64 L121.276,121.64 L122.368,118.56 L116.964,103.552 L119.204,103.552 L122.676,113.38 L123.348,115.732 L123.488,115.732 L124.272,113.38 Z M137.068,118.336 C134.408,118.336 132.644,117.216 131.356,115.508 L132.952,114.22 C134.072,115.62 135.416,116.432 137.236,116.432 C139.14,116.432 140.26,115.564 140.26,114.08 C140.26,112.96 139.644,112.092 137.74,111.812 L136.592,111.644 C133.932,111.252 131.944,110.16 131.944,107.472 C131.944,104.616 134.156,103.216 137.096,103.216 C139.42,103.216 140.96,104.084 142.136,105.54 L140.652,106.884 C140.008,105.988 138.776,105.12 136.928,105.12 C135.08,105.12 134.1,105.988 134.1,107.36 C134.1,108.76 135.08,109.32 136.872,109.6 L137.992,109.768 C141.184,110.244 142.416,111.644 142.416,113.828 C142.416,116.628 140.372,118.336 137.068,118.336 Z M153.756,118 L153.756,105.512 L151.404,105.512 L151.404,103.552 L153.756,103.552 L153.756,100.64 C153.756,98.652 154.792,97.28 156.92,97.28 L159.104,97.28 L159.104,99.24 L155.996,99.24 L155.996,103.552 L159.104,103.552 L159.104,105.512 L155.996,105.512 L155.996,118 L153.756,118 Z M166.412,118 L164.424,118 C162.884,118 162.044,117.02 162.044,115.676 L162.044,97.28 L164.284,97.28 L164.284,116.04 L166.412,116.04 L166.412,118 Z M178.564,118 L178.564,115.648 L178.452,115.648 C177.892,117.02 176.8,118.336 174.392,118.336 C171.424,118.336 169.52,116.32 169.52,112.82 L169.52,103.552 L171.76,103.552 L171.76,112.428 C171.76,115.004 172.908,116.32 175.064,116.32 C176.828,116.32 178.564,115.452 178.564,113.548 L178.564,103.552 L180.804,103.552 L180.804,118 L178.564,118 Z M189.904,118.336 C187.244,118.336 185.48,117.216 184.192,115.508 L185.788,114.22 C186.908,115.62 188.252,116.432 190.072,116.432 C191.976,116.432 193.096,115.564 193.096,114.08 C193.096,112.96 192.48,112.092 190.576,111.812 L189.428,111.644 C186.768,111.252 184.78,110.16 184.78,107.472 C184.78,104.616 186.992,103.216 189.932,103.216 C192.256,103.216 193.796,104.084 194.972,105.54 L193.488,106.884 C192.844,105.988 191.612,105.12 189.764,105.12 C187.916,105.12 186.936,105.988 186.936,107.36 C186.936,108.76 187.916,109.32 189.708,109.6 L190.828,109.768 C194.02,110.244 195.252,111.644 195.252,113.828 C195.252,116.628 193.208,118.336 189.904,118.336 Z M199.2,118 L199.2,97.28 L201.44,97.28 L201.44,105.904 L201.552,105.904 C202.252,104.28 203.484,103.216 205.64,103.216 C208.608,103.216 210.484,105.232 210.484,108.732 L210.484,118 L208.244,118 L208.244,109.124 C208.244,106.548 207.124,105.232 204.968,105.232 C203.176,105.232 201.44,106.128 201.44,107.976 L201.44,118 L199.2,118 Z M61.748,152 L59.76,152 C58.22,152 57.38,151.02 57.38,149.676 L57.38,131.28 L59.62,131.28 L59.62,150.04 L61.748,150.04 L61.748,152 Z M70.428,152.336 C66.508,152.336 63.932,149.368 63.932,144.776 C63.932,140.184 66.508,137.216 70.428,137.216 C74.292,137.216 76.672,140.184 76.672,144.272 L76.672,145.336 L66.284,145.336 L66.284,146.008 C66.284,148.5 67.88,150.376 70.568,150.376 C72.388,150.376 73.788,149.48 74.544,147.884 L76.14,149.032 C75.216,150.992 73.144,152.336 70.428,152.336 Z M70.428,139.092 C67.992,139.092 66.284,140.94 66.284,143.46 L66.284,143.656 L74.264,143.656 L74.264,143.348 C74.264,140.8 72.724,139.092 70.428,139.092 Z M81.152,152 L81.152,139.512 L78.8,139.512 L78.8,137.552 L81.152,137.552 L81.152,134.64 C81.152,132.652 82.188,131.28 84.316,131.28 L86.5,131.28 L86.5,133.24 L83.392,133.24 L83.392,137.552 L86.5,137.552 L86.5,139.512 L83.392,139.512 L83.392,152 L81.152,152 Z M95.432,152 L92.632,152 C91.092,152 90.252,151.02 90.252,149.62 L90.252,139.512 L87.872,139.512 L87.872,137.552 L89.216,137.552 C90.168,137.552 90.476,137.216 90.476,136.236 L90.476,133.548 L92.492,133.548 L92.492,137.552 L95.656,137.552 L95.656,139.512 L92.492,139.512 L92.492,150.04 L95.432,150.04 L95.432,152 Z M111.868,152 L109.068,152 C107.528,152 106.688,151.02 106.688,149.62 L106.688,139.512 L104.308,139.512 L104.308,137.552 L105.652,137.552 C106.604,137.552 106.912,137.216 106.912,136.236 L106.912,133.548 L108.928,133.548 L108.928,137.552 L112.092,137.552 L112.092,139.512 L108.928,139.512 L108.928,150.04 L111.868,150.04 L111.868,152 Z M121.108,147.38 L124.608,137.552 L126.82,137.552 L120.352,155.36 C119.708,157.096 119.12,157.6 116.992,157.6 L115.844,157.6 L115.844,155.64 L118.112,155.64 L119.204,152.56 L113.8,137.552 L116.04,137.552 L119.512,147.38 L120.184,149.732 L120.324,149.732 L121.108,147.38 Z M129.676,157.6 L129.676,137.552 L131.916,137.552 L131.916,139.904 L132.028,139.904 C132.784,138.084 134.268,137.216 136.256,137.216 C139.868,137.216 142.136,140.156 142.136,144.776 C142.136,149.396 139.868,152.336 136.256,152.336 C134.268,152.336 132.896,151.44 132.028,149.648 L131.916,149.648 L131.916,157.6 L129.676,157.6 Z M135.64,150.32 C138.16,150.32 139.728,148.584 139.728,146.008 L139.728,143.544 C139.728,140.968 138.16,139.232 135.64,139.232 C133.596,139.232 131.916,140.408 131.916,142.004 L131.916,147.38 C131.916,149.256 133.596,150.32 135.64,150.32 Z M151.348,152.336 C147.428,152.336 144.852,149.368 144.852,144.776 C144.852,140.184 147.428,137.216 151.348,137.216 C155.212,137.216 157.592,140.184 157.592,144.272 L157.592,145.336 L147.204,145.336 L147.204,146.008 C147.204,148.5 148.8,150.376 151.488,150.376 C153.308,150.376 154.708,149.48 155.464,147.884 L157.06,149.032 C156.136,150.992 154.064,152.336 151.348,152.336 Z M151.348,139.092 C148.912,139.092 147.204,140.94 147.204,143.46 L147.204,143.656 L155.184,143.656 L155.184,143.348 C155.184,140.8 153.644,139.092 151.348,139.092 Z" id="Always-flush-left-ty" fill="#3D3D3D"></path>
        <rect id="Rectangle-5" stroke="#DCDCDC" stroke-width="0.5" x="55.25" y="90.25" width="158.5" height="73.5"></rect>
        <rect id="Rectangle-8" stroke="#DCDCDC" stroke-width="0.5" fill="#FFFFFF" x="53.25" y="88.25" width="3.5" height="3.5"></rect>
        <rect id="Rectangle-8-Copy-20" stroke="#DCDCDC" stroke-width="0.5" fill="#FFFFFF" x="53.25" y="162.25" width="3.5" height="3.5"></rect>
        <rect id="Rectangle-8-Copy-16" stroke="#DCDCDC" stroke-width="0.5" fill="#FFFFFF" x="133.25" y="88.25" width="3.5" height="3.5"></rect>
        <rect id="Rectangle-8-Copy-21" stroke="#DCDCDC" stroke-width="0.5" fill="#FFFFFF" x="133.25" y="162.25" width="3.5" height="3.5"></rect>
        <rect id="Rectangle-8-Copy-17" stroke="#DCDCDC" stroke-width="0.5" fill="#FFFFFF" x="212.25" y="88.25" width="3.5" height="3.5"></rect>
        <rect id="Rectangle-8-Copy-18" stroke="#DCDCDC" stroke-width="0.5" fill="#FFFFFF" x="212.25" y="125.25" width="3.5" height="3.5"></rect>
        <rect id="Rectangle-8-Copy-22" stroke="#DCDCDC" stroke-width="0.5" fill="#FFFFFF" x="53.25" y="125.25" width="3.5" height="3.5"></rect>
        <rect id="Rectangle-8-Copy-19" stroke="#DCDCDC" stroke-width="0.5" fill="#FFFFFF" x="212.25" y="162.25" width="3.5" height="3.5"></rect>
    </g>
</svg>