<?xml version="1.0" encoding="UTF-8"?>
<svg width="288px" height="288px" viewBox="0 0 288 288" version="1.1" xmlns="http://www.w3.org/2000/svg" xmlns:xlink="http://www.w3.org/1999/xlink">
    <!-- Generator: Sketch 52.4 (67378) - http://www.bohemiancoding.com/sketch -->
    <title>Layout_overview_Visual rhythm Do</title>
    <desc>Created with Sketch.</desc>
    <g id="Visual-rhythm-Do" stroke="none" stroke-width="1" fill="none" fill-rule="evenodd">
        <g id="Group-16" transform="translate(15.000000, 57.000000)" opacity="0.5" stroke="#DCDCDC" stroke-linecap="square">
            <path d="M1.5,0.465561224 L1.5,210.465561" id="Line-7"></path>
            <path d="M6.5,0.465561224 L6.5,210.465561" id="Line-7-Copy"></path>
            <path d="M11.5,0.465561224 L11.5,210.465561" id="Line-7-Copy-2"></path>
            <path d="M16.5,0.465561224 L16.5,210.465561" id="Line-7-Copy-3"></path>
            <path d="M21.5,0.465561224 L21.5,210.465561" id="Line-7-Copy-4"></path>
            <path d="M26.5,0.465561224 L26.5,210.465561" id="Line-7-Copy-5"></path>
            <path d="M31.5,0.465561224 L31.5,210.465561" id="Line-7-Copy-6"></path>
            <path d="M36.5,0.465561224 L36.5,210.465561" id="Line-7-Copy-7"></path>
            <path d="M41.5,0.465561224 L41.5,210.465561" id="Line-7-Copy-8"></path>
            <path d="M46.5,0.465561224 L46.5,210.465561" id="Line-7-Copy-9"></path>
            <path d="M51.5,0.465561224 L51.5,210.465561" id="Line-7-Copy-10"></path>
            <path d="M56.5,0.465561224 L56.5,210.465561" id="Line-7-Copy-11"></path>
            <path d="M61.5,0.465561224 L61.5,210.465561" id="Line-7-Copy-12"></path>
            <path d="M66.5,0.465561224 L66.5,210.465561" id="Line-7-Copy-13"></path>
            <path d="M71.5,0.465561224 L71.5,210.465561" id="Line-7-Copy-14"></path>
            <path d="M76.5,0.465561224 L76.5,210.465561" id="Line-7-Copy-15"></path>
            <path d="M81.5,0.465561224 L81.5,210.465561" id="Line-7-Copy-16"></path>
            <path d="M86.5,0.465561224 L86.5,210.465561" id="Line-7-Copy-17"></path>
            <path d="M91.5,0.465561224 L91.5,210.465561" id="Line-7-Copy-18"></path>
            <path d="M96.5,0.465561224 L96.5,210.465561" id="Line-7-Copy-19"></path>
            <path d="M101.5,0.465561224 L101.5,210.465561" id="Line-7-Copy-20"></path>
            <path d="M106.5,0.465561224 L106.5,210.465561" id="Line-7-Copy-21"></path>
            <path d="M111.5,0.465561224 L111.5,210.465561" id="Line-7-Copy-22"></path>
            <path d="M116.5,0.465561224 L116.5,210.465561" id="Line-7-Copy-23"></path>
            <path d="M121.5,0.465561224 L121.5,210.465561" id="Line-7-Copy-24"></path>
            <path d="M126.5,0.465561224 L126.5,210.465561" id="Line-7-Copy-25"></path>
            <path d="M131.5,0.465561224 L131.5,210.465561" id="Line-7-Copy-26"></path>
            <path d="M136.5,0.465561224 L136.5,210.465561" id="Line-7-Copy-27"></path>
            <path d="M141.5,0.465561224 L141.5,210.465561" id="Line-7-Copy-28"></path>
            <path d="M146.5,0.465561224 L146.5,210.465561" id="Line-7-Copy-29"></path>
            <path d="M151.5,0.465561224 L151.5,210.465561" id="Line-7-Copy-30"></path>
            <path d="M156.5,0.465561224 L156.5,210.465561" id="Line-7-Copy-31"></path>
            <path d="M161.5,0.465561224 L161.5,210.465561" id="Line-7-Copy-32"></path>
            <path d="M166.5,0.465561224 L166.5,210.465561" id="Line-7-Copy-33"></path>
            <path d="M171.5,0.465561224 L171.5,210.465561" id="Line-7-Copy-34"></path>
            <path d="M176.5,0.465561224 L176.5,210.465561" id="Line-7-Copy-35"></path>
            <path d="M181.5,0.465561224 L181.5,210.465561" id="Line-7-Copy-36"></path>
            <path d="M186.5,0.465561224 L186.5,210.465561" id="Line-7-Copy-37"></path>
            <path d="M191.5,0.465561224 L191.5,210.465561" id="Line-7-Copy-38"></path>
            <path d="M196.5,0.465561224 L196.5,210.465561" id="Line-7-Copy-39"></path>
            <path d="M201.5,0.465561224 L201.5,210.465561" id="Line-7-Copy-40"></path>
            <path d="M206.5,0.465561224 L206.5,210.465561" id="Line-7-Copy-27"></path>
            <path d="M211.5,0.465561224 L211.5,210.465561" id="Line-7-Copy-28"></path>
            <path d="M216.5,0.465561224 L216.5,210.465561" id="Line-7-Copy-29"></path>
            <path d="M221.5,0.465561224 L221.5,210.465561" id="Line-7-Copy-30"></path>
            <path d="M226.5,0.465561224 L226.5,210.465561" id="Line-7-Copy-31"></path>
            <path d="M231.5,0.465561224 L231.5,210.465561" id="Line-7-Copy-32"></path>
            <path d="M236.5,0.465561224 L236.5,210.465561" id="Line-7-Copy-33"></path>
            <path d="M241.5,0.465561224 L241.5,210.465561" id="Line-7-Copy-34"></path>
            <path d="M246.5,0.465561224 L246.5,210.465561" id="Line-7-Copy-35"></path>
            <path d="M251.5,0.465561224 L251.5,210.465561" id="Line-7-Copy-36"></path>
            <path d="M256.5,0.465561224 L256.5,210.465561" id="Line-7-Copy-37"></path>
        </g>
        <g id="Group-17" transform="translate(17.000000, 56.000000)" opacity="0.5" stroke="#DCDCDC" stroke-linecap="square">
            <path d="M0.154689403,1.5 L253.852102,1.5" id="Line-8"></path>
            <path d="M0.154689403,6.5 L253.852102,6.5" id="Line-8-Copy"></path>
            <path d="M0.154689403,11.5 L253.852102,11.5" id="Line-8-Copy-2"></path>
            <path d="M0.154689403,16.5 L253.852102,16.5" id="Line-8-Copy-3"></path>
            <path d="M0.154689403,21.5 L253.852102,21.5" id="Line-8-Copy-4"></path>
            <path d="M0.154689403,26.5 L253.852102,26.5" id="Line-8-Copy-5"></path>
            <path d="M0.154689403,31.5 L253.852102,31.5" id="Line-8-Copy-6"></path>
            <path d="M0.154689403,36.5 L253.852102,36.5" id="Line-8-Copy-7"></path>
            <path d="M0.154689403,41.5 L253.852102,41.5" id="Line-8-Copy-8"></path>
            <path d="M0.154689403,46.5 L253.852102,46.5" id="Line-8-Copy-9"></path>
            <path d="M0.154689403,51.5 L253.852102,51.5" id="Line-8-Copy-10"></path>
            <path d="M0.154689403,56.5 L253.852102,56.5" id="Line-8-Copy-11"></path>
            <path d="M0.154689403,61.5 L253.852102,61.5" id="Line-8-Copy-12"></path>
            <path d="M0.154689403,66.5 L253.852102,66.5" id="Line-8-Copy-13"></path>
            <path d="M0.154689403,71.5 L253.852102,71.5" id="Line-8-Copy-14"></path>
            <path d="M0.154689403,76.5 L253.852102,76.5" id="Line-8-Copy-15"></path>
            <path d="M0.154689403,81.5 L253.852102,81.5" id="Line-8-Copy-16"></path>
            <path d="M0.154689403,86.5 L253.852102,86.5" id="Line-8-Copy-17"></path>
            <path d="M0.154689403,91.5 L253.852102,91.5" id="Line-8-Copy-18"></path>
            <path d="M0.154689403,96.5 L253.852102,96.5" id="Line-8-Copy-19"></path>
            <path d="M0.154689403,101.5 L253.852102,101.5" id="Line-8-Copy-20"></path>
            <path d="M0.154689403,106.5 L253.852102,106.5" id="Line-8-Copy-21"></path>
            <path d="M0.154689403,111.5 L253.852102,111.5" id="Line-8-Copy-22"></path>
            <path d="M0.154689403,116.5 L253.852102,116.5" id="Line-8-Copy-23"></path>
            <path d="M0.154689403,121.5 L253.852102,121.5" id="Line-8-Copy-24"></path>
            <path d="M0.154689403,126.5 L253.852102,126.5" id="Line-8-Copy-25"></path>
            <path d="M0.154689403,131.5 L253.852102,131.5" id="Line-8-Copy-26"></path>
            <path d="M0.154689403,136.5 L253.852102,136.5" id="Line-8-Copy-27"></path>
            <path d="M0.154689403,141.5 L253.852102,141.5" id="Line-8-Copy-28"></path>
            <path d="M0.154689403,146.5 L253.852102,146.5" id="Line-8-Copy-29"></path>
            <path d="M0.154689403,151.5 L253.852102,151.5" id="Line-8-Copy-30"></path>
            <path d="M0.154689403,156.5 L253.852102,156.5" id="Line-8-Copy-31"></path>
            <path d="M0.154689403,161.5 L253.852102,161.5" id="Line-8-Copy-32"></path>
            <path d="M0.154689403,166.5 L253.852102,166.5" id="Line-8-Copy-33"></path>
            <path d="M0.154689403,171.5 L253.852102,171.5" id="Line-8-Copy-34"></path>
            <path d="M0.154689403,176.5 L253.852102,176.5" id="Line-8-Copy-35"></path>
            <path d="M0.154689403,181.5 L253.852102,181.5" id="Line-8-Copy-36"></path>
            <path d="M0.154689403,186.5 L253.852102,186.5" id="Line-8-Copy-37"></path>
            <path d="M0.154689403,191.5 L253.852102,191.5" id="Line-8-Copy-38"></path>
            <path d="M0.154689403,196.5 L253.852102,196.5" id="Line-8-Copy-39"></path>
            <path d="M0.154689403,201.5 L253.852102,201.5" id="Line-8-Copy-40"></path>
            <path d="M0.154689403,206.5 L253.852102,206.5" id="Line-8-Copy-41"></path>
            <path d="M0.154689403,211.5 L253.852102,211.5" id="Line-8-Copy-42"></path>
        </g>
        <rect id="Rectangle-18-Copy-2" fill="#B3E6FF" x="76.5" y="154" width="20" height="20"></rect>
        <path d="M95.44,123.056 L87.448,123.056 L87.448,145.52 L84.424,145.52 L84.424,123.056 L76.432,123.056 L76.432,120.392 L95.44,120.392 L95.44,123.056 Z M103.936,145.952 C98.896,145.952 95.584,142.136 95.584,136.232 C95.584,130.328 98.896,126.512 103.936,126.512 C108.904,126.512 111.964,130.328 111.964,135.584 L111.964,136.952 L98.608,136.952 L98.608,137.816 C98.608,141.02 100.66,143.432 104.116,143.432 C106.456,143.432 108.256,142.28 109.228,140.228 L111.28,141.704 C110.092,144.224 107.428,145.952 103.936,145.952 Z M103.936,128.924 C100.804,128.924 98.608,131.3 98.608,134.54 L98.608,134.792 L108.868,134.792 L108.868,134.396 C108.868,131.12 106.888,128.924 103.936,128.924 Z M113.98,145.52 L120.856,136.16 L114.268,126.944 L117.652,126.944 L122.368,133.856 L122.476,133.856 L127.372,126.944 L130.576,126.944 L124.024,135.944 L130.72,145.52 L127.336,145.52 L122.512,138.248 L122.404,138.248 L117.184,145.52 L113.98,145.52 Z M142.24,145.52 L138.64,145.52 C136.66,145.52 135.58,144.26 135.58,142.46 L135.58,129.464 L132.52,129.464 L132.52,126.944 L134.248,126.944 C135.472,126.944 135.868,126.512 135.868,125.252 L135.868,121.796 L138.46,121.796 L138.46,126.944 L142.528,126.944 L142.528,129.464 L138.46,129.464 L138.46,143 L142.24,143 L142.24,145.52 Z M162.688,145.952 C157.72,145.952 154.3,142.136 154.3,136.232 C154.3,130.328 157.72,126.512 162.688,126.512 C167.656,126.512 171.076,130.328 171.076,136.232 C171.076,142.136 167.656,145.952 162.688,145.952 Z M162.688,143.396 C165.784,143.396 167.98,141.488 167.98,137.564 L167.98,134.9 C167.98,130.976 165.784,129.068 162.688,129.068 C159.592,129.068 157.396,130.976 157.396,134.9 L157.396,137.564 C157.396,141.488 159.592,143.396 162.688,143.396 Z M178.708,145.52 L175.828,145.52 L175.828,126.944 L178.708,126.944 L178.708,129.968 L178.852,129.968 C179.752,127.88 181.336,126.512 184.108,126.512 C187.924,126.512 190.336,129.104 190.336,133.604 L190.336,145.52 L187.456,145.52 L187.456,134.108 C187.456,130.796 186.016,129.104 183.244,129.104 C180.94,129.104 178.708,130.256 178.708,132.632 L178.708,145.52 Z M203.26,145.952 C198.22,145.952 194.908,142.136 194.908,136.232 C194.908,130.328 198.22,126.512 203.26,126.512 C208.228,126.512 211.288,130.328 211.288,135.584 L211.288,136.952 L197.932,136.952 L197.932,137.816 C197.932,141.02 199.984,143.432 203.44,143.432 C205.78,143.432 207.58,142.28 208.552,140.228 L210.604,141.704 C209.416,144.224 206.752,145.952 203.26,145.952 Z M203.26,128.924 C200.128,128.924 197.932,131.3 197.932,134.54 L197.932,134.792 L208.192,134.792 L208.192,134.396 C208.192,131.12 206.212,128.924 203.26,128.924 Z" id="Text-one" fill="#3D3D3D"></path>
        <path d="M76.74,112.14 L76.74,154.14 L213.74,154.14 L213.74,112.14 L76.74,112.14 Z" id="Rectangle-5" stroke="#BEBEBE"></path>
        <rect id="Rectangle-8" stroke="#BEBEBE" fill="#FFFFFF" x="74.5" y="109.5" width="4.28" height="4.28"></rect>
        <rect id="Rectangle-8-Copy-20" stroke="#BEBEBE" fill="#FFFFFF" x="74.5" y="151.5" width="4.28" height="4.28"></rect>
        <rect id="Rectangle-8-Copy-16" stroke="#BEBEBE" fill="#FFFFFF" x="142.5" y="109.5" width="4.28" height="4.28"></rect>
        <rect id="Rectangle-8-Copy-21" stroke="#BEBEBE" fill="#FFFFFF" x="142.5" y="151.5" width="4.28" height="4.28"></rect>
        <rect id="Rectangle-8-Copy-17" stroke="#BEBEBE" fill="#FFFFFF" x="211.74" y="109.5" width="4.28" height="4.28"></rect>
        <rect id="Rectangle-8-Copy-18" stroke="#BEBEBE" fill="#FFFFFF" x="211.5" y="130.5" width="4.28" height="4.28"></rect>
        <rect id="Rectangle-8-Copy-22" stroke="#BEBEBE" fill="#FFFFFF" x="74.5" y="130.5" width="4.28" height="4.28"></rect>
        <rect id="Rectangle-8-Copy-19" stroke="#BEBEBE" fill="#FFFFFF" x="211.5" y="151.5" width="4.28" height="4.28"></rect>
        <path d="M95.44,185.056 L87.448,185.056 L87.448,207.52 L84.424,207.52 L84.424,185.056 L76.432,185.056 L76.432,182.392 L95.44,182.392 L95.44,185.056 Z M103.936,207.952 C98.896,207.952 95.584,204.136 95.584,198.232 C95.584,192.328 98.896,188.512 103.936,188.512 C108.904,188.512 111.964,192.328 111.964,197.584 L111.964,198.952 L98.608,198.952 L98.608,199.816 C98.608,203.02 100.66,205.432 104.116,205.432 C106.456,205.432 108.256,204.28 109.228,202.228 L111.28,203.704 C110.092,206.224 107.428,207.952 103.936,207.952 Z M103.936,190.924 C100.804,190.924 98.608,193.3 98.608,196.54 L98.608,196.792 L108.868,196.792 L108.868,196.396 C108.868,193.12 106.888,190.924 103.936,190.924 Z M113.98,207.52 L120.856,198.16 L114.268,188.944 L117.652,188.944 L122.368,195.856 L122.476,195.856 L127.372,188.944 L130.576,188.944 L124.024,197.944 L130.72,207.52 L127.336,207.52 L122.512,200.248 L122.404,200.248 L117.184,207.52 L113.98,207.52 Z M142.24,207.52 L138.64,207.52 C136.66,207.52 135.58,206.26 135.58,204.46 L135.58,191.464 L132.52,191.464 L132.52,188.944 L134.248,188.944 C135.472,188.944 135.868,188.512 135.868,187.252 L135.868,183.796 L138.46,183.796 L138.46,188.944 L142.528,188.944 L142.528,191.464 L138.46,191.464 L138.46,205 L142.24,205 L142.24,207.52 Z M163.372,207.52 L159.772,207.52 C157.792,207.52 156.712,206.26 156.712,204.46 L156.712,191.464 L153.652,191.464 L153.652,188.944 L155.38,188.944 C156.604,188.944 157,188.512 157,187.252 L157,183.796 L159.592,183.796 L159.592,188.944 L163.66,188.944 L163.66,191.464 L159.592,191.464 L159.592,205 L163.372,205 L163.372,207.52 Z M171.328,207.52 L166.36,188.944 L169.168,188.944 L171.148,196.972 L173.128,205.108 L173.2,205.108 L175.468,196.972 L177.808,188.944 L180.364,188.944 L182.776,196.972 L185.08,205.108 L185.152,205.108 L187.06,196.972 L189.076,188.944 L191.776,188.944 L186.844,207.52 L183.28,207.52 L180.688,198.592 L179.068,192.94 L178.996,192.94 L177.412,198.592 L174.82,207.52 L171.328,207.52 Z M202.792,207.952 C197.824,207.952 194.404,204.136 194.404,198.232 C194.404,192.328 197.824,188.512 202.792,188.512 C207.76,188.512 211.18,192.328 211.18,198.232 C211.18,204.136 207.76,207.952 202.792,207.952 Z M202.792,205.396 C205.888,205.396 208.084,203.488 208.084,199.564 L208.084,196.9 C208.084,192.976 205.888,191.068 202.792,191.068 C199.696,191.068 197.5,192.976 197.5,196.9 L197.5,199.564 C197.5,203.488 199.696,205.396 202.792,205.396 Z" id="Text-two" fill="#3D3D3D"></path>
        <path d="M76.74,174.14 L76.74,216.14 L213.74,216.14 L213.74,174.14 L76.74,174.14 Z" id="Rectangle-5" stroke="#BEBEBE"></path>
        <rect id="Rectangle-8" stroke="#BEBEBE" fill="#FFFFFF" x="74.5" y="171.5" width="4.28" height="4.28"></rect>
        <rect id="Rectangle-8-Copy-20" stroke="#BEBEBE" fill="#FFFFFF" x="74.5" y="213.5" width="4.28" height="4.28"></rect>
        <rect id="Rectangle-8-Copy-16" stroke="#BEBEBE" fill="#FFFFFF" x="142.5" y="171.5" width="4.28" height="4.28"></rect>
        <rect id="Rectangle-8-Copy-21" stroke="#BEBEBE" fill="#FFFFFF" x="142.5" y="213.5" width="4.28" height="4.28"></rect>
        <rect id="Rectangle-8-Copy-17" stroke="#BEBEBE" fill="#FFFFFF" x="211.74" y="171.5" width="4.28" height="4.28"></rect>
        <rect id="Rectangle-8-Copy-18" stroke="#BEBEBE" fill="#FFFFFF" x="211.5" y="192.5" width="4.28" height="4.28"></rect>
        <rect id="Rectangle-8-Copy-22" stroke="#BEBEBE" fill="#FFFFFF" x="74.5" y="192.5" width="4.28" height="4.28"></rect>
        <rect id="Rectangle-8-Copy-19" stroke="#BEBEBE" fill="#FFFFFF" x="211.5" y="213.5" width="4.28" height="4.28"></rect>
    </g>
</svg>