<?xml version="1.0" encoding="UTF-8"?>
<svg width="928px" height="522px" viewBox="0 0 928 522" version="1.1" xmlns="http://www.w3.org/2000/svg" xmlns:xlink="http://www.w3.org/1999/xlink">
    <!-- Generator: Sketch 52.4 (67378) - http://www.bohemiancoding.com/sketch -->
    <title>Layout_overview_Fluid base unit</title>
    <desc>Created with Sketch.</desc>
    <g id="Fluid-base-unit" stroke="none" stroke-width="1" fill="none" fill-rule="evenodd">
        <g id="Group-3" transform="translate(14.000000, 15.000000)" stroke="#DCDCDC" stroke-linecap="square">
            <g id="Group-6">
                <g id="Group-16" transform="translate(0.000000, 1.000000)">
                    <path d="M58.475,0.621173469 L58.475,486.404245" id="Line-7"></path>
                    <path d="M50.475,0.621173469 L50.475,486.404245" id="Line-7"></path>
                    <path d="M42.475,0.621173469 L42.475,486.404245" id="Line-7"></path>
                    <path d="M570.475,0.621173469 L570.475,486.404245" id="Line-7"></path>
                    <path d="M562.475,0.621173469 L562.475,486.404245" id="Line-7"></path>
                    <path d="M554.475,0.621173469 L554.475,486.404245" id="Line-7"></path>
                    <path d="M546.475,0.621173469 L546.475,486.404245" id="Line-7"></path>
                    <path d="M538.475,0.621173469 L538.475,486.404245" id="Line-7"></path>
                    <path d="M530.475,0.621173469 L530.475,486.404245" id="Line-7"></path>
                    <path d="M634.475,0.621173469 L634.475,486.404245" id="Line-7"></path>
                    <path d="M626.475,0.621173469 L626.475,486.404245" id="Line-7"></path>
                    <path d="M618.475,0.621173469 L618.475,486.404245" id="Line-7"></path>
                    <path d="M610.475,0.621173469 L610.475,486.404245" id="Line-7"></path>
                    <path d="M602.475,0.621173469 L602.475,486.404245" id="Line-7"></path>
                    <path d="M594.475,0.621173469 L594.475,486.404245" id="Line-7"></path>
                    <path d="M586.475,0.621173469 L586.475,486.404245" id="Line-7"></path>
                    <path d="M578.475,0.621173469 L578.475,486.404245" id="Line-7"></path>
                    <path d="M698.475,0.621173469 L698.475,486.404245" id="Line-7"></path>
                    <path d="M690.475,0.621173469 L690.475,486.404245" id="Line-7"></path>
                    <path d="M682.475,0.621173469 L682.475,486.404245" id="Line-7"></path>
                    <path d="M674.475,0.621173469 L674.475,486.404245" id="Line-7"></path>
                    <path d="M666.475,0.621173469 L666.475,486.404245" id="Line-7"></path>
                    <path d="M658.475,0.621173469 L658.475,486.404245" id="Line-7"></path>
                    <path d="M762.475,0.621173469 L762.475,486.404245" id="Line-7"></path>
                    <path d="M754.475,0.621173469 L754.475,486.404245" id="Line-7"></path>
                    <path d="M746.475,0.621173469 L746.475,486.404245" id="Line-7"></path>
                    <path d="M738.475,0.621173469 L738.475,486.404245" id="Line-7"></path>
                    <path d="M730.475,0.621173469 L730.475,486.404245" id="Line-7"></path>
                    <path d="M722.475,0.621173469 L722.475,486.404245" id="Line-7"></path>
                    <path d="M714.475,0.621173469 L714.475,486.404245" id="Line-7"></path>
                    <path d="M706.475,0.621173469 L706.475,486.404245" id="Line-7"></path>
                    <path d="M650.475,0.621173469 L650.475,486.404245" id="Line-7"></path>
                    <path d="M642.475,0.621173469 L642.475,486.404245" id="Line-7"></path>
                    <path d="M826.475,0.621173469 L826.475,486.404245" id="Line-7"></path>
                    <path d="M818.475,0.621173469 L818.475,486.404245" id="Line-7"></path>
                    <path d="M810.475,0.621173469 L810.475,486.404245" id="Line-7"></path>
                    <path d="M802.475,0.621173469 L802.475,486.404245" id="Line-7"></path>
                    <path d="M794.475,0.621173469 L794.475,486.404245" id="Line-7"></path>
                    <path d="M786.475,0.621173469 L786.475,486.404245" id="Line-7"></path>
                    <path d="M890.475,0.621173469 L890.475,486.404245" id="Line-7"></path>
                    <path d="M882.475,0.621173469 L882.475,486.404245" id="Line-7"></path>
                    <path d="M874.475,0.621173469 L874.475,486.404245" id="Line-7"></path>
                    <path d="M866.475,0.621173469 L866.475,486.404245" id="Line-7"></path>
                    <path d="M858.475,0.621173469 L858.475,486.404245" id="Line-7"></path>
                    <path d="M850.475,0.621173469 L850.475,486.404245" id="Line-7"></path>
                    <path d="M842.475,0.621173469 L842.475,486.404245" id="Line-7"></path>
                    <path d="M834.475,0.621173469 L834.475,486.404245" id="Line-7"></path>
                    <path d="M898.475,0.621173469 L898.475,486.404245" id="Line-7"></path>
                    <path d="M778.475,0.621173469 L778.475,486.404245" id="Line-7"></path>
                    <path d="M770.475,0.621173469 L770.475,486.404245" id="Line-7"></path>
                    <path d="M522.475,0.621173469 L522.475,486.404245" id="Line-7"></path>
                    <path d="M514.475,0.621173469 L514.475,486.404245" id="Line-7"></path>
                    <path d="M34.475,0.621173469 L34.475,486.404245" id="Line-7"></path>
                    <path d="M26.475,0.621173469 L26.475,486.404245" id="Line-7"></path>
                    <path d="M18.475,0.621173469 L18.475,486.404245" id="Line-7"></path>
                    <path d="M122.475,0.621173469 L122.475,486.404245" id="Line-7"></path>
                    <path d="M114.475,0.621173469 L114.475,486.404245" id="Line-7"></path>
                    <path d="M106.475,0.621173469 L106.475,486.404245" id="Line-7"></path>
                    <path d="M98.475,0.621173469 L98.475,486.404245" id="Line-7"></path>
                    <path d="M90.475,0.621173469 L90.475,486.404245" id="Line-7"></path>
                    <path d="M82.475,0.621173469 L82.475,486.404245" id="Line-7"></path>
                    <path d="M74.475,0.621173469 L74.475,486.404245" id="Line-7"></path>
                    <path d="M66.475,0.621173469 L66.475,486.404245" id="Line-7"></path>
                    <path d="M186.475,0.621173469 L186.475,486.404245" id="Line-7"></path>
                    <path d="M178.475,0.621173469 L178.475,486.404245" id="Line-7"></path>
                    <path d="M170.475,0.621173469 L170.475,486.404245" id="Line-7"></path>
                    <path d="M162.475,0.621173469 L162.475,486.404245" id="Line-7"></path>
                    <path d="M154.475,0.621173469 L154.475,486.404245" id="Line-7"></path>
                    <path d="M146.475,0.621173469 L146.475,486.404245" id="Line-7"></path>
                    <path d="M250.475,0.621173469 L250.475,486.404245" id="Line-7"></path>
                    <path d="M242.475,0.621173469 L242.475,486.404245" id="Line-7"></path>
                    <path d="M234.475,0.621173469 L234.475,486.404245" id="Line-7"></path>
                    <path d="M226.475,0.621173469 L226.475,486.404245" id="Line-7"></path>
                    <path d="M218.475,0.621173469 L218.475,486.404245" id="Line-7"></path>
                    <path d="M210.475,0.621173469 L210.475,486.404245" id="Line-7"></path>
                    <path d="M202.475,0.621173469 L202.475,486.404245" id="Line-7"></path>
                    <path d="M194.475,0.621173469 L194.475,486.404245" id="Line-7"></path>
                    <path d="M138.475,0.621173469 L138.475,486.404245" id="Line-7"></path>
                    <path d="M130.475,0.621173469 L130.475,486.404245" id="Line-7"></path>
                    <path d="M314.475,0.621173469 L314.475,486.404245" id="Line-7"></path>
                    <path d="M306.475,0.621173469 L306.475,486.404245" id="Line-7"></path>
                    <path d="M298.475,0.621173469 L298.475,486.404245" id="Line-7"></path>
                    <path d="M290.475,0.621173469 L290.475,486.404245" id="Line-7"></path>
                    <path d="M282.475,0.621173469 L282.475,486.404245" id="Line-7"></path>
                    <path d="M274.475,0.621173469 L274.475,486.404245" id="Line-7"></path>
                    <path d="M378.475,0.621173469 L378.475,486.404245" id="Line-7"></path>
                    <path d="M370.475,0.621173469 L370.475,486.404245" id="Line-7"></path>
                    <path d="M362.475,0.621173469 L362.475,486.404245" id="Line-7"></path>
                    <path d="M354.475,0.621173469 L354.475,486.404245" id="Line-7"></path>
                    <path d="M346.475,0.621173469 L346.475,486.404245" id="Line-7"></path>
                    <path d="M338.475,0.621173469 L338.475,486.404245" id="Line-7"></path>
                    <path d="M330.475,0.621173469 L330.475,486.404245" id="Line-7"></path>
                    <path d="M322.475,0.621173469 L322.475,486.404245" id="Line-7"></path>
                    <path d="M442.475,0.621173469 L442.475,486.404245" id="Line-7"></path>
                    <path d="M434.475,0.621173469 L434.475,486.404245" id="Line-7"></path>
                    <path d="M426.475,0.621173469 L426.475,486.404245" id="Line-7"></path>
                    <path d="M418.475,0.621173469 L418.475,486.404245" id="Line-7"></path>
                    <path d="M410.475,0.621173469 L410.475,486.404245" id="Line-7"></path>
                    <path d="M402.475,0.621173469 L402.475,486.404245" id="Line-7"></path>
                    <path d="M506.475,0.621173469 L506.475,486.404245" id="Line-7"></path>
                    <path d="M498.475,0.621173469 L498.475,486.404245" id="Line-7"></path>
                    <path d="M490.475,0.621173469 L490.475,486.404245" id="Line-7"></path>
                    <path d="M482.475,0.621173469 L482.475,486.404245" id="Line-7"></path>
                    <path d="M474.475,0.621173469 L474.475,486.404245" id="Line-7"></path>
                    <path d="M466.475,0.621173469 L466.475,486.404245" id="Line-7"></path>
                    <path d="M458.475,0.621173469 L458.475,486.404245" id="Line-7"></path>
                    <path d="M450.475,0.621173469 L450.475,486.404245" id="Line-7"></path>
                    <path d="M394.475,0.621173469 L394.475,486.404245" id="Line-7"></path>
                    <path d="M386.475,0.621173469 L386.475,486.404245" id="Line-7"></path>
                    <path d="M266.475,0.621173469 L266.475,486.404245" id="Line-7"></path>
                    <path d="M258.475,0.621173469 L258.475,486.404245" id="Line-7"></path>
                    <path d="M10.475,0.621173469 L10.475,486.404245" id="Line-7"></path>
                    <path d="M2.475,0.621173469 L2.475,486.404245" id="Line-7"></path>
                </g>
                <g id="Group-17" transform="translate(2.000000, 0.000000)">
                    <path d="M0.90803694,120.931436 L895.911381,120.931436" id="Line-8"></path>
                    <path d="M0.90803694,128.900149 L895.911381,128.900149" id="Line-8-Copy"></path>
                    <path d="M0.90803694,136.868863 L895.911381,136.868863" id="Line-8-Copy-2"></path>
                    <path d="M0.90803694,144.837576 L895.911381,144.837576" id="Line-8-Copy-3"></path>
                    <path d="M0.90803694,152.806289 L895.911381,152.806289" id="Line-8-Copy-4"></path>
                    <path d="M0.90803694,160.775003 L895.911381,160.775003" id="Line-8-Copy-5"></path>
                    <path d="M0.90803694,168.743716 L895.911381,168.743716" id="Line-8-Copy-6"></path>
                    <path d="M0.90803694,176.712429 L895.911381,176.712429" id="Line-8-Copy-7"></path>
                    <path d="M0.90803694,184.681143 L895.911381,184.681143" id="Line-8-Copy-8"></path>
                    <path d="M0.90803694,192.649856 L895.911381,192.649856" id="Line-8-Copy-9"></path>
                    <path d="M0.90803694,200.61857 L895.911381,200.61857" id="Line-8-Copy-10"></path>
                    <path d="M0.90803694,208.587283 L895.911381,208.587283" id="Line-8-Copy-11"></path>
                    <path d="M0.90803694,216.555996 L895.911381,216.555996" id="Line-8-Copy-12"></path>
                    <path d="M0.90803694,224.52471 L895.911381,224.52471" id="Line-8-Copy-13"></path>
                    <path d="M0.90803694,232.493423 L895.911381,232.493423" id="Line-8-Copy-14"></path>
                    <path d="M0.90803694,240.462136 L895.911381,240.462136" id="Line-8-Copy-15"></path>
                    <path d="M0.90803694,248.43085 L895.911381,248.43085" id="Line-8-Copy-16"></path>
                    <path d="M0.90803694,256.399563 L895.911381,256.399563" id="Line-8-Copy-17"></path>
                    <path d="M0.90803694,264.368276 L895.911381,264.368276" id="Line-8-Copy-18"></path>
                    <path d="M0.90803694,272.33699 L895.911381,272.33699" id="Line-8-Copy-19"></path>
                    <path d="M0.90803694,280.305703 L895.911381,280.305703" id="Line-8-Copy-20"></path>
                    <path d="M0.90803694,288.274417 L895.911381,288.274417" id="Line-8-Copy-21"></path>
                    <path d="M0.90803694,296.24313 L895.911381,296.24313" id="Line-8-Copy-22"></path>
                    <path d="M0.90803694,1.40073547 L895.911381,1.40073547" id="Line-8-Copy-7"></path>
                    <path d="M0.90803694,9.36944883 L895.911381,9.36944883" id="Line-8-Copy-8"></path>
                    <path d="M0.90803694,17.3381622 L895.911381,17.3381622" id="Line-8-Copy-9"></path>
                    <path d="M0.90803694,25.3068756 L895.911381,25.3068756" id="Line-8-Copy-10"></path>
                    <path d="M0.90803694,33.2755889 L895.911381,33.2755889" id="Line-8-Copy-11"></path>
                    <path d="M0.90803694,41.2443023 L895.911381,41.2443023" id="Line-8-Copy-12"></path>
                    <path d="M0.90803694,49.2130156 L895.911381,49.2130156" id="Line-8-Copy-13"></path>
                    <path d="M0.90803694,57.181729 L895.911381,57.181729" id="Line-8-Copy-14"></path>
                    <path d="M0.90803694,65.1504424 L895.911381,65.1504424" id="Line-8-Copy-15"></path>
                    <path d="M0.90803694,73.1191557 L895.911381,73.1191557" id="Line-8-Copy-16"></path>
                    <path d="M0.90803694,81.0878691 L895.911381,81.0878691" id="Line-8-Copy-17"></path>
                    <path d="M0.90803694,89.0565825 L895.911381,89.0565825" id="Line-8-Copy-18"></path>
                    <path d="M0.90803694,97.0252958 L895.911381,97.0252958" id="Line-8-Copy-19"></path>
                    <path d="M0.90803694,104.994009 L895.911381,104.994009" id="Line-8-Copy-20"></path>
                    <path d="M0.90803694,112.962723 L895.911381,112.962723" id="Line-8-Copy-21"></path>
                    <path d="M0.90803694,304.211843 L895.911381,304.211843" id="Line-8-Copy-23"></path>
                    <path d="M0.90803694,312.180557 L895.911381,312.180557" id="Line-8-Copy-24"></path>
                    <path d="M0.90803694,320.14927 L895.911381,320.14927" id="Line-8-Copy-25"></path>
                    <path d="M0.90803694,328.117983 L895.911381,328.117983" id="Line-8-Copy-26"></path>
                    <path d="M0.90803694,336.086697 L895.911381,336.086697" id="Line-8-Copy-27"></path>
                    <path d="M0.90803694,344.05541 L895.911381,344.05541" id="Line-8-Copy-28"></path>
                    <path d="M0.90803694,352.024123 L895.911381,352.024123" id="Line-8-Copy-29"></path>
                    <path d="M0.90803694,359.992837 L895.911381,359.992837" id="Line-8-Copy-30"></path>
                    <path d="M0.90803694,367.96155 L895.911381,367.96155" id="Line-8-Copy-31"></path>
                    <path d="M0.90803694,375.930264 L895.911381,375.930264" id="Line-8-Copy-32"></path>
                    <path d="M0.90803694,383.898977 L895.911381,383.898977" id="Line-8-Copy-33"></path>
                    <path d="M0.90803694,391.86769 L895.911381,391.86769" id="Line-8-Copy-34"></path>
                    <path d="M0.90803694,399.836404 L895.911381,399.836404" id="Line-8-Copy-35"></path>
                    <path d="M0.90803694,407.805117 L895.911381,407.805117" id="Line-8-Copy-36"></path>
                    <path d="M0.90803694,415.77383 L895.911381,415.77383" id="Line-8-Copy-37"></path>
                    <path d="M0.90803694,423.742544 L895.911381,423.742544" id="Line-8-Copy-38"></path>
                    <path d="M0.90803694,431.711257 L895.911381,431.711257" id="Line-8-Copy-39"></path>
                    <path d="M0.90803694,439.67997 L895.911381,439.67997" id="Line-8-Copy-40"></path>
                    <path d="M0.90803694,447.648684 L895.911381,447.648684" id="Line-8-Copy-41"></path>
                    <path d="M0.90803694,455.617397 L895.911381,455.617397" id="Line-8-Copy-42"></path>
                    <path d="M0.90803694,463.586111 L895.911381,463.586111" id="Line-8-Copy-43"></path>
                    <path d="M0.90803694,471.554824 L895.911381,471.554824" id="Line-8-Copy-44"></path>
                    <path d="M0.90803694,479.523537 L895.911381,479.523537" id="Line-8-Copy-45"></path>
                    <path d="M0.90803694,487.492251 L895.911381,487.492251" id="Line-8-Copy-46"></path>
                </g>
            </g>
        </g>
        <polygon id="Rectangle-15-Copy-12" fill="#B3E6FF" points="184 207 280.25 207 280.25 303.25 184 303.25"></polygon>
        <rect id="Rectangle-15-Copy-12" fill="#FFFFFF" x="464" y="15" width="451" height="490"></rect>
        <path d="M186.568,324 L184.984,324 L184.984,315.624 L190.372,315.624 L190.372,317.028 L186.568,317.028 L186.568,319.056 L189.88,319.056 L189.88,320.46 L186.568,320.46 L186.568,324 Z M192.68,316.824 C192.044,316.824 191.78,316.5 191.78,316.056 L191.78,315.816 C191.78,315.372 192.044,315.048 192.68,315.048 C193.304,315.048 193.58,315.372 193.58,315.816 L193.58,316.056 C193.58,316.5 193.304,316.824 192.68,316.824 Z M191.912,324 L191.912,317.736 L193.448,317.736 L193.448,324 L191.912,324 Z M194.664,324 L196.8,320.82 L194.712,317.736 L196.464,317.736 L197.76,319.812 L197.808,319.812 L199.092,317.736 L200.724,317.736 L198.6,320.844 L200.736,324 L198.984,324 L197.664,321.84 L197.616,321.84 L196.296,324 L194.664,324 Z M204.304,324.144 C202.456,324.144 201.352,322.86 201.352,320.856 C201.352,318.876 202.42,317.592 204.256,317.592 C206.212,317.592 207.112,319.032 207.112,320.748 L207.112,321.252 L202.948,321.252 L202.948,321.408 C202.948,322.308 203.464,322.92 204.472,322.92 C205.228,322.92 205.684,322.56 206.068,322.068 L206.896,322.992 C206.38,323.7 205.468,324.144 204.304,324.144 Z M204.28,318.744 C203.476,318.744 202.948,319.344 202.948,320.208 L202.948,320.304 L205.516,320.304 L205.516,320.196 C205.516,319.332 205.072,318.744 204.28,318.744 Z M212.456,324 L212.456,322.956 L212.396,322.956 C212.168,323.664 211.496,324.144 210.668,324.144 C209.096,324.144 208.22,322.956 208.22,320.856 C208.22,318.768 209.096,317.592 210.668,317.592 C211.496,317.592 212.18,318.048 212.396,318.768 L212.456,318.768 L212.456,315.12 L213.992,315.12 L213.992,324 L212.456,324 Z M211.16,322.872 C211.892,322.872 212.456,322.5 212.456,321.852 L212.456,319.86 C212.456,319.248 211.892,318.852 211.16,318.852 C210.368,318.852 209.828,319.44 209.828,320.328 L209.828,321.408 C209.828,322.296 210.368,322.872 211.16,322.872 Z" id="Fixed" fill="#3D3D3D"></path>
        <rect id="Rectangle-15-Copy-13" fill="#FFFFFF" x="449" y="0" width="32" height="522"></rect>
        <g id="Group-23" transform="translate(538.000000, 16.000000)">
            <rect id="Rectangle-12-Copy-2" fill="#EDF4FF" fill-rule="nonzero" x="0" y="0" width="33" height="489"></rect>
            <rect id="Rectangle-12-Copy-4" fill="#EDF4FF" fill-rule="nonzero" x="95" y="0" width="33" height="489"></rect>
            <rect id="Rectangle-12-Copy-2" fill="#97C1FF" fill-rule="nonzero" x="16" y="0" width="1" height="489"></rect>
            <rect id="Rectangle-12-Copy-5" fill="#97C1FF" fill-rule="nonzero" x="111" y="0" width="1" height="489"></rect>
            <rect id="Rectangle-12-Copy-7" fill="#EDF4FF" fill-rule="nonzero" x="190" y="0" width="33" height="489"></rect>
            <rect id="Rectangle-12-Copy-6" fill="#97C1FF" fill-rule="nonzero" x="206" y="0" width="1" height="489"></rect>
            <rect id="Rectangle-12-Copy-9" fill="#EDF4FF" fill-rule="nonzero" x="285" y="0" width="33" height="489"></rect>
            <rect id="Rectangle-12-Copy-8" fill="#97C1FF" fill-rule="nonzero" x="301" y="0" width="1" height="489"></rect>
            <g id="Group-26" transform="translate(111.000000, 191.000000)">
                <polygon id="Rectangle-15-Copy-14" fill="#B3E6FF" points="0 0 96.25 0 96.25 96.25 0 96.25"></polygon>
                <path d="M2.568,117 L0.984,117 L0.984,108.624 L6.372,108.624 L6.372,110.028 L2.568,110.028 L2.568,112.056 L5.88,112.056 L5.88,113.46 L2.568,113.46 L2.568,117 Z M10.276,117 L9.448,117 C8.404,117 7.912,116.448 7.912,115.488 L7.912,108.12 L9.448,108.12 L9.448,115.776 L10.276,115.776 L10.276,117 Z M15.284,117 L15.284,115.956 L15.224,115.956 C15.008,116.58 14.504,117.144 13.472,117.144 C12.188,117.144 11.468,116.256 11.468,114.696 L11.468,110.736 L13.004,110.736 L13.004,114.54 C13.004,115.404 13.328,115.872 14.06,115.872 C14.672,115.872 15.284,115.548 15.284,114.876 L15.284,110.736 L16.82,110.736 L16.82,117 L15.284,117 Z M19.464,109.824 C18.828,109.824 18.564,109.5 18.564,109.056 L18.564,108.816 C18.564,108.372 18.828,108.048 19.464,108.048 C20.088,108.048 20.364,108.372 20.364,108.816 L20.364,109.056 C20.364,109.5 20.088,109.824 19.464,109.824 Z M18.696,117 L18.696,110.736 L20.232,110.736 L20.232,117 L18.696,117 Z M25.996,117 L25.996,115.956 L25.936,115.956 C25.708,116.664 25.036,117.144 24.208,117.144 C22.636,117.144 21.76,115.956 21.76,113.856 C21.76,111.768 22.636,110.592 24.208,110.592 C25.036,110.592 25.72,111.048 25.936,111.768 L25.996,111.768 L25.996,108.12 L27.532,108.12 L27.532,117 L25.996,117 Z M24.7,115.872 C25.432,115.872 25.996,115.5 25.996,114.852 L25.996,112.86 C25.996,112.248 25.432,111.852 24.7,111.852 C23.908,111.852 23.368,112.44 23.368,113.328 L23.368,114.408 C23.368,115.296 23.908,115.872 24.7,115.872 Z" id="Fluid" fill="#3D3D3D"></path>
            </g>
        </g>
    </g>
</svg>