<?xml version="1.0" encoding="UTF-8"?>
<svg width="928px" height="522px" viewBox="0 0 928 522" version="1.1" xmlns="http://www.w3.org/2000/svg" xmlns:xlink="http://www.w3.org/1999/xlink">
    <!-- Generator: Sketch 52.4 (67378) - http://www.bohemiancoding.com/sketch -->
    <title>Layout_overview_Fixed base unit</title>
    <desc>Created with Sketch.</desc>
    <defs>
        <polygon id="path-1" points="0 0 928 0 928 522 0 522"></polygon>
    </defs>
    <g id="Fixed-base-unit" stroke="none" stroke-width="1" fill="none" fill-rule="evenodd">
        <rect fill="#FFFFFF" x="0" y="0" width="928" height="522"></rect>
        <g id="Group-7">
            <g id="Group-3">
                <g id="Group-6">
                    <mask id="mask-2" fill="white">
                        <use xlink:href="#path-1"></use>
                    </mask>
                    <use id="Rectangle-2-Copy-37" fill="#FFFFFF" xlink:href="#path-1"></use>
                    <g id="Group-16" mask="url(#mask-2)" stroke="#DCDCDC" stroke-linecap="square">
                        <g transform="translate(14.000000, 16.000000)" id="Line-7">
                            <path d="M58.475,0.621173469 L58.475,486.404245"></path>
                            <path d="M50.475,0.621173469 L50.475,486.404245"></path>
                            <path d="M42.475,0.621173469 L42.475,486.404245"></path>
                            <path d="M570.475,0.621173469 L570.475,486.404245"></path>
                            <path d="M562.475,0.621173469 L562.475,486.404245"></path>
                            <path d="M554.475,0.621173469 L554.475,486.404245"></path>
                            <path d="M546.475,0.621173469 L546.475,486.404245"></path>
                            <path d="M538.475,0.621173469 L538.475,486.404245"></path>
                            <path d="M530.475,0.621173469 L530.475,486.404245"></path>
                            <path d="M634.475,0.621173469 L634.475,486.404245"></path>
                            <path d="M626.475,0.621173469 L626.475,486.404245"></path>
                            <path d="M618.475,0.621173469 L618.475,486.404245"></path>
                            <path d="M610.475,0.621173469 L610.475,486.404245"></path>
                            <path d="M602.475,0.621173469 L602.475,486.404245"></path>
                            <path d="M594.475,0.621173469 L594.475,486.404245"></path>
                            <path d="M586.475,0.621173469 L586.475,486.404245"></path>
                            <path d="M578.475,0.621173469 L578.475,486.404245"></path>
                            <path d="M698.475,0.621173469 L698.475,486.404245"></path>
                            <path d="M690.475,0.621173469 L690.475,486.404245"></path>
                            <path d="M682.475,0.621173469 L682.475,486.404245"></path>
                            <path d="M674.475,0.621173469 L674.475,486.404245"></path>
                            <path d="M666.475,0.621173469 L666.475,486.404245"></path>
                            <path d="M658.475,0.621173469 L658.475,486.404245"></path>
                            <path d="M762.475,0.621173469 L762.475,486.404245"></path>
                            <path d="M754.475,0.621173469 L754.475,486.404245"></path>
                            <path d="M746.475,0.621173469 L746.475,486.404245"></path>
                            <path d="M738.475,0.621173469 L738.475,486.404245"></path>
                            <path d="M730.475,0.621173469 L730.475,486.404245"></path>
                            <path d="M722.475,0.621173469 L722.475,486.404245"></path>
                            <path d="M714.475,0.621173469 L714.475,486.404245"></path>
                            <path d="M706.475,0.621173469 L706.475,486.404245"></path>
                            <path d="M650.475,0.621173469 L650.475,486.404245"></path>
                            <path d="M642.475,0.621173469 L642.475,486.404245"></path>
                            <path d="M826.475,0.621173469 L826.475,486.404245"></path>
                            <path d="M818.475,0.621173469 L818.475,486.404245"></path>
                            <path d="M810.475,0.621173469 L810.475,486.404245"></path>
                            <path d="M802.475,0.621173469 L802.475,486.404245"></path>
                            <path d="M794.475,0.621173469 L794.475,486.404245"></path>
                            <path d="M786.475,0.621173469 L786.475,486.404245"></path>
                            <path d="M890.475,0.621173469 L890.475,486.404245"></path>
                            <path d="M882.475,0.621173469 L882.475,486.404245"></path>
                            <path d="M874.475,0.621173469 L874.475,486.404245"></path>
                            <path d="M866.475,0.621173469 L866.475,486.404245"></path>
                            <path d="M858.475,0.621173469 L858.475,486.404245"></path>
                            <path d="M850.475,0.621173469 L850.475,486.404245"></path>
                            <path d="M842.475,0.621173469 L842.475,486.404245"></path>
                            <path d="M834.475,0.621173469 L834.475,486.404245"></path>
                            <path d="M898.475,0.621173469 L898.475,486.404245"></path>
                            <path d="M778.475,0.621173469 L778.475,486.404245"></path>
                            <path d="M770.475,0.621173469 L770.475,486.404245"></path>
                            <path d="M522.475,0.621173469 L522.475,486.404245"></path>
                            <path d="M514.475,0.621173469 L514.475,486.404245"></path>
                            <path d="M34.475,0.621173469 L34.475,486.404245"></path>
                            <path d="M26.475,0.621173469 L26.475,486.404245"></path>
                            <path d="M18.475,0.621173469 L18.475,486.404245"></path>
                            <path d="M122.475,0.621173469 L122.475,486.404245"></path>
                            <path d="M114.475,0.621173469 L114.475,486.404245"></path>
                            <path d="M106.475,0.621173469 L106.475,486.404245"></path>
                            <path d="M98.475,0.621173469 L98.475,486.404245"></path>
                            <path d="M90.475,0.621173469 L90.475,486.404245"></path>
                            <path d="M82.475,0.621173469 L82.475,486.404245"></path>
                            <path d="M74.475,0.621173469 L74.475,486.404245"></path>
                            <path d="M66.475,0.621173469 L66.475,486.404245"></path>
                            <path d="M186.475,0.621173469 L186.475,486.404245"></path>
                            <path d="M178.475,0.621173469 L178.475,486.404245"></path>
                            <path d="M170.475,0.621173469 L170.475,486.404245"></path>
                            <path d="M162.475,0.621173469 L162.475,486.404245"></path>
                            <path d="M154.475,0.621173469 L154.475,486.404245"></path>
                            <path d="M146.475,0.621173469 L146.475,486.404245"></path>
                            <path d="M250.475,0.621173469 L250.475,486.404245"></path>
                            <path d="M242.475,0.621173469 L242.475,486.404245"></path>
                            <path d="M234.475,0.621173469 L234.475,486.404245"></path>
                            <path d="M226.475,0.621173469 L226.475,486.404245"></path>
                            <path d="M218.475,0.621173469 L218.475,486.404245"></path>
                            <path d="M210.475,0.621173469 L210.475,486.404245"></path>
                            <path d="M202.475,0.621173469 L202.475,486.404245"></path>
                            <path d="M194.475,0.621173469 L194.475,486.404245"></path>
                            <path d="M138.475,0.621173469 L138.475,486.404245"></path>
                            <path d="M130.475,0.621173469 L130.475,486.404245"></path>
                            <path d="M314.475,0.621173469 L314.475,486.404245"></path>
                            <path d="M306.475,0.621173469 L306.475,486.404245"></path>
                            <path d="M298.475,0.621173469 L298.475,486.404245"></path>
                            <path d="M290.475,0.621173469 L290.475,486.404245"></path>
                            <path d="M282.475,0.621173469 L282.475,486.404245"></path>
                            <path d="M274.475,0.621173469 L274.475,486.404245"></path>
                            <path d="M378.475,0.621173469 L378.475,486.404245"></path>
                            <path d="M370.475,0.621173469 L370.475,486.404245"></path>
                            <path d="M362.475,0.621173469 L362.475,486.404245"></path>
                            <path d="M354.475,0.621173469 L354.475,486.404245"></path>
                            <path d="M346.475,0.621173469 L346.475,486.404245"></path>
                            <path d="M338.475,0.621173469 L338.475,486.404245"></path>
                            <path d="M330.475,0.621173469 L330.475,486.404245"></path>
                            <path d="M322.475,0.621173469 L322.475,486.404245"></path>
                            <path d="M442.475,0.621173469 L442.475,486.404245"></path>
                            <path d="M434.475,0.621173469 L434.475,486.404245"></path>
                            <path d="M426.475,0.621173469 L426.475,486.404245"></path>
                            <path d="M418.475,0.621173469 L418.475,486.404245"></path>
                            <path d="M410.475,0.621173469 L410.475,486.404245"></path>
                            <path d="M402.475,0.621173469 L402.475,486.404245"></path>
                            <path d="M506.475,0.621173469 L506.475,486.404245"></path>
                            <path d="M498.475,0.621173469 L498.475,486.404245"></path>
                            <path d="M490.475,0.621173469 L490.475,486.404245"></path>
                            <path d="M482.475,0.621173469 L482.475,486.404245"></path>
                            <path d="M474.475,0.621173469 L474.475,486.404245"></path>
                            <path d="M466.475,0.621173469 L466.475,486.404245"></path>
                            <path d="M458.475,0.621173469 L458.475,486.404245"></path>
                            <path d="M450.475,0.621173469 L450.475,486.404245"></path>
                            <path d="M394.475,0.621173469 L394.475,486.404245"></path>
                            <path d="M386.475,0.621173469 L386.475,486.404245"></path>
                            <path d="M266.475,0.621173469 L266.475,486.404245"></path>
                            <path d="M258.475,0.621173469 L258.475,486.404245"></path>
                            <path d="M10.475,0.621173469 L10.475,486.404245"></path>
                            <path d="M2.475,0.621173469 L2.475,486.404245"></path>
                        </g>
                    </g>
                    <g id="Group-17" mask="url(#mask-2)" stroke="#DCDCDC" stroke-linecap="square">
                        <g transform="translate(16.000000, 15.000000)">
                            <path d="M0.90803694,120.931436 L895.911381,120.931436" id="Line-8"></path>
                            <path d="M0.90803694,128.900149 L895.911381,128.900149" id="Line-8-Copy"></path>
                            <path d="M0.90803694,136.868863 L895.911381,136.868863" id="Line-8-Copy-2"></path>
                            <path d="M0.90803694,144.837576 L895.911381,144.837576" id="Line-8-Copy-3"></path>
                            <path d="M0.90803694,152.806289 L895.911381,152.806289" id="Line-8-Copy-4"></path>
                            <path d="M0.90803694,160.775003 L895.911381,160.775003" id="Line-8-Copy-5"></path>
                            <path d="M0.90803694,168.743716 L895.911381,168.743716" id="Line-8-Copy-6"></path>
                            <path d="M0.90803694,176.712429 L895.911381,176.712429" id="Line-8-Copy-7"></path>
                            <path d="M0.90803694,184.681143 L895.911381,184.681143" id="Line-8-Copy-8"></path>
                            <path d="M0.90803694,192.649856 L895.911381,192.649856" id="Line-8-Copy-9"></path>
                            <path d="M0.90803694,200.61857 L895.911381,200.61857" id="Line-8-Copy-10"></path>
                            <path d="M0.90803694,208.587283 L895.911381,208.587283" id="Line-8-Copy-11"></path>
                            <path d="M0.90803694,216.555996 L895.911381,216.555996" id="Line-8-Copy-12"></path>
                            <path d="M0.90803694,224.52471 L895.911381,224.52471" id="Line-8-Copy-13"></path>
                            <path d="M0.90803694,232.493423 L895.911381,232.493423" id="Line-8-Copy-14"></path>
                            <path d="M0.90803694,240.462136 L895.911381,240.462136" id="Line-8-Copy-15"></path>
                            <path d="M0.90803694,248.43085 L895.911381,248.43085" id="Line-8-Copy-16"></path>
                            <path d="M0.90803694,256.399563 L895.911381,256.399563" id="Line-8-Copy-17"></path>
                            <path d="M0.90803694,264.368276 L895.911381,264.368276" id="Line-8-Copy-18"></path>
                            <path d="M0.90803694,272.33699 L895.911381,272.33699" id="Line-8-Copy-19"></path>
                            <path d="M0.90803694,280.305703 L895.911381,280.305703" id="Line-8-Copy-20"></path>
                            <path d="M0.90803694,288.274417 L895.911381,288.274417" id="Line-8-Copy-21"></path>
                            <path d="M0.90803694,296.24313 L895.911381,296.24313" id="Line-8-Copy-22"></path>
                            <path d="M0.90803694,1.40073547 L895.911381,1.40073547" id="Line-8-Copy-7"></path>
                            <path d="M0.90803694,9.36944883 L895.911381,9.36944883" id="Line-8-Copy-8"></path>
                            <path d="M0.90803694,17.3381622 L895.911381,17.3381622" id="Line-8-Copy-9"></path>
                            <path d="M0.90803694,25.3068756 L895.911381,25.3068756" id="Line-8-Copy-10"></path>
                            <path d="M0.90803694,33.2755889 L895.911381,33.2755889" id="Line-8-Copy-11"></path>
                            <path d="M0.90803694,41.2443023 L895.911381,41.2443023" id="Line-8-Copy-12"></path>
                            <path d="M0.90803694,49.2130156 L895.911381,49.2130156" id="Line-8-Copy-13"></path>
                            <path d="M0.90803694,57.181729 L895.911381,57.181729" id="Line-8-Copy-14"></path>
                            <path d="M0.90803694,65.1504424 L895.911381,65.1504424" id="Line-8-Copy-15"></path>
                            <path d="M0.90803694,73.1191557 L895.911381,73.1191557" id="Line-8-Copy-16"></path>
                            <path d="M0.90803694,81.0878691 L895.911381,81.0878691" id="Line-8-Copy-17"></path>
                            <path d="M0.90803694,89.0565825 L895.911381,89.0565825" id="Line-8-Copy-18"></path>
                            <path d="M0.90803694,97.0252958 L895.911381,97.0252958" id="Line-8-Copy-19"></path>
                            <path d="M0.90803694,104.994009 L895.911381,104.994009" id="Line-8-Copy-20"></path>
                            <path d="M0.90803694,112.962723 L895.911381,112.962723" id="Line-8-Copy-21"></path>
                            <path d="M0.90803694,304.211843 L895.911381,304.211843" id="Line-8-Copy-23"></path>
                            <path d="M0.90803694,312.180557 L895.911381,312.180557" id="Line-8-Copy-24"></path>
                            <path d="M0.90803694,320.14927 L895.911381,320.14927" id="Line-8-Copy-25"></path>
                            <path d="M0.90803694,328.117983 L895.911381,328.117983" id="Line-8-Copy-26"></path>
                            <path d="M0.90803694,336.086697 L895.911381,336.086697" id="Line-8-Copy-27"></path>
                            <path d="M0.90803694,344.05541 L895.911381,344.05541" id="Line-8-Copy-28"></path>
                            <path d="M0.90803694,352.024123 L895.911381,352.024123" id="Line-8-Copy-29"></path>
                            <path d="M0.90803694,359.992837 L895.911381,359.992837" id="Line-8-Copy-30"></path>
                            <path d="M0.90803694,367.96155 L895.911381,367.96155" id="Line-8-Copy-31"></path>
                            <path d="M0.90803694,375.930264 L895.911381,375.930264" id="Line-8-Copy-32"></path>
                            <path d="M0.90803694,383.898977 L895.911381,383.898977" id="Line-8-Copy-33"></path>
                            <path d="M0.90803694,391.86769 L895.911381,391.86769" id="Line-8-Copy-34"></path>
                            <path d="M0.90803694,399.836404 L895.911381,399.836404" id="Line-8-Copy-35"></path>
                            <path d="M0.90803694,407.805117 L895.911381,407.805117" id="Line-8-Copy-36"></path>
                            <path d="M0.90803694,415.77383 L895.911381,415.77383" id="Line-8-Copy-37"></path>
                            <path d="M0.90803694,423.742544 L895.911381,423.742544" id="Line-8-Copy-38"></path>
                            <path d="M0.90803694,431.711257 L895.911381,431.711257" id="Line-8-Copy-39"></path>
                            <path d="M0.90803694,439.67997 L895.911381,439.67997" id="Line-8-Copy-40"></path>
                            <path d="M0.90803694,447.648684 L895.911381,447.648684" id="Line-8-Copy-41"></path>
                            <path d="M0.90803694,455.617397 L895.911381,455.617397" id="Line-8-Copy-42"></path>
                            <path d="M0.90803694,463.586111 L895.911381,463.586111" id="Line-8-Copy-43"></path>
                            <path d="M0.90803694,471.554824 L895.911381,471.554824" id="Line-8-Copy-44"></path>
                            <path d="M0.90803694,479.523537 L895.911381,479.523537" id="Line-8-Copy-45"></path>
                            <path d="M0.90803694,487.492251 L895.911381,487.492251" id="Line-8-Copy-46"></path>
                        </g>
                    </g>
                </g>
            </g>
            <rect id="Rectangle-15-Copy-2" fill="#B3E6FF" x="256.5" y="311.25" width="24" height="24"></rect>
            <rect id="Rectangle-15-Copy-8" fill="#B3E6FF" x="312.5" y="303.25" width="32" height="32"></rect>
            <rect id="Rectangle-15-Copy-9" fill="#B3E6FF" x="376.5" y="287.25" width="48" height="48"></rect>
            <rect id="Rectangle-15-Copy-10" fill="#B3E6FF" x="456.5" y="271.25" width="64" height="64"></rect>
            <polygon id="Rectangle-15-Copy-11" fill="#B3E6FF" points="553 255 633.25 255 633.25 335.25 553 335.25"></polygon>
            <polygon id="Rectangle-15-Copy-12" fill="#B3E6FF" points="664.25 239 760.5 239 760.5 335.25 664.25 335.25"></polygon>
            <rect id="Rectangle-15-Copy-6" fill="#B3E6FF" x="208.5" y="319.25" width="16" height="16"></rect>
            <rect id="Rectangle-15-Copy-7" stroke="#B3E6FF" fill="#B3E6FF" x="169" y="327.75" width="7" height="7"></rect>
            <path d="M170.6,355.144 C168.644,355.144 167.54,354.112 167.54,352.708 C167.54,351.628 168.2,350.944 169.196,350.668 L169.196,350.572 C168.368,350.272 167.792,349.624 167.792,348.652 C167.792,347.38 168.8,346.48 170.6,346.48 C172.4,346.48 173.408,347.38 173.408,348.652 C173.408,349.624 172.832,350.272 172.004,350.572 L172.004,350.668 C173,350.944 173.66,351.628 173.66,352.708 C173.66,354.112 172.556,355.144 170.6,355.144 Z M170.6,353.908 C171.5,353.908 172.016,353.464 172.016,352.72 L172.016,352.468 C172.016,351.724 171.5,351.28 170.6,351.28 C169.7,351.28 169.184,351.724 169.184,352.468 L169.184,352.72 C169.184,353.464 169.7,353.908 170.6,353.908 Z M170.6,350.104 C171.44,350.104 171.908,349.696 171.908,349 L171.908,348.808 C171.908,348.124 171.44,347.716 170.6,347.716 C169.76,347.716 169.292,348.124 169.292,348.808 L169.292,349 C169.292,349.696 169.76,350.104 170.6,350.104 Z" id="8" fill="#3D3D3D"></path>
            <path d="M214.864,355 L209.092,355 L209.092,353.716 L211.396,353.716 L211.396,347.764 L211.288,347.764 L209.464,349.924 L208.48,349.096 L210.556,346.624 L212.944,346.624 L212.944,353.716 L214.864,353.716 L214.864,355 Z M218.836,355.144 C216.916,355.144 215.788,353.86 215.788,351.856 C215.788,349.456 217.384,347.572 218.788,346.624 L220.924,346.624 C218.956,348.04 217.804,349.168 217.432,350.872 L217.528,350.896 C217.84,350.248 218.368,349.66 219.424,349.66 C220.816,349.66 221.872,350.668 221.872,352.252 C221.872,353.944 220.684,355.144 218.836,355.144 Z M218.836,353.896 C219.712,353.896 220.252,353.392 220.252,352.48 L220.252,352.3 C220.252,351.388 219.712,350.884 218.836,350.884 C217.948,350.884 217.42,351.388 217.42,352.3 L217.42,352.48 C217.42,353.392 217.948,353.896 218.836,353.896 Z" id="16" fill="#3D3D3D"></path>
            <path d="M262.552,353.668 L262.552,355 L256.744,355 L256.744,353.536 L259.372,351.232 C260.26,350.452 260.668,349.876 260.668,349.144 L260.668,348.988 C260.668,348.256 260.116,347.848 259.432,347.848 C258.568,347.848 258.16,348.412 257.968,349.096 L256.6,348.568 C256.96,347.452 257.86,346.48 259.564,346.48 C261.328,346.48 262.336,347.536 262.336,348.976 C262.336,350.368 261.388,351.256 260.224,352.216 L258.46,353.668 L262.552,353.668 Z M268.876,355 L267.376,355 L267.376,353.38 L263.584,353.38 L263.584,352.036 L266.92,346.624 L268.876,346.624 L268.876,352.156 L269.968,352.156 L269.968,353.38 L268.876,353.38 L268.876,355 Z M267.28,348.16 L264.88,352.156 L267.376,352.156 L267.376,348.16 L267.28,348.16 Z" id="24" fill="#3D3D3D"></path>
            <path d="M314.316,350.008 L315.144,350.008 C316.104,350.008 316.548,349.564 316.548,348.964 L316.548,348.88 C316.548,348.196 316.068,347.776 315.312,347.776 C314.58,347.776 314.004,348.148 313.596,348.784 L312.588,347.872 C313.152,347.092 313.944,346.48 315.36,346.48 C317.052,346.48 318.204,347.32 318.204,348.664 C318.204,349.744 317.472,350.392 316.596,350.572 L316.596,350.644 C317.568,350.824 318.348,351.496 318.348,352.684 C318.348,354.16 317.112,355.144 315.264,355.144 C313.632,355.144 312.816,354.4 312.288,353.584 L313.452,352.696 C313.824,353.368 314.328,353.848 315.264,353.848 C316.188,353.848 316.704,353.368 316.704,352.588 L316.704,352.504 C316.704,351.736 316.14,351.328 315.144,351.328 L314.316,351.328 L314.316,350.008 Z M325.752,353.668 L325.752,355 L319.944,355 L319.944,353.536 L322.572,351.232 C323.46,350.452 323.868,349.876 323.868,349.144 L323.868,348.988 C323.868,348.256 323.316,347.848 322.632,347.848 C321.768,347.848 321.36,348.412 321.168,349.096 L319.8,348.568 C320.16,347.452 321.06,346.48 322.764,346.48 C324.528,346.48 325.536,347.536 325.536,348.976 C325.536,350.368 324.588,351.256 323.424,352.216 L321.66,353.668 L325.752,353.668 Z" id="32" fill="#3D3D3D"></path>
            <path d="M382.676,355 L381.176,355 L381.176,353.38 L377.384,353.38 L377.384,352.036 L380.72,346.624 L382.676,346.624 L382.676,352.156 L383.768,352.156 L383.768,353.38 L382.676,353.38 L382.676,355 Z M381.08,348.16 L378.68,352.156 L381.176,352.156 L381.176,348.16 L381.08,348.16 Z M387.8,355.144 C385.844,355.144 384.74,354.112 384.74,352.708 C384.74,351.628 385.4,350.944 386.396,350.668 L386.396,350.572 C385.568,350.272 384.992,349.624 384.992,348.652 C384.992,347.38 386,346.48 387.8,346.48 C389.6,346.48 390.608,347.38 390.608,348.652 C390.608,349.624 390.032,350.272 389.204,350.572 L389.204,350.668 C390.2,350.944 390.86,351.628 390.86,352.708 C390.86,354.112 389.756,355.144 387.8,355.144 Z M387.8,353.908 C388.7,353.908 389.216,353.464 389.216,352.72 L389.216,352.468 C389.216,351.724 388.7,351.28 387.8,351.28 C386.9,351.28 386.384,351.724 386.384,352.468 L386.384,352.72 C386.384,353.464 386.9,353.908 387.8,353.908 Z M387.8,350.104 C388.64,350.104 389.108,349.696 389.108,349 L389.108,348.808 C389.108,348.124 388.64,347.716 387.8,347.716 C386.96,347.716 386.492,348.124 386.492,348.808 L386.492,349 C386.492,349.696 386.96,350.104 387.8,350.104 Z" id="48" fill="#3D3D3D"></path>
            <path d="M459.636,355.144 C457.716,355.144 456.588,353.86 456.588,351.856 C456.588,349.456 458.184,347.572 459.588,346.624 L461.724,346.624 C459.756,348.04 458.604,349.168 458.232,350.872 L458.328,350.896 C458.64,350.248 459.168,349.66 460.224,349.66 C461.616,349.66 462.672,350.668 462.672,352.252 C462.672,353.944 461.484,355.144 459.636,355.144 Z M459.636,353.896 C460.512,353.896 461.052,353.392 461.052,352.48 L461.052,352.3 C461.052,351.388 460.512,350.884 459.636,350.884 C458.748,350.884 458.22,351.388 458.22,352.3 L458.22,352.48 C458.22,353.392 458.748,353.896 459.636,353.896 Z M468.876,355 L467.376,355 L467.376,353.38 L463.584,353.38 L463.584,352.036 L466.92,346.624 L468.876,346.624 L468.876,352.156 L469.968,352.156 L469.968,353.38 L468.876,353.38 L468.876,355 Z M467.28,348.16 L464.88,352.156 L467.376,352.156 L467.376,348.16 L467.28,348.16 Z" id="64" fill="#3D3D3D"></path>
            <path d="M555.6,355.144 C553.644,355.144 552.54,354.112 552.54,352.708 C552.54,351.628 553.2,350.944 554.196,350.668 L554.196,350.572 C553.368,350.272 552.792,349.624 552.792,348.652 C552.792,347.38 553.8,346.48 555.6,346.48 C557.4,346.48 558.408,347.38 558.408,348.652 C558.408,349.624 557.832,350.272 557.004,350.572 L557.004,350.668 C558,350.944 558.66,351.628 558.66,352.708 C558.66,354.112 557.556,355.144 555.6,355.144 Z M555.6,353.908 C556.5,353.908 557.016,353.464 557.016,352.72 L557.016,352.468 C557.016,351.724 556.5,351.28 555.6,351.28 C554.7,351.28 554.184,351.724 554.184,352.468 L554.184,352.72 C554.184,353.464 554.7,353.908 555.6,353.908 Z M555.6,350.104 C556.44,350.104 556.908,349.696 556.908,349 L556.908,348.808 C556.908,348.124 556.44,347.716 555.6,347.716 C554.76,347.716 554.292,348.124 554.292,348.808 L554.292,349 C554.292,349.696 554.76,350.104 555.6,350.104 Z M562.8,355.144 C560.664,355.144 559.68,353.548 559.68,350.812 C559.68,348.076 560.664,346.48 562.8,346.48 C564.936,346.48 565.92,348.076 565.92,350.812 C565.92,353.548 564.936,355.144 562.8,355.144 Z M562.8,353.812 C563.868,353.812 564.24,352.948 564.24,351.568 L564.24,350.056 C564.24,348.676 563.868,347.812 562.8,347.812 C561.732,347.812 561.36,348.676 561.36,350.056 L561.36,351.568 C561.36,352.948 561.732,353.812 562.8,353.812 Z" id="80" fill="#3D3D3D"></path>
            <path d="M670.612,349.768 C670.612,352.168 669.016,354.052 667.612,355 L665.476,355 C667.444,353.584 668.596,352.456 668.968,350.752 L668.872,350.728 C668.56,351.376 668.032,351.964 666.976,351.964 C665.584,351.964 664.528,350.956 664.528,349.372 C664.528,347.68 665.716,346.48 667.564,346.48 C669.484,346.48 670.612,347.764 670.612,349.768 Z M667.564,350.74 C668.452,350.74 668.98,350.236 668.98,349.324 L668.98,349.144 C668.98,348.232 668.452,347.728 667.564,347.728 C666.688,347.728 666.148,348.232 666.148,349.144 L666.148,349.324 C666.148,350.236 666.688,350.74 667.564,350.74 Z M674.836,355.144 C672.916,355.144 671.788,353.86 671.788,351.856 C671.788,349.456 673.384,347.572 674.788,346.624 L676.924,346.624 C674.956,348.04 673.804,349.168 673.432,350.872 L673.528,350.896 C673.84,350.248 674.368,349.66 675.424,349.66 C676.816,349.66 677.872,350.668 677.872,352.252 C677.872,353.944 676.684,355.144 674.836,355.144 Z M674.836,353.896 C675.712,353.896 676.252,353.392 676.252,352.48 L676.252,352.3 C676.252,351.388 675.712,350.884 674.836,350.884 C673.948,350.884 673.42,351.388 673.42,352.3 L673.42,352.48 C673.42,353.392 673.948,353.896 674.836,353.896 Z" id="96" fill="#3D3D3D"></path>
        </g>
    </g>
</svg>