<?xml version="1.0" encoding="UTF-8"?>
<svg width="288px" height="288px" viewBox="0 0 288 288" version="1.1" xmlns="http://www.w3.org/2000/svg" xmlns:xlink="http://www.w3.org/1999/xlink">
    <!-- Generator: Sketch 52.4 (67378) - http://www.bohemiancoding.com/sketch -->
    <title>Layout_overview_Paddings Do</title>
    <desc>Created with Sketch.</desc>
    <defs>
        <rect id="path-1" x="53" y="90" width="179" height="130"></rect>
        <path d="M12.5,2 C6.725,2 2,6.725 2,12.5 C2,18.275 6.725,23 12.5,23 C18.275,23 23,18.275 23,12.5 C23,6.725 18.275,2 12.5,2 Z" id="path-2"></path>
    </defs>
    <g id="Paddings-Do" stroke="none" stroke-width="1" fill="none" fill-rule="evenodd">
        <rect fill="#FFFFFF" x="0" y="0" width="288" height="288"></rect>
        <g id="Grid_Alignment_Do">
            <polygon id="Rectangle-16-Copy-148" fill="#FFFFFF" points="0 0 287.852038 0 287.852038 287.852038 0 287.852038"></polygon>
            <g id="Rectangle-17-Copy-387">
                <use fill="#FFFFFF" fill-rule="evenodd" xlink:href="#path-1"></use>
                <rect stroke="#97C1FF" stroke-width="1" x="52.5" y="89.5" width="180" height="131"></rect>
                <rect stroke="#EDF4FF" stroke-width="10" stroke-linejoin="square" x="58" y="95" width="169" height="120"></rect>
            </g>
            <path d="M80.304,128 L77.84,128 L75.88,122.232 L67.984,122.232 L66.024,128 L63.644,128 L70.476,108.456 L73.472,108.456 L80.304,128 Z M75.292,120.16 L71.988,110.64 L71.848,110.64 L68.544,120.16 L75.292,120.16 Z M87.696,128 L85.708,128 C84.168,128 83.328,127.02 83.328,125.676 L83.328,107.28 L85.568,107.28 L85.568,126.04 L87.696,126.04 L87.696,128 Z M93.156,128 L89.292,113.552 L91.476,113.552 L93.016,119.796 L94.556,126.124 L94.612,126.124 L96.376,119.796 L98.196,113.552 L100.184,113.552 L102.06,119.796 L103.852,126.124 L103.908,126.124 L105.392,119.796 L106.96,113.552 L109.06,113.552 L105.224,128 L102.452,128 L100.436,121.056 L99.176,116.66 L99.12,116.66 L97.888,121.056 L95.872,128 L93.156,128 Z M123.816,128 L122.556,128 C120.904,128 120.232,126.992 120.064,125.648 L119.924,125.648 C119.308,127.412 117.768,128.336 115.752,128.336 C112.7,128.336 110.908,126.656 110.908,123.968 C110.908,121.252 112.868,119.74 117.068,119.74 L119.924,119.74 L119.924,118.312 C119.924,116.268 118.804,115.148 116.508,115.148 C114.772,115.148 113.624,115.988 112.84,117.304 L111.496,116.044 C112.28,114.504 114.016,113.216 116.62,113.216 C120.092,113.216 122.164,115.036 122.164,118.088 L122.164,126.04 L123.816,126.04 L123.816,128 Z M116.116,126.432 C118.328,126.432 119.924,125.284 119.924,123.8 L119.924,121.42 L116.956,121.42 C114.408,121.42 113.26,122.204 113.26,123.604 L113.26,124.192 C113.26,125.62 114.38,126.432 116.116,126.432 Z M132.272,123.38 L135.772,113.552 L137.984,113.552 L131.516,131.36 C130.872,133.096 130.284,133.6 128.156,133.6 L127.008,133.6 L127.008,131.64 L129.276,131.64 L130.368,128.56 L124.964,113.552 L127.204,113.552 L130.676,123.38 L131.348,125.732 L131.488,125.732 L132.272,123.38 Z M145.068,128.336 C142.408,128.336 140.644,127.216 139.356,125.508 L140.952,124.22 C142.072,125.62 143.416,126.432 145.236,126.432 C147.14,126.432 148.26,125.564 148.26,124.08 C148.26,122.96 147.644,122.092 145.74,121.812 L144.592,121.644 C141.932,121.252 139.944,120.16 139.944,117.472 C139.944,114.616 142.156,113.216 145.096,113.216 C147.42,113.216 148.96,114.084 150.136,115.54 L148.652,116.884 C148.008,115.988 146.776,115.12 144.928,115.12 C143.08,115.12 142.1,115.988 142.1,117.36 C142.1,118.76 143.08,119.32 144.872,119.6 L145.992,119.768 C149.184,120.244 150.416,121.644 150.416,123.828 C150.416,126.628 148.372,128.336 145.068,128.336 Z M161.756,128 L161.756,115.512 L159.404,115.512 L159.404,113.552 L161.756,113.552 L161.756,110.64 C161.756,108.652 162.792,107.28 164.92,107.28 L167.104,107.28 L167.104,109.24 L163.996,109.24 L163.996,113.552 L167.104,113.552 L167.104,115.512 L163.996,115.512 L163.996,128 L161.756,128 Z M174.412,128 L172.424,128 C170.884,128 170.044,127.02 170.044,125.676 L170.044,107.28 L172.284,107.28 L172.284,126.04 L174.412,126.04 L174.412,128 Z M186.564,128 L186.564,125.648 L186.452,125.648 C185.892,127.02 184.8,128.336 182.392,128.336 C179.424,128.336 177.52,126.32 177.52,122.82 L177.52,113.552 L179.76,113.552 L179.76,122.428 C179.76,125.004 180.908,126.32 183.064,126.32 C184.828,126.32 186.564,125.452 186.564,123.548 L186.564,113.552 L188.804,113.552 L188.804,128 L186.564,128 Z M197.904,128.336 C195.244,128.336 193.48,127.216 192.192,125.508 L193.788,124.22 C194.908,125.62 196.252,126.432 198.072,126.432 C199.976,126.432 201.096,125.564 201.096,124.08 C201.096,122.96 200.48,122.092 198.576,121.812 L197.428,121.644 C194.768,121.252 192.78,120.16 192.78,117.472 C192.78,114.616 194.992,113.216 197.932,113.216 C200.256,113.216 201.796,114.084 202.972,115.54 L201.488,116.884 C200.844,115.988 199.612,115.12 197.764,115.12 C195.916,115.12 194.936,115.988 194.936,117.36 C194.936,118.76 195.916,119.32 197.708,119.6 L198.828,119.768 C202.02,120.244 203.252,121.644 203.252,123.828 C203.252,126.628 201.208,128.336 197.904,128.336 Z M207.2,128 L207.2,107.28 L209.44,107.28 L209.44,115.904 L209.552,115.904 C210.252,114.28 211.484,113.216 213.64,113.216 C216.608,113.216 218.484,115.232 218.484,118.732 L218.484,128 L216.244,128 L216.244,119.124 C216.244,116.548 215.124,115.232 212.968,115.232 C211.176,115.232 209.44,116.128 209.44,117.976 L209.44,128 L207.2,128 Z M69.748,162 L67.76,162 C66.22,162 65.38,161.02 65.38,159.676 L65.38,141.28 L67.62,141.28 L67.62,160.04 L69.748,160.04 L69.748,162 Z M78.428,162.336 C74.508,162.336 71.932,159.368 71.932,154.776 C71.932,150.184 74.508,147.216 78.428,147.216 C82.292,147.216 84.672,150.184 84.672,154.272 L84.672,155.336 L74.284,155.336 L74.284,156.008 C74.284,158.5 75.88,160.376 78.568,160.376 C80.388,160.376 81.788,159.48 82.544,157.884 L84.14,159.032 C83.216,160.992 81.144,162.336 78.428,162.336 Z M78.428,149.092 C75.992,149.092 74.284,150.94 74.284,153.46 L74.284,153.656 L82.264,153.656 L82.264,153.348 C82.264,150.8 80.724,149.092 78.428,149.092 Z M89.152,162 L89.152,149.512 L86.8,149.512 L86.8,147.552 L89.152,147.552 L89.152,144.64 C89.152,142.652 90.188,141.28 92.316,141.28 L94.5,141.28 L94.5,143.24 L91.392,143.24 L91.392,147.552 L94.5,147.552 L94.5,149.512 L91.392,149.512 L91.392,162 L89.152,162 Z M103.432,162 L100.632,162 C99.092,162 98.252,161.02 98.252,159.62 L98.252,149.512 L95.872,149.512 L95.872,147.552 L97.216,147.552 C98.168,147.552 98.476,147.216 98.476,146.236 L98.476,143.548 L100.492,143.548 L100.492,147.552 L103.656,147.552 L103.656,149.512 L100.492,149.512 L100.492,160.04 L103.432,160.04 L103.432,162 Z M119.868,162 L117.068,162 C115.528,162 114.688,161.02 114.688,159.62 L114.688,149.512 L112.308,149.512 L112.308,147.552 L113.652,147.552 C114.604,147.552 114.912,147.216 114.912,146.236 L114.912,143.548 L116.928,143.548 L116.928,147.552 L120.092,147.552 L120.092,149.512 L116.928,149.512 L116.928,160.04 L119.868,160.04 L119.868,162 Z M129.108,157.38 L132.608,147.552 L134.82,147.552 L128.352,165.36 C127.708,167.096 127.12,167.6 124.992,167.6 L123.844,167.6 L123.844,165.64 L126.112,165.64 L127.204,162.56 L121.8,147.552 L124.04,147.552 L127.512,157.38 L128.184,159.732 L128.324,159.732 L129.108,157.38 Z M137.676,167.6 L137.676,147.552 L139.916,147.552 L139.916,149.904 L140.028,149.904 C140.784,148.084 142.268,147.216 144.256,147.216 C147.868,147.216 150.136,150.156 150.136,154.776 C150.136,159.396 147.868,162.336 144.256,162.336 C142.268,162.336 140.896,161.44 140.028,159.648 L139.916,159.648 L139.916,167.6 L137.676,167.6 Z M143.64,160.32 C146.16,160.32 147.728,158.584 147.728,156.008 L147.728,153.544 C147.728,150.968 146.16,149.232 143.64,149.232 C141.596,149.232 139.916,150.408 139.916,152.004 L139.916,157.38 C139.916,159.256 141.596,160.32 143.64,160.32 Z M159.348,162.336 C155.428,162.336 152.852,159.368 152.852,154.776 C152.852,150.184 155.428,147.216 159.348,147.216 C163.212,147.216 165.592,150.184 165.592,154.272 L165.592,155.336 L155.204,155.336 L155.204,156.008 C155.204,158.5 156.8,160.376 159.488,160.376 C161.308,160.376 162.708,159.48 163.464,157.884 L165.06,159.032 C164.136,160.992 162.064,162.336 159.348,162.336 Z M159.348,149.092 C156.912,149.092 155.204,150.94 155.204,153.46 L155.204,153.656 L163.184,153.656 L163.184,153.348 C163.184,150.8 161.644,149.092 159.348,149.092 Z" id="Always-flush-left-ty" fill="#3D3D3D"></path>
            <rect id="Rectangle-5" stroke="#DCDCDC" stroke-width="0.5" x="63.25" y="100.25" width="158.5" height="73.5"></rect>
            <rect id="Rectangle-8" stroke="#DCDCDC" stroke-width="0.5" fill="#FFFFFF" x="61.25" y="98.25" width="3.5" height="3.5"></rect>
            <rect id="Rectangle-8-Copy-20" stroke="#DCDCDC" stroke-width="0.5" fill="#FFFFFF" x="61.25" y="172.25" width="3.5" height="3.5"></rect>
            <rect id="Rectangle-8-Copy-16" stroke="#DCDCDC" stroke-width="0.5" fill="#FFFFFF" x="141.25" y="98.25" width="3.5" height="3.5"></rect>
            <rect id="Rectangle-8-Copy-21" stroke="#DCDCDC" stroke-width="0.5" fill="#FFFFFF" x="141.25" y="172.25" width="3.5" height="3.5"></rect>
            <rect id="Rectangle-8-Copy-17" stroke="#DCDCDC" stroke-width="0.5" fill="#FFFFFF" x="220.25" y="98.25" width="3.5" height="3.5"></rect>
            <rect id="Rectangle-8-Copy-18" stroke="#DCDCDC" stroke-width="0.5" fill="#FFFFFF" x="220.25" y="135.25" width="3.5" height="3.5"></rect>
            <rect id="Rectangle-8-Copy-22" stroke="#DCDCDC" stroke-width="0.5" fill="#FFFFFF" x="61.25" y="135.25" width="3.5" height="3.5"></rect>
            <rect id="Rectangle-8-Copy-19" stroke="#DCDCDC" stroke-width="0.5" fill="#FFFFFF" x="220.25" y="172.25" width="3.5" height="3.5"></rect>
        </g>
        <g id="checkmark" transform="translate(13.000000, 14.000000)">
            <rect id="transparent-rectangle" x="0.5" y="0.5" width="24" height="24"></rect>
            <mask id="mask-3" fill="white">
                <use xlink:href="#path-2"></use>
            </mask>
            <use id="Mask" fill="#24A249" fill-rule="nonzero" xlink:href="#path-2"></use>
            <polygon id="Shape" fill="#FFFFFF" mask="url(#mask-3)" points="17.75 9.8 16.7 8.75 11 14.45 8.3 11.75 7.25 12.8 11 16.55"></polygon>
        </g>
        <polygon id="Background-Copy" fill="#24A249" points="0 0 288 0 288 3 0 3"></polygon>
    </g>
</svg>