<?xml version="1.0" encoding="UTF-8"?>
<svg width="928px" height="522px" viewBox="0 0 928 522" version="1.1" xmlns="http://www.w3.org/2000/svg" xmlns:xlink="http://www.w3.org/1999/xlink">
    <!-- Generator: Sketch 52.4 (67378) - http://www.bohemiancoding.com/sketch -->
    <title>Layout_overview_Key Alignment</title>
    <desc>Created with Sketch.</desc>
    <defs>
        <path d="M2.75,2.75 L2.75,6.1875 L6.1875,6.1875 L6.1875,2.75 L2.75,2.75 Z M5.5,5.5 L3.4375,5.5 L3.4375,3.4375 L5.5,3.4375 L5.5,5.5 Z M8.9375,3.953125 L8.9375,3.265625 L7.90625,3.265625 L7.90625,1.71875 C7.90625,1.33905423 7.59844577,1.03125 7.21875,1.03125 L6.1875,1.03125 L6.1875,0 L5.5,0 L5.5,1.03125 L3.4375,1.03125 L3.4375,0 L2.75,0 L2.75,1.03125 L1.71875,1.03125 C1.33905423,1.03125 1.03125,1.33905423 1.03125,1.71875 L1.03125,3.265625 L0,3.265625 L0,3.953125 L1.03125,3.953125 L1.03125,5.671875 L0,5.671875 L0,6.359375 L1.03125,6.359375 L1.03125,7.21875 C1.03125,7.59844577 1.33905423,7.90625 1.71875,7.90625 L2.75,7.90625 L2.75,8.9375 L3.4375,8.9375 L3.4375,7.90625 L5.5,7.90625 L5.5,8.9375 L6.1875,8.9375 L6.1875,7.90625 L7.21875,7.90625 C7.59844577,7.90625 7.90625,7.59844577 7.90625,7.21875 L7.90625,6.359375 L8.9375,6.359375 L8.9375,5.671875 L7.90625,5.671875 L7.90625,3.953125 L8.9375,3.953125 Z M7.21875,7.21875 L1.71875,7.21875 L1.71875,1.71875 L7.21875,1.71875 L7.21875,7.21875 Z" id="path-1"></path>
        <path d="M8.59375,8.9375 L8.59375,1.71875 C8.59375,1.52890212 8.43984788,1.375 8.25,1.375 L6.1875,1.375 C5.99765212,1.375 5.84375,1.52890212 5.84375,1.71875 L5.84375,8.9375 L4.46875,8.9375 L4.46875,4.46875 C4.46875,4.27890212 4.31484788,4.125 4.125,4.125 L2.0625,4.125 C1.87265212,4.125 1.71875,4.27890212 1.71875,4.46875 L1.71875,8.9375 L0.6875,8.9375 L0.6875,0 L0,0 L0,9.28125 C0,9.47109788 0.153902117,9.625 0.34375,9.625 L9.625,9.625 L9.625,8.9375 L8.59375,8.9375 Z M3.78125,8.9375 L2.40625,8.9375 L2.40625,4.8125 L3.78125,4.8125 L3.78125,8.9375 Z M7.90625,8.9375 L6.53125,8.9375 L6.53125,2.0625 L7.90625,2.0625 L7.90625,8.9375 Z" id="path-3"></path>
        <path d="M7.5625,0 L1.375,0 C0.995304234,0 0.6875,0.307804234 0.6875,0.6875 L0.6875,2.0625 L0,2.0625 L0,2.75 L0.6875,2.75 L0.6875,4.46875 L0,4.46875 L0,5.15625 L0.6875,5.15625 L0.6875,6.875 L0,6.875 L0,7.5625 L0.6875,7.5625 L0.6875,8.9375 C0.6875,9.31719577 0.995304234,9.625 1.375,9.625 L7.5625,9.625 C7.94219577,9.625 8.25,9.31719577 8.25,8.9375 L8.25,0.6875 C8.25,0.307804234 7.94219577,0 7.5625,0 Z M7.5625,8.9375 L1.375,8.9375 L1.375,7.5625 L2.0625,7.5625 L2.0625,6.875 L1.375,6.875 L1.375,5.15625 L2.0625,5.15625 L2.0625,4.46875 L1.375,4.46875 L1.375,2.75 L2.0625,2.75 L2.0625,2.0625 L1.375,2.0625 L1.375,0.6875 L7.5625,0.6875 L7.5625,8.9375 Z M3.4375,2.0625 L6.1875,2.0625 L6.1875,2.75 L3.4375,2.75 L3.4375,2.0625 Z M3.4375,4.46875 L6.1875,4.46875 L6.1875,5.15625 L3.4375,5.15625 L3.4375,4.46875 Z M3.4375,6.875 L6.1875,6.875 L6.1875,7.5625 L3.4375,7.5625 L3.4375,6.875 Z" id="path-5"></path>
        <path d="M8.06666667,4.76666667 L7.54966667,4.24966667 L4.76666667,7.029 L4.76666667,0 L4.03333333,0 L4.03333333,7.029 L1.25033333,4.24966667 L0.733333333,4.76666667 L4.4,8.43333333 L8.06666667,4.76666667 Z M8.06666667,8.06666667 L8.06666667,9.53333333 L0.733333333,9.53333333 L0.733333333,8.06666667 L0,8.06666667 L0,9.53333333 C0,9.93834215 0.328324517,10.2666667 0.733333333,10.2666667 L8.06666667,10.2666667 C8.47167548,10.2666667 8.8,9.93834215 8.8,9.53333333 L8.8,8.06666667 L8.06666667,8.06666667 Z" id="path-7"></path>
        <path d="M8.06666667,4.76666667 L7.54966667,4.24966667 L4.76666667,7.029 L4.76666667,0 L4.03333333,0 L4.03333333,7.029 L1.25033333,4.24966667 L0.733333333,4.76666667 L4.4,8.43333333 L8.06666667,4.76666667 Z M8.06666667,8.06666667 L8.06666667,9.53333333 L0.733333333,9.53333333 L0.733333333,8.06666667 L0,8.06666667 L0,9.53333333 C0,9.93834215 0.328324517,10.2666667 0.733333333,10.2666667 L8.06666667,10.2666667 C8.47167548,10.2666667 8.8,9.93834215 8.8,9.53333333 L8.8,8.06666667 L8.06666667,8.06666667 Z" id="path-9"></path>
    </defs>
    <g id="Key-Alignment" stroke="none" stroke-width="1" fill="none" fill-rule="evenodd">
        <g id="Group-45" transform="translate(15.000000, 16.000000)">
            <g id="Group-40">
                <g id="Group-34">
                    <g id="Group-18">
                        <g id="Group-11">
                            <g id="Group-24">
                                <rect id="Rectangle-2-Copy-143" fill="#171717" x="0" y="0" width="897.6" height="849.75"></rect>
                                <rect id="Rectangle-13-Copy-2" fill="#171717" x="0" y="0" width="26.4" height="35.2"></rect>
                                <rect id="Rectangle-13-Copy-3" fill="#282828" x="0" y="26.95" width="26.4" height="26.4"></rect>
                                <rect id="Rectangle-13-Copy-4" fill="#171717" x="0" y="53.35" width="26.4" height="26.4"></rect>
                                <g id="icon/image/chip/20" transform="translate(7.700000, 8.250000)">
                                    <g id="Group">
                                        <g id="chip" transform="translate(1.031250, 1.031250)">
                                            <mask id="mask-2" fill="white">
                                                <use xlink:href="#path-1"></use>
                                            </mask>
                                            <use id="Mask" fill="#000000" fill-rule="nonzero" xlink:href="#path-1"></use>
                                            <g id="color/grey-30" mask="url(#mask-2)" fill="#BEBEBE">
                                                <g transform="translate(-1.031250, -1.031250)" id="Rectangle-3-Copy">
                                                    <rect x="0" y="0" width="22" height="22"></rect>
                                                </g>
                                            </g>
                                        </g>
                                        <rect id="transparent-rectangle" x="0" y="0" width="11" height="11"></rect>
                                    </g>
                                </g>
                                <g id="icon/data/chart/bar/20" transform="translate(7.700000, 34.650000)">
                                    <g id="Group">
                                        <g id="chart-bar" transform="translate(0.687500, 0.687500)">
                                            <mask id="mask-4" fill="white">
                                                <use xlink:href="#path-3"></use>
                                            </mask>
                                            <use id="Mask" fill="#000000" fill-rule="nonzero" xlink:href="#path-3"></use>
                                            <g id="color/grey-10" mask="url(#mask-4)" fill="#F3F3F3">
                                                <g transform="translate(-0.687500, -0.687500)" id="Rectangle-3-Copy">
                                                    <rect x="0" y="0" width="22" height="22"></rect>
                                                </g>
                                            </g>
                                        </g>
                                        <rect id="transparent-rectangle" x="0" y="0" width="11" height="11"></rect>
                                    </g>
                                </g>
                                <g id="icon/image/catalog/20" transform="translate(7.700000, 61.050000)">
                                    <g id="Group">
                                        <g id="catalog" transform="translate(1.375000, 0.687500)">
                                            <mask id="mask-6" fill="white">
                                                <use xlink:href="#path-5"></use>
                                            </mask>
                                            <use id="Mask" fill="#000000" fill-rule="nonzero" xlink:href="#path-5"></use>
                                            <g id="color/grey-30" mask="url(#mask-6)" fill="#BEBEBE">
                                                <g transform="translate(-1.375000, -0.687500)" id="Rectangle-3-Copy">
                                                    <rect x="0" y="0" width="22" height="22"></rect>
                                                </g>
                                            </g>
                                        </g>
                                        <rect id="transparent-rectangle" x="0" y="0" width="11" height="11"></rect>
                                    </g>
                                </g>
                                <rect id="Rectangle-5-Copy" fill="#282828" x="39.6" y="83.05" width="255.2" height="220"></rect>
                                <rect id="Rectangle-2-Copy-123" fill="#282828" x="39.6" y="56.65" width="105.05" height="26.95"></rect>
                                <rect id="Rectangle-2-Copy-126" fill="#3D3D3D" x="145" y="57" width="105.6" height="25.85"></rect>
                                <path d="M57.42,45 L57.42,40.576 L52.478,40.576 L52.478,45 L51.302,45 L51.302,35.228 L52.478,35.228 L52.478,39.54 L57.42,39.54 L57.42,35.228 L58.596,35.228 L58.596,45 L57.42,45 Z M63.804,45.168 C61.844,45.168 60.556,43.684 60.556,41.388 C60.556,39.092 61.844,37.608 63.804,37.608 C65.736,37.608 66.926,39.092 66.926,41.136 L66.926,41.668 L61.732,41.668 L61.732,42.004 C61.732,43.25 62.53,44.188 63.874,44.188 C64.784,44.188 65.484,43.74 65.862,42.942 L66.66,43.516 C66.198,44.496 65.162,45.168 63.804,45.168 Z M63.804,38.546 C62.586,38.546 61.732,39.47 61.732,40.73 L61.732,40.828 L65.722,40.828 L65.722,40.674 C65.722,39.4 64.952,38.546 63.804,38.546 Z M74.654,45 L74.024,45 C73.198,45 72.862,44.496 72.778,43.824 L72.708,43.824 C72.4,44.706 71.63,45.168 70.622,45.168 C69.096,45.168 68.2,44.328 68.2,42.984 C68.2,41.626 69.18,40.87 71.28,40.87 L72.708,40.87 L72.708,40.156 C72.708,39.134 72.148,38.574 71,38.574 C70.132,38.574 69.558,38.994 69.166,39.652 L68.494,39.022 C68.886,38.252 69.754,37.608 71.056,37.608 C72.792,37.608 73.828,38.518 73.828,40.044 L73.828,44.02 L74.654,44.02 L74.654,45 Z M70.804,44.216 C71.91,44.216 72.708,43.642 72.708,42.9 L72.708,41.71 L71.224,41.71 C69.95,41.71 69.376,42.102 69.376,42.802 L69.376,43.096 C69.376,43.81 69.936,44.216 70.804,44.216 Z M80.87,45 L80.87,43.824 L80.814,43.824 C80.38,44.72 79.694,45.168 78.7,45.168 C76.894,45.168 75.76,43.698 75.76,41.388 C75.76,39.078 76.894,37.608 78.7,37.608 C79.694,37.608 80.436,38.042 80.814,38.952 L80.87,38.952 L80.87,34.64 L81.99,34.64 L81.99,45 L80.87,45 Z M79.008,44.16 C80.03,44.16 80.87,43.628 80.87,42.69 L80.87,40.002 C80.87,39.204 80.03,38.616 79.008,38.616 C77.748,38.616 76.964,39.484 76.964,40.772 L76.964,42.004 C76.964,43.292 77.748,44.16 79.008,44.16 Z M86.554,45 L85.56,45 C84.79,45 84.37,44.51 84.37,43.838 L84.37,34.64 L85.49,34.64 L85.49,44.02 L86.554,44.02 L86.554,45 Z M88.738,36.082 C88.262,36.082 88.052,35.83 88.052,35.452 L88.052,35.27 C88.052,34.892 88.262,34.64 88.738,34.64 C89.214,34.64 89.424,34.892 89.424,35.27 L89.424,35.452 C89.424,35.83 89.214,36.082 88.738,36.082 Z M88.178,45 L88.178,37.776 L89.298,37.776 L89.298,45 L88.178,45 Z M92.798,45 L91.678,45 L91.678,37.776 L92.798,37.776 L92.798,38.952 L92.854,38.952 C93.204,38.14 93.82,37.608 94.898,37.608 C96.382,37.608 97.32,38.616 97.32,40.366 L97.32,45 L96.2,45 L96.2,40.562 C96.2,39.274 95.64,38.616 94.562,38.616 C93.666,38.616 92.798,39.064 92.798,39.988 L92.798,45 Z M102.346,45.168 C100.386,45.168 99.098,43.684 99.098,41.388 C99.098,39.092 100.386,37.608 102.346,37.608 C104.278,37.608 105.468,39.092 105.468,41.136 L105.468,41.668 L100.274,41.668 L100.274,42.004 C100.274,43.25 101.072,44.188 102.416,44.188 C103.326,44.188 104.026,43.74 104.404,42.942 L105.202,43.516 C104.74,44.496 103.704,45.168 102.346,45.168 Z M102.346,38.546 C101.128,38.546 100.274,39.47 100.274,40.73 L100.274,40.828 L104.264,40.828 L104.264,40.674 C104.264,39.4 103.494,38.546 102.346,38.546 Z" id="Headline" fill="#FFFFFF"></path>
                                <text id="Experiments" font-family="IBMPlexSans-Light, IBM Plex Sans" font-size="19.8" font-weight="300" line-spacing="24.2" fill="#171717">
                                    <tspan x="48.95" y="373.65">Experiments</tspan>
                                </text>
                                <path d="M55.4,68.008 L53.624,68.008 L53.624,73 L52.952,73 L52.952,68.008 L51.176,68.008 L51.176,67.416 L55.4,67.416 L55.4,68.008 Z M59.616,73 L59.256,73 C58.784,73 58.592,72.712 58.544,72.328 L58.504,72.328 C58.328,72.832 57.888,73.096 57.312,73.096 C56.44,73.096 55.928,72.616 55.928,71.848 C55.928,71.072 56.488,70.64 57.688,70.64 L58.504,70.64 L58.504,70.232 C58.504,69.648 58.184,69.328 57.528,69.328 C57.032,69.328 56.704,69.568 56.48,69.944 L56.096,69.584 C56.32,69.144 56.816,68.776 57.56,68.776 C58.552,68.776 59.144,69.296 59.144,70.168 L59.144,72.44 L59.616,72.44 L59.616,73 Z M57.416,72.552 C58.048,72.552 58.504,72.224 58.504,71.8 L58.504,71.12 L57.656,71.12 C56.928,71.12 56.6,71.344 56.6,71.744 L56.6,71.912 C56.6,72.32 56.92,72.552 57.416,72.552 Z M60.528,73 L60.528,67.08 L61.168,67.08 L61.168,69.544 L61.2,69.544 C61.416,69.024 61.84,68.776 62.408,68.776 C63.44,68.776 64.088,69.616 64.088,70.936 C64.088,72.256 63.44,73.096 62.408,73.096 C61.84,73.096 61.448,72.84 61.2,72.328 L61.168,72.328 L61.168,73 L60.528,73 Z M62.232,72.52 C62.952,72.52 63.4,72.024 63.4,71.288 L63.4,70.584 C63.4,69.848 62.952,69.352 62.232,69.352 C61.648,69.352 61.168,69.688 61.168,70.144 L61.168,71.68 C61.168,72.216 61.648,72.52 62.232,72.52 Z M70.752,73 L67.08,73 L67.08,72.408 L68.64,72.408 L68.64,67.912 L68.584,67.912 L67.176,69.224 L66.784,68.8 L68.264,67.416 L69.312,67.416 L69.312,72.408 L70.752,72.408 L70.752,73 Z" id="Tab-1" fill="#F3F3F3"></path>
                                <path d="M160.4,68.008 L158.624,68.008 L158.624,73 L157.952,73 L157.952,68.008 L156.176,68.008 L156.176,67.416 L160.4,67.416 L160.4,68.008 Z M164.616,73 L164.256,73 C163.784,73 163.592,72.712 163.544,72.328 L163.504,72.328 C163.328,72.832 162.888,73.096 162.312,73.096 C161.44,73.096 160.928,72.616 160.928,71.848 C160.928,71.072 161.488,70.64 162.688,70.64 L163.504,70.64 L163.504,70.232 C163.504,69.648 163.184,69.328 162.528,69.328 C162.032,69.328 161.704,69.568 161.48,69.944 L161.096,69.584 C161.32,69.144 161.816,68.776 162.56,68.776 C163.552,68.776 164.144,69.296 164.144,70.168 L164.144,72.44 L164.616,72.44 L164.616,73 Z M162.416,72.552 C163.048,72.552 163.504,72.224 163.504,71.8 L163.504,71.12 L162.656,71.12 C161.928,71.12 161.6,71.344 161.6,71.744 L161.6,71.912 C161.6,72.32 161.92,72.552 162.416,72.552 Z M165.528,73 L165.528,67.08 L166.168,67.08 L166.168,69.544 L166.2,69.544 C166.416,69.024 166.84,68.776 167.408,68.776 C168.44,68.776 169.088,69.616 169.088,70.936 C169.088,72.256 168.44,73.096 167.408,73.096 C166.84,73.096 166.448,72.84 166.2,72.328 L166.168,72.328 L166.168,73 L165.528,73 Z M167.232,72.52 C167.952,72.52 168.4,72.024 168.4,71.288 L168.4,70.584 C168.4,69.848 167.952,69.352 167.232,69.352 C166.648,69.352 166.168,69.688 166.168,70.144 L166.168,71.68 C166.168,72.216 166.648,72.52 167.232,72.52 Z M175.64,72.408 L175.64,73 L171.976,73 L171.976,72.312 L173.8,70.632 C174.32,70.152 174.72,69.592 174.72,69.056 L174.72,68.96 C174.72,68.344 174.376,67.92 173.688,67.92 C173,67.92 172.68,68.336 172.528,68.864 L171.928,68.632 C172.144,67.976 172.64,67.32 173.72,67.32 C174.808,67.32 175.432,67.992 175.432,68.944 C175.432,69.808 174.92,70.416 174.208,71.056 L172.704,72.408 L175.64,72.408 Z" id="Tab-2" fill="#BEBEBE"></path>
                                <rect id="Rectangle-5-Copy-2" fill="#282828" x="303.6" y="56.65" width="572" height="246.4"></rect>
                                <path d="M321.42,45 L321.42,40.576 L316.478,40.576 L316.478,45 L315.302,45 L315.302,35.228 L316.478,35.228 L316.478,39.54 L321.42,39.54 L321.42,35.228 L322.596,35.228 L322.596,45 L321.42,45 Z M327.804,45.168 C325.844,45.168 324.556,43.684 324.556,41.388 C324.556,39.092 325.844,37.608 327.804,37.608 C329.736,37.608 330.926,39.092 330.926,41.136 L330.926,41.668 L325.732,41.668 L325.732,42.004 C325.732,43.25 326.53,44.188 327.874,44.188 C328.784,44.188 329.484,43.74 329.862,42.942 L330.66,43.516 C330.198,44.496 329.162,45.168 327.804,45.168 Z M327.804,38.546 C326.586,38.546 325.732,39.47 325.732,40.73 L325.732,40.828 L329.722,40.828 L329.722,40.674 C329.722,39.4 328.952,38.546 327.804,38.546 Z M338.654,45 L338.024,45 C337.198,45 336.862,44.496 336.778,43.824 L336.708,43.824 C336.4,44.706 335.63,45.168 334.622,45.168 C333.096,45.168 332.2,44.328 332.2,42.984 C332.2,41.626 333.18,40.87 335.28,40.87 L336.708,40.87 L336.708,40.156 C336.708,39.134 336.148,38.574 335,38.574 C334.132,38.574 333.558,38.994 333.166,39.652 L332.494,39.022 C332.886,38.252 333.754,37.608 335.056,37.608 C336.792,37.608 337.828,38.518 337.828,40.044 L337.828,44.02 L338.654,44.02 L338.654,45 Z M334.804,44.216 C335.91,44.216 336.708,43.642 336.708,42.9 L336.708,41.71 L335.224,41.71 C333.95,41.71 333.376,42.102 333.376,42.802 L333.376,43.096 C333.376,43.81 333.936,44.216 334.804,44.216 Z M344.87,45 L344.87,43.824 L344.814,43.824 C344.38,44.72 343.694,45.168 342.7,45.168 C340.894,45.168 339.76,43.698 339.76,41.388 C339.76,39.078 340.894,37.608 342.7,37.608 C343.694,37.608 344.436,38.042 344.814,38.952 L344.87,38.952 L344.87,34.64 L345.99,34.64 L345.99,45 L344.87,45 Z M343.008,44.16 C344.03,44.16 344.87,43.628 344.87,42.69 L344.87,40.002 C344.87,39.204 344.03,38.616 343.008,38.616 C341.748,38.616 340.964,39.484 340.964,40.772 L340.964,42.004 C340.964,43.292 341.748,44.16 343.008,44.16 Z M350.554,45 L349.56,45 C348.79,45 348.37,44.51 348.37,43.838 L348.37,34.64 L349.49,34.64 L349.49,44.02 L350.554,44.02 L350.554,45 Z M352.738,36.082 C352.262,36.082 352.052,35.83 352.052,35.452 L352.052,35.27 C352.052,34.892 352.262,34.64 352.738,34.64 C353.214,34.64 353.424,34.892 353.424,35.27 L353.424,35.452 C353.424,35.83 353.214,36.082 352.738,36.082 Z M352.178,45 L352.178,37.776 L353.298,37.776 L353.298,45 L352.178,45 Z M356.798,45 L355.678,45 L355.678,37.776 L356.798,37.776 L356.798,38.952 L356.854,38.952 C357.204,38.14 357.82,37.608 358.898,37.608 C360.382,37.608 361.32,38.616 361.32,40.366 L361.32,45 L360.2,45 L360.2,40.562 C360.2,39.274 359.64,38.616 358.562,38.616 C357.666,38.616 356.798,39.064 356.798,39.988 L356.798,45 Z M366.346,45.168 C364.386,45.168 363.098,43.684 363.098,41.388 C363.098,39.092 364.386,37.608 366.346,37.608 C368.278,37.608 369.468,39.092 369.468,41.136 L369.468,41.668 L364.274,41.668 L364.274,42.004 C364.274,43.25 365.072,44.188 366.416,44.188 C367.326,44.188 368.026,43.74 368.404,42.942 L369.202,43.516 C368.74,44.496 367.704,45.168 366.346,45.168 Z M366.346,38.546 C365.128,38.546 364.274,39.47 364.274,40.73 L364.274,40.828 L368.264,40.828 L368.264,40.674 C368.264,39.4 367.494,38.546 366.346,38.546 Z" id="Headline" fill="#FFFFFF"></path>
                                <path d="M317.312,73.096 C316.416,73.096 315.784,72.728 315.336,72.12 L315.832,71.704 C316.224,72.224 316.688,72.504 317.336,72.504 C318.136,72.504 318.568,72.088 318.568,71.448 C318.568,70.92 318.272,70.656 317.536,70.488 L317.08,70.384 C316.064,70.152 315.504,69.704 315.504,68.848 C315.504,67.856 316.256,67.32 317.352,67.32 C318.192,67.32 318.784,67.64 319.2,68.232 L318.696,68.6 C318.392,68.176 317.968,67.912 317.32,67.912 C316.608,67.912 316.168,68.224 316.168,68.824 C316.168,69.352 316.512,69.592 317.216,69.752 L317.672,69.856 C318.76,70.104 319.232,70.584 319.232,71.416 C319.232,72.44 318.512,73.096 317.312,73.096 Z M322.872,73 L322.872,72.328 L322.84,72.328 C322.68,72.72 322.368,73.096 321.68,73.096 C320.832,73.096 320.288,72.52 320.288,71.52 L320.288,68.872 L320.928,68.872 L320.928,71.408 C320.928,72.144 321.256,72.52 321.872,72.52 C322.376,72.52 322.872,72.272 322.872,71.728 L322.872,68.872 L323.512,68.872 L323.512,73 L322.872,73 Z M324.872,73 L324.872,67.08 L325.512,67.08 L325.512,69.544 L325.544,69.544 C325.76,69.024 326.184,68.776 326.752,68.776 C327.784,68.776 328.432,69.616 328.432,70.936 C328.432,72.256 327.784,73.096 326.752,73.096 C326.184,73.096 325.792,72.84 325.544,72.328 L325.512,72.328 L325.512,73 L324.872,73 Z M326.576,72.52 C327.296,72.52 327.744,72.024 327.744,71.288 L327.744,70.584 C327.744,69.848 327.296,69.352 326.576,69.352 C325.992,69.352 325.512,69.688 325.512,70.144 L325.512,71.68 C325.512,72.216 325.992,72.52 326.576,72.52 Z M331.224,73 L330.424,73 C329.984,73 329.744,72.72 329.744,72.32 L329.744,69.432 L329.064,69.432 L329.064,68.872 L329.448,68.872 C329.72,68.872 329.808,68.776 329.808,68.496 L329.808,67.728 L330.384,67.728 L330.384,68.872 L331.288,68.872 L331.288,69.432 L330.384,69.432 L330.384,72.44 L331.224,72.44 L331.224,73 Z M332.64,67.904 C332.368,67.904 332.248,67.76 332.248,67.544 L332.248,67.44 C332.248,67.224 332.368,67.08 332.64,67.08 C332.912,67.08 333.032,67.224 333.032,67.44 L333.032,67.544 C333.032,67.76 332.912,67.904 332.64,67.904 Z M332.32,73 L332.32,68.872 L332.96,68.872 L332.96,73 L332.32,73 Z M336.032,73 L335.232,73 C334.792,73 334.552,72.72 334.552,72.32 L334.552,69.432 L333.872,69.432 L333.872,68.872 L334.256,68.872 C334.528,68.872 334.616,68.776 334.616,68.496 L334.616,67.728 L335.192,67.728 L335.192,68.872 L336.096,68.872 L336.096,69.432 L335.192,69.432 L335.192,72.44 L336.032,72.44 L336.032,73 Z M338.376,73 L337.808,73 C337.368,73 337.128,72.72 337.128,72.336 L337.128,67.08 L337.768,67.08 L337.768,72.44 L338.376,72.44 L338.376,73 Z M340.856,73.096 C339.736,73.096 339,72.248 339,70.936 C339,69.624 339.736,68.776 340.856,68.776 C341.96,68.776 342.64,69.624 342.64,70.792 L342.64,71.096 L339.672,71.096 L339.672,71.288 C339.672,72 340.128,72.536 340.896,72.536 C341.416,72.536 341.816,72.28 342.032,71.824 L342.488,72.152 C342.224,72.712 341.632,73.096 340.856,73.096 Z M340.856,69.312 C340.16,69.312 339.672,69.84 339.672,70.56 L339.672,70.616 L341.952,70.616 L341.952,70.528 C341.952,69.8 341.512,69.312 340.856,69.312 Z" id="Subtitle" fill="#F3F3F3"></path>
                                <polygon id="Rectangle-5" fill="#282828" points="39.6 378.95 303.05 378.95 303.05 598.95 39.6 598.95"></polygon>
                                <polygon id="Rectangle-5-Copy-5" fill="#282828" points="304.15 378.95 876.15 378.95 876.15 598.95 304.15 598.95"></polygon>
                                <rect id="Rectangle-2-Copy-122" fill="#3D3D3D" x="40" y="353" width="105.05" height="25.85"></rect>
                                <rect id="Rectangle-2-Copy-124" fill="#282828" x="145" y="353" width="105.05" height="26.4"></rect>
                                <path d="M55.235,363.3952 L53.5256,363.3952 L53.5256,368.2 L52.8788,368.2 L52.8788,363.3952 L51.1694,363.3952 L51.1694,362.8254 L55.235,362.8254 L55.235,363.3952 Z M59.2929,368.2 L58.9464,368.2 C58.4921,368.2 58.3073,367.9228 58.2611,367.5532 L58.2226,367.5532 C58.0532,368.0383 57.6297,368.2924 57.0753,368.2924 C56.236,368.2924 55.7432,367.8304 55.7432,367.0912 C55.7432,366.3443 56.2822,365.9285 57.4372,365.9285 L58.2226,365.9285 L58.2226,365.5358 C58.2226,364.9737 57.9146,364.6657 57.2832,364.6657 C56.8058,364.6657 56.4901,364.8967 56.2745,365.2586 L55.9049,364.9121 C56.1205,364.4886 56.5979,364.1344 57.314,364.1344 C58.2688,364.1344 58.8386,364.6349 58.8386,365.4742 L58.8386,367.661 L59.2929,367.661 L59.2929,368.2 Z M57.1754,367.7688 C57.7837,367.7688 58.2226,367.4531 58.2226,367.045 L58.2226,366.3905 L57.4064,366.3905 C56.7057,366.3905 56.39,366.6061 56.39,366.9911 L56.39,367.1528 C56.39,367.5455 56.698,367.7688 57.1754,367.7688 Z M60.1707,368.2 L60.1707,362.502 L60.7867,362.502 L60.7867,364.8736 L60.8175,364.8736 C61.0254,364.3731 61.4335,364.1344 61.9802,364.1344 C62.9735,364.1344 63.5972,364.9429 63.5972,366.2134 C63.5972,367.4839 62.9735,368.2924 61.9802,368.2924 C61.4335,368.2924 61.0562,368.046 60.8175,367.5532 L60.7867,367.5532 L60.7867,368.2 L60.1707,368.2 Z M61.8108,367.738 C62.5038,367.738 62.935,367.2606 62.935,366.5522 L62.935,365.8746 C62.935,365.1662 62.5038,364.6888 61.8108,364.6888 C61.2487,364.6888 60.7867,365.0122 60.7867,365.4511 L60.7867,366.9295 C60.7867,367.4454 61.2487,367.738 61.8108,367.738 Z M70.0113,368.2 L66.477,368.2 L66.477,367.6302 L67.9785,367.6302 L67.9785,363.3028 L67.9246,363.3028 L66.5694,364.5656 L66.1921,364.1575 L67.6166,362.8254 L68.6253,362.8254 L68.6253,367.6302 L70.0113,367.6302 L70.0113,368.2 Z" id="Tab-1" fill="#BEBEBE"></path>
                                <path d="M160.235,363.3952 L158.5256,363.3952 L158.5256,368.2 L157.8788,368.2 L157.8788,363.3952 L156.1694,363.3952 L156.1694,362.8254 L160.235,362.8254 L160.235,363.3952 Z M164.2929,368.2 L163.9464,368.2 C163.4921,368.2 163.3073,367.9228 163.2611,367.5532 L163.2226,367.5532 C163.0532,368.0383 162.6297,368.2924 162.0753,368.2924 C161.236,368.2924 160.7432,367.8304 160.7432,367.0912 C160.7432,366.3443 161.2822,365.9285 162.4372,365.9285 L163.2226,365.9285 L163.2226,365.5358 C163.2226,364.9737 162.9146,364.6657 162.2832,364.6657 C161.8058,364.6657 161.4901,364.8967 161.2745,365.2586 L160.9049,364.9121 C161.1205,364.4886 161.5979,364.1344 162.314,364.1344 C163.2688,364.1344 163.8386,364.6349 163.8386,365.4742 L163.8386,367.661 L164.2929,367.661 L164.2929,368.2 Z M162.1754,367.7688 C162.7837,367.7688 163.2226,367.4531 163.2226,367.045 L163.2226,366.3905 L162.4064,366.3905 C161.7057,366.3905 161.39,366.6061 161.39,366.9911 L161.39,367.1528 C161.39,367.5455 161.698,367.7688 162.1754,367.7688 Z M165.1707,368.2 L165.1707,362.502 L165.7867,362.502 L165.7867,364.8736 L165.8175,364.8736 C166.0254,364.3731 166.4335,364.1344 166.9802,364.1344 C167.9735,364.1344 168.5972,364.9429 168.5972,366.2134 C168.5972,367.4839 167.9735,368.2924 166.9802,368.2924 C166.4335,368.2924 166.0562,368.046 165.8175,367.5532 L165.7867,367.5532 L165.7867,368.2 L165.1707,368.2 Z M166.8108,367.738 C167.5038,367.738 167.935,367.2606 167.935,366.5522 L167.935,365.8746 C167.935,365.1662 167.5038,364.6888 166.8108,364.6888 C166.2487,364.6888 165.7867,365.0122 165.7867,365.4511 L165.7867,366.9295 C165.7867,367.4454 166.2487,367.738 166.8108,367.738 Z M174.9035,367.6302 L174.9035,368.2 L171.3769,368.2 L171.3769,367.5378 L173.1325,365.9208 C173.633,365.4588 174.018,364.9198 174.018,364.4039 L174.018,364.3115 C174.018,363.7186 173.6869,363.3105 173.0247,363.3105 C172.3625,363.3105 172.0545,363.7109 171.9082,364.2191 L171.3307,363.9958 C171.5386,363.3644 172.016,362.733 173.0555,362.733 C174.1027,362.733 174.7033,363.3798 174.7033,364.2961 C174.7033,365.1277 174.2105,365.7129 173.5252,366.3289 L172.0776,367.6302 L174.9035,367.6302 Z" id="Tab-2" fill="#F3F3F3"></path>
                                <path d="M57.42,342 L57.42,337.576 L52.478,337.576 L52.478,342 L51.302,342 L51.302,332.228 L52.478,332.228 L52.478,336.54 L57.42,336.54 L57.42,332.228 L58.596,332.228 L58.596,342 L57.42,342 Z M63.804,342.168 C61.844,342.168 60.556,340.684 60.556,338.388 C60.556,336.092 61.844,334.608 63.804,334.608 C65.736,334.608 66.926,336.092 66.926,338.136 L66.926,338.668 L61.732,338.668 L61.732,339.004 C61.732,340.25 62.53,341.188 63.874,341.188 C64.784,341.188 65.484,340.74 65.862,339.942 L66.66,340.516 C66.198,341.496 65.162,342.168 63.804,342.168 Z M63.804,335.546 C62.586,335.546 61.732,336.47 61.732,337.73 L61.732,337.828 L65.722,337.828 L65.722,337.674 C65.722,336.4 64.952,335.546 63.804,335.546 Z M74.654,342 L74.024,342 C73.198,342 72.862,341.496 72.778,340.824 L72.708,340.824 C72.4,341.706 71.63,342.168 70.622,342.168 C69.096,342.168 68.2,341.328 68.2,339.984 C68.2,338.626 69.18,337.87 71.28,337.87 L72.708,337.87 L72.708,337.156 C72.708,336.134 72.148,335.574 71,335.574 C70.132,335.574 69.558,335.994 69.166,336.652 L68.494,336.022 C68.886,335.252 69.754,334.608 71.056,334.608 C72.792,334.608 73.828,335.518 73.828,337.044 L73.828,341.02 L74.654,341.02 L74.654,342 Z M70.804,341.216 C71.91,341.216 72.708,340.642 72.708,339.9 L72.708,338.71 L71.224,338.71 C69.95,338.71 69.376,339.102 69.376,339.802 L69.376,340.096 C69.376,340.81 69.936,341.216 70.804,341.216 Z M80.87,342 L80.87,340.824 L80.814,340.824 C80.38,341.72 79.694,342.168 78.7,342.168 C76.894,342.168 75.76,340.698 75.76,338.388 C75.76,336.078 76.894,334.608 78.7,334.608 C79.694,334.608 80.436,335.042 80.814,335.952 L80.87,335.952 L80.87,331.64 L81.99,331.64 L81.99,342 L80.87,342 Z M79.008,341.16 C80.03,341.16 80.87,340.628 80.87,339.69 L80.87,337.002 C80.87,336.204 80.03,335.616 79.008,335.616 C77.748,335.616 76.964,336.484 76.964,337.772 L76.964,339.004 C76.964,340.292 77.748,341.16 79.008,341.16 Z M86.554,342 L85.56,342 C84.79,342 84.37,341.51 84.37,340.838 L84.37,331.64 L85.49,331.64 L85.49,341.02 L86.554,341.02 L86.554,342 Z M88.738,333.082 C88.262,333.082 88.052,332.83 88.052,332.452 L88.052,332.27 C88.052,331.892 88.262,331.64 88.738,331.64 C89.214,331.64 89.424,331.892 89.424,332.27 L89.424,332.452 C89.424,332.83 89.214,333.082 88.738,333.082 Z M88.178,342 L88.178,334.776 L89.298,334.776 L89.298,342 L88.178,342 Z M92.798,342 L91.678,342 L91.678,334.776 L92.798,334.776 L92.798,335.952 L92.854,335.952 C93.204,335.14 93.82,334.608 94.898,334.608 C96.382,334.608 97.32,335.616 97.32,337.366 L97.32,342 L96.2,342 L96.2,337.562 C96.2,336.274 95.64,335.616 94.562,335.616 C93.666,335.616 92.798,336.064 92.798,336.988 L92.798,342 Z M102.346,342.168 C100.386,342.168 99.098,340.684 99.098,338.388 C99.098,336.092 100.386,334.608 102.346,334.608 C104.278,334.608 105.468,336.092 105.468,338.136 L105.468,338.668 L100.274,338.668 L100.274,339.004 C100.274,340.25 101.072,341.188 102.416,341.188 C103.326,341.188 104.026,340.74 104.404,339.942 L105.202,340.516 C104.74,341.496 103.704,342.168 102.346,342.168 Z M102.346,335.546 C101.128,335.546 100.274,336.47 100.274,337.73 L100.274,337.828 L104.264,337.828 L104.264,337.674 C104.264,336.4 103.494,335.546 102.346,335.546 Z" id="Headline" fill="#FFFFFF"></path>
                                <g id="icon/file/download/16" transform="translate(858.000000, 387.000000)">
                                    <g id="Group">
                                        <g id="download" transform="translate(1.466667, 0.733333)">
                                            <mask id="mask-8" fill="white">
                                                <use xlink:href="#path-7"></use>
                                            </mask>
                                            <use id="Mask" fill="#000000" fill-rule="nonzero" xlink:href="#path-7"></use>
                                            <g id="color/cool-gray/10" mask="url(#mask-8)" fill="#F2F4F8">
                                                <g transform="translate(-1.466667, -0.733333)">
                                                    <rect x="0" y="0" width="29" height="29"></rect>
                                                </g>
                                            </g>
                                        </g>
                                        <rect id="transparent-rectangle" x="0" y="0" width="11.7333333" height="11.7333333"></rect>
                                    </g>
                                </g>
                                <g id="icon/file/download/16" transform="translate(858.000000, 63.000000)">
                                    <g id="Group">
                                        <g id="download" transform="translate(1.466667, 0.733333)">
                                            <mask id="mask-10" fill="white">
                                                <use xlink:href="#path-9"></use>
                                            </mask>
                                            <use id="Mask" fill="#000000" fill-rule="nonzero" xlink:href="#path-9"></use>
                                            <g id="color/cool-gray/10" mask="url(#mask-10)" fill="#F2F4F8">
                                                <g transform="translate(-1.466667, -0.733333)">
                                                    <rect x="0" y="0" width="29" height="29"></rect>
                                                </g>
                                            </g>
                                        </g>
                                        <rect id="transparent-rectangle" x="0" y="0" width="11.7333333" height="11.7333333"></rect>
                                    </g>
                                </g>
                                <path d="M317.312,397.096 C316.416,397.096 315.784,396.728 315.336,396.12 L315.832,395.704 C316.224,396.224 316.688,396.504 317.336,396.504 C318.136,396.504 318.568,396.088 318.568,395.448 C318.568,394.92 318.272,394.656 317.536,394.488 L317.08,394.384 C316.064,394.152 315.504,393.704 315.504,392.848 C315.504,391.856 316.256,391.32 317.352,391.32 C318.192,391.32 318.784,391.64 319.2,392.232 L318.696,392.6 C318.392,392.176 317.968,391.912 317.32,391.912 C316.608,391.912 316.168,392.224 316.168,392.824 C316.168,393.352 316.512,393.592 317.216,393.752 L317.672,393.856 C318.76,394.104 319.232,394.584 319.232,395.416 C319.232,396.44 318.512,397.096 317.312,397.096 Z M322.872,397 L322.872,396.328 L322.84,396.328 C322.68,396.72 322.368,397.096 321.68,397.096 C320.832,397.096 320.288,396.52 320.288,395.52 L320.288,392.872 L320.928,392.872 L320.928,395.408 C320.928,396.144 321.256,396.52 321.872,396.52 C322.376,396.52 322.872,396.272 322.872,395.728 L322.872,392.872 L323.512,392.872 L323.512,397 L322.872,397 Z M324.872,397 L324.872,391.08 L325.512,391.08 L325.512,393.544 L325.544,393.544 C325.76,393.024 326.184,392.776 326.752,392.776 C327.784,392.776 328.432,393.616 328.432,394.936 C328.432,396.256 327.784,397.096 326.752,397.096 C326.184,397.096 325.792,396.84 325.544,396.328 L325.512,396.328 L325.512,397 L324.872,397 Z M326.576,396.52 C327.296,396.52 327.744,396.024 327.744,395.288 L327.744,394.584 C327.744,393.848 327.296,393.352 326.576,393.352 C325.992,393.352 325.512,393.688 325.512,394.144 L325.512,395.68 C325.512,396.216 325.992,396.52 326.576,396.52 Z M331.224,397 L330.424,397 C329.984,397 329.744,396.72 329.744,396.32 L329.744,393.432 L329.064,393.432 L329.064,392.872 L329.448,392.872 C329.72,392.872 329.808,392.776 329.808,392.496 L329.808,391.728 L330.384,391.728 L330.384,392.872 L331.288,392.872 L331.288,393.432 L330.384,393.432 L330.384,396.44 L331.224,396.44 L331.224,397 Z M332.64,391.904 C332.368,391.904 332.248,391.76 332.248,391.544 L332.248,391.44 C332.248,391.224 332.368,391.08 332.64,391.08 C332.912,391.08 333.032,391.224 333.032,391.44 L333.032,391.544 C333.032,391.76 332.912,391.904 332.64,391.904 Z M332.32,397 L332.32,392.872 L332.96,392.872 L332.96,397 L332.32,397 Z M336.032,397 L335.232,397 C334.792,397 334.552,396.72 334.552,396.32 L334.552,393.432 L333.872,393.432 L333.872,392.872 L334.256,392.872 C334.528,392.872 334.616,392.776 334.616,392.496 L334.616,391.728 L335.192,391.728 L335.192,392.872 L336.096,392.872 L336.096,393.432 L335.192,393.432 L335.192,396.44 L336.032,396.44 L336.032,397 Z M338.376,397 L337.808,397 C337.368,397 337.128,396.72 337.128,396.336 L337.128,391.08 L337.768,391.08 L337.768,396.44 L338.376,396.44 L338.376,397 Z M340.856,397.096 C339.736,397.096 339,396.248 339,394.936 C339,393.624 339.736,392.776 340.856,392.776 C341.96,392.776 342.64,393.624 342.64,394.792 L342.64,395.096 L339.672,395.096 L339.672,395.288 C339.672,396 340.128,396.536 340.896,396.536 C341.416,396.536 341.816,396.28 342.032,395.824 L342.488,396.152 C342.224,396.712 341.632,397.096 340.856,397.096 Z M340.856,393.312 C340.16,393.312 339.672,393.84 339.672,394.56 L339.672,394.616 L341.952,394.616 L341.952,394.528 C341.952,393.8 341.512,393.312 340.856,393.312 Z" id="Subtitle-Copy" fill="#F3F3F3"></path>
                                <path d="M53.312,397.096 C52.416,397.096 51.784,396.728 51.336,396.12 L51.832,395.704 C52.224,396.224 52.688,396.504 53.336,396.504 C54.136,396.504 54.568,396.088 54.568,395.448 C54.568,394.92 54.272,394.656 53.536,394.488 L53.08,394.384 C52.064,394.152 51.504,393.704 51.504,392.848 C51.504,391.856 52.256,391.32 53.352,391.32 C54.192,391.32 54.784,391.64 55.2,392.232 L54.696,392.6 C54.392,392.176 53.968,391.912 53.32,391.912 C52.608,391.912 52.168,392.224 52.168,392.824 C52.168,393.352 52.512,393.592 53.216,393.752 L53.672,393.856 C54.76,394.104 55.232,394.584 55.232,395.416 C55.232,396.44 54.512,397.096 53.312,397.096 Z M58.872,397 L58.872,396.328 L58.84,396.328 C58.68,396.72 58.368,397.096 57.68,397.096 C56.832,397.096 56.288,396.52 56.288,395.52 L56.288,392.872 L56.928,392.872 L56.928,395.408 C56.928,396.144 57.256,396.52 57.872,396.52 C58.376,396.52 58.872,396.272 58.872,395.728 L58.872,392.872 L59.512,392.872 L59.512,397 L58.872,397 Z M60.872,397 L60.872,391.08 L61.512,391.08 L61.512,393.544 L61.544,393.544 C61.76,393.024 62.184,392.776 62.752,392.776 C63.784,392.776 64.432,393.616 64.432,394.936 C64.432,396.256 63.784,397.096 62.752,397.096 C62.184,397.096 61.792,396.84 61.544,396.328 L61.512,396.328 L61.512,397 L60.872,397 Z M62.576,396.52 C63.296,396.52 63.744,396.024 63.744,395.288 L63.744,394.584 C63.744,393.848 63.296,393.352 62.576,393.352 C61.992,393.352 61.512,393.688 61.512,394.144 L61.512,395.68 C61.512,396.216 61.992,396.52 62.576,396.52 Z M67.224,397 L66.424,397 C65.984,397 65.744,396.72 65.744,396.32 L65.744,393.432 L65.064,393.432 L65.064,392.872 L65.448,392.872 C65.72,392.872 65.808,392.776 65.808,392.496 L65.808,391.728 L66.384,391.728 L66.384,392.872 L67.288,392.872 L67.288,393.432 L66.384,393.432 L66.384,396.44 L67.224,396.44 L67.224,397 Z M68.64,391.904 C68.368,391.904 68.248,391.76 68.248,391.544 L68.248,391.44 C68.248,391.224 68.368,391.08 68.64,391.08 C68.912,391.08 69.032,391.224 69.032,391.44 L69.032,391.544 C69.032,391.76 68.912,391.904 68.64,391.904 Z M68.32,397 L68.32,392.872 L68.96,392.872 L68.96,397 L68.32,397 Z M72.032,397 L71.232,397 C70.792,397 70.552,396.72 70.552,396.32 L70.552,393.432 L69.872,393.432 L69.872,392.872 L70.256,392.872 C70.528,392.872 70.616,392.776 70.616,392.496 L70.616,391.728 L71.192,391.728 L71.192,392.872 L72.096,392.872 L72.096,393.432 L71.192,393.432 L71.192,396.44 L72.032,396.44 L72.032,397 Z M74.376,397 L73.808,397 C73.368,397 73.128,396.72 73.128,396.336 L73.128,391.08 L73.768,391.08 L73.768,396.44 L74.376,396.44 L74.376,397 Z M76.856,397.096 C75.736,397.096 75,396.248 75,394.936 C75,393.624 75.736,392.776 76.856,392.776 C77.96,392.776 78.64,393.624 78.64,394.792 L78.64,395.096 L75.672,395.096 L75.672,395.288 C75.672,396 76.128,396.536 76.896,396.536 C77.416,396.536 77.816,396.28 78.032,395.824 L78.488,396.152 C78.224,396.712 77.632,397.096 76.856,397.096 Z M76.856,393.312 C76.16,393.312 75.672,393.84 75.672,394.56 L75.672,394.616 L77.952,394.616 L77.952,394.528 C77.952,393.8 77.512,393.312 76.856,393.312 Z" id="Subtitle-Copy-2" fill="#F3F3F3"></path>
                                <rect id="Rectangle-2-Copy-143" fill="#3D3D3D" x="25.85" y="0" width="1" height="849.75"></rect>
                            </g>
                        </g>
                    </g>
                    <rect id="Rectangle-12" fill="#D0B0FF" fill-rule="nonzero" x="50" y="0" width="1" height="506"></rect>
                    <rect id="Rectangle-12-Copy-13" fill="#D0B0FF" fill-rule="nonzero" x="155" y="0" width="1" height="506"></rect>
                    <rect id="Rectangle-12-Copy-11" fill="#92EEEE" fill-rule="nonzero" x="27" y="73" width="870" height="1"></rect>
                    <rect id="Rectangle-12-Copy-12" fill="#92EEEE" fill-rule="nonzero" x="27" y="398" width="870" height="1"></rect>
                    <rect id="Rectangle-12-Copy-14" fill="#92EEEE" fill-rule="nonzero" x="27" y="368" width="870" height="1"></rect>
                    <rect id="Rectangle-12-Copy-15" fill="#92EEEE" fill-rule="nonzero" x="27" y="45" width="870" height="1"></rect>
                    <rect id="Rectangle-12-Copy-10" fill="#D0B0FF" fill-rule="nonzero" x="314" y="0" width="1" height="506"></rect>
                    <rect id="Rectangle-15-Copy-7" stroke="#B3E6FF" fill="#B3E6FF" x="304.5" y="57.5" width="4" height="4"></rect>
                    <rect id="Rectangle-15-Copy-16" stroke="#B3E6FF" fill="#B3E6FF" x="40.5" y="57.5" width="4" height="4"></rect>
                    <rect id="Rectangle-15-Copy-20" stroke="#B3E6FF" fill="#B3E6FF" x="145.5" y="57.5" width="4" height="4"></rect>
                    <rect id="Rectangle-15-Copy-22" stroke="#B3E6FF" fill="#B3E6FF" x="145.5" y="353.5" width="4" height="4"></rect>
                    <rect id="Rectangle-15-Copy-18" stroke="#B3E6FF" fill="#B3E6FF" x="40.5" y="353.5" width="4" height="4"></rect>
                    <rect id="Rectangle-15-Copy-15" stroke="#B3E6FF" fill="#B3E6FF" x="309.5" y="62.5" width="4" height="4"></rect>
                    <rect id="Rectangle-15-Copy-17" stroke="#B3E6FF" fill="#B3E6FF" x="45.5" y="62.5" width="4" height="4"></rect>
                    <rect id="Rectangle-15-Copy-21" stroke="#B3E6FF" fill="#B3E6FF" x="150.5" y="62.5" width="4" height="4"></rect>
                    <rect id="Rectangle-15-Copy-23" stroke="#B3E6FF" fill="#B3E6FF" x="150.5" y="358.5" width="4" height="4"></rect>
                    <rect id="Rectangle-15-Copy-19" stroke="#B3E6FF" fill="#B3E6FF" x="45.5" y="358.5" width="4" height="4"></rect>
                </g>
            </g>
        </g>
    </g>
</svg>