<?xml version="1.0" encoding="UTF-8"?>
<svg width="928px" height="522px" viewBox="0 0 928 522" version="1.1" xmlns="http://www.w3.org/2000/svg" xmlns:xlink="http://www.w3.org/1999/xlink">
    <!-- Generator: Sketch 52.4 (67378) - http://www.bohemiancoding.com/sketch -->
    <title>Layout_overview_Screen regions 3</title>
    <desc>Created with Sketch.</desc>
    <defs>
        <path d="M3.75,0.75 C4.78553391,0.75 5.625,1.58946609 5.625,2.625 C5.625,3.66053391 4.78553391,4.5 3.75,4.5 C2.71446609,4.5 1.875,3.66053391 1.875,2.625 C1.87617794,1.5899544 2.7149544,0.751177939 3.75,0.75 Z M3.75,0 C2.30025253,0 1.125,1.17525253 1.125,2.625 C1.125,4.07474747 2.30025253,5.25 3.75,5.25 C5.19974747,5.25 6.375,4.07474747 6.375,2.625 C6.375,1.17525253 5.19974747,8.32667268e-16 3.75,0 Z M7.5,10.5 L6.75,10.5 L6.75,8.625 C6.74878082,7.58997151 5.91002849,6.75121918 4.875,6.75 L2.625,6.75 C1.58997151,6.75121918 0.751219177,7.58997151 0.75,8.625 L0.75,10.5 L0,10.5 L0,8.625 C0.00169447703,7.17595499 1.17595499,6.00169448 2.625,6 L4.875,6 C6.32404501,6.00169448 7.49830552,7.17595499 7.5,8.625 L7.5,10.5 Z" id="path-1"></path>
        <path d="M3.24,0 L4.68,0 L4.68,1.44 L3.24,1.44 L3.24,0 Z M0,0 L1.44,0 L1.44,1.44 L0,1.44 L0,0 Z M6.48,0 L7.92,0 L7.92,1.44 L6.48,1.44 L6.48,0 Z M3.24,3.24 L4.68,3.24 L4.68,4.68 L3.24,4.68 L3.24,3.24 Z M0,3.24 L1.44,3.24 L1.44,4.68 L0,4.68 L0,3.24 Z M6.48,3.24 L7.92,3.24 L7.92,4.68 L6.48,4.68 L6.48,3.24 Z M3.24,6.48 L4.68,6.48 L4.68,7.92 L3.24,7.92 L3.24,6.48 Z M0,6.48 L1.44,6.48 L1.44,7.92 L0,7.92 L0,6.48 Z M6.48,6.48 L7.92,6.48 L7.92,7.92 L6.48,7.92 L6.48,6.48 Z" id="path-3"></path>
        <path d="M5.25,0 C2.3625,0 0,2.3625 0,5.25 C0,8.1375 2.3625,10.5 5.25,10.5 C8.1375,10.5 10.5,8.1375 10.5,5.25 C10.5,2.3625 8.1375,0 5.25,0 Z M5.25,9.75 C2.775,9.75 0.75,7.725 0.75,5.25 C0.75,2.775 2.775,0.75 5.25,0.75 C7.725,0.75 9.75,2.775 9.75,5.25 C9.75,7.725 7.725,9.75 5.25,9.75 Z M5.25,8.25 C5.56066017,8.25 5.8125,7.99816017 5.8125,7.6875 C5.8125,7.37683983 5.56066017,7.125 5.25,7.125 C4.93933983,7.125 4.6875,7.37683983 4.6875,7.6875 C4.6875,7.99816017 4.93933983,8.25 5.25,8.25 Z M5.625,2.25 L5.0625,2.25 C4.125,2.25 3.375,3 3.375,3.9375 L3.375,4.125 L4.125,4.125 L4.125,3.9375 C4.125,3.4125 4.5375,3 5.0625,3 L5.625,3 C6.15,3 6.5625,3.4125 6.5625,3.9375 C6.5625,4.4625 6.15,4.875 5.625,4.875 L4.875,4.875 L4.875,6.375 L5.625,6.375 L5.625,5.625 C6.5625,5.625 7.3125,4.875 7.3125,3.9375 C7.3125,3 6.5625,2.25 5.625,2.25 Z" id="path-5"></path>
        <path d="M9.375,7.875 C9.11052683,7.87887842 8.85178169,7.95262078 8.625,8.08875 L7.46625,6.93 C8.02062252,6.14968997 8.02062252,5.10406003 7.46625,4.32375 L8.625,3.16125 C9.27607432,3.54258091 10.109072,3.38093362 10.5702631,2.78376214 C11.0314542,2.18659067 10.9772773,1.33978502 10.4437462,0.806253844 C9.91021498,0.272722669 9.06340933,0.218545772 8.46623786,0.679736898 C7.86906638,1.14092802 7.70741909,1.97392568 8.08875,2.625 L6.93,3.78375 C6.14968997,3.22937748 5.10406003,3.22937748 4.32375,3.78375 L3.16125,2.625 C3.54258091,1.97392568 3.38093362,1.14092802 2.78376214,0.679736898 C2.18659067,0.218545772 1.33978502,0.272722669 0.806253844,0.806253844 C0.272722669,1.33978502 0.218545772,2.18659067 0.679736898,2.78376214 C1.14092802,3.38093362 1.97392568,3.54258091 2.625,3.16125 L3.78375,4.32 C3.22937748,5.10031003 3.22937748,6.14593997 3.78375,6.92625 L2.625,8.08875 C1.97392568,7.70741909 1.14092802,7.86906638 0.679736898,8.46623786 C0.218545772,9.06340933 0.272722669,9.91021498 0.806253844,10.4437462 C1.33978502,10.9772773 2.18659067,11.0314542 2.78376214,10.5702631 C3.38093362,10.109072 3.54258091,9.27607432 3.16125,8.625 L4.32,7.46625 C5.10031003,8.02062252 6.14593997,8.02062252 6.92625,7.46625 L8.08875,8.625 C7.7487277,9.21399326 7.84752099,9.95804727 8.32946186,10.4379027 C8.81140273,10.9177581 9.55587816,11.0133239 10.1433914,10.6707506 C10.7309046,10.3281773 11.0144215,9.6331991 10.834186,8.97742214 C10.6539506,8.32164519 10.0550694,7.86918758 9.375,7.875 Z M9.375,1.125 C9.78921356,1.125 10.125,1.46078644 10.125,1.875 C10.125,2.28921356 9.78921356,2.625 9.375,2.625 C8.96078644,2.625 8.625,2.28921356 8.625,1.875 C8.625,1.46078644 8.96078644,1.125 9.375,1.125 Z M1.125,1.875 C1.125,1.46078644 1.46078644,1.125 1.875,1.125 C2.28921356,1.125 2.625,1.46078644 2.625,1.875 C2.625,2.28921356 2.28921356,2.625 1.875,2.625 C1.67608763,2.625 1.4853222,2.54598237 1.34466991,2.40533009 C1.20401763,2.2646778 1.125,2.07391237 1.125,1.875 Z M1.875,10.125 C1.46078644,10.125 1.125,9.78921356 1.125,9.375 C1.125,8.96078644 1.46078644,8.625 1.875,8.625 C2.28921356,8.625 2.625,8.96078644 2.625,9.375 C2.625,9.78921356 2.28921356,10.125 1.875,10.125 Z M5.625,7.125 C4.79657288,7.125 4.125,6.45342712 4.125,5.625 C4.125,4.79657288 4.79657288,4.125 5.625,4.125 C6.45342712,4.125 7.125,4.79657288 7.125,5.625 C7.125,6.02282473 6.96696474,6.4043556 6.68566017,6.68566017 C6.4043556,6.96696474 6.02282473,7.125 5.625,7.125 Z M9.375,10.125 C8.96078644,10.125 8.625,9.78921356 8.625,9.375 C8.625,8.96078644 8.96078644,8.625 9.375,8.625 C9.78921356,8.625 10.125,8.96078644 10.125,9.375 C10.125,9.78921356 9.78921356,10.125 9.375,10.125 Z" id="path-7"></path>
        <path d="M5.6664,9.36 L5.04,9 L6.48,6.48 L8.64,6.48 C9.03764502,6.48 9.36,6.15764502 9.36,5.76 L9.36,1.44 C9.36,1.04235498 9.03764502,0.72 8.64,0.72 L1.44,0.72 C1.04235498,0.72 0.72,1.04235498 0.72,1.44 L0.72,5.76 C0.72,6.15764502 1.04235498,6.48 1.44,6.48 L4.68,6.48 L4.68,7.2 L1.44,7.2 C0.64470996,7.2 1.59872116e-16,6.55529004 0,5.76 L0,1.44 C-7.99360578e-17,0.64470996 0.64470996,0 1.44,0 L8.64,0 C9.43529004,0 10.08,0.64470996 10.08,1.44 L10.08,5.76 C10.08,6.55529004 9.43529004,7.2 8.64,7.2 L6.8976,7.2 L5.6664,9.36 Z M2.16,2.16 L7.92,2.16 L7.92,2.88 L2.16,2.88 L2.16,2.16 Z M2.16,4.32 L5.76,4.32 L5.76,5.04 L2.16,5.04 L2.16,4.32 Z" id="path-9"></path>
        <path d="M4.5,0.75 C5.325,0.75 6.075,1.2 6.45,1.9125 L6.7125,2.3625 L7.2,2.2875 C7.3125,2.2875 7.425,2.25 7.5,2.25 C8.7375,2.25 9.75,3.2625 9.75,4.5 C9.75,5.625 8.8875,6.6 7.8,6.7125 L7.6125,6.75 L2.25,6.75 C1.425,6.75 0.75,6.075 0.75,5.25 C0.75,4.6125 1.1625,4.05 1.7625,3.825 L2.2875,3.6375 L2.25,3.1125 L2.25,3.0375 L2.25,3 C2.25,1.7625 3.2625,0.75 4.5,0.75 Z M4.5,0 C2.85,0 1.5,1.35 1.5,3 C1.5,3.0375 1.5,3.075 1.5,3.1125 C0.6375,3.4125 0,4.2375 0,5.25 C0,6.4875 1.0125,7.5 2.25,7.5 L7.875,7.5 L7.875,7.4625 C9.3375,7.275 10.5,6 10.5,4.5 C10.5,2.85 9.15,1.5 7.5,1.5 C7.35,1.5 7.2375,1.5 7.125,1.5375 C6.6,0.6 5.625,0 4.5,0 Z" id="path-11"></path>
        <path d="M0,0 L9,0 L9,0.75 L0,0.75 L0,0 Z M0,6.75 L9,6.75 L9,7.5 L0,7.5 L0,6.75 Z M0,3.375 L9,3.375 L9,4.125 L0,4.125 L0,3.375 Z" id="path-13"></path>
        <polygon id="path-15" points="3.53025 3 6 0.53025 5.46975 0 3 2.46975 0.53025 0 0 0.53025 2.46975 3 0 5.46975 0.53025 6 3 3.53025 5.46975 6 6 5.46975"></polygon>
    </defs>
    <g id="Screen-regions-3" stroke="none" stroke-width="1" fill="none" fill-rule="evenodd">
        <rect fill="#FFFFFF" x="0" y="0" width="928" height="522"></rect>
        <g id="Group-44">
            <g id="Group-37">
                <polygon id="BG-Copy-5" fill="#FFFFFF" points="0 0 928 0 928 522 0 522"></polygon>
                <rect id="Rectangle-13-Copy-6" fill="#FFCFE1" x="83" y="111" width="791" height="347"></rect>
                <g id="Group-21-Copy-2" transform="translate(91.000000, 83.000000)" fill="#FFFFFF">
                    <g id="1360_16_col_grid-copy-2" transform="translate(1.984810, 27.000000)" stroke="#97C1FF">
                        <path d="M-0.5,-0.5 L47.5482966,-0.5 L47.5482966,348.5 L-0.5,348.5 L-0.5,-0.5 Z" id="Rectangle-17-Copy-561"></path>
                        <path d="M47.7038688,-0.5 L95.7521655,-0.5 L95.7521655,348.5 L47.7038688,348.5 L47.7038688,-0.5 Z" id="Rectangle-17-Copy-561"></path>
                        <path d="M95.9077377,-0.5 L143.956034,-0.5 L143.956034,348.5 L95.9077377,348.5 L95.9077377,-0.5 Z" id="Rectangle-17-Copy-561"></path>
                        <path d="M144.111606,-0.5 L192.159903,-0.5 L192.159903,348.5 L144.111606,348.5 L144.111606,-0.5 Z" id="Rectangle-17-Copy-561"></path>
                        <path d="M192.315475,-0.5 L240.363772,-0.5 L240.363772,348.5 L192.315475,348.5 L192.315475,-0.5 Z" id="Rectangle-17-Copy-561"></path>
                        <path d="M240.519344,-0.5 L288.567641,-0.5 L288.567641,348.5 L240.519344,348.5 L240.519344,-0.5 Z" id="Rectangle-17-Copy-561"></path>
                        <path d="M288.723213,-0.5 L336.77151,-0.5 L336.77151,348.5 L288.723213,348.5 L288.723213,-0.5 Z" id="Rectangle-17-Copy-561"></path>
                        <path d="M336.927082,-0.5 L384.975378,-0.5 L384.975378,348.5 L336.927082,348.5 L336.927082,-0.5 Z" id="Rectangle-17-Copy-561"></path>
                        <path d="M385.130951,-0.5 L433.179247,-0.5 L433.179247,348.5 L385.130951,348.5 L385.130951,-0.5 Z" id="Rectangle-17-Copy-561"></path>
                        <path d="M433.334819,-0.5 L481.383116,-0.5 L481.383116,348.5 L433.334819,348.5 L433.334819,-0.5 Z" id="Rectangle-17-Copy-561"></path>
                        <path d="M481.538688,-0.5 L529.586985,-0.5 L529.586985,348.5 L481.538688,348.5 L481.538688,-0.5 Z" id="Rectangle-17-Copy-561"></path>
                        <path d="M529.742557,-0.5 L577.790854,-0.5 L577.790854,348.5 L529.742557,348.5 L529.742557,-0.5 Z" id="Rectangle-17-Copy-561"></path>
                        <path d="M577.946426,-0.5 L625.994723,-0.5 L625.994723,348.5 L577.946426,348.5 L577.946426,-0.5 Z" id="Rectangle-17-Copy-561"></path>
                        <path d="M626.150295,-0.5 L674.198591,-0.5 L674.198591,348.5 L626.150295,348.5 L626.150295,-0.5 Z" id="Rectangle-17-Copy-561"></path>
                        <path d="M674.354164,-0.5 L722.40246,-0.5 L722.40246,348.5 L674.354164,348.5 L674.354164,-0.5 Z" id="Rectangle-17-Copy-561"></path>
                        <path d="M722.558032,-0.5 L770.606329,-0.5 L770.606329,348.5 L722.558032,348.5 L722.558032,-0.5 Z" id="Rectangle-17-Copy-561"></path>
                    </g>
                    <polygon id="Rectangle-Copy" points="0 0 784 0 784 28 0 28"></polygon>
                </g>
                <rect id="Rectangle-3-Copy-67" fill="#DCDCDC" x="230" y="93" width="44" height="8"></rect>
                <rect id="Rectangle-3-Copy-68" fill="#DCDCDC" x="292" y="93" width="44" height="8"></rect>
                <g id="icon/user/user/20" transform="translate(826.000000, 91.000000)">
                    <g id="Group">
                        <g id="user" transform="translate(2.250000, 0.750000)">
                            <mask id="mask-2" fill="white">
                                <use xlink:href="#path-1"></use>
                            </mask>
                            <use id="Mask" fill="#000000" fill-rule="nonzero" xlink:href="#path-1"></use>
                            <g id="color/gray/100" mask="url(#mask-2)" fill="#171717">
                                <g transform="translate(-2.250000, -0.750000)">
                                    <rect x="0" y="0" width="24" height="24"></rect>
                                </g>
                            </g>
                        </g>
                        <rect id="transparent-rectangle" x="0" y="0" width="12" height="12"></rect>
                    </g>
                </g>
                <g id="icon/navigation/app-switcher/16" transform="translate(855.000000, 91.000000)">
                    <g id="Group">
                        <g id="grid" transform="translate(1.800000, 1.800000)">
                            <mask id="mask-4" fill="white">
                                <use xlink:href="#path-3"></use>
                            </mask>
                            <use id="Mask" fill="#000000" fill-rule="nonzero" xlink:href="#path-3"></use>
                            <g id="color/gray/100" mask="url(#mask-4)" fill="#171717">
                                <g transform="translate(-1.800000, -1.800000)">
                                    <rect x="0" y="0" width="29" height="29"></rect>
                                </g>
                            </g>
                        </g>
                        <rect id="transparent-rectangle" x="0" y="0" width="11.52" height="11.52"></rect>
                    </g>
                </g>
                <polygon id="Rectangle-3-Copy-13" fill="#FFFFFF" points="54 84 82 84 82 460 54 460"></polygon>
                <g id="icon/status/help/20" transform="translate(63.000000, 438.000000)">
                    <g id="help" stroke-width="1" fill-rule="evenodd" transform="translate(0.750000, 0.750000)">
                        <mask id="mask-6" fill="white">
                            <use xlink:href="#path-5"></use>
                        </mask>
                        <use id="Mask" fill="#000000" fill-rule="nonzero" xlink:href="#path-5"></use>
                        <g id="color/gray/70" mask="url(#mask-6)" fill="#565656">
                            <g transform="translate(-0.750000, -0.750000)">
                                <rect x="0" y="0" width="24" height="24"></rect>
                            </g>
                        </g>
                    </g>
                    <rect id="transparent-rectangle" x="0" y="0" width="12" height="12"></rect>
                </g>
                <g id="icon/file/api/20" transform="translate(63.000000, 147.000000)">
                    <g id="Group">
                        <g id="api" transform="translate(0.375000, 0.375000)">
                            <mask id="mask-8" fill="white">
                                <use xlink:href="#path-7"></use>
                            </mask>
                            <use id="Mask" fill="#000000" fill-rule="nonzero" xlink:href="#path-7"></use>
                            <g id="color/gray/70" mask="url(#mask-8)" fill="#565656">
                                <g transform="translate(-0.375000, -0.375000)">
                                    <rect x="0" y="0" width="24" height="24"></rect>
                                </g>
                            </g>
                        </g>
                        <rect id="transparent-rectangle" x="0" y="0" width="12" height="12"></rect>
                    </g>
                </g>
                <polygon id="Rectangle-3-Copy-2" fill="#171717" points="55 111 57 111 57 139 55 139"></polygon>
                <g id="icon/image/chat/16" transform="translate(63.000000, 175.000000)">
                    <g id="chat" stroke-width="1" fill-rule="evenodd" transform="translate(0.720000, 1.440000)">
                        <mask id="mask-10" fill="white">
                            <use xlink:href="#path-9"></use>
                        </mask>
                        <use id="Mask" fill="#000000" fill-rule="nonzero" xlink:href="#path-9"></use>
                        <g id="color/gray/70" mask="url(#mask-10)" fill="#565656">
                            <g transform="translate(-0.720000, -1.440000)">
                                <rect x="0" y="0" width="29" height="29"></rect>
                            </g>
                        </g>
                    </g>
                    <rect id="transparent-rectangle" x="0" y="0" width="11.52" height="11.52"></rect>
                </g>
                <g id="icon/image/cloud/20" transform="translate(63.000000, 119.000000)">
                    <g id="Group">
                        <g id="cloud" transform="translate(0.750000, 2.250000)">
                            <mask id="mask-12" fill="white">
                                <use xlink:href="#path-11"></use>
                            </mask>
                            <use id="Mask" fill="#000000" fill-rule="nonzero" xlink:href="#path-11"></use>
                            <g id="color/gray/70" mask="url(#mask-12)" fill="#565656">
                                <g transform="translate(-0.750000, -2.250000)">
                                    <rect x="0" y="0" width="24" height="24"></rect>
                                </g>
                            </g>
                        </g>
                        <rect id="transparent-rectangle" x="0" y="0" width="12" height="12"></rect>
                    </g>
                </g>
                <g id="icon/navigation/menu/20" transform="translate(63.000000, 91.000000)">
                    <g id="menu" stroke-width="1" fill-rule="evenodd" transform="translate(1.500000, 2.250000)">
                        <mask id="mask-14" fill="white">
                            <use xlink:href="#path-13"></use>
                        </mask>
                        <use id="Mask" fill="#000000" fill-rule="nonzero" xlink:href="#path-13"></use>
                        <g id="color/gray/100" mask="url(#mask-14)" fill="#171717">
                            <g transform="translate(-1.500000, -2.250000)">
                                <rect x="0" y="0" width="24" height="24"></rect>
                            </g>
                        </g>
                    </g>
                    <rect id="transparent-rectangle" x="0" y="0" width="12" height="12"></rect>
                </g>
                <rect id="Rectangle-3-Copy-69" fill="#8C8C8C" x="93" y="93" width="56" height="8"></rect>
                <polygon id="Rectangle-Copy-21" fill="#F3F3F3" style="mix-blend-mode: multiply;" points="56 111 83 111 83 139 56 139"></polygon>
                <path d="M83,83.5 L83,458.5" id="Path-2-Copy-4" stroke="#DCDCDC" style="mix-blend-mode: multiply;"></path>
                <path d="M57.5309091,64 L871.469091,64 C872.866873,64 874,65.1331266 874,66.5309091 L874,84 L55,84 L55,66.5309091 C55,65.1331266 56.1331266,64 57.5309091,64 Z" id="Rectangle-2-Copy-35" fill="#565656"></path>
                <circle id="Oval-5-Copy-28" fill="#FFFFFF" cx="68" cy="74" r="3"></circle>
                <circle id="Oval-5-Copy-29" fill="#FFFFFF" cx="80" cy="74" r="3"></circle>
                <rect id="Frame-Copy-2" stroke="#565656" x="55.5" y="83.5" width="818" height="375"></rect>
                <path d="M83.25,111.25 L873.5,111.25" id="Path-2-Copy-5" stroke="#DCDCDC" style="mix-blend-mode: multiply;"></path>
                <rect id="Rectangle-3-Copy-74" fill="#DCDCDC" x="168" y="93" width="44" height="8"></rect>
                <path d="M55,84 L874,84 L874,458 L55,458 L55,84 Z" id="Rectangle-4-Copy-21" fill-opacity="0.8" fill="#6F6F6F" fill-rule="nonzero" style="mix-blend-mode: multiply;"></path>
                <g id="Group-22" transform="translate(331.000000, 199.000000)">
                    <path d="M0,0 L268,0 L268,144 L0,144 L0,0 Z" id="Rectangle-4-Copy-15" fill="#FFFFFF" fill-rule="nonzero"></path>
                    <g id="Group-19-Copy-3" transform="translate(10.000000, 10.000000)" fill="#DCDCDC">
                        <polygon id="Rectangle-3-Copy-79" points="0 0 104 0 104 8 0 8"></polygon>
                        <polygon id="Rectangle-3-Copy-80" points="0 16 178 16 178 24 0 24"></polygon>
                        <polygon id="Rectangle-3-Copy-81" points="0 32 159 32 159 40 0 40"></polygon>
                        <polygon id="Rectangle-3-Copy-82" points="0 48 178 48 178 56 0 56"></polygon>
                    </g>
                    <path d="M0,111 L134,111 L134,144 L0,144 L0,111 Z" id="Rectangle-4-Copy-15" fill="#A4A4A4" fill-rule="nonzero"></path>
                    <path d="M134,111 L268,111 L268,144 L134,144 L134,111 Z" id="Rectangle-4-Copy-15" fill="#6F6F6F" fill-rule="nonzero"></path>
                    <path d="M0,0 L268,0 L268,144 L0,144 L0,0 Z" id="Rectangle-4-Copy-16" fill-opacity="0.6" fill="#E6D6FF" fill-rule="nonzero" style="mix-blend-mode: multiply;"></path>
                </g>
                <g id="Group-20-Copy-4" transform="translate(342.000000, 278.000000)">
                    <circle id="Oval-3-Copy-6" fill="#171717" cx="10.5" cy="10.5" r="10.5"></circle>
                    <polygon id="1-copy-2" fill="#FFFFFF" points="13.384 14.376 7.612 14.376 7.612 13.092 9.916 13.092 9.916 7.14 9.808 7.14 7.984 9.3 7 8.472 9.076 6 11.464 6 11.464 13.092 13.384 13.092"></polygon>
                </g>
                <g id="icon/navigation/close/20" transform="translate(580.000000, 205.000000)">
                    <g id="Group">
                        <g id="close" transform="translate(3.000000, 3.000000)">
                            <mask id="mask-16" fill="white">
                                <use xlink:href="#path-15"></use>
                            </mask>
                            <use id="Mask" fill="#000000" fill-rule="nonzero" xlink:href="#path-15"></use>
                            <g id="color/gray/100" mask="url(#mask-16)" fill="#171717">
                                <g transform="translate(-3.000000, -3.000000)">
                                    <rect x="0" y="0" width="24" height="24"></rect>
                                </g>
                            </g>
                        </g>
                        <rect id="transparent-rectangle" x="0" y="0" width="12" height="12"></rect>
                    </g>
                </g>
            </g>
        </g>
    </g>
</svg>