<?xml version="1.0" encoding="UTF-8"?>
<svg width="928px" height="522px" viewBox="0 0 928 522" version="1.1" xmlns="http://www.w3.org/2000/svg" xmlns:xlink="http://www.w3.org/1999/xlink">
    <!-- Generator: Sketch 52.4 (67378) - http://www.bohemiancoding.com/sketch -->
    <title>Layout_overview_Hybrid</title>
    <desc>Created with Sketch.</desc>
    <defs>
        <path d="M0.5,36.5 C0.5,56.351 16.65,72.5 36.5,72.5 C56.35,72.5 72.5,56.351 72.5,36.5 C72.5,16.65 56.35,0.5 36.5,0.5 C16.65,0.5 0.5,16.65 0.5,36.5 Z" id="path-1"></path>
    </defs>
    <g id="Hybrid" stroke="none" stroke-width="1" fill="none" fill-rule="evenodd">
        <g id="Group-8-Copy" transform="translate(64.000000, 69.000000)">
            <g id="Group-15-Copy-2">
                <g id="Group-14">
                    <path d="M0.5,19.4493671 L800.5,19.4493671 L800.5,385.449367 L0.5,385.449367 L0.5,19.4493671 Z" id="Rectangle-17-Copy-502" stroke="#BEBEBE" fill="#D8D8D8"></path>
                    <path d="M2.53090909,0 L798.469091,0 C799.866873,-2.56768479e-16 801,1.1331266 801,2.53090909 L801,18.9518987 L0,18.9518987 L0,2.53090909 C-1.71178986e-16,1.1331266 1.1331266,2.56768479e-16 2.53090909,0 Z" id="Rectangle-2-Copy-25" fill="#565656"></path>
                    <ellipse id="Oval-5-Copy-18" fill="#FFFFFF" cx="14" cy="9.97468354" rx="3" ry="2.99240506"></ellipse>
                    <ellipse id="Oval-5-Copy-19" fill="#FFFFFF" cx="26" cy="9.97468354" rx="3" ry="2.99240506"></ellipse>
                </g>
            </g>
            <rect id="Rectangle-26-Copy" fill="#565656" x="0" y="17" width="801" height="3"></rect>
        </g>
        <polygon id="Rectangle-27-Copy-7" fill="#FFFFFF" points="76 101 269 101 269 269 76 269"></polygon>
        <polygon id="Rectangle-27-Copy-11" fill="#FFFFFF" points="76 270 269 270 269 454 76 454"></polygon>
        <polygon id="Rectangle-27-Copy-12" fill="#FFFFFF" points="270 101 463 101 463 269 270 269"></polygon>
        <polygon id="Rectangle-27-Copy-13" fill="#FFFFFF" points="270 439 463 439 463 454 270 454"></polygon>
        <polygon id="Rectangle-27-Copy-14" fill="#FFFFFF" points="270 270 463 270 463 438 270 438"></polygon>
        <polygon id="Rectangle-27-Copy-15" fill="#FFFFFF" points="464 101 657 101 657 269 464 269"></polygon>
        <polygon id="Rectangle-27-Copy-16" fill="#FFFFFF" points="464 439 657 439 657 454 464 454"></polygon>
        <rect id="Rectangle-27-Copy-17" fill="#FFFFFF" x="464" y="270" width="388" height="168"></rect>
        <polygon id="Rectangle-27-Copy-18" fill="#FFFFFF" points="658 101 852 101 852 269 658 269"></polygon>
        <polygon id="Rectangle-27-Copy-19" fill="#FFFFFF" points="658 439 852 439 852 454 658 454"></polygon>
        <g id="Page-1-Copy-44" transform="translate(428.000000, 225.000000)">
            <g id="Group-3">
                <mask id="mask-2" fill="white">
                    <use xlink:href="#path-1"></use>
                </mask>
                <g id="Clip-2"></g>
            </g>
        </g>
    </g>
</svg>