<?xml version="1.0" encoding="UTF-8"?>
<svg width="928px" height="522px" viewBox="0 0 928 522" version="1.1" xmlns="http://www.w3.org/2000/svg" xmlns:xlink="http://www.w3.org/1999/xlink">
    <!-- Generator: Sketch 52.4 (67378) - http://www.bohemiancoding.com/sketch -->
    <title>Layout_overview_Fixed base unit</title>
    <desc>Created with Sketch.</desc>
    <g id="Fixed-base-unit" stroke="none" stroke-width="1" fill="none" fill-rule="evenodd">
        <g id="Group-7" transform="translate(14.000000, 15.000000)">
            <g id="Group-3" stroke="#DCDCDC" stroke-linecap="square">
                <g id="Group-6">
                    <g id="Group-16" transform="translate(0.000000, 1.000000)">
                        <path d="M58.475,0.621173469 L58.475,486.404245" id="Line-7"></path>
                        <path d="M50.475,0.621173469 L50.475,486.404245" id="Line-7"></path>
                        <path d="M42.475,0.621173469 L42.475,486.404245" id="Line-7"></path>
                        <path d="M570.475,0.621173469 L570.475,486.404245" id="Line-7"></path>
                        <path d="M562.475,0.621173469 L562.475,486.404245" id="Line-7"></path>
                        <path d="M554.475,0.621173469 L554.475,486.404245" id="Line-7"></path>
                        <path d="M546.475,0.621173469 L546.475,486.404245" id="Line-7"></path>
                        <path d="M538.475,0.621173469 L538.475,486.404245" id="Line-7"></path>
                        <path d="M530.475,0.621173469 L530.475,486.404245" id="Line-7"></path>
                        <path d="M634.475,0.621173469 L634.475,486.404245" id="Line-7"></path>
                        <path d="M626.475,0.621173469 L626.475,486.404245" id="Line-7"></path>
                        <path d="M618.475,0.621173469 L618.475,486.404245" id="Line-7"></path>
                        <path d="M610.475,0.621173469 L610.475,486.404245" id="Line-7"></path>
                        <path d="M602.475,0.621173469 L602.475,486.404245" id="Line-7"></path>
                        <path d="M594.475,0.621173469 L594.475,486.404245" id="Line-7"></path>
                        <path d="M586.475,0.621173469 L586.475,486.404245" id="Line-7"></path>
                        <path d="M578.475,0.621173469 L578.475,486.404245" id="Line-7"></path>
                        <path d="M698.475,0.621173469 L698.475,486.404245" id="Line-7"></path>
                        <path d="M690.475,0.621173469 L690.475,486.404245" id="Line-7"></path>
                        <path d="M682.475,0.621173469 L682.475,486.404245" id="Line-7"></path>
                        <path d="M674.475,0.621173469 L674.475,486.404245" id="Line-7"></path>
                        <path d="M666.475,0.621173469 L666.475,486.404245" id="Line-7"></path>
                        <path d="M658.475,0.621173469 L658.475,486.404245" id="Line-7"></path>
                        <path d="M762.475,0.621173469 L762.475,486.404245" id="Line-7"></path>
                        <path d="M754.475,0.621173469 L754.475,486.404245" id="Line-7"></path>
                        <path d="M746.475,0.621173469 L746.475,486.404245" id="Line-7"></path>
                        <path d="M738.475,0.621173469 L738.475,486.404245" id="Line-7"></path>
                        <path d="M730.475,0.621173469 L730.475,486.404245" id="Line-7"></path>
                        <path d="M722.475,0.621173469 L722.475,486.404245" id="Line-7"></path>
                        <path d="M714.475,0.621173469 L714.475,486.404245" id="Line-7"></path>
                        <path d="M706.475,0.621173469 L706.475,486.404245" id="Line-7"></path>
                        <path d="M650.475,0.621173469 L650.475,486.404245" id="Line-7"></path>
                        <path d="M642.475,0.621173469 L642.475,486.404245" id="Line-7"></path>
                        <path d="M826.475,0.621173469 L826.475,486.404245" id="Line-7"></path>
                        <path d="M818.475,0.621173469 L818.475,486.404245" id="Line-7"></path>
                        <path d="M810.475,0.621173469 L810.475,486.404245" id="Line-7"></path>
                        <path d="M802.475,0.621173469 L802.475,486.404245" id="Line-7"></path>
                        <path d="M794.475,0.621173469 L794.475,486.404245" id="Line-7"></path>
                        <path d="M786.475,0.621173469 L786.475,486.404245" id="Line-7"></path>
                        <path d="M890.475,0.621173469 L890.475,486.404245" id="Line-7"></path>
                        <path d="M882.475,0.621173469 L882.475,486.404245" id="Line-7"></path>
                        <path d="M874.475,0.621173469 L874.475,486.404245" id="Line-7"></path>
                        <path d="M866.475,0.621173469 L866.475,486.404245" id="Line-7"></path>
                        <path d="M858.475,0.621173469 L858.475,486.404245" id="Line-7"></path>
                        <path d="M850.475,0.621173469 L850.475,486.404245" id="Line-7"></path>
                        <path d="M842.475,0.621173469 L842.475,486.404245" id="Line-7"></path>
                        <path d="M834.475,0.621173469 L834.475,486.404245" id="Line-7"></path>
                        <path d="M898.475,0.621173469 L898.475,486.404245" id="Line-7"></path>
                        <path d="M778.475,0.621173469 L778.475,486.404245" id="Line-7"></path>
                        <path d="M770.475,0.621173469 L770.475,486.404245" id="Line-7"></path>
                        <path d="M522.475,0.621173469 L522.475,486.404245" id="Line-7"></path>
                        <path d="M514.475,0.621173469 L514.475,486.404245" id="Line-7"></path>
                        <path d="M34.475,0.621173469 L34.475,486.404245" id="Line-7"></path>
                        <path d="M26.475,0.621173469 L26.475,486.404245" id="Line-7"></path>
                        <path d="M18.475,0.621173469 L18.475,486.404245" id="Line-7"></path>
                        <path d="M122.475,0.621173469 L122.475,486.404245" id="Line-7"></path>
                        <path d="M114.475,0.621173469 L114.475,486.404245" id="Line-7"></path>
                        <path d="M106.475,0.621173469 L106.475,486.404245" id="Line-7"></path>
                        <path d="M98.475,0.621173469 L98.475,486.404245" id="Line-7"></path>
                        <path d="M90.475,0.621173469 L90.475,486.404245" id="Line-7"></path>
                        <path d="M82.475,0.621173469 L82.475,486.404245" id="Line-7"></path>
                        <path d="M74.475,0.621173469 L74.475,486.404245" id="Line-7"></path>
                        <path d="M66.475,0.621173469 L66.475,486.404245" id="Line-7"></path>
                        <path d="M186.475,0.621173469 L186.475,486.404245" id="Line-7"></path>
                        <path d="M178.475,0.621173469 L178.475,486.404245" id="Line-7"></path>
                        <path d="M170.475,0.621173469 L170.475,486.404245" id="Line-7"></path>
                        <path d="M162.475,0.621173469 L162.475,486.404245" id="Line-7"></path>
                        <path d="M154.475,0.621173469 L154.475,486.404245" id="Line-7"></path>
                        <path d="M146.475,0.621173469 L146.475,486.404245" id="Line-7"></path>
                        <path d="M250.475,0.621173469 L250.475,486.404245" id="Line-7"></path>
                        <path d="M242.475,0.621173469 L242.475,486.404245" id="Line-7"></path>
                        <path d="M234.475,0.621173469 L234.475,486.404245" id="Line-7"></path>
                        <path d="M226.475,0.621173469 L226.475,486.404245" id="Line-7"></path>
                        <path d="M218.475,0.621173469 L218.475,486.404245" id="Line-7"></path>
                        <path d="M210.475,0.621173469 L210.475,486.404245" id="Line-7"></path>
                        <path d="M202.475,0.621173469 L202.475,486.404245" id="Line-7"></path>
                        <path d="M194.475,0.621173469 L194.475,486.404245" id="Line-7"></path>
                        <path d="M138.475,0.621173469 L138.475,486.404245" id="Line-7"></path>
                        <path d="M130.475,0.621173469 L130.475,486.404245" id="Line-7"></path>
                        <path d="M314.475,0.621173469 L314.475,486.404245" id="Line-7"></path>
                        <path d="M306.475,0.621173469 L306.475,486.404245" id="Line-7"></path>
                        <path d="M298.475,0.621173469 L298.475,486.404245" id="Line-7"></path>
                        <path d="M290.475,0.621173469 L290.475,486.404245" id="Line-7"></path>
                        <path d="M282.475,0.621173469 L282.475,486.404245" id="Line-7"></path>
                        <path d="M274.475,0.621173469 L274.475,486.404245" id="Line-7"></path>
                        <path d="M378.475,0.621173469 L378.475,486.404245" id="Line-7"></path>
                        <path d="M370.475,0.621173469 L370.475,486.404245" id="Line-7"></path>
                        <path d="M362.475,0.621173469 L362.475,486.404245" id="Line-7"></path>
                        <path d="M354.475,0.621173469 L354.475,486.404245" id="Line-7"></path>
                        <path d="M346.475,0.621173469 L346.475,486.404245" id="Line-7"></path>
                        <path d="M338.475,0.621173469 L338.475,486.404245" id="Line-7"></path>
                        <path d="M330.475,0.621173469 L330.475,486.404245" id="Line-7"></path>
                        <path d="M322.475,0.621173469 L322.475,486.404245" id="Line-7"></path>
                        <path d="M442.475,0.621173469 L442.475,486.404245" id="Line-7"></path>
                        <path d="M434.475,0.621173469 L434.475,486.404245" id="Line-7"></path>
                        <path d="M426.475,0.621173469 L426.475,486.404245" id="Line-7"></path>
                        <path d="M418.475,0.621173469 L418.475,486.404245" id="Line-7"></path>
                        <path d="M410.475,0.621173469 L410.475,486.404245" id="Line-7"></path>
                        <path d="M402.475,0.621173469 L402.475,486.404245" id="Line-7"></path>
                        <path d="M506.475,0.621173469 L506.475,486.404245" id="Line-7"></path>
                        <path d="M498.475,0.621173469 L498.475,486.404245" id="Line-7"></path>
                        <path d="M490.475,0.621173469 L490.475,486.404245" id="Line-7"></path>
                        <path d="M482.475,0.621173469 L482.475,486.404245" id="Line-7"></path>
                        <path d="M474.475,0.621173469 L474.475,486.404245" id="Line-7"></path>
                        <path d="M466.475,0.621173469 L466.475,486.404245" id="Line-7"></path>
                        <path d="M458.475,0.621173469 L458.475,486.404245" id="Line-7"></path>
                        <path d="M450.475,0.621173469 L450.475,486.404245" id="Line-7"></path>
                        <path d="M394.475,0.621173469 L394.475,486.404245" id="Line-7"></path>
                        <path d="M386.475,0.621173469 L386.475,486.404245" id="Line-7"></path>
                        <path d="M266.475,0.621173469 L266.475,486.404245" id="Line-7"></path>
                        <path d="M258.475,0.621173469 L258.475,486.404245" id="Line-7"></path>
                        <path d="M10.475,0.621173469 L10.475,486.404245" id="Line-7"></path>
                        <path d="M2.475,0.621173469 L2.475,486.404245" id="Line-7"></path>
                    </g>
                    <g id="Group-17" transform="translate(2.000000, 0.000000)">
                        <path d="M0.90803694,120.931436 L895.911381,120.931436" id="Line-8"></path>
                        <path d="M0.90803694,128.900149 L895.911381,128.900149" id="Line-8-Copy"></path>
                        <path d="M0.90803694,136.868863 L895.911381,136.868863" id="Line-8-Copy-2"></path>
                        <path d="M0.90803694,144.837576 L895.911381,144.837576" id="Line-8-Copy-3"></path>
                        <path d="M0.90803694,152.806289 L895.911381,152.806289" id="Line-8-Copy-4"></path>
                        <path d="M0.90803694,160.775003 L895.911381,160.775003" id="Line-8-Copy-5"></path>
                        <path d="M0.90803694,168.743716 L895.911381,168.743716" id="Line-8-Copy-6"></path>
                        <path d="M0.90803694,176.712429 L895.911381,176.712429" id="Line-8-Copy-7"></path>
                        <path d="M0.90803694,184.681143 L895.911381,184.681143" id="Line-8-Copy-8"></path>
                        <path d="M0.90803694,192.649856 L895.911381,192.649856" id="Line-8-Copy-9"></path>
                        <path d="M0.90803694,200.61857 L895.911381,200.61857" id="Line-8-Copy-10"></path>
                        <path d="M0.90803694,208.587283 L895.911381,208.587283" id="Line-8-Copy-11"></path>
                        <path d="M0.90803694,216.555996 L895.911381,216.555996" id="Line-8-Copy-12"></path>
                        <path d="M0.90803694,224.52471 L895.911381,224.52471" id="Line-8-Copy-13"></path>
                        <path d="M0.90803694,232.493423 L895.911381,232.493423" id="Line-8-Copy-14"></path>
                        <path d="M0.90803694,240.462136 L895.911381,240.462136" id="Line-8-Copy-15"></path>
                        <path d="M0.90803694,248.43085 L895.911381,248.43085" id="Line-8-Copy-16"></path>
                        <path d="M0.90803694,256.399563 L895.911381,256.399563" id="Line-8-Copy-17"></path>
                        <path d="M0.90803694,264.368276 L895.911381,264.368276" id="Line-8-Copy-18"></path>
                        <path d="M0.90803694,272.33699 L895.911381,272.33699" id="Line-8-Copy-19"></path>
                        <path d="M0.90803694,280.305703 L895.911381,280.305703" id="Line-8-Copy-20"></path>
                        <path d="M0.90803694,288.274417 L895.911381,288.274417" id="Line-8-Copy-21"></path>
                        <path d="M0.90803694,296.24313 L895.911381,296.24313" id="Line-8-Copy-22"></path>
                        <path d="M0.90803694,1.40073547 L895.911381,1.40073547" id="Line-8-Copy-7"></path>
                        <path d="M0.90803694,9.36944883 L895.911381,9.36944883" id="Line-8-Copy-8"></path>
                        <path d="M0.90803694,17.3381622 L895.911381,17.3381622" id="Line-8-Copy-9"></path>
                        <path d="M0.90803694,25.3068756 L895.911381,25.3068756" id="Line-8-Copy-10"></path>
                        <path d="M0.90803694,33.2755889 L895.911381,33.2755889" id="Line-8-Copy-11"></path>
                        <path d="M0.90803694,41.2443023 L895.911381,41.2443023" id="Line-8-Copy-12"></path>
                        <path d="M0.90803694,49.2130156 L895.911381,49.2130156" id="Line-8-Copy-13"></path>
                        <path d="M0.90803694,57.181729 L895.911381,57.181729" id="Line-8-Copy-14"></path>
                        <path d="M0.90803694,65.1504424 L895.911381,65.1504424" id="Line-8-Copy-15"></path>
                        <path d="M0.90803694,73.1191557 L895.911381,73.1191557" id="Line-8-Copy-16"></path>
                        <path d="M0.90803694,81.0878691 L895.911381,81.0878691" id="Line-8-Copy-17"></path>
                        <path d="M0.90803694,89.0565825 L895.911381,89.0565825" id="Line-8-Copy-18"></path>
                        <path d="M0.90803694,97.0252958 L895.911381,97.0252958" id="Line-8-Copy-19"></path>
                        <path d="M0.90803694,104.994009 L895.911381,104.994009" id="Line-8-Copy-20"></path>
                        <path d="M0.90803694,112.962723 L895.911381,112.962723" id="Line-8-Copy-21"></path>
                        <path d="M0.90803694,304.211843 L895.911381,304.211843" id="Line-8-Copy-23"></path>
                        <path d="M0.90803694,312.180557 L895.911381,312.180557" id="Line-8-Copy-24"></path>
                        <path d="M0.90803694,320.14927 L895.911381,320.14927" id="Line-8-Copy-25"></path>
                        <path d="M0.90803694,328.117983 L895.911381,328.117983" id="Line-8-Copy-26"></path>
                        <path d="M0.90803694,336.086697 L895.911381,336.086697" id="Line-8-Copy-27"></path>
                        <path d="M0.90803694,344.05541 L895.911381,344.05541" id="Line-8-Copy-28"></path>
                        <path d="M0.90803694,352.024123 L895.911381,352.024123" id="Line-8-Copy-29"></path>
                        <path d="M0.90803694,359.992837 L895.911381,359.992837" id="Line-8-Copy-30"></path>
                        <path d="M0.90803694,367.96155 L895.911381,367.96155" id="Line-8-Copy-31"></path>
                        <path d="M0.90803694,375.930264 L895.911381,375.930264" id="Line-8-Copy-32"></path>
                        <path d="M0.90803694,383.898977 L895.911381,383.898977" id="Line-8-Copy-33"></path>
                        <path d="M0.90803694,391.86769 L895.911381,391.86769" id="Line-8-Copy-34"></path>
                        <path d="M0.90803694,399.836404 L895.911381,399.836404" id="Line-8-Copy-35"></path>
                        <path d="M0.90803694,407.805117 L895.911381,407.805117" id="Line-8-Copy-36"></path>
                        <path d="M0.90803694,415.77383 L895.911381,415.77383" id="Line-8-Copy-37"></path>
                        <path d="M0.90803694,423.742544 L895.911381,423.742544" id="Line-8-Copy-38"></path>
                        <path d="M0.90803694,431.711257 L895.911381,431.711257" id="Line-8-Copy-39"></path>
                        <path d="M0.90803694,439.67997 L895.911381,439.67997" id="Line-8-Copy-40"></path>
                        <path d="M0.90803694,447.648684 L895.911381,447.648684" id="Line-8-Copy-41"></path>
                        <path d="M0.90803694,455.617397 L895.911381,455.617397" id="Line-8-Copy-42"></path>
                        <path d="M0.90803694,463.586111 L895.911381,463.586111" id="Line-8-Copy-43"></path>
                        <path d="M0.90803694,471.554824 L895.911381,471.554824" id="Line-8-Copy-44"></path>
                        <path d="M0.90803694,479.523537 L895.911381,479.523537" id="Line-8-Copy-45"></path>
                        <path d="M0.90803694,487.492251 L895.911381,487.492251" id="Line-8-Copy-46"></path>
                    </g>
                </g>
            </g>
            <rect id="Rectangle-15-Copy-2" fill="#B3E6FF" x="242.5" y="296.25" width="24" height="24"></rect>
            <rect id="Rectangle-15-Copy-8" fill="#B3E6FF" x="298.5" y="288.25" width="32" height="32"></rect>
            <rect id="Rectangle-15-Copy-9" fill="#B3E6FF" x="362.5" y="272.25" width="48" height="48"></rect>
            <rect id="Rectangle-15-Copy-10" fill="#B3E6FF" x="442.5" y="256.25" width="64" height="64"></rect>
            <polygon id="Rectangle-15-Copy-11" fill="#B3E6FF" points="539 240 619.25 240 619.25 320.25 539 320.25"></polygon>
            <polygon id="Rectangle-15-Copy-12" fill="#B3E6FF" points="650.25 224 746.5 224 746.5 320.25 650.25 320.25"></polygon>
            <rect id="Rectangle-15-Copy-6" fill="#B3E6FF" x="194.5" y="304.25" width="16" height="16"></rect>
            <rect id="Rectangle-15-Copy-7" stroke="#B3E6FF" fill="#B3E6FF" x="155" y="312.75" width="7" height="7"></rect>
            <path d="M156.6,340.144 C154.644,340.144 153.54,339.112 153.54,337.708 C153.54,336.628 154.2,335.944 155.196,335.668 L155.196,335.572 C154.368,335.272 153.792,334.624 153.792,333.652 C153.792,332.38 154.8,331.48 156.6,331.48 C158.4,331.48 159.408,332.38 159.408,333.652 C159.408,334.624 158.832,335.272 158.004,335.572 L158.004,335.668 C159,335.944 159.66,336.628 159.66,337.708 C159.66,339.112 158.556,340.144 156.6,340.144 Z M156.6,338.908 C157.5,338.908 158.016,338.464 158.016,337.72 L158.016,337.468 C158.016,336.724 157.5,336.28 156.6,336.28 C155.7,336.28 155.184,336.724 155.184,337.468 L155.184,337.72 C155.184,338.464 155.7,338.908 156.6,338.908 Z M156.6,335.104 C157.44,335.104 157.908,334.696 157.908,334 L157.908,333.808 C157.908,333.124 157.44,332.716 156.6,332.716 C155.76,332.716 155.292,333.124 155.292,333.808 L155.292,334 C155.292,334.696 155.76,335.104 156.6,335.104 Z" id="8" fill="#3D3D3D"></path>
            <path d="M200.864,340 L195.092,340 L195.092,338.716 L197.396,338.716 L197.396,332.764 L197.288,332.764 L195.464,334.924 L194.48,334.096 L196.556,331.624 L198.944,331.624 L198.944,338.716 L200.864,338.716 L200.864,340 Z M204.836,340.144 C202.916,340.144 201.788,338.86 201.788,336.856 C201.788,334.456 203.384,332.572 204.788,331.624 L206.924,331.624 C204.956,333.04 203.804,334.168 203.432,335.872 L203.528,335.896 C203.84,335.248 204.368,334.66 205.424,334.66 C206.816,334.66 207.872,335.668 207.872,337.252 C207.872,338.944 206.684,340.144 204.836,340.144 Z M204.836,338.896 C205.712,338.896 206.252,338.392 206.252,337.48 L206.252,337.3 C206.252,336.388 205.712,335.884 204.836,335.884 C203.948,335.884 203.42,336.388 203.42,337.3 L203.42,337.48 C203.42,338.392 203.948,338.896 204.836,338.896 Z" id="16" fill="#3D3D3D"></path>
            <path d="M248.552,338.668 L248.552,340 L242.744,340 L242.744,338.536 L245.372,336.232 C246.26,335.452 246.668,334.876 246.668,334.144 L246.668,333.988 C246.668,333.256 246.116,332.848 245.432,332.848 C244.568,332.848 244.16,333.412 243.968,334.096 L242.6,333.568 C242.96,332.452 243.86,331.48 245.564,331.48 C247.328,331.48 248.336,332.536 248.336,333.976 C248.336,335.368 247.388,336.256 246.224,337.216 L244.46,338.668 L248.552,338.668 Z M254.876,340 L253.376,340 L253.376,338.38 L249.584,338.38 L249.584,337.036 L252.92,331.624 L254.876,331.624 L254.876,337.156 L255.968,337.156 L255.968,338.38 L254.876,338.38 L254.876,340 Z M253.28,333.16 L250.88,337.156 L253.376,337.156 L253.376,333.16 L253.28,333.16 Z" id="24" fill="#3D3D3D"></path>
            <path d="M300.316,335.008 L301.144,335.008 C302.104,335.008 302.548,334.564 302.548,333.964 L302.548,333.88 C302.548,333.196 302.068,332.776 301.312,332.776 C300.58,332.776 300.004,333.148 299.596,333.784 L298.588,332.872 C299.152,332.092 299.944,331.48 301.36,331.48 C303.052,331.48 304.204,332.32 304.204,333.664 C304.204,334.744 303.472,335.392 302.596,335.572 L302.596,335.644 C303.568,335.824 304.348,336.496 304.348,337.684 C304.348,339.16 303.112,340.144 301.264,340.144 C299.632,340.144 298.816,339.4 298.288,338.584 L299.452,337.696 C299.824,338.368 300.328,338.848 301.264,338.848 C302.188,338.848 302.704,338.368 302.704,337.588 L302.704,337.504 C302.704,336.736 302.14,336.328 301.144,336.328 L300.316,336.328 L300.316,335.008 Z M311.752,338.668 L311.752,340 L305.944,340 L305.944,338.536 L308.572,336.232 C309.46,335.452 309.868,334.876 309.868,334.144 L309.868,333.988 C309.868,333.256 309.316,332.848 308.632,332.848 C307.768,332.848 307.36,333.412 307.168,334.096 L305.8,333.568 C306.16,332.452 307.06,331.48 308.764,331.48 C310.528,331.48 311.536,332.536 311.536,333.976 C311.536,335.368 310.588,336.256 309.424,337.216 L307.66,338.668 L311.752,338.668 Z" id="32" fill="#3D3D3D"></path>
            <path d="M368.676,340 L367.176,340 L367.176,338.38 L363.384,338.38 L363.384,337.036 L366.72,331.624 L368.676,331.624 L368.676,337.156 L369.768,337.156 L369.768,338.38 L368.676,338.38 L368.676,340 Z M367.08,333.16 L364.68,337.156 L367.176,337.156 L367.176,333.16 L367.08,333.16 Z M373.8,340.144 C371.844,340.144 370.74,339.112 370.74,337.708 C370.74,336.628 371.4,335.944 372.396,335.668 L372.396,335.572 C371.568,335.272 370.992,334.624 370.992,333.652 C370.992,332.38 372,331.48 373.8,331.48 C375.6,331.48 376.608,332.38 376.608,333.652 C376.608,334.624 376.032,335.272 375.204,335.572 L375.204,335.668 C376.2,335.944 376.86,336.628 376.86,337.708 C376.86,339.112 375.756,340.144 373.8,340.144 Z M373.8,338.908 C374.7,338.908 375.216,338.464 375.216,337.72 L375.216,337.468 C375.216,336.724 374.7,336.28 373.8,336.28 C372.9,336.28 372.384,336.724 372.384,337.468 L372.384,337.72 C372.384,338.464 372.9,338.908 373.8,338.908 Z M373.8,335.104 C374.64,335.104 375.108,334.696 375.108,334 L375.108,333.808 C375.108,333.124 374.64,332.716 373.8,332.716 C372.96,332.716 372.492,333.124 372.492,333.808 L372.492,334 C372.492,334.696 372.96,335.104 373.8,335.104 Z" id="48" fill="#3D3D3D"></path>
            <path d="M445.636,340.144 C443.716,340.144 442.588,338.86 442.588,336.856 C442.588,334.456 444.184,332.572 445.588,331.624 L447.724,331.624 C445.756,333.04 444.604,334.168 444.232,335.872 L444.328,335.896 C444.64,335.248 445.168,334.66 446.224,334.66 C447.616,334.66 448.672,335.668 448.672,337.252 C448.672,338.944 447.484,340.144 445.636,340.144 Z M445.636,338.896 C446.512,338.896 447.052,338.392 447.052,337.48 L447.052,337.3 C447.052,336.388 446.512,335.884 445.636,335.884 C444.748,335.884 444.22,336.388 444.22,337.3 L444.22,337.48 C444.22,338.392 444.748,338.896 445.636,338.896 Z M454.876,340 L453.376,340 L453.376,338.38 L449.584,338.38 L449.584,337.036 L452.92,331.624 L454.876,331.624 L454.876,337.156 L455.968,337.156 L455.968,338.38 L454.876,338.38 L454.876,340 Z M453.28,333.16 L450.88,337.156 L453.376,337.156 L453.376,333.16 L453.28,333.16 Z" id="64" fill="#3D3D3D"></path>
            <path d="M541.6,340.144 C539.644,340.144 538.54,339.112 538.54,337.708 C538.54,336.628 539.2,335.944 540.196,335.668 L540.196,335.572 C539.368,335.272 538.792,334.624 538.792,333.652 C538.792,332.38 539.8,331.48 541.6,331.48 C543.4,331.48 544.408,332.38 544.408,333.652 C544.408,334.624 543.832,335.272 543.004,335.572 L543.004,335.668 C544,335.944 544.66,336.628 544.66,337.708 C544.66,339.112 543.556,340.144 541.6,340.144 Z M541.6,338.908 C542.5,338.908 543.016,338.464 543.016,337.72 L543.016,337.468 C543.016,336.724 542.5,336.28 541.6,336.28 C540.7,336.28 540.184,336.724 540.184,337.468 L540.184,337.72 C540.184,338.464 540.7,338.908 541.6,338.908 Z M541.6,335.104 C542.44,335.104 542.908,334.696 542.908,334 L542.908,333.808 C542.908,333.124 542.44,332.716 541.6,332.716 C540.76,332.716 540.292,333.124 540.292,333.808 L540.292,334 C540.292,334.696 540.76,335.104 541.6,335.104 Z M548.8,340.144 C546.664,340.144 545.68,338.548 545.68,335.812 C545.68,333.076 546.664,331.48 548.8,331.48 C550.936,331.48 551.92,333.076 551.92,335.812 C551.92,338.548 550.936,340.144 548.8,340.144 Z M548.8,338.812 C549.868,338.812 550.24,337.948 550.24,336.568 L550.24,335.056 C550.24,333.676 549.868,332.812 548.8,332.812 C547.732,332.812 547.36,333.676 547.36,335.056 L547.36,336.568 C547.36,337.948 547.732,338.812 548.8,338.812 Z" id="80" fill="#3D3D3D"></path>
            <path d="M656.612,334.768 C656.612,337.168 655.016,339.052 653.612,340 L651.476,340 C653.444,338.584 654.596,337.456 654.968,335.752 L654.872,335.728 C654.56,336.376 654.032,336.964 652.976,336.964 C651.584,336.964 650.528,335.956 650.528,334.372 C650.528,332.68 651.716,331.48 653.564,331.48 C655.484,331.48 656.612,332.764 656.612,334.768 Z M653.564,335.74 C654.452,335.74 654.98,335.236 654.98,334.324 L654.98,334.144 C654.98,333.232 654.452,332.728 653.564,332.728 C652.688,332.728 652.148,333.232 652.148,334.144 L652.148,334.324 C652.148,335.236 652.688,335.74 653.564,335.74 Z M660.836,340.144 C658.916,340.144 657.788,338.86 657.788,336.856 C657.788,334.456 659.384,332.572 660.788,331.624 L662.924,331.624 C660.956,333.04 659.804,334.168 659.432,335.872 L659.528,335.896 C659.84,335.248 660.368,334.66 661.424,334.66 C662.816,334.66 663.872,335.668 663.872,337.252 C663.872,338.944 662.684,340.144 660.836,340.144 Z M660.836,338.896 C661.712,338.896 662.252,338.392 662.252,337.48 L662.252,337.3 C662.252,336.388 661.712,335.884 660.836,335.884 C659.948,335.884 659.42,336.388 659.42,337.3 L659.42,337.48 C659.42,338.392 659.948,338.896 660.836,338.896 Z" id="96" fill="#3D3D3D"></path>
        </g>
    </g>
</svg>