<?xml version="1.0" encoding="UTF-8"?>
<svg width="181px" height="132px" viewBox="0 0 181 132" version="1.1" xmlns="http://www.w3.org/2000/svg" xmlns:xlink="http://www.w3.org/1999/xlink">
    <!-- Generator: Sketch 52.5 (67469) - http://www.bohemiancoding.com/sketch -->
    <title>Group 49</title>
    <desc>Created with Sketch.</desc>
    <defs>
        <rect id="path-1" x="0" y="0" width="179" height="130"></rect>
    </defs>
    <g id="Page-1" stroke="none" stroke-width="1" fill="none" fill-rule="evenodd">
        <g id="Layout_Overview" transform="translate(-404.000000, -5823.000000)">
            <g id="Grid_Alignment_Do" transform="translate(405.000000, 5762.000000)">
                <g id="Group-49" transform="translate(0.000000, 62.000000)">
                    <g id="Group-48">
                        <g id="Rectangle-17-Copy-387">
                            <use fill="#FFFFFF" fill-rule="evenodd" xlink:href="#path-1"></use>
                            <rect stroke="#97C1FF" stroke-width="1" x="-0.5" y="-0.5" width="180" height="131"></rect>
                            <rect stroke="#EDF4FF" stroke-width="10" stroke-linejoin="square" x="5" y="5" width="169" height="120"></rect>
                        </g>
                        <rect id="Rectangle-5" stroke="#DCDCDC" stroke-width="0.5" x="10.25" y="10.25" width="158.5" height="73.5"></rect>
                    </g>
                    <path d="M27.304,38 L24.84,38 L22.88,32.232 L14.984,32.232 L13.024,38 L10.644,38 L17.476,18.456 L20.472,18.456 L27.304,38 Z M22.292,30.16 L18.988,20.64 L18.848,20.64 L15.544,30.16 L22.292,30.16 Z M34.696,38 L32.708,38 C31.168,38 30.328,37.02 30.328,35.676 L30.328,17.28 L32.568,17.28 L32.568,36.04 L34.696,36.04 L34.696,38 Z M40.156,38 L36.292,23.552 L38.476,23.552 L40.016,29.796 L41.556,36.124 L41.612,36.124 L43.376,29.796 L45.196,23.552 L47.184,23.552 L49.06,29.796 L50.852,36.124 L50.908,36.124 L52.392,29.796 L53.96,23.552 L56.06,23.552 L52.224,38 L49.452,38 L47.436,31.056 L46.176,26.66 L46.12,26.66 L44.888,31.056 L42.872,38 L40.156,38 Z M70.816,38 L69.556,38 C67.904,38 67.232,36.992 67.064,35.648 L66.924,35.648 C66.308,37.412 64.768,38.336 62.752,38.336 C59.7,38.336 57.908,36.656 57.908,33.968 C57.908,31.252 59.868,29.74 64.068,29.74 L66.924,29.74 L66.924,28.312 C66.924,26.268 65.804,25.148 63.508,25.148 C61.772,25.148 60.624,25.988 59.84,27.304 L58.496,26.044 C59.28,24.504 61.016,23.216 63.62,23.216 C67.092,23.216 69.164,25.036 69.164,28.088 L69.164,36.04 L70.816,36.04 L70.816,38 Z M63.116,36.432 C65.328,36.432 66.924,35.284 66.924,33.8 L66.924,31.42 L63.956,31.42 C61.408,31.42 60.26,32.204 60.26,33.604 L60.26,34.192 C60.26,35.62 61.38,36.432 63.116,36.432 Z M79.272,33.38 L82.772,23.552 L84.984,23.552 L78.516,41.36 C77.872,43.096 77.284,43.6 75.156,43.6 L74.008,43.6 L74.008,41.64 L76.276,41.64 L77.368,38.56 L71.964,23.552 L74.204,23.552 L77.676,33.38 L78.348,35.732 L78.488,35.732 L79.272,33.38 Z M92.068,38.336 C89.408,38.336 87.644,37.216 86.356,35.508 L87.952,34.22 C89.072,35.62 90.416,36.432 92.236,36.432 C94.14,36.432 95.26,35.564 95.26,34.08 C95.26,32.96 94.644,32.092 92.74,31.812 L91.592,31.644 C88.932,31.252 86.944,30.16 86.944,27.472 C86.944,24.616 89.156,23.216 92.096,23.216 C94.42,23.216 95.96,24.084 97.136,25.54 L95.652,26.884 C95.008,25.988 93.776,25.12 91.928,25.12 C90.08,25.12 89.1,25.988 89.1,27.36 C89.1,28.76 90.08,29.32 91.872,29.6 L92.992,29.768 C96.184,30.244 97.416,31.644 97.416,33.828 C97.416,36.628 95.372,38.336 92.068,38.336 Z M108.756,38 L108.756,25.512 L106.404,25.512 L106.404,23.552 L108.756,23.552 L108.756,20.64 C108.756,18.652 109.792,17.28 111.92,17.28 L114.104,17.28 L114.104,19.24 L110.996,19.24 L110.996,23.552 L114.104,23.552 L114.104,25.512 L110.996,25.512 L110.996,38 L108.756,38 Z M121.412,38 L119.424,38 C117.884,38 117.044,37.02 117.044,35.676 L117.044,17.28 L119.284,17.28 L119.284,36.04 L121.412,36.04 L121.412,38 Z M133.564,38 L133.564,35.648 L133.452,35.648 C132.892,37.02 131.8,38.336 129.392,38.336 C126.424,38.336 124.52,36.32 124.52,32.82 L124.52,23.552 L126.76,23.552 L126.76,32.428 C126.76,35.004 127.908,36.32 130.064,36.32 C131.828,36.32 133.564,35.452 133.564,33.548 L133.564,23.552 L135.804,23.552 L135.804,38 L133.564,38 Z M144.904,38.336 C142.244,38.336 140.48,37.216 139.192,35.508 L140.788,34.22 C141.908,35.62 143.252,36.432 145.072,36.432 C146.976,36.432 148.096,35.564 148.096,34.08 C148.096,32.96 147.48,32.092 145.576,31.812 L144.428,31.644 C141.768,31.252 139.78,30.16 139.78,27.472 C139.78,24.616 141.992,23.216 144.932,23.216 C147.256,23.216 148.796,24.084 149.972,25.54 L148.488,26.884 C147.844,25.988 146.612,25.12 144.764,25.12 C142.916,25.12 141.936,25.988 141.936,27.36 C141.936,28.76 142.916,29.32 144.708,29.6 L145.828,29.768 C149.02,30.244 150.252,31.644 150.252,33.828 C150.252,36.628 148.208,38.336 144.904,38.336 Z M154.2,38 L154.2,17.28 L156.44,17.28 L156.44,25.904 L156.552,25.904 C157.252,24.28 158.484,23.216 160.64,23.216 C163.608,23.216 165.484,25.232 165.484,28.732 L165.484,38 L163.244,38 L163.244,29.124 C163.244,26.548 162.124,25.232 159.968,25.232 C158.176,25.232 156.44,26.128 156.44,27.976 L156.44,38 L154.2,38 Z M16.748,72 L14.76,72 C13.22,72 12.38,71.02 12.38,69.676 L12.38,51.28 L14.62,51.28 L14.62,70.04 L16.748,70.04 L16.748,72 Z M25.428,72.336 C21.508,72.336 18.932,69.368 18.932,64.776 C18.932,60.184 21.508,57.216 25.428,57.216 C29.292,57.216 31.672,60.184 31.672,64.272 L31.672,65.336 L21.284,65.336 L21.284,66.008 C21.284,68.5 22.88,70.376 25.568,70.376 C27.388,70.376 28.788,69.48 29.544,67.884 L31.14,69.032 C30.216,70.992 28.144,72.336 25.428,72.336 Z M25.428,59.092 C22.992,59.092 21.284,60.94 21.284,63.46 L21.284,63.656 L29.264,63.656 L29.264,63.348 C29.264,60.8 27.724,59.092 25.428,59.092 Z M36.152,72 L36.152,59.512 L33.8,59.512 L33.8,57.552 L36.152,57.552 L36.152,54.64 C36.152,52.652 37.188,51.28 39.316,51.28 L41.5,51.28 L41.5,53.24 L38.392,53.24 L38.392,57.552 L41.5,57.552 L41.5,59.512 L38.392,59.512 L38.392,72 L36.152,72 Z M50.432,72 L47.632,72 C46.092,72 45.252,71.02 45.252,69.62 L45.252,59.512 L42.872,59.512 L42.872,57.552 L44.216,57.552 C45.168,57.552 45.476,57.216 45.476,56.236 L45.476,53.548 L47.492,53.548 L47.492,57.552 L50.656,57.552 L50.656,59.512 L47.492,59.512 L47.492,70.04 L50.432,70.04 L50.432,72 Z M66.868,72 L64.068,72 C62.528,72 61.688,71.02 61.688,69.62 L61.688,59.512 L59.308,59.512 L59.308,57.552 L60.652,57.552 C61.604,57.552 61.912,57.216 61.912,56.236 L61.912,53.548 L63.928,53.548 L63.928,57.552 L67.092,57.552 L67.092,59.512 L63.928,59.512 L63.928,70.04 L66.868,70.04 L66.868,72 Z M76.108,67.38 L79.608,57.552 L81.82,57.552 L75.352,75.36 C74.708,77.096 74.12,77.6 71.992,77.6 L70.844,77.6 L70.844,75.64 L73.112,75.64 L74.204,72.56 L68.8,57.552 L71.04,57.552 L74.512,67.38 L75.184,69.732 L75.324,69.732 L76.108,67.38 Z M84.676,77.6 L84.676,57.552 L86.916,57.552 L86.916,59.904 L87.028,59.904 C87.784,58.084 89.268,57.216 91.256,57.216 C94.868,57.216 97.136,60.156 97.136,64.776 C97.136,69.396 94.868,72.336 91.256,72.336 C89.268,72.336 87.896,71.44 87.028,69.648 L86.916,69.648 L86.916,77.6 L84.676,77.6 Z M90.64,70.32 C93.16,70.32 94.728,68.584 94.728,66.008 L94.728,63.544 C94.728,60.968 93.16,59.232 90.64,59.232 C88.596,59.232 86.916,60.408 86.916,62.004 L86.916,67.38 C86.916,69.256 88.596,70.32 90.64,70.32 Z M106.348,72.336 C102.428,72.336 99.852,69.368 99.852,64.776 C99.852,60.184 102.428,57.216 106.348,57.216 C110.212,57.216 112.592,60.184 112.592,64.272 L112.592,65.336 L102.204,65.336 L102.204,66.008 C102.204,68.5 103.8,70.376 106.488,70.376 C108.308,70.376 109.708,69.48 110.464,67.884 L112.06,69.032 C111.136,70.992 109.064,72.336 106.348,72.336 Z M106.348,59.092 C103.912,59.092 102.204,60.94 102.204,63.46 L102.204,63.656 L110.184,63.656 L110.184,63.348 C110.184,60.8 108.644,59.092 106.348,59.092 Z" id="Always-flush-left-ty" fill="#3D3D3D"></path>
                </g>
            </g>
        </g>
    </g>
</svg>