<?xml version="1.0" encoding="UTF-8"?>
<svg width="181px" height="132px" viewBox="0 0 181 132" version="1.1" xmlns="http://www.w3.org/2000/svg" xmlns:xlink="http://www.w3.org/1999/xlink">
    <!-- Generator: Sketch 52.5 (67469) - http://www.bohemiancoding.com/sketch -->
    <title>Group 47</title>
    <desc>Created with Sketch.</desc>
    <defs>
        <rect id="path-1" x="0" y="0" width="179" height="130"></rect>
    </defs>
    <g id="Page-1" stroke="none" stroke-width="1" fill="none" fill-rule="evenodd">
        <g id="Layout_Overview" transform="translate(-900.000000, -5830.000000)">
            <g id="Grid_Alignment_Dont" transform="translate(672.000000, 5734.000000)">
                <g id="Group-47" transform="translate(229.000000, 97.000000)">
                    <g id="Group-9">
                        <g id="Rectangle-17-Copy-388">
                            <use fill="#FFFFFF" fill-rule="evenodd" xlink:href="#path-1"></use>
                            <rect stroke="#97C1FF" stroke-width="1" x="-0.5" y="-0.5" width="180" height="131"></rect>
                            <rect stroke="#EDF4FF" stroke-width="10" stroke-linejoin="square" x="5" y="5" width="169" height="120"></rect>
                        </g>
                        <rect id="Rectangle-5" stroke="#DCDCDC" stroke-width="0.5" x="0.25" y="0.25" width="158.5" height="73.5"></rect>
                    </g>
                    <path d="M17.66,28.72 L15.196,28.72 L13.236,22.952 L5.34,22.952 L3.38,28.72 L1,28.72 L7.832,9.176 L10.828,9.176 L17.66,28.72 Z M12.648,20.88 L9.344,11.36 L9.204,11.36 L5.9,20.88 L12.648,20.88 Z M25.052,28.72 L23.064,28.72 C21.524,28.72 20.684,27.74 20.684,26.396 L20.684,8 L22.924,8 L22.924,26.76 L25.052,26.76 L25.052,28.72 Z M30.512,28.72 L26.648,14.272 L28.832,14.272 L30.372,20.516 L31.912,26.844 L31.968,26.844 L33.732,20.516 L35.552,14.272 L37.54,14.272 L39.416,20.516 L41.208,26.844 L41.264,26.844 L42.748,20.516 L44.316,14.272 L46.416,14.272 L42.58,28.72 L39.808,28.72 L37.792,21.776 L36.532,17.38 L36.476,17.38 L35.244,21.776 L33.228,28.72 L30.512,28.72 Z M61.172,28.72 L59.912,28.72 C58.26,28.72 57.588,27.712 57.42,26.368 L57.28,26.368 C56.664,28.132 55.124,29.056 53.108,29.056 C50.056,29.056 48.264,27.376 48.264,24.688 C48.264,21.972 50.224,20.46 54.424,20.46 L57.28,20.46 L57.28,19.032 C57.28,16.988 56.16,15.868 53.864,15.868 C52.128,15.868 50.98,16.708 50.196,18.024 L48.852,16.764 C49.636,15.224 51.372,13.936 53.976,13.936 C57.448,13.936 59.52,15.756 59.52,18.808 L59.52,26.76 L61.172,26.76 L61.172,28.72 Z M53.472,27.152 C55.684,27.152 57.28,26.004 57.28,24.52 L57.28,22.14 L54.312,22.14 C51.764,22.14 50.616,22.924 50.616,24.324 L50.616,24.912 C50.616,26.34 51.736,27.152 53.472,27.152 Z M69.628,24.1 L73.128,14.272 L75.34,14.272 L68.872,32.08 C68.228,33.816 67.64,34.32 65.512,34.32 L64.364,34.32 L64.364,32.36 L66.632,32.36 L67.724,29.28 L62.32,14.272 L64.56,14.272 L68.032,24.1 L68.704,26.452 L68.844,26.452 L69.628,24.1 Z M82.424,29.056 C79.764,29.056 78,27.936 76.712,26.228 L78.308,24.94 C79.428,26.34 80.772,27.152 82.592,27.152 C84.496,27.152 85.616,26.284 85.616,24.8 C85.616,23.68 85,22.812 83.096,22.532 L81.948,22.364 C79.288,21.972 77.3,20.88 77.3,18.192 C77.3,15.336 79.512,13.936 82.452,13.936 C84.776,13.936 86.316,14.804 87.492,16.26 L86.008,17.604 C85.364,16.708 84.132,15.84 82.284,15.84 C80.436,15.84 79.456,16.708 79.456,18.08 C79.456,19.48 80.436,20.04 82.228,20.32 L83.348,20.488 C86.54,20.964 87.772,22.364 87.772,24.548 C87.772,27.348 85.728,29.056 82.424,29.056 Z M99.112,28.72 L99.112,16.232 L96.76,16.232 L96.76,14.272 L99.112,14.272 L99.112,11.36 C99.112,9.372 100.148,8 102.276,8 L104.46,8 L104.46,9.96 L101.352,9.96 L101.352,14.272 L104.46,14.272 L104.46,16.232 L101.352,16.232 L101.352,28.72 L99.112,28.72 Z M111.768,28.72 L109.78,28.72 C108.24,28.72 107.4,27.74 107.4,26.396 L107.4,8 L109.64,8 L109.64,26.76 L111.768,26.76 L111.768,28.72 Z M123.92,28.72 L123.92,26.368 L123.808,26.368 C123.248,27.74 122.156,29.056 119.748,29.056 C116.78,29.056 114.876,27.04 114.876,23.54 L114.876,14.272 L117.116,14.272 L117.116,23.148 C117.116,25.724 118.264,27.04 120.42,27.04 C122.184,27.04 123.92,26.172 123.92,24.268 L123.92,14.272 L126.16,14.272 L126.16,28.72 L123.92,28.72 Z M135.26,29.056 C132.6,29.056 130.836,27.936 129.548,26.228 L131.144,24.94 C132.264,26.34 133.608,27.152 135.428,27.152 C137.332,27.152 138.452,26.284 138.452,24.8 C138.452,23.68 137.836,22.812 135.932,22.532 L134.784,22.364 C132.124,21.972 130.136,20.88 130.136,18.192 C130.136,15.336 132.348,13.936 135.288,13.936 C137.612,13.936 139.152,14.804 140.328,16.26 L138.844,17.604 C138.2,16.708 136.968,15.84 135.12,15.84 C133.272,15.84 132.292,16.708 132.292,18.08 C132.292,19.48 133.272,20.04 135.064,20.32 L136.184,20.488 C139.376,20.964 140.608,22.364 140.608,24.548 C140.608,27.348 138.564,29.056 135.26,29.056 Z M144.556,28.72 L144.556,8 L146.796,8 L146.796,16.624 L146.908,16.624 C147.608,15 148.84,13.936 150.996,13.936 C153.964,13.936 155.84,15.952 155.84,19.452 L155.84,28.72 L153.6,28.72 L153.6,19.844 C153.6,17.268 152.48,15.952 150.324,15.952 C148.532,15.952 146.796,16.848 146.796,18.696 L146.796,28.72 L144.556,28.72 Z M7.104,62.72 L5.116,62.72 C3.576,62.72 2.736,61.74 2.736,60.396 L2.736,42 L4.976,42 L4.976,60.76 L7.104,60.76 L7.104,62.72 Z M15.784,63.056 C11.864,63.056 9.288,60.088 9.288,55.496 C9.288,50.904 11.864,47.936 15.784,47.936 C19.648,47.936 22.028,50.904 22.028,54.992 L22.028,56.056 L11.64,56.056 L11.64,56.728 C11.64,59.22 13.236,61.096 15.924,61.096 C17.744,61.096 19.144,60.2 19.9,58.604 L21.496,59.752 C20.572,61.712 18.5,63.056 15.784,63.056 Z M15.784,49.812 C13.348,49.812 11.64,51.66 11.64,54.18 L11.64,54.376 L19.62,54.376 L19.62,54.068 C19.62,51.52 18.08,49.812 15.784,49.812 Z M26.508,62.72 L26.508,50.232 L24.156,50.232 L24.156,48.272 L26.508,48.272 L26.508,45.36 C26.508,43.372 27.544,42 29.672,42 L31.856,42 L31.856,43.96 L28.748,43.96 L28.748,48.272 L31.856,48.272 L31.856,50.232 L28.748,50.232 L28.748,62.72 L26.508,62.72 Z M40.788,62.72 L37.988,62.72 C36.448,62.72 35.608,61.74 35.608,60.34 L35.608,50.232 L33.228,50.232 L33.228,48.272 L34.572,48.272 C35.524,48.272 35.832,47.936 35.832,46.956 L35.832,44.268 L37.848,44.268 L37.848,48.272 L41.012,48.272 L41.012,50.232 L37.848,50.232 L37.848,60.76 L40.788,60.76 L40.788,62.72 Z M57.224,62.72 L54.424,62.72 C52.884,62.72 52.044,61.74 52.044,60.34 L52.044,50.232 L49.664,50.232 L49.664,48.272 L51.008,48.272 C51.96,48.272 52.268,47.936 52.268,46.956 L52.268,44.268 L54.284,44.268 L54.284,48.272 L57.448,48.272 L57.448,50.232 L54.284,50.232 L54.284,60.76 L57.224,60.76 L57.224,62.72 Z M66.464,58.1 L69.964,48.272 L72.176,48.272 L65.708,66.08 C65.064,67.816 64.476,68.32 62.348,68.32 L61.2,68.32 L61.2,66.36 L63.468,66.36 L64.56,63.28 L59.156,48.272 L61.396,48.272 L64.868,58.1 L65.54,60.452 L65.68,60.452 L66.464,58.1 Z M75.032,68.32 L75.032,48.272 L77.272,48.272 L77.272,50.624 L77.384,50.624 C78.14,48.804 79.624,47.936 81.612,47.936 C85.224,47.936 87.492,50.876 87.492,55.496 C87.492,60.116 85.224,63.056 81.612,63.056 C79.624,63.056 78.252,62.16 77.384,60.368 L77.272,60.368 L77.272,68.32 L75.032,68.32 Z M80.996,61.04 C83.516,61.04 85.084,59.304 85.084,56.728 L85.084,54.264 C85.084,51.688 83.516,49.952 80.996,49.952 C78.952,49.952 77.272,51.128 77.272,52.724 L77.272,58.1 C77.272,59.976 78.952,61.04 80.996,61.04 Z M96.704,63.056 C92.784,63.056 90.208,60.088 90.208,55.496 C90.208,50.904 92.784,47.936 96.704,47.936 C100.568,47.936 102.948,50.904 102.948,54.992 L102.948,56.056 L92.56,56.056 L92.56,56.728 C92.56,59.22 94.156,61.096 96.844,61.096 C98.664,61.096 100.064,60.2 100.82,58.604 L102.416,59.752 C101.492,61.712 99.42,63.056 96.704,63.056 Z M96.704,49.812 C94.268,49.812 92.56,51.66 92.56,54.18 L92.56,54.376 L100.54,54.376 L100.54,54.068 C100.54,51.52 99,49.812 96.704,49.812 Z" id="Always-flush-left-ty" fill="#3D3D3D"></path>
                </g>
            </g>
        </g>
    </g>
</svg>