<svg xmlns="http://www.w3.org/2000/svg" width="928" height="522">
  <g fill="none" fill-rule="evenodd">
    <path fill="#FFF" d="M0 0h928v522H0z"/>
    <path fill="#FFF" d="M0 0h928v522H0z"/>
    <path fill="#FFCFE1" d="M865 84h10v365h-10zM54 84h10v365H54z" opacity=".6"/>
    <g stroke="#97C1FF" opacity=".6">
      <path d="M539.5 443.5h5v5h-5v-5zM534.5 443.5h5v5h-5v-5zM529.5 443.5h5v5h-5v-5zM524.5 443.5h5v5h-5v-5zM519.5 443.5h5v5h-5v-5zM514.5 443.5h5v5h-5v-5zM509.5 443.5h5v5h-5v-5zM504.5 443.5h5v5h-5v-5zM499.5 443.5h5v5h-5v-5zM494.5 443.5h5v5h-5v-5zM489.5 443.5h5v5h-5v-5zM484.5 443.5h5v5h-5v-5zM479.5 443.5h5v5h-5v-5zM474.5 443.5h5v5h-5v-5zM469.5 443.5h5v5h-5v-5zM464.5 443.5h5v5h-5v-5zM459.5 443.5h5v5h-5v-5zM454.5 443.5h5v5h-5v-5zM449.5 443.5h5v5h-5v-5zM444.5 443.5h5v5h-5v-5zM439.5 443.5h5v5h-5v-5zM434.5 443.5h5v5h-5v-5zM429.5 443.5h5v5h-5v-5zM424.5 443.5h5v5h-5v-5zM419.5 443.5h5v5h-5v-5zM414.5 443.5h5v5h-5v-5zM409.5 443.5h5v5h-5v-5zM404.5 443.5h5v5h-5v-5zM399.5 443.5h5v5h-5v-5zM394.5 443.5h5v5h-5v-5zM389.5 443.5h5v5h-5v-5zM384.5 443.5h5v5h-5v-5zM379.5 443.5h5v5h-5v-5zM374.5 443.5h5v5h-5v-5zM369.5 443.5h5v5h-5v-5zM364.5 443.5h5v5h-5v-5zM359.5 443.5h5v5h-5v-5zM354.5 443.5h5v5h-5v-5zM349.5 443.5h5v5h-5v-5zM344.5 443.5h5v5h-5v-5zM339.5 443.5h5v5h-5v-5zM334.5 443.5h5v5h-5v-5zM329.5 443.5h5v5h-5v-5zM324.5 443.5h5v5h-5v-5zM319.5 443.5h5v5h-5v-5zM314.5 443.5h5v5h-5v-5zM309.5 443.5h5v5h-5v-5zM304.5 443.5h5v5h-5v-5zM779.5 443.5h5v5h-5v-5zM774.5 443.5h5v5h-5v-5zM769.5 443.5h5v5h-5v-5zM764.5 443.5h5v5h-5v-5zM759.5 443.5h5v5h-5v-5zM754.5 443.5h5v5h-5v-5zM749.5 443.5h5v5h-5v-5zM744.5 443.5h5v5h-5v-5zM739.5 443.5h5v5h-5v-5zM734.5 443.5h5v5h-5v-5zM729.5 443.5h5v5h-5v-5zM724.5 443.5h5v5h-5v-5zM719.5 443.5h5v5h-5v-5zM714.5 443.5h5v5h-5v-5zM709.5 443.5h5v5h-5v-5zM704.5 443.5h5v5h-5v-5zM699.5 443.5h5v5h-5v-5zM694.5 443.5h5v5h-5v-5zM689.5 443.5h5v5h-5v-5zM684.5 443.5h5v5h-5v-5zM679.5 443.5h5v5h-5v-5zM674.5 443.5h5v5h-5v-5zM669.5 443.5h5v5h-5v-5zM664.5 443.5h5v5h-5v-5zM659.5 443.5h5v5h-5v-5zM654.5 443.5h5v5h-5v-5zM649.5 443.5h5v5h-5v-5zM644.5 443.5h5v5h-5v-5zM639.5 443.5h5v5h-5v-5zM634.5 443.5h5v5h-5v-5zM629.5 443.5h5v5h-5v-5zM624.5 443.5h5v5h-5v-5zM619.5 443.5h5v5h-5v-5zM614.5 443.5h5v5h-5v-5zM609.5 443.5h5v5h-5v-5zM604.5 443.5h5v5h-5v-5zM599.5 443.5h5v5h-5v-5zM594.5 443.5h5v5h-5v-5zM589.5 443.5h5v5h-5v-5zM584.5 443.5h5v5h-5v-5zM579.5 443.5h5v5h-5v-5zM574.5 443.5h5v5h-5v-5zM569.5 443.5h5v5h-5v-5zM564.5 443.5h5v5h-5v-5zM559.5 443.5h5v5h-5v-5zM554.5 443.5h5v5h-5v-5zM549.5 443.5h5v5h-5v-5zM544.5 443.5h5v5h-5v-5zM299.5 443.5h5v5h-5v-5zM829.5 443.5h5v5h-5v-5zM824.5 443.5h5v5h-5v-5zM819.5 443.5h5v5h-5v-5zM814.5 443.5h5v5h-5v-5zM809.5 443.5h5v5h-5v-5zM804.5 443.5h5v5h-5v-5zM799.5 443.5h5v5h-5v-5zM794.5 443.5h5v5h-5v-5zM789.5 443.5h5v5h-5v-5zM784.5 443.5h5v5h-5v-5z"/>
      <path d="M539.5 443.5h5v5h-5v-5zM849.5 443.5h5v5h-5v-5zM844.5 443.5h5v5h-5v-5zM839.5 443.5h5v5h-5v-5zM834.5 443.5h5v5h-5v-5zM859.5 443.5h5v5h-5v-5zM854.5 443.5h5v5h-5v-5zM294.5 443.5h5v5h-5v-5zM289.5 443.5h5v5h-5v-5zM284.5 443.5h5v5h-5v-5zM279.5 443.5h5v5h-5v-5zM274.5 443.5h5v5h-5v-5zM269.5 443.5h5v5h-5v-5zM264.5 443.5h5v5h-5v-5zM259.5 443.5h5v5h-5v-5zM254.5 443.5h5v5h-5v-5zM249.5 443.5h5v5h-5v-5zM244.5 443.5h5v5h-5v-5zM239.5 443.5h5v5h-5v-5zM234.5 443.5h5v5h-5v-5zM229.5 443.5h5v5h-5v-5zM224.5 443.5h5v5h-5v-5zM219.5 443.5h5v5h-5v-5zM214.5 443.5h5v5h-5v-5zM209.5 443.5h5v5h-5v-5zM204.5 443.5h5v5h-5v-5zM199.5 443.5h5v5h-5v-5zM194.5 443.5h5v5h-5v-5zM189.5 443.5h5v5h-5v-5zM184.5 443.5h5v5h-5v-5zM179.5 443.5h5v5h-5v-5zM174.5 443.5h5v5h-5v-5zM169.5 443.5h5v5h-5v-5zM164.5 443.5h5v5h-5v-5zM159.5 443.5h5v5h-5v-5zM154.5 443.5h5v5h-5v-5zM149.5 443.5h5v5h-5v-5zM144.5 443.5h5v5h-5v-5zM139.5 443.5h5v5h-5v-5zM134.5 443.5h5v5h-5v-5zM129.5 443.5h5v5h-5v-5zM124.5 443.5h5v5h-5v-5zM119.5 443.5h5v5h-5v-5zM114.5 443.5h5v5h-5v-5zM109.5 443.5h5v5h-5v-5zM104.5 443.5h5v5h-5v-5zM99.5 443.5h5v5h-5v-5zM94.5 443.5h5v5h-5v-5zM89.5 443.5h5v5h-5v-5zM84.5 443.5h5v5h-5v-5zM79.5 443.5h5v5h-5v-5zM74.5 443.5h5v5h-5v-5zM69.5 443.5h5v5h-5v-5zM64.5 443.5h5v5h-5v-5z"/>
      <g>
        <path d="M539.5 438.5h5v5h-5v-5zM534.5 438.5h5v5h-5v-5zM529.5 438.5h5v5h-5v-5zM524.5 438.5h5v5h-5v-5zM519.5 438.5h5v5h-5v-5zM514.5 438.5h5v5h-5v-5zM509.5 438.5h5v5h-5v-5zM504.5 438.5h5v5h-5v-5zM499.5 438.5h5v5h-5v-5zM494.5 438.5h5v5h-5v-5zM489.5 438.5h5v5h-5v-5zM484.5 438.5h5v5h-5v-5zM479.5 438.5h5v5h-5v-5zM474.5 438.5h5v5h-5v-5zM469.5 438.5h5v5h-5v-5zM464.5 438.5h5v5h-5v-5zM459.5 438.5h5v5h-5v-5zM454.5 438.5h5v5h-5v-5zM449.5 438.5h5v5h-5v-5zM444.5 438.5h5v5h-5v-5zM439.5 438.5h5v5h-5v-5zM434.5 438.5h5v5h-5v-5zM429.5 438.5h5v5h-5v-5zM424.5 438.5h5v5h-5v-5zM419.5 438.5h5v5h-5v-5zM414.5 438.5h5v5h-5v-5zM409.5 438.5h5v5h-5v-5zM404.5 438.5h5v5h-5v-5zM399.5 438.5h5v5h-5v-5zM394.5 438.5h5v5h-5v-5zM389.5 438.5h5v5h-5v-5zM384.5 438.5h5v5h-5v-5zM379.5 438.5h5v5h-5v-5zM374.5 438.5h5v5h-5v-5zM369.5 438.5h5v5h-5v-5zM364.5 438.5h5v5h-5v-5zM359.5 438.5h5v5h-5v-5zM354.5 438.5h5v5h-5v-5zM349.5 438.5h5v5h-5v-5zM344.5 438.5h5v5h-5v-5zM339.5 438.5h5v5h-5v-5zM334.5 438.5h5v5h-5v-5zM329.5 438.5h5v5h-5v-5zM324.5 438.5h5v5h-5v-5zM319.5 438.5h5v5h-5v-5zM314.5 438.5h5v5h-5v-5zM309.5 438.5h5v5h-5v-5zM304.5 438.5h5v5h-5v-5zM779.5 438.5h5v5h-5v-5zM774.5 438.5h5v5h-5v-5zM769.5 438.5h5v5h-5v-5zM764.5 438.5h5v5h-5v-5zM759.5 438.5h5v5h-5v-5zM754.5 438.5h5v5h-5v-5zM749.5 438.5h5v5h-5v-5zM744.5 438.5h5v5h-5v-5zM739.5 438.5h5v5h-5v-5zM734.5 438.5h5v5h-5v-5zM729.5 438.5h5v5h-5v-5zM724.5 438.5h5v5h-5v-5zM719.5 438.5h5v5h-5v-5zM714.5 438.5h5v5h-5v-5zM709.5 438.5h5v5h-5v-5zM704.5 438.5h5v5h-5v-5zM699.5 438.5h5v5h-5v-5zM694.5 438.5h5v5h-5v-5zM689.5 438.5h5v5h-5v-5zM684.5 438.5h5v5h-5v-5zM679.5 438.5h5v5h-5v-5zM674.5 438.5h5v5h-5v-5zM669.5 438.5h5v5h-5v-5zM664.5 438.5h5v5h-5v-5zM659.5 438.5h5v5h-5v-5zM654.5 438.5h5v5h-5v-5zM649.5 438.5h5v5h-5v-5zM644.5 438.5h5v5h-5v-5zM639.5 438.5h5v5h-5v-5zM634.5 438.5h5v5h-5v-5zM629.5 438.5h5v5h-5v-5zM624.5 438.5h5v5h-5v-5zM619.5 438.5h5v5h-5v-5zM614.5 438.5h5v5h-5v-5zM609.5 438.5h5v5h-5v-5zM604.5 438.5h5v5h-5v-5zM599.5 438.5h5v5h-5v-5zM594.5 438.5h5v5h-5v-5zM589.5 438.5h5v5h-5v-5zM584.5 438.5h5v5h-5v-5zM579.5 438.5h5v5h-5v-5zM574.5 438.5h5v5h-5v-5zM569.5 438.5h5v5h-5v-5zM564.5 438.5h5v5h-5v-5zM559.5 438.5h5v5h-5v-5zM554.5 438.5h5v5h-5v-5zM549.5 438.5h5v5h-5v-5zM544.5 438.5h5v5h-5v-5zM299.5 438.5h5v5h-5v-5zM829.5 438.5h5v5h-5v-5zM824.5 438.5h5v5h-5v-5zM819.5 438.5h5v5h-5v-5zM814.5 438.5h5v5h-5v-5zM809.5 438.5h5v5h-5v-5zM804.5 438.5h5v5h-5v-5zM799.5 438.5h5v5h-5v-5zM794.5 438.5h5v5h-5v-5zM789.5 438.5h5v5h-5v-5zM784.5 438.5h5v5h-5v-5z"/>
        <path d="M539.5 438.5h5v5h-5v-5zM849.5 438.5h5v5h-5v-5zM844.5 438.5h5v5h-5v-5zM839.5 438.5h5v5h-5v-5zM834.5 438.5h5v5h-5v-5zM859.5 438.5h5v5h-5v-5zM854.5 438.5h5v5h-5v-5zM294.5 438.5h5v5h-5v-5zM289.5 438.5h5v5h-5v-5zM284.5 438.5h5v5h-5v-5zM279.5 438.5h5v5h-5v-5zM274.5 438.5h5v5h-5v-5zM269.5 438.5h5v5h-5v-5zM264.5 438.5h5v5h-5v-5zM259.5 438.5h5v5h-5v-5zM254.5 438.5h5v5h-5v-5zM249.5 438.5h5v5h-5v-5zM244.5 438.5h5v5h-5v-5zM239.5 438.5h5v5h-5v-5zM234.5 438.5h5v5h-5v-5zM229.5 438.5h5v5h-5v-5zM224.5 438.5h5v5h-5v-5zM219.5 438.5h5v5h-5v-5zM214.5 438.5h5v5h-5v-5zM209.5 438.5h5v5h-5v-5zM204.5 438.5h5v5h-5v-5zM199.5 438.5h5v5h-5v-5zM194.5 438.5h5v5h-5v-5zM189.5 438.5h5v5h-5v-5zM184.5 438.5h5v5h-5v-5zM179.5 438.5h5v5h-5v-5zM174.5 438.5h5v5h-5v-5zM169.5 438.5h5v5h-5v-5zM164.5 438.5h5v5h-5v-5zM159.5 438.5h5v5h-5v-5zM154.5 438.5h5v5h-5v-5zM149.5 438.5h5v5h-5v-5zM144.5 438.5h5v5h-5v-5zM139.5 438.5h5v5h-5v-5zM134.5 438.5h5v5h-5v-5zM129.5 438.5h5v5h-5v-5zM124.5 438.5h5v5h-5v-5zM119.5 438.5h5v5h-5v-5zM114.5 438.5h5v5h-5v-5zM109.5 438.5h5v5h-5v-5zM104.5 438.5h5v5h-5v-5zM99.5 438.5h5v5h-5v-5zM94.5 438.5h5v5h-5v-5zM89.5 438.5h5v5h-5v-5zM84.5 438.5h5v5h-5v-5zM79.5 438.5h5v5h-5v-5zM74.5 438.5h5v5h-5v-5zM69.5 438.5h5v5h-5v-5zM64.5 438.5h5v5h-5v-5z"/>
      </g>
      <g>
        <path d="M539.5 433.5h5v5h-5v-5zM534.5 433.5h5v5h-5v-5zM529.5 433.5h5v5h-5v-5zM524.5 433.5h5v5h-5v-5zM519.5 433.5h5v5h-5v-5zM514.5 433.5h5v5h-5v-5zM509.5 433.5h5v5h-5v-5zM504.5 433.5h5v5h-5v-5zM499.5 433.5h5v5h-5v-5zM494.5 433.5h5v5h-5v-5zM489.5 433.5h5v5h-5v-5zM484.5 433.5h5v5h-5v-5zM479.5 433.5h5v5h-5v-5zM474.5 433.5h5v5h-5v-5zM469.5 433.5h5v5h-5v-5zM464.5 433.5h5v5h-5v-5zM459.5 433.5h5v5h-5v-5zM454.5 433.5h5v5h-5v-5zM449.5 433.5h5v5h-5v-5zM444.5 433.5h5v5h-5v-5zM439.5 433.5h5v5h-5v-5zM434.5 433.5h5v5h-5v-5zM429.5 433.5h5v5h-5v-5zM424.5 433.5h5v5h-5v-5zM419.5 433.5h5v5h-5v-5zM414.5 433.5h5v5h-5v-5zM409.5 433.5h5v5h-5v-5zM404.5 433.5h5v5h-5v-5zM399.5 433.5h5v5h-5v-5zM394.5 433.5h5v5h-5v-5zM389.5 433.5h5v5h-5v-5zM384.5 433.5h5v5h-5v-5zM379.5 433.5h5v5h-5v-5zM374.5 433.5h5v5h-5v-5zM369.5 433.5h5v5h-5v-5zM364.5 433.5h5v5h-5v-5zM359.5 433.5h5v5h-5v-5zM354.5 433.5h5v5h-5v-5zM349.5 433.5h5v5h-5v-5zM344.5 433.5h5v5h-5v-5zM339.5 433.5h5v5h-5v-5zM334.5 433.5h5v5h-5v-5zM329.5 433.5h5v5h-5v-5zM324.5 433.5h5v5h-5v-5zM319.5 433.5h5v5h-5v-5zM314.5 433.5h5v5h-5v-5zM309.5 433.5h5v5h-5v-5zM304.5 433.5h5v5h-5v-5zM779.5 433.5h5v5h-5v-5zM774.5 433.5h5v5h-5v-5zM769.5 433.5h5v5h-5v-5zM764.5 433.5h5v5h-5v-5zM759.5 433.5h5v5h-5v-5zM754.5 433.5h5v5h-5v-5zM749.5 433.5h5v5h-5v-5zM744.5 433.5h5v5h-5v-5zM739.5 433.5h5v5h-5v-5zM734.5 433.5h5v5h-5v-5zM729.5 433.5h5v5h-5v-5zM724.5 433.5h5v5h-5v-5zM719.5 433.5h5v5h-5v-5zM714.5 433.5h5v5h-5v-5zM709.5 433.5h5v5h-5v-5zM704.5 433.5h5v5h-5v-5zM699.5 433.5h5v5h-5v-5zM694.5 433.5h5v5h-5v-5zM689.5 433.5h5v5h-5v-5zM684.5 433.5h5v5h-5v-5zM679.5 433.5h5v5h-5v-5zM674.5 433.5h5v5h-5v-5zM669.5 433.5h5v5h-5v-5zM664.5 433.5h5v5h-5v-5zM659.5 433.5h5v5h-5v-5zM654.5 433.5h5v5h-5v-5zM649.5 433.5h5v5h-5v-5zM644.5 433.5h5v5h-5v-5zM639.5 433.5h5v5h-5v-5zM634.5 433.5h5v5h-5v-5zM629.5 433.5h5v5h-5v-5zM624.5 433.5h5v5h-5v-5zM619.5 433.5h5v5h-5v-5zM614.5 433.5h5v5h-5v-5zM609.5 433.5h5v5h-5v-5zM604.5 433.5h5v5h-5v-5zM599.5 433.5h5v5h-5v-5zM594.5 433.5h5v5h-5v-5zM589.5 433.5h5v5h-5v-5zM584.5 433.5h5v5h-5v-5zM579.5 433.5h5v5h-5v-5zM574.5 433.5h5v5h-5v-5zM569.5 433.5h5v5h-5v-5zM564.5 433.5h5v5h-5v-5zM559.5 433.5h5v5h-5v-5zM554.5 433.5h5v5h-5v-5zM549.5 433.5h5v5h-5v-5zM544.5 433.5h5v5h-5v-5zM299.5 433.5h5v5h-5v-5zM829.5 433.5h5v5h-5v-5zM824.5 433.5h5v5h-5v-5zM819.5 433.5h5v5h-5v-5zM814.5 433.5h5v5h-5v-5zM809.5 433.5h5v5h-5v-5zM804.5 433.5h5v5h-5v-5zM799.5 433.5h5v5h-5v-5zM794.5 433.5h5v5h-5v-5zM789.5 433.5h5v5h-5v-5zM784.5 433.5h5v5h-5v-5z"/>
        <path d="M539.5 433.5h5v5h-5v-5zM849.5 433.5h5v5h-5v-5zM844.5 433.5h5v5h-5v-5zM839.5 433.5h5v5h-5v-5zM834.5 433.5h5v5h-5v-5zM859.5 433.5h5v5h-5v-5zM854.5 433.5h5v5h-5v-5zM294.5 433.5h5v5h-5v-5zM289.5 433.5h5v5h-5v-5zM284.5 433.5h5v5h-5v-5zM279.5 433.5h5v5h-5v-5zM274.5 433.5h5v5h-5v-5zM269.5 433.5h5v5h-5v-5zM264.5 433.5h5v5h-5v-5zM259.5 433.5h5v5h-5v-5zM254.5 433.5h5v5h-5v-5zM249.5 433.5h5v5h-5v-5zM244.5 433.5h5v5h-5v-5zM239.5 433.5h5v5h-5v-5zM234.5 433.5h5v5h-5v-5zM229.5 433.5h5v5h-5v-5zM224.5 433.5h5v5h-5v-5zM219.5 433.5h5v5h-5v-5zM214.5 433.5h5v5h-5v-5zM209.5 433.5h5v5h-5v-5zM204.5 433.5h5v5h-5v-5zM199.5 433.5h5v5h-5v-5zM194.5 433.5h5v5h-5v-5zM189.5 433.5h5v5h-5v-5zM184.5 433.5h5v5h-5v-5zM179.5 433.5h5v5h-5v-5zM174.5 433.5h5v5h-5v-5zM169.5 433.5h5v5h-5v-5zM164.5 433.5h5v5h-5v-5zM159.5 433.5h5v5h-5v-5zM154.5 433.5h5v5h-5v-5zM149.5 433.5h5v5h-5v-5zM144.5 433.5h5v5h-5v-5zM139.5 433.5h5v5h-5v-5zM134.5 433.5h5v5h-5v-5zM129.5 433.5h5v5h-5v-5zM124.5 433.5h5v5h-5v-5zM119.5 433.5h5v5h-5v-5zM114.5 433.5h5v5h-5v-5zM109.5 433.5h5v5h-5v-5zM104.5 433.5h5v5h-5v-5zM99.5 433.5h5v5h-5v-5zM94.5 433.5h5v5h-5v-5zM89.5 433.5h5v5h-5v-5zM84.5 433.5h5v5h-5v-5zM79.5 433.5h5v5h-5v-5zM74.5 433.5h5v5h-5v-5zM69.5 433.5h5v5h-5v-5zM64.5 433.5h5v5h-5v-5z"/>
      </g>
      <g>
        <path d="M539.5 428.5h5v5h-5v-5zM534.5 428.5h5v5h-5v-5zM529.5 428.5h5v5h-5v-5zM524.5 428.5h5v5h-5v-5zM519.5 428.5h5v5h-5v-5zM514.5 428.5h5v5h-5v-5zM509.5 428.5h5v5h-5v-5zM504.5 428.5h5v5h-5v-5zM499.5 428.5h5v5h-5v-5zM494.5 428.5h5v5h-5v-5zM489.5 428.5h5v5h-5v-5zM484.5 428.5h5v5h-5v-5zM479.5 428.5h5v5h-5v-5zM474.5 428.5h5v5h-5v-5zM469.5 428.5h5v5h-5v-5zM464.5 428.5h5v5h-5v-5zM459.5 428.5h5v5h-5v-5zM454.5 428.5h5v5h-5v-5zM449.5 428.5h5v5h-5v-5zM444.5 428.5h5v5h-5v-5zM439.5 428.5h5v5h-5v-5zM434.5 428.5h5v5h-5v-5zM429.5 428.5h5v5h-5v-5zM424.5 428.5h5v5h-5v-5zM419.5 428.5h5v5h-5v-5zM414.5 428.5h5v5h-5v-5zM409.5 428.5h5v5h-5v-5zM404.5 428.5h5v5h-5v-5zM399.5 428.5h5v5h-5v-5zM394.5 428.5h5v5h-5v-5zM389.5 428.5h5v5h-5v-5zM384.5 428.5h5v5h-5v-5zM379.5 428.5h5v5h-5v-5zM374.5 428.5h5v5h-5v-5zM369.5 428.5h5v5h-5v-5zM364.5 428.5h5v5h-5v-5zM359.5 428.5h5v5h-5v-5zM354.5 428.5h5v5h-5v-5zM349.5 428.5h5v5h-5v-5zM344.5 428.5h5v5h-5v-5zM339.5 428.5h5v5h-5v-5zM334.5 428.5h5v5h-5v-5zM329.5 428.5h5v5h-5v-5zM324.5 428.5h5v5h-5v-5zM319.5 428.5h5v5h-5v-5zM314.5 428.5h5v5h-5v-5zM309.5 428.5h5v5h-5v-5zM304.5 428.5h5v5h-5v-5zM779.5 428.5h5v5h-5v-5zM774.5 428.5h5v5h-5v-5zM769.5 428.5h5v5h-5v-5zM764.5 428.5h5v5h-5v-5zM759.5 428.5h5v5h-5v-5zM754.5 428.5h5v5h-5v-5zM749.5 428.5h5v5h-5v-5zM744.5 428.5h5v5h-5v-5zM739.5 428.5h5v5h-5v-5zM734.5 428.5h5v5h-5v-5zM729.5 428.5h5v5h-5v-5zM724.5 428.5h5v5h-5v-5zM719.5 428.5h5v5h-5v-5zM714.5 428.5h5v5h-5v-5zM709.5 428.5h5v5h-5v-5zM704.5 428.5h5v5h-5v-5zM699.5 428.5h5v5h-5v-5zM694.5 428.5h5v5h-5v-5zM689.5 428.5h5v5h-5v-5zM684.5 428.5h5v5h-5v-5zM679.5 428.5h5v5h-5v-5zM674.5 428.5h5v5h-5v-5zM669.5 428.5h5v5h-5v-5zM664.5 428.5h5v5h-5v-5zM659.5 428.5h5v5h-5v-5zM654.5 428.5h5v5h-5v-5zM649.5 428.5h5v5h-5v-5zM644.5 428.5h5v5h-5v-5zM639.5 428.5h5v5h-5v-5zM634.5 428.5h5v5h-5v-5zM629.5 428.5h5v5h-5v-5zM624.5 428.5h5v5h-5v-5zM619.5 428.5h5v5h-5v-5zM614.5 428.5h5v5h-5v-5zM609.5 428.5h5v5h-5v-5zM604.5 428.5h5v5h-5v-5zM599.5 428.5h5v5h-5v-5zM594.5 428.5h5v5h-5v-5zM589.5 428.5h5v5h-5v-5zM584.5 428.5h5v5h-5v-5zM579.5 428.5h5v5h-5v-5zM574.5 428.5h5v5h-5v-5zM569.5 428.5h5v5h-5v-5zM564.5 428.5h5v5h-5v-5zM559.5 428.5h5v5h-5v-5zM554.5 428.5h5v5h-5v-5zM549.5 428.5h5v5h-5v-5zM544.5 428.5h5v5h-5v-5zM299.5 428.5h5v5h-5v-5zM829.5 428.5h5v5h-5v-5zM824.5 428.5h5v5h-5v-5zM819.5 428.5h5v5h-5v-5zM814.5 428.5h5v5h-5v-5zM809.5 428.5h5v5h-5v-5zM804.5 428.5h5v5h-5v-5zM799.5 428.5h5v5h-5v-5zM794.5 428.5h5v5h-5v-5zM789.5 428.5h5v5h-5v-5zM784.5 428.5h5v5h-5v-5z"/>
        <path d="M539.5 428.5h5v5h-5v-5zM849.5 428.5h5v5h-5v-5zM844.5 428.5h5v5h-5v-5zM839.5 428.5h5v5h-5v-5zM834.5 428.5h5v5h-5v-5zM859.5 428.5h5v5h-5v-5zM854.5 428.5h5v5h-5v-5zM294.5 428.5h5v5h-5v-5zM289.5 428.5h5v5h-5v-5zM284.5 428.5h5v5h-5v-5zM279.5 428.5h5v5h-5v-5zM274.5 428.5h5v5h-5v-5zM269.5 428.5h5v5h-5v-5zM264.5 428.5h5v5h-5v-5zM259.5 428.5h5v5h-5v-5zM254.5 428.5h5v5h-5v-5zM249.5 428.5h5v5h-5v-5zM244.5 428.5h5v5h-5v-5zM239.5 428.5h5v5h-5v-5zM234.5 428.5h5v5h-5v-5zM229.5 428.5h5v5h-5v-5zM224.5 428.5h5v5h-5v-5zM219.5 428.5h5v5h-5v-5zM214.5 428.5h5v5h-5v-5zM209.5 428.5h5v5h-5v-5zM204.5 428.5h5v5h-5v-5zM199.5 428.5h5v5h-5v-5zM194.5 428.5h5v5h-5v-5zM189.5 428.5h5v5h-5v-5zM184.5 428.5h5v5h-5v-5zM179.5 428.5h5v5h-5v-5zM174.5 428.5h5v5h-5v-5zM169.5 428.5h5v5h-5v-5zM164.5 428.5h5v5h-5v-5zM159.5 428.5h5v5h-5v-5zM154.5 428.5h5v5h-5v-5zM149.5 428.5h5v5h-5v-5zM144.5 428.5h5v5h-5v-5zM139.5 428.5h5v5h-5v-5zM134.5 428.5h5v5h-5v-5zM129.5 428.5h5v5h-5v-5zM124.5 428.5h5v5h-5v-5zM119.5 428.5h5v5h-5v-5zM114.5 428.5h5v5h-5v-5zM109.5 428.5h5v5h-5v-5zM104.5 428.5h5v5h-5v-5zM99.5 428.5h5v5h-5v-5zM94.5 428.5h5v5h-5v-5zM89.5 428.5h5v5h-5v-5zM84.5 428.5h5v5h-5v-5zM79.5 428.5h5v5h-5v-5zM74.5 428.5h5v5h-5v-5zM69.5 428.5h5v5h-5v-5zM64.5 428.5h5v5h-5v-5z"/>
      </g>
      <g>
        <path d="M539.5 423.5h5v5h-5v-5zM534.5 423.5h5v5h-5v-5zM529.5 423.5h5v5h-5v-5zM524.5 423.5h5v5h-5v-5zM519.5 423.5h5v5h-5v-5zM514.5 423.5h5v5h-5v-5zM509.5 423.5h5v5h-5v-5zM504.5 423.5h5v5h-5v-5zM499.5 423.5h5v5h-5v-5zM494.5 423.5h5v5h-5v-5zM489.5 423.5h5v5h-5v-5zM484.5 423.5h5v5h-5v-5zM479.5 423.5h5v5h-5v-5zM474.5 423.5h5v5h-5v-5zM469.5 423.5h5v5h-5v-5zM464.5 423.5h5v5h-5v-5zM459.5 423.5h5v5h-5v-5zM454.5 423.5h5v5h-5v-5zM449.5 423.5h5v5h-5v-5zM444.5 423.5h5v5h-5v-5zM439.5 423.5h5v5h-5v-5zM434.5 423.5h5v5h-5v-5zM429.5 423.5h5v5h-5v-5zM424.5 423.5h5v5h-5v-5zM419.5 423.5h5v5h-5v-5zM414.5 423.5h5v5h-5v-5zM409.5 423.5h5v5h-5v-5zM404.5 423.5h5v5h-5v-5zM399.5 423.5h5v5h-5v-5zM394.5 423.5h5v5h-5v-5zM389.5 423.5h5v5h-5v-5zM384.5 423.5h5v5h-5v-5zM379.5 423.5h5v5h-5v-5zM374.5 423.5h5v5h-5v-5zM369.5 423.5h5v5h-5v-5zM364.5 423.5h5v5h-5v-5zM359.5 423.5h5v5h-5v-5zM354.5 423.5h5v5h-5v-5zM349.5 423.5h5v5h-5v-5zM344.5 423.5h5v5h-5v-5zM339.5 423.5h5v5h-5v-5zM334.5 423.5h5v5h-5v-5zM329.5 423.5h5v5h-5v-5zM324.5 423.5h5v5h-5v-5zM319.5 423.5h5v5h-5v-5zM314.5 423.5h5v5h-5v-5zM309.5 423.5h5v5h-5v-5zM304.5 423.5h5v5h-5v-5zM779.5 423.5h5v5h-5v-5zM774.5 423.5h5v5h-5v-5zM769.5 423.5h5v5h-5v-5zM764.5 423.5h5v5h-5v-5zM759.5 423.5h5v5h-5v-5zM754.5 423.5h5v5h-5v-5zM749.5 423.5h5v5h-5v-5zM744.5 423.5h5v5h-5v-5zM739.5 423.5h5v5h-5v-5zM734.5 423.5h5v5h-5v-5zM729.5 423.5h5v5h-5v-5zM724.5 423.5h5v5h-5v-5zM719.5 423.5h5v5h-5v-5zM714.5 423.5h5v5h-5v-5zM709.5 423.5h5v5h-5v-5zM704.5 423.5h5v5h-5v-5zM699.5 423.5h5v5h-5v-5zM694.5 423.5h5v5h-5v-5zM689.5 423.5h5v5h-5v-5zM684.5 423.5h5v5h-5v-5zM679.5 423.5h5v5h-5v-5zM674.5 423.5h5v5h-5v-5zM669.5 423.5h5v5h-5v-5zM664.5 423.5h5v5h-5v-5zM659.5 423.5h5v5h-5v-5zM654.5 423.5h5v5h-5v-5zM649.5 423.5h5v5h-5v-5zM644.5 423.5h5v5h-5v-5zM639.5 423.5h5v5h-5v-5zM634.5 423.5h5v5h-5v-5zM629.5 423.5h5v5h-5v-5zM624.5 423.5h5v5h-5v-5zM619.5 423.5h5v5h-5v-5zM614.5 423.5h5v5h-5v-5zM609.5 423.5h5v5h-5v-5zM604.5 423.5h5v5h-5v-5zM599.5 423.5h5v5h-5v-5zM594.5 423.5h5v5h-5v-5zM589.5 423.5h5v5h-5v-5zM584.5 423.5h5v5h-5v-5zM579.5 423.5h5v5h-5v-5zM574.5 423.5h5v5h-5v-5zM569.5 423.5h5v5h-5v-5zM564.5 423.5h5v5h-5v-5zM559.5 423.5h5v5h-5v-5zM554.5 423.5h5v5h-5v-5zM549.5 423.5h5v5h-5v-5zM544.5 423.5h5v5h-5v-5zM299.5 423.5h5v5h-5v-5zM829.5 423.5h5v5h-5v-5zM824.5 423.5h5v5h-5v-5zM819.5 423.5h5v5h-5v-5zM814.5 423.5h5v5h-5v-5zM809.5 423.5h5v5h-5v-5zM804.5 423.5h5v5h-5v-5zM799.5 423.5h5v5h-5v-5zM794.5 423.5h5v5h-5v-5zM789.5 423.5h5v5h-5v-5zM784.5 423.5h5v5h-5v-5z"/>
        <path d="M539.5 423.5h5v5h-5v-5zM849.5 423.5h5v5h-5v-5zM844.5 423.5h5v5h-5v-5zM839.5 423.5h5v5h-5v-5zM834.5 423.5h5v5h-5v-5zM859.5 423.5h5v5h-5v-5zM854.5 423.5h5v5h-5v-5zM294.5 423.5h5v5h-5v-5zM289.5 423.5h5v5h-5v-5zM284.5 423.5h5v5h-5v-5zM279.5 423.5h5v5h-5v-5zM274.5 423.5h5v5h-5v-5zM269.5 423.5h5v5h-5v-5zM264.5 423.5h5v5h-5v-5zM259.5 423.5h5v5h-5v-5zM254.5 423.5h5v5h-5v-5zM249.5 423.5h5v5h-5v-5zM244.5 423.5h5v5h-5v-5zM239.5 423.5h5v5h-5v-5zM234.5 423.5h5v5h-5v-5zM229.5 423.5h5v5h-5v-5zM224.5 423.5h5v5h-5v-5zM219.5 423.5h5v5h-5v-5zM214.5 423.5h5v5h-5v-5zM209.5 423.5h5v5h-5v-5zM204.5 423.5h5v5h-5v-5zM199.5 423.5h5v5h-5v-5zM194.5 423.5h5v5h-5v-5zM189.5 423.5h5v5h-5v-5zM184.5 423.5h5v5h-5v-5zM179.5 423.5h5v5h-5v-5zM174.5 423.5h5v5h-5v-5zM169.5 423.5h5v5h-5v-5zM164.5 423.5h5v5h-5v-5zM159.5 423.5h5v5h-5v-5zM154.5 423.5h5v5h-5v-5zM149.5 423.5h5v5h-5v-5zM144.5 423.5h5v5h-5v-5zM139.5 423.5h5v5h-5v-5zM134.5 423.5h5v5h-5v-5zM129.5 423.5h5v5h-5v-5zM124.5 423.5h5v5h-5v-5zM119.5 423.5h5v5h-5v-5zM114.5 423.5h5v5h-5v-5zM109.5 423.5h5v5h-5v-5zM104.5 423.5h5v5h-5v-5zM99.5 423.5h5v5h-5v-5zM94.5 423.5h5v5h-5v-5zM89.5 423.5h5v5h-5v-5zM84.5 423.5h5v5h-5v-5zM79.5 423.5h5v5h-5v-5zM74.5 423.5h5v5h-5v-5zM69.5 423.5h5v5h-5v-5zM64.5 423.5h5v5h-5v-5z"/>
      </g>
      <g>
        <path d="M539.5 418.5h5v5h-5v-5zM534.5 418.5h5v5h-5v-5zM529.5 418.5h5v5h-5v-5zM524.5 418.5h5v5h-5v-5zM519.5 418.5h5v5h-5v-5zM514.5 418.5h5v5h-5v-5zM509.5 418.5h5v5h-5v-5zM504.5 418.5h5v5h-5v-5zM499.5 418.5h5v5h-5v-5zM494.5 418.5h5v5h-5v-5zM489.5 418.5h5v5h-5v-5zM484.5 418.5h5v5h-5v-5zM479.5 418.5h5v5h-5v-5zM474.5 418.5h5v5h-5v-5zM469.5 418.5h5v5h-5v-5zM464.5 418.5h5v5h-5v-5zM459.5 418.5h5v5h-5v-5zM454.5 418.5h5v5h-5v-5zM449.5 418.5h5v5h-5v-5zM444.5 418.5h5v5h-5v-5zM439.5 418.5h5v5h-5v-5zM434.5 418.5h5v5h-5v-5zM429.5 418.5h5v5h-5v-5zM424.5 418.5h5v5h-5v-5zM419.5 418.5h5v5h-5v-5zM414.5 418.5h5v5h-5v-5zM409.5 418.5h5v5h-5v-5zM404.5 418.5h5v5h-5v-5zM399.5 418.5h5v5h-5v-5zM394.5 418.5h5v5h-5v-5zM389.5 418.5h5v5h-5v-5zM384.5 418.5h5v5h-5v-5zM379.5 418.5h5v5h-5v-5zM374.5 418.5h5v5h-5v-5zM369.5 418.5h5v5h-5v-5zM364.5 418.5h5v5h-5v-5zM359.5 418.5h5v5h-5v-5zM354.5 418.5h5v5h-5v-5zM349.5 418.5h5v5h-5v-5zM344.5 418.5h5v5h-5v-5zM339.5 418.5h5v5h-5v-5zM334.5 418.5h5v5h-5v-5zM329.5 418.5h5v5h-5v-5zM324.5 418.5h5v5h-5v-5zM319.5 418.5h5v5h-5v-5zM314.5 418.5h5v5h-5v-5zM309.5 418.5h5v5h-5v-5zM304.5 418.5h5v5h-5v-5zM779.5 418.5h5v5h-5v-5zM774.5 418.5h5v5h-5v-5zM769.5 418.5h5v5h-5v-5zM764.5 418.5h5v5h-5v-5zM759.5 418.5h5v5h-5v-5zM754.5 418.5h5v5h-5v-5zM749.5 418.5h5v5h-5v-5zM744.5 418.5h5v5h-5v-5zM739.5 418.5h5v5h-5v-5zM734.5 418.5h5v5h-5v-5zM729.5 418.5h5v5h-5v-5zM724.5 418.5h5v5h-5v-5zM719.5 418.5h5v5h-5v-5zM714.5 418.5h5v5h-5v-5zM709.5 418.5h5v5h-5v-5zM704.5 418.5h5v5h-5v-5zM699.5 418.5h5v5h-5v-5zM694.5 418.5h5v5h-5v-5zM689.5 418.5h5v5h-5v-5zM684.5 418.5h5v5h-5v-5zM679.5 418.5h5v5h-5v-5zM674.5 418.5h5v5h-5v-5zM669.5 418.5h5v5h-5v-5zM664.5 418.5h5v5h-5v-5zM659.5 418.5h5v5h-5v-5zM654.5 418.5h5v5h-5v-5zM649.5 418.5h5v5h-5v-5zM644.5 418.5h5v5h-5v-5zM639.5 418.5h5v5h-5v-5zM634.5 418.5h5v5h-5v-5zM629.5 418.5h5v5h-5v-5zM624.5 418.5h5v5h-5v-5zM619.5 418.5h5v5h-5v-5zM614.5 418.5h5v5h-5v-5zM609.5 418.5h5v5h-5v-5zM604.5 418.5h5v5h-5v-5zM599.5 418.5h5v5h-5v-5zM594.5 418.5h5v5h-5v-5zM589.5 418.5h5v5h-5v-5zM584.5 418.5h5v5h-5v-5zM579.5 418.5h5v5h-5v-5zM574.5 418.5h5v5h-5v-5zM569.5 418.5h5v5h-5v-5zM564.5 418.5h5v5h-5v-5zM559.5 418.5h5v5h-5v-5zM554.5 418.5h5v5h-5v-5zM549.5 418.5h5v5h-5v-5zM544.5 418.5h5v5h-5v-5zM299.5 418.5h5v5h-5v-5zM829.5 418.5h5v5h-5v-5zM824.5 418.5h5v5h-5v-5zM819.5 418.5h5v5h-5v-5zM814.5 418.5h5v5h-5v-5zM809.5 418.5h5v5h-5v-5zM804.5 418.5h5v5h-5v-5zM799.5 418.5h5v5h-5v-5zM794.5 418.5h5v5h-5v-5zM789.5 418.5h5v5h-5v-5zM784.5 418.5h5v5h-5v-5z"/>
        <path d="M539.5 418.5h5v5h-5v-5zM849.5 418.5h5v5h-5v-5zM844.5 418.5h5v5h-5v-5zM839.5 418.5h5v5h-5v-5zM834.5 418.5h5v5h-5v-5zM859.5 418.5h5v5h-5v-5zM854.5 418.5h5v5h-5v-5zM294.5 418.5h5v5h-5v-5zM289.5 418.5h5v5h-5v-5zM284.5 418.5h5v5h-5v-5zM279.5 418.5h5v5h-5v-5zM274.5 418.5h5v5h-5v-5zM269.5 418.5h5v5h-5v-5zM264.5 418.5h5v5h-5v-5zM259.5 418.5h5v5h-5v-5zM254.5 418.5h5v5h-5v-5zM249.5 418.5h5v5h-5v-5zM244.5 418.5h5v5h-5v-5zM239.5 418.5h5v5h-5v-5zM234.5 418.5h5v5h-5v-5zM229.5 418.5h5v5h-5v-5zM224.5 418.5h5v5h-5v-5zM219.5 418.5h5v5h-5v-5zM214.5 418.5h5v5h-5v-5zM209.5 418.5h5v5h-5v-5zM204.5 418.5h5v5h-5v-5zM199.5 418.5h5v5h-5v-5zM194.5 418.5h5v5h-5v-5zM189.5 418.5h5v5h-5v-5zM184.5 418.5h5v5h-5v-5zM179.5 418.5h5v5h-5v-5zM174.5 418.5h5v5h-5v-5zM169.5 418.5h5v5h-5v-5zM164.5 418.5h5v5h-5v-5zM159.5 418.5h5v5h-5v-5zM154.5 418.5h5v5h-5v-5zM149.5 418.5h5v5h-5v-5zM144.5 418.5h5v5h-5v-5zM139.5 418.5h5v5h-5v-5zM134.5 418.5h5v5h-5v-5zM129.5 418.5h5v5h-5v-5zM124.5 418.5h5v5h-5v-5zM119.5 418.5h5v5h-5v-5zM114.5 418.5h5v5h-5v-5zM109.5 418.5h5v5h-5v-5zM104.5 418.5h5v5h-5v-5zM99.5 418.5h5v5h-5v-5zM94.5 418.5h5v5h-5v-5zM89.5 418.5h5v5h-5v-5zM84.5 418.5h5v5h-5v-5zM79.5 418.5h5v5h-5v-5zM74.5 418.5h5v5h-5v-5zM69.5 418.5h5v5h-5v-5zM64.5 418.5h5v5h-5v-5z"/>
      </g>
      <g>
        <path d="M539.5 413.5h5v5h-5v-5zM534.5 413.5h5v5h-5v-5zM529.5 413.5h5v5h-5v-5zM524.5 413.5h5v5h-5v-5zM519.5 413.5h5v5h-5v-5zM514.5 413.5h5v5h-5v-5zM509.5 413.5h5v5h-5v-5zM504.5 413.5h5v5h-5v-5zM499.5 413.5h5v5h-5v-5zM494.5 413.5h5v5h-5v-5zM489.5 413.5h5v5h-5v-5zM484.5 413.5h5v5h-5v-5zM479.5 413.5h5v5h-5v-5zM474.5 413.5h5v5h-5v-5zM469.5 413.5h5v5h-5v-5zM464.5 413.5h5v5h-5v-5zM459.5 413.5h5v5h-5v-5zM454.5 413.5h5v5h-5v-5zM449.5 413.5h5v5h-5v-5zM444.5 413.5h5v5h-5v-5zM439.5 413.5h5v5h-5v-5zM434.5 413.5h5v5h-5v-5zM429.5 413.5h5v5h-5v-5zM424.5 413.5h5v5h-5v-5zM419.5 413.5h5v5h-5v-5zM414.5 413.5h5v5h-5v-5zM409.5 413.5h5v5h-5v-5zM404.5 413.5h5v5h-5v-5zM399.5 413.5h5v5h-5v-5zM394.5 413.5h5v5h-5v-5zM389.5 413.5h5v5h-5v-5zM384.5 413.5h5v5h-5v-5zM379.5 413.5h5v5h-5v-5zM374.5 413.5h5v5h-5v-5zM369.5 413.5h5v5h-5v-5zM364.5 413.5h5v5h-5v-5zM359.5 413.5h5v5h-5v-5zM354.5 413.5h5v5h-5v-5zM349.5 413.5h5v5h-5v-5zM344.5 413.5h5v5h-5v-5zM339.5 413.5h5v5h-5v-5zM334.5 413.5h5v5h-5v-5zM329.5 413.5h5v5h-5v-5zM324.5 413.5h5v5h-5v-5zM319.5 413.5h5v5h-5v-5zM314.5 413.5h5v5h-5v-5zM309.5 413.5h5v5h-5v-5zM304.5 413.5h5v5h-5v-5zM779.5 413.5h5v5h-5v-5zM774.5 413.5h5v5h-5v-5zM769.5 413.5h5v5h-5v-5zM764.5 413.5h5v5h-5v-5zM759.5 413.5h5v5h-5v-5zM754.5 413.5h5v5h-5v-5zM749.5 413.5h5v5h-5v-5zM744.5 413.5h5v5h-5v-5zM739.5 413.5h5v5h-5v-5zM734.5 413.5h5v5h-5v-5zM729.5 413.5h5v5h-5v-5zM724.5 413.5h5v5h-5v-5zM719.5 413.5h5v5h-5v-5zM714.5 413.5h5v5h-5v-5zM709.5 413.5h5v5h-5v-5zM704.5 413.5h5v5h-5v-5zM699.5 413.5h5v5h-5v-5zM694.5 413.5h5v5h-5v-5zM689.5 413.5h5v5h-5v-5zM684.5 413.5h5v5h-5v-5zM679.5 413.5h5v5h-5v-5zM674.5 413.5h5v5h-5v-5zM669.5 413.5h5v5h-5v-5zM664.5 413.5h5v5h-5v-5zM659.5 413.5h5v5h-5v-5zM654.5 413.5h5v5h-5v-5zM649.5 413.5h5v5h-5v-5zM644.5 413.5h5v5h-5v-5zM639.5 413.5h5v5h-5v-5zM634.5 413.5h5v5h-5v-5zM629.5 413.5h5v5h-5v-5zM624.5 413.5h5v5h-5v-5zM619.5 413.5h5v5h-5v-5zM614.5 413.5h5v5h-5v-5zM609.5 413.5h5v5h-5v-5zM604.5 413.5h5v5h-5v-5zM599.5 413.5h5v5h-5v-5zM594.5 413.5h5v5h-5v-5zM589.5 413.5h5v5h-5v-5zM584.5 413.5h5v5h-5v-5zM579.5 413.5h5v5h-5v-5zM574.5 413.5h5v5h-5v-5zM569.5 413.5h5v5h-5v-5zM564.5 413.5h5v5h-5v-5zM559.5 413.5h5v5h-5v-5zM554.5 413.5h5v5h-5v-5zM549.5 413.5h5v5h-5v-5zM544.5 413.5h5v5h-5v-5zM299.5 413.5h5v5h-5v-5zM829.5 413.5h5v5h-5v-5zM824.5 413.5h5v5h-5v-5zM819.5 413.5h5v5h-5v-5zM814.5 413.5h5v5h-5v-5zM809.5 413.5h5v5h-5v-5zM804.5 413.5h5v5h-5v-5zM799.5 413.5h5v5h-5v-5zM794.5 413.5h5v5h-5v-5zM789.5 413.5h5v5h-5v-5zM784.5 413.5h5v5h-5v-5z"/>
        <path d="M539.5 413.5h5v5h-5v-5zM849.5 413.5h5v5h-5v-5zM844.5 413.5h5v5h-5v-5zM839.5 413.5h5v5h-5v-5zM834.5 413.5h5v5h-5v-5zM859.5 413.5h5v5h-5v-5zM854.5 413.5h5v5h-5v-5zM294.5 413.5h5v5h-5v-5zM289.5 413.5h5v5h-5v-5zM284.5 413.5h5v5h-5v-5zM279.5 413.5h5v5h-5v-5zM274.5 413.5h5v5h-5v-5zM269.5 413.5h5v5h-5v-5zM264.5 413.5h5v5h-5v-5zM259.5 413.5h5v5h-5v-5zM254.5 413.5h5v5h-5v-5zM249.5 413.5h5v5h-5v-5zM244.5 413.5h5v5h-5v-5zM239.5 413.5h5v5h-5v-5zM234.5 413.5h5v5h-5v-5zM229.5 413.5h5v5h-5v-5zM224.5 413.5h5v5h-5v-5zM219.5 413.5h5v5h-5v-5zM214.5 413.5h5v5h-5v-5zM209.5 413.5h5v5h-5v-5zM204.5 413.5h5v5h-5v-5zM199.5 413.5h5v5h-5v-5zM194.5 413.5h5v5h-5v-5zM189.5 413.5h5v5h-5v-5zM184.5 413.5h5v5h-5v-5zM179.5 413.5h5v5h-5v-5zM174.5 413.5h5v5h-5v-5zM169.5 413.5h5v5h-5v-5zM164.5 413.5h5v5h-5v-5zM159.5 413.5h5v5h-5v-5zM154.5 413.5h5v5h-5v-5zM149.5 413.5h5v5h-5v-5zM144.5 413.5h5v5h-5v-5zM139.5 413.5h5v5h-5v-5zM134.5 413.5h5v5h-5v-5zM129.5 413.5h5v5h-5v-5zM124.5 413.5h5v5h-5v-5zM119.5 413.5h5v5h-5v-5zM114.5 413.5h5v5h-5v-5zM109.5 413.5h5v5h-5v-5zM104.5 413.5h5v5h-5v-5zM99.5 413.5h5v5h-5v-5zM94.5 413.5h5v5h-5v-5zM89.5 413.5h5v5h-5v-5zM84.5 413.5h5v5h-5v-5zM79.5 413.5h5v5h-5v-5zM74.5 413.5h5v5h-5v-5zM69.5 413.5h5v5h-5v-5zM64.5 413.5h5v5h-5v-5z"/>
      </g>
      <g>
        <path d="M539.5 408.5h5v5h-5v-5zM534.5 408.5h5v5h-5v-5zM529.5 408.5h5v5h-5v-5zM524.5 408.5h5v5h-5v-5zM519.5 408.5h5v5h-5v-5zM514.5 408.5h5v5h-5v-5zM509.5 408.5h5v5h-5v-5zM504.5 408.5h5v5h-5v-5zM499.5 408.5h5v5h-5v-5zM494.5 408.5h5v5h-5v-5zM489.5 408.5h5v5h-5v-5zM484.5 408.5h5v5h-5v-5zM479.5 408.5h5v5h-5v-5zM474.5 408.5h5v5h-5v-5zM469.5 408.5h5v5h-5v-5zM464.5 408.5h5v5h-5v-5zM459.5 408.5h5v5h-5v-5zM454.5 408.5h5v5h-5v-5zM449.5 408.5h5v5h-5v-5zM444.5 408.5h5v5h-5v-5zM439.5 408.5h5v5h-5v-5zM434.5 408.5h5v5h-5v-5zM429.5 408.5h5v5h-5v-5zM424.5 408.5h5v5h-5v-5zM419.5 408.5h5v5h-5v-5zM414.5 408.5h5v5h-5v-5zM409.5 408.5h5v5h-5v-5zM404.5 408.5h5v5h-5v-5zM399.5 408.5h5v5h-5v-5zM394.5 408.5h5v5h-5v-5zM389.5 408.5h5v5h-5v-5zM384.5 408.5h5v5h-5v-5zM379.5 408.5h5v5h-5v-5zM374.5 408.5h5v5h-5v-5zM369.5 408.5h5v5h-5v-5zM364.5 408.5h5v5h-5v-5zM359.5 408.5h5v5h-5v-5zM354.5 408.5h5v5h-5v-5zM349.5 408.5h5v5h-5v-5zM344.5 408.5h5v5h-5v-5zM339.5 408.5h5v5h-5v-5zM334.5 408.5h5v5h-5v-5zM329.5 408.5h5v5h-5v-5zM324.5 408.5h5v5h-5v-5zM319.5 408.5h5v5h-5v-5zM314.5 408.5h5v5h-5v-5zM309.5 408.5h5v5h-5v-5zM304.5 408.5h5v5h-5v-5zM779.5 408.5h5v5h-5v-5zM774.5 408.5h5v5h-5v-5zM769.5 408.5h5v5h-5v-5zM764.5 408.5h5v5h-5v-5zM759.5 408.5h5v5h-5v-5zM754.5 408.5h5v5h-5v-5zM749.5 408.5h5v5h-5v-5zM744.5 408.5h5v5h-5v-5zM739.5 408.5h5v5h-5v-5zM734.5 408.5h5v5h-5v-5zM729.5 408.5h5v5h-5v-5zM724.5 408.5h5v5h-5v-5zM719.5 408.5h5v5h-5v-5zM714.5 408.5h5v5h-5v-5zM709.5 408.5h5v5h-5v-5zM704.5 408.5h5v5h-5v-5zM699.5 408.5h5v5h-5v-5zM694.5 408.5h5v5h-5v-5zM689.5 408.5h5v5h-5v-5zM684.5 408.5h5v5h-5v-5zM679.5 408.5h5v5h-5v-5zM674.5 408.5h5v5h-5v-5zM669.5 408.5h5v5h-5v-5zM664.5 408.5h5v5h-5v-5zM659.5 408.5h5v5h-5v-5zM654.5 408.5h5v5h-5v-5zM649.5 408.5h5v5h-5v-5zM644.5 408.5h5v5h-5v-5zM639.5 408.5h5v5h-5v-5zM634.5 408.5h5v5h-5v-5zM629.5 408.5h5v5h-5v-5zM624.5 408.5h5v5h-5v-5zM619.5 408.5h5v5h-5v-5zM614.5 408.5h5v5h-5v-5zM609.5 408.5h5v5h-5v-5zM604.5 408.5h5v5h-5v-5zM599.5 408.5h5v5h-5v-5zM594.5 408.5h5v5h-5v-5zM589.5 408.5h5v5h-5v-5zM584.5 408.5h5v5h-5v-5zM579.5 408.5h5v5h-5v-5zM574.5 408.5h5v5h-5v-5zM569.5 408.5h5v5h-5v-5zM564.5 408.5h5v5h-5v-5zM559.5 408.5h5v5h-5v-5zM554.5 408.5h5v5h-5v-5zM549.5 408.5h5v5h-5v-5zM544.5 408.5h5v5h-5v-5zM299.5 408.5h5v5h-5v-5zM829.5 408.5h5v5h-5v-5zM824.5 408.5h5v5h-5v-5zM819.5 408.5h5v5h-5v-5zM814.5 408.5h5v5h-5v-5zM809.5 408.5h5v5h-5v-5zM804.5 408.5h5v5h-5v-5zM799.5 408.5h5v5h-5v-5zM794.5 408.5h5v5h-5v-5zM789.5 408.5h5v5h-5v-5zM784.5 408.5h5v5h-5v-5z"/>
        <path d="M539.5 408.5h5v5h-5v-5zM849.5 408.5h5v5h-5v-5zM844.5 408.5h5v5h-5v-5zM839.5 408.5h5v5h-5v-5zM834.5 408.5h5v5h-5v-5zM859.5 408.5h5v5h-5v-5zM854.5 408.5h5v5h-5v-5zM294.5 408.5h5v5h-5v-5zM289.5 408.5h5v5h-5v-5zM284.5 408.5h5v5h-5v-5zM279.5 408.5h5v5h-5v-5zM274.5 408.5h5v5h-5v-5zM269.5 408.5h5v5h-5v-5zM264.5 408.5h5v5h-5v-5zM259.5 408.5h5v5h-5v-5zM254.5 408.5h5v5h-5v-5zM249.5 408.5h5v5h-5v-5zM244.5 408.5h5v5h-5v-5zM239.5 408.5h5v5h-5v-5zM234.5 408.5h5v5h-5v-5zM229.5 408.5h5v5h-5v-5zM224.5 408.5h5v5h-5v-5zM219.5 408.5h5v5h-5v-5zM214.5 408.5h5v5h-5v-5zM209.5 408.5h5v5h-5v-5zM204.5 408.5h5v5h-5v-5zM199.5 408.5h5v5h-5v-5zM194.5 408.5h5v5h-5v-5zM189.5 408.5h5v5h-5v-5zM184.5 408.5h5v5h-5v-5zM179.5 408.5h5v5h-5v-5zM174.5 408.5h5v5h-5v-5zM169.5 408.5h5v5h-5v-5zM164.5 408.5h5v5h-5v-5zM159.5 408.5h5v5h-5v-5zM154.5 408.5h5v5h-5v-5zM149.5 408.5h5v5h-5v-5zM144.5 408.5h5v5h-5v-5zM139.5 408.5h5v5h-5v-5zM134.5 408.5h5v5h-5v-5zM129.5 408.5h5v5h-5v-5zM124.5 408.5h5v5h-5v-5zM119.5 408.5h5v5h-5v-5zM114.5 408.5h5v5h-5v-5zM109.5 408.5h5v5h-5v-5zM104.5 408.5h5v5h-5v-5zM99.5 408.5h5v5h-5v-5zM94.5 408.5h5v5h-5v-5zM89.5 408.5h5v5h-5v-5zM84.5 408.5h5v5h-5v-5zM79.5 408.5h5v5h-5v-5zM74.5 408.5h5v5h-5v-5zM69.5 408.5h5v5h-5v-5zM64.5 408.5h5v5h-5v-5z"/>
      </g>
      <g>
        <path d="M539.5 403.5h5v5h-5v-5zM534.5 403.5h5v5h-5v-5zM529.5 403.5h5v5h-5v-5zM524.5 403.5h5v5h-5v-5zM519.5 403.5h5v5h-5v-5zM514.5 403.5h5v5h-5v-5zM509.5 403.5h5v5h-5v-5zM504.5 403.5h5v5h-5v-5zM499.5 403.5h5v5h-5v-5zM494.5 403.5h5v5h-5v-5zM489.5 403.5h5v5h-5v-5zM484.5 403.5h5v5h-5v-5zM479.5 403.5h5v5h-5v-5zM474.5 403.5h5v5h-5v-5zM469.5 403.5h5v5h-5v-5zM464.5 403.5h5v5h-5v-5zM459.5 403.5h5v5h-5v-5zM454.5 403.5h5v5h-5v-5zM449.5 403.5h5v5h-5v-5zM444.5 403.5h5v5h-5v-5zM439.5 403.5h5v5h-5v-5zM434.5 403.5h5v5h-5v-5zM429.5 403.5h5v5h-5v-5zM424.5 403.5h5v5h-5v-5zM419.5 403.5h5v5h-5v-5zM414.5 403.5h5v5h-5v-5zM409.5 403.5h5v5h-5v-5zM404.5 403.5h5v5h-5v-5zM399.5 403.5h5v5h-5v-5zM394.5 403.5h5v5h-5v-5zM389.5 403.5h5v5h-5v-5zM384.5 403.5h5v5h-5v-5zM379.5 403.5h5v5h-5v-5zM374.5 403.5h5v5h-5v-5zM369.5 403.5h5v5h-5v-5zM364.5 403.5h5v5h-5v-5zM359.5 403.5h5v5h-5v-5zM354.5 403.5h5v5h-5v-5zM349.5 403.5h5v5h-5v-5zM344.5 403.5h5v5h-5v-5zM339.5 403.5h5v5h-5v-5zM334.5 403.5h5v5h-5v-5zM329.5 403.5h5v5h-5v-5zM324.5 403.5h5v5h-5v-5zM319.5 403.5h5v5h-5v-5zM314.5 403.5h5v5h-5v-5zM309.5 403.5h5v5h-5v-5zM304.5 403.5h5v5h-5v-5zM779.5 403.5h5v5h-5v-5zM774.5 403.5h5v5h-5v-5zM769.5 403.5h5v5h-5v-5zM764.5 403.5h5v5h-5v-5zM759.5 403.5h5v5h-5v-5zM754.5 403.5h5v5h-5v-5zM749.5 403.5h5v5h-5v-5zM744.5 403.5h5v5h-5v-5zM739.5 403.5h5v5h-5v-5zM734.5 403.5h5v5h-5v-5zM729.5 403.5h5v5h-5v-5zM724.5 403.5h5v5h-5v-5zM719.5 403.5h5v5h-5v-5zM714.5 403.5h5v5h-5v-5zM709.5 403.5h5v5h-5v-5zM704.5 403.5h5v5h-5v-5zM699.5 403.5h5v5h-5v-5zM694.5 403.5h5v5h-5v-5zM689.5 403.5h5v5h-5v-5zM684.5 403.5h5v5h-5v-5zM679.5 403.5h5v5h-5v-5zM674.5 403.5h5v5h-5v-5zM669.5 403.5h5v5h-5v-5zM664.5 403.5h5v5h-5v-5zM659.5 403.5h5v5h-5v-5zM654.5 403.5h5v5h-5v-5zM649.5 403.5h5v5h-5v-5zM644.5 403.5h5v5h-5v-5zM639.5 403.5h5v5h-5v-5zM634.5 403.5h5v5h-5v-5zM629.5 403.5h5v5h-5v-5zM624.5 403.5h5v5h-5v-5zM619.5 403.5h5v5h-5v-5zM614.5 403.5h5v5h-5v-5zM609.5 403.5h5v5h-5v-5zM604.5 403.5h5v5h-5v-5zM599.5 403.5h5v5h-5v-5zM594.5 403.5h5v5h-5v-5zM589.5 403.5h5v5h-5v-5zM584.5 403.5h5v5h-5v-5zM579.5 403.5h5v5h-5v-5zM574.5 403.5h5v5h-5v-5zM569.5 403.5h5v5h-5v-5zM564.5 403.5h5v5h-5v-5zM559.5 403.5h5v5h-5v-5zM554.5 403.5h5v5h-5v-5zM549.5 403.5h5v5h-5v-5zM544.5 403.5h5v5h-5v-5zM299.5 403.5h5v5h-5v-5zM829.5 403.5h5v5h-5v-5zM824.5 403.5h5v5h-5v-5zM819.5 403.5h5v5h-5v-5zM814.5 403.5h5v5h-5v-5zM809.5 403.5h5v5h-5v-5zM804.5 403.5h5v5h-5v-5zM799.5 403.5h5v5h-5v-5zM794.5 403.5h5v5h-5v-5zM789.5 403.5h5v5h-5v-5zM784.5 403.5h5v5h-5v-5z"/>
        <path d="M539.5 403.5h5v5h-5v-5zM849.5 403.5h5v5h-5v-5zM844.5 403.5h5v5h-5v-5zM839.5 403.5h5v5h-5v-5zM834.5 403.5h5v5h-5v-5zM859.5 403.5h5v5h-5v-5zM854.5 403.5h5v5h-5v-5zM294.5 403.5h5v5h-5v-5zM289.5 403.5h5v5h-5v-5zM284.5 403.5h5v5h-5v-5zM279.5 403.5h5v5h-5v-5zM274.5 403.5h5v5h-5v-5zM269.5 403.5h5v5h-5v-5zM264.5 403.5h5v5h-5v-5zM259.5 403.5h5v5h-5v-5zM254.5 403.5h5v5h-5v-5zM249.5 403.5h5v5h-5v-5zM244.5 403.5h5v5h-5v-5zM239.5 403.5h5v5h-5v-5zM234.5 403.5h5v5h-5v-5zM229.5 403.5h5v5h-5v-5zM224.5 403.5h5v5h-5v-5zM219.5 403.5h5v5h-5v-5zM214.5 403.5h5v5h-5v-5zM209.5 403.5h5v5h-5v-5zM204.5 403.5h5v5h-5v-5zM199.5 403.5h5v5h-5v-5zM194.5 403.5h5v5h-5v-5zM189.5 403.5h5v5h-5v-5zM184.5 403.5h5v5h-5v-5zM179.5 403.5h5v5h-5v-5zM174.5 403.5h5v5h-5v-5zM169.5 403.5h5v5h-5v-5zM164.5 403.5h5v5h-5v-5zM159.5 403.5h5v5h-5v-5zM154.5 403.5h5v5h-5v-5zM149.5 403.5h5v5h-5v-5zM144.5 403.5h5v5h-5v-5zM139.5 403.5h5v5h-5v-5zM134.5 403.5h5v5h-5v-5zM129.5 403.5h5v5h-5v-5zM124.5 403.5h5v5h-5v-5zM119.5 403.5h5v5h-5v-5zM114.5 403.5h5v5h-5v-5zM109.5 403.5h5v5h-5v-5zM104.5 403.5h5v5h-5v-5zM99.5 403.5h5v5h-5v-5zM94.5 403.5h5v5h-5v-5zM89.5 403.5h5v5h-5v-5zM84.5 403.5h5v5h-5v-5zM79.5 403.5h5v5h-5v-5zM74.5 403.5h5v5h-5v-5zM69.5 403.5h5v5h-5v-5zM64.5 403.5h5v5h-5v-5z"/>
      </g>
      <g>
        <path d="M539.5 398.5h5v5h-5v-5zM534.5 398.5h5v5h-5v-5zM529.5 398.5h5v5h-5v-5zM524.5 398.5h5v5h-5v-5zM519.5 398.5h5v5h-5v-5zM514.5 398.5h5v5h-5v-5zM509.5 398.5h5v5h-5v-5zM504.5 398.5h5v5h-5v-5zM499.5 398.5h5v5h-5v-5zM494.5 398.5h5v5h-5v-5zM489.5 398.5h5v5h-5v-5zM484.5 398.5h5v5h-5v-5zM479.5 398.5h5v5h-5v-5zM474.5 398.5h5v5h-5v-5zM469.5 398.5h5v5h-5v-5zM464.5 398.5h5v5h-5v-5zM459.5 398.5h5v5h-5v-5zM454.5 398.5h5v5h-5v-5zM449.5 398.5h5v5h-5v-5zM444.5 398.5h5v5h-5v-5zM439.5 398.5h5v5h-5v-5zM434.5 398.5h5v5h-5v-5zM429.5 398.5h5v5h-5v-5zM424.5 398.5h5v5h-5v-5zM419.5 398.5h5v5h-5v-5zM414.5 398.5h5v5h-5v-5zM409.5 398.5h5v5h-5v-5zM404.5 398.5h5v5h-5v-5zM399.5 398.5h5v5h-5v-5zM394.5 398.5h5v5h-5v-5zM389.5 398.5h5v5h-5v-5zM384.5 398.5h5v5h-5v-5zM379.5 398.5h5v5h-5v-5zM374.5 398.5h5v5h-5v-5zM369.5 398.5h5v5h-5v-5zM364.5 398.5h5v5h-5v-5zM359.5 398.5h5v5h-5v-5zM354.5 398.5h5v5h-5v-5zM349.5 398.5h5v5h-5v-5zM344.5 398.5h5v5h-5v-5zM339.5 398.5h5v5h-5v-5zM334.5 398.5h5v5h-5v-5zM329.5 398.5h5v5h-5v-5zM324.5 398.5h5v5h-5v-5zM319.5 398.5h5v5h-5v-5zM314.5 398.5h5v5h-5v-5zM309.5 398.5h5v5h-5v-5zM304.5 398.5h5v5h-5v-5zM779.5 398.5h5v5h-5v-5zM774.5 398.5h5v5h-5v-5zM769.5 398.5h5v5h-5v-5zM764.5 398.5h5v5h-5v-5zM759.5 398.5h5v5h-5v-5zM754.5 398.5h5v5h-5v-5zM749.5 398.5h5v5h-5v-5zM744.5 398.5h5v5h-5v-5zM739.5 398.5h5v5h-5v-5zM734.5 398.5h5v5h-5v-5zM729.5 398.5h5v5h-5v-5zM724.5 398.5h5v5h-5v-5zM719.5 398.5h5v5h-5v-5zM714.5 398.5h5v5h-5v-5zM709.5 398.5h5v5h-5v-5zM704.5 398.5h5v5h-5v-5zM699.5 398.5h5v5h-5v-5zM694.5 398.5h5v5h-5v-5zM689.5 398.5h5v5h-5v-5zM684.5 398.5h5v5h-5v-5zM679.5 398.5h5v5h-5v-5zM674.5 398.5h5v5h-5v-5zM669.5 398.5h5v5h-5v-5zM664.5 398.5h5v5h-5v-5zM659.5 398.5h5v5h-5v-5zM654.5 398.5h5v5h-5v-5zM649.5 398.5h5v5h-5v-5zM644.5 398.5h5v5h-5v-5zM639.5 398.5h5v5h-5v-5zM634.5 398.5h5v5h-5v-5zM629.5 398.5h5v5h-5v-5zM624.5 398.5h5v5h-5v-5zM619.5 398.5h5v5h-5v-5zM614.5 398.5h5v5h-5v-5zM609.5 398.5h5v5h-5v-5zM604.5 398.5h5v5h-5v-5zM599.5 398.5h5v5h-5v-5zM594.5 398.5h5v5h-5v-5zM589.5 398.5h5v5h-5v-5zM584.5 398.5h5v5h-5v-5zM579.5 398.5h5v5h-5v-5zM574.5 398.5h5v5h-5v-5zM569.5 398.5h5v5h-5v-5zM564.5 398.5h5v5h-5v-5zM559.5 398.5h5v5h-5v-5zM554.5 398.5h5v5h-5v-5zM549.5 398.5h5v5h-5v-5zM544.5 398.5h5v5h-5v-5zM299.5 398.5h5v5h-5v-5zM829.5 398.5h5v5h-5v-5zM824.5 398.5h5v5h-5v-5zM819.5 398.5h5v5h-5v-5zM814.5 398.5h5v5h-5v-5zM809.5 398.5h5v5h-5v-5zM804.5 398.5h5v5h-5v-5zM799.5 398.5h5v5h-5v-5zM794.5 398.5h5v5h-5v-5zM789.5 398.5h5v5h-5v-5zM784.5 398.5h5v5h-5v-5z"/>
        <path d="M539.5 398.5h5v5h-5v-5zM849.5 398.5h5v5h-5v-5zM844.5 398.5h5v5h-5v-5zM839.5 398.5h5v5h-5v-5zM834.5 398.5h5v5h-5v-5zM859.5 398.5h5v5h-5v-5zM854.5 398.5h5v5h-5v-5zM294.5 398.5h5v5h-5v-5zM289.5 398.5h5v5h-5v-5zM284.5 398.5h5v5h-5v-5zM279.5 398.5h5v5h-5v-5zM274.5 398.5h5v5h-5v-5zM269.5 398.5h5v5h-5v-5zM264.5 398.5h5v5h-5v-5zM259.5 398.5h5v5h-5v-5zM254.5 398.5h5v5h-5v-5zM249.5 398.5h5v5h-5v-5zM244.5 398.5h5v5h-5v-5zM239.5 398.5h5v5h-5v-5zM234.5 398.5h5v5h-5v-5zM229.5 398.5h5v5h-5v-5zM224.5 398.5h5v5h-5v-5zM219.5 398.5h5v5h-5v-5zM214.5 398.5h5v5h-5v-5zM209.5 398.5h5v5h-5v-5zM204.5 398.5h5v5h-5v-5zM199.5 398.5h5v5h-5v-5zM194.5 398.5h5v5h-5v-5zM189.5 398.5h5v5h-5v-5zM184.5 398.5h5v5h-5v-5zM179.5 398.5h5v5h-5v-5zM174.5 398.5h5v5h-5v-5zM169.5 398.5h5v5h-5v-5zM164.5 398.5h5v5h-5v-5zM159.5 398.5h5v5h-5v-5zM154.5 398.5h5v5h-5v-5zM149.5 398.5h5v5h-5v-5zM144.5 398.5h5v5h-5v-5zM139.5 398.5h5v5h-5v-5zM134.5 398.5h5v5h-5v-5zM129.5 398.5h5v5h-5v-5zM124.5 398.5h5v5h-5v-5zM119.5 398.5h5v5h-5v-5zM114.5 398.5h5v5h-5v-5zM109.5 398.5h5v5h-5v-5zM104.5 398.5h5v5h-5v-5zM99.5 398.5h5v5h-5v-5zM94.5 398.5h5v5h-5v-5zM89.5 398.5h5v5h-5v-5zM84.5 398.5h5v5h-5v-5zM79.5 398.5h5v5h-5v-5zM74.5 398.5h5v5h-5v-5zM69.5 398.5h5v5h-5v-5zM64.5 398.5h5v5h-5v-5z"/>
      </g>
      <g>
        <path d="M539.5 393.5h5v5h-5v-5zM534.5 393.5h5v5h-5v-5zM529.5 393.5h5v5h-5v-5zM524.5 393.5h5v5h-5v-5zM519.5 393.5h5v5h-5v-5zM514.5 393.5h5v5h-5v-5zM509.5 393.5h5v5h-5v-5zM504.5 393.5h5v5h-5v-5zM499.5 393.5h5v5h-5v-5zM494.5 393.5h5v5h-5v-5zM489.5 393.5h5v5h-5v-5zM484.5 393.5h5v5h-5v-5zM479.5 393.5h5v5h-5v-5zM474.5 393.5h5v5h-5v-5zM469.5 393.5h5v5h-5v-5zM464.5 393.5h5v5h-5v-5zM459.5 393.5h5v5h-5v-5zM454.5 393.5h5v5h-5v-5zM449.5 393.5h5v5h-5v-5zM444.5 393.5h5v5h-5v-5zM439.5 393.5h5v5h-5v-5zM434.5 393.5h5v5h-5v-5zM429.5 393.5h5v5h-5v-5zM424.5 393.5h5v5h-5v-5zM419.5 393.5h5v5h-5v-5zM414.5 393.5h5v5h-5v-5zM409.5 393.5h5v5h-5v-5zM404.5 393.5h5v5h-5v-5zM399.5 393.5h5v5h-5v-5zM394.5 393.5h5v5h-5v-5zM389.5 393.5h5v5h-5v-5zM384.5 393.5h5v5h-5v-5zM379.5 393.5h5v5h-5v-5zM374.5 393.5h5v5h-5v-5zM369.5 393.5h5v5h-5v-5zM364.5 393.5h5v5h-5v-5zM359.5 393.5h5v5h-5v-5zM354.5 393.5h5v5h-5v-5zM349.5 393.5h5v5h-5v-5zM344.5 393.5h5v5h-5v-5zM339.5 393.5h5v5h-5v-5zM334.5 393.5h5v5h-5v-5zM329.5 393.5h5v5h-5v-5zM324.5 393.5h5v5h-5v-5zM319.5 393.5h5v5h-5v-5zM314.5 393.5h5v5h-5v-5zM309.5 393.5h5v5h-5v-5zM304.5 393.5h5v5h-5v-5zM779.5 393.5h5v5h-5v-5zM774.5 393.5h5v5h-5v-5zM769.5 393.5h5v5h-5v-5zM764.5 393.5h5v5h-5v-5zM759.5 393.5h5v5h-5v-5zM754.5 393.5h5v5h-5v-5zM749.5 393.5h5v5h-5v-5zM744.5 393.5h5v5h-5v-5zM739.5 393.5h5v5h-5v-5zM734.5 393.5h5v5h-5v-5zM729.5 393.5h5v5h-5v-5zM724.5 393.5h5v5h-5v-5zM719.5 393.5h5v5h-5v-5zM714.5 393.5h5v5h-5v-5zM709.5 393.5h5v5h-5v-5zM704.5 393.5h5v5h-5v-5zM699.5 393.5h5v5h-5v-5zM694.5 393.5h5v5h-5v-5zM689.5 393.5h5v5h-5v-5zM684.5 393.5h5v5h-5v-5zM679.5 393.5h5v5h-5v-5zM674.5 393.5h5v5h-5v-5zM669.5 393.5h5v5h-5v-5zM664.5 393.5h5v5h-5v-5zM659.5 393.5h5v5h-5v-5zM654.5 393.5h5v5h-5v-5zM649.5 393.5h5v5h-5v-5zM644.5 393.5h5v5h-5v-5zM639.5 393.5h5v5h-5v-5zM634.5 393.5h5v5h-5v-5zM629.5 393.5h5v5h-5v-5zM624.5 393.5h5v5h-5v-5zM619.5 393.5h5v5h-5v-5zM614.5 393.5h5v5h-5v-5zM609.5 393.5h5v5h-5v-5zM604.5 393.5h5v5h-5v-5zM599.5 393.5h5v5h-5v-5zM594.5 393.5h5v5h-5v-5zM589.5 393.5h5v5h-5v-5zM584.5 393.5h5v5h-5v-5zM579.5 393.5h5v5h-5v-5zM574.5 393.5h5v5h-5v-5zM569.5 393.5h5v5h-5v-5zM564.5 393.5h5v5h-5v-5zM559.5 393.5h5v5h-5v-5zM554.5 393.5h5v5h-5v-5zM549.5 393.5h5v5h-5v-5zM544.5 393.5h5v5h-5v-5zM299.5 393.5h5v5h-5v-5zM829.5 393.5h5v5h-5v-5zM824.5 393.5h5v5h-5v-5zM819.5 393.5h5v5h-5v-5zM814.5 393.5h5v5h-5v-5zM809.5 393.5h5v5h-5v-5zM804.5 393.5h5v5h-5v-5zM799.5 393.5h5v5h-5v-5zM794.5 393.5h5v5h-5v-5zM789.5 393.5h5v5h-5v-5zM784.5 393.5h5v5h-5v-5z"/>
        <path d="M539.5 393.5h5v5h-5v-5zM849.5 393.5h5v5h-5v-5zM844.5 393.5h5v5h-5v-5zM839.5 393.5h5v5h-5v-5zM834.5 393.5h5v5h-5v-5zM859.5 393.5h5v5h-5v-5zM854.5 393.5h5v5h-5v-5zM294.5 393.5h5v5h-5v-5zM289.5 393.5h5v5h-5v-5zM284.5 393.5h5v5h-5v-5zM279.5 393.5h5v5h-5v-5zM274.5 393.5h5v5h-5v-5zM269.5 393.5h5v5h-5v-5zM264.5 393.5h5v5h-5v-5zM259.5 393.5h5v5h-5v-5zM254.5 393.5h5v5h-5v-5zM249.5 393.5h5v5h-5v-5zM244.5 393.5h5v5h-5v-5zM239.5 393.5h5v5h-5v-5zM234.5 393.5h5v5h-5v-5zM229.5 393.5h5v5h-5v-5zM224.5 393.5h5v5h-5v-5zM219.5 393.5h5v5h-5v-5zM214.5 393.5h5v5h-5v-5zM209.5 393.5h5v5h-5v-5zM204.5 393.5h5v5h-5v-5zM199.5 393.5h5v5h-5v-5zM194.5 393.5h5v5h-5v-5zM189.5 393.5h5v5h-5v-5zM184.5 393.5h5v5h-5v-5zM179.5 393.5h5v5h-5v-5zM174.5 393.5h5v5h-5v-5zM169.5 393.5h5v5h-5v-5zM164.5 393.5h5v5h-5v-5zM159.5 393.5h5v5h-5v-5zM154.5 393.5h5v5h-5v-5zM149.5 393.5h5v5h-5v-5zM144.5 393.5h5v5h-5v-5zM139.5 393.5h5v5h-5v-5zM134.5 393.5h5v5h-5v-5zM129.5 393.5h5v5h-5v-5zM124.5 393.5h5v5h-5v-5zM119.5 393.5h5v5h-5v-5zM114.5 393.5h5v5h-5v-5zM109.5 393.5h5v5h-5v-5zM104.5 393.5h5v5h-5v-5zM99.5 393.5h5v5h-5v-5zM94.5 393.5h5v5h-5v-5zM89.5 393.5h5v5h-5v-5zM84.5 393.5h5v5h-5v-5zM79.5 393.5h5v5h-5v-5zM74.5 393.5h5v5h-5v-5zM69.5 393.5h5v5h-5v-5zM64.5 393.5h5v5h-5v-5z"/>
      </g>
      <g>
        <path d="M539.5 388.5h5v5h-5v-5zM534.5 388.5h5v5h-5v-5zM529.5 388.5h5v5h-5v-5zM524.5 388.5h5v5h-5v-5zM519.5 388.5h5v5h-5v-5zM514.5 388.5h5v5h-5v-5zM509.5 388.5h5v5h-5v-5zM504.5 388.5h5v5h-5v-5zM499.5 388.5h5v5h-5v-5zM494.5 388.5h5v5h-5v-5zM489.5 388.5h5v5h-5v-5zM484.5 388.5h5v5h-5v-5zM479.5 388.5h5v5h-5v-5zM474.5 388.5h5v5h-5v-5zM469.5 388.5h5v5h-5v-5zM464.5 388.5h5v5h-5v-5zM459.5 388.5h5v5h-5v-5zM454.5 388.5h5v5h-5v-5zM449.5 388.5h5v5h-5v-5zM444.5 388.5h5v5h-5v-5zM439.5 388.5h5v5h-5v-5zM434.5 388.5h5v5h-5v-5zM429.5 388.5h5v5h-5v-5zM424.5 388.5h5v5h-5v-5zM419.5 388.5h5v5h-5v-5zM414.5 388.5h5v5h-5v-5zM409.5 388.5h5v5h-5v-5zM404.5 388.5h5v5h-5v-5zM399.5 388.5h5v5h-5v-5zM394.5 388.5h5v5h-5v-5zM389.5 388.5h5v5h-5v-5zM384.5 388.5h5v5h-5v-5zM379.5 388.5h5v5h-5v-5zM374.5 388.5h5v5h-5v-5zM369.5 388.5h5v5h-5v-5zM364.5 388.5h5v5h-5v-5zM359.5 388.5h5v5h-5v-5zM354.5 388.5h5v5h-5v-5zM349.5 388.5h5v5h-5v-5zM344.5 388.5h5v5h-5v-5zM339.5 388.5h5v5h-5v-5zM334.5 388.5h5v5h-5v-5zM329.5 388.5h5v5h-5v-5zM324.5 388.5h5v5h-5v-5zM319.5 388.5h5v5h-5v-5zM314.5 388.5h5v5h-5v-5zM309.5 388.5h5v5h-5v-5zM304.5 388.5h5v5h-5v-5zM779.5 388.5h5v5h-5v-5zM774.5 388.5h5v5h-5v-5zM769.5 388.5h5v5h-5v-5zM764.5 388.5h5v5h-5v-5zM759.5 388.5h5v5h-5v-5zM754.5 388.5h5v5h-5v-5zM749.5 388.5h5v5h-5v-5zM744.5 388.5h5v5h-5v-5zM739.5 388.5h5v5h-5v-5zM734.5 388.5h5v5h-5v-5zM729.5 388.5h5v5h-5v-5zM724.5 388.5h5v5h-5v-5zM719.5 388.5h5v5h-5v-5zM714.5 388.5h5v5h-5v-5zM709.5 388.5h5v5h-5v-5zM704.5 388.5h5v5h-5v-5zM699.5 388.5h5v5h-5v-5zM694.5 388.5h5v5h-5v-5zM689.5 388.5h5v5h-5v-5zM684.5 388.5h5v5h-5v-5zM679.5 388.5h5v5h-5v-5zM674.5 388.5h5v5h-5v-5zM669.5 388.5h5v5h-5v-5zM664.5 388.5h5v5h-5v-5zM659.5 388.5h5v5h-5v-5zM654.5 388.5h5v5h-5v-5zM649.5 388.5h5v5h-5v-5zM644.5 388.5h5v5h-5v-5zM639.5 388.5h5v5h-5v-5zM634.5 388.5h5v5h-5v-5zM629.5 388.5h5v5h-5v-5zM624.5 388.5h5v5h-5v-5zM619.5 388.5h5v5h-5v-5zM614.5 388.5h5v5h-5v-5zM609.5 388.5h5v5h-5v-5zM604.5 388.5h5v5h-5v-5zM599.5 388.5h5v5h-5v-5zM594.5 388.5h5v5h-5v-5zM589.5 388.5h5v5h-5v-5zM584.5 388.5h5v5h-5v-5zM579.5 388.5h5v5h-5v-5zM574.5 388.5h5v5h-5v-5zM569.5 388.5h5v5h-5v-5zM564.5 388.5h5v5h-5v-5zM559.5 388.5h5v5h-5v-5zM554.5 388.5h5v5h-5v-5zM549.5 388.5h5v5h-5v-5zM544.5 388.5h5v5h-5v-5zM299.5 388.5h5v5h-5v-5zM829.5 388.5h5v5h-5v-5zM824.5 388.5h5v5h-5v-5zM819.5 388.5h5v5h-5v-5zM814.5 388.5h5v5h-5v-5zM809.5 388.5h5v5h-5v-5zM804.5 388.5h5v5h-5v-5zM799.5 388.5h5v5h-5v-5zM794.5 388.5h5v5h-5v-5zM789.5 388.5h5v5h-5v-5zM784.5 388.5h5v5h-5v-5z"/>
        <path d="M539.5 388.5h5v5h-5v-5zM849.5 388.5h5v5h-5v-5zM844.5 388.5h5v5h-5v-5zM839.5 388.5h5v5h-5v-5zM834.5 388.5h5v5h-5v-5zM859.5 388.5h5v5h-5v-5zM854.5 388.5h5v5h-5v-5zM294.5 388.5h5v5h-5v-5zM289.5 388.5h5v5h-5v-5zM284.5 388.5h5v5h-5v-5zM279.5 388.5h5v5h-5v-5zM274.5 388.5h5v5h-5v-5zM269.5 388.5h5v5h-5v-5zM264.5 388.5h5v5h-5v-5zM259.5 388.5h5v5h-5v-5zM254.5 388.5h5v5h-5v-5zM249.5 388.5h5v5h-5v-5zM244.5 388.5h5v5h-5v-5zM239.5 388.5h5v5h-5v-5zM234.5 388.5h5v5h-5v-5zM229.5 388.5h5v5h-5v-5zM224.5 388.5h5v5h-5v-5zM219.5 388.5h5v5h-5v-5zM214.5 388.5h5v5h-5v-5zM209.5 388.5h5v5h-5v-5zM204.5 388.5h5v5h-5v-5zM199.5 388.5h5v5h-5v-5zM194.5 388.5h5v5h-5v-5zM189.5 388.5h5v5h-5v-5zM184.5 388.5h5v5h-5v-5zM179.5 388.5h5v5h-5v-5zM174.5 388.5h5v5h-5v-5zM169.5 388.5h5v5h-5v-5zM164.5 388.5h5v5h-5v-5zM159.5 388.5h5v5h-5v-5zM154.5 388.5h5v5h-5v-5zM149.5 388.5h5v5h-5v-5zM144.5 388.5h5v5h-5v-5zM139.5 388.5h5v5h-5v-5zM134.5 388.5h5v5h-5v-5zM129.5 388.5h5v5h-5v-5zM124.5 388.5h5v5h-5v-5zM119.5 388.5h5v5h-5v-5zM114.5 388.5h5v5h-5v-5zM109.5 388.5h5v5h-5v-5zM104.5 388.5h5v5h-5v-5zM99.5 388.5h5v5h-5v-5zM94.5 388.5h5v5h-5v-5zM89.5 388.5h5v5h-5v-5zM84.5 388.5h5v5h-5v-5zM79.5 388.5h5v5h-5v-5zM74.5 388.5h5v5h-5v-5zM69.5 388.5h5v5h-5v-5zM64.5 388.5h5v5h-5v-5z"/>
      </g>
      <g>
        <path d="M539.5 383.5h5v5h-5v-5zM534.5 383.5h5v5h-5v-5zM529.5 383.5h5v5h-5v-5zM524.5 383.5h5v5h-5v-5zM519.5 383.5h5v5h-5v-5zM514.5 383.5h5v5h-5v-5zM509.5 383.5h5v5h-5v-5zM504.5 383.5h5v5h-5v-5zM499.5 383.5h5v5h-5v-5zM494.5 383.5h5v5h-5v-5zM489.5 383.5h5v5h-5v-5zM484.5 383.5h5v5h-5v-5zM479.5 383.5h5v5h-5v-5zM474.5 383.5h5v5h-5v-5zM469.5 383.5h5v5h-5v-5zM464.5 383.5h5v5h-5v-5zM459.5 383.5h5v5h-5v-5zM454.5 383.5h5v5h-5v-5zM449.5 383.5h5v5h-5v-5zM444.5 383.5h5v5h-5v-5zM439.5 383.5h5v5h-5v-5zM434.5 383.5h5v5h-5v-5zM429.5 383.5h5v5h-5v-5zM424.5 383.5h5v5h-5v-5zM419.5 383.5h5v5h-5v-5zM414.5 383.5h5v5h-5v-5zM409.5 383.5h5v5h-5v-5zM404.5 383.5h5v5h-5v-5zM399.5 383.5h5v5h-5v-5zM394.5 383.5h5v5h-5v-5zM389.5 383.5h5v5h-5v-5zM384.5 383.5h5v5h-5v-5zM379.5 383.5h5v5h-5v-5zM374.5 383.5h5v5h-5v-5zM369.5 383.5h5v5h-5v-5zM364.5 383.5h5v5h-5v-5zM359.5 383.5h5v5h-5v-5zM354.5 383.5h5v5h-5v-5zM349.5 383.5h5v5h-5v-5zM344.5 383.5h5v5h-5v-5zM339.5 383.5h5v5h-5v-5zM334.5 383.5h5v5h-5v-5zM329.5 383.5h5v5h-5v-5zM324.5 383.5h5v5h-5v-5zM319.5 383.5h5v5h-5v-5zM314.5 383.5h5v5h-5v-5zM309.5 383.5h5v5h-5v-5zM304.5 383.5h5v5h-5v-5zM779.5 383.5h5v5h-5v-5zM774.5 383.5h5v5h-5v-5zM769.5 383.5h5v5h-5v-5zM764.5 383.5h5v5h-5v-5zM759.5 383.5h5v5h-5v-5zM754.5 383.5h5v5h-5v-5zM749.5 383.5h5v5h-5v-5zM744.5 383.5h5v5h-5v-5zM739.5 383.5h5v5h-5v-5zM734.5 383.5h5v5h-5v-5zM729.5 383.5h5v5h-5v-5zM724.5 383.5h5v5h-5v-5zM719.5 383.5h5v5h-5v-5zM714.5 383.5h5v5h-5v-5zM709.5 383.5h5v5h-5v-5zM704.5 383.5h5v5h-5v-5zM699.5 383.5h5v5h-5v-5zM694.5 383.5h5v5h-5v-5zM689.5 383.5h5v5h-5v-5zM684.5 383.5h5v5h-5v-5zM679.5 383.5h5v5h-5v-5zM674.5 383.5h5v5h-5v-5zM669.5 383.5h5v5h-5v-5zM664.5 383.5h5v5h-5v-5zM659.5 383.5h5v5h-5v-5zM654.5 383.5h5v5h-5v-5zM649.5 383.5h5v5h-5v-5zM644.5 383.5h5v5h-5v-5zM639.5 383.5h5v5h-5v-5zM634.5 383.5h5v5h-5v-5zM629.5 383.5h5v5h-5v-5zM624.5 383.5h5v5h-5v-5zM619.5 383.5h5v5h-5v-5zM614.5 383.5h5v5h-5v-5zM609.5 383.5h5v5h-5v-5zM604.5 383.5h5v5h-5v-5zM599.5 383.5h5v5h-5v-5zM594.5 383.5h5v5h-5v-5zM589.5 383.5h5v5h-5v-5zM584.5 383.5h5v5h-5v-5zM579.5 383.5h5v5h-5v-5zM574.5 383.5h5v5h-5v-5zM569.5 383.5h5v5h-5v-5zM564.5 383.5h5v5h-5v-5zM559.5 383.5h5v5h-5v-5zM554.5 383.5h5v5h-5v-5zM549.5 383.5h5v5h-5v-5zM544.5 383.5h5v5h-5v-5zM299.5 383.5h5v5h-5v-5zM829.5 383.5h5v5h-5v-5zM824.5 383.5h5v5h-5v-5zM819.5 383.5h5v5h-5v-5zM814.5 383.5h5v5h-5v-5zM809.5 383.5h5v5h-5v-5zM804.5 383.5h5v5h-5v-5zM799.5 383.5h5v5h-5v-5zM794.5 383.5h5v5h-5v-5zM789.5 383.5h5v5h-5v-5zM784.5 383.5h5v5h-5v-5z"/>
        <path d="M539.5 383.5h5v5h-5v-5zM849.5 383.5h5v5h-5v-5zM844.5 383.5h5v5h-5v-5zM839.5 383.5h5v5h-5v-5zM834.5 383.5h5v5h-5v-5zM859.5 383.5h5v5h-5v-5zM854.5 383.5h5v5h-5v-5zM294.5 383.5h5v5h-5v-5zM289.5 383.5h5v5h-5v-5zM284.5 383.5h5v5h-5v-5zM279.5 383.5h5v5h-5v-5zM274.5 383.5h5v5h-5v-5zM269.5 383.5h5v5h-5v-5zM264.5 383.5h5v5h-5v-5zM259.5 383.5h5v5h-5v-5zM254.5 383.5h5v5h-5v-5zM249.5 383.5h5v5h-5v-5zM244.5 383.5h5v5h-5v-5zM239.5 383.5h5v5h-5v-5zM234.5 383.5h5v5h-5v-5zM229.5 383.5h5v5h-5v-5zM224.5 383.5h5v5h-5v-5zM219.5 383.5h5v5h-5v-5zM214.5 383.5h5v5h-5v-5zM209.5 383.5h5v5h-5v-5zM204.5 383.5h5v5h-5v-5zM199.5 383.5h5v5h-5v-5zM194.5 383.5h5v5h-5v-5zM189.5 383.5h5v5h-5v-5zM184.5 383.5h5v5h-5v-5zM179.5 383.5h5v5h-5v-5zM174.5 383.5h5v5h-5v-5zM169.5 383.5h5v5h-5v-5zM164.5 383.5h5v5h-5v-5zM159.5 383.5h5v5h-5v-5zM154.5 383.5h5v5h-5v-5zM149.5 383.5h5v5h-5v-5zM144.5 383.5h5v5h-5v-5zM139.5 383.5h5v5h-5v-5zM134.5 383.5h5v5h-5v-5zM129.5 383.5h5v5h-5v-5zM124.5 383.5h5v5h-5v-5zM119.5 383.5h5v5h-5v-5zM114.5 383.5h5v5h-5v-5zM109.5 383.5h5v5h-5v-5zM104.5 383.5h5v5h-5v-5zM99.5 383.5h5v5h-5v-5zM94.5 383.5h5v5h-5v-5zM89.5 383.5h5v5h-5v-5zM84.5 383.5h5v5h-5v-5zM79.5 383.5h5v5h-5v-5zM74.5 383.5h5v5h-5v-5zM69.5 383.5h5v5h-5v-5zM64.5 383.5h5v5h-5v-5z"/>
      </g>
      <g>
        <path d="M539.5 378.5h5v5h-5v-5zM534.5 378.5h5v5h-5v-5zM529.5 378.5h5v5h-5v-5zM524.5 378.5h5v5h-5v-5zM519.5 378.5h5v5h-5v-5zM514.5 378.5h5v5h-5v-5zM509.5 378.5h5v5h-5v-5zM504.5 378.5h5v5h-5v-5zM499.5 378.5h5v5h-5v-5zM494.5 378.5h5v5h-5v-5zM489.5 378.5h5v5h-5v-5zM484.5 378.5h5v5h-5v-5zM479.5 378.5h5v5h-5v-5zM474.5 378.5h5v5h-5v-5zM469.5 378.5h5v5h-5v-5zM464.5 378.5h5v5h-5v-5zM459.5 378.5h5v5h-5v-5zM454.5 378.5h5v5h-5v-5zM449.5 378.5h5v5h-5v-5zM444.5 378.5h5v5h-5v-5zM439.5 378.5h5v5h-5v-5zM434.5 378.5h5v5h-5v-5zM429.5 378.5h5v5h-5v-5zM424.5 378.5h5v5h-5v-5zM419.5 378.5h5v5h-5v-5zM414.5 378.5h5v5h-5v-5zM409.5 378.5h5v5h-5v-5zM404.5 378.5h5v5h-5v-5zM399.5 378.5h5v5h-5v-5zM394.5 378.5h5v5h-5v-5zM389.5 378.5h5v5h-5v-5zM384.5 378.5h5v5h-5v-5zM379.5 378.5h5v5h-5v-5zM374.5 378.5h5v5h-5v-5zM369.5 378.5h5v5h-5v-5zM364.5 378.5h5v5h-5v-5zM359.5 378.5h5v5h-5v-5zM354.5 378.5h5v5h-5v-5zM349.5 378.5h5v5h-5v-5zM344.5 378.5h5v5h-5v-5zM339.5 378.5h5v5h-5v-5zM334.5 378.5h5v5h-5v-5zM329.5 378.5h5v5h-5v-5zM324.5 378.5h5v5h-5v-5zM319.5 378.5h5v5h-5v-5zM314.5 378.5h5v5h-5v-5zM309.5 378.5h5v5h-5v-5zM304.5 378.5h5v5h-5v-5zM779.5 378.5h5v5h-5v-5zM774.5 378.5h5v5h-5v-5zM769.5 378.5h5v5h-5v-5zM764.5 378.5h5v5h-5v-5zM759.5 378.5h5v5h-5v-5zM754.5 378.5h5v5h-5v-5zM749.5 378.5h5v5h-5v-5zM744.5 378.5h5v5h-5v-5zM739.5 378.5h5v5h-5v-5zM734.5 378.5h5v5h-5v-5zM729.5 378.5h5v5h-5v-5zM724.5 378.5h5v5h-5v-5zM719.5 378.5h5v5h-5v-5zM714.5 378.5h5v5h-5v-5zM709.5 378.5h5v5h-5v-5zM704.5 378.5h5v5h-5v-5zM699.5 378.5h5v5h-5v-5zM694.5 378.5h5v5h-5v-5zM689.5 378.5h5v5h-5v-5zM684.5 378.5h5v5h-5v-5zM679.5 378.5h5v5h-5v-5zM674.5 378.5h5v5h-5v-5zM669.5 378.5h5v5h-5v-5zM664.5 378.5h5v5h-5v-5zM659.5 378.5h5v5h-5v-5zM654.5 378.5h5v5h-5v-5zM649.5 378.5h5v5h-5v-5zM644.5 378.5h5v5h-5v-5zM639.5 378.5h5v5h-5v-5zM634.5 378.5h5v5h-5v-5zM629.5 378.5h5v5h-5v-5zM624.5 378.5h5v5h-5v-5zM619.5 378.5h5v5h-5v-5zM614.5 378.5h5v5h-5v-5zM609.5 378.5h5v5h-5v-5zM604.5 378.5h5v5h-5v-5zM599.5 378.5h5v5h-5v-5zM594.5 378.5h5v5h-5v-5zM589.5 378.5h5v5h-5v-5zM584.5 378.5h5v5h-5v-5zM579.5 378.5h5v5h-5v-5zM574.5 378.5h5v5h-5v-5zM569.5 378.5h5v5h-5v-5zM564.5 378.5h5v5h-5v-5zM559.5 378.5h5v5h-5v-5zM554.5 378.5h5v5h-5v-5zM549.5 378.5h5v5h-5v-5zM544.5 378.5h5v5h-5v-5zM299.5 378.5h5v5h-5v-5zM829.5 378.5h5v5h-5v-5zM824.5 378.5h5v5h-5v-5zM819.5 378.5h5v5h-5v-5zM814.5 378.5h5v5h-5v-5zM809.5 378.5h5v5h-5v-5zM804.5 378.5h5v5h-5v-5zM799.5 378.5h5v5h-5v-5zM794.5 378.5h5v5h-5v-5zM789.5 378.5h5v5h-5v-5zM784.5 378.5h5v5h-5v-5z"/>
        <path d="M539.5 378.5h5v5h-5v-5zM849.5 378.5h5v5h-5v-5zM844.5 378.5h5v5h-5v-5zM839.5 378.5h5v5h-5v-5zM834.5 378.5h5v5h-5v-5zM859.5 378.5h5v5h-5v-5zM854.5 378.5h5v5h-5v-5zM294.5 378.5h5v5h-5v-5zM289.5 378.5h5v5h-5v-5zM284.5 378.5h5v5h-5v-5zM279.5 378.5h5v5h-5v-5zM274.5 378.5h5v5h-5v-5zM269.5 378.5h5v5h-5v-5zM264.5 378.5h5v5h-5v-5zM259.5 378.5h5v5h-5v-5zM254.5 378.5h5v5h-5v-5zM249.5 378.5h5v5h-5v-5zM244.5 378.5h5v5h-5v-5zM239.5 378.5h5v5h-5v-5zM234.5 378.5h5v5h-5v-5zM229.5 378.5h5v5h-5v-5zM224.5 378.5h5v5h-5v-5zM219.5 378.5h5v5h-5v-5zM214.5 378.5h5v5h-5v-5zM209.5 378.5h5v5h-5v-5zM204.5 378.5h5v5h-5v-5zM199.5 378.5h5v5h-5v-5zM194.5 378.5h5v5h-5v-5zM189.5 378.5h5v5h-5v-5zM184.5 378.5h5v5h-5v-5zM179.5 378.5h5v5h-5v-5zM174.5 378.5h5v5h-5v-5zM169.5 378.5h5v5h-5v-5zM164.5 378.5h5v5h-5v-5zM159.5 378.5h5v5h-5v-5zM154.5 378.5h5v5h-5v-5zM149.5 378.5h5v5h-5v-5zM144.5 378.5h5v5h-5v-5zM139.5 378.5h5v5h-5v-5zM134.5 378.5h5v5h-5v-5zM129.5 378.5h5v5h-5v-5zM124.5 378.5h5v5h-5v-5zM119.5 378.5h5v5h-5v-5zM114.5 378.5h5v5h-5v-5zM109.5 378.5h5v5h-5v-5zM104.5 378.5h5v5h-5v-5zM99.5 378.5h5v5h-5v-5zM94.5 378.5h5v5h-5v-5zM89.5 378.5h5v5h-5v-5zM84.5 378.5h5v5h-5v-5zM79.5 378.5h5v5h-5v-5zM74.5 378.5h5v5h-5v-5zM69.5 378.5h5v5h-5v-5zM64.5 378.5h5v5h-5v-5z"/>
      </g>
      <g>
        <path d="M539.5 373.5h5v5h-5v-5zM534.5 373.5h5v5h-5v-5zM529.5 373.5h5v5h-5v-5zM524.5 373.5h5v5h-5v-5zM519.5 373.5h5v5h-5v-5zM514.5 373.5h5v5h-5v-5zM509.5 373.5h5v5h-5v-5zM504.5 373.5h5v5h-5v-5zM499.5 373.5h5v5h-5v-5zM494.5 373.5h5v5h-5v-5zM489.5 373.5h5v5h-5v-5zM484.5 373.5h5v5h-5v-5zM479.5 373.5h5v5h-5v-5zM474.5 373.5h5v5h-5v-5zM469.5 373.5h5v5h-5v-5zM464.5 373.5h5v5h-5v-5zM459.5 373.5h5v5h-5v-5zM454.5 373.5h5v5h-5v-5zM449.5 373.5h5v5h-5v-5zM444.5 373.5h5v5h-5v-5zM439.5 373.5h5v5h-5v-5zM434.5 373.5h5v5h-5v-5zM429.5 373.5h5v5h-5v-5zM424.5 373.5h5v5h-5v-5zM419.5 373.5h5v5h-5v-5zM414.5 373.5h5v5h-5v-5zM409.5 373.5h5v5h-5v-5zM404.5 373.5h5v5h-5v-5zM399.5 373.5h5v5h-5v-5zM394.5 373.5h5v5h-5v-5zM389.5 373.5h5v5h-5v-5zM384.5 373.5h5v5h-5v-5zM379.5 373.5h5v5h-5v-5zM374.5 373.5h5v5h-5v-5zM369.5 373.5h5v5h-5v-5zM364.5 373.5h5v5h-5v-5zM359.5 373.5h5v5h-5v-5zM354.5 373.5h5v5h-5v-5zM349.5 373.5h5v5h-5v-5zM344.5 373.5h5v5h-5v-5zM339.5 373.5h5v5h-5v-5zM334.5 373.5h5v5h-5v-5zM329.5 373.5h5v5h-5v-5zM324.5 373.5h5v5h-5v-5zM319.5 373.5h5v5h-5v-5zM314.5 373.5h5v5h-5v-5zM309.5 373.5h5v5h-5v-5zM304.5 373.5h5v5h-5v-5zM779.5 373.5h5v5h-5v-5zM774.5 373.5h5v5h-5v-5zM769.5 373.5h5v5h-5v-5zM764.5 373.5h5v5h-5v-5zM759.5 373.5h5v5h-5v-5zM754.5 373.5h5v5h-5v-5zM749.5 373.5h5v5h-5v-5zM744.5 373.5h5v5h-5v-5zM739.5 373.5h5v5h-5v-5zM734.5 373.5h5v5h-5v-5zM729.5 373.5h5v5h-5v-5zM724.5 373.5h5v5h-5v-5zM719.5 373.5h5v5h-5v-5zM714.5 373.5h5v5h-5v-5zM709.5 373.5h5v5h-5v-5zM704.5 373.5h5v5h-5v-5zM699.5 373.5h5v5h-5v-5zM694.5 373.5h5v5h-5v-5zM689.5 373.5h5v5h-5v-5zM684.5 373.5h5v5h-5v-5zM679.5 373.5h5v5h-5v-5zM674.5 373.5h5v5h-5v-5zM669.5 373.5h5v5h-5v-5zM664.5 373.5h5v5h-5v-5zM659.5 373.5h5v5h-5v-5zM654.5 373.5h5v5h-5v-5zM649.5 373.5h5v5h-5v-5zM644.5 373.5h5v5h-5v-5zM639.5 373.5h5v5h-5v-5zM634.5 373.5h5v5h-5v-5zM629.5 373.5h5v5h-5v-5zM624.5 373.5h5v5h-5v-5zM619.5 373.5h5v5h-5v-5zM614.5 373.5h5v5h-5v-5zM609.5 373.5h5v5h-5v-5zM604.5 373.5h5v5h-5v-5zM599.5 373.5h5v5h-5v-5zM594.5 373.5h5v5h-5v-5zM589.5 373.5h5v5h-5v-5zM584.5 373.5h5v5h-5v-5zM579.5 373.5h5v5h-5v-5zM574.5 373.5h5v5h-5v-5zM569.5 373.5h5v5h-5v-5zM564.5 373.5h5v5h-5v-5zM559.5 373.5h5v5h-5v-5zM554.5 373.5h5v5h-5v-5zM549.5 373.5h5v5h-5v-5zM544.5 373.5h5v5h-5v-5zM299.5 373.5h5v5h-5v-5zM829.5 373.5h5v5h-5v-5zM824.5 373.5h5v5h-5v-5zM819.5 373.5h5v5h-5v-5zM814.5 373.5h5v5h-5v-5zM809.5 373.5h5v5h-5v-5zM804.5 373.5h5v5h-5v-5zM799.5 373.5h5v5h-5v-5zM794.5 373.5h5v5h-5v-5zM789.5 373.5h5v5h-5v-5zM784.5 373.5h5v5h-5v-5z"/>
        <path d="M539.5 373.5h5v5h-5v-5zM849.5 373.5h5v5h-5v-5zM844.5 373.5h5v5h-5v-5zM839.5 373.5h5v5h-5v-5zM834.5 373.5h5v5h-5v-5zM859.5 373.5h5v5h-5v-5zM854.5 373.5h5v5h-5v-5zM294.5 373.5h5v5h-5v-5zM289.5 373.5h5v5h-5v-5zM284.5 373.5h5v5h-5v-5zM279.5 373.5h5v5h-5v-5zM274.5 373.5h5v5h-5v-5zM269.5 373.5h5v5h-5v-5zM264.5 373.5h5v5h-5v-5zM259.5 373.5h5v5h-5v-5zM254.5 373.5h5v5h-5v-5zM249.5 373.5h5v5h-5v-5zM244.5 373.5h5v5h-5v-5zM239.5 373.5h5v5h-5v-5zM234.5 373.5h5v5h-5v-5zM229.5 373.5h5v5h-5v-5zM224.5 373.5h5v5h-5v-5zM219.5 373.5h5v5h-5v-5zM214.5 373.5h5v5h-5v-5zM209.5 373.5h5v5h-5v-5zM204.5 373.5h5v5h-5v-5zM199.5 373.5h5v5h-5v-5zM194.5 373.5h5v5h-5v-5zM189.5 373.5h5v5h-5v-5zM184.5 373.5h5v5h-5v-5zM179.5 373.5h5v5h-5v-5zM174.5 373.5h5v5h-5v-5zM169.5 373.5h5v5h-5v-5zM164.5 373.5h5v5h-5v-5zM159.5 373.5h5v5h-5v-5zM154.5 373.5h5v5h-5v-5zM149.5 373.5h5v5h-5v-5zM144.5 373.5h5v5h-5v-5zM139.5 373.5h5v5h-5v-5zM134.5 373.5h5v5h-5v-5zM129.5 373.5h5v5h-5v-5zM124.5 373.5h5v5h-5v-5zM119.5 373.5h5v5h-5v-5zM114.5 373.5h5v5h-5v-5zM109.5 373.5h5v5h-5v-5zM104.5 373.5h5v5h-5v-5zM99.5 373.5h5v5h-5v-5zM94.5 373.5h5v5h-5v-5zM89.5 373.5h5v5h-5v-5zM84.5 373.5h5v5h-5v-5zM79.5 373.5h5v5h-5v-5zM74.5 373.5h5v5h-5v-5zM69.5 373.5h5v5h-5v-5zM64.5 373.5h5v5h-5v-5z"/>
      </g>
      <g>
        <path d="M539.5 368.5h5v5h-5v-5zM534.5 368.5h5v5h-5v-5zM529.5 368.5h5v5h-5v-5zM524.5 368.5h5v5h-5v-5zM519.5 368.5h5v5h-5v-5zM514.5 368.5h5v5h-5v-5zM509.5 368.5h5v5h-5v-5zM504.5 368.5h5v5h-5v-5zM499.5 368.5h5v5h-5v-5zM494.5 368.5h5v5h-5v-5zM489.5 368.5h5v5h-5v-5zM484.5 368.5h5v5h-5v-5zM479.5 368.5h5v5h-5v-5zM474.5 368.5h5v5h-5v-5zM469.5 368.5h5v5h-5v-5zM464.5 368.5h5v5h-5v-5zM459.5 368.5h5v5h-5v-5zM454.5 368.5h5v5h-5v-5zM449.5 368.5h5v5h-5v-5zM444.5 368.5h5v5h-5v-5zM439.5 368.5h5v5h-5v-5zM434.5 368.5h5v5h-5v-5zM429.5 368.5h5v5h-5v-5zM424.5 368.5h5v5h-5v-5zM419.5 368.5h5v5h-5v-5zM414.5 368.5h5v5h-5v-5zM409.5 368.5h5v5h-5v-5zM404.5 368.5h5v5h-5v-5zM399.5 368.5h5v5h-5v-5zM394.5 368.5h5v5h-5v-5zM389.5 368.5h5v5h-5v-5zM384.5 368.5h5v5h-5v-5zM379.5 368.5h5v5h-5v-5zM374.5 368.5h5v5h-5v-5zM369.5 368.5h5v5h-5v-5zM364.5 368.5h5v5h-5v-5zM359.5 368.5h5v5h-5v-5zM354.5 368.5h5v5h-5v-5zM349.5 368.5h5v5h-5v-5zM344.5 368.5h5v5h-5v-5zM339.5 368.5h5v5h-5v-5zM334.5 368.5h5v5h-5v-5zM329.5 368.5h5v5h-5v-5zM324.5 368.5h5v5h-5v-5zM319.5 368.5h5v5h-5v-5zM314.5 368.5h5v5h-5v-5zM309.5 368.5h5v5h-5v-5zM304.5 368.5h5v5h-5v-5zM779.5 368.5h5v5h-5v-5zM774.5 368.5h5v5h-5v-5zM769.5 368.5h5v5h-5v-5zM764.5 368.5h5v5h-5v-5zM759.5 368.5h5v5h-5v-5zM754.5 368.5h5v5h-5v-5zM749.5 368.5h5v5h-5v-5zM744.5 368.5h5v5h-5v-5zM739.5 368.5h5v5h-5v-5zM734.5 368.5h5v5h-5v-5zM729.5 368.5h5v5h-5v-5zM724.5 368.5h5v5h-5v-5zM719.5 368.5h5v5h-5v-5zM714.5 368.5h5v5h-5v-5zM709.5 368.5h5v5h-5v-5zM704.5 368.5h5v5h-5v-5zM699.5 368.5h5v5h-5v-5zM694.5 368.5h5v5h-5v-5zM689.5 368.5h5v5h-5v-5zM684.5 368.5h5v5h-5v-5zM679.5 368.5h5v5h-5v-5zM674.5 368.5h5v5h-5v-5zM669.5 368.5h5v5h-5v-5zM664.5 368.5h5v5h-5v-5zM659.5 368.5h5v5h-5v-5zM654.5 368.5h5v5h-5v-5zM649.5 368.5h5v5h-5v-5zM644.5 368.5h5v5h-5v-5zM639.5 368.5h5v5h-5v-5zM634.5 368.5h5v5h-5v-5zM629.5 368.5h5v5h-5v-5zM624.5 368.5h5v5h-5v-5zM619.5 368.5h5v5h-5v-5zM614.5 368.5h5v5h-5v-5zM609.5 368.5h5v5h-5v-5zM604.5 368.5h5v5h-5v-5zM599.5 368.5h5v5h-5v-5zM594.5 368.5h5v5h-5v-5zM589.5 368.5h5v5h-5v-5zM584.5 368.5h5v5h-5v-5zM579.5 368.5h5v5h-5v-5zM574.5 368.5h5v5h-5v-5zM569.5 368.5h5v5h-5v-5zM564.5 368.5h5v5h-5v-5zM559.5 368.5h5v5h-5v-5zM554.5 368.5h5v5h-5v-5zM549.5 368.5h5v5h-5v-5zM544.5 368.5h5v5h-5v-5zM299.5 368.5h5v5h-5v-5zM829.5 368.5h5v5h-5v-5zM824.5 368.5h5v5h-5v-5zM819.5 368.5h5v5h-5v-5zM814.5 368.5h5v5h-5v-5zM809.5 368.5h5v5h-5v-5zM804.5 368.5h5v5h-5v-5zM799.5 368.5h5v5h-5v-5zM794.5 368.5h5v5h-5v-5zM789.5 368.5h5v5h-5v-5zM784.5 368.5h5v5h-5v-5z"/>
        <path d="M539.5 368.5h5v5h-5v-5zM849.5 368.5h5v5h-5v-5zM844.5 368.5h5v5h-5v-5zM839.5 368.5h5v5h-5v-5zM834.5 368.5h5v5h-5v-5zM859.5 368.5h5v5h-5v-5zM854.5 368.5h5v5h-5v-5zM294.5 368.5h5v5h-5v-5zM289.5 368.5h5v5h-5v-5zM284.5 368.5h5v5h-5v-5zM279.5 368.5h5v5h-5v-5zM274.5 368.5h5v5h-5v-5zM269.5 368.5h5v5h-5v-5zM264.5 368.5h5v5h-5v-5zM259.5 368.5h5v5h-5v-5zM254.5 368.5h5v5h-5v-5zM249.5 368.5h5v5h-5v-5zM244.5 368.5h5v5h-5v-5zM239.5 368.5h5v5h-5v-5zM234.5 368.5h5v5h-5v-5zM229.5 368.5h5v5h-5v-5zM224.5 368.5h5v5h-5v-5zM219.5 368.5h5v5h-5v-5zM214.5 368.5h5v5h-5v-5zM209.5 368.5h5v5h-5v-5zM204.5 368.5h5v5h-5v-5zM199.5 368.5h5v5h-5v-5zM194.5 368.5h5v5h-5v-5zM189.5 368.5h5v5h-5v-5zM184.5 368.5h5v5h-5v-5zM179.5 368.5h5v5h-5v-5zM174.5 368.5h5v5h-5v-5zM169.5 368.5h5v5h-5v-5zM164.5 368.5h5v5h-5v-5zM159.5 368.5h5v5h-5v-5zM154.5 368.5h5v5h-5v-5zM149.5 368.5h5v5h-5v-5zM144.5 368.5h5v5h-5v-5zM139.5 368.5h5v5h-5v-5zM134.5 368.5h5v5h-5v-5zM129.5 368.5h5v5h-5v-5zM124.5 368.5h5v5h-5v-5zM119.5 368.5h5v5h-5v-5zM114.5 368.5h5v5h-5v-5zM109.5 368.5h5v5h-5v-5zM104.5 368.5h5v5h-5v-5zM99.5 368.5h5v5h-5v-5zM94.5 368.5h5v5h-5v-5zM89.5 368.5h5v5h-5v-5zM84.5 368.5h5v5h-5v-5zM79.5 368.5h5v5h-5v-5zM74.5 368.5h5v5h-5v-5zM69.5 368.5h5v5h-5v-5zM64.5 368.5h5v5h-5v-5z"/>
      </g>
      <g>
        <path d="M539.5 363.5h5v5h-5v-5zM534.5 363.5h5v5h-5v-5zM529.5 363.5h5v5h-5v-5zM524.5 363.5h5v5h-5v-5zM519.5 363.5h5v5h-5v-5zM514.5 363.5h5v5h-5v-5zM509.5 363.5h5v5h-5v-5zM504.5 363.5h5v5h-5v-5zM499.5 363.5h5v5h-5v-5zM494.5 363.5h5v5h-5v-5zM489.5 363.5h5v5h-5v-5zM484.5 363.5h5v5h-5v-5zM479.5 363.5h5v5h-5v-5zM474.5 363.5h5v5h-5v-5zM469.5 363.5h5v5h-5v-5zM464.5 363.5h5v5h-5v-5zM459.5 363.5h5v5h-5v-5zM454.5 363.5h5v5h-5v-5zM449.5 363.5h5v5h-5v-5zM444.5 363.5h5v5h-5v-5zM439.5 363.5h5v5h-5v-5zM434.5 363.5h5v5h-5v-5zM429.5 363.5h5v5h-5v-5zM424.5 363.5h5v5h-5v-5zM419.5 363.5h5v5h-5v-5zM414.5 363.5h5v5h-5v-5zM409.5 363.5h5v5h-5v-5zM404.5 363.5h5v5h-5v-5zM399.5 363.5h5v5h-5v-5zM394.5 363.5h5v5h-5v-5zM389.5 363.5h5v5h-5v-5zM384.5 363.5h5v5h-5v-5zM379.5 363.5h5v5h-5v-5zM374.5 363.5h5v5h-5v-5zM369.5 363.5h5v5h-5v-5zM364.5 363.5h5v5h-5v-5zM359.5 363.5h5v5h-5v-5zM354.5 363.5h5v5h-5v-5zM349.5 363.5h5v5h-5v-5zM344.5 363.5h5v5h-5v-5zM339.5 363.5h5v5h-5v-5zM334.5 363.5h5v5h-5v-5zM329.5 363.5h5v5h-5v-5zM324.5 363.5h5v5h-5v-5zM319.5 363.5h5v5h-5v-5zM314.5 363.5h5v5h-5v-5zM309.5 363.5h5v5h-5v-5zM304.5 363.5h5v5h-5v-5zM779.5 363.5h5v5h-5v-5zM774.5 363.5h5v5h-5v-5zM769.5 363.5h5v5h-5v-5zM764.5 363.5h5v5h-5v-5zM759.5 363.5h5v5h-5v-5zM754.5 363.5h5v5h-5v-5zM749.5 363.5h5v5h-5v-5zM744.5 363.5h5v5h-5v-5zM739.5 363.5h5v5h-5v-5zM734.5 363.5h5v5h-5v-5zM729.5 363.5h5v5h-5v-5zM724.5 363.5h5v5h-5v-5zM719.5 363.5h5v5h-5v-5zM714.5 363.5h5v5h-5v-5zM709.5 363.5h5v5h-5v-5zM704.5 363.5h5v5h-5v-5zM699.5 363.5h5v5h-5v-5zM694.5 363.5h5v5h-5v-5zM689.5 363.5h5v5h-5v-5zM684.5 363.5h5v5h-5v-5zM679.5 363.5h5v5h-5v-5zM674.5 363.5h5v5h-5v-5zM669.5 363.5h5v5h-5v-5zM664.5 363.5h5v5h-5v-5zM659.5 363.5h5v5h-5v-5zM654.5 363.5h5v5h-5v-5zM649.5 363.5h5v5h-5v-5zM644.5 363.5h5v5h-5v-5zM639.5 363.5h5v5h-5v-5zM634.5 363.5h5v5h-5v-5zM629.5 363.5h5v5h-5v-5zM624.5 363.5h5v5h-5v-5zM619.5 363.5h5v5h-5v-5zM614.5 363.5h5v5h-5v-5zM609.5 363.5h5v5h-5v-5zM604.5 363.5h5v5h-5v-5zM599.5 363.5h5v5h-5v-5zM594.5 363.5h5v5h-5v-5zM589.5 363.5h5v5h-5v-5zM584.5 363.5h5v5h-5v-5zM579.5 363.5h5v5h-5v-5zM574.5 363.5h5v5h-5v-5zM569.5 363.5h5v5h-5v-5zM564.5 363.5h5v5h-5v-5zM559.5 363.5h5v5h-5v-5zM554.5 363.5h5v5h-5v-5zM549.5 363.5h5v5h-5v-5zM544.5 363.5h5v5h-5v-5zM299.5 363.5h5v5h-5v-5zM829.5 363.5h5v5h-5v-5zM824.5 363.5h5v5h-5v-5zM819.5 363.5h5v5h-5v-5zM814.5 363.5h5v5h-5v-5zM809.5 363.5h5v5h-5v-5zM804.5 363.5h5v5h-5v-5zM799.5 363.5h5v5h-5v-5zM794.5 363.5h5v5h-5v-5zM789.5 363.5h5v5h-5v-5zM784.5 363.5h5v5h-5v-5z"/>
        <path d="M539.5 363.5h5v5h-5v-5zM849.5 363.5h5v5h-5v-5zM844.5 363.5h5v5h-5v-5zM839.5 363.5h5v5h-5v-5zM834.5 363.5h5v5h-5v-5zM859.5 363.5h5v5h-5v-5zM854.5 363.5h5v5h-5v-5zM294.5 363.5h5v5h-5v-5zM289.5 363.5h5v5h-5v-5zM284.5 363.5h5v5h-5v-5zM279.5 363.5h5v5h-5v-5zM274.5 363.5h5v5h-5v-5zM269.5 363.5h5v5h-5v-5zM264.5 363.5h5v5h-5v-5zM259.5 363.5h5v5h-5v-5zM254.5 363.5h5v5h-5v-5zM249.5 363.5h5v5h-5v-5zM244.5 363.5h5v5h-5v-5zM239.5 363.5h5v5h-5v-5zM234.5 363.5h5v5h-5v-5zM229.5 363.5h5v5h-5v-5zM224.5 363.5h5v5h-5v-5zM219.5 363.5h5v5h-5v-5zM214.5 363.5h5v5h-5v-5zM209.5 363.5h5v5h-5v-5zM204.5 363.5h5v5h-5v-5zM199.5 363.5h5v5h-5v-5zM194.5 363.5h5v5h-5v-5zM189.5 363.5h5v5h-5v-5zM184.5 363.5h5v5h-5v-5zM179.5 363.5h5v5h-5v-5zM174.5 363.5h5v5h-5v-5zM169.5 363.5h5v5h-5v-5zM164.5 363.5h5v5h-5v-5zM159.5 363.5h5v5h-5v-5zM154.5 363.5h5v5h-5v-5zM149.5 363.5h5v5h-5v-5zM144.5 363.5h5v5h-5v-5zM139.5 363.5h5v5h-5v-5zM134.5 363.5h5v5h-5v-5zM129.5 363.5h5v5h-5v-5zM124.5 363.5h5v5h-5v-5zM119.5 363.5h5v5h-5v-5zM114.5 363.5h5v5h-5v-5zM109.5 363.5h5v5h-5v-5zM104.5 363.5h5v5h-5v-5zM99.5 363.5h5v5h-5v-5zM94.5 363.5h5v5h-5v-5zM89.5 363.5h5v5h-5v-5zM84.5 363.5h5v5h-5v-5zM79.5 363.5h5v5h-5v-5zM74.5 363.5h5v5h-5v-5zM69.5 363.5h5v5h-5v-5zM64.5 363.5h5v5h-5v-5z"/>
      </g>
      <g>
        <path d="M539.5 358.5h5v5h-5v-5zM534.5 358.5h5v5h-5v-5zM529.5 358.5h5v5h-5v-5zM524.5 358.5h5v5h-5v-5zM519.5 358.5h5v5h-5v-5zM514.5 358.5h5v5h-5v-5zM509.5 358.5h5v5h-5v-5zM504.5 358.5h5v5h-5v-5zM499.5 358.5h5v5h-5v-5zM494.5 358.5h5v5h-5v-5zM489.5 358.5h5v5h-5v-5zM484.5 358.5h5v5h-5v-5zM479.5 358.5h5v5h-5v-5zM474.5 358.5h5v5h-5v-5zM469.5 358.5h5v5h-5v-5zM464.5 358.5h5v5h-5v-5zM459.5 358.5h5v5h-5v-5zM454.5 358.5h5v5h-5v-5zM449.5 358.5h5v5h-5v-5zM444.5 358.5h5v5h-5v-5zM439.5 358.5h5v5h-5v-5zM434.5 358.5h5v5h-5v-5zM429.5 358.5h5v5h-5v-5zM424.5 358.5h5v5h-5v-5zM419.5 358.5h5v5h-5v-5zM414.5 358.5h5v5h-5v-5zM409.5 358.5h5v5h-5v-5zM404.5 358.5h5v5h-5v-5zM399.5 358.5h5v5h-5v-5zM394.5 358.5h5v5h-5v-5zM389.5 358.5h5v5h-5v-5zM384.5 358.5h5v5h-5v-5zM379.5 358.5h5v5h-5v-5zM374.5 358.5h5v5h-5v-5zM369.5 358.5h5v5h-5v-5zM364.5 358.5h5v5h-5v-5zM359.5 358.5h5v5h-5v-5zM354.5 358.5h5v5h-5v-5zM349.5 358.5h5v5h-5v-5zM344.5 358.5h5v5h-5v-5zM339.5 358.5h5v5h-5v-5zM334.5 358.5h5v5h-5v-5zM329.5 358.5h5v5h-5v-5zM324.5 358.5h5v5h-5v-5zM319.5 358.5h5v5h-5v-5zM314.5 358.5h5v5h-5v-5zM309.5 358.5h5v5h-5v-5zM304.5 358.5h5v5h-5v-5zM779.5 358.5h5v5h-5v-5zM774.5 358.5h5v5h-5v-5zM769.5 358.5h5v5h-5v-5zM764.5 358.5h5v5h-5v-5zM759.5 358.5h5v5h-5v-5zM754.5 358.5h5v5h-5v-5zM749.5 358.5h5v5h-5v-5zM744.5 358.5h5v5h-5v-5zM739.5 358.5h5v5h-5v-5zM734.5 358.5h5v5h-5v-5zM729.5 358.5h5v5h-5v-5zM724.5 358.5h5v5h-5v-5zM719.5 358.5h5v5h-5v-5zM714.5 358.5h5v5h-5v-5zM709.5 358.5h5v5h-5v-5zM704.5 358.5h5v5h-5v-5zM699.5 358.5h5v5h-5v-5zM694.5 358.5h5v5h-5v-5zM689.5 358.5h5v5h-5v-5zM684.5 358.5h5v5h-5v-5zM679.5 358.5h5v5h-5v-5zM674.5 358.5h5v5h-5v-5zM669.5 358.5h5v5h-5v-5zM664.5 358.5h5v5h-5v-5zM659.5 358.5h5v5h-5v-5zM654.5 358.5h5v5h-5v-5zM649.5 358.5h5v5h-5v-5zM644.5 358.5h5v5h-5v-5zM639.5 358.5h5v5h-5v-5zM634.5 358.5h5v5h-5v-5zM629.5 358.5h5v5h-5v-5zM624.5 358.5h5v5h-5v-5zM619.5 358.5h5v5h-5v-5zM614.5 358.5h5v5h-5v-5zM609.5 358.5h5v5h-5v-5zM604.5 358.5h5v5h-5v-5zM599.5 358.5h5v5h-5v-5zM594.5 358.5h5v5h-5v-5zM589.5 358.5h5v5h-5v-5zM584.5 358.5h5v5h-5v-5zM579.5 358.5h5v5h-5v-5zM574.5 358.5h5v5h-5v-5zM569.5 358.5h5v5h-5v-5zM564.5 358.5h5v5h-5v-5zM559.5 358.5h5v5h-5v-5zM554.5 358.5h5v5h-5v-5zM549.5 358.5h5v5h-5v-5zM544.5 358.5h5v5h-5v-5zM299.5 358.5h5v5h-5v-5zM829.5 358.5h5v5h-5v-5zM824.5 358.5h5v5h-5v-5zM819.5 358.5h5v5h-5v-5zM814.5 358.5h5v5h-5v-5zM809.5 358.5h5v5h-5v-5zM804.5 358.5h5v5h-5v-5zM799.5 358.5h5v5h-5v-5zM794.5 358.5h5v5h-5v-5zM789.5 358.5h5v5h-5v-5zM784.5 358.5h5v5h-5v-5z"/>
        <path d="M539.5 358.5h5v5h-5v-5zM849.5 358.5h5v5h-5v-5zM844.5 358.5h5v5h-5v-5zM839.5 358.5h5v5h-5v-5zM834.5 358.5h5v5h-5v-5zM859.5 358.5h5v5h-5v-5zM854.5 358.5h5v5h-5v-5zM294.5 358.5h5v5h-5v-5zM289.5 358.5h5v5h-5v-5zM284.5 358.5h5v5h-5v-5zM279.5 358.5h5v5h-5v-5zM274.5 358.5h5v5h-5v-5zM269.5 358.5h5v5h-5v-5zM264.5 358.5h5v5h-5v-5zM259.5 358.5h5v5h-5v-5zM254.5 358.5h5v5h-5v-5zM249.5 358.5h5v5h-5v-5zM244.5 358.5h5v5h-5v-5zM239.5 358.5h5v5h-5v-5zM234.5 358.5h5v5h-5v-5zM229.5 358.5h5v5h-5v-5zM224.5 358.5h5v5h-5v-5zM219.5 358.5h5v5h-5v-5zM214.5 358.5h5v5h-5v-5zM209.5 358.5h5v5h-5v-5zM204.5 358.5h5v5h-5v-5zM199.5 358.5h5v5h-5v-5zM194.5 358.5h5v5h-5v-5zM189.5 358.5h5v5h-5v-5zM184.5 358.5h5v5h-5v-5zM179.5 358.5h5v5h-5v-5zM174.5 358.5h5v5h-5v-5zM169.5 358.5h5v5h-5v-5zM164.5 358.5h5v5h-5v-5zM159.5 358.5h5v5h-5v-5zM154.5 358.5h5v5h-5v-5zM149.5 358.5h5v5h-5v-5zM144.5 358.5h5v5h-5v-5zM139.5 358.5h5v5h-5v-5zM134.5 358.5h5v5h-5v-5zM129.5 358.5h5v5h-5v-5zM124.5 358.5h5v5h-5v-5zM119.5 358.5h5v5h-5v-5zM114.5 358.5h5v5h-5v-5zM109.5 358.5h5v5h-5v-5zM104.5 358.5h5v5h-5v-5zM99.5 358.5h5v5h-5v-5zM94.5 358.5h5v5h-5v-5zM89.5 358.5h5v5h-5v-5zM84.5 358.5h5v5h-5v-5zM79.5 358.5h5v5h-5v-5zM74.5 358.5h5v5h-5v-5zM69.5 358.5h5v5h-5v-5zM64.5 358.5h5v5h-5v-5z"/>
      </g>
      <g>
        <path d="M539.5 353.5h5v5h-5v-5zM534.5 353.5h5v5h-5v-5zM529.5 353.5h5v5h-5v-5zM524.5 353.5h5v5h-5v-5zM519.5 353.5h5v5h-5v-5zM514.5 353.5h5v5h-5v-5zM509.5 353.5h5v5h-5v-5zM504.5 353.5h5v5h-5v-5zM499.5 353.5h5v5h-5v-5zM494.5 353.5h5v5h-5v-5zM489.5 353.5h5v5h-5v-5zM484.5 353.5h5v5h-5v-5zM479.5 353.5h5v5h-5v-5zM474.5 353.5h5v5h-5v-5zM469.5 353.5h5v5h-5v-5zM464.5 353.5h5v5h-5v-5zM459.5 353.5h5v5h-5v-5zM454.5 353.5h5v5h-5v-5zM449.5 353.5h5v5h-5v-5zM444.5 353.5h5v5h-5v-5zM439.5 353.5h5v5h-5v-5zM434.5 353.5h5v5h-5v-5zM429.5 353.5h5v5h-5v-5zM424.5 353.5h5v5h-5v-5zM419.5 353.5h5v5h-5v-5zM414.5 353.5h5v5h-5v-5zM409.5 353.5h5v5h-5v-5zM404.5 353.5h5v5h-5v-5zM399.5 353.5h5v5h-5v-5zM394.5 353.5h5v5h-5v-5zM389.5 353.5h5v5h-5v-5zM384.5 353.5h5v5h-5v-5zM379.5 353.5h5v5h-5v-5zM374.5 353.5h5v5h-5v-5zM369.5 353.5h5v5h-5v-5zM364.5 353.5h5v5h-5v-5zM359.5 353.5h5v5h-5v-5zM354.5 353.5h5v5h-5v-5zM349.5 353.5h5v5h-5v-5zM344.5 353.5h5v5h-5v-5zM339.5 353.5h5v5h-5v-5zM334.5 353.5h5v5h-5v-5zM329.5 353.5h5v5h-5v-5zM324.5 353.5h5v5h-5v-5zM319.5 353.5h5v5h-5v-5zM314.5 353.5h5v5h-5v-5zM309.5 353.5h5v5h-5v-5zM304.5 353.5h5v5h-5v-5zM779.5 353.5h5v5h-5v-5zM774.5 353.5h5v5h-5v-5zM769.5 353.5h5v5h-5v-5zM764.5 353.5h5v5h-5v-5zM759.5 353.5h5v5h-5v-5zM754.5 353.5h5v5h-5v-5zM749.5 353.5h5v5h-5v-5zM744.5 353.5h5v5h-5v-5zM739.5 353.5h5v5h-5v-5zM734.5 353.5h5v5h-5v-5zM729.5 353.5h5v5h-5v-5zM724.5 353.5h5v5h-5v-5zM719.5 353.5h5v5h-5v-5zM714.5 353.5h5v5h-5v-5zM709.5 353.5h5v5h-5v-5zM704.5 353.5h5v5h-5v-5zM699.5 353.5h5v5h-5v-5zM694.5 353.5h5v5h-5v-5zM689.5 353.5h5v5h-5v-5zM684.5 353.5h5v5h-5v-5zM679.5 353.5h5v5h-5v-5zM674.5 353.5h5v5h-5v-5zM669.5 353.5h5v5h-5v-5zM664.5 353.5h5v5h-5v-5zM659.5 353.5h5v5h-5v-5zM654.5 353.5h5v5h-5v-5zM649.5 353.5h5v5h-5v-5zM644.5 353.5h5v5h-5v-5zM639.5 353.5h5v5h-5v-5zM634.5 353.5h5v5h-5v-5zM629.5 353.5h5v5h-5v-5zM624.5 353.5h5v5h-5v-5zM619.5 353.5h5v5h-5v-5zM614.5 353.5h5v5h-5v-5zM609.5 353.5h5v5h-5v-5zM604.5 353.5h5v5h-5v-5zM599.5 353.5h5v5h-5v-5zM594.5 353.5h5v5h-5v-5zM589.5 353.5h5v5h-5v-5zM584.5 353.5h5v5h-5v-5zM579.5 353.5h5v5h-5v-5zM574.5 353.5h5v5h-5v-5zM569.5 353.5h5v5h-5v-5zM564.5 353.5h5v5h-5v-5zM559.5 353.5h5v5h-5v-5zM554.5 353.5h5v5h-5v-5zM549.5 353.5h5v5h-5v-5zM544.5 353.5h5v5h-5v-5zM299.5 353.5h5v5h-5v-5zM829.5 353.5h5v5h-5v-5zM824.5 353.5h5v5h-5v-5zM819.5 353.5h5v5h-5v-5zM814.5 353.5h5v5h-5v-5zM809.5 353.5h5v5h-5v-5zM804.5 353.5h5v5h-5v-5zM799.5 353.5h5v5h-5v-5zM794.5 353.5h5v5h-5v-5zM789.5 353.5h5v5h-5v-5zM784.5 353.5h5v5h-5v-5z"/>
        <path d="M539.5 353.5h5v5h-5v-5zM849.5 353.5h5v5h-5v-5zM844.5 353.5h5v5h-5v-5zM839.5 353.5h5v5h-5v-5zM834.5 353.5h5v5h-5v-5zM859.5 353.5h5v5h-5v-5zM854.5 353.5h5v5h-5v-5zM294.5 353.5h5v5h-5v-5zM289.5 353.5h5v5h-5v-5zM284.5 353.5h5v5h-5v-5zM279.5 353.5h5v5h-5v-5zM274.5 353.5h5v5h-5v-5zM269.5 353.5h5v5h-5v-5zM264.5 353.5h5v5h-5v-5zM259.5 353.5h5v5h-5v-5zM254.5 353.5h5v5h-5v-5zM249.5 353.5h5v5h-5v-5zM244.5 353.5h5v5h-5v-5zM239.5 353.5h5v5h-5v-5zM234.5 353.5h5v5h-5v-5zM229.5 353.5h5v5h-5v-5zM224.5 353.5h5v5h-5v-5zM219.5 353.5h5v5h-5v-5zM214.5 353.5h5v5h-5v-5zM209.5 353.5h5v5h-5v-5zM204.5 353.5h5v5h-5v-5zM199.5 353.5h5v5h-5v-5zM194.5 353.5h5v5h-5v-5zM189.5 353.5h5v5h-5v-5zM184.5 353.5h5v5h-5v-5zM179.5 353.5h5v5h-5v-5zM174.5 353.5h5v5h-5v-5zM169.5 353.5h5v5h-5v-5zM164.5 353.5h5v5h-5v-5zM159.5 353.5h5v5h-5v-5zM154.5 353.5h5v5h-5v-5zM149.5 353.5h5v5h-5v-5zM144.5 353.5h5v5h-5v-5zM139.5 353.5h5v5h-5v-5zM134.5 353.5h5v5h-5v-5zM129.5 353.5h5v5h-5v-5zM124.5 353.5h5v5h-5v-5zM119.5 353.5h5v5h-5v-5zM114.5 353.5h5v5h-5v-5zM109.5 353.5h5v5h-5v-5zM104.5 353.5h5v5h-5v-5zM99.5 353.5h5v5h-5v-5zM94.5 353.5h5v5h-5v-5zM89.5 353.5h5v5h-5v-5zM84.5 353.5h5v5h-5v-5zM79.5 353.5h5v5h-5v-5zM74.5 353.5h5v5h-5v-5zM69.5 353.5h5v5h-5v-5zM64.5 353.5h5v5h-5v-5z"/>
      </g>
      <g>
        <path d="M539.5 348.5h5v5h-5v-5zM534.5 348.5h5v5h-5v-5zM529.5 348.5h5v5h-5v-5zM524.5 348.5h5v5h-5v-5zM519.5 348.5h5v5h-5v-5zM514.5 348.5h5v5h-5v-5zM509.5 348.5h5v5h-5v-5zM504.5 348.5h5v5h-5v-5zM499.5 348.5h5v5h-5v-5zM494.5 348.5h5v5h-5v-5zM489.5 348.5h5v5h-5v-5zM484.5 348.5h5v5h-5v-5zM479.5 348.5h5v5h-5v-5zM474.5 348.5h5v5h-5v-5zM469.5 348.5h5v5h-5v-5zM464.5 348.5h5v5h-5v-5zM459.5 348.5h5v5h-5v-5zM454.5 348.5h5v5h-5v-5zM449.5 348.5h5v5h-5v-5zM444.5 348.5h5v5h-5v-5zM439.5 348.5h5v5h-5v-5zM434.5 348.5h5v5h-5v-5zM429.5 348.5h5v5h-5v-5zM424.5 348.5h5v5h-5v-5zM419.5 348.5h5v5h-5v-5zM414.5 348.5h5v5h-5v-5zM409.5 348.5h5v5h-5v-5zM404.5 348.5h5v5h-5v-5zM399.5 348.5h5v5h-5v-5zM394.5 348.5h5v5h-5v-5zM389.5 348.5h5v5h-5v-5zM384.5 348.5h5v5h-5v-5zM379.5 348.5h5v5h-5v-5zM374.5 348.5h5v5h-5v-5zM369.5 348.5h5v5h-5v-5zM364.5 348.5h5v5h-5v-5zM359.5 348.5h5v5h-5v-5zM354.5 348.5h5v5h-5v-5zM349.5 348.5h5v5h-5v-5zM344.5 348.5h5v5h-5v-5zM339.5 348.5h5v5h-5v-5zM334.5 348.5h5v5h-5v-5zM329.5 348.5h5v5h-5v-5zM324.5 348.5h5v5h-5v-5zM319.5 348.5h5v5h-5v-5zM314.5 348.5h5v5h-5v-5zM309.5 348.5h5v5h-5v-5zM304.5 348.5h5v5h-5v-5zM779.5 348.5h5v5h-5v-5zM774.5 348.5h5v5h-5v-5zM769.5 348.5h5v5h-5v-5zM764.5 348.5h5v5h-5v-5zM759.5 348.5h5v5h-5v-5zM754.5 348.5h5v5h-5v-5zM749.5 348.5h5v5h-5v-5zM744.5 348.5h5v5h-5v-5zM739.5 348.5h5v5h-5v-5zM734.5 348.5h5v5h-5v-5zM729.5 348.5h5v5h-5v-5zM724.5 348.5h5v5h-5v-5zM719.5 348.5h5v5h-5v-5zM714.5 348.5h5v5h-5v-5zM709.5 348.5h5v5h-5v-5zM704.5 348.5h5v5h-5v-5zM699.5 348.5h5v5h-5v-5zM694.5 348.5h5v5h-5v-5zM689.5 348.5h5v5h-5v-5zM684.5 348.5h5v5h-5v-5zM679.5 348.5h5v5h-5v-5zM674.5 348.5h5v5h-5v-5zM669.5 348.5h5v5h-5v-5zM664.5 348.5h5v5h-5v-5zM659.5 348.5h5v5h-5v-5zM654.5 348.5h5v5h-5v-5zM649.5 348.5h5v5h-5v-5zM644.5 348.5h5v5h-5v-5zM639.5 348.5h5v5h-5v-5zM634.5 348.5h5v5h-5v-5zM629.5 348.5h5v5h-5v-5zM624.5 348.5h5v5h-5v-5zM619.5 348.5h5v5h-5v-5zM614.5 348.5h5v5h-5v-5zM609.5 348.5h5v5h-5v-5zM604.5 348.5h5v5h-5v-5zM599.5 348.5h5v5h-5v-5zM594.5 348.5h5v5h-5v-5zM589.5 348.5h5v5h-5v-5zM584.5 348.5h5v5h-5v-5zM579.5 348.5h5v5h-5v-5zM574.5 348.5h5v5h-5v-5zM569.5 348.5h5v5h-5v-5zM564.5 348.5h5v5h-5v-5zM559.5 348.5h5v5h-5v-5zM554.5 348.5h5v5h-5v-5zM549.5 348.5h5v5h-5v-5zM544.5 348.5h5v5h-5v-5zM299.5 348.5h5v5h-5v-5zM829.5 348.5h5v5h-5v-5zM824.5 348.5h5v5h-5v-5zM819.5 348.5h5v5h-5v-5zM814.5 348.5h5v5h-5v-5zM809.5 348.5h5v5h-5v-5zM804.5 348.5h5v5h-5v-5zM799.5 348.5h5v5h-5v-5zM794.5 348.5h5v5h-5v-5zM789.5 348.5h5v5h-5v-5zM784.5 348.5h5v5h-5v-5z"/>
        <path d="M539.5 348.5h5v5h-5v-5zM849.5 348.5h5v5h-5v-5zM844.5 348.5h5v5h-5v-5zM839.5 348.5h5v5h-5v-5zM834.5 348.5h5v5h-5v-5zM859.5 348.5h5v5h-5v-5zM854.5 348.5h5v5h-5v-5zM294.5 348.5h5v5h-5v-5zM289.5 348.5h5v5h-5v-5zM284.5 348.5h5v5h-5v-5zM279.5 348.5h5v5h-5v-5zM274.5 348.5h5v5h-5v-5zM269.5 348.5h5v5h-5v-5zM264.5 348.5h5v5h-5v-5zM259.5 348.5h5v5h-5v-5zM254.5 348.5h5v5h-5v-5zM249.5 348.5h5v5h-5v-5zM244.5 348.5h5v5h-5v-5zM239.5 348.5h5v5h-5v-5zM234.5 348.5h5v5h-5v-5zM229.5 348.5h5v5h-5v-5zM224.5 348.5h5v5h-5v-5zM219.5 348.5h5v5h-5v-5zM214.5 348.5h5v5h-5v-5zM209.5 348.5h5v5h-5v-5zM204.5 348.5h5v5h-5v-5zM199.5 348.5h5v5h-5v-5zM194.5 348.5h5v5h-5v-5zM189.5 348.5h5v5h-5v-5zM184.5 348.5h5v5h-5v-5zM179.5 348.5h5v5h-5v-5zM174.5 348.5h5v5h-5v-5zM169.5 348.5h5v5h-5v-5zM164.5 348.5h5v5h-5v-5zM159.5 348.5h5v5h-5v-5zM154.5 348.5h5v5h-5v-5zM149.5 348.5h5v5h-5v-5zM144.5 348.5h5v5h-5v-5zM139.5 348.5h5v5h-5v-5zM134.5 348.5h5v5h-5v-5zM129.5 348.5h5v5h-5v-5zM124.5 348.5h5v5h-5v-5zM119.5 348.5h5v5h-5v-5zM114.5 348.5h5v5h-5v-5zM109.5 348.5h5v5h-5v-5zM104.5 348.5h5v5h-5v-5zM99.5 348.5h5v5h-5v-5zM94.5 348.5h5v5h-5v-5zM89.5 348.5h5v5h-5v-5zM84.5 348.5h5v5h-5v-5zM79.5 348.5h5v5h-5v-5zM74.5 348.5h5v5h-5v-5zM69.5 348.5h5v5h-5v-5zM64.5 348.5h5v5h-5v-5z"/>
      </g>
      <g>
        <path d="M539.5 343.5h5v5h-5v-5zM534.5 343.5h5v5h-5v-5zM529.5 343.5h5v5h-5v-5zM524.5 343.5h5v5h-5v-5zM519.5 343.5h5v5h-5v-5zM514.5 343.5h5v5h-5v-5zM509.5 343.5h5v5h-5v-5zM504.5 343.5h5v5h-5v-5zM499.5 343.5h5v5h-5v-5zM494.5 343.5h5v5h-5v-5zM489.5 343.5h5v5h-5v-5zM484.5 343.5h5v5h-5v-5zM479.5 343.5h5v5h-5v-5zM474.5 343.5h5v5h-5v-5zM469.5 343.5h5v5h-5v-5zM464.5 343.5h5v5h-5v-5zM459.5 343.5h5v5h-5v-5zM454.5 343.5h5v5h-5v-5zM449.5 343.5h5v5h-5v-5zM444.5 343.5h5v5h-5v-5zM439.5 343.5h5v5h-5v-5zM434.5 343.5h5v5h-5v-5zM429.5 343.5h5v5h-5v-5zM424.5 343.5h5v5h-5v-5zM419.5 343.5h5v5h-5v-5zM414.5 343.5h5v5h-5v-5zM409.5 343.5h5v5h-5v-5zM404.5 343.5h5v5h-5v-5zM399.5 343.5h5v5h-5v-5zM394.5 343.5h5v5h-5v-5zM389.5 343.5h5v5h-5v-5zM384.5 343.5h5v5h-5v-5zM379.5 343.5h5v5h-5v-5zM374.5 343.5h5v5h-5v-5zM369.5 343.5h5v5h-5v-5zM364.5 343.5h5v5h-5v-5zM359.5 343.5h5v5h-5v-5zM354.5 343.5h5v5h-5v-5zM349.5 343.5h5v5h-5v-5zM344.5 343.5h5v5h-5v-5zM339.5 343.5h5v5h-5v-5zM334.5 343.5h5v5h-5v-5zM329.5 343.5h5v5h-5v-5zM324.5 343.5h5v5h-5v-5zM319.5 343.5h5v5h-5v-5zM314.5 343.5h5v5h-5v-5zM309.5 343.5h5v5h-5v-5zM304.5 343.5h5v5h-5v-5zM779.5 343.5h5v5h-5v-5zM774.5 343.5h5v5h-5v-5zM769.5 343.5h5v5h-5v-5zM764.5 343.5h5v5h-5v-5zM759.5 343.5h5v5h-5v-5zM754.5 343.5h5v5h-5v-5zM749.5 343.5h5v5h-5v-5zM744.5 343.5h5v5h-5v-5zM739.5 343.5h5v5h-5v-5zM734.5 343.5h5v5h-5v-5zM729.5 343.5h5v5h-5v-5zM724.5 343.5h5v5h-5v-5zM719.5 343.5h5v5h-5v-5zM714.5 343.5h5v5h-5v-5zM709.5 343.5h5v5h-5v-5zM704.5 343.5h5v5h-5v-5zM699.5 343.5h5v5h-5v-5zM694.5 343.5h5v5h-5v-5zM689.5 343.5h5v5h-5v-5zM684.5 343.5h5v5h-5v-5zM679.5 343.5h5v5h-5v-5zM674.5 343.5h5v5h-5v-5zM669.5 343.5h5v5h-5v-5zM664.5 343.5h5v5h-5v-5zM659.5 343.5h5v5h-5v-5zM654.5 343.5h5v5h-5v-5zM649.5 343.5h5v5h-5v-5zM644.5 343.5h5v5h-5v-5zM639.5 343.5h5v5h-5v-5zM634.5 343.5h5v5h-5v-5zM629.5 343.5h5v5h-5v-5zM624.5 343.5h5v5h-5v-5zM619.5 343.5h5v5h-5v-5zM614.5 343.5h5v5h-5v-5zM609.5 343.5h5v5h-5v-5zM604.5 343.5h5v5h-5v-5zM599.5 343.5h5v5h-5v-5zM594.5 343.5h5v5h-5v-5zM589.5 343.5h5v5h-5v-5zM584.5 343.5h5v5h-5v-5zM579.5 343.5h5v5h-5v-5zM574.5 343.5h5v5h-5v-5zM569.5 343.5h5v5h-5v-5zM564.5 343.5h5v5h-5v-5zM559.5 343.5h5v5h-5v-5zM554.5 343.5h5v5h-5v-5zM549.5 343.5h5v5h-5v-5zM544.5 343.5h5v5h-5v-5zM299.5 343.5h5v5h-5v-5zM829.5 343.5h5v5h-5v-5zM824.5 343.5h5v5h-5v-5zM819.5 343.5h5v5h-5v-5zM814.5 343.5h5v5h-5v-5zM809.5 343.5h5v5h-5v-5zM804.5 343.5h5v5h-5v-5zM799.5 343.5h5v5h-5v-5zM794.5 343.5h5v5h-5v-5zM789.5 343.5h5v5h-5v-5zM784.5 343.5h5v5h-5v-5z"/>
        <path d="M539.5 343.5h5v5h-5v-5zM849.5 343.5h5v5h-5v-5zM844.5 343.5h5v5h-5v-5zM839.5 343.5h5v5h-5v-5zM834.5 343.5h5v5h-5v-5zM859.5 343.5h5v5h-5v-5zM854.5 343.5h5v5h-5v-5zM294.5 343.5h5v5h-5v-5zM289.5 343.5h5v5h-5v-5zM284.5 343.5h5v5h-5v-5zM279.5 343.5h5v5h-5v-5zM274.5 343.5h5v5h-5v-5zM269.5 343.5h5v5h-5v-5zM264.5 343.5h5v5h-5v-5zM259.5 343.5h5v5h-5v-5zM254.5 343.5h5v5h-5v-5zM249.5 343.5h5v5h-5v-5zM244.5 343.5h5v5h-5v-5zM239.5 343.5h5v5h-5v-5zM234.5 343.5h5v5h-5v-5zM229.5 343.5h5v5h-5v-5zM224.5 343.5h5v5h-5v-5zM219.5 343.5h5v5h-5v-5zM214.5 343.5h5v5h-5v-5zM209.5 343.5h5v5h-5v-5zM204.5 343.5h5v5h-5v-5zM199.5 343.5h5v5h-5v-5zM194.5 343.5h5v5h-5v-5zM189.5 343.5h5v5h-5v-5zM184.5 343.5h5v5h-5v-5zM179.5 343.5h5v5h-5v-5zM174.5 343.5h5v5h-5v-5zM169.5 343.5h5v5h-5v-5zM164.5 343.5h5v5h-5v-5zM159.5 343.5h5v5h-5v-5zM154.5 343.5h5v5h-5v-5zM149.5 343.5h5v5h-5v-5zM144.5 343.5h5v5h-5v-5zM139.5 343.5h5v5h-5v-5zM134.5 343.5h5v5h-5v-5zM129.5 343.5h5v5h-5v-5zM124.5 343.5h5v5h-5v-5zM119.5 343.5h5v5h-5v-5zM114.5 343.5h5v5h-5v-5zM109.5 343.5h5v5h-5v-5zM104.5 343.5h5v5h-5v-5zM99.5 343.5h5v5h-5v-5zM94.5 343.5h5v5h-5v-5zM89.5 343.5h5v5h-5v-5zM84.5 343.5h5v5h-5v-5zM79.5 343.5h5v5h-5v-5zM74.5 343.5h5v5h-5v-5zM69.5 343.5h5v5h-5v-5zM64.5 343.5h5v5h-5v-5z"/>
      </g>
      <g>
        <path d="M539.5 338.5h5v5h-5v-5zM534.5 338.5h5v5h-5v-5zM529.5 338.5h5v5h-5v-5zM524.5 338.5h5v5h-5v-5zM519.5 338.5h5v5h-5v-5zM514.5 338.5h5v5h-5v-5zM509.5 338.5h5v5h-5v-5zM504.5 338.5h5v5h-5v-5zM499.5 338.5h5v5h-5v-5zM494.5 338.5h5v5h-5v-5zM489.5 338.5h5v5h-5v-5zM484.5 338.5h5v5h-5v-5zM479.5 338.5h5v5h-5v-5zM474.5 338.5h5v5h-5v-5zM469.5 338.5h5v5h-5v-5zM464.5 338.5h5v5h-5v-5zM459.5 338.5h5v5h-5v-5zM454.5 338.5h5v5h-5v-5zM449.5 338.5h5v5h-5v-5zM444.5 338.5h5v5h-5v-5zM439.5 338.5h5v5h-5v-5zM434.5 338.5h5v5h-5v-5zM429.5 338.5h5v5h-5v-5zM424.5 338.5h5v5h-5v-5zM419.5 338.5h5v5h-5v-5zM414.5 338.5h5v5h-5v-5zM409.5 338.5h5v5h-5v-5zM404.5 338.5h5v5h-5v-5zM399.5 338.5h5v5h-5v-5zM394.5 338.5h5v5h-5v-5zM389.5 338.5h5v5h-5v-5zM384.5 338.5h5v5h-5v-5zM379.5 338.5h5v5h-5v-5zM374.5 338.5h5v5h-5v-5zM369.5 338.5h5v5h-5v-5zM364.5 338.5h5v5h-5v-5zM359.5 338.5h5v5h-5v-5zM354.5 338.5h5v5h-5v-5zM349.5 338.5h5v5h-5v-5zM344.5 338.5h5v5h-5v-5zM339.5 338.5h5v5h-5v-5zM334.5 338.5h5v5h-5v-5zM329.5 338.5h5v5h-5v-5zM324.5 338.5h5v5h-5v-5zM319.5 338.5h5v5h-5v-5zM314.5 338.5h5v5h-5v-5zM309.5 338.5h5v5h-5v-5zM304.5 338.5h5v5h-5v-5zM779.5 338.5h5v5h-5v-5zM774.5 338.5h5v5h-5v-5zM769.5 338.5h5v5h-5v-5zM764.5 338.5h5v5h-5v-5zM759.5 338.5h5v5h-5v-5zM754.5 338.5h5v5h-5v-5zM749.5 338.5h5v5h-5v-5zM744.5 338.5h5v5h-5v-5zM739.5 338.5h5v5h-5v-5zM734.5 338.5h5v5h-5v-5zM729.5 338.5h5v5h-5v-5zM724.5 338.5h5v5h-5v-5zM719.5 338.5h5v5h-5v-5zM714.5 338.5h5v5h-5v-5zM709.5 338.5h5v5h-5v-5zM704.5 338.5h5v5h-5v-5zM699.5 338.5h5v5h-5v-5zM694.5 338.5h5v5h-5v-5zM689.5 338.5h5v5h-5v-5zM684.5 338.5h5v5h-5v-5zM679.5 338.5h5v5h-5v-5zM674.5 338.5h5v5h-5v-5zM669.5 338.5h5v5h-5v-5zM664.5 338.5h5v5h-5v-5zM659.5 338.5h5v5h-5v-5zM654.5 338.5h5v5h-5v-5zM649.5 338.5h5v5h-5v-5zM644.5 338.5h5v5h-5v-5zM639.5 338.5h5v5h-5v-5zM634.5 338.5h5v5h-5v-5zM629.5 338.5h5v5h-5v-5zM624.5 338.5h5v5h-5v-5zM619.5 338.5h5v5h-5v-5zM614.5 338.5h5v5h-5v-5zM609.5 338.5h5v5h-5v-5zM604.5 338.5h5v5h-5v-5zM599.5 338.5h5v5h-5v-5zM594.5 338.5h5v5h-5v-5zM589.5 338.5h5v5h-5v-5zM584.5 338.5h5v5h-5v-5zM579.5 338.5h5v5h-5v-5zM574.5 338.5h5v5h-5v-5zM569.5 338.5h5v5h-5v-5zM564.5 338.5h5v5h-5v-5zM559.5 338.5h5v5h-5v-5zM554.5 338.5h5v5h-5v-5zM549.5 338.5h5v5h-5v-5zM544.5 338.5h5v5h-5v-5zM299.5 338.5h5v5h-5v-5zM829.5 338.5h5v5h-5v-5zM824.5 338.5h5v5h-5v-5zM819.5 338.5h5v5h-5v-5zM814.5 338.5h5v5h-5v-5zM809.5 338.5h5v5h-5v-5zM804.5 338.5h5v5h-5v-5zM799.5 338.5h5v5h-5v-5zM794.5 338.5h5v5h-5v-5zM789.5 338.5h5v5h-5v-5zM784.5 338.5h5v5h-5v-5z"/>
        <path d="M539.5 338.5h5v5h-5v-5zM849.5 338.5h5v5h-5v-5zM844.5 338.5h5v5h-5v-5zM839.5 338.5h5v5h-5v-5zM834.5 338.5h5v5h-5v-5zM859.5 338.5h5v5h-5v-5zM854.5 338.5h5v5h-5v-5zM294.5 338.5h5v5h-5v-5zM289.5 338.5h5v5h-5v-5zM284.5 338.5h5v5h-5v-5zM279.5 338.5h5v5h-5v-5zM274.5 338.5h5v5h-5v-5zM269.5 338.5h5v5h-5v-5zM264.5 338.5h5v5h-5v-5zM259.5 338.5h5v5h-5v-5zM254.5 338.5h5v5h-5v-5zM249.5 338.5h5v5h-5v-5zM244.5 338.5h5v5h-5v-5zM239.5 338.5h5v5h-5v-5zM234.5 338.5h5v5h-5v-5zM229.5 338.5h5v5h-5v-5zM224.5 338.5h5v5h-5v-5zM219.5 338.5h5v5h-5v-5zM214.5 338.5h5v5h-5v-5zM209.5 338.5h5v5h-5v-5zM204.5 338.5h5v5h-5v-5zM199.5 338.5h5v5h-5v-5zM194.5 338.5h5v5h-5v-5zM189.5 338.5h5v5h-5v-5zM184.5 338.5h5v5h-5v-5zM179.5 338.5h5v5h-5v-5zM174.5 338.5h5v5h-5v-5zM169.5 338.5h5v5h-5v-5zM164.5 338.5h5v5h-5v-5zM159.5 338.5h5v5h-5v-5zM154.5 338.5h5v5h-5v-5zM149.5 338.5h5v5h-5v-5zM144.5 338.5h5v5h-5v-5zM139.5 338.5h5v5h-5v-5zM134.5 338.5h5v5h-5v-5zM129.5 338.5h5v5h-5v-5zM124.5 338.5h5v5h-5v-5zM119.5 338.5h5v5h-5v-5zM114.5 338.5h5v5h-5v-5zM109.5 338.5h5v5h-5v-5zM104.5 338.5h5v5h-5v-5zM99.5 338.5h5v5h-5v-5zM94.5 338.5h5v5h-5v-5zM89.5 338.5h5v5h-5v-5zM84.5 338.5h5v5h-5v-5zM79.5 338.5h5v5h-5v-5zM74.5 338.5h5v5h-5v-5zM69.5 338.5h5v5h-5v-5zM64.5 338.5h5v5h-5v-5z"/>
      </g>
      <g>
        <path d="M539.5 333.5h5v5h-5v-5zM534.5 333.5h5v5h-5v-5zM529.5 333.5h5v5h-5v-5zM524.5 333.5h5v5h-5v-5zM519.5 333.5h5v5h-5v-5zM514.5 333.5h5v5h-5v-5zM509.5 333.5h5v5h-5v-5zM504.5 333.5h5v5h-5v-5zM499.5 333.5h5v5h-5v-5zM494.5 333.5h5v5h-5v-5zM489.5 333.5h5v5h-5v-5zM484.5 333.5h5v5h-5v-5zM479.5 333.5h5v5h-5v-5zM474.5 333.5h5v5h-5v-5zM469.5 333.5h5v5h-5v-5zM464.5 333.5h5v5h-5v-5zM459.5 333.5h5v5h-5v-5zM454.5 333.5h5v5h-5v-5zM449.5 333.5h5v5h-5v-5zM444.5 333.5h5v5h-5v-5zM439.5 333.5h5v5h-5v-5zM434.5 333.5h5v5h-5v-5zM429.5 333.5h5v5h-5v-5zM424.5 333.5h5v5h-5v-5zM419.5 333.5h5v5h-5v-5zM414.5 333.5h5v5h-5v-5zM409.5 333.5h5v5h-5v-5zM404.5 333.5h5v5h-5v-5zM399.5 333.5h5v5h-5v-5zM394.5 333.5h5v5h-5v-5zM389.5 333.5h5v5h-5v-5zM384.5 333.5h5v5h-5v-5zM379.5 333.5h5v5h-5v-5zM374.5 333.5h5v5h-5v-5zM369.5 333.5h5v5h-5v-5zM364.5 333.5h5v5h-5v-5zM359.5 333.5h5v5h-5v-5zM354.5 333.5h5v5h-5v-5zM349.5 333.5h5v5h-5v-5zM344.5 333.5h5v5h-5v-5zM339.5 333.5h5v5h-5v-5zM334.5 333.5h5v5h-5v-5zM329.5 333.5h5v5h-5v-5zM324.5 333.5h5v5h-5v-5zM319.5 333.5h5v5h-5v-5zM314.5 333.5h5v5h-5v-5zM309.5 333.5h5v5h-5v-5zM304.5 333.5h5v5h-5v-5zM779.5 333.5h5v5h-5v-5zM774.5 333.5h5v5h-5v-5zM769.5 333.5h5v5h-5v-5zM764.5 333.5h5v5h-5v-5zM759.5 333.5h5v5h-5v-5zM754.5 333.5h5v5h-5v-5zM749.5 333.5h5v5h-5v-5zM744.5 333.5h5v5h-5v-5zM739.5 333.5h5v5h-5v-5zM734.5 333.5h5v5h-5v-5zM729.5 333.5h5v5h-5v-5zM724.5 333.5h5v5h-5v-5zM719.5 333.5h5v5h-5v-5zM714.5 333.5h5v5h-5v-5zM709.5 333.5h5v5h-5v-5zM704.5 333.5h5v5h-5v-5zM699.5 333.5h5v5h-5v-5zM694.5 333.5h5v5h-5v-5zM689.5 333.5h5v5h-5v-5zM684.5 333.5h5v5h-5v-5zM679.5 333.5h5v5h-5v-5zM674.5 333.5h5v5h-5v-5zM669.5 333.5h5v5h-5v-5zM664.5 333.5h5v5h-5v-5zM659.5 333.5h5v5h-5v-5zM654.5 333.5h5v5h-5v-5zM649.5 333.5h5v5h-5v-5zM644.5 333.5h5v5h-5v-5zM639.5 333.5h5v5h-5v-5zM634.5 333.5h5v5h-5v-5zM629.5 333.5h5v5h-5v-5zM624.5 333.5h5v5h-5v-5zM619.5 333.5h5v5h-5v-5zM614.5 333.5h5v5h-5v-5zM609.5 333.5h5v5h-5v-5zM604.5 333.5h5v5h-5v-5zM599.5 333.5h5v5h-5v-5zM594.5 333.5h5v5h-5v-5zM589.5 333.5h5v5h-5v-5zM584.5 333.5h5v5h-5v-5zM579.5 333.5h5v5h-5v-5zM574.5 333.5h5v5h-5v-5zM569.5 333.5h5v5h-5v-5zM564.5 333.5h5v5h-5v-5zM559.5 333.5h5v5h-5v-5zM554.5 333.5h5v5h-5v-5zM549.5 333.5h5v5h-5v-5zM544.5 333.5h5v5h-5v-5zM299.5 333.5h5v5h-5v-5zM829.5 333.5h5v5h-5v-5zM824.5 333.5h5v5h-5v-5zM819.5 333.5h5v5h-5v-5zM814.5 333.5h5v5h-5v-5zM809.5 333.5h5v5h-5v-5zM804.5 333.5h5v5h-5v-5zM799.5 333.5h5v5h-5v-5zM794.5 333.5h5v5h-5v-5zM789.5 333.5h5v5h-5v-5zM784.5 333.5h5v5h-5v-5z"/>
        <path d="M539.5 333.5h5v5h-5v-5zM849.5 333.5h5v5h-5v-5zM844.5 333.5h5v5h-5v-5zM839.5 333.5h5v5h-5v-5zM834.5 333.5h5v5h-5v-5zM859.5 333.5h5v5h-5v-5zM854.5 333.5h5v5h-5v-5zM294.5 333.5h5v5h-5v-5zM289.5 333.5h5v5h-5v-5zM284.5 333.5h5v5h-5v-5zM279.5 333.5h5v5h-5v-5zM274.5 333.5h5v5h-5v-5zM269.5 333.5h5v5h-5v-5zM264.5 333.5h5v5h-5v-5zM259.5 333.5h5v5h-5v-5zM254.5 333.5h5v5h-5v-5zM249.5 333.5h5v5h-5v-5zM244.5 333.5h5v5h-5v-5zM239.5 333.5h5v5h-5v-5zM234.5 333.5h5v5h-5v-5zM229.5 333.5h5v5h-5v-5zM224.5 333.5h5v5h-5v-5zM219.5 333.5h5v5h-5v-5zM214.5 333.5h5v5h-5v-5zM209.5 333.5h5v5h-5v-5zM204.5 333.5h5v5h-5v-5zM199.5 333.5h5v5h-5v-5zM194.5 333.5h5v5h-5v-5zM189.5 333.5h5v5h-5v-5zM184.5 333.5h5v5h-5v-5zM179.5 333.5h5v5h-5v-5zM174.5 333.5h5v5h-5v-5zM169.5 333.5h5v5h-5v-5zM164.5 333.5h5v5h-5v-5zM159.5 333.5h5v5h-5v-5zM154.5 333.5h5v5h-5v-5zM149.5 333.5h5v5h-5v-5zM144.5 333.5h5v5h-5v-5zM139.5 333.5h5v5h-5v-5zM134.5 333.5h5v5h-5v-5zM129.5 333.5h5v5h-5v-5zM124.5 333.5h5v5h-5v-5zM119.5 333.5h5v5h-5v-5zM114.5 333.5h5v5h-5v-5zM109.5 333.5h5v5h-5v-5zM104.5 333.5h5v5h-5v-5zM99.5 333.5h5v5h-5v-5zM94.5 333.5h5v5h-5v-5zM89.5 333.5h5v5h-5v-5zM84.5 333.5h5v5h-5v-5zM79.5 333.5h5v5h-5v-5zM74.5 333.5h5v5h-5v-5zM69.5 333.5h5v5h-5v-5zM64.5 333.5h5v5h-5v-5z"/>
      </g>
      <g>
        <path d="M539.5 328.5h5v5h-5v-5zM534.5 328.5h5v5h-5v-5zM529.5 328.5h5v5h-5v-5zM524.5 328.5h5v5h-5v-5zM519.5 328.5h5v5h-5v-5zM514.5 328.5h5v5h-5v-5zM509.5 328.5h5v5h-5v-5zM504.5 328.5h5v5h-5v-5zM499.5 328.5h5v5h-5v-5zM494.5 328.5h5v5h-5v-5zM489.5 328.5h5v5h-5v-5zM484.5 328.5h5v5h-5v-5zM479.5 328.5h5v5h-5v-5zM474.5 328.5h5v5h-5v-5zM469.5 328.5h5v5h-5v-5zM464.5 328.5h5v5h-5v-5zM459.5 328.5h5v5h-5v-5zM454.5 328.5h5v5h-5v-5zM449.5 328.5h5v5h-5v-5zM444.5 328.5h5v5h-5v-5zM439.5 328.5h5v5h-5v-5zM434.5 328.5h5v5h-5v-5zM429.5 328.5h5v5h-5v-5zM424.5 328.5h5v5h-5v-5zM419.5 328.5h5v5h-5v-5zM414.5 328.5h5v5h-5v-5zM409.5 328.5h5v5h-5v-5zM404.5 328.5h5v5h-5v-5zM399.5 328.5h5v5h-5v-5zM394.5 328.5h5v5h-5v-5zM389.5 328.5h5v5h-5v-5zM384.5 328.5h5v5h-5v-5zM379.5 328.5h5v5h-5v-5zM374.5 328.5h5v5h-5v-5zM369.5 328.5h5v5h-5v-5zM364.5 328.5h5v5h-5v-5zM359.5 328.5h5v5h-5v-5zM354.5 328.5h5v5h-5v-5zM349.5 328.5h5v5h-5v-5zM344.5 328.5h5v5h-5v-5zM339.5 328.5h5v5h-5v-5zM334.5 328.5h5v5h-5v-5zM329.5 328.5h5v5h-5v-5zM324.5 328.5h5v5h-5v-5zM319.5 328.5h5v5h-5v-5zM314.5 328.5h5v5h-5v-5zM309.5 328.5h5v5h-5v-5zM304.5 328.5h5v5h-5v-5zM779.5 328.5h5v5h-5v-5zM774.5 328.5h5v5h-5v-5zM769.5 328.5h5v5h-5v-5zM764.5 328.5h5v5h-5v-5zM759.5 328.5h5v5h-5v-5zM754.5 328.5h5v5h-5v-5zM749.5 328.5h5v5h-5v-5zM744.5 328.5h5v5h-5v-5zM739.5 328.5h5v5h-5v-5zM734.5 328.5h5v5h-5v-5zM729.5 328.5h5v5h-5v-5zM724.5 328.5h5v5h-5v-5zM719.5 328.5h5v5h-5v-5zM714.5 328.5h5v5h-5v-5zM709.5 328.5h5v5h-5v-5zM704.5 328.5h5v5h-5v-5zM699.5 328.5h5v5h-5v-5zM694.5 328.5h5v5h-5v-5zM689.5 328.5h5v5h-5v-5zM684.5 328.5h5v5h-5v-5zM679.5 328.5h5v5h-5v-5zM674.5 328.5h5v5h-5v-5zM669.5 328.5h5v5h-5v-5zM664.5 328.5h5v5h-5v-5zM659.5 328.5h5v5h-5v-5zM654.5 328.5h5v5h-5v-5zM649.5 328.5h5v5h-5v-5zM644.5 328.5h5v5h-5v-5zM639.5 328.5h5v5h-5v-5zM634.5 328.5h5v5h-5v-5zM629.5 328.5h5v5h-5v-5zM624.5 328.5h5v5h-5v-5zM619.5 328.5h5v5h-5v-5zM614.5 328.5h5v5h-5v-5zM609.5 328.5h5v5h-5v-5zM604.5 328.5h5v5h-5v-5zM599.5 328.5h5v5h-5v-5zM594.5 328.5h5v5h-5v-5zM589.5 328.5h5v5h-5v-5zM584.5 328.5h5v5h-5v-5zM579.5 328.5h5v5h-5v-5zM574.5 328.5h5v5h-5v-5zM569.5 328.5h5v5h-5v-5zM564.5 328.5h5v5h-5v-5zM559.5 328.5h5v5h-5v-5zM554.5 328.5h5v5h-5v-5zM549.5 328.5h5v5h-5v-5zM544.5 328.5h5v5h-5v-5zM299.5 328.5h5v5h-5v-5zM829.5 328.5h5v5h-5v-5zM824.5 328.5h5v5h-5v-5zM819.5 328.5h5v5h-5v-5zM814.5 328.5h5v5h-5v-5zM809.5 328.5h5v5h-5v-5zM804.5 328.5h5v5h-5v-5zM799.5 328.5h5v5h-5v-5zM794.5 328.5h5v5h-5v-5zM789.5 328.5h5v5h-5v-5zM784.5 328.5h5v5h-5v-5z"/>
        <path d="M539.5 328.5h5v5h-5v-5zM849.5 328.5h5v5h-5v-5zM844.5 328.5h5v5h-5v-5zM839.5 328.5h5v5h-5v-5zM834.5 328.5h5v5h-5v-5zM859.5 328.5h5v5h-5v-5zM854.5 328.5h5v5h-5v-5zM294.5 328.5h5v5h-5v-5zM289.5 328.5h5v5h-5v-5zM284.5 328.5h5v5h-5v-5zM279.5 328.5h5v5h-5v-5zM274.5 328.5h5v5h-5v-5zM269.5 328.5h5v5h-5v-5zM264.5 328.5h5v5h-5v-5zM259.5 328.5h5v5h-5v-5zM254.5 328.5h5v5h-5v-5zM249.5 328.5h5v5h-5v-5zM244.5 328.5h5v5h-5v-5zM239.5 328.5h5v5h-5v-5zM234.5 328.5h5v5h-5v-5zM229.5 328.5h5v5h-5v-5zM224.5 328.5h5v5h-5v-5zM219.5 328.5h5v5h-5v-5zM214.5 328.5h5v5h-5v-5zM209.5 328.5h5v5h-5v-5zM204.5 328.5h5v5h-5v-5zM199.5 328.5h5v5h-5v-5zM194.5 328.5h5v5h-5v-5zM189.5 328.5h5v5h-5v-5zM184.5 328.5h5v5h-5v-5zM179.5 328.5h5v5h-5v-5zM174.5 328.5h5v5h-5v-5zM169.5 328.5h5v5h-5v-5zM164.5 328.5h5v5h-5v-5zM159.5 328.5h5v5h-5v-5zM154.5 328.5h5v5h-5v-5zM149.5 328.5h5v5h-5v-5zM144.5 328.5h5v5h-5v-5zM139.5 328.5h5v5h-5v-5zM134.5 328.5h5v5h-5v-5zM129.5 328.5h5v5h-5v-5zM124.5 328.5h5v5h-5v-5zM119.5 328.5h5v5h-5v-5zM114.5 328.5h5v5h-5v-5zM109.5 328.5h5v5h-5v-5zM104.5 328.5h5v5h-5v-5zM99.5 328.5h5v5h-5v-5zM94.5 328.5h5v5h-5v-5zM89.5 328.5h5v5h-5v-5zM84.5 328.5h5v5h-5v-5zM79.5 328.5h5v5h-5v-5zM74.5 328.5h5v5h-5v-5zM69.5 328.5h5v5h-5v-5zM64.5 328.5h5v5h-5v-5z"/>
      </g>
    </g>
    <g fill="#FFCFE1">
      <path d="M54 82.952h10v367H54zM865 82.952h10v367h-10z"/>
    </g>
    <g stroke="#97C1FF" opacity=".6">
      <path d="M64.5 279.5h50v49h-50v-49zM114.5 279.5h50v49h-50v-49zM164.5 279.5h50v49h-50v-49zM214.5 279.5h50v49h-50v-49zM264.5 279.5h50v49h-50v-49zM314.5 279.5h50v49h-50v-49zM364.5 279.5h50v49h-50v-49zM414.5 279.5h50v49h-50v-49zM464.5 279.5h50v49h-50v-49zM514.5 279.5h50v49h-50v-49zM564.5 279.5h50v49h-50v-49zM614.5 279.5h50v49h-50v-49zM664.5 279.5h50v49h-50v-49zM714.5 279.5h50v49h-50v-49zM764.5 279.5h50v49h-50v-49zM814.5 279.5h50v49h-50v-49zM64.5 230.5h100v49h-100zM164.5 230.5h100v49h-100zM264.5 230.5h100v49h-100zM364.5 230.5h100v49h-100zM464.5 230.5h100v49h-100zM564.5 230.5h100v49h-100zM664.5 230.5h100v49h-100zM764.5 230.5h100v49h-100zM664.5 181.5h200v49h-200zM464.5 181.5h200v49h-200zM264.5 181.5h200v49h-200zM64.5 181.5h200v49h-200zM64.5 132.5h400v49h-400zM464.5 132.5h400v49h-400zM64.5 83.5h800v49h-800z"/>
    </g>
    <g transform="translate(54 64)">
      <path fill="#565656" d="M2.53 0h815.94A2.53 2.53 0 0 1 821 2.53v16.422H0V2.53A2.53 2.53 0 0 1 2.53 0z"/>
      <ellipse cx="15" cy="9.975" fill="#FFF" rx="3" ry="2.992"/>
      <ellipse cx="27" cy="9.975" fill="#FFF" rx="3" ry="2.992"/>
      <path stroke="#A4A4A4" d="M.5 19.5h820v365H.5z"/>
    </g>
    <path fill="#565656" d="M54 82h821v2H54z"/>
    <path fill="#3D3D3D" d="M83.48 115h-7.62v-13.96h1.68v12.48h5.94V115zm3.04-12.74c-.68 0-.98-.36-.98-.9v-.26c0-.54.3-.9.98-.9.68 0 .98.36.98.9v.26c0 .54-.3.9-.98.9zm-.8 12.74v-10.32h1.6V115h-1.6zm13.7 1.14c0 2.12-1.68 3.1-5 3.1-3.22 0-4.54-.92-4.54-2.54 0-1.12.62-1.72 1.64-2v-.22c-.58-.28-.92-.74-.92-1.44 0-1.04.74-1.54 1.78-1.8v-.08c-1.22-.58-1.94-1.72-1.94-3.16 0-2.1 1.54-3.56 3.88-3.56.74 0 1.4.14 1.96.4v-.18c0-.8.34-1.38 1.2-1.38h1.54v1.4h-1.96v.66c.74.64 1.18 1.56 1.18 2.66 0 2.1-1.54 3.56-3.9 3.56-.34 0-.7-.04-1-.1-.68.18-1.36.52-1.36 1.16 0 .62.64.78 1.58.78h2.2c2.56 0 3.66 1.04 3.66 2.74zm-1.5.12c0-.82-.54-1.36-2.14-1.36h-3.44c-.66.3-.96.76-.96 1.4 0 .9.62 1.64 2.24 1.64h1.48c1.78 0 2.82-.56 2.82-1.68zm-3.58-5.98c1.36 0 2.22-.64 2.22-2v-.56c0-1.36-.86-2-2.22-2-1.36 0-2.22.64-2.22 2v.56c0 1.36.86 2 2.22 2zm6.94 4.72v-14.8h1.6v6.16h.08c.5-1.16 1.38-1.92 2.92-1.92 2.12 0 3.46 1.44 3.46 3.94V115h-1.6v-6.34c0-1.84-.8-2.78-2.34-2.78-1.28 0-2.52.64-2.52 1.96V115h-1.6zm15.64 0h-2c-1.1 0-1.7-.7-1.7-1.7v-7.22h-1.7v-1.4h.96c.68 0 .9-.24.9-.94v-1.92h1.44v2.86h2.26v1.4h-2.26v7.52h2.1v1.4zM75.86 359v-13.96h4.68c3.48 0 5.72 2.32 5.72 6.98S84.02 359 80.54 359h-4.68zm1.68-1.48h3c2.3 0 3.92-1.6 3.92-4.36v-2.28c0-2.76-1.62-4.36-3.92-4.36h-3v11zM93 359.24c-2.8 0-4.64-2.12-4.64-5.4 0-3.28 1.84-5.4 4.64-5.4 2.76 0 4.46 2.12 4.46 5.04v.76h-7.42v.48c0 1.78 1.14 3.12 3.06 3.12 1.3 0 2.3-.64 2.84-1.78l1.14.82c-.66 1.4-2.14 2.36-4.08 2.36zm0-9.46c-1.74 0-2.96 1.32-2.96 3.12v.14h5.7v-.22c0-1.82-1.1-3.04-2.74-3.04zm8.7 9.22h-1.6v-10.32h1.6v1.68h.08c.5-1.16 1.38-1.92 2.92-1.92 2.12 0 3.46 1.44 3.46 3.94V359h-1.6v-6.34c0-1.84-.8-2.78-2.34-2.78-1.28 0-2.52.64-2.52 1.96V359zm12.86.24c-1.9 0-3.16-.8-4.08-2.02l1.14-.92c.8 1 1.76 1.58 3.06 1.58 1.36 0 2.16-.62 2.16-1.68 0-.8-.44-1.42-1.8-1.62l-.82-.12c-1.9-.28-3.32-1.06-3.32-2.98 0-2.04 1.58-3.04 3.68-3.04 1.66 0 2.76.62 3.6 1.66l-1.06.96c-.46-.64-1.34-1.26-2.66-1.26s-2.02.62-2.02 1.6c0 1 .7 1.4 1.98 1.6l.8.12c2.28.34 3.16 1.34 3.16 2.9 0 2-1.46 3.22-3.82 3.22zm10.52 0c-2.8 0-4.64-2.12-4.64-5.4 0-3.28 1.84-5.4 4.64-5.4 2.76 0 4.46 2.12 4.46 5.04v.76h-7.42v.48c0 1.78 1.14 3.12 3.06 3.12 1.3 0 2.3-.64 2.84-1.78l1.14.82c-.66 1.4-2.14 2.36-4.08 2.36zm0-9.46c-1.74 0-2.96 1.32-2.96 3.12v.14h5.7v-.22c0-1.82-1.1-3.04-2.74-3.04z"/>
  </g>
</svg>