<?xml version="1.0" encoding="UTF-8"?>
<svg width="736px" height="540px" viewBox="0 0 736 540" version="1.1" xmlns="http://www.w3.org/2000/svg" xmlns:xlink="http://www.w3.org/1999/xlink">
    <!-- Generator: Sketch 52.5 (67469) - http://www.bohemiancoding.com/sketch -->
    <title>date-picker-style-3</title>
    <desc>Created with Sketch.</desc>
    <defs>
        <path d="M11,1 L9,1 L9,0 L8,0 L8,1 L4,1 L4,0 L3,0 L3,1 L1,1 C0.44771525,1 0,1.44771525 0,2 L0,12 C0,12.5522847 0.44771525,13 1,13 L11,13 C11.5522847,13 12,12.5522847 12,12 L12,2 C12,1.44771525 11.5522847,1 11,1 Z M11,12 L1,12 L1,5 L11,5 L11,12 Z M11,4 L1,4 L1,2 L3,2 L3,3 L4,3 L4,2 L8,2 L8,3 L9,3 L9,2 L11,2 L11,4 Z" id="path-1"></path>
        <path d="M11,1 L9,1 L9,0 L8,0 L8,1 L4,1 L4,0 L3,0 L3,1 L1,1 C0.44771525,1 0,1.44771525 0,2 L0,12 C0,12.5522847 0.44771525,13 1,13 L11,13 C11.5522847,13 12,12.5522847 12,12 L12,2 C12,1.44771525 11.5522847,1 11,1 Z M11,12 L1,12 L1,5 L11,5 L11,12 Z M11,4 L1,4 L1,2 L3,2 L3,3 L4,3 L4,2 L8,2 L8,3 L9,3 L9,2 L11,2 L11,4 Z" id="path-3"></path>
        <rect id="path-5" x="0" y="0" width="288" height="300"></rect>
        <filter x="-3.5%" y="-2.7%" width="106.9%" height="106.7%" filterUnits="objectBoundingBox" id="filter-6">
            <feOffset dx="0" dy="2" in="SourceAlpha" result="shadowOffsetOuter1"></feOffset>
            <feGaussianBlur stdDeviation="3" in="shadowOffsetOuter1" result="shadowBlurOuter1"></feGaussianBlur>
            <feColorMatrix values="0 0 0 0 0   0 0 0 0 0   0 0 0 0 0  0 0 0 0.3 0" type="matrix" in="shadowBlurOuter1"></feColorMatrix>
        </filter>
        <polygon id="path-7" points="4.5 0 9 4.5 8.295 5.205 4.5 1.415 0.705 5.205 0 4.5"></polygon>
        <polygon id="path-9" points="4.5 0 9 4.5 8.295 5.205 4.5 1.415 0.705 5.205 0 4.5"></polygon>
    </defs>
    <g id="date-picker-style-3" stroke="none" stroke-width="1" fill="none" fill-rule="evenodd">
        <g id="Group" transform="translate(184.000000, 64.000000)">
            <g id="Group-4-Copy-2" transform="translate(53.000000, 16.000000)">
                <rect id="Rectangle-25-Copy" stroke="#006AFF" stroke-width="2" fill="#F3F3F3" x="1" y="25" width="141" height="30"></rect>
                <text id="Start-date-Copy" font-family="IBMPlexSans, IBM Plex Sans" font-size="12" font-weight="normal" line-spacing="16" fill="#565656">
                    <tspan x="0" y="12">Start date</tspan>
                </text>
                <text id="mm/dd/yyyy" font-family="IBMPlexSans, IBM Plex Sans" font-size="14" font-weight="normal" line-spacing="18" fill="#A4A4A4">
                    <tspan x="16" y="45">mm/dd/yyyy</tspan>
                </text>
                <g id="icon/image/calendar/16" transform="translate(111.000000, 32.000000)">
                    <g id="calendar" stroke-width="1" fill-rule="evenodd" transform="translate(2.000000, 1.000000)">
                        <mask id="mask-2" fill="white">
                            <use xlink:href="#path-1"></use>
                        </mask>
                        <use id="icon-color" fill="#000000" xlink:href="#path-1"></use>
                    </g>
                    <rect id="transparent-rectangle" x="0" y="0" width="16" height="16"></rect>
                </g>
            </g>
            <g id="Group-5-Copy-2" transform="translate(197.000000, 16.000000)">
                <rect id="Rectangle-25-Copy-3" fill="#F3F3F3" x="0" y="24" width="144" height="32"></rect>
                <rect id="Rectangle" fill="#8C8C8C" x="0" y="55" width="144" height="1"></rect>
                <text id="mm/dd/yyyy" font-family="IBMPlexSans, IBM Plex Sans" font-size="14" font-weight="normal" line-spacing="18" fill="#A4A4A4">
                    <tspan x="16" y="45">mm/dd/yyyy</tspan>
                </text>
                <g id="icon/image/calendar/16" transform="translate(112.000000, 32.000000)">
                    <g id="calendar" stroke-width="1" fill-rule="evenodd" transform="translate(2.000000, 1.000000)">
                        <mask id="mask-4" fill="white">
                            <use xlink:href="#path-3"></use>
                        </mask>
                        <use id="icon-color" fill="#000000" xlink:href="#path-3"></use>
                    </g>
                    <rect id="transparent-rectangle" x="0" y="0" width="16" height="16"></rect>
                </g>
                <text id="End-date" font-family="IBMPlexSans, IBM Plex Sans" font-size="12" font-weight="normal" line-spacing="16" fill="#565656">
                    <tspan x="0" y="12">End date</tspan>
                </text>
            </g>
            <g id="Group-26-Copy-2" transform="translate(53.000000, 72.000000)">
                <g id="Background">
                    <use fill="black" fill-opacity="1" filter="url(#filter-6)" xlink:href="#path-5"></use>
                    <use fill="#F3F3F3" fill-rule="evenodd" xlink:href="#path-5"></use>
                </g>
                <g id="Group-Copy" transform="translate(13.000000, 15.000000)">
                    <polygon id="Rectangle-2" points="71 117 111 117 111 157 71 157"></polygon>
                    <polygon id="Rectangle-2-Copy-38" points="111 117 151 117 151 157 111 157"></polygon>
                    <polygon id="Rectangle-2-Copy-39" points="151 117 191 117 191 157 151 157"></polygon>
                    <polygon id="Rectangle-2-Copy-40" points="191 117 231 117 231 157 191 157"></polygon>
                    <polygon id="Rectangle-2-Copy-41" points="231 117 271 117 271 157 231 157"></polygon>
                    <text id="T" font-family="IBMPlexSans, IBM Plex Sans" font-size="14" font-weight="normal" line-spacing="20" letter-spacing="0.100000001" fill="#272727">
                        <tspan x="86.946" y="57">T</tspan>
                    </text>
                    <text id="3" font-family="IBMPlexSans, IBM Plex Sans" font-size="14" font-weight="normal" line-spacing="18" letter-spacing="0.100000001" fill="#272727">
                        <tspan x="86.75" y="102">3</tspan>
                    </text>
                    <text id="17" font-family="IBMPlexSans, IBM Plex Sans" font-size="14" font-weight="normal" line-spacing="18" letter-spacing="0.100000001" fill="#272727">
                        <tspan x="82.5" y="182">17</tspan>
                    </text>
                    <text id="10" font-family="IBMPlexSans, IBM Plex Sans" font-size="14" font-weight="normal" line-spacing="18" letter-spacing="0.100000001" fill="#272727">
                        <tspan x="82.5" y="141">10</tspan>
                    </text>
                    <text id="24" font-family="IBMPlexSans, IBM Plex Sans" font-size="14" font-weight="normal" line-spacing="18" letter-spacing="0.100000001" fill="#272727">
                        <tspan x="82.5" y="222">24</tspan>
                    </text>
                    <text id="1" font-family="IBMPlexSans, IBM Plex Sans" font-size="14" font-weight="normal" line-spacing="18" letter-spacing="0.100000001" fill="#6F6F6F">
                        <tspan x="86.75" y="262">1</tspan>
                    </text>
                    <text id="W" font-family="IBMPlexSans, IBM Plex Sans" font-size="14" font-weight="normal" line-spacing="20" letter-spacing="0.100000001" fill="#272727">
                        <tspan x="124.713" y="57">W</tspan>
                    </text>
                    <text id="4" font-family="IBMPlexSans, IBM Plex Sans" font-size="14" font-weight="normal" line-spacing="18" letter-spacing="0.100000001" fill="#272727">
                        <tspan x="126.75" y="102">4</tspan>
                    </text>
                    <text id="18" font-family="IBMPlexSans, IBM Plex Sans" font-size="14" font-weight="normal" line-spacing="18" letter-spacing="0.100000001" fill="#272727">
                        <tspan x="122.5" y="182">18</tspan>
                    </text>
                    <text id="11" font-family="IBMPlexSans, IBM Plex Sans" font-size="14" font-weight="normal" line-spacing="18" letter-spacing="0.100000001" fill="#272727">
                        <tspan x="122.5" y="141">11</tspan>
                    </text>
                    <text id="25" font-family="IBMPlexSans, IBM Plex Sans" font-size="14" font-weight="normal" line-spacing="18" letter-spacing="0.100000001" fill="#272727">
                        <tspan x="122.5" y="222">25</tspan>
                    </text>
                    <text id="2" font-family="IBMPlexSans, IBM Plex Sans" font-size="14" font-weight="normal" line-spacing="18" letter-spacing="0.100000001" fill="#6F6F6F">
                        <tspan x="126.75" y="262">2</tspan>
                    </text>
                    <text id="T" font-family="IBMPlexSans, IBM Plex Sans" font-size="14" font-weight="normal" line-spacing="20" letter-spacing="0.100000001" fill="#272727">
                        <tspan x="166.946" y="57">T</tspan>
                    </text>
                    <text id="5" font-family="IBMPlexSans, IBM Plex Sans" font-size="14" font-weight="normal" line-spacing="18" letter-spacing="0.100000001" fill="#252525">
                        <tspan x="166.75" y="102">5</tspan>
                    </text>
                    <text id="19" font-family="IBMPlexSans, IBM Plex Sans" font-size="14" font-weight="normal" line-spacing="18" letter-spacing="0.100000001" fill="#272727">
                        <tspan x="162.5" y="182">19</tspan>
                    </text>
                    <text id="12" font-family="IBMPlexSans, IBM Plex Sans" font-size="14" font-weight="normal" line-spacing="18" letter-spacing="0.100000001" fill="#272727">
                        <tspan x="162.5" y="141">12</tspan>
                    </text>
                    <text id="26" font-family="IBMPlexSans, IBM Plex Sans" font-size="14" font-weight="normal" line-spacing="18" letter-spacing="0.100000001" fill="#272727">
                        <tspan x="162.5" y="222">26</tspan>
                    </text>
                    <text id="3" font-family="IBMPlexSans, IBM Plex Sans" font-size="14" font-weight="normal" line-spacing="18" letter-spacing="0.100000001" fill="#6F6F6F">
                        <tspan x="166.75" y="262">3</tspan>
                    </text>
                    <text id="F" font-family="IBMPlexSans, IBM Plex Sans" font-size="14" font-weight="normal" line-spacing="20" letter-spacing="0.100000001" fill="#272727">
                        <tspan x="207.037" y="57">F</tspan>
                    </text>
                    <text id="6" font-family="IBMPlexSans-SemiBold, IBM Plex Sans" font-size="14" font-weight="500" line-spacing="18" letter-spacing="0.100000001" fill="#0F6FFF">
                        <tspan x="206.75" y="102">6</tspan>
                    </text>
                    <text id="20" font-family="IBMPlexSans, IBM Plex Sans" font-size="14" font-weight="normal" line-spacing="18" letter-spacing="0.100000001" fill="#272727">
                        <tspan x="202.5" y="182">20</tspan>
                    </text>
                    <text id="13" font-family="IBMPlexSans, IBM Plex Sans" font-size="14" font-weight="normal" line-spacing="18" letter-spacing="0.100000001" fill="#272727">
                        <tspan x="202.5" y="141">13</tspan>
                    </text>
                    <polygon id="Rectangle-2-Copy-13" points="231 77 271 77 271 117 231 117"></polygon>
                    <text id="27" font-family="IBMPlexSans, IBM Plex Sans" font-size="14" font-weight="normal" line-spacing="18" letter-spacing="0.100000001" fill="#272727">
                        <tspan x="202.5" y="222">27</tspan>
                    </text>
                    <text id="4" font-family="IBMPlexSans, IBM Plex Sans" font-size="14" font-weight="normal" line-spacing="18" letter-spacing="0.100000001" fill="#6F6F6F">
                        <tspan x="206.75" y="262">4</tspan>
                    </text>
                    <text id="S" font-family="IBMPlexSans, IBM Plex Sans" font-size="14" font-weight="normal" line-spacing="20" letter-spacing="0.100000001" fill="#272727">
                        <tspan x="246.403" y="57">S</tspan>
                    </text>
                    <text id="7" font-family="IBMPlexSans, IBM Plex Sans" font-size="14" font-weight="normal" line-spacing="18" letter-spacing="0.100000001" fill="#272727">
                        <tspan x="246.27" y="102">7</tspan>
                    </text>
                    <text id="21" font-family="IBMPlexSans, IBM Plex Sans" font-size="14" font-weight="normal" line-spacing="18" letter-spacing="0.100000001" fill="#272727">
                        <tspan x="242.02" y="182">21</tspan>
                    </text>
                    <text id="14" font-family="IBMPlexSans, IBM Plex Sans" font-size="14" font-weight="normal" line-spacing="18" letter-spacing="0.100000001" fill="#252525">
                        <tspan x="242.02" y="141">14</tspan>
                    </text>
                    <text id="28" font-family="IBMPlexSans, IBM Plex Sans" font-size="14" font-weight="normal" line-spacing="18" letter-spacing="0.100000001" fill="#272727">
                        <tspan x="242.02" y="222">28</tspan>
                    </text>
                    <text id="5" font-family="IBMPlexSans, IBM Plex Sans" font-size="14" font-weight="normal" line-spacing="18" letter-spacing="0.100000001" fill="#6F6F6F">
                        <tspan x="246.27" y="262">5</tspan>
                    </text>
                    <g id="icon/navigation/chevron/up/16" transform="translate(255.000000, 9.000000) rotate(90.000000) translate(-255.000000, -9.000000) translate(247.000000, 1.000000)">
                        <g id="chevron--up" stroke-width="1" fill-rule="evenodd" transform="translate(3.500000, 5.000000)">
                            <mask id="mask-8" fill="white">
                                <use xlink:href="#path-7"></use>
                            </mask>
                            <use id="Mask" fill="#000000" fill-rule="nonzero" xlink:href="#path-7"></use>
                            <g id="color/black" mask="url(#mask-8)" fill="#000000">
                                <g transform="translate(-3.500000, -5.000000)">
                                    <rect x="0" y="0" width="16" height="16"></rect>
                                </g>
                            </g>
                        </g>
                        <rect id="transparent-rectangle" transform="translate(8.000000, 8.000000) rotate(-90.000000) translate(-8.000000, -8.000000) " x="0" y="0" width="16" height="16"></rect>
                    </g>
                    <text id="Apr-2018" font-family="IBMPlexSans-SemiBold, IBM Plex Sans" font-size="14" font-weight="500" line-spacing="18" fill="#252525">
                        <tspan x="98.241" y="14">Apr  2018</tspan>
                    </text>
                    <text id="M" font-family="IBMPlexSans, IBM Plex Sans" font-size="14" font-weight="normal" line-spacing="20" letter-spacing="0.100000001" fill="#272727">
                        <tspan x="45.266" y="57">M</tspan>
                    </text>
                    <text id="2" font-family="IBMPlexSans, IBM Plex Sans" font-size="14" font-weight="normal" line-spacing="18" letter-spacing="0.100000001" fill="#272727">
                        <tspan x="46.75" y="102">2</tspan>
                    </text>
                    <text id="16" font-family="IBMPlexSans, IBM Plex Sans" font-size="14" font-weight="normal" line-spacing="18" letter-spacing="0.100000001" fill="#272727">
                        <tspan x="42.5" y="182">16</tspan>
                    </text>
                    <text id="9" font-family="IBMPlexSans, IBM Plex Sans" font-size="14" font-weight="normal" line-spacing="18" letter-spacing="0.100000001" fill="#171717">
                        <tspan x="46.75" y="141">9</tspan>
                    </text>
                    <text id="23" font-family="IBMPlexSans, IBM Plex Sans" font-size="14" font-weight="normal" line-spacing="18" letter-spacing="0.100000001" fill="#272727">
                        <tspan x="42.5" y="222">23</tspan>
                    </text>
                    <text id="30" font-family="IBMPlexSans, IBM Plex Sans" font-size="14" font-weight="normal" line-spacing="18" letter-spacing="0.100000001" fill="#272727">
                        <tspan x="42.5" y="262">30</tspan>
                    </text>
                    <text id="1" font-family="IBMPlexSans, IBM Plex Sans" font-size="14" font-weight="normal" line-spacing="18" letter-spacing="0.100000001" fill="#272727">
                        <tspan x="7.75" y="102">1</tspan>
                    </text>
                    <text id="15" font-family="IBMPlexSans, IBM Plex Sans" font-size="14" font-weight="normal" line-spacing="18" letter-spacing="0.100000001" fill="#272727">
                        <tspan x="3.5" y="182">15</tspan>
                    </text>
                    <text id="8" font-family="IBMPlexSans, IBM Plex Sans" font-size="14" font-weight="normal" line-spacing="20" letter-spacing="0.100000001" fill="#171717">
                        <tspan x="7.75" y="140">8</tspan>
                    </text>
                    <text id="22" font-family="IBMPlexSans, IBM Plex Sans" font-size="14" font-weight="normal" line-spacing="18" letter-spacing="0.100000001" fill="#272727">
                        <tspan x="3.5" y="222">22</tspan>
                    </text>
                    <text id="29" font-family="IBMPlexSans, IBM Plex Sans" font-size="14" font-weight="normal" line-spacing="18" letter-spacing="0.100000001" fill="#272727">
                        <tspan x="3.5" y="262">29</tspan>
                    </text>
                    <text id="S" font-family="IBMPlexSans, IBM Plex Sans" font-size="14" font-weight="normal" line-spacing="18" letter-spacing="0.100000001" fill="#171717">
                        <tspan x="7.883" y="57">S</tspan>
                    </text>
                    <g id="icon/navigation/chevron/up/16" transform="translate(8.000000, 9.000000) scale(-1, 1) rotate(90.000000) translate(-8.000000, -9.000000) translate(0.000000, 1.000000)">
                        <g id="chevron--up" stroke-width="1" fill-rule="evenodd" transform="translate(3.500000, 5.000000)">
                            <mask id="mask-10" fill="white">
                                <use xlink:href="#path-9"></use>
                            </mask>
                            <use id="Mask" fill="#000000" fill-rule="nonzero" xlink:href="#path-9"></use>
                            <g id="color/black" mask="url(#mask-10)" fill="#000000">
                                <g transform="translate(-3.500000, -5.000000)">
                                    <rect x="0" y="0" width="16" height="16"></rect>
                                </g>
                            </g>
                        </g>
                        <rect id="transparent-rectangle" transform="translate(8.000000, 8.000000) rotate(-90.000000) translate(-8.000000, -8.000000) " x="0" y="0" width="16" height="16"></rect>
                    </g>
                    <rect id="Rectangle-Copy-2" fill="#0F6FFF" x="209" y="106" width="4" height="4"></rect>
                </g>
            </g>
            <text id="|" font-family="IBMPlexSans, IBM Plex Sans" font-size="14" font-weight="normal" letter-spacing="0.1166667" fill="#171717">
                <tspan x="67" y="61">|</tspan>
            </text>
            <path id="Path-2-Copy-45" d="M300.5,26.5 L300.5,40.5 L304,40.5 L304,41.5 L296,41.5 L296,40.5 L299.5,40.5 L299.5,26.5 L296,26.5 L296,25.5 L304,25.5 L304,26.5 L300.5,26.5 Z" fill="#009E9A" fill-rule="nonzero"></path>
            <path id="Path-2-Copy-49" d="M156.5,26.5 L156.5,40.5 L160,40.5 L160,41.5 L152,41.5 L152,40.5 L155.5,40.5 L155.5,26.5 L152,26.5 L152,25.5 L160,25.5 L160,26.5 L156.5,26.5 Z" fill="#009E9A" fill-rule="nonzero"></path>
            <path id="Path-2-Copy-48" d="M332.5,26.5 L332.5,40.5 L336,40.5 L336,41.5 L328,41.5 L328,40.5 L331.5,40.5 L331.5,26.5 L328,26.5 L328,25.5 L336,25.5 L336,26.5 L332.5,26.5 Z" fill="#009E9A" fill-rule="nonzero"></path>
            <path id="Path-2-Copy-50" d="M188.5,26.5 L188.5,40.5 L192,40.5 L192,41.5 L184,41.5 L184,40.5 L187.5,40.5 L187.5,26.5 L184,26.5 L184,25.5 L192,25.5 L192,26.5 L188.5,26.5 Z" fill="#009E9A" fill-rule="nonzero"></path>
            <text id="16/1" font-family="IBMPlexMono, IBM Plex Mono" font-size="12" font-weight="normal" fill="#007D79">
                <tspan x="291" y="22.5">16/1</tspan>
            </text>
            <text id="16/1-copy-3" font-family="IBMPlexMono, IBM Plex Mono" font-size="12" font-weight="normal" fill="#007D79">
                <tspan x="147" y="22.5">16/1</tspan>
            </text>
            <text id="16/1-copy" font-family="IBMPlexMono, IBM Plex Mono" font-size="12" font-weight="normal" fill="#007D79">
                <tspan x="323" y="22.5">16/1</tspan>
            </text>
            <text id="16/1-copy-4" font-family="IBMPlexMono, IBM Plex Mono" font-size="12" font-weight="normal" fill="#007D79">
                <tspan x="179" y="12">16/1</tspan>
            </text>
            <polygon id="Rectangle-6-Copy-21" fill="#87EDED" opacity="0.5" points="324 40 340 40 340 63.0137067 340 72 324 72"></polygon>
            <polygon id="Rectangle-6-Copy-23" fill="#87EDED" opacity="0.5" points="180 40 196 40 196 63.0137067 196 72 180 72"></polygon>
            <polygon id="Rectangle-6-Copy-22" fill="#87EDED" opacity="0.5" points="292 40 308 40 308 63.0137067 308 72 292 72"></polygon>
            <polygon id="Rectangle-6-Copy-28" fill="#87EDED" opacity="0.5" points="148 40 164 40 164 63.0137067 164 72 148 72"></polygon>
            <polygon id="Rectangle-6-Copy-29" fill="#87EDED" opacity="0.5" points="53 40 69 40 69 63.0137067 69 72 53 72"></polygon>
            <path d="M324.5,41 L324.5,73" id="Path-2-Copy-35" stroke="#009E9A" stroke-dasharray="2"></path>
            <path d="M180.5,41 L180.5,73" id="Path-2-Copy-41" stroke="#009E9A" stroke-dasharray="2"></path>
            <path d="M292.5,41 L292.5,73" id="Path-2-Copy-36" stroke="#009E9A" stroke-dasharray="2"></path>
            <path d="M148.5,41 L148.5,73" id="Path-2-Copy-42" stroke="#009E9A" stroke-dasharray="2"></path>
            <path d="M53.5,41 L53.5,73" id="Path-2-Copy-43" stroke="#009E9A" stroke-dasharray="2"></path>
            <path d="M339.5,41 L339.5,73" id="Path-2-Copy-61" stroke="#009E9A" stroke-dasharray="2"></path>
            <path d="M195.5,41 L195.5,73" id="Path-2-Copy-67" stroke="#009E9A" stroke-dasharray="2"></path>
            <path d="M307.5,41 L307.5,73" id="Path-2-Copy-62" stroke="#009E9A" stroke-dasharray="2"></path>
            <path d="M163.5,41 L163.5,73" id="Path-2-Copy-68" stroke="#009E9A" stroke-dasharray="2"></path>
            <path d="M68.5,41 L68.5,73" id="Path-2-Copy-69" stroke="#009E9A" stroke-dasharray="2"></path>
            <polygon id="Rectangle-6-Copy-27" fill="#87EDED" opacity="0.5" points="54 364 341 364 341 369.753427 341 372 54 372"></polygon>
            <polygon id="Rectangle-6-Copy-30" fill="#87EDED" opacity="0.5" points="54 72 341 72 341 74.8767133 341 76 54 76"></polygon>
            <polygon id="Rectangle-6-Copy-24" fill="#87EDED" opacity="0.5" points="53 72 57 72 57 287.7535 57 372 53 372"></polygon>
            <path d="M53.5,72 L53.5,372" id="Path-2-Copy-37" stroke="#009E9A" stroke-dasharray="2"></path>
            <path d="M196.5,224 L196.5,505" id="Path-2-Copy-40" stroke="#009E9A" stroke-dasharray="2" transform="translate(196.500000, 364.500000) rotate(-270.000000) translate(-196.500000, -364.500000) "></path>
            <path d="M196.5,-68 L196.5,213" id="Path-2-Copy-46" stroke="#009E9A" stroke-dasharray="2" transform="translate(196.500000, 72.500000) rotate(-270.000000) translate(-196.500000, -72.500000) "></path>
            <path d="M56.5,72 L56.5,372" id="Path-2-Copy-63" stroke="#009E9A" stroke-dasharray="2"></path>
            <path d="M195,229.5 L195,513" id="Path-2-Copy-66" stroke="#009E9A" stroke-dasharray="2" transform="translate(194.500000, 371.000000) rotate(-270.000000) translate(-194.500000, -371.000000) "></path>
            <path d="M195,-66.5 L195,217" id="Path-2-Copy-70" stroke="#009E9A" stroke-dasharray="2" transform="translate(194.500000, 75.000000) rotate(-270.000000) translate(-194.500000, -75.000000) "></path>
            <path id="Path-2-Copy-44" d="M55.5,379.5 L55.5,381.5 L59,381.5 L59,382.5 L51,382.5 L51,381.5 L54.5,381.5 L54.5,379.5 L51,379.5 L51,378.5 L59,378.5 L59,379.5 L55.5,379.5 Z" fill="#009E9A" fill-rule="nonzero"></path>
            <path id="Path-2-Copy-51" d="M47,73 L47,75 L50.5,75 L50.5,76 L42.5,76 L42.5,75 L46,75 L46,73 L42.5,73 L42.5,72 L50.5,72 L50.5,73 L47,73 Z" fill="#009E9A" fill-rule="nonzero"></path>
            <path id="Path-2-Copy-52" d="M47,365 L47,371 L50.5,371 L50.5,372 L42.5,372 L42.5,371 L46,371 L46,365 L42.5,365 L42.5,364 L50.5,364 L50.5,365 L47,365 Z" fill="#009E9A" fill-rule="nonzero"></path>
            <text id="4/.25" font-family="IBMPlexMono, IBM Plex Mono" font-size="12" font-weight="normal" fill="#007D79">
                <tspan x="46" y="403">4/.25</tspan>
            </text>
            <text id="4/.25-copy-2" font-family="IBMPlexMono, IBM Plex Mono" font-size="12" font-weight="normal" fill="#007D79">
                <tspan x="0" y="77">4/.25</tspan>
            </text>
            <text id="8/.5" font-family="IBMPlexMono, IBM Plex Mono" font-size="12" font-weight="normal" fill="#007D79">
                <tspan x="4" y="371">8/.5</tspan>
            </text>
            <polygon id="Rectangle-6-Copy-25" fill="#87EDED" opacity="0.5" points="337 72 341 72 341 287.7535 341 372 337 372"></polygon>
            <path d="M337.5,72 L337.5,372" id="Path-2-Copy-38" stroke="#009E9A" stroke-dasharray="2"></path>
            <path d="M340.5,72 L340.5,372" id="Path-2-Copy-64" stroke="#009E9A" stroke-dasharray="2"></path>
            <path id="Path-2-Copy-47" d="M339.5,378.5 L339.5,380.5 L343,380.5 L343,381.5 L335,381.5 L335,380.5 L338.5,380.5 L338.5,378.5 L335,378.5 L335,377.5 L343,377.5 L343,378.5 L339.5,378.5 Z" fill="#009E9A" fill-rule="nonzero"></path>
            <text id="4/.25-copy" font-family="IBMPlexMono, IBM Plex Mono" font-size="12" font-weight="normal" fill="#007D79">
                <tspan x="330" y="403">4/.25</tspan>
            </text>
            <path id="Path-2-Copy-44" d="M61.5,27.5 L61.5,41.5 L65,41.5 L65,42.5 L57,42.5 L57,41.5 L60.5,41.5 L60.5,27.5 L57,27.5 L57,26.5 L65,26.5 L65,27.5 L61.5,27.5 Z" fill="#009E9A" fill-rule="nonzero"></path>
            <text id="16/1-copy-14" font-family="IBMPlexMono, IBM Plex Mono" font-size="12" font-weight="normal" fill="#007D79">
                <tspan x="14" y="37">16/1</tspan>
            </text>
        </g>
    </g>
</svg>