<?xml version="1.0" encoding="UTF-8"?>
<svg width="736px" height="531px" viewBox="0 0 736 531" version="1.1" xmlns="http://www.w3.org/2000/svg" xmlns:xlink="http://www.w3.org/1999/xlink">
    <!-- Generator: Sketch 52.5 (67469) - http://www.bohemiancoding.com/sketch -->
    <title>date-picker-style-4</title>
    <desc>Created with Sketch.</desc>
    <defs>
        <path d="M11,1 L9,1 L9,0 L8,0 L8,1 L4,1 L4,0 L3,0 L3,1 L1,1 C0.44771525,1 0,1.44771525 0,2 L0,12 C0,12.5522847 0.44771525,13 1,13 L11,13 C11.5522847,13 12,12.5522847 12,12 L12,2 C12,1.44771525 11.5522847,1 11,1 Z M11,12 L1,12 L1,5 L11,5 L11,12 Z M11,4 L1,4 L1,2 L3,2 L3,3 L4,3 L4,2 L8,2 L8,3 L9,3 L9,2 L11,2 L11,4 Z" id="path-1"></path>
        <path d="M11,1 L9,1 L9,0 L8,0 L8,1 L4,1 L4,0 L3,0 L3,1 L1,1 C0.44771525,1 0,1.44771525 0,2 L0,12 C0,12.5522847 0.44771525,13 1,13 L11,13 C11.5522847,13 12,12.5522847 12,12 L12,2 C12,1.44771525 11.5522847,1 11,1 Z M11,12 L1,12 L1,5 L11,5 L11,12 Z M11,4 L1,4 L1,2 L3,2 L3,3 L4,3 L4,2 L8,2 L8,3 L9,3 L9,2 L11,2 L11,4 Z" id="path-3"></path>
    </defs>
    <g id="date-picker-style-4" stroke="none" stroke-width="1" fill="none" fill-rule="evenodd">
        <rect fill="#FFFFFF" x="0" y="0" width="736" height="531"></rect>
        <rect id="Rectangle-25-Copy-11" fill="#F3F3F3" x="210" y="104" width="90" height="32"></rect>
        <rect id="Rectangle" fill="#8C8C8C" x="210" y="135" width="90" height="1"></rect>
        <text id="Label" font-family="IBMPlexSans, IBM Plex Sans" font-size="12" font-weight="normal" line-spacing="16" fill="#565656">
            <tspan x="210" y="92">Label</tspan>
        </text>
        <text id="mm/yyyy" font-family="IBMPlexSans, IBM Plex Sans" font-size="14" font-weight="normal" line-spacing="20" fill="#A4A4A4">
            <tspan x="226" y="124">mm/yyyy</tspan>
        </text>
        <rect id="Rectangle-25-Copy-11" fill="#F3F3F3" x="412" y="104" width="90" height="32"></rect>
        <rect id="Rectangle" fill="#8C8C8C" x="412" y="135" width="90" height="1"></rect>
        <text id="Label" font-family="IBMPlexSans, IBM Plex Sans" font-size="12" font-weight="normal" line-spacing="16" fill="#565656">
            <tspan x="412" y="92">Label</tspan>
        </text>
        <text id="mm/yyyy" font-family="IBMPlexSans, IBM Plex Sans" font-size="14" font-weight="normal" line-spacing="20" fill="#A4A4A4">
            <tspan x="428" y="124">mm/yyyy</tspan>
        </text>
        <rect id="Rectangle-25-Copy-11" fill="#F3F3F3" x="412" y="234" width="112" height="32"></rect>
        <rect id="Rectangle" fill="#8C8C8C" x="412" y="265" width="112" height="1"></rect>
        <text id="Label" font-family="IBMPlexSans, IBM Plex Sans" font-size="12" font-weight="normal" line-spacing="16" fill="#565656">
            <tspan x="412" y="222">Label</tspan>
        </text>
        <text id="mm/dd/yyyy-copy-6" font-family="IBMPlexSans, IBM Plex Sans" font-size="14" font-weight="normal" line-spacing="18" fill="#A4A4A4">
            <tspan x="428" y="255">mm/dd/yyyy</tspan>
        </text>
        <rect id="Rectangle-25-Copy-11" fill="#F3F3F3" x="210" y="234" width="112" height="32"></rect>
        <rect id="Rectangle" fill="#8C8C8C" x="210" y="265" width="112" height="1"></rect>
        <text id="Label" font-family="IBMPlexSans, IBM Plex Sans" font-size="12" font-weight="normal" line-spacing="16" fill="#565656">
            <tspan x="210" y="222">Label</tspan>
        </text>
        <text id="mm/dd/yyyy-copy-6" font-family="IBMPlexSans, IBM Plex Sans" font-size="14" font-weight="normal" line-spacing="18" fill="#A4A4A4">
            <tspan x="226" y="255">mm/dd/yyyy</tspan>
        </text>
        <path id="Path-2-Copy-40" d="M420.5,267.5 L420.5,281.5 L424,281.5 L424,282.5 L416,282.5 L416,281.5 L419.5,281.5 L419.5,267.5 L416,267.5 L416,266.5 L424,266.5 L424,267.5 L420.5,267.5 Z" fill="#009E9A" fill-rule="nonzero"></path>
        <path id="Path-2-Copy-42" d="M420.5,137.5 L420.5,151.5 L424,151.5 L424,152.5 L416,152.5 L416,151.5 L419.5,151.5 L419.5,137.5 L416,137.5 L416,136.5 L424,136.5 L424,137.5 L420.5,137.5 Z" fill="#009E9A" fill-rule="nonzero"></path>
        <path id="Path-2-Copy-41" d="M516.5,267.5 L516.5,281.5 L520,281.5 L520,282.5 L512,282.5 L512,281.5 L515.5,281.5 L515.5,267.5 L512,267.5 L512,266.5 L520,266.5 L520,267.5 L516.5,267.5 Z" fill="#009E9A" fill-rule="nonzero"></path>
        <path id="Path-2-Copy-43" d="M494.5,137.5 L494.5,151.5 L498,151.5 L498,152.5 L490,152.5 L490,151.5 L493.5,151.5 L493.5,137.5 L490,137.5 L490,136.5 L498,136.5 L498,137.5 L494.5,137.5 Z" fill="#009E9A" fill-rule="nonzero"></path>
        <text id="16/1-copy-10" font-family="IBMPlexMono, IBM Plex Mono" font-size="12" font-weight="normal" fill="#007D79">
            <tspan x="405" y="289">16/1</tspan>
        </text>
        <text id="16/1-copy-12" font-family="IBMPlexMono, IBM Plex Mono" font-size="12" font-weight="normal" fill="#007D79">
            <tspan x="405" y="159">16/1</tspan>
        </text>
        <text id="16/1-copy-11" font-family="IBMPlexMono, IBM Plex Mono" font-size="12" font-weight="normal" fill="#007D79">
            <tspan x="501" y="289">16/1</tspan>
        </text>
        <text id="16/1-copy-13" font-family="IBMPlexMono, IBM Plex Mono" font-size="12" font-weight="normal" fill="#007D79">
            <tspan x="480" y="159">16/1</tspan>
        </text>
        <polygon id="Rectangle-6-Copy-16" fill="#87EDED" opacity="0.5" points="412 234 428 234 428 257.013707 428 266 412 266"></polygon>
        <polygon id="Rectangle-6-Copy-18" fill="#87EDED" opacity="0.5" points="412 104 428 104 428 127.013707 428 136 412 136"></polygon>
        <polygon id="Rectangle-6-Copy-17" fill="#87EDED" opacity="0.5" points="508 234 524 234 524 257.013707 524 266 508 266"></polygon>
        <polygon id="Rectangle-6-Copy-19" fill="#87EDED" opacity="0.5" points="486 104 502 104 502 127.013707 502 136 486 136"></polygon>
        <path d="M412.5,235 L412.5,267" id="Path-2-Copy-30" stroke="#009E9A" stroke-dasharray="2"></path>
        <path d="M412.5,105 L412.5,137" id="Path-2-Copy-32" stroke="#009E9A" stroke-dasharray="2"></path>
        <path d="M508.5,235 L508.5,267" id="Path-2-Copy-31" stroke="#009E9A" stroke-dasharray="2"></path>
        <path d="M486.5,105 L486.5,137" id="Path-2-Copy-33" stroke="#009E9A" stroke-dasharray="2"></path>
        <path d="M427.5,235 L427.5,267" id="Path-2-Copy-56" stroke="#009E9A" stroke-dasharray="2"></path>
        <path d="M427.5,105 L427.5,137" id="Path-2-Copy-58" stroke="#009E9A" stroke-dasharray="2"></path>
        <path d="M523.5,235 L523.5,267" id="Path-2-Copy-57" stroke="#009E9A" stroke-dasharray="2"></path>
        <path d="M501.5,105 L501.5,137" id="Path-2-Copy-59" stroke="#009E9A" stroke-dasharray="2"></path>
        <g id="Group-14-Copy-2" transform="translate(210.000000, 94.000000)">
            <rect id="Rectangle-9-Copy" fill="#8A3FFC" x="0" y="1" width="8" height="8"></rect>
            <text id="8" font-family="IBMPlexSans, IBM Plex Sans" font-size="8" font-weight="normal" fill="#FFFFFF">
                <tspan x="1.6" y="8">8</tspan>
            </text>
        </g>
        <g id="Group-14-Copy-3" transform="translate(210.000000, 224.000000)">
            <rect id="Rectangle-9-Copy" fill="#8A3FFC" x="0" y="1" width="8" height="8"></rect>
            <text id="8" font-family="IBMPlexSans, IBM Plex Sans" font-size="8" font-weight="normal" fill="#FFFFFF">
                <tspan x="1.6" y="8">8</tspan>
            </text>
        </g>
        <rect id="Rectangle-9-Copy" fill="#8A3FFC" x="210" y="388" width="8" height="8"></rect>
        <text id="8" font-family="IBMPlexSans, IBM Plex Sans" font-size="8" font-weight="normal" fill="#FFFFFF">
            <tspan x="211.6" y="395">8</tspan>
        </text>
        <text id="32/2" font-family="IBMPlexMono, IBM Plex Mono" font-size="12" font-weight="normal" fill="#D12765">
            <tspan x="166" y="125">32/2</tspan>
        </text>
        <text id="32/2-copy" font-family="IBMPlexMono, IBM Plex Mono" font-size="12" font-weight="normal" fill="#D12765">
            <tspan x="166" y="255">32/2</tspan>
        </text>
        <text id="32/2-copy-2" font-family="IBMPlexMono, IBM Plex Mono" font-size="12" font-weight="normal" fill="#D12765">
            <tspan x="166" y="418">32/2</tspan>
        </text>
        <path id="Path-2-Copy-16" d="M203,105 L203,135 L206.5,135 L206.5,136 L198.5,136 L198.5,135 L202,135 L202,105 L198.5,105 L198.5,104 L206.5,104 L206.5,105 L203,105 Z" fill="#D12765" fill-rule="nonzero"></path>
        <path id="Path-2-Copy-17" d="M203,235 L203,265 L206.5,265 L206.5,266 L198.5,266 L198.5,265 L202,265 L202,235 L198.5,235 L198.5,234 L206.5,234 L206.5,235 L203,235 Z" fill="#D12765" fill-rule="nonzero"></path>
        <path id="Path-2-Copy-18" d="M203,398 L203,428 L206.5,428 L206.5,429 L198.5,429 L198.5,428 L202,428 L202,398 L198.5,398 L198.5,397 L206.5,397 L206.5,398 L203,398 Z" fill="#D12765" fill-rule="nonzero"></path>
        <text id="90/5.625" font-family="IBMPlexMono, IBM Plex Mono" font-size="12" font-weight="normal" fill="#D12765">
            <tspan x="226" y="158">90/5.625</tspan>
        </text>
        <text id="112/7" font-family="IBMPlexMono, IBM Plex Mono" font-size="12" font-weight="normal" fill="#D12765">
            <tspan x="248" y="288">112/7</tspan>
        </text>
        <text id="144/9" font-family="IBMPlexMono, IBM Plex Mono" font-size="12" font-weight="normal" fill="#D12765">
            <tspan x="264" y="451">144/9</tspan>
        </text>
        <path id="Path-2-Copy-24" d="M255,101 L255,189 L258.5,189 L258.5,190 L250.5,190 L250.5,189 L254,189 L254,101 L250.5,101 L250.5,100 L258.5,100 L258.5,101 L255,101 Z" fill="#D12765" fill-rule="nonzero"></path>
        <path id="Path-2-Copy-25" d="M267,218 L267,328 L270.5,328 L270.5,329 L262.5,329 L262.5,328 L266,328 L266,218 L262.5,218 L262.5,217 L270.5,217 L270.5,218 L267,218 Z" fill="#D12765" fill-rule="nonzero"></path>
        <path id="Path-2-Copy-26" d="M283,365 L283,507 L286.5,507 L286.5,508 L278.5,508 L278.5,507 L282,507 L282,365 L278.5,365 L278.5,364 L286.5,364 L286.5,365 L283,365 Z" fill="#D12765" fill-rule="nonzero"></path>
        <rect id="Rectangle-25-Copy" fill="#F3F3F3" x="210" y="397" width="144" height="32"></rect>
        <rect id="Rectangle" fill="#8C8C8C" x="210" y="428" width="144" height="1"></rect>
        <text id="Start-date-Copy" font-family="IBMPlexSans, IBM Plex Sans" font-size="12" font-weight="normal" line-spacing="16" fill="#565656">
            <tspan x="210" y="385">Start date</tspan>
        </text>
        <text id="mm/dd/yyyy" font-family="IBMPlexSans, IBM Plex Sans" font-size="14" font-weight="normal" line-spacing="18" fill="#A4A4A4">
            <tspan x="226" y="418">mm/dd/yyyy</tspan>
        </text>
        <g id="icon/image/calendar/16" transform="translate(322.000000, 405.000000)">
            <g id="calendar" stroke-width="1" fill-rule="evenodd" transform="translate(2.000000, 1.000000)">
                <mask id="mask-2" fill="white">
                    <use xlink:href="#path-1"></use>
                </mask>
                <use id="icon-color" fill="#000000" xlink:href="#path-1"></use>
            </g>
            <rect id="transparent-rectangle" x="0" y="0" width="16" height="16"></rect>
        </g>
        <rect id="Rectangle-25-Copy" fill="#F3F3F3" x="411" y="397" width="144" height="32"></rect>
        <rect id="Rectangle" fill="#8C8C8C" x="411" y="428" width="144" height="1"></rect>
        <text id="Start-date-Copy" font-family="IBMPlexSans, IBM Plex Sans" font-size="12" font-weight="normal" line-spacing="16" fill="#565656">
            <tspan x="411" y="385">Start date</tspan>
        </text>
        <text id="mm/dd/yyyy" font-family="IBMPlexSans, IBM Plex Sans" font-size="14" font-weight="normal" line-spacing="18" fill="#A4A4A4">
            <tspan x="427" y="418">mm/dd/yyyy</tspan>
        </text>
        <path id="Path-2-Copy-44" d="M419.5,429.5 L419.5,443.5 L423,443.5 L423,444.5 L415,444.5 L415,443.5 L418.5,443.5 L418.5,429.5 L415,429.5 L415,428.5 L423,428.5 L423,429.5 L419.5,429.5 Z" fill="#009E9A" fill-rule="nonzero"></path>
        <text id="16/1-copy-14" font-family="IBMPlexMono, IBM Plex Mono" font-size="12" font-weight="normal" fill="#007D79">
            <tspan x="405" y="451">16/1</tspan>
        </text>
        <polygon id="Rectangle-6-Copy-20" fill="#87EDED" opacity="0.5" points="411 397 427 397 427 420.013707 427 429 411 429"></polygon>
        <path d="M411.5,398 L411.5,430" id="Path-2-Copy-34" stroke="#009E9A" stroke-dasharray="2"></path>
        <path d="M426.5,398 L426.5,430" id="Path-2-Copy-60" stroke="#009E9A" stroke-dasharray="2"></path>
        <text id="16/1" font-family="IBMPlexMono, IBM Plex Mono" font-size="12" font-weight="normal" fill="#007D79">
            <tspan x="495" y="451">16/1</tspan>
        </text>
        <text id="16/1-copy" font-family="IBMPlexMono, IBM Plex Mono" font-size="12" font-weight="normal" fill="#007D79">
            <tspan x="539" y="451">16/1</tspan>
        </text>
        <polygon id="Rectangle-6-Copy-19" fill="#87EDED" opacity="0.5" points="539 397 555 397 555 420.013707 555 429 539 429"></polygon>
        <polygon id="Rectangle-6-Copy-22" fill="#87EDED" opacity="0.5" points="507 397 523 397 523 420.013707 523 429 507 429"></polygon>
        <path id="Path-2-Copy-37" d="M516.5,428.5 L516.5,443.5 L520,443.5 L520,444.5 L512,444.5 L512,443.5 L515.5,443.5 L515.5,428.5 L512,428.5 L512,427.5 L520,427.5 L520,428.5 L516.5,428.5 Z" fill="#009E9A" fill-rule="nonzero"></path>
        <path id="Path-2-Copy-38" d="M547.5,428.5 L547.5,443.5 L551,443.5 L551,444.5 L543,444.5 L543,443.5 L546.5,443.5 L546.5,428.5 L543,428.5 L543,427.5 L551,427.5 L551,428.5 L547.5,428.5 Z" fill="#009E9A" fill-rule="nonzero"></path>
        <rect id="Rectangle-Copy-5" stroke="#D12765" x="322.5" y="405.5" width="15" height="15"></rect>
        <path d="M324,399.5 L336,399.5" id="Path-3-Copy-5" stroke="#D12765" transform="translate(330.000000, 399.500000) rotate(-90.000000) translate(-330.000000, -399.500000) "></path>
        <text id="16/1" font-family="IBMPlexSans, IBM Plex Sans" font-size="8" font-weight="normal" fill="#D12765">
            <tspan x="321" y="388">16/1</tspan>
        </text>
        <path d="M554.5,398 L554.5,430" id="Path-2-Copy-53" stroke="#009E9A" stroke-dasharray="2"></path>
        <path d="M507.5,398 L507.5,430" id="Path-2-Copy-61" stroke="#009E9A" stroke-dasharray="2"></path>
        <path d="M523.5,398 L523.5,430" id="Path-2-Copy-62" stroke="#009E9A" stroke-dasharray="2"></path>
        <path d="M538.5,398 L538.5,430" id="Path-2-Copy-63" stroke="#009E9A" stroke-dasharray="2"></path>
        <g id="icon/image/calendar/16" transform="translate(523.000000, 405.000000)">
            <g id="calendar" stroke-width="1" fill-rule="evenodd" transform="translate(2.000000, 1.000000)">
                <mask id="mask-4" fill="white">
                    <use xlink:href="#path-3"></use>
                </mask>
                <use id="icon-color" fill="#000000" xlink:href="#path-3"></use>
            </g>
            <rect id="transparent-rectangle" x="0" y="0" width="16" height="16"></rect>
        </g>
    </g>
</svg>