<?xml version="1.0" encoding="UTF-8"?>
<svg width="736px" height="492px" viewBox="0 0 736 492" version="1.1" xmlns="http://www.w3.org/2000/svg" xmlns:xlink="http://www.w3.org/1999/xlink">
    <!-- Generator: Sketch 52.5 (67469) - http://www.bohemiancoding.com/sketch -->
    <title>date-picker-style-1</title>
    <desc>Created with Sketch.</desc>
    <defs>
        <path d="M11,1 L9,1 L9,0 L8,0 L8,1 L4,1 L4,0 L3,0 L3,1 L1,1 C0.44771525,1 0,1.44771525 0,2 L0,12 C0,12.5522847 0.44771525,13 1,13 L11,13 C11.5522847,13 12,12.5522847 12,12 L12,2 C12,1.44771525 11.5522847,1 11,1 Z M11,12 L1,12 L1,5 L11,5 L11,12 Z M11,4 L1,4 L1,2 L3,2 L3,3 L4,3 L4,2 L8,2 L8,3 L9,3 L9,2 L11,2 L11,4 Z" id="path-1"></path>
        <rect id="path-3" x="0" y="0" width="288" height="300"></rect>
        <filter x="-3.5%" y="-2.7%" width="106.9%" height="106.7%" filterUnits="objectBoundingBox" id="filter-4">
            <feOffset dx="0" dy="2" in="SourceAlpha" result="shadowOffsetOuter1"></feOffset>
            <feGaussianBlur stdDeviation="3" in="shadowOffsetOuter1" result="shadowBlurOuter1"></feGaussianBlur>
            <feColorMatrix values="0 0 0 0 0   0 0 0 0 0   0 0 0 0 0  0 0 0 0.3 0" type="matrix" in="shadowBlurOuter1"></feColorMatrix>
        </filter>
        <polygon id="path-5" points="4.5 0 9 4.5 8.295 5.205 4.5 1.415 0.705 5.205 0 4.5"></polygon>
        <rect id="path-7" x="0" y="0" width="32" height="32"></rect>
        <rect id="path-9" x="0" y="0" width="32" height="32"></rect>
        <rect id="path-11" x="0" y="0" width="32" height="32"></rect>
        <rect id="path-13" x="0" y="0" width="32" height="32"></rect>
        <rect id="path-15" x="0" y="0" width="32" height="32"></rect>
        <polygon id="path-17" points="4.5 0 9 4.5 8.295 5.205 4.5 1.415 0.705 5.205 0 4.5"></polygon>
    </defs>
    <g id="date-picker-style-1" stroke="none" stroke-width="1" fill="none" fill-rule="evenodd">
        <rect id="Rectangle-25-Copy-11" stroke="#006AFF" stroke-width="2" fill="#F3F3F3" x="225" y="81" width="286" height="30"></rect>
        <text id="Label" font-family="IBMPlexSans, IBM Plex Sans" font-size="12" font-weight="normal" line-spacing="16" fill="#565656">
            <tspan x="224" y="68">Label</tspan>
        </text>
        <text id="04/09/2019" font-family="IBMPlexSans, IBM Plex Sans" font-size="14" font-weight="normal" line-spacing="20" fill="#171717">
            <tspan x="240" y="100">04/09/2019</tspan>
        </text>
        <g id="icon/image/calendar/16" transform="translate(480.000000, 88.000000)">
            <g id="calendar" stroke-width="1" fill-rule="evenodd" transform="translate(2.000000, 1.000000)">
                <mask id="mask-2" fill="white">
                    <use xlink:href="#path-1"></use>
                </mask>
                <use id="icon-color" fill="#000000" xlink:href="#path-1"></use>
            </g>
            <rect id="transparent-rectangle" x="0" y="0" width="16" height="16"></rect>
        </g>
        <g id="Group-26" transform="translate(224.000000, 112.000000)">
            <g id="Background">
                <use fill="black" fill-opacity="1" filter="url(#filter-4)" xlink:href="#path-3"></use>
                <use fill="#F3F3F3" fill-rule="evenodd" xlink:href="#path-3"></use>
            </g>
            <g id="Group-Copy" transform="translate(4.000000, 15.000000)">
                <polygon id="Rectangle-2" points="80 117 120 117 120 157 80 157"></polygon>
                <polygon id="Rectangle-2-Copy-38" points="120 117 160 117 160 157 120 157"></polygon>
                <polygon id="Rectangle-2-Copy-39" points="160 117 200 117 200 157 160 157"></polygon>
                <polygon id="Rectangle-2-Copy-40" points="200 117 240 117 240 157 200 157"></polygon>
                <polygon id="Rectangle-2-Copy-41" points="240 117 280 117 280 157 240 157"></polygon>
                <text id="T" font-family="IBMPlexSans, IBM Plex Sans" font-size="14" font-weight="normal" line-spacing="20" letter-spacing="0.100000001" fill="#272727">
                    <tspan x="95.946" y="57">T</tspan>
                </text>
                <text id="3" font-family="IBMPlexSans, IBM Plex Sans" font-size="14" font-weight="normal" line-spacing="18" letter-spacing="0.100000001" fill="#272727">
                    <tspan x="95.75" y="102">3</tspan>
                </text>
                <text id="17" font-family="IBMPlexSans, IBM Plex Sans" font-size="14" font-weight="normal" line-spacing="18" letter-spacing="0.100000001" fill="#272727">
                    <tspan x="91.5" y="182">17</tspan>
                </text>
                <text id="10" font-family="IBMPlexSans, IBM Plex Sans" font-size="14" font-weight="normal" line-spacing="18" letter-spacing="0.100000001" fill="#272727">
                    <tspan x="91.5" y="141">10</tspan>
                </text>
                <text id="24" font-family="IBMPlexSans, IBM Plex Sans" font-size="14" font-weight="normal" line-spacing="18" letter-spacing="0.100000001" fill="#272727">
                    <tspan x="91.5" y="222">24</tspan>
                </text>
                <text id="1" font-family="IBMPlexSans, IBM Plex Sans" font-size="14" font-weight="normal" line-spacing="18" letter-spacing="0.100000001" fill="#6F6F6F">
                    <tspan x="95.75" y="262">1</tspan>
                </text>
                <text id="W" font-family="IBMPlexSans, IBM Plex Sans" font-size="14" font-weight="normal" line-spacing="20" letter-spacing="0.100000001" fill="#272727">
                    <tspan x="133.713" y="57">W</tspan>
                </text>
                <text id="4" font-family="IBMPlexSans, IBM Plex Sans" font-size="14" font-weight="normal" line-spacing="18" letter-spacing="0.100000001" fill="#272727">
                    <tspan x="135.75" y="102">4</tspan>
                </text>
                <text id="18" font-family="IBMPlexSans, IBM Plex Sans" font-size="14" font-weight="normal" line-spacing="18" letter-spacing="0.100000001" fill="#272727">
                    <tspan x="131.5" y="182">18</tspan>
                </text>
                <text id="11" font-family="IBMPlexSans, IBM Plex Sans" font-size="14" font-weight="normal" line-spacing="18" letter-spacing="0.100000001" fill="#272727">
                    <tspan x="131.5" y="141">11</tspan>
                </text>
                <text id="25" font-family="IBMPlexSans, IBM Plex Sans" font-size="14" font-weight="normal" line-spacing="18" letter-spacing="0.100000001" fill="#272727">
                    <tspan x="131.5" y="222">25</tspan>
                </text>
                <text id="2" font-family="IBMPlexSans, IBM Plex Sans" font-size="14" font-weight="normal" line-spacing="18" letter-spacing="0.100000001" fill="#6F6F6F">
                    <tspan x="135.75" y="262">2</tspan>
                </text>
                <text id="T" font-family="IBMPlexSans, IBM Plex Sans" font-size="14" font-weight="normal" line-spacing="20" letter-spacing="0.100000001" fill="#272727">
                    <tspan x="175.946" y="57">T</tspan>
                </text>
                <text id="5" font-family="IBMPlexSans, IBM Plex Sans" font-size="14" font-weight="normal" line-spacing="18" letter-spacing="0.100000001" fill="#252525">
                    <tspan x="175.75" y="102">5</tspan>
                </text>
                <text id="19" font-family="IBMPlexSans, IBM Plex Sans" font-size="14" font-weight="normal" line-spacing="18" letter-spacing="0.100000001" fill="#272727">
                    <tspan x="171.5" y="182">19</tspan>
                </text>
                <text id="12" font-family="IBMPlexSans, IBM Plex Sans" font-size="14" font-weight="normal" line-spacing="18" letter-spacing="0.100000001" fill="#272727">
                    <tspan x="171.5" y="141">12</tspan>
                </text>
                <text id="26" font-family="IBMPlexSans, IBM Plex Sans" font-size="14" font-weight="normal" line-spacing="18" letter-spacing="0.100000001" fill="#272727">
                    <tspan x="171.5" y="222">26</tspan>
                </text>
                <text id="3" font-family="IBMPlexSans, IBM Plex Sans" font-size="14" font-weight="normal" line-spacing="18" letter-spacing="0.100000001" fill="#6F6F6F">
                    <tspan x="175.75" y="262">3</tspan>
                </text>
                <text id="F" font-family="IBMPlexSans, IBM Plex Sans" font-size="14" font-weight="normal" line-spacing="20" letter-spacing="0.100000001" fill="#272727">
                    <tspan x="216.037" y="57">F</tspan>
                </text>
                <text id="6" font-family="IBMPlexSans-SemiBold, IBM Plex Sans" font-size="14" font-weight="500" line-spacing="18" letter-spacing="0.100000001" fill="#0F6FFF">
                    <tspan x="215.75" y="102">6</tspan>
                </text>
                <text id="20" font-family="IBMPlexSans, IBM Plex Sans" font-size="14" font-weight="normal" line-spacing="18" letter-spacing="0.100000001" fill="#272727">
                    <tspan x="211.5" y="182">20</tspan>
                </text>
                <text id="13" font-family="IBMPlexSans, IBM Plex Sans" font-size="14" font-weight="normal" line-spacing="18" letter-spacing="0.100000001" fill="#272727">
                    <tspan x="211.5" y="141">13</tspan>
                </text>
                <polygon id="Rectangle-2-Copy-13" points="240 77 280 77 280 117 240 117"></polygon>
                <text id="27" font-family="IBMPlexSans, IBM Plex Sans" font-size="14" font-weight="normal" line-spacing="18" letter-spacing="0.100000001" fill="#272727">
                    <tspan x="211.5" y="222">27</tspan>
                </text>
                <text id="4" font-family="IBMPlexSans, IBM Plex Sans" font-size="14" font-weight="normal" line-spacing="18" letter-spacing="0.100000001" fill="#6F6F6F">
                    <tspan x="215.75" y="262">4</tspan>
                </text>
                <text id="S" font-family="IBMPlexSans, IBM Plex Sans" font-size="14" font-weight="normal" line-spacing="20" letter-spacing="0.100000001" fill="#272727">
                    <tspan x="255.403" y="57">S</tspan>
                </text>
                <text id="7" font-family="IBMPlexSans, IBM Plex Sans" font-size="14" font-weight="normal" line-spacing="18" letter-spacing="0.100000001" fill="#272727">
                    <tspan x="255.27" y="102">7</tspan>
                </text>
                <text id="21" font-family="IBMPlexSans, IBM Plex Sans" font-size="14" font-weight="normal" line-spacing="18" letter-spacing="0.100000001" fill="#272727">
                    <tspan x="251.02" y="182">21</tspan>
                </text>
                <text id="14" font-family="IBMPlexSans, IBM Plex Sans" font-size="14" font-weight="normal" line-spacing="18" letter-spacing="0.100000001" fill="#252525">
                    <tspan x="251.02" y="141">14</tspan>
                </text>
                <text id="28" font-family="IBMPlexSans, IBM Plex Sans" font-size="14" font-weight="normal" line-spacing="18" letter-spacing="0.100000001" fill="#272727">
                    <tspan x="251.02" y="222">28</tspan>
                </text>
                <text id="5" font-family="IBMPlexSans, IBM Plex Sans" font-size="14" font-weight="normal" line-spacing="18" letter-spacing="0.100000001" fill="#6F6F6F">
                    <tspan x="255.27" y="262">5</tspan>
                </text>
                <g id="icon/navigation/chevron/up/16" transform="translate(260.000000, 9.000000) rotate(90.000000) translate(-260.000000, -9.000000) translate(252.000000, 1.000000)">
                    <g id="chevron--up" stroke-width="1" fill-rule="evenodd" transform="translate(3.500000, 5.000000)">
                        <mask id="mask-6" fill="white">
                            <use xlink:href="#path-5"></use>
                        </mask>
                        <use id="Mask" fill="#000000" fill-rule="nonzero" xlink:href="#path-5"></use>
                        <g id="color/black" mask="url(#mask-6)" fill="#000000">
                            <g transform="translate(-3.500000, -5.000000)">
                                <rect x="0" y="0" width="16" height="16"></rect>
                            </g>
                        </g>
                    </g>
                    <rect id="transparent-rectangle" transform="translate(8.000000, 8.000000) rotate(-90.000000) translate(-8.000000, -8.000000) " x="0" y="0" width="16" height="16"></rect>
                </g>
                <text id="Apr-2019" font-family="IBMPlexSans-SemiBold, IBM Plex Sans" font-size="14" font-weight="500" line-spacing="18" fill="#252525">
                    <tspan x="107.241" y="14">Apr  2019</tspan>
                </text>
                <text id="M" font-family="IBMPlexSans, IBM Plex Sans" font-size="14" font-weight="normal" line-spacing="20" letter-spacing="0.100000001" fill="#272727">
                    <tspan x="54.266" y="57">M</tspan>
                </text>
                <text id="2" font-family="IBMPlexSans, IBM Plex Sans" font-size="14" font-weight="normal" line-spacing="18" letter-spacing="0.100000001" fill="#272727">
                    <tspan x="55.75" y="102">2</tspan>
                </text>
                <text id="16" font-family="IBMPlexSans, IBM Plex Sans" font-size="14" font-weight="normal" line-spacing="18" letter-spacing="0.100000001" fill="#272727">
                    <tspan x="51.5" y="182">16</tspan>
                </text>
                <polygon id="Rectangle-2" fill="#006AFF" points="40 117 80 117 80 157 40 157"></polygon>
                <text id="9" font-family="IBMPlexSans, IBM Plex Sans" font-size="14" font-weight="normal" line-spacing="18" letter-spacing="0.100000001" fill="#FFFFFF">
                    <tspan x="55.75" y="141">9</tspan>
                </text>
                <text id="23" font-family="IBMPlexSans, IBM Plex Sans" font-size="14" font-weight="normal" line-spacing="18" letter-spacing="0.100000001" fill="#272727">
                    <tspan x="51.5" y="222">23</tspan>
                </text>
                <text id="30" font-family="IBMPlexSans, IBM Plex Sans" font-size="14" font-weight="normal" line-spacing="18" letter-spacing="0.100000001" fill="#272727">
                    <tspan x="51.5" y="262">30</tspan>
                </text>
                <text id="1" font-family="IBMPlexSans, IBM Plex Sans" font-size="14" font-weight="normal" line-spacing="18" letter-spacing="0.100000001" fill="#272727">
                    <tspan x="16.75" y="102">1</tspan>
                </text>
                <text id="15" font-family="IBMPlexSans, IBM Plex Sans" font-size="14" font-weight="normal" line-spacing="18" letter-spacing="0.100000001" fill="#272727">
                    <tspan x="12.5" y="182">15</tspan>
                </text>
                <text id="8" font-family="IBMPlexSans, IBM Plex Sans" font-size="14" font-weight="normal" line-spacing="20" letter-spacing="0.100000001" fill="#171717">
                    <tspan x="16.75" y="140">8</tspan>
                </text>
                <text id="8-copy-2" font-family="IBMPlexSans, IBM Plex Sans" font-size="14" font-weight="normal" line-spacing="18" letter-spacing="0.100000001" fill="#171717">
                    <tspan x="16.75" y="141">8</tspan>
                </text>
                <text id="22" font-family="IBMPlexSans, IBM Plex Sans" font-size="14" font-weight="normal" line-spacing="18" letter-spacing="0.100000001" fill="#272727">
                    <tspan x="12.5" y="222">22</tspan>
                </text>
                <polygon id="Rectangle-2-Copy-10" fill="#E5E5E5" points="0 237 40 237 40 277 0 277"></polygon>
                <g id="pointinghand-copy-14" transform="translate(16.000000, 250.000000)">
                    <g id="Clipped">
                        <mask id="mask-8" fill="white">
                            <use xlink:href="#path-7"></use>
                        </mask>
                        <g id="SVGID_1_"></g>
                        <path d="M11.3,20.4 C11,20 10.7,19.3 10.1,18.4 C9.8,17.9 8.9,16.9 8.6,16.5 C8.4,16.1 8.4,15.9 8.5,15.5 C8.6,14.9 9.2,14.4 9.9,14.4 C10.4,14.4 10.9,14.8 11.3,15.1 C11.5,15.3 11.8,15.7 12,15.9 C12.2,16.1 12.2,16.2 12.4,16.4 C12.6,16.7 12.7,16.9 12.6,16.5 C12.5,16 12.4,15.2 12.2,14.4 C12.1,13.8 12,13.7 11.9,13.3 C11.8,12.8 11.7,12.5 11.6,12 C11.5,11.7 11.4,10.9 11.3,10.5 C11.2,10 11.2,9.1 11.6,8.7 C11.9,8.4 12.5,8.3 12.9,8.5 C13.4,8.8 13.7,9.5 13.8,9.8 C14,10.3 14.2,11 14.3,11.8 C14.5,12.8 14.8,14.3 14.8,14.6 C14.8,14.2 14.7,13.5 14.8,13.1 C14.9,12.8 15.1,12.4 15.5,12.3 C15.8,12.2 16.1,12.2 16.4,12.2 C16.7,12.3 17,12.5 17.2,12.7 C17.6,13.3 17.6,14.6 17.6,14.5 C17.7,14.1 17.7,13.3 17.9,12.9 C18,12.7 18.4,12.5 18.6,12.4 C18.9,12.3 19.3,12.3 19.6,12.4 C19.8,12.4 20.2,12.7 20.3,12.9 C20.5,13.2 20.6,14.2 20.7,14.6 C20.7,14.7 20.8,14.2 21,13.9 C21.4,13.3 22.8,13.1 22.9,14.5 C22.9,15.2 22.9,15.1 22.9,15.6 C22.9,16.1 22.9,16.4 22.9,16.8 C22.9,17.2 22.8,18.1 22.7,18.5 C22.6,18.8 22.3,19.5 22,19.9 C22,19.9 20.9,21.1 20.8,21.7 C20.7,22.3 20.7,22.3 20.7,22.7 C20.7,23.1 20.8,23.6 20.8,23.6 C20.8,23.6 20,23.7 19.6,23.6 C19.2,23.5 18.7,22.8 18.6,22.5 C18.4,22.2 18.1,22.2 17.9,22.5 C17.7,22.9 17.2,23.6 16.8,23.6 C16.1,23.7 14.7,23.6 13.7,23.6 C13.7,23.6 13.9,22.6 13.5,22.2 C13.2,21.9 12.7,21.4 12.4,21.1 L11.3,20.4 Z" id="Shape" fill="#FFFFFF" fill-rule="nonzero" mask="url(#mask-8)"></path>
                    </g>
                    <g id="Clipped">
                        <mask id="mask-10" fill="white">
                            <use xlink:href="#path-9"></use>
                        </mask>
                        <g id="SVGID_1_"></g>
                        <path d="M11.3,20.4 C11,20 10.7,19.3 10.1,18.4 C9.8,17.9 8.9,16.9 8.6,16.5 C8.4,16.1 8.4,15.9 8.5,15.5 C8.6,14.9 9.2,14.4 9.9,14.4 C10.4,14.4 10.9,14.8 11.3,15.1 C11.5,15.3 11.8,15.7 12,15.9 C12.2,16.1 12.2,16.2 12.4,16.4 C12.6,16.7 12.7,16.9 12.6,16.5 C12.5,16 12.4,15.2 12.2,14.4 C12.1,13.8 12,13.7 11.9,13.3 C11.8,12.8 11.7,12.5 11.6,12 C11.5,11.7 11.4,10.9 11.3,10.5 C11.2,10 11.2,9.1 11.6,8.7 C11.9,8.4 12.5,8.3 12.9,8.5 C13.4,8.8 13.7,9.5 13.8,9.8 C14,10.3 14.2,11 14.3,11.8 C14.5,12.8 14.8,14.3 14.8,14.6 C14.8,14.2 14.7,13.5 14.8,13.1 C14.9,12.8 15.1,12.4 15.5,12.3 C15.8,12.2 16.1,12.2 16.4,12.2 C16.7,12.3 17,12.5 17.2,12.7 C17.6,13.3 17.6,14.6 17.6,14.5 C17.7,14.1 17.7,13.3 17.9,12.9 C18,12.7 18.4,12.5 18.6,12.4 C18.9,12.3 19.3,12.3 19.6,12.4 C19.8,12.4 20.2,12.7 20.3,12.9 C20.5,13.2 20.6,14.2 20.7,14.6 C20.7,14.7 20.8,14.2 21,13.9 C21.4,13.3 22.8,13.1 22.9,14.5 C22.9,15.2 22.9,15.1 22.9,15.6 C22.9,16.1 22.9,16.4 22.9,16.8 C22.9,17.2 22.8,18.1 22.7,18.5 C22.6,18.8 22.3,19.5 22,19.9 C22,19.9 20.9,21.1 20.8,21.7 C20.7,22.3 20.7,22.3 20.7,22.7 C20.7,23.1 20.8,23.6 20.8,23.6 C20.8,23.6 20,23.7 19.6,23.6 C19.2,23.5 18.7,22.8 18.6,22.5 C18.4,22.2 18.1,22.2 17.9,22.5 C17.7,22.9 17.2,23.6 16.8,23.6 C16.1,23.7 14.7,23.6 13.7,23.6 C13.7,23.6 13.9,22.6 13.5,22.2 C13.2,21.9 12.7,21.4 12.4,21.1 L11.3,20.4 Z" id="Shape" stroke="#000000" stroke-width="0.75" stroke-linecap="round" stroke-linejoin="round" mask="url(#mask-10)"></path>
                    </g>
                    <g id="Clipped">
                        <mask id="mask-12" fill="white">
                            <use xlink:href="#path-11"></use>
                        </mask>
                        <g id="SVGID_1_"></g>
                        <path d="M19.6,20.7 L19.6,17.3" id="Shape" stroke="#000000" stroke-width="0.75" stroke-linecap="round" mask="url(#mask-12)"></path>
                    </g>
                    <g id="Clipped">
                        <mask id="mask-14" fill="white">
                            <use xlink:href="#path-13"></use>
                        </mask>
                        <g id="SVGID_1_"></g>
                        <path d="M17.6,20.7 L17.5,17.3" id="Shape" stroke="#000000" stroke-width="0.75" stroke-linecap="round" mask="url(#mask-14)"></path>
                    </g>
                    <g id="Clipped">
                        <mask id="mask-16" fill="white">
                            <use xlink:href="#path-15"></use>
                        </mask>
                        <g id="SVGID_1_"></g>
                        <path d="M15.6,17.3 L15.6,20.7" id="Shape" stroke="#000000" stroke-width="0.75" stroke-linecap="round" mask="url(#mask-16)"></path>
                    </g>
                </g>
                <text id="29" font-family="IBMPlexSans, IBM Plex Sans" font-size="14" font-weight="normal" line-spacing="18" letter-spacing="0.100000001" fill="#272727">
                    <tspan x="12.5" y="262">29</tspan>
                </text>
                <text id="S" font-family="IBMPlexSans, IBM Plex Sans" font-size="14" font-weight="normal" line-spacing="18" letter-spacing="0.100000001" fill="#171717">
                    <tspan x="16.883" y="57">S</tspan>
                </text>
                <g id="icon/navigation/chevron/up/16" transform="translate(20.000000, 9.000000) scale(-1, 1) rotate(90.000000) translate(-20.000000, -9.000000) translate(12.000000, 1.000000)">
                    <g id="chevron--up" stroke-width="1" fill-rule="evenodd" transform="translate(3.500000, 5.000000)">
                        <mask id="mask-18" fill="white">
                            <use xlink:href="#path-17"></use>
                        </mask>
                        <use id="Mask" fill="#000000" fill-rule="nonzero" xlink:href="#path-17"></use>
                        <g id="color/black" mask="url(#mask-18)" fill="#000000">
                            <g transform="translate(-3.500000, -5.000000)">
                                <rect x="0" y="0" width="16" height="16"></rect>
                            </g>
                        </g>
                    </g>
                    <rect id="transparent-rectangle" transform="translate(8.000000, 8.000000) rotate(-90.000000) translate(-8.000000, -8.000000) " x="0" y="0" width="16" height="16"></rect>
                </g>
                <rect id="Rectangle-Copy-2" fill="#0F6FFF" x="218" y="106" width="4" height="4"></rect>
            </g>
        </g>
    </g>
</svg>