<?xml version="1.0" encoding="UTF-8" standalone="no"?>
<svg width="258px" height="165px" viewBox="0 0 258 165" version="1.1" xmlns="http://www.w3.org/2000/svg" xmlns:xlink="http://www.w3.org/1999/xlink">
    <!-- Generator: Sketch 50.2 (55047) - http://www.bohemiancoding.com/sketch -->
    <title>Date Picker</title>
    <desc>Created with Sketch.</desc>
    <defs>
        <rect id="path-1" x="61" y="39.5" width="134.709961" height="110.441613"></rect>
        <filter x="-10.4%" y="-9.1%" width="120.8%" height="125.4%" filterUnits="objectBoundingBox" id="filter-2">
            <feOffset dx="0" dy="4" in="SourceAlpha" result="shadowOffsetOuter1"></feOffset>
            <feGaussianBlur stdDeviation="4" in="shadowOffsetOuter1" result="shadowBlurOuter1"></feGaussianBlur>
            <feColorMatrix values="0 0 0 0 0   0 0 0 0 0   0 0 0 0 0  0 0 0 0.1 0" type="matrix" in="shadowBlurOuter1"></feColorMatrix>
        </filter>
    </defs>
    <g id="Date-Picker" stroke="none" stroke-width="1" fill="none" fill-rule="evenodd">
        <g id="Rectangle-157-Copy-3">
            <use fill="black" fill-opacity="1" filter="url(#filter-2)" xlink:href="#path-1"></use>
            <use fill="#FFFFFF" fill-rule="evenodd" xlink:href="#path-1"></use>
        </g>
        <polygon id="chevron" fill="#5A6872" fill-rule="nonzero" transform="translate(181.000000, 56.333333) rotate(90.000000) translate(-181.000000, -56.333333) " points="180.997323 54.9664818 177.484462 58.666477 177 58.2098631 180.996941 54 185 58.2096735 184.515899 58.6666667"></polygon>
        <polygon id="chevron-copy" fill="#5A6872" fill-rule="nonzero" transform="translate(75.000000, 56.333333) rotate(-90.000000) translate(-75.000000, -56.333333) " points="74.9973226 54.9664818 71.4844615 58.666477 71 58.2098631 74.9969414 54 79 58.2096735 78.5158988 58.6666667"></polygon>
        <polygon id="Rectangle-157-Copy-3" fill="#FFFFFF" points="61 15 98.4675 15 117 15 117 39 61 39"></polygon>
        <rect id="Rectangle-5" fill-opacity="0.1" fill="#152935" x="69" y="25" width="40" height="4"></rect>
        <rect id="Rectangle-5" fill-opacity="0.1" fill="#152935" x="73.5268555" y="72.8710938" width="110" height="4"></rect>
        <rect id="Rectangle-5" fill-opacity="0.1" fill="#152935" x="73.5268555" y="87.0807292" width="110" height="4"></rect>
        <rect id="Rectangle-5" fill-opacity="0.1" fill="#152935" x="73.5268555" y="101.290365" width="110" height="4"></rect>
        <rect id="Rectangle-5" fill-opacity="0.1" fill="#152935" x="73.5268555" y="115.5" width="110" height="4"></rect>
        <rect id="Rectangle-5" fill-opacity="0.1" fill="#152935" x="73.5268555" y="129.5" width="70" height="4"></rect>
        <rect id="Rectangle-5" fill-opacity="0.1" fill="#152935" x="119" y="53" width="20" height="6"></rect>
        <polygon id="Path-8" fill="#5A6872" fill-rule="nonzero" points="61 39.5 61 38.5 117 38.5 117 39.5"></polygon>
        <g id="Group" transform="translate(121.000000, 15.000000)">
            <polygon id="Rectangle-157-Copy-4" fill="#FFFFFF" points="0 7.10542736e-15 37.4675 7.10542736e-15 56 7.10542736e-15 56 24 0 24"></polygon>
            <rect id="Rectangle-5-Copy" fill-opacity="0.1" fill="#152935" x="8" y="10" width="40" height="4"></rect>
            <polygon id="Path-8-Copy" fill="#5A6872" fill-rule="nonzero" points="0 24.5 0 23.5 56 23.5 56 24.5"></polygon>
        </g>
        <path d="M184,24.2857143 L196,24.2857143 L196,25.1428571 L184,25.1428571 L184,24.2857143 Z M186.571429,20 L187.428571,20 L187.428571,23.4285714 L186.571429,23.4285714 L186.571429,20 Z M192.571429,20 L193.428571,20 L193.428571,23.4285714 L192.571429,23.4285714 L192.571429,20 Z M184,22.1428571 C184,21.4327768 184.575634,20.8571429 185.285714,20.8571429 L194.714286,20.8571429 C195.424366,20.8571429 196,21.4327768 196,22.1428571 L196,32.4285714 C196,33.1386518 195.424366,33.7142857 194.714286,33.7142857 L185.285714,33.7142857 C184.575634,33.7142857 184,33.1386518 184,32.4285714 L184,22.1428571 Z M184.857143,22.1428571 L184.857143,32.4285714 C184.857143,32.6652649 185.049021,32.8571429 185.285714,32.8571429 L194.714286,32.8571429 C194.950979,32.8571429 195.142857,32.6652649 195.142857,32.4285714 L195.142857,22.1428571 C195.142857,21.9061637 194.950979,21.7142857 194.714286,21.7142857 L185.285714,21.7142857 C185.049021,21.7142857 184.857143,21.9061637 184.857143,22.1428571 Z" id="square" fill="#3D70B2" fill-rule="nonzero"></path>
    </g>
</svg>