<?xml version="1.0" encoding="UTF-8" standalone="no"?>
<svg width="258px" height="165px" viewBox="0 0 258 165" version="1.1" xmlns="http://www.w3.org/2000/svg" xmlns:xlink="http://www.w3.org/1999/xlink">
    <!-- Generator: Sketch 50.2 (55047) - http://www.bohemiancoding.com/sketch -->
    <title>Loading</title>
    <desc>Created with Sketch.</desc>
    <defs></defs>
    <g id="Loading" stroke="none" stroke-width="1" fill="none" fill-rule="evenodd">
        <path d="M144.932347,57.2138982 C139.894662,54.0532692 134.272458,52.5442685 128.716643,52.5442685 C118.687457,52.5449816 108.873315,57.4599309 103.100291,66.4469 C101.070351,69.607529 99.7201848,73.0013542 99,76.4622145 L104.695089,77.434222 C105.284659,74.6922052 106.367101,72.0065263 107.974167,69.5048371 C112.501661,62.4576042 120.255554,58.2500882 128.716643,58.249375 C133.358877,58.249375 137.895752,59.5572707 141.838006,62.0304344 C153.259935,69.1960482 156.652309,84.209036 149.40139,95.4958761 C144.873896,102.543109 137.120002,106.750625 128.658913,106.750625 C124.01668,106.750625 119.479804,105.443442 115.53755,102.970279 C113.703893,101.819987 112.091055,100.458606 110.683158,98.9517444 L106.320195,102.692868 C108.088905,104.604792 110.123896,106.3313 112.443209,107.786815 C117.480895,110.947444 123.103099,112.455731 128.658913,112.455731 C138.6881,112.455731 148.502241,107.540069 154.275266,98.5538132 C163.246546,84.5884256 159.06399,66.0803469 144.932347,57.2138982" id="Large-Loading" fill="#00B4A0"></path>
    </g>
</svg>