<?xml version="1.0" encoding="UTF-8" standalone="no"?>
<svg width="258px" height="165px" viewBox="0 0 258 165" version="1.1" xmlns="http://www.w3.org/2000/svg" xmlns:xlink="http://www.w3.org/1999/xlink">
    <!-- Generator: Sketch 50.2 (55047) - http://www.bohemiancoding.com/sketch -->
    <title>Search</title>
    <desc>Created with Sketch.</desc>
    <defs></defs>
    <g id="Search" stroke="none" stroke-width="1" fill="none" fill-rule="evenodd">
        <rect id="Rectangle-38" fill="#FFFFFF" x="26" y="62" width="205" height="40"></rect>
        <g id="UI-Icon/search/$ui-05" transform="translate(38.000000, 74.000000)" fill="#5A6872" fill-rule="nonzero">
            <path d="M6.5,12 C9.53756612,12 12,9.53756612 12,6.5 C12,3.46243388 9.53756612,1 6.5,1 C3.46243388,1 1,3.46243388 1,6.5 C1,9.53756612 3.46243388,12 6.5,12 Z M11.435871,10.7295043 L15.9988346,15.2874096 L15.29212,15.9949085 L10.7287073,11.4365544 C9.59199315,12.4111864 8.11475897,13 6.5,13 C2.91014913,13 -4.54747351e-13,10.0898509 -4.54747351e-13,6.5 C-4.54747351e-13,2.91014913 2.91014913,0 6.5,0 C10.0898509,0 13,2.91014913 13,6.5 C13,8.11513637 12.4109111,9.59268367 11.435871,10.7295043 Z" id="Search"></path>
        </g>
        <rect id="Rectangle-5" fill-opacity="0.1" fill="#152935" x="67.5" y="79.5" width="53" height="6"></rect>
    </g>
</svg>