<svg xmlns="http://www.w3.org/2000/svg" xmlns:xlink="http://www.w3.org/1999/xlink" width="928" height="522" viewBox="0 0 928 522"><defs><path id="alignment-example-visual-center-comp_svg__a" d="M10.5 0C4.725 0 0 4.725 0 10.5S4.725 21 10.5 21 21 16.275 21 10.5 16.275 0 10.5 0z"/></defs><g fill="none" fill-rule="evenodd"><path fill="#FFF" d="M0 0h928v522H0z"/><g transform="translate(253.5 435.5)"><mask id="alignment-example-visual-center-comp_svg__b" fill="#fff"><use xlink:href="#alignment-example-visual-center-comp_svg__a"/></mask><use fill="#24A249" fill-rule="nonzero" xlink:href="#alignment-example-visual-center-comp_svg__a"/><path fill="#FFF" d="M15.75 7.8L14.7 6.75 9 12.45l-2.7-2.7-1.05 1.05L9 14.55z" mask="url(#alignment-example-visual-center-comp_svg__b)"/></g><path d="M252 434h24v24h-24z"/><path fill="#EE538B" fill-rule="nonzero" d="M665 435.5c-5.799 0-10.5 4.701-10.5 10.5s4.701 10.5 10.5 10.5 10.5-4.701 10.5-10.5a10.5 10.5 0 0 0-10.5-10.5z"/><path fill="#FFF" fill-rule="nonzero" d="M666.058 446l4.192-4.192-1.057-1.058-4.193 4.192-4.192-4.192-1.058 1.058 4.192 4.192-4.192 4.193 1.058 1.057 4.192-4.192 4.193 4.192 1.057-1.057z"/><path d="M653 434h24v24h-24z"/><g stroke="#6EA6FF"><path d="M464 104v314M264 104v314M665 104v314M811 261H117"/></g><g transform="translate(196 193)"><path fill="#6EA6FF" d="M0 135h134.996V0H0z" opacity=".3"/><circle cx="68" cy="82" r="12" fill="#6EA6FF"/><path fill="#000" d="M109.879 69.172l-5.4 40.517H42.493V68.12L58.06 16.876l3.789.755c5.897 1.182 10.171 6.4 10.171 12.412v24.802h25.312c3.654 0 7.126 1.574 9.526 4.316a12.66 12.66 0 0 1 3.021 10.01zM17.18 109.689h16.875V71.72H17.18v37.969zm96.028-56.084a21.1 21.1 0 0 0-15.876-7.197H80.457V30.043c0-10.02-7.13-18.719-16.95-20.685l-3.793-.755c-4.257-.865-8.442 1.633-9.724 5.805L35.148 63.283H8.743v54.843H111.87l6.37-47.836a21.095 21.095 0 0 0-5.032-16.685z"/></g><g><path fill="#6EA6FF" d="M396 328h135V193H396z" opacity=".3"/><g fill="#000"><path d="M463.5 311.125c-27.848 0-50.625-22.781-50.625-50.625s22.777-50.625 50.625-50.625c27.844 0 50.625 22.781 50.625 50.625s-22.781 50.625-50.625 50.625m0-109.688c-32.484 0-59.063 26.579-59.063 59.063s26.579 59.063 59.063 59.063 59.063-26.579 59.063-59.063-26.579-59.063-59.063-59.063"/><path d="M444.516 239.406c-5.906 0-10.547 4.64-10.547 10.547 0 5.906 4.64 10.547 10.547 10.547 5.902 0 10.547-4.641 10.547-10.547 0-5.907-4.645-10.547-10.547-10.547M482.485 239.406c-5.906 0-10.547 4.64-10.547 10.547 0 5.906 4.64 10.547 10.547 10.547 5.902 0 10.547-4.641 10.547-10.547 0-5.907-4.645-10.547-10.547-10.547M463.5 294.25c12.269 0 23.001-6.603 28.912-16.424l-7.227-4.328c-4.434 7.361-12.48 12.314-21.685 12.314-9.205 0-17.25-4.953-21.684-12.314l-7.227 4.328c5.91 9.821 16.643 16.424 28.911 16.424"/></g></g><g><path fill="#6EA6FF" d="M597 328h134.996V193H597z" opacity=".3"/><circle cx="12" cy="12" r="12" fill="#6EA6FF" transform="translate(653 271.4)"/><path fill="#000" d="M706.574 270.614l-5.4 40.517h-61.986v-41.567l15.567-51.245 3.788.755c5.898 1.181 10.172 6.4 10.172 12.411v24.802h25.312c3.653 0 7.125 1.574 9.526 4.316a12.66 12.66 0 0 1 3.02 10.011zm-92.699 40.517h16.875v-37.969h-16.875v37.97zm96.027-56.084a21.1 21.1 0 0 0-15.875-7.197h-16.875v-16.365c0-10.02-7.13-18.718-16.95-20.684l-3.794-.755c-4.256-.865-8.441 1.632-9.724 5.805l-14.841 48.874h-26.406v54.844h103.128l6.37-47.837a21.095 21.095 0 0 0-5.033-16.685z"/></g></g></svg>