<svg id="Layer_1" data-name="Layer 1" xmlns="http://www.w3.org/2000/svg" viewBox="0 0 1120 630"><defs><style>.cls-1{fill:#fff;}.cls-2{fill:#6f6f6f;}</style></defs><title>iconography_usage_sizing-alt</title><rect id="Rectangle" class="cls-1" width="1120" height="630"/><g id="_32px" data-name="32px"><path class="cls-2" d="M843.2,349.22h1.3c1.6,0,2.4-.8,2.4-2v-.1a1.89,1.89,0,0,0-2.1-1.9,2.56,2.56,0,0,0-2.4,1.5l-1-.8a4,4,0,0,1,3.5-1.9c2,0,3.6,1.1,3.6,3a2.89,2.89,0,0,1-2.3,2.8v.1a3,3,0,0,1,2.5,3c0,2-1.6,3.4-4,3.4a4.35,4.35,0,0,1-3.8-2l1.1-.8a3,3,0,0,0,2.7,1.6c1.7,0,2.5-.8,2.5-2.2v-.3c0-1.4-.9-2.2-2.5-2.2h-1.5Zm16,5.6v1.3h-7.7v-1.5l3.9-3.5a5,5,0,0,0,1.9-3.3v-.2a2,2,0,0,0-2.2-2.2,2.32,2.32,0,0,0-2.4,2l-1.3-.5a3.77,3.77,0,0,1,3.8-2.8,3.26,3.26,0,0,1,3.6,3.4c0,1.8-1.1,3.1-2.6,4.5l-3.2,2.8Zm2.6,4.6v-12.1h1.4v1.4h.1a2.63,2.63,0,0,1,2.6-1.6c2.2,0,3.5,1.8,3.5,4.6s-1.4,4.6-3.5,4.6a2.72,2.72,0,0,1-2.6-1.6h-.1v4.8l-1.4-.1Zm3.6-4.4a2.39,2.39,0,0,0,2.5-2.6v-1.5a2.34,2.34,0,0,0-2.5-2.6c-1.2,0-2.2.7-2.2,1.7v3.2C863.2,354.42,864.2,355,865.4,355Zm4.9,1,3.2-4.4-3.1-4.3H872l2.2,3.2h.1l2.3-3.2h1.5l-3.1,4.2,3.1,4.5h-1.6l-2.2-3.4h-.1l-2.4,3.4Z"/><path d="M870.7,296.3l-5-5a.91.91,0,0,0-.7-.3H849a2,2,0,0,0-2,2v20a2,2,0,0,0,2,2h20a2,2,0,0,0,2-2V297A.91.91,0,0,0,870.7,296.3ZM855,293h8v4h-8Zm8,20h-8v-8h8Zm2,0v-8a2,2,0,0,0-2-2h-8a2,2,0,0,0-2,2v8h-4V293h4v4a2,2,0,0,0,2,2h8a2,2,0,0,0,2-2v-3.6l4,4V313Z"/></g><g id="_24px" data-name="24px"><path class="cls-2" d="M647.56,354.75v1.3h-7.7v-1.5l3.8-3.5a5,5,0,0,0,1.9-3.3v-.2a2,2,0,0,0-2.2-2.2,2.5,2.5,0,0,0-2.5,2l-1.2-.5a3.77,3.77,0,0,1,3.8-2.8,3.26,3.26,0,0,1,3.6,3.4c0,1.8-1.1,3.1-2.6,4.5l-3.2,2.9,6.3-.1Zm8.8,1.3H655v-2.3h-5.6v-1.3l4.9-8.2h2.1v8.3h1.7v1.2h-1.7Zm-1.4-10.7-4.3,7.2h4.4l-.1-7.2Zm5.3,14.1v-12.1h1.4v1.4h0a2.63,2.63,0,0,1,2.6-1.6c2.2,0,3.5,1.8,3.5,4.6s-1.4,4.6-3.5,4.6a2.72,2.72,0,0,1-2.6-1.6h-.1v4.7Zm3.6-4.4a2.39,2.39,0,0,0,2.5-2.6V351a2.34,2.34,0,0,0-2.5-2.6c-1.2,0-2.2.7-2.2,1.7v3.2C661.56,354.35,662.66,355.05,663.86,355.05Zm4.9,1,3.2-4.4-3.1-4.3h1.6l2.2,3.2h.1l2.3-3.2h1.5l-3.1,4.2,3.1,4.5H675l-2.3-3.4h-.1l-2.5,3.4Z"/><path d="M666.8,298l-3.8-3.8a.76.76,0,0,0-.5-.2h-12a1.54,1.54,0,0,0-1.5,1.5v15a1.54,1.54,0,0,0,1.5,1.5h15a1.54,1.54,0,0,0,1.5-1.5v-12A.76.76,0,0,0,666.8,298ZM655,295.5h6v3h-6Zm6,15h-6v-6h6Zm1.5,0v-6A1.54,1.54,0,0,0,661,303h-6a1.54,1.54,0,0,0-1.5,1.5v6h-3v-15h3v3A1.54,1.54,0,0,0,655,300h6a1.54,1.54,0,0,0,1.5-1.5v-2.7l3,3v11.7Z"/></g><g id="_20px" data-name="20px"><path class="cls-2" d="M447.21,354.76v1.3h-7.7v-1.5l3.8-3.5a5,5,0,0,0,1.9-3.3v-.2a2,2,0,0,0-2.2-2.2,2.32,2.32,0,0,0-2.4,2l-1.3-.6a3.77,3.77,0,0,1,3.8-2.8,3.26,3.26,0,0,1,3.6,3.4c0,1.8-1.1,3.1-2.6,4.5l-3.2,2.9Zm6.2,1.5c-2.8,0-4.1-2.2-4.1-6.1s1.2-6.1,4.1-6.1,4.1,2.2,4.1,6.1S456.21,356.26,453.41,356.26Zm0-1.3c1.8,0,2.6-1.6,2.6-3.9v-1.9c0-2.3-.7-3.9-2.6-3.9s-2.6,1.6-2.6,3.9v1.9C450.81,353.36,451.51,355,453.41,355Zm6.5,4.5v-12.1h1.4v1.4h0a2.63,2.63,0,0,1,2.6-1.6c2.2,0,3.5,1.8,3.5,4.6s-1.4,4.6-3.5,4.6a2.72,2.72,0,0,1-2.6-1.6h-.1v4.8h-1.3Zm3.6-4.4a2.39,2.39,0,0,0,2.5-2.6V351a2.34,2.34,0,0,0-2.5-2.6c-1.2,0-2.2.7-2.2,1.7v3.2C461.21,354.36,462.31,355.06,463.51,355.06Zm4.9,1,3.2-4.4-3.1-4.3h1.6l2.2,3.2h.1l2.3-3.2h1.5l-3.1,4.2,3.1,4.5h-1.6l-2.3-3.4h-.1l-2.5,3.4Z"/><path d="M458.8,298.5l-3.3-3.3c-.2-.1-.3-.2-.5-.2H444.3a1.32,1.32,0,0,0-1.3,1.3v13.3a1.35,1.35,0,0,0,1.3,1.4h13.3a1.33,1.33,0,0,0,1.4-1.2V299.1C459,298.7,458.9,298.7,458.8,298.5Zm-10.5-2.2h5.3v3.3h-5.3Zm5.4,13.4h-5.4v-5.3h5.3l.1,5.3Zm1.3,0v-5.3a1.32,1.32,0,0,0-1.3-1.3h-5.4a1.18,1.18,0,0,0-1.3,1.2v5.3h-2.7V296.3H447v3.3a1.35,1.35,0,0,0,1.3,1.4h5.3a1.35,1.35,0,0,0,1.4-1.3v-3l2.7,2.7v10.4l-2.7-.1Z"/></g><g id="_16px" data-name="16px"><path class="cls-2" d="M245.85,356.08h-7.7v-1.3h3.3v-9.5h-.1l-3,2.8-.8-.9,3.1-2.9h2.2v10.5h3Zm6,.2c-2.4,0-4-1.7-4-4.5a9.47,9.47,0,0,1,4.2-7.5h1.8c-2.5,1.8-3.9,3.4-4.6,6.1h.1a3.05,3.05,0,0,1,2.8-1.7,3.39,3.39,0,0,1,3.5,3.6A3.58,3.58,0,0,1,251.85,356.28Zm0-1.3a2.27,2.27,0,0,0,2.5-2.5v-.1a2.5,2.5,0,0,0-5,0v.1A2.27,2.27,0,0,0,251.85,355Zm6.5,4.4v-12.1h1.4v1.4h.1a2.63,2.63,0,0,1,2.6-1.6c2.2,0,3.5,1.8,3.5,4.6s-1.4,4.6-3.5,4.6a2.72,2.72,0,0,1-2.6-1.6h-.1v4.8h-1.4ZM262,355a2.39,2.39,0,0,0,2.5-2.6v-1.5a2.34,2.34,0,0,0-2.5-2.6c-1.2,0-2.2.7-2.2,1.7v3.3C259.75,354.38,260.75,355,262,355Zm4.9,1.1,3.2-4.4-3-4.4h1.5l2.2,3.2h.1l2.3-3.2h1.5l-3.1,4.3,3.1,4.5h-1.6l-2.3-3.4h-.1l-2.4,3.4Z"/><path d="M261.9,299.6l-2.5-2.5c-.1,0-.3-.1-.4-.1h-8a.94.94,0,0,0-1,1v10a.94.94,0,0,0,1,1h10a.94.94,0,0,0,1-1v-8C262,299.9,261.9,299.7,261.9,299.6ZM254,298h4v2h-4Zm4,10h-4v-4h4Zm1,0v-4a.94.94,0,0,0-1-1h-4a.94.94,0,0,0-1,1v4h-2V298h2v2a.94.94,0,0,0,1,1h4a.94.94,0,0,0,1-1v-1.8l2,2V308Z"/></g></svg>