<?xml version="1.0" encoding="UTF-8"?>
<svg width="288px" height="288px" viewBox="0 0 288 288" version="1.1" xmlns="http://www.w3.org/2000/svg" xmlns:xlink="http://www.w3.org/1999/xlink">
    <!-- Generator: Sketch 52.4 (67378) - http://www.bohemiancoding.com/sketch -->
    <title>iconography-usage-sizing-4</title>
    <desc>Created with Sketch.</desc>
    <g id="sizing-4" stroke="none" stroke-width="1" fill="none" fill-rule="evenodd">
        <rect id="Rectangle-3" fill="#FFFFFF" x="0" y="0" width="288" height="288"></rect>
        <g id="Page-1" transform="translate(47.000000, 113.000000)" fill="#000000">
            <path d="M0.137285383,44.416995 L3.48899923,41.606745 C6.13793194,45.119745 9.27344006,47.011245 13.6523186,47.011245 C19.0580619,47.011245 21.9773643,44.200845 21.9773643,39.877095 C21.9773643,36.310095 19.9771988,34.526595 15.0037169,33.391695 L11.9223728,32.688945 C5.05675329,31.121745 1.27247796,28.095045 1.27247796,22.312245 C1.27247796,15.610545 6.35413766,11.989395 13.7603465,11.989395 C19.4367595,11.989395 23.4370905,14.151345 26.248215,18.150795 L22.8424872,20.636895 C20.7881578,17.772345 17.9228693,15.988845 13.5441408,15.988845 C8.7327007,15.988845 5.75953442,18.096645 5.75953442,22.150095 C5.75953442,25.717095 8.08408353,27.338595 12.8413596,28.419495 L15.9228538,29.121945 C23.2748987,30.797445 26.4644207,34.040145 26.4644207,39.660945 C26.4644207,46.578795 21.5991168,51.010545 13.4899768,51.010545 C7.43546636,51.010545 3.16461562,48.524595 0.137285383,44.416995" id="Fill-1"></path>
            <path d="M49.0611746,42.25518 L49.0611746,37.66128 L43.3310478,37.66128 C38.4114299,37.66128 36.1950586,39.17463 36.1950586,41.87688 L36.1950586,43.01178 C36.1950586,45.76818 38.3574159,47.33553 41.7089797,47.33553 C45.9798305,47.33553 49.0611746,45.11973 49.0611746,42.25518 Z M54.1428343,50.36208 C50.9533123,50.36208 49.6559279,48.41643 49.3315443,45.82218 L49.0611746,45.82218 C47.8719681,49.22703 44.8986518,51.01053 41.0061986,51.01053 C35.1137299,51.01053 31.6539882,47.76783 31.6539882,42.57948 C31.6539882,37.33698 35.4381135,34.41858 43.5471035,34.41858 L49.0611746,34.41858 L49.0611746,31.66218 C49.0611746,27.71688 46.8988173,25.55508 42.4659248,25.55508 C39.114211,25.55508 36.8978398,27.17643 35.3840996,29.71653 L32.7893309,27.28443 C34.302921,24.31203 37.6546348,21.82593 42.6821305,21.82593 C49.3855582,21.82593 53.3858892,25.33893 53.3858892,31.22988 L53.3858892,46.57878 L56.5755613,46.57878 L56.5755613,50.36208 L54.1428343,50.36208 Z" id="Fill-3"></path>
            <polygon id="Fill-5" points="68.4689166 50.362065 58.6839947 22.474365 63.0088594 22.474365 67.8741633 36.310065 70.9014936 45.822165 71.1720133 45.822165 74.1990435 36.310065 79.1726753 22.474365 83.3353482 22.474365 73.4964124 50.362065"></polygon>
            <path d="M90.9574326,33.878025 L90.9574326,34.256325 L106.364604,34.256325 L106.364604,33.661875 C106.364604,28.743675 103.391287,25.446975 98.9583947,25.446975 C94.2551326,25.446975 90.9574326,29.013975 90.9574326,33.878025 M86.4163623,36.418275 C86.4163623,27.554775 91.3899941,21.825825 98.9583947,21.825825 C106.418617,21.825825 111.013702,27.554775 111.013702,35.445375 L111.013702,37.499175 L90.9574326,37.499175 L90.9574326,38.796225 C90.9574326,43.606275 94.0387768,47.227425 99.2286144,47.227425 C102.74252,47.227425 105.445617,45.497925 106.905193,42.417375 L109.986537,44.633175 C108.202577,48.416475 104.202096,51.010575 98.9583947,51.010575 C91.3899941,51.010575 86.4163623,45.281625 86.4163623,36.418275" id="Fill-7"></path>
            <path d="M178.004918,57.67281 L178.004918,36.73461 C178.004918,33.84366 175.660713,31.50006 172.769018,31.50006 L151.82542,31.50006 C148.933575,31.50006 146.589371,33.84366 146.589371,36.73461 L146.589371,57.67281 L136.117572,57.67281 L136.117572,5.32716 L146.589371,5.32716 L146.589371,15.79626 C146.589371,18.68736 148.933575,21.03096 151.82542,21.03096 L172.769018,21.03096 C175.660713,21.03096 178.004918,18.68736 178.004918,15.79626 L178.004918,6.40041 L188.476716,16.86951 L188.476716,57.67281 L178.004918,57.67281 Z M151.82542,57.67281 L172.769018,57.67281 L172.769018,36.73461 L151.82542,36.73461 L151.82542,57.67281 Z M151.82542,15.79626 L172.769018,15.79626 L172.769018,5.32716 L151.82542,5.32716 L151.82542,15.79626 Z M192.95342,13.93806 L179.863747,0.85161 C179.369669,0.36171 178.700797,0.08856 178.004918,0.09261 L136.117572,0.09261 C133.225877,0.09261 130.881672,2.43621 130.881672,5.32716 L130.881672,57.67281 C130.881672,60.56376 133.225877,62.90736 136.117572,62.90736 L188.476716,62.90736 C191.368412,62.90736 193.712616,60.56376 193.712616,57.67281 L193.712616,15.79626 C193.716667,15.10071 193.443447,14.43201 192.95342,13.93806 Z" id="Fill-9"></path>
        </g>
    </g>
</svg>