<?xml version="1.0" encoding="UTF-8"?>
<svg width="1120px" height="630px" viewBox="0 0 1120 630" version="1.1" xmlns="http://www.w3.org/2000/svg" xmlns:xlink="http://www.w3.org/1999/xlink">
    <!-- Generator: Sketch 53 (72520) - https://sketchapp.com -->
    <title>iconography_usage_sizing-1 copy</title>
    <desc>Created with Sketch.</desc>
    <defs>
        <path d="M28.6155172,6.38448276 L22.5810345,0.35 C22.3532704,0.124085242 22.0449347,-0.0018547089 21.7241379,-1.03308157e-13 L2.4137931,-1.03308157e-13 C1.08069198,-1.03308157e-13 0,1.08069198 0,2.4137931 L0,26.5517241 C0,27.8848253 1.08069198,28.9655172 2.4137931,28.9655172 L26.5517241,28.9655172 C27.8848253,28.9655172 28.9655172,27.8848253 28.9655172,26.5517241 L28.9655172,7.24137931 C28.967372,6.92058261 28.841432,6.61224686 28.6155172,6.38448276 Z M9.65517241,2.4137931 L19.3103448,2.4137931 L19.3103448,7.24137931 L9.65517241,7.24137931 L9.65517241,2.4137931 Z M19.3103448,26.5517241 L9.65517241,26.5517241 L9.65517241,16.8965517 L19.3103448,16.8965517 L19.3103448,26.5517241 Z M21.7241379,26.5517241 L21.7241379,16.8965517 C21.7241379,15.5634506 20.6434459,14.4827586 19.3103448,14.4827586 L9.65517241,14.4827586 C8.32207129,14.4827586 7.24137931,15.5634506 7.24137931,16.8965517 L7.24137931,26.5517241 L2.4137931,26.5517241 L2.4137931,2.4137931 L7.24137931,2.4137931 L7.24137931,7.24137931 C7.24137931,8.57448043 8.32207129,9.65517241 9.65517241,9.65517241 L19.3103448,9.65517241 C20.6434459,9.65517241 21.7241379,8.57448043 21.7241379,7.24137931 L21.7241379,2.90862069 L26.5517241,7.7362069 L26.5517241,26.5517241 L21.7241379,26.5517241 Z" id="path-1"></path>
        <path d="M21.4616379,4.78836207 L16.9357759,0.2625 C16.7649528,0.0930639309 16.5337009,-0.00139103167 16.2931034,-7.74811293e-14 L1.81034483,-7.74811293e-14 C0.810518987,-7.74811293e-14 0,0.810518987 0,1.81034483 L0,19.9137931 C0,20.9136189 0.810518987,21.7241379 1.81034483,21.7241379 L19.9137931,21.7241379 C20.9136189,21.7241379 21.7241379,20.9136189 21.7241379,19.9137931 L21.7241379,5.43103448 C21.725529,5.19043695 21.631074,4.95918514 21.4616379,4.78836207 Z M7.24137931,1.81034483 L14.4827586,1.81034483 L14.4827586,5.43103448 L7.24137931,5.43103448 L7.24137931,1.81034483 Z M14.4827586,19.9137931 L7.24137931,19.9137931 L7.24137931,12.6724138 L14.4827586,12.6724138 L14.4827586,19.9137931 Z M16.2931034,19.9137931 L16.2931034,12.6724138 C16.2931034,11.672588 15.4825844,10.862069 14.4827586,10.862069 L7.24137931,10.862069 C6.24155348,10.862069 5.43103448,11.672588 5.43103448,12.6724138 L5.43103448,19.9137931 L1.81034483,19.9137931 L1.81034483,1.81034483 L5.43103448,1.81034483 L5.43103448,5.43103448 C5.43103448,6.43086032 6.24155348,7.24137931 7.24137931,7.24137931 L14.4827586,7.24137931 C15.4825844,7.24137931 16.2931034,6.43086032 16.2931034,5.43103448 L16.2931034,2.18146552 L19.9137931,5.80215517 L19.9137931,19.9137931 L16.2931034,19.9137931 Z" id="path-3"></path>
        <path d="M17.8846983,3.99030172 L14.1131466,0.21875 C13.9707939,0.0775532758 13.7780842,-0.00115919306 13.5775862,-6.56395494e-14 L1.50862069,-6.56395494e-14 C0.67543249,-6.56395494e-14 0,0.67543249 0,1.50862069 L0,16.5948276 C0,17.4280157 0.67543249,18.1034483 1.50862069,18.1034483 L16.5948276,18.1034483 C17.4280157,18.1034483 18.1034483,17.4280157 18.1034483,16.5948276 L18.1034483,4.52586207 C18.1046075,4.32536412 18.025895,4.13265429 17.8846983,3.99030172 Z M6.03448276,1.50862069 L12.0689655,1.50862069 L12.0689655,4.52586207 L6.03448276,4.52586207 L6.03448276,1.50862069 Z M12.0689655,16.5948276 L6.03448276,16.5948276 L6.03448276,10.5603448 L12.0689655,10.5603448 L12.0689655,16.5948276 Z M13.5775862,16.5948276 L13.5775862,10.5603448 C13.5775862,9.72715662 12.9021537,9.05172414 12.0689655,9.05172414 L6.03448276,9.05172414 C5.20129456,9.05172414 4.52586207,9.72715662 4.52586207,10.5603448 L4.52586207,16.5948276 L1.50862069,16.5948276 L1.50862069,1.50862069 L4.52586207,1.50862069 L4.52586207,4.52586207 C4.52586207,5.35905027 5.20129456,6.03448276 6.03448276,6.03448276 L12.0689655,6.03448276 C12.9021537,6.03448276 13.5775862,5.35905027 13.5775862,4.52586207 L13.5775862,1.81788793 L16.5948276,4.83512931 L16.5948276,16.5948276 L13.5775862,16.5948276 Z" id="path-5"></path>
        <path d="M14.3077586,3.19224138 L11.2905172,0.175 C11.1766352,0.0620426206 11.0224673,-0.000927354448 10.862069,-5.27260222e-14 L1.20689655,-5.27260222e-14 C0.540345991,-5.27260222e-14 0,0.540345991 0,1.20689655 L0,13.2758621 C0,13.9424126 0.540345991,14.4827586 1.20689655,14.4827586 L13.2758621,14.4827586 C13.9424126,14.4827586 14.4827586,13.9424126 14.4827586,13.2758621 L14.4827586,3.62068966 C14.483686,3.46029131 14.4207161,3.30612344 14.3077586,3.19224138 Z M4.82758621,1.20689655 L9.65517241,1.20689655 L9.65517241,3.62068966 L4.82758621,3.62068966 L4.82758621,1.20689655 Z M9.65517241,13.2758621 L4.82758621,13.2758621 L4.82758621,8.44827586 L9.65517241,8.44827586 L9.65517241,13.2758621 Z M10.862069,13.2758621 L10.862069,8.44827586 C10.862069,7.7817253 10.321723,7.24137931 9.65517241,7.24137931 L4.82758621,7.24137931 C4.16103565,7.24137931 3.62068966,7.7817253 3.62068966,8.44827586 L3.62068966,13.2758621 L1.20689655,13.2758621 L1.20689655,1.20689655 L3.62068966,1.20689655 L3.62068966,3.62068966 C3.62068966,4.28724022 4.16103565,4.82758621 4.82758621,4.82758621 L9.65517241,4.82758621 C10.321723,4.82758621 10.862069,4.28724022 10.862069,3.62068966 L10.862069,1.45431034 L13.2758621,3.86810345 L13.2758621,13.2758621 L10.862069,13.2758621 Z" id="path-7"></path>
    </defs>
    <g id="sizing-1-copy" stroke="none" stroke-width="1" fill="none" fill-rule="evenodd">
        <g id="sizing-example-comp">
            <rect id="Rectangle-3" fill="#FFFFFF" fill-rule="nonzero" x="0" y="0" width="1120" height="630"></rect>
            <g id="Group-27" transform="translate(840.000000, 283.620690)">
                <g id="Group">
                    <g id="icon/formatting/save/32">
                        <g id="save" transform="translate(4.827586, 4.827586)">
                            <g id="Mask" fill="#000000" fill-rule="nonzero">
                                <path d="M28.6155172,6.38448276 L22.5810345,0.35 C22.3532704,0.124085242 22.0449347,-0.0018547089 21.7241379,-1.03308157e-13 L2.4137931,-1.03308157e-13 C1.08069198,-1.03308157e-13 0,1.08069198 0,2.4137931 L0,26.5517241 C0,27.8848253 1.08069198,28.9655172 2.4137931,28.9655172 L26.5517241,28.9655172 C27.8848253,28.9655172 28.9655172,27.8848253 28.9655172,26.5517241 L28.9655172,7.24137931 C28.967372,6.92058261 28.841432,6.61224686 28.6155172,6.38448276 Z M9.65517241,2.4137931 L19.3103448,2.4137931 L19.3103448,7.24137931 L9.65517241,7.24137931 L9.65517241,2.4137931 Z M19.3103448,26.5517241 L9.65517241,26.5517241 L9.65517241,16.8965517 L19.3103448,16.8965517 L19.3103448,26.5517241 Z M21.7241379,26.5517241 L21.7241379,16.8965517 C21.7241379,15.5634506 20.6434459,14.4827586 19.3103448,14.4827586 L9.65517241,14.4827586 C8.32207129,14.4827586 7.24137931,15.5634506 7.24137931,16.8965517 L7.24137931,26.5517241 L2.4137931,26.5517241 L2.4137931,2.4137931 L7.24137931,2.4137931 L7.24137931,7.24137931 C7.24137931,8.57448043 8.32207129,9.65517241 9.65517241,9.65517241 L19.3103448,9.65517241 C20.6434459,9.65517241 21.7241379,8.57448043 21.7241379,7.24137931 L21.7241379,2.90862069 L26.5517241,7.7362069 L26.5517241,26.5517241 L21.7241379,26.5517241 Z" id="path-1"></path>
                            </g>
                            <g id="color/black-Clipped">
                                <mask id="mask-2" fill="white">
                                    <use xlink:href="#path-1"></use>
                                </mask>
                                <g id="path-1"></g>
                            </g>
                        </g>
                        <rect id="transparent-rectangle" x="0" y="0" width="38.6206897" height="38.6206897"></rect>
                    </g>
                </g>
                <path d="M3.21637931,65.6213793 L4.50051724,65.6213793 C6.0887931,65.6213793 6.89982759,64.7934483 6.89982759,63.6613793 L6.89982759,63.5431034 C6.89982759,62.3096552 6.03810345,61.6844828 4.78775862,61.6844828 C3.5712069,61.6844828 2.84465517,62.2589655 2.35465517,63.1544828 L1.30706897,62.3434483 C1.89844828,61.3972414 2.92913793,60.4172414 4.82155172,60.4172414 C6.81534483,60.4172414 8.40362069,61.4817241 8.40362069,63.3910345 C8.40362069,64.9117241 7.38982759,65.8241379 6.13948276,66.1451724 L6.13948276,66.2127586 C7.40672414,66.4662069 8.62327586,67.4124138 8.62327586,69.1865517 C8.62327586,71.2141379 7.01810345,72.6165517 4.6187931,72.6165517 C2.57431034,72.6165517 1.52672414,71.6196552 0.800172414,70.6058621 L1.86465517,69.7948276 C2.47293103,70.7241379 3.16568966,71.3493103 4.60189655,71.3493103 C6.25775862,71.3493103 7.13637931,70.5551724 7.13637931,69.1696552 L7.13637931,69.0344828 C7.13637931,67.6489655 6.25775862,66.8548276 4.60189655,66.8548276 L3.21637931,66.8548276 L3.21637931,65.6213793 Z M19.2343103,71.1634483 L19.2343103,72.4137931 L11.4956897,72.4137931 L11.4956897,70.9606897 L15.3481034,67.4124138 C16.4463793,66.3986207 17.2912069,65.2158621 17.2912069,64.0837931 L17.2912069,63.8810345 C17.2912069,62.58 16.5646552,61.6844828 15.1115517,61.6844828 C13.6584483,61.6844828 12.9825862,62.5631034 12.6615517,63.6782759 L11.3943103,63.1882759 C11.8505172,61.8027586 12.8981034,60.4172414 15.1791379,60.4172414 C17.477069,60.4172414 18.795,61.8365517 18.795,63.8472414 C18.795,65.672069 17.7136207,66.9562069 16.2098276,68.307931 L13.0332759,71.1634483 L19.2343103,71.1634483 Z M21.8025862,75.7931034 L21.8025862,63.6951724 L23.1543103,63.6951724 L23.1543103,65.1144828 L23.2218966,65.1144828 C23.6781034,64.0162069 24.5736207,63.4924138 25.7732759,63.4924138 C27.952931,63.4924138 29.3215517,65.2665517 29.3215517,68.0544828 C29.3215517,70.8424138 27.952931,72.6165517 25.7732759,72.6165517 C24.5736207,72.6165517 23.7456897,72.0758621 23.2218966,70.9944828 L23.1543103,70.9944828 L23.1543103,75.7931034 L21.8025862,75.7931034 Z M25.4015517,71.4 C26.9222414,71.4 27.8684483,70.3524138 27.8684483,68.797931 L27.8684483,67.3110345 C27.8684483,65.7565517 26.9222414,64.7089655 25.4015517,64.7089655 C24.1681034,64.7089655 23.1543103,65.4186207 23.1543103,66.3817241 L23.1543103,69.6258621 C23.1543103,70.757931 24.1681034,71.4 25.4015517,71.4 Z M30.3184483,72.4137931 L33.5456897,68.0206897 L30.4536207,63.6951724 L32.0418966,63.6951724 L34.2553448,66.9393103 L34.3060345,66.9393103 L36.6039655,63.6951724 L38.1077586,63.6951724 L35.0325862,67.9193103 L38.1753448,72.4137931 L36.587069,72.4137931 L34.322931,69.0006897 L34.2722414,69.0006897 L31.8222414,72.4137931 L30.3184483,72.4137931 Z" id="32px" fill="#6F6F6F" fill-rule="nonzero"></path>
            </g>
            <g id="Group-23" transform="translate(639.655172, 288.448276)">
                <g id="Group" transform="translate(3.620690, 0.000000)">
                    <g id="icon/formatting/save/32">
                        <g id="save" transform="translate(3.620690, 3.620690)">
                            <g id="Mask" fill="#000000" fill-rule="nonzero">
                                <path d="M21.4616379,4.78836207 L16.9357759,0.2625 C16.7649528,0.0930639309 16.5337009,-0.00139103167 16.2931034,-7.74811293e-14 L1.81034483,-7.74811293e-14 C0.810518987,-7.74811293e-14 0,0.810518987 0,1.81034483 L0,19.9137931 C0,20.9136189 0.810518987,21.7241379 1.81034483,21.7241379 L19.9137931,21.7241379 C20.9136189,21.7241379 21.7241379,20.9136189 21.7241379,19.9137931 L21.7241379,5.43103448 C21.725529,5.19043695 21.631074,4.95918514 21.4616379,4.78836207 Z M7.24137931,1.81034483 L14.4827586,1.81034483 L14.4827586,5.43103448 L7.24137931,5.43103448 L7.24137931,1.81034483 Z M14.4827586,19.9137931 L7.24137931,19.9137931 L7.24137931,12.6724138 L14.4827586,12.6724138 L14.4827586,19.9137931 Z M16.2931034,19.9137931 L16.2931034,12.6724138 C16.2931034,11.672588 15.4825844,10.862069 14.4827586,10.862069 L7.24137931,10.862069 C6.24155348,10.862069 5.43103448,11.672588 5.43103448,12.6724138 L5.43103448,19.9137931 L1.81034483,19.9137931 L1.81034483,1.81034483 L5.43103448,1.81034483 L5.43103448,5.43103448 C5.43103448,6.43086032 6.24155348,7.24137931 7.24137931,7.24137931 L14.4827586,7.24137931 C15.4825844,7.24137931 16.2931034,6.43086032 16.2931034,5.43103448 L16.2931034,2.18146552 L19.9137931,5.80215517 L19.9137931,19.9137931 L16.2931034,19.9137931 Z" id="path-3"></path>
                            </g>
                            <g id="color/black-Clipped">
                                <mask id="mask-4" fill="white">
                                    <use xlink:href="#path-3"></use>
                                </mask>
                                <g id="path-3"></g>
                            </g>
                        </g>
                        <rect id="transparent-rectangle" x="0" y="0" width="28.9655172" height="28.9655172"></rect>
                    </g>
                </g>
                <path d="M7.88948276,66.3358621 L7.88948276,67.5862069 L0.150862069,67.5862069 L0.150862069,66.1331034 L4.00327586,62.5848276 C5.10155172,61.5710345 5.94637931,60.3882759 5.94637931,59.2562069 L5.94637931,59.0534483 C5.94637931,57.7524138 5.21982759,56.8568966 3.76672414,56.8568966 C2.31362069,56.8568966 1.63775862,57.7355172 1.31672414,58.8506897 L0.0494827586,58.3606897 C0.505689655,56.9751724 1.55327586,55.5896552 3.83431034,55.5896552 C6.13224138,55.5896552 7.45017241,57.0089655 7.45017241,59.0196552 C7.45017241,60.8444828 6.3687931,62.1286207 4.865,63.4803448 L1.68844828,66.3358621 L7.88948276,66.3358621 Z M16.7094828,67.5862069 L15.3577586,67.5862069 L15.3577586,65.2713793 L9.66362069,65.2713793 L9.66362069,64.0210345 L14.5974138,55.7924138 L16.7094828,55.7924138 L16.7094828,64.0886207 L18.4160345,64.0886207 L18.4160345,65.2713793 L16.7094828,65.2713793 L16.7094828,67.5862069 Z M15.2732759,56.8906897 L10.9984483,64.0886207 L15.3577586,64.0886207 L15.3577586,56.8906897 L15.2732759,56.8906897 Z M20.5956897,70.9655172 L20.5956897,58.8675862 L21.9474138,58.8675862 L21.9474138,60.2868966 L22.015,60.2868966 C22.4712069,59.1886207 23.3667241,58.6648276 24.5663793,58.6648276 C26.7460345,58.6648276 28.1146552,60.4389655 28.1146552,63.2268966 C28.1146552,66.0148276 26.7460345,67.7889655 24.5663793,67.7889655 C23.3667241,67.7889655 22.5387931,67.2482759 22.015,66.1668966 L21.9474138,66.1668966 L21.9474138,70.9655172 L20.5956897,70.9655172 Z M24.1946552,66.5724138 C25.7153448,66.5724138 26.6615517,65.5248276 26.6615517,63.9703448 L26.6615517,62.4834483 C26.6615517,60.9289655 25.7153448,59.8813793 24.1946552,59.8813793 C22.9612069,59.8813793 21.9474138,60.5910345 21.9474138,61.5541379 L21.9474138,64.7982759 C21.9474138,65.9303448 22.9612069,66.5724138 24.1946552,66.5724138 Z M29.1115517,67.5862069 L32.3387931,63.1931034 L29.2467241,58.8675862 L30.835,58.8675862 L33.0484483,62.1117241 L33.0991379,62.1117241 L35.397069,58.8675862 L36.9008621,58.8675862 L33.8256897,63.0917241 L36.9684483,67.5862069 L35.3801724,67.5862069 L33.1160345,64.1731034 L33.0653448,64.1731034 L30.6153448,67.5862069 L29.1115517,67.5862069 Z" id="24px" fill="#6F6F6F" fill-rule="nonzero"></path>
            </g>
            <g id="Group-21" transform="translate(439.310345, 290.862069)">
                <g id="Group" transform="translate(6.034483, 0.000000)">
                    <g id="icon/formatting/save/32">
                        <g id="save" transform="translate(3.017241, 3.017241)">
                            <g id="Mask" fill="#000000" fill-rule="nonzero">
                                <path d="M17.8846983,3.99030172 L14.1131466,0.21875 C13.9707939,0.0775532758 13.7780842,-0.00115919306 13.5775862,-6.56395494e-14 L1.50862069,-6.56395494e-14 C0.67543249,-6.56395494e-14 0,0.67543249 0,1.50862069 L0,16.5948276 C0,17.4280157 0.67543249,18.1034483 1.50862069,18.1034483 L16.5948276,18.1034483 C17.4280157,18.1034483 18.1034483,17.4280157 18.1034483,16.5948276 L18.1034483,4.52586207 C18.1046075,4.32536412 18.025895,4.13265429 17.8846983,3.99030172 Z M6.03448276,1.50862069 L12.0689655,1.50862069 L12.0689655,4.52586207 L6.03448276,4.52586207 L6.03448276,1.50862069 Z M12.0689655,16.5948276 L6.03448276,16.5948276 L6.03448276,10.5603448 L12.0689655,10.5603448 L12.0689655,16.5948276 Z M13.5775862,16.5948276 L13.5775862,10.5603448 C13.5775862,9.72715662 12.9021537,9.05172414 12.0689655,9.05172414 L6.03448276,9.05172414 C5.20129456,9.05172414 4.52586207,9.72715662 4.52586207,10.5603448 L4.52586207,16.5948276 L1.50862069,16.5948276 L1.50862069,1.50862069 L4.52586207,1.50862069 L4.52586207,4.52586207 C4.52586207,5.35905027 5.20129456,6.03448276 6.03448276,6.03448276 L12.0689655,6.03448276 C12.9021537,6.03448276 13.5775862,5.35905027 13.5775862,4.52586207 L13.5775862,1.81788793 L16.5948276,4.83512931 L16.5948276,16.5948276 L13.5775862,16.5948276 Z" id="path-5"></path>
                            </g>
                            <g id="color/black-Clipped">
                                <mask id="mask-6" fill="white">
                                    <use xlink:href="#path-5"></use>
                                </mask>
                                <g id="path-5"></g>
                            </g>
                        </g>
                        <rect id="transparent-rectangle" x="0" y="0" width="24.137931" height="24.137931"></rect>
                    </g>
                </g>
                <path d="M7.88948276,63.922069 L7.88948276,65.1724138 L0.150862069,65.1724138 L0.150862069,63.7193103 L4.00327586,60.1710345 C5.10155172,59.1572414 5.94637931,57.9744828 5.94637931,56.8424138 L5.94637931,56.6396552 C5.94637931,55.3386207 5.21982759,54.4431034 3.76672414,54.4431034 C2.31362069,54.4431034 1.63775862,55.3217241 1.31672414,56.4368966 L0.0494827586,55.9468966 C0.505689655,54.5613793 1.55327586,53.1758621 3.83431034,53.1758621 C6.13224138,53.1758621 7.45017241,54.5951724 7.45017241,56.6058621 C7.45017241,58.4306897 6.3687931,59.7148276 4.865,61.0665517 L1.68844828,63.922069 L7.88948276,63.922069 Z M14.0905172,65.3751724 C11.2687931,65.3751724 10.0353448,63.127931 10.0353448,59.2755172 C10.0353448,55.4231034 11.2687931,53.1758621 14.0905172,53.1758621 C16.9122414,53.1758621 18.1456897,55.4231034 18.1456897,59.2755172 C18.1456897,63.127931 16.9122414,65.3751724 14.0905172,65.3751724 Z M14.0905172,64.1417241 C15.9322414,64.1417241 16.6587931,62.5196552 16.6587931,60.2386207 L16.6587931,58.3124138 C16.6587931,56.0313793 15.9322414,54.4093103 14.0905172,54.4093103 C12.2487931,54.4093103 11.5222414,56.0313793 11.5222414,58.3124138 L11.5222414,60.2386207 C11.5222414,62.5196552 12.2487931,64.1417241 14.0905172,64.1417241 Z M20.5956897,68.5517241 L20.5956897,56.4537931 L21.9474138,56.4537931 L21.9474138,57.8731034 L22.015,57.8731034 C22.4712069,56.7748276 23.3667241,56.2510345 24.5663793,56.2510345 C26.7460345,56.2510345 28.1146552,58.0251724 28.1146552,60.8131034 C28.1146552,63.6010345 26.7460345,65.3751724 24.5663793,65.3751724 C23.3667241,65.3751724 22.5387931,64.8344828 22.015,63.7531034 L21.9474138,63.7531034 L21.9474138,68.5517241 L20.5956897,68.5517241 Z M24.1946552,64.1586207 C25.7153448,64.1586207 26.6615517,63.1110345 26.6615517,61.5565517 L26.6615517,60.0696552 C26.6615517,58.5151724 25.7153448,57.4675862 24.1946552,57.4675862 C22.9612069,57.4675862 21.9474138,58.1772414 21.9474138,59.1403448 L21.9474138,62.3844828 C21.9474138,63.5165517 22.9612069,64.1586207 24.1946552,64.1586207 Z M29.1115517,65.1724138 L32.3387931,60.7793103 L29.2467241,56.4537931 L30.835,56.4537931 L33.0484483,59.697931 L33.0991379,59.697931 L35.397069,56.4537931 L36.9008621,56.4537931 L33.8256897,60.677931 L36.9684483,65.1724138 L35.3801724,65.1724138 L33.1160345,61.7593103 L33.0653448,61.7593103 L30.6153448,65.1724138 L29.1115517,65.1724138 Z" id="20px" fill="#6F6F6F" fill-rule="nonzero"></path>
            </g>
            <g id="Group-20" transform="translate(236.551724, 293.275862)">
                <g id="Group" transform="translate(9.655172, 0.000000)">
                    <g id="icon/formatting/save/32">
                        <g id="save" transform="translate(2.413793, 2.413793)">
                            <g id="Mask" fill="#000000" fill-rule="nonzero">
                                <path d="M14.3077586,3.19224138 L11.2905172,0.175 C11.1766352,0.0620426206 11.0224673,-0.000927354448 10.862069,-5.27260222e-14 L1.20689655,-5.27260222e-14 C0.540345991,-5.27260222e-14 0,0.540345991 0,1.20689655 L0,13.2758621 C0,13.9424126 0.540345991,14.4827586 1.20689655,14.4827586 L13.2758621,14.4827586 C13.9424126,14.4827586 14.4827586,13.9424126 14.4827586,13.2758621 L14.4827586,3.62068966 C14.483686,3.46029131 14.4207161,3.30612344 14.3077586,3.19224138 Z M4.82758621,1.20689655 L9.65517241,1.20689655 L9.65517241,3.62068966 L4.82758621,3.62068966 L4.82758621,1.20689655 Z M9.65517241,13.2758621 L4.82758621,13.2758621 L4.82758621,8.44827586 L9.65517241,8.44827586 L9.65517241,13.2758621 Z M10.862069,13.2758621 L10.862069,8.44827586 C10.862069,7.7817253 10.321723,7.24137931 9.65517241,7.24137931 L4.82758621,7.24137931 C4.16103565,7.24137931 3.62068966,7.7817253 3.62068966,8.44827586 L3.62068966,13.2758621 L1.20689655,13.2758621 L1.20689655,1.20689655 L3.62068966,1.20689655 L3.62068966,3.62068966 C3.62068966,4.28724022 4.16103565,4.82758621 4.82758621,4.82758621 L9.65517241,4.82758621 C10.321723,4.82758621 10.862069,4.28724022 10.862069,3.62068966 L10.862069,1.45431034 L13.2758621,3.86810345 L13.2758621,13.2758621 L10.862069,13.2758621 Z" id="path-7"></path>
                            </g>
                            <g id="color/black-Clipped">
                                <mask id="mask-8" fill="white">
                                    <use xlink:href="#path-7"></use>
                                </mask>
                                <g id="path-7"></g>
                            </g>
                        </g>
                        <rect id="transparent-rectangle" x="0" y="0" width="19.3103448" height="19.3103448"></rect>
                    </g>
                </g>
                <path d="M9.33293103,62.7586207 L1.57741379,62.7586207 L1.57741379,61.5082759 L4.87224138,61.5082759 L4.87224138,52.0124138 L4.75396552,52.0124138 L1.78017241,54.7834483 L0.952241379,53.887931 L4.07810345,50.9648276 L6.29155172,50.9648276 L6.29155172,61.5082759 L9.33293103,61.5082759 L9.33293103,62.7586207 Z M15.3143103,62.9613793 C12.8643103,62.9613793 11.3605172,61.237931 11.3605172,58.4331034 C11.3605172,54.9355172 13.6753448,52.1982759 15.5677586,50.9648276 L17.3925862,50.9648276 C14.875,52.8065517 13.4725862,54.3441379 12.8305172,57.0813793 L12.915,57.1151724 C13.4725862,56.152069 14.3174138,55.4255172 15.7536207,55.4255172 C17.7812069,55.4255172 19.2343103,56.827931 19.2343103,59.0582759 C19.2343103,61.3731034 17.6798276,62.9613793 15.3143103,62.9613793 Z M15.2974138,61.727931 C16.8518966,61.727931 17.7643103,60.8324138 17.7643103,59.2441379 L17.7643103,59.1089655 C17.7643103,57.5206897 16.8518966,56.6251724 15.2974138,56.6251724 C13.742931,56.6251724 12.8305172,57.5206897 12.8305172,59.1089655 L12.8305172,59.2441379 C12.8305172,60.8324138 13.742931,61.727931 15.2974138,61.727931 Z M21.8025862,66.137931 L21.8025862,54.04 L23.1543103,54.04 L23.1543103,55.4593103 L23.2218966,55.4593103 C23.6781034,54.3610345 24.5736207,53.8372414 25.7732759,53.8372414 C27.952931,53.8372414 29.3215517,55.6113793 29.3215517,58.3993103 C29.3215517,61.1872414 27.952931,62.9613793 25.7732759,62.9613793 C24.5736207,62.9613793 23.7456897,62.4206897 23.2218966,61.3393103 L23.1543103,61.3393103 L23.1543103,66.137931 L21.8025862,66.137931 Z M25.4015517,61.7448276 C26.9222414,61.7448276 27.8684483,60.6972414 27.8684483,59.1427586 L27.8684483,57.6558621 C27.8684483,56.1013793 26.9222414,55.0537931 25.4015517,55.0537931 C24.1681034,55.0537931 23.1543103,55.7634483 23.1543103,56.7265517 L23.1543103,59.9706897 C23.1543103,61.1027586 24.1681034,61.7448276 25.4015517,61.7448276 Z M30.3184483,62.7586207 L33.5456897,58.3655172 L30.4536207,54.04 L32.0418966,54.04 L34.2553448,57.2841379 L34.3060345,57.2841379 L36.6039655,54.04 L38.1077586,54.04 L35.0325862,58.2641379 L38.1753448,62.7586207 L36.587069,62.7586207 L34.322931,59.3455172 L34.2722414,59.3455172 L31.8222414,62.7586207 L30.3184483,62.7586207 Z" id="16px" fill="#6F6F6F" fill-rule="nonzero"></path>
            </g>
        </g>
    </g>
</svg>