<?xml version="1.0" encoding="UTF-8"?>
<svg width="928px" height="522px" viewBox="0 0 928 522" version="1.1" xmlns="http://www.w3.org/2000/svg" xmlns:xlink="http://www.w3.org/1999/xlink">
    <!-- Generator: Sketch 52.4 (67378) - http://www.bohemiancoding.com/sketch -->
    <title>Iconography_usage_Sizing 1</title>
    <desc>Created with Sketch.</desc>
    <defs>
        <path d="M23.71,5.29 L18.71,0.29 C18.5212812,0.102813486 18.265803,-0.0015367588 18,-8.55981918e-14 L2,-8.55981918e-14 C0.8954305,-8.55981918e-14 0,0.8954305 0,2 L0,22 C0,23.1045695 0.8954305,24 2,24 L22,24 C23.1045695,24 24,23.1045695 24,22 L24,6 C24.0015368,5.73419702 23.8971865,5.47871883 23.71,5.29 Z M8,2 L16,2 L16,6 L8,6 L8,2 Z M16,22 L8,22 L8,14 L16,14 L16,22 Z M18,22 L18,14 C18,12.8954305 17.1045695,12 16,12 L8,12 C6.8954305,12 6,12.8954305 6,14 L6,22 L2,22 L2,2 L6,2 L6,6 C6,7.1045695 6.8954305,8 8,8 L16,8 C17.1045695,8 18,7.1045695 18,6 L18,2.41 L22,6.41 L22,22 L18,22 Z" id="path-1"></path>
        <path d="M17.7825,3.9675 L14.0325,0.2175 C13.8909609,0.0771101142 13.6993522,-0.0011525691 13.5,-6.4198643e-14 L1.5,-6.4198643e-14 C0.671572875,-6.4198643e-14 0,0.671572875 0,1.5 L0,16.5 C0,17.3284271 0.671572875,18 1.5,18 L16.5,18 C17.3284271,18 18,17.3284271 18,16.5 L18,4.5 C18.0011526,4.30064776 17.9228899,4.10903912 17.7825,3.9675 Z M6,1.5 L12,1.5 L12,4.5 L6,4.5 L6,1.5 Z M12,16.5 L6,16.5 L6,10.5 L12,10.5 L12,16.5 Z M13.5,16.5 L13.5,10.5 C13.5,9.67157288 12.8284271,9 12,9 L6,9 C5.17157288,9 4.5,9.67157288 4.5,10.5 L4.5,16.5 L1.5,16.5 L1.5,1.5 L4.5,1.5 L4.5,4.5 C4.5,5.32842712 5.17157288,6 6,6 L12,6 C12.8284271,6 13.5,5.32842712 13.5,4.5 L13.5,1.8075 L16.5,4.8075 L16.5,16.5 L13.5,16.5 Z" id="path-3"></path>
        <path d="M14.81875,3.30625 L11.69375,0.18125 C11.5758007,0.0642584285 11.4161269,-0.00096047425 11.25,-5.43870487e-14 L1.25,-5.43870487e-14 C0.559644063,-5.43870487e-14 0,0.559644063 0,1.25 L0,13.75 C0,14.4403559 0.559644063,15 1.25,15 L13.75,15 C14.4403559,15 15,14.4403559 15,13.75 L15,3.75 C15.0009605,3.58387313 14.9357416,3.42419927 14.81875,3.30625 Z M5,1.25 L10,1.25 L10,3.75 L5,3.75 L5,1.25 Z M10,13.75 L5,13.75 L5,8.75 L10,8.75 L10,13.75 Z M11.25,13.75 L11.25,8.75 C11.25,8.05964406 10.6903559,7.5 10,7.5 L5,7.5 C4.30964406,7.5 3.75,8.05964406 3.75,8.75 L3.75,13.75 L1.25,13.75 L1.25,1.25 L3.75,1.25 L3.75,3.75 C3.75,4.44035594 4.30964406,5 5,5 L10,5 C10.6903559,5 11.25,4.44035594 11.25,3.75 L11.25,1.50625 L13.75,4.00625 L13.75,13.75 L11.25,13.75 Z" id="path-5"></path>
        <path d="M11.855,2.645 L9.355,0.145 C9.26064058,0.0514067428 9.13290149,-0.0007683794 9,-4.36872743e-14 L1,-4.36872743e-14 C0.44771525,-4.36872743e-14 0,0.44771525 0,1 L0,11 C0,11.5522847 0.44771525,12 1,12 L11,12 C11.5522847,12 12,11.5522847 12,11 L12,3 C12.0007684,2.86709851 11.9485933,2.73935942 11.855,2.645 Z M4,1 L8,1 L8,3 L4,3 L4,1 Z M8,11 L4,11 L4,7 L8,7 L8,11 Z M9,11 L9,7 C9,6.44771525 8.55228475,6 8,6 L4,6 C3.44771525,6 3,6.44771525 3,7 L3,11 L1,11 L1,1 L3,1 L3,3 C3,3.55228475 3.44771525,4 4,4 L8,4 C8.55228475,4 9,3.55228475 9,3 L9,1.205 L11,3.205 L11,11 L9,11 Z" id="path-7"></path>
    </defs>
    <g id="Sizing-1" stroke="none" stroke-width="1" fill="none" fill-rule="evenodd">
        <g id="Sizing-example-comp">
            <rect id="Rectangle-3" fill="#FFFFFF" x="0" y="0" width="928" height="522"></rect>
            <g id="Group-27" transform="translate(696.000000, 235.000000)">
                <g id="Group">
                    <g id="icon/formatting/save/32">
                        <g id="save" stroke-width="1" fill-rule="evenodd" transform="translate(4.000000, 4.000000)">
                            <mask id="mask-2" fill="white">
                                <use xlink:href="#path-1"></use>
                            </mask>
                            <use id="Mask" fill="#000000" fill-rule="nonzero" xlink:href="#path-1"></use>
                            <g id="color/black" mask="url(#mask-2)" fill="#000000">
                                <g transform="translate(-4.000000, -4.000000)">
                                    <rect x="0" y="0" width="40" height="40"></rect>
                                </g>
                            </g>
                        </g>
                        <rect id="transparent-rectangle" x="0" y="0" width="32" height="32"></rect>
                    </g>
                </g>
                <text id="32px" font-family="IBMPlexSans, IBM Plex Sans" font-size="14" font-weight="normal" fill="#6F6F6F">
                    <tspan x="0.075" y="60">32px</tspan>
                </text>
            </g>
            <g id="Group-23" transform="translate(529.000000, 239.000000)">
                <g id="Group" transform="translate(4.000000, 0.000000)">
                    <g id="icon/formatting/save/32">
                        <g id="save" stroke-width="1" fill-rule="evenodd" transform="translate(3.000000, 3.000000)">
                            <mask id="mask-4" fill="white">
                                <use xlink:href="#path-3"></use>
                            </mask>
                            <use id="Mask" fill="#000000" fill-rule="nonzero" xlink:href="#path-3"></use>
                            <g id="color/black" mask="url(#mask-4)" fill="#000000">
                                <g transform="translate(-3.000000, -3.000000)">
                                    <rect x="0" y="0" width="30" height="30"></rect>
                                </g>
                            </g>
                        </g>
                        <rect id="transparent-rectangle" x="0" y="0" width="24" height="24"></rect>
                    </g>
                </g>
                <text id="24px" font-family="IBMPlexSans, IBM Plex Sans" font-size="14" font-weight="normal" fill="#6F6F6F">
                    <tspan x="0.075" y="56">24px</tspan>
                </text>
            </g>
            <g id="Group-21" transform="translate(363.000000, 241.000000)">
                <g id="Group" transform="translate(6.000000, 0.000000)">
                    <g id="icon/formatting/save/32">
                        <g id="save" stroke-width="1" fill-rule="evenodd" transform="translate(2.500000, 2.500000)">
                            <mask id="mask-6" fill="white">
                                <use xlink:href="#path-5"></use>
                            </mask>
                            <use id="Mask" fill="#000000" fill-rule="nonzero" xlink:href="#path-5"></use>
                            <g id="color/black" mask="url(#mask-6)" fill="#000000">
                                <g transform="translate(-2.500000, -2.500000)">
                                    <rect x="0" y="0" width="25" height="25"></rect>
                                </g>
                            </g>
                        </g>
                        <rect id="transparent-rectangle" x="0" y="0" width="20" height="20"></rect>
                    </g>
                </g>
                <text id="20px" font-family="IBMPlexSans, IBM Plex Sans" font-size="14" font-weight="normal" fill="#6F6F6F">
                    <tspan x="0.075" y="54">20px</tspan>
                </text>
            </g>
            <g id="Group-20" transform="translate(196.000000, 243.000000)">
                <g id="Group" transform="translate(8.000000, 0.000000)">
                    <g id="icon/formatting/save/32">
                        <g id="save" stroke-width="1" fill-rule="evenodd" transform="translate(2.000000, 2.000000)">
                            <mask id="mask-8" fill="white">
                                <use xlink:href="#path-7"></use>
                            </mask>
                            <use id="Mask" fill="#000000" fill-rule="nonzero" xlink:href="#path-7"></use>
                            <g id="color/black" mask="url(#mask-8)" fill="#000000">
                                <g transform="translate(-2.000000, -2.000000)">
                                    <rect x="0" y="0" width="20" height="20"></rect>
                                </g>
                            </g>
                        </g>
                        <rect id="transparent-rectangle" x="0" y="0" width="16" height="16"></rect>
                    </g>
                </g>
                <text id="16px" font-family="IBMPlexSans, IBM Plex Sans" font-size="14" font-weight="normal" fill="#6F6F6F">
                    <tspan x="0.075" y="52">16px</tspan>
                </text>
            </g>
        </g>
    </g>
</svg>