<?xml version="1.0" encoding="utf-8"?>
<!-- Generator: Adobe Illustrator 23.0.2, SVG Export Plug-In . SVG Version: 6.00 Build 0)  -->
<svg version="1.1" id="Layer_1" xmlns="http://www.w3.org/2000/svg" xmlns:xlink="http://www.w3.org/1999/xlink" x="0px" y="0px"
	 viewBox="0 0 1120 630" style="enable-background:new 0 0 1120 630;" xml:space="preserve">
<style type="text/css">
	.st0{fill:#FFFFFF;}
	.st1{fill:#6F6F6F;}
</style>
<rect id="Rectangle" class="st0" width="1120" height="630"/>
<g id="_x33_2px" transform="translate(840.000000, 283.620690)">
	<path class="st1" d="M3.2,65.6h1.3c1.6,0,2.4-0.8,2.4-2v-0.1c0-1.2-0.9-1.9-2.1-1.9s-1.9,0.6-2.4,1.5l-1-0.8
		C2,61.4,3,60.4,4.9,60.4c2,0,3.6,1.1,3.6,3c0,1.5-1,2.4-2.3,2.8v0.1c1.3,0.3,2.5,1.2,2.5,3c0,2-1.6,3.4-4,3.4c-2,0-3.1-1-3.8-2
		L2,69.9c0.6,0.9,1.3,1.6,2.7,1.6c1.7,0,2.5-0.8,2.5-2.2V69c0-1.4-0.9-2.2-2.5-2.2H3.2V65.6z M19.2,71.2v1.3h-7.7V71l3.9-3.5
		c1.1-1,1.9-2.2,1.9-3.3V64c0-1.3-0.7-2.2-2.2-2.2s-2.1,0.9-2.4,2l-1.3-0.5c0.5-1.4,1.5-2.8,3.8-2.8s3.6,1.4,3.6,3.4
		c0,1.8-1.1,3.1-2.6,4.5L13,71.2H19.2z M21.8,75.8V63.7h1.4v1.4h0.1c0.5-1.1,1.4-1.6,2.6-1.6c2.2,0,3.5,1.8,3.5,4.6
		s-1.4,4.6-3.5,4.6c-1.2,0-2-0.5-2.6-1.6h-0.1v4.8L21.8,75.8L21.8,75.8z M25.4,71.4c1.5,0,2.5-1,2.5-2.6v-1.5c0-1.6-0.9-2.6-2.5-2.6
		c-1.2,0-2.2,0.7-2.2,1.7v3.2C23.2,70.8,24.2,71.4,25.4,71.4z M30.3,72.4l3.2-4.4l-3.1-4.3H32l2.2,3.2h0.1l2.3-3.2h1.5L35,67.9
		l3.1,4.5h-1.6L34.3,69h-0.1l-2.4,3.4H30.3z"/>
	<path d="M30.7,12.7l-5-5c-0.2-0.2-0.4-0.3-0.7-0.3H9c-1.1,0-2,0.9-2,2v20c0,1.1,0.9,2,2,2h20c1.1,0,2-0.9,2-2v-16
		C31,13.1,30.9,12.9,30.7,12.7z M15,9.4h8v4h-8V9.4z M23,29.4h-8v-8h8V29.4z M25,29.4v-8c0-1.1-0.9-2-2-2h-8c-1.1,0-2,0.9-2,2v8H9
		v-20h4v4c0,1.1,0.9,2,2,2h8c1.1,0,2-0.9,2-2V9.8l4,4v15.6C29,29.4,25,29.4,25,29.4z"/>
</g>
<g id="_x32_4px" transform="translate(639.655172, 288.448276)">
	<path class="st1" d="M7.9,66.3v1.3H0.2v-1.5L4,62.6c1.1-1,1.9-2.2,1.9-3.3v-0.2c0-1.3-0.7-2.2-2.2-2.2s-2.1,0.9-2.5,2L0,58.4
		c0.5-1.4,1.5-2.8,3.8-2.8S7.4,57,7.4,59c0,1.8-1.1,3.1-2.6,4.5l-3.2,2.9L7.9,66.3L7.9,66.3z M16.7,67.6h-1.4v-2.3H9.7V64l4.9-8.2
		h2.1v8.3h1.7v1.2h-1.7V67.6z M15.3,56.9L11,64.1h4.4L15.3,56.9L15.3,56.9z M20.6,71V58.9H22v1.4l0,0c0.5-1.1,1.4-1.6,2.6-1.6
		c2.2,0,3.5,1.8,3.5,4.6c0,2.8-1.4,4.6-3.5,4.6c-1.2,0-2-0.5-2.6-1.6h-0.1V71H20.6z M24.2,66.6c1.5,0,2.5-1,2.5-2.6v-1.5
		c0-1.6-0.9-2.6-2.5-2.6c-1.2,0-2.2,0.7-2.2,1.7v3.2C21.9,65.9,23,66.6,24.2,66.6z M29.1,67.6l3.2-4.4l-3.1-4.3h1.6l2.2,3.2h0.1
		l2.3-3.2h1.5l-3.1,4.2l3.1,4.5h-1.6L33,64.2h-0.1l-2.5,3.4H29.1z"/>
	<path d="M27.1,9.6l-3.8-3.8c-0.1-0.1-0.3-0.2-0.5-0.2h-12c-0.8,0-1.5,0.7-1.5,1.5v15c0,0.8,0.7,1.5,1.5,1.5h15
		c0.8,0,1.5-0.7,1.5-1.5v-12C27.3,9.9,27.2,9.7,27.1,9.6z M15.3,7.1h6v3h-6C15.3,10.1,15.3,7.1,15.3,7.1z M21.3,22.1h-6v-6h6V22.1z
		 M22.8,22.1v-6c0-0.8-0.7-1.5-1.5-1.5h-6c-0.8,0-1.5,0.7-1.5,1.5v6h-3v-15h3v3c0,0.8,0.7,1.5,1.5,1.5h6c0.8,0,1.5-0.7,1.5-1.5V7.4
		l3,3v11.7C25.8,22.1,22.8,22.1,22.8,22.1z"/>
</g>
<g id="_x32_0px" transform="translate(439.310345, 290.862069)">
	<path class="st1" d="M7.9,63.9v1.3H0.2v-1.5L4,60.2c1.1-1,1.9-2.2,1.9-3.3v-0.2c0-1.3-0.7-2.2-2.2-2.2s-2.1,0.9-2.4,2L0,55.9
		c0.5-1.4,1.5-2.8,3.8-2.8s3.6,1.4,3.6,3.4c0,1.8-1.1,3.1-2.6,4.5l-3.2,2.9C1.6,63.9,7.9,63.9,7.9,63.9z M14.1,65.4
		c-2.8,0-4.1-2.2-4.1-6.1s1.2-6.1,4.1-6.1s4.1,2.2,4.1,6.1S16.9,65.4,14.1,65.4z M14.1,64.1c1.8,0,2.6-1.6,2.6-3.9v-1.9
		c0-2.3-0.7-3.9-2.6-3.9s-2.6,1.6-2.6,3.9v1.9C11.5,62.5,12.2,64.1,14.1,64.1z M20.6,68.6V56.5H22v1.4l0,0c0.5-1.1,1.4-1.6,2.6-1.6
		c2.2,0,3.5,1.8,3.5,4.6s-1.4,4.6-3.5,4.6c-1.2,0-2-0.5-2.6-1.6h-0.1v4.8h-1.3V68.6z M24.2,64.2c1.5,0,2.5-1,2.5-2.6v-1.5
		c0-1.6-0.9-2.6-2.5-2.6c-1.2,0-2.2,0.7-2.2,1.7v3.2C21.9,63.5,23,64.2,24.2,64.2z M29.1,65.2l3.2-4.4l-3.1-4.3h1.6l2.2,3.2h0.1
		l2.3-3.2h1.5l-3.1,4.2l3.1,4.5h-1.6L33,61.8h-0.1l-2.5,3.4H29.1z"/>
	<path d="M26.5,7.6l-3.3-3.3c-0.2-0.1-0.3-0.2-0.5-0.2H12c-0.7,0-1.3,0.6-1.3,1.3v13.3c0,0.8,0.6,1.4,1.3,1.4h13.3
		c0.7,0,1.4-0.5,1.4-1.2V8.2C26.7,7.8,26.6,7.8,26.5,7.6z M16,5.4h5.3v3.3H16V5.4z M21.4,18.8H16v-5.3h5.3L21.4,18.8L21.4,18.8z
		 M22.7,18.8v-5.3c0-0.7-0.6-1.3-1.3-1.3H16c-0.7-0.1-1.3,0.5-1.3,1.2v5.3H12V5.4h2.7v3.3c0,0.8,0.6,1.4,1.3,1.4h5.3
		c0.8,0,1.4-0.6,1.4-1.3v-3l2.7,2.7v10.4L22.7,18.8L22.7,18.8z"/>
</g>
<g id="_x31_6px" transform="translate(236.551724, 293.275862)">
	<path class="st1" d="M9.3,62.8H1.6v-1.3h3.3V52H4.8l-3,2.8L1,53.9L4.1,51h2.2v10.5h3V62.8z M15.3,63c-2.4,0-4-1.7-4-4.5
		c0-3.5,2.3-6.2,4.2-7.5h1.8c-2.5,1.8-3.9,3.4-4.6,6.1h0.1c0.6-1,1.4-1.7,2.8-1.7c2,0,3.5,1.4,3.5,3.6C19.2,61.4,17.7,63,15.3,63z
		 M15.3,61.7c1.6,0,2.5-0.9,2.5-2.5v-0.1c0-1.6-0.9-2.5-2.5-2.5s-2.5,0.9-2.5,2.5v0.1C12.8,60.8,13.7,61.7,15.3,61.7z M21.8,66.1V54
		h1.4v1.4h0.1c0.5-1.1,1.4-1.6,2.6-1.6c2.2,0,3.5,1.8,3.5,4.6S28,63,25.9,63c-1.2,0-2-0.5-2.6-1.6h-0.1v4.8h-1.4V66.1z M25.4,61.7
		c1.5,0,2.5-1,2.5-2.6v-1.5c0-1.6-0.9-2.6-2.5-2.6c-1.2,0-2.2,0.7-2.2,1.7V60C23.2,61.1,24.2,61.7,25.4,61.7z M30.3,62.8l3.2-4.4
		l-3-4.4H32l2.2,3.2h0.1l2.3-3.2h1.5L35,58.3l3.1,4.5h-1.6l-2.3-3.4h-0.1l-2.4,3.4H30.3z"/>
	<path d="M25.3,6.3l-2.5-2.5c-0.1,0-0.3-0.1-0.4-0.1h-8c-0.6,0-1,0.4-1,1v10c0,0.6,0.4,1,1,1h10c0.6,0,1-0.4,1-1v-8
		C25.4,6.6,25.3,6.4,25.3,6.3z M17.4,4.7h4v2h-4V4.7z M21.4,14.7h-4v-4h4V14.7z M22.4,14.7v-4c0-0.6-0.4-1-1-1h-4c-0.6,0-1,0.4-1,1
		v4h-2v-10h2v2c0,0.6,0.4,1,1,1h4c0.6,0,1-0.4,1-1V4.9l2,2v7.8C24.4,14.7,22.4,14.7,22.4,14.7z"/>
</g>
</svg>
