<?xml version="1.0" encoding="UTF-8"?>
<svg width="288px" height="288px" viewBox="0 0 288 288" version="1.1" xmlns="http://www.w3.org/2000/svg" xmlns:xlink="http://www.w3.org/1999/xlink">
    <!-- Generator: Sketch 52.4 (67378) - http://www.bohemiancoding.com/sketch -->
    <title>iconography-usage-sizing-3</title>
    <desc>Created with Sketch.</desc>
    <g id="sizing-3" stroke="none" stroke-width="1" fill="none" fill-rule="evenodd">
        <g id="Sizing-correct-size-do">
            <rect id="Rectangle-3" fill="#FFFFFF" x="0" y="0" width="288" height="288"></rect>
            <g id="Page-1" transform="translate(51.000000, 119.000000)" fill="#000000">
                <path d="M0.0208853828,38.266995 L3.37259923,35.456745 C6.02153194,38.969745 9.15704006,40.861245 13.5359186,40.861245 C18.9418119,40.861245 21.8609643,38.050845 21.8609643,33.727095 C21.8609643,30.160095 19.8607988,28.376595 14.8873169,27.241695 L11.8059728,26.538945 C4.94035329,24.971745 1.15607796,21.945045 1.15607796,16.162245 C1.15607796,9.460545 6.23773766,5.839395 13.6439465,5.839395 C19.3202094,5.839395 23.3206905,8.001345 26.131815,12.000795 L22.7260872,14.486895 C20.6717578,11.622345 17.8066193,9.838845 13.4277408,9.838845 C8.61645073,9.838845 5.64313442,11.946645 5.64313442,16.000095 C5.64313442,19.567095 7.96768353,21.188595 12.7249596,22.269495 L15.8063038,22.971945 C23.1584987,24.647445 26.3480207,27.890145 26.3480207,33.510945 C26.3480207,40.428795 21.4827168,44.860545 13.3737268,44.860545 C7.31891632,44.860545 3.04821562,42.374595 0.0208853828,38.266995" id="Fill-1"></path>
                <path d="M48.9448346,36.10518 L48.9448346,31.51128 L43.2145578,31.51128 C38.2950899,31.51128 36.0785686,33.02463 36.0785686,35.72688 L36.0785686,36.86178 C36.0785686,39.61818 38.2409259,41.18553 41.5926398,41.18553 C45.8633404,41.18553 48.9448346,38.96973 48.9448346,36.10518 Z M54.0263443,44.21208 C50.8368223,44.21208 49.5394379,42.26643 49.2150543,39.67218 L48.9448346,39.67218 C47.7554781,43.07703 44.7821618,44.86053 40.8898586,44.86053 C34.9973899,44.86053 31.5374982,41.61783 31.5374982,36.42948 C31.5374982,31.18698 35.3217735,28.26858 43.4307635,28.26858 L48.9448346,28.26858 L48.9448346,25.51218 C48.9448346,21.56688 46.7823273,19.40508 42.3494348,19.40508 C38.997871,19.40508 36.7813497,21.02643 35.2676096,23.56653 L32.6728408,21.13443 C34.1864309,18.16203 37.5381448,15.67593 42.5657906,15.67593 C49.2690682,15.67593 53.2695493,19.18893 53.2695493,25.07988 L53.2695493,40.42878 L56.4590713,40.42878 L56.4590713,44.21208 L54.0263443,44.21208 Z" id="Fill-3"></path>
                <polygon id="Fill-5" points="68.3524266 44.212065 58.5675047 16.324365 62.8923694 16.324365 67.7576733 30.160065 70.7851536 39.672165 71.0555233 39.672165 74.0827035 30.160065 79.0563353 16.324365 83.2188582 16.324365 73.3800724 44.212065"></polygon>
                <path d="M90.8410927,27.728025 L90.8410927,28.106325 L106.248114,28.106325 L106.248114,27.511875 C106.248114,22.593675 103.274797,19.296975 98.8419047,19.296975 C94.1387926,19.296975 90.8410927,22.863975 90.8410927,27.728025 M86.3000223,30.268275 C86.3000223,21.404775 91.2735041,15.675825 98.8419047,15.675825 C106.302127,15.675825 110.897212,21.404775 110.897212,29.295375 L110.897212,31.349175 L90.8410927,31.349175 L90.8410927,32.646225 C90.8410927,37.456275 93.9224368,41.077425 99.1121244,41.077425 C102.62603,41.077425 105.329127,39.347925 106.788703,36.267375 L109.870047,38.483175 C108.086237,42.266475 104.085606,44.860575 98.8419047,44.860575 C91.2735041,44.860575 86.3000223,39.131625 86.3000223,30.268275" id="Fill-7"></path>
                <path d="M172.75664,46.461765 L172.75664,29.572365 C172.75664,27.240315 170.865703,25.350015 168.533201,25.350015 L151.639447,25.350015 C149.306796,25.350015 147.415859,27.240315 147.415859,29.572365 L147.415859,46.461765 L138.969132,46.461765 L138.969132,4.238265 L147.415859,4.238265 L147.415859,12.682965 C147.415859,15.014865 149.306796,16.905315 151.639447,16.905315 L168.533201,16.905315 C170.865703,16.905315 172.75664,15.014865 172.75664,12.682965 L172.75664,5.103765 L181.203517,13.548465 L181.203517,46.461765 L172.75664,46.461765 Z M151.639447,46.461765 L168.533201,46.461765 L168.533201,29.572365 L151.639447,29.572365 L151.639447,46.461765 Z M151.639447,12.682965 L168.533201,12.682965 L168.533201,4.238265 L151.639447,4.238265 L151.639447,12.682965 Z M184.814498,11.184015 L174.255826,0.628064999 C173.857474,0.232964999 173.317935,0.0126149991 172.75664,0.0159149991 L138.969132,0.0159149991 C136.636631,0.0159149991 134.745543,1.906365 134.745543,4.238265 L134.745543,46.461765 C134.745543,48.793665 136.636631,50.684115 138.969132,50.684115 L181.203517,50.684115 C183.536018,50.684115 185.426805,48.793665 185.426805,46.461765 L185.426805,12.682965 C185.430256,12.121815 185.209849,11.582565 184.814498,11.184015 Z" id="Fill-9"></path>
            </g>
        </g>
    </g>
</svg>