<?xml version="1.0" encoding="UTF-8"?>
<svg width="1120px" height="630px" viewBox="0 0 1120 630" version="1.1" xmlns="http://www.w3.org/2000/svg" xmlns:xlink="http://www.w3.org/1999/xlink">
    <!-- Generator: Sketch 52.4 (67378) - http://www.bohemiancoding.com/sketch -->
    <title>iconography_usage_sizing-1</title>
    <desc>Created with Sketch.</desc>
    <defs>
        <path d="M28.6155172,6.38448276 L22.5810345,0.35 C22.3532704,0.124085241 22.0449346,-0.0018547089 21.7241379,-1.03308163e-13 L2.4137931,-1.03308163e-13 C1.08069198,-1.03308163e-13 0,1.08069198 0,2.4137931 L0,26.5517241 C0,27.8848253 1.08069198,28.9655172 2.4137931,28.9655172 L26.5517241,28.9655172 C27.8848253,28.9655172 28.9655172,27.8848253 28.9655172,26.5517241 L28.9655172,7.24137931 C28.967372,6.9205826 28.841432,6.61224686 28.6155172,6.38448276 Z M9.65517241,2.4137931 L19.3103448,2.4137931 L19.3103448,7.24137931 L9.65517241,7.24137931 L9.65517241,2.4137931 Z M19.3103448,26.5517241 L9.65517241,26.5517241 L9.65517241,16.8965517 L19.3103448,16.8965517 L19.3103448,26.5517241 Z M21.7241379,26.5517241 L21.7241379,16.8965517 C21.7241379,15.5634506 20.6434459,14.4827586 19.3103448,14.4827586 L9.65517241,14.4827586 C8.32207129,14.4827586 7.24137931,15.5634506 7.24137931,16.8965517 L7.24137931,26.5517241 L2.4137931,26.5517241 L2.4137931,2.4137931 L7.24137931,2.4137931 L7.24137931,7.24137931 C7.24137931,8.57448043 8.32207129,9.65517241 9.65517241,9.65517241 L19.3103448,9.65517241 C20.6434459,9.65517241 21.7241379,8.57448043 21.7241379,7.24137931 L21.7241379,2.90862069 L26.5517241,7.7362069 L26.5517241,26.5517241 L21.7241379,26.5517241 Z" id="path-1"></path>
        <path d="M21.2782051,4.7474359 L16.7910256,0.26025641 C16.6216626,0.0922685127 16.3923873,-0.00137914251 16.1538462,-7.68188884e-14 L1.79487179,-7.68188884e-14 C0.803591475,-7.68188884e-14 0,0.803591475 0,1.79487179 L0,19.7435897 C0,20.7348701 0.803591475,21.5384615 1.79487179,21.5384615 L19.7435897,21.5384615 C20.7348701,21.5384615 21.5384615,20.7348701 21.5384615,19.7435897 L21.5384615,5.38461538 C21.5398407,5.14607424 21.446193,4.91679895 21.2782051,4.7474359 Z M7.17948718,1.79487179 L14.3589744,1.79487179 L14.3589744,5.38461538 L7.17948718,5.38461538 L7.17948718,1.79487179 Z M14.3589744,19.7435897 L7.17948718,19.7435897 L7.17948718,12.5641026 L14.3589744,12.5641026 L14.3589744,19.7435897 Z M16.1538462,19.7435897 L16.1538462,12.5641026 C16.1538462,11.5728222 15.3502547,10.7692308 14.3589744,10.7692308 L7.17948718,10.7692308 C6.18820686,10.7692308 5.38461538,11.5728222 5.38461538,12.5641026 L5.38461538,19.7435897 L1.79487179,19.7435897 L1.79487179,1.79487179 L5.38461538,1.79487179 L5.38461538,5.38461538 C5.38461538,6.3758957 6.18820686,7.17948718 7.17948718,7.17948718 L14.3589744,7.17948718 C15.3502547,7.17948718 16.1538462,6.3758957 16.1538462,5.38461538 L16.1538462,2.16282051 L19.7435897,5.7525641 L19.7435897,19.7435897 L16.1538462,19.7435897 Z" id="path-3"></path>
        <path d="M17.6095491,3.92891247 L13.8960212,0.215384615 C13.7558587,0.0763601485 13.5661136,-0.00114135932 13.3687003,-6.35742527e-14 L1.48541114,-6.35742527e-14 C0.66504122,-6.35742527e-14 0,0.66504122 0,1.48541114 L0,16.3395225 C0,17.1598925 0.66504122,17.8249337 1.48541114,17.8249337 L16.3395225,17.8249337 C17.1598925,17.8249337 17.8249337,17.1598925 17.8249337,16.3395225 L17.8249337,4.45623342 C17.826075,4.25882006 17.7485735,4.06907499 17.6095491,3.92891247 Z M5.94164456,1.48541114 L11.8832891,1.48541114 L11.8832891,4.45623342 L5.94164456,4.45623342 L5.94164456,1.48541114 Z M11.8832891,16.3395225 L5.94164456,16.3395225 L5.94164456,10.397878 L11.8832891,10.397878 L11.8832891,16.3395225 Z M13.3687003,16.3395225 L13.3687003,10.397878 C13.3687003,9.57750806 12.703659,8.91246684 11.8832891,8.91246684 L5.94164456,8.91246684 C5.12127464,8.91246684 4.45623342,9.57750806 4.45623342,10.397878 L4.45623342,16.3395225 L1.48541114,16.3395225 L1.48541114,1.48541114 L4.45623342,1.48541114 L4.45623342,4.45623342 C4.45623342,5.27660334 5.12127464,5.94164456 5.94164456,5.94164456 L11.8832891,5.94164456 C12.703659,5.94164456 13.3687003,5.27660334 13.3687003,4.45623342 L13.3687003,1.78992042 L16.3395225,4.76074271 L16.3395225,16.3395225 L13.3687003,16.3395225 Z" id="path-5"></path>
        <path d="M13.940893,3.11038904 L11.0010168,0.170512821 C10.8900548,0.0604517842 10.73984,-0.000903576129 10.5835544,-5.12177953e-14 L1.17595049,-5.12177953e-14 C0.526490966,-5.12177953e-14 0,0.526490966 0,1.17595049 L0,12.9354553 C0,13.5849149 0.526490966,14.1114058 1.17595049,14.1114058 L12.9354553,14.1114058 C13.5849149,14.1114058 14.1114058,13.5849149 14.1114058,12.9354553 L14.1114058,3.52785146 C14.1123094,3.37156588 14.0509541,3.22135104 13.940893,3.11038904 Z M4.70380195,1.17595049 L9.40760389,1.17595049 L9.40760389,3.52785146 L4.70380195,3.52785146 L4.70380195,1.17595049 Z M9.40760389,12.9354553 L4.70380195,12.9354553 L4.70380195,8.2316534 L9.40760389,8.2316534 L9.40760389,12.9354553 Z M10.5835544,12.9354553 L10.5835544,8.2316534 C10.5835544,7.58219388 10.0570634,7.05570292 9.40760389,7.05570292 L4.70380195,7.05570292 C4.05434243,7.05570292 3.52785146,7.58219388 3.52785146,8.2316534 L3.52785146,12.9354553 L1.17595049,12.9354553 L1.17595049,1.17595049 L3.52785146,1.17595049 L3.52785146,3.52785146 C3.52785146,4.17731098 4.05434243,4.70380195 4.70380195,4.70380195 L9.40760389,4.70380195 C10.0570634,4.70380195 10.5835544,4.17731098 10.5835544,3.52785146 L10.5835544,1.41702034 L12.9354553,3.76892131 L12.9354553,12.9354553 L10.5835544,12.9354553 Z" id="path-7"></path>
    </defs>
    <g id="sizing-1" stroke="none" stroke-width="1" fill="none" fill-rule="evenodd">
        <g id="Sizing-example-comp">
            <rect id="Rectangle-3" x="0" y="0" width="1120" height="630"></rect>
            <g id="Group-27" transform="translate(839.000000, 283.620690)">
                <g id="Group" transform="translate(1.000000, 0.000000)">
                    <g id="icon/formatting/save/32">
                        <g id="save" stroke-width="1" fill-rule="evenodd" transform="translate(4.827586, 4.827586)">
                            <mask id="mask-2" fill="white">
                                <use xlink:href="#path-1"></use>
                            </mask>
                            <use id="Mask" fill="#000000" fill-rule="nonzero" xlink:href="#path-1"></use>
                            <g id="color/black" mask="url(#mask-2)" fill="#000000">
                                <g transform="translate(-4.827586, -4.827586)">
                                    <rect x="0" y="0" width="48" height="48"></rect>
                                </g>
                            </g>
                        </g>
                        <rect id="transparent-rectangle" x="0" y="0" width="38.6206897" height="38.6206897"></rect>
                    </g>
                </g>
                <path d="M4.21637931,65.7248276 L5.50051724,65.7248276 C7.0887931,65.7248276 7.89982759,64.8968966 7.89982759,63.7648276 L7.89982759,63.6465517 C7.89982759,62.4131034 7.03810345,61.787931 5.78775862,61.787931 C4.5712069,61.787931 3.84465517,62.3624138 3.35465517,63.257931 L2.30706897,62.4468966 C2.89844828,61.5006897 3.92913793,60.5206897 5.82155172,60.5206897 C7.81534483,60.5206897 9.40362069,61.5851724 9.40362069,63.4944828 C9.40362069,65.0151724 8.38982759,65.9275862 7.13948276,66.2486207 L7.13948276,66.3162069 C8.40672414,66.5696552 9.62327586,67.5158621 9.62327586,69.29 C9.62327586,71.3175862 8.01810345,72.72 5.6187931,72.72 C3.57431034,72.72 2.52672414,71.7231034 1.80017241,70.7093103 L2.86465517,69.8982759 C3.47293103,70.8275862 4.16568966,71.4527586 5.60189655,71.4527586 C7.25775862,71.4527586 8.13637931,70.6586207 8.13637931,69.2731034 L8.13637931,69.137931 C8.13637931,67.7524138 7.25775862,66.9582759 5.60189655,66.9582759 L4.21637931,66.9582759 L4.21637931,65.7248276 Z M20.2343103,71.2668966 L20.2343103,72.5172414 L12.4956897,72.5172414 L12.4956897,71.0641379 L16.3481034,67.5158621 C17.4463793,66.502069 18.2912069,65.3193103 18.2912069,64.1872414 L18.2912069,63.9844828 C18.2912069,62.6834483 17.5646552,61.787931 16.1115517,61.787931 C14.6584483,61.787931 13.9825862,62.6665517 13.6615517,63.7817241 L12.3943103,63.2917241 C12.8505172,61.9062069 13.8981034,60.5206897 16.1791379,60.5206897 C18.477069,60.5206897 19.795,61.94 19.795,63.9506897 C19.795,65.7755172 18.7136207,67.0596552 17.2098276,68.4113793 L14.0332759,71.2668966 L20.2343103,71.2668966 Z M22.8025862,75.8965517 L22.8025862,63.7986207 L24.1543103,63.7986207 L24.1543103,65.217931 L24.2218966,65.217931 C24.6781034,64.1196552 25.5736207,63.5958621 26.7732759,63.5958621 C28.952931,63.5958621 30.3215517,65.37 30.3215517,68.157931 C30.3215517,70.9458621 28.952931,72.72 26.7732759,72.72 C25.5736207,72.72 24.7456897,72.1793103 24.2218966,71.097931 L24.1543103,71.097931 L24.1543103,75.8965517 L22.8025862,75.8965517 Z M26.4015517,71.5034483 C27.9222414,71.5034483 28.8684483,70.4558621 28.8684483,68.9013793 L28.8684483,67.4144828 C28.8684483,65.86 27.9222414,64.8124138 26.4015517,64.8124138 C25.1681034,64.8124138 24.1543103,65.522069 24.1543103,66.4851724 L24.1543103,69.7293103 C24.1543103,70.8613793 25.1681034,71.5034483 26.4015517,71.5034483 Z M31.3184483,72.5172414 L34.5456897,68.1241379 L31.4536207,63.7986207 L33.0418966,63.7986207 L35.2553448,67.0427586 L35.3060345,67.0427586 L37.6039655,63.7986207 L39.1077586,63.7986207 L36.0325862,68.0227586 L39.1753448,72.5172414 L37.587069,72.5172414 L35.322931,69.1041379 L35.2722414,69.1041379 L32.8222414,72.5172414 L31.3184483,72.5172414 Z" id="32px" fill="#6F6F6F"></path>
            </g>
            <g id="Group-23" transform="translate(637.448276, 288.448276)">
                <g id="Group" transform="translate(5.827586, 0.000000)">
                    <g id="icon/formatting/save/32">
                        <g id="save" stroke-width="1" fill-rule="evenodd" transform="translate(3.589744, 3.589744)">
                            <mask id="mask-4" fill="white">
                                <use xlink:href="#path-3"></use>
                            </mask>
                            <use id="Mask" fill="#000000" fill-rule="nonzero" xlink:href="#path-3"></use>
                            <g id="color/black" mask="url(#mask-4)" fill="#000000">
                                <g transform="translate(-3.589744, -3.589744)">
                                    <rect x="0" y="0" width="36" height="36"></rect>
                                </g>
                            </g>
                        </g>
                        <rect id="transparent-rectangle" x="0" y="0" width="28.7179487" height="28.7179487"></rect>
                    </g>
                </g>
                <path d="M10.0963793,66.4393103 L10.0963793,67.6896552 L2.35775862,67.6896552 L2.35775862,66.2365517 L6.21017241,62.6882759 C7.30844828,61.6744828 8.15327586,60.4917241 8.15327586,59.3596552 L8.15327586,59.1568966 C8.15327586,57.8558621 7.42672414,56.9603448 5.97362069,56.9603448 C4.52051724,56.9603448 3.84465517,57.8389655 3.52362069,58.9541379 L2.25637931,58.4641379 C2.71258621,57.0786207 3.76017241,55.6931034 6.0412069,55.6931034 C8.33913793,55.6931034 9.65706897,57.1124138 9.65706897,59.1231034 C9.65706897,60.947931 8.57568966,62.232069 7.07189655,63.5837931 L3.89534483,66.4393103 L10.0963793,66.4393103 Z M18.9163793,67.6896552 L17.5646552,67.6896552 L17.5646552,65.3748276 L11.8705172,65.3748276 L11.8705172,64.1244828 L16.8043103,55.8958621 L18.9163793,55.8958621 L18.9163793,64.192069 L20.622931,64.192069 L20.622931,65.3748276 L18.9163793,65.3748276 L18.9163793,67.6896552 Z M17.4801724,56.9941379 L13.2053448,64.192069 L17.5646552,64.192069 L17.5646552,56.9941379 L17.4801724,56.9941379 Z M22.8025862,71.0689655 L22.8025862,58.9710345 L24.1543103,58.9710345 L24.1543103,60.3903448 L24.2218966,60.3903448 C24.6781034,59.292069 25.5736207,58.7682759 26.7732759,58.7682759 C28.952931,58.7682759 30.3215517,60.5424138 30.3215517,63.3303448 C30.3215517,66.1182759 28.952931,67.8924138 26.7732759,67.8924138 C25.5736207,67.8924138 24.7456897,67.3517241 24.2218966,66.2703448 L24.1543103,66.2703448 L24.1543103,71.0689655 L22.8025862,71.0689655 Z M26.4015517,66.6758621 C27.9222414,66.6758621 28.8684483,65.6282759 28.8684483,64.0737931 L28.8684483,62.5868966 C28.8684483,61.0324138 27.9222414,59.9848276 26.4015517,59.9848276 C25.1681034,59.9848276 24.1543103,60.6944828 24.1543103,61.6575862 L24.1543103,64.9017241 C24.1543103,66.0337931 25.1681034,66.6758621 26.4015517,66.6758621 Z M31.3184483,67.6896552 L34.5456897,63.2965517 L31.4536207,58.9710345 L33.0418966,58.9710345 L35.2553448,62.2151724 L35.3060345,62.2151724 L37.6039655,58.9710345 L39.1077586,58.9710345 L36.0325862,63.1951724 L39.1753448,67.6896552 L37.587069,67.6896552 L35.322931,64.2765517 L35.2722414,64.2765517 L32.8222414,67.6896552 L31.3184483,67.6896552 Z" id="24px" fill="#6F6F6F"></path>
            </g>
            <g id="Group-21" transform="translate(437.103448, 290.862069)">
                <g id="Group" transform="translate(8.241379, 0.000000)">
                    <g id="icon/formatting/save/32">
                        <g id="save" stroke-width="1" fill-rule="evenodd" transform="translate(2.970822, 2.970822)">
                            <mask id="mask-6" fill="white">
                                <use xlink:href="#path-5"></use>
                            </mask>
                            <use id="Mask" fill="#000000" fill-rule="nonzero" xlink:href="#path-5"></use>
                            <g id="color/black" mask="url(#mask-6)" fill="#000000">
                                <g transform="translate(-2.970822, -2.970822)">
                                    <rect x="0" y="0" width="30" height="30"></rect>
                                </g>
                            </g>
                        </g>
                        <rect id="transparent-rectangle" x="0" y="0" width="23.7665782" height="23.7665782"></rect>
                    </g>
                </g>
                <path d="M10.0963793,64.0255172 L10.0963793,65.2758621 L2.35775862,65.2758621 L2.35775862,63.8227586 L6.21017241,60.2744828 C7.30844828,59.2606897 8.15327586,58.077931 8.15327586,56.9458621 L8.15327586,56.7431034 C8.15327586,55.442069 7.42672414,54.5465517 5.97362069,54.5465517 C4.52051724,54.5465517 3.84465517,55.4251724 3.52362069,56.5403448 L2.25637931,56.0503448 C2.71258621,54.6648276 3.76017241,53.2793103 6.0412069,53.2793103 C8.33913793,53.2793103 9.65706897,54.6986207 9.65706897,56.7093103 C9.65706897,58.5341379 8.57568966,59.8182759 7.07189655,61.17 L3.89534483,64.0255172 L10.0963793,64.0255172 Z M16.2974138,65.4786207 C13.4756897,65.4786207 12.2422414,63.2313793 12.2422414,59.3789655 C12.2422414,55.5265517 13.4756897,53.2793103 16.2974138,53.2793103 C19.1191379,53.2793103 20.3525862,55.5265517 20.3525862,59.3789655 C20.3525862,63.2313793 19.1191379,65.4786207 16.2974138,65.4786207 Z M16.2974138,64.2451724 C18.1391379,64.2451724 18.8656897,62.6231034 18.8656897,60.342069 L18.8656897,58.4158621 C18.8656897,56.1348276 18.1391379,54.5127586 16.2974138,54.5127586 C14.4556897,54.5127586 13.7291379,56.1348276 13.7291379,58.4158621 L13.7291379,60.342069 C13.7291379,62.6231034 14.4556897,64.2451724 16.2974138,64.2451724 Z M22.8025862,68.6551724 L22.8025862,56.5572414 L24.1543103,56.5572414 L24.1543103,57.9765517 L24.2218966,57.9765517 C24.6781034,56.8782759 25.5736207,56.3544828 26.7732759,56.3544828 C28.952931,56.3544828 30.3215517,58.1286207 30.3215517,60.9165517 C30.3215517,63.7044828 28.952931,65.4786207 26.7732759,65.4786207 C25.5736207,65.4786207 24.7456897,64.937931 24.2218966,63.8565517 L24.1543103,63.8565517 L24.1543103,68.6551724 L22.8025862,68.6551724 Z M26.4015517,64.262069 C27.9222414,64.262069 28.8684483,63.2144828 28.8684483,61.66 L28.8684483,60.1731034 C28.8684483,58.6186207 27.9222414,57.5710345 26.4015517,57.5710345 C25.1681034,57.5710345 24.1543103,58.2806897 24.1543103,59.2437931 L24.1543103,62.487931 C24.1543103,63.62 25.1681034,64.262069 26.4015517,64.262069 Z M31.3184483,65.2758621 L34.5456897,60.8827586 L31.4536207,56.5572414 L33.0418966,56.5572414 L35.2553448,59.8013793 L35.3060345,59.8013793 L37.6039655,56.5572414 L39.1077586,56.5572414 L36.0325862,60.7813793 L39.1753448,65.2758621 L37.587069,65.2758621 L35.322931,61.8627586 L35.2722414,61.8627586 L32.8222414,65.2758621 L31.3184483,65.2758621 Z" id="20px" fill="#6F6F6F"></path>
            </g>
            <g id="Group-20" transform="translate(235.551724, 293.275862)">
                <g id="Group" transform="translate(10.655172, 0.000000)">
                    <g id="icon/formatting/save/32">
                        <g id="save" stroke-width="1" fill-rule="evenodd" transform="translate(2.351901, 2.351901)">
                            <mask id="mask-8" fill="white">
                                <use xlink:href="#path-7"></use>
                            </mask>
                            <use id="Mask" fill="#000000" fill-rule="nonzero" xlink:href="#path-7"></use>
                            <g id="color/black" mask="url(#mask-8)" fill="#000000">
                                <g transform="translate(-2.351901, -2.351901)">
                                    <rect x="0" y="0" width="24" height="24"></rect>
                                </g>
                            </g>
                        </g>
                        <rect id="transparent-rectangle" x="0" y="0" width="18.8152078" height="18.8152078"></rect>
                    </g>
                </g>
                <path d="M10.332931,62.862069 L2.57741379,62.862069 L2.57741379,61.6117241 L5.87224138,61.6117241 L5.87224138,52.1158621 L5.75396552,52.1158621 L2.78017241,54.8868966 L1.95224138,53.9913793 L5.07810345,51.0682759 L7.29155172,51.0682759 L7.29155172,61.6117241 L10.332931,61.6117241 L10.332931,62.862069 Z M16.3143103,63.0648276 C13.8643103,63.0648276 12.3605172,61.3413793 12.3605172,58.5365517 C12.3605172,55.0389655 14.6753448,52.3017241 16.5677586,51.0682759 L18.3925862,51.0682759 C15.875,52.91 14.4725862,54.4475862 13.8305172,57.1848276 L13.915,57.2186207 C14.4725862,56.2555172 15.3174138,55.5289655 16.7536207,55.5289655 C18.7812069,55.5289655 20.2343103,56.9313793 20.2343103,59.1617241 C20.2343103,61.4765517 18.6798276,63.0648276 16.3143103,63.0648276 Z M16.2974138,61.8313793 C17.8518966,61.8313793 18.7643103,60.9358621 18.7643103,59.3475862 L18.7643103,59.2124138 C18.7643103,57.6241379 17.8518966,56.7286207 16.2974138,56.7286207 C14.742931,56.7286207 13.8305172,57.6241379 13.8305172,59.2124138 L13.8305172,59.3475862 C13.8305172,60.9358621 14.742931,61.8313793 16.2974138,61.8313793 Z M22.8025862,66.2413793 L22.8025862,54.1434483 L24.1543103,54.1434483 L24.1543103,55.5627586 L24.2218966,55.5627586 C24.6781034,54.4644828 25.5736207,53.9406897 26.7732759,53.9406897 C28.952931,53.9406897 30.3215517,55.7148276 30.3215517,58.5027586 C30.3215517,61.2906897 28.952931,63.0648276 26.7732759,63.0648276 C25.5736207,63.0648276 24.7456897,62.5241379 24.2218966,61.4427586 L24.1543103,61.4427586 L24.1543103,66.2413793 L22.8025862,66.2413793 Z M26.4015517,61.8482759 C27.9222414,61.8482759 28.8684483,60.8006897 28.8684483,59.2462069 L28.8684483,57.7593103 C28.8684483,56.2048276 27.9222414,55.1572414 26.4015517,55.1572414 C25.1681034,55.1572414 24.1543103,55.8668966 24.1543103,56.83 L24.1543103,60.0741379 C24.1543103,61.2062069 25.1681034,61.8482759 26.4015517,61.8482759 Z M31.3184483,62.862069 L34.5456897,58.4689655 L31.4536207,54.1434483 L33.0418966,54.1434483 L35.2553448,57.3875862 L35.3060345,57.3875862 L37.6039655,54.1434483 L39.1077586,54.1434483 L36.0325862,58.3675862 L39.1753448,62.862069 L37.587069,62.862069 L35.322931,59.4489655 L35.2722414,59.4489655 L32.8222414,62.862069 L31.3184483,62.862069 Z" id="16px" fill="#6F6F6F"></path>
            </g>
        </g>
    </g>
</svg>