<?xml version="1.0" encoding="UTF-8"?>
<svg width="1120px" height="630px" viewBox="0 0 1120 630" version="1.1" xmlns="http://www.w3.org/2000/svg" xmlns:xlink="http://www.w3.org/1999/xlink">
    <!-- Generator: Sketch 52.4 (67378) - http://www.bohemiancoding.com/sketch -->
    <title>iconography_usage_Sizing-1</title>
    <desc>Created with Sketch.</desc>
    <defs>
        <path d="M28.6155172,6.38448276 L22.5810345,0.35 C22.3532704,0.124085241 22.0449346,-0.0018547089 21.7241379,-1.03308163e-13 L2.4137931,-1.03308163e-13 C1.08069198,-1.03308163e-13 0,1.08069198 0,2.4137931 L0,26.5517241 C0,27.8848253 1.08069198,28.9655172 2.4137931,28.9655172 L26.5517241,28.9655172 C27.8848253,28.9655172 28.9655172,27.8848253 28.9655172,26.5517241 L28.9655172,7.24137931 C28.967372,6.9205826 28.841432,6.61224686 28.6155172,6.38448276 Z M9.65517241,2.4137931 L19.3103448,2.4137931 L19.3103448,7.24137931 L9.65517241,7.24137931 L9.65517241,2.4137931 Z M19.3103448,26.5517241 L9.65517241,26.5517241 L9.65517241,16.8965517 L19.3103448,16.8965517 L19.3103448,26.5517241 Z M21.7241379,26.5517241 L21.7241379,16.8965517 C21.7241379,15.5634506 20.6434459,14.4827586 19.3103448,14.4827586 L9.65517241,14.4827586 C8.32207129,14.4827586 7.24137931,15.5634506 7.24137931,16.8965517 L7.24137931,26.5517241 L2.4137931,26.5517241 L2.4137931,2.4137931 L7.24137931,2.4137931 L7.24137931,7.24137931 C7.24137931,8.57448043 8.32207129,9.65517241 9.65517241,9.65517241 L19.3103448,9.65517241 C20.6434459,9.65517241 21.7241379,8.57448043 21.7241379,7.24137931 L21.7241379,2.90862069 L26.5517241,7.7362069 L26.5517241,26.5517241 L21.7241379,26.5517241 Z" id="path-1"></path>
        <path d="M21.2782051,4.7474359 L16.7910256,0.26025641 C16.6216626,0.0922685127 16.3923873,-0.00137914251 16.1538462,-7.68188884e-14 L1.79487179,-7.68188884e-14 C0.803591475,-7.68188884e-14 0,0.803591475 0,1.79487179 L0,19.7435897 C0,20.7348701 0.803591475,21.5384615 1.79487179,21.5384615 L19.7435897,21.5384615 C20.7348701,21.5384615 21.5384615,20.7348701 21.5384615,19.7435897 L21.5384615,5.38461538 C21.5398407,5.14607424 21.446193,4.91679895 21.2782051,4.7474359 Z M7.17948718,1.79487179 L14.3589744,1.79487179 L14.3589744,5.38461538 L7.17948718,5.38461538 L7.17948718,1.79487179 Z M14.3589744,19.7435897 L7.17948718,19.7435897 L7.17948718,12.5641026 L14.3589744,12.5641026 L14.3589744,19.7435897 Z M16.1538462,19.7435897 L16.1538462,12.5641026 C16.1538462,11.5728222 15.3502547,10.7692308 14.3589744,10.7692308 L7.17948718,10.7692308 C6.18820686,10.7692308 5.38461538,11.5728222 5.38461538,12.5641026 L5.38461538,19.7435897 L1.79487179,19.7435897 L1.79487179,1.79487179 L5.38461538,1.79487179 L5.38461538,5.38461538 C5.38461538,6.3758957 6.18820686,7.17948718 7.17948718,7.17948718 L14.3589744,7.17948718 C15.3502547,7.17948718 16.1538462,6.3758957 16.1538462,5.38461538 L16.1538462,2.16282051 L19.7435897,5.7525641 L19.7435897,19.7435897 L16.1538462,19.7435897 Z" id="path-3"></path>
        <path d="M17.6095491,3.92891247 L13.8960212,0.215384615 C13.7558587,0.0763601485 13.5661136,-0.00114135932 13.3687003,-6.35742527e-14 L1.48541114,-6.35742527e-14 C0.66504122,-6.35742527e-14 0,0.66504122 0,1.48541114 L0,16.3395225 C0,17.1598925 0.66504122,17.8249337 1.48541114,17.8249337 L16.3395225,17.8249337 C17.1598925,17.8249337 17.8249337,17.1598925 17.8249337,16.3395225 L17.8249337,4.45623342 C17.826075,4.25882006 17.7485735,4.06907499 17.6095491,3.92891247 Z M5.94164456,1.48541114 L11.8832891,1.48541114 L11.8832891,4.45623342 L5.94164456,4.45623342 L5.94164456,1.48541114 Z M11.8832891,16.3395225 L5.94164456,16.3395225 L5.94164456,10.397878 L11.8832891,10.397878 L11.8832891,16.3395225 Z M13.3687003,16.3395225 L13.3687003,10.397878 C13.3687003,9.57750806 12.703659,8.91246684 11.8832891,8.91246684 L5.94164456,8.91246684 C5.12127464,8.91246684 4.45623342,9.57750806 4.45623342,10.397878 L4.45623342,16.3395225 L1.48541114,16.3395225 L1.48541114,1.48541114 L4.45623342,1.48541114 L4.45623342,4.45623342 C4.45623342,5.27660334 5.12127464,5.94164456 5.94164456,5.94164456 L11.8832891,5.94164456 C12.703659,5.94164456 13.3687003,5.27660334 13.3687003,4.45623342 L13.3687003,1.78992042 L16.3395225,4.76074271 L16.3395225,16.3395225 L13.3687003,16.3395225 Z" id="path-5"></path>
        <path d="M13.940893,3.11038904 L11.0010168,0.170512821 C10.8900548,0.0604517842 10.73984,-0.000903576129 10.5835544,-5.12177953e-14 L1.17595049,-5.12177953e-14 C0.526490966,-5.12177953e-14 0,0.526490966 0,1.17595049 L0,12.9354553 C0,13.5849149 0.526490966,14.1114058 1.17595049,14.1114058 L12.9354553,14.1114058 C13.5849149,14.1114058 14.1114058,13.5849149 14.1114058,12.9354553 L14.1114058,3.52785146 C14.1123094,3.37156588 14.0509541,3.22135104 13.940893,3.11038904 Z M4.70380195,1.17595049 L9.40760389,1.17595049 L9.40760389,3.52785146 L4.70380195,3.52785146 L4.70380195,1.17595049 Z M9.40760389,12.9354553 L4.70380195,12.9354553 L4.70380195,8.2316534 L9.40760389,8.2316534 L9.40760389,12.9354553 Z M10.5835544,12.9354553 L10.5835544,8.2316534 C10.5835544,7.58219388 10.0570634,7.05570292 9.40760389,7.05570292 L4.70380195,7.05570292 C4.05434243,7.05570292 3.52785146,7.58219388 3.52785146,8.2316534 L3.52785146,12.9354553 L1.17595049,12.9354553 L1.17595049,1.17595049 L3.52785146,1.17595049 L3.52785146,3.52785146 C3.52785146,4.17731098 4.05434243,4.70380195 4.70380195,4.70380195 L9.40760389,4.70380195 C10.0570634,4.70380195 10.5835544,4.17731098 10.5835544,3.52785146 L10.5835544,1.41702034 L12.9354553,3.76892131 L12.9354553,12.9354553 L10.5835544,12.9354553 Z" id="path-7"></path>
    </defs>
    <g id="Sizing-1" stroke="none" stroke-width="1" fill="none" fill-rule="evenodd">
        <g id="Sizing-example-comp">
            <rect id="Rectangle-3" x="0" y="0" width="1120" height="630"></rect>
            <g id="Group-27" transform="translate(839.000000, 283.620690)">
                <g id="Group" transform="translate(1.000000, 0.000000)">
                    <g id="icon/formatting/save/32">
                        <g id="save" stroke-width="1" fill-rule="evenodd" transform="translate(4.827586, 4.827586)">
                            <mask id="mask-2" fill="white">
                                <use xlink:href="#path-1"></use>
                            </mask>
                            <use id="Mask" fill="#000000" fill-rule="nonzero" xlink:href="#path-1"></use>
                            <g id="color/black" mask="url(#mask-2)" fill="#000000">
                                <g transform="translate(-4.827586, -4.827586)">
                                    <rect x="0" y="0" width="48" height="48"></rect>
                                </g>
                            </g>
                        </g>
                        <rect id="transparent-rectangle" x="0" y="0" width="38.6206897" height="38.6206897"></rect>
                    </g>
                </g>
                <text id="32px" font-family="IBMPlexSans, IBM Plex Sans" font-size="16.8965517" font-weight="normal" fill="#6F6F6F">
                    <tspan x="1.09051724" y="72.5172414">32px</tspan>
                </text>
            </g>
            <g id="Group-23" transform="translate(637.448276, 288.448276)">
                <g id="Group" transform="translate(5.827586, 0.000000)">
                    <g id="icon/formatting/save/32">
                        <g id="save" stroke-width="1" fill-rule="evenodd" transform="translate(3.589744, 3.589744)">
                            <mask id="mask-4" fill="white">
                                <use xlink:href="#path-3"></use>
                            </mask>
                            <use id="Mask" fill="#000000" fill-rule="nonzero" xlink:href="#path-3"></use>
                            <g id="color/black" mask="url(#mask-4)" fill="#000000">
                                <g transform="translate(-3.589744, -3.589744)">
                                    <rect x="0" y="0" width="36" height="36"></rect>
                                </g>
                            </g>
                        </g>
                        <rect id="transparent-rectangle" x="0" y="0" width="28.7179487" height="28.7179487"></rect>
                    </g>
                </g>
                <text id="24px" font-family="IBMPlexSans, IBM Plex Sans" font-size="16.8965517" font-weight="normal" fill="#6F6F6F">
                    <tspan x="1.09051724" y="67.6896552">24px</tspan>
                </text>
            </g>
            <g id="Group-21" transform="translate(437.103448, 290.862069)">
                <g id="Group" transform="translate(8.241379, 0.000000)">
                    <g id="icon/formatting/save/32">
                        <g id="save" stroke-width="1" fill-rule="evenodd" transform="translate(2.970822, 2.970822)">
                            <mask id="mask-6" fill="white">
                                <use xlink:href="#path-5"></use>
                            </mask>
                            <use id="Mask" fill="#000000" fill-rule="nonzero" xlink:href="#path-5"></use>
                            <g id="color/black" mask="url(#mask-6)" fill="#000000">
                                <g transform="translate(-2.970822, -2.970822)">
                                    <rect x="0" y="0" width="30" height="30"></rect>
                                </g>
                            </g>
                        </g>
                        <rect id="transparent-rectangle" x="0" y="0" width="23.7665782" height="23.7665782"></rect>
                    </g>
                </g>
                <text id="20px" font-family="IBMPlexSans, IBM Plex Sans" font-size="16.8965517" font-weight="normal" fill="#6F6F6F">
                    <tspan x="1.09051724" y="65.2758621">20px</tspan>
                </text>
            </g>
            <g id="Group-20" transform="translate(235.551724, 293.275862)">
                <g id="Group" transform="translate(10.655172, 0.000000)">
                    <g id="icon/formatting/save/32">
                        <g id="save" stroke-width="1" fill-rule="evenodd" transform="translate(2.351901, 2.351901)">
                            <mask id="mask-8" fill="white">
                                <use xlink:href="#path-7"></use>
                            </mask>
                            <use id="Mask" fill="#000000" fill-rule="nonzero" xlink:href="#path-7"></use>
                            <g id="color/black" mask="url(#mask-8)" fill="#000000">
                                <g transform="translate(-2.351901, -2.351901)">
                                    <rect x="0" y="0" width="24" height="24"></rect>
                                </g>
                            </g>
                        </g>
                        <rect id="transparent-rectangle" x="0" y="0" width="18.8152078" height="18.8152078"></rect>
                    </g>
                </g>
                <text id="16px" font-family="IBMPlexSans, IBM Plex Sans" font-size="16.8965517" font-weight="normal" fill="#6F6F6F">
                    <tspan x="1.09051724" y="62.862069">16px</tspan>
                </text>
            </g>
        </g>
    </g>
</svg>