<?xml version="1.0" encoding="UTF-8"?>
<svg width="136px" height="22px" viewBox="0 0 136 22" version="1.1" xmlns="http://www.w3.org/2000/svg" xmlns:xlink="http://www.w3.org/1999/xlink">
    <!-- Generator: Sketch 52.5 (67469) - http://www.bohemiancoding.com/sketch -->
    <title>Group 11</title>
    <desc>Created with Sketch.</desc>
    <defs>
        <path d="M16.5,9.75 L15.4425,8.6925 L9.75,14.3775 L9.75,0 L8.25,0 L8.25,14.3775 L2.5575,8.6925 L1.5,9.75 L9,17.25 L16.5,9.75 Z M16.5,16.5 L16.5,19.5 L1.5,19.5 L1.5,16.5 L0,16.5 L0,19.5 C0,20.3284271 0.671572875,21 1.5,21 L16.5,21 C17.3284271,21 18,20.3284271 18,19.5 L18,16.5 L16.5,16.5 Z" id="path-1"></path>
    </defs>
    <g id="Page-1" stroke="none" stroke-width="1" fill="none" fill-rule="evenodd">
        <g id="Type-Specs_Overview" transform="translate(-730.000000, -5752.000000)">
            <g id="Group-8" transform="translate(334.000000, 4875.000000)">
                <g id="Interactive-text---Dont" transform="translate(320.000000, 744.000000)">
                    <g id="Group-11" transform="translate(74.000000, 129.000000)">
                        <text id="Download" font-family="IBMPlexSans, IBM Plex Sans" font-size="24" font-weight="normal" line-spacing="30" fill="#393939">
                            <tspan x="0" y="25">Download</tspan>
                        </text>
                        <g id="icon/file/download/24" transform="translate(117.000000, 3.000000)">
                            <g id="Group">
                                <g id="download" transform="translate(3.000000, 1.500000)">
                                    <mask id="mask-2" fill="white">
                                        <use xlink:href="#path-1"></use>
                                    </mask>
                                    <use id="Mask" fill="#000000" fill-rule="nonzero" xlink:href="#path-1"></use>
                                    <g id="color/black" mask="url(#mask-2)">
                                        <g transform="translate(-3.000000, -1.500000)"></g>
                                    </g>
                                </g>
                                <rect id="transparent-rectangle" x="0" y="0" width="24" height="24"></rect>
                            </g>
                        </g>
                    </g>
                </g>
            </g>
        </g>
    </g>
</svg>