<?xml version="1.0" encoding="UTF-8"?>
<svg width="736px" height="555px" viewBox="0 0 736 555" version="1.1" xmlns="http://www.w3.org/2000/svg" xmlns:xlink="http://www.w3.org/1999/xlink">
    <!-- Generator: Sketch 52.5 (67469) - http://www.bohemiancoding.com/sketch -->
    <title>common-action-11</title>
    <desc>Created with Sketch.</desc>
    <defs>
        <path d="M7,4.4408921e-16 C3.13400675,-2.22044605e-16 4.4408921e-16,3.13400675 0,7 C-4.4408921e-16,10.8659932 3.13400675,14 7,14 C10.8659932,14 14,10.8659932 14,7 C14,5.14348457 13.2625021,3.36300718 11.9497475,2.05025253 C10.6369928,0.737497883 8.85651543,2.22044605e-16 7,4.4408921e-16 Z M7,13 C3.6862915,13 1,10.3137085 1,7 C1,3.6862915 3.6862915,1 7,1 C10.3137085,1 13,3.6862915 13,7 C13,8.59129894 12.367859,10.1174224 11.2426407,11.2426407 C10.1174224,12.367859 8.59129894,13 7,13 Z" id="path-1"></path>
        <path d="M7,4.4408921e-16 C3.13400675,-2.22044605e-16 4.4408921e-16,3.13400675 0,7 C-4.4408921e-16,10.8659932 3.13400675,14 7,14 C10.8659932,14 14,10.8659932 14,7 C14,5.14348457 13.2625021,3.36300718 11.9497475,2.05025253 C10.6369928,0.737497883 8.85651543,2.22044605e-16 7,4.4408921e-16 Z M7,13 C3.6862915,13 1,10.3137085 1,7 C1,3.6862915 3.6862915,1 7,1 C10.3137085,1 13,3.6862915 13,7 C13,8.59129894 12.367859,10.1174224 11.2426407,11.2426407 C10.1174224,12.367859 8.59129894,13 7,13 Z" id="path-3"></path>
        <path d="M7,4.4408921e-16 C3.13400675,-2.22044605e-16 4.4408921e-16,3.13400675 0,7 C-4.4408921e-16,10.8659932 3.13400675,14 7,14 C10.8659932,14 14,10.8659932 14,7 C14,5.14348457 13.2625021,3.36300718 11.9497475,2.05025253 C10.6369928,0.737497883 8.85651543,2.22044605e-16 7,4.4408921e-16 Z M7,13 C3.6862915,13 1,10.3137085 1,7 C1,3.6862915 3.6862915,1 7,1 C10.3137085,1 13,3.6862915 13,7 C13,8.59129894 12.367859,10.1174224 11.2426407,11.2426407 C10.1174224,12.367859 8.59129894,13 7,13 Z" id="path-5"></path>
        <path d="M7,4.4408921e-16 C3.13400675,-2.22044605e-16 4.4408921e-16,3.13400675 0,7 C-4.4408921e-16,10.8659932 3.13400675,14 7,14 C10.8659932,14 14,10.8659932 14,7 C14,5.14348457 13.2625021,3.36300718 11.9497475,2.05025253 C10.6369928,0.737497883 8.85651543,2.22044605e-16 7,4.4408921e-16 Z M7,13 C3.6862915,13 1,10.3137085 1,7 C1,3.6862915 3.6862915,1 7,1 C10.3137085,1 13,3.6862915 13,7 C13,8.59129894 12.367859,10.1174224 11.2426407,11.2426407 C10.1174224,12.367859 8.59129894,13 7,13 Z" id="path-7"></path>
        <path d="M7,4.4408921e-16 C3.13400675,-2.22044605e-16 4.4408921e-16,3.13400675 0,7 C-4.4408921e-16,10.8659932 3.13400675,14 7,14 C10.8659932,14 14,10.8659932 14,7 C14,5.14348457 13.2625021,3.36300718 11.9497475,2.05025253 C10.6369928,0.737497883 8.85651543,2.22044605e-16 7,4.4408921e-16 Z M7,13 C3.6862915,13 1,10.3137085 1,7 C1,3.6862915 3.6862915,1 7,1 C10.3137085,1 13,3.6862915 13,7 C13,8.59129894 12.367859,10.1174224 11.2426407,11.2426407 C10.1174224,12.367859 8.59129894,13 7,13 Z" id="path-9"></path>
        <circle id="path-11" cx="7" cy="7" r="7"></circle>
        <polygon id="path-13" points="2.5 5.25 0 2.75 0.795 2 2.5 3.675 6.205 0 7 0.79"></polygon>
        <polygon id="path-15" points="9.375 0 8.49375 0.88125 13.23125 5.625 0 5.625 0 6.875 13.23125 6.875 8.49375 11.61875 9.375 12.5 15.625 6.25"></polygon>
    </defs>
    <g id="common-action-11" stroke="none" stroke-width="1" fill="none" fill-rule="evenodd">
        <text id="Location" font-family="IBMPlexSans, IBM Plex Sans" font-size="14" font-weight="normal" line-spacing="18" letter-spacing="0.12" fill="#171717">
            <tspan x="77" y="104">Location</tspan>
        </text>
        <text id="Select-items" font-family="IBMPlexSans, IBM Plex Sans" font-size="14" font-weight="normal" line-spacing="18" letter-spacing="0.119999997" fill="#171717">
            <tspan x="205" y="104">Select items</tspan>
        </text>
        <text id="Payment" font-family="IBMPlexSans, IBM Plex Sans" font-size="14" font-weight="normal" line-spacing="18" letter-spacing="0.119999997" fill="#171717">
            <tspan x="333" y="104">Payment</tspan>
        </text>
        <text id="Optional-Copy-22" font-family="IBMPlexSans, IBM Plex Sans" font-size="12" font-weight="normal" line-spacing="16" letter-spacing="0.119999997" fill="#565656">
            <tspan x="589" y="120">Optional</tspan>
        </text>
        <rect id="Rectangle-15-Copy-82" fill="#0062FF" x="53" y="80" width="128" height="2"></rect>
        <rect id="Rectangle-15-Copy-83" fill="#DCDCDC" x="181" y="80" width="128" height="2"></rect>
        <rect id="Rectangle-15-Copy-84" fill="#DCDCDC" x="309" y="80" width="128" height="2"></rect>
        <g id="Group-2-Copy-18" transform="translate(53.000000, 91.000000)">
            <g id="icon/toggle/radio-button/unchecked/16">
                <g id="radio--button--unchecked" stroke-width="1" fill-rule="evenodd" transform="translate(1.000000, 1.000000)">
                    <mask id="mask-2" fill="white">
                        <use xlink:href="#path-1"></use>
                    </mask>
                    <use id="icon-color" fill="#000000" xlink:href="#path-1"></use>
                </g>
                <rect id="transparent-rectangle" x="0" y="0" width="16" height="16"></rect>
            </g>
            <circle id="Oval-9" stroke="#0F6DFF" fill="#0F6DFF" cx="8" cy="8" r="6"></circle>
        </g>
        <g id="Group-Copy-2" transform="translate(181.000000, 91.000000)">
            <g id="radio--button--unchecked" transform="translate(1.000000, 1.000000)">
                <mask id="mask-4" fill="white">
                    <use xlink:href="#path-3"></use>
                </mask>
                <use id="Mask" fill="#000000" fill-rule="nonzero" xlink:href="#path-3"></use>
                <g id="color/cool-gray/100" mask="url(#mask-4)" fill="#13171A">
                    <g transform="translate(-1.000000, -1.000000)">
                        <rect x="0" y="0" width="40" height="40"></rect>
                    </g>
                </g>
            </g>
            <rect id="transparent-rectangle" x="0" y="0" width="16" height="16"></rect>
        </g>
        <g id="Group-Copy-3" transform="translate(309.000000, 91.000000)">
            <g id="radio--button--unchecked" transform="translate(1.000000, 1.000000)">
                <mask id="mask-6" fill="white">
                    <use xlink:href="#path-5"></use>
                </mask>
                <use id="Mask" fill="#000000" fill-rule="nonzero" xlink:href="#path-5"></use>
                <g id="color/cool-gray/100" mask="url(#mask-6)" fill="#13171A">
                    <g transform="translate(-1.000000, -1.000000)">
                        <rect x="0" y="0" width="40" height="40"></rect>
                    </g>
                </g>
            </g>
            <rect id="transparent-rectangle" x="0" y="0" width="16" height="16"></rect>
        </g>
        <text id="Delivery" font-family="IBMPlexSans, IBM Plex Sans" font-size="14" font-weight="normal" line-spacing="18" letter-spacing="0.12" fill="#171717">
            <tspan x="461" y="104">Delivery</tspan>
        </text>
        <rect id="Rectangle-15-Copy-85" fill="#DCDCDC" x="437" y="80" width="128" height="2"></rect>
        <rect id="Rectangle-15-Copy-85" fill="#DCDCDC" x="565" y="80" width="128" height="2"></rect>
        <g id="Group-Copy-4" transform="translate(437.000000, 91.000000)">
            <g id="radio--button--unchecked" transform="translate(1.000000, 1.000000)">
                <mask id="mask-8" fill="white">
                    <use xlink:href="#path-7"></use>
                </mask>
                <use id="Mask" fill="#000000" fill-rule="nonzero" xlink:href="#path-7"></use>
                <g id="color/cool-gray/100" mask="url(#mask-8)" fill="#13171A">
                    <g transform="translate(-1.000000, -1.000000)">
                        <rect x="0" y="0" width="40" height="40"></rect>
                    </g>
                </g>
            </g>
            <rect id="transparent-rectangle" x="0" y="0" width="16" height="16"></rect>
            <rect id="transparent-rectangle" x="0" y="0" width="16" height="16"></rect>
        </g>
        <g id="Group-Copy-4" transform="translate(565.000000, 90.000000)">
            <g id="radio--button--unchecked" transform="translate(1.000000, 2.000000)">
                <mask id="mask-10" fill="white">
                    <use xlink:href="#path-9"></use>
                </mask>
                <use id="Mask" fill="#000000" fill-rule="nonzero" xlink:href="#path-9"></use>
                <g id="color/cool-gray/100" mask="url(#mask-10)" fill="#13171A">
                    <g transform="translate(-1.000000, -1.000000)">
                        <rect x="0" y="0" width="40" height="40"></rect>
                    </g>
                </g>
            </g>
            <rect id="transparent-rectangle" x="0" y="1" width="16" height="16"></rect>
            <text id="Review" font-family="IBMPlexSans, IBM Plex Sans" font-size="14" font-weight="normal" line-spacing="18" letter-spacing="0.12" fill="#171717">
                <tspan x="24" y="14">Review</tspan>
            </text>
            <rect id="transparent-rectangle" x="0" y="1" width="16" height="16"></rect>
        </g>
        <text id="Select-your-location" font-family="IBMPlexSans, IBM Plex Sans" font-size="24" font-weight="normal" line-spacing="30" fill="#171717">
            <tspan x="77" y="197">Select your location</tspan>
        </text>
        <rect id="Rectangle" fill="#F3F3F3" fill-rule="nonzero" x="61" y="227" width="263" height="152"></rect>
        <text id="Spicewood" font-family="IBMPlexSans, IBM Plex Sans" font-size="16" font-weight="normal" line-spacing="24" fill="#054ADA">
            <tspan x="77" y="259">Spicewood</tspan>
        </text>
        <text id="3021-First-Street-Au" font-family="IBMPlexSans, IBM Plex Sans" font-size="16" font-weight="normal" line-spacing="22" fill="#171717">
            <tspan x="77" y="291">3021 First Street</tspan>
            <tspan x="77" y="313">Austin, TX 78920</tspan>
            <tspan x="77" y="335">512-301-0000</tspan>
        </text>
        <rect id="Rectangle" stroke="#0072C3" stroke-width="2" fill="#F3F3F3" fill-rule="nonzero" x="326" y="228" width="261" height="150"></rect>
        <text id="Casa-Linda" font-family="IBMPlexSans, IBM Plex Sans" font-size="16" font-weight="normal" line-spacing="24" fill="#054ADA">
            <tspan x="341" y="259">Casa Linda</tspan>
        </text>
        <text id="3021-First-Street-Au" font-family="IBMPlexSans, IBM Plex Sans" font-size="16" font-weight="normal" line-spacing="22" fill="#171717">
            <tspan x="341" y="291">3021 First Street</tspan>
            <tspan x="341" y="313">Austin, TX 78920</tspan>
            <tspan x="341" y="335">512-301-0000</tspan>
        </text>
        <g id="icon/status/checkmark/filled/16" transform="translate(557.000000, 243.000000)">
            <g id="Group">
                <g id="checkmark--filled" transform="translate(1.000000, 1.000000)">
                    <g id="icon-2">
                        <mask id="mask-12" fill="white">
                            <use xlink:href="#path-11"></use>
                        </mask>
                        <use id="icon-color" fill="#0062FF" xlink:href="#path-11"></use>
                    </g>
                    <g id="icon-1" transform="translate(3.500000, 4.500000)">
                        <mask id="mask-14" fill="white">
                            <use xlink:href="#path-13"></use>
                        </mask>
                        <use id="icon-color" fill="#FFFFFF" xlink:href="#path-13"></use>
                    </g>
                </g>
                <rect id="transparent-rectangle" x="0" y="0" width="16" height="16"></rect>
            </g>
        </g>
        <g id="Group" transform="translate(301.000000, 427.000000)">
            <rect id="Rectangle-5-Copy-80" fill="#0F6FFF" x="200" y="0" width="192" height="48"></rect>
            <text id="Next" font-family="IBMPlexSans, IBM Plex Sans" font-size="14" font-weight="normal" line-spacing="20" letter-spacing="0.1" fill="#FFFFFF">
                <tspan x="217" y="28">Next</tspan>
            </text>
            <rect id="Rectangle-5-Copy-51" stroke="#0062FF" x="0.5" y="0.5" width="191" height="47"></rect>
            <text id="Cancel" font-family="IBMPlexSans, IBM Plex Sans" font-size="14" font-weight="normal" line-spacing="20" letter-spacing="0.1" fill="#0062FF">
                <tspan x="16" y="28">Cancel</tspan>
            </text>
            <g id="icon/navigation/arrow/right/20" transform="translate(356.000000, 14.000000)">
                <g id="arrow--right" stroke-width="1" fill-rule="evenodd" transform="translate(1.875000, 3.750000)">
                    <mask id="mask-16" fill="white">
                        <use xlink:href="#path-15"></use>
                    </mask>
                    <use id="icon-color" fill="#FFFFFF" xlink:href="#path-15"></use>
                </g>
                <rect id="transparent-rectangle" x="0" y="0" width="20" height="20"></rect>
            </g>
        </g>
    </g>
</svg>