<?xml version="1.0" encoding="UTF-8"?>
<svg width="736px" height="358px" viewBox="0 0 736 358" version="1.1" xmlns="http://www.w3.org/2000/svg" xmlns:xlink="http://www.w3.org/1999/xlink">
    <!-- Generator: Sketch 52.5 (67469) - http://www.bohemiancoding.com/sketch -->
    <title>common-action-5</title>
    <desc>Created with Sketch.</desc>
    <defs>
        <rect id="path-1" x="0" y="0" width="9" height="1"></rect>
        <rect id="path-3" x="0" y="0" width="9" height="1"></rect>
        <rect id="path-5" x="0" y="0" width="9" height="1"></rect>
    </defs>
    <g id="common-action-5" stroke="none" stroke-width="1" fill="none" fill-rule="evenodd">
        <g id="Group" transform="translate(80.000000, 80.000000)">
            <path d="M288.5,26.5 L577,26.5 L576.5,26 L576.5,27 L577,26.5 L288.5,26.5 Z M288.5,26.5 L0,26.5 L0.5,27 L0.5,26 L0,26.5 L288.5,26.5 Z" id="Rectangle-3-Copy-35" stroke="#DCDCDC"></path>
            <path d="M288.5,83.5 L577,83.5 L576.5,83 L576.5,84 L577,83.5 L288.5,83.5 Z M288.5,83.5 L0,83.5 L0.5,84 L0.5,83 L0,83.5 L288.5,83.5 Z" id="Rectangle-3-Copy-39" stroke="#DCDCDC"></path>
            <text id="Tacos-in-Cart" font-family="IBMPlexSans-SemiBold, IBM Plex Sans" font-size="14" font-weight="500" line-spacing="18" letter-spacing="0.100000001" fill="#171717">
                <tspan x="16" y="14">Tacos in Cart</tspan>
            </text>
            <text id="Fried-Avocado" font-family="IBMPlexSans, IBM Plex Sans" font-size="14" font-weight="normal" line-spacing="18" letter-spacing="0.100000001" fill="#565656">
                <tspan x="16" y="56">Fried Avocado</tspan>
            </text>
            <path d="M288.5,140.5 L577,140.5 L576.5,140 L576.5,141 L577,140.5 L288.5,140.5 Z M288.5,140.5 L0,140.5 L0.5,141 L0.5,140 L0,140.5 L288.5,140.5 Z" id="Rectangle-3-Copy-39" stroke="#DCDCDC"></path>
            <text id="Green-Chile-Pork" font-family="IBMPlexSans, IBM Plex Sans" font-size="14" font-weight="normal" line-spacing="18" letter-spacing="0.100000001" fill="#565656">
                <tspan x="16" y="113">Green Chile Pork</tspan>
            </text>
            <path d="M288.5,197.5 L577,197.5 L576.5,197 L576.5,198 L577,197.5 L288.5,197.5 Z M288.5,197.5 L0,197.5 L0.5,198 L0.5,197 L0,197.5 L288.5,197.5 Z" id="Rectangle-3-Copy-39" stroke="#DCDCDC"></path>
            <text id="Carne-Asada" font-family="IBMPlexSans, IBM Plex Sans" font-size="14" font-weight="normal" line-spacing="18" letter-spacing="0.100000001" fill="#565656">
                <tspan x="16" y="170">Carne Asada</tspan>
            </text>
            <g id="icon/navigation/subtract/16" transform="translate(545.000000, 44.000000)">
                <g id="Group">
                    <g id="subtract" transform="translate(3.500000, 7.500000)">
                        <mask id="mask-2" fill="white">
                            <use xlink:href="#path-1"></use>
                        </mask>
                        <use id="icon-color" fill="#000000" xlink:href="#path-1"></use>
                    </g>
                    <rect id="transparent-rectangle" x="0" y="0" width="16" height="16"></rect>
                </g>
            </g>
            <g id="icon/navigation/subtract/16" transform="translate(545.000000, 101.000000)">
                <g id="Group">
                    <g id="subtract" transform="translate(3.500000, 7.500000)">
                        <mask id="mask-4" fill="white">
                            <use xlink:href="#path-3"></use>
                        </mask>
                        <use id="icon-color" fill="#000000" xlink:href="#path-3"></use>
                    </g>
                    <rect id="transparent-rectangle" x="0" y="0" width="16" height="16"></rect>
                </g>
            </g>
            <g id="icon/navigation/subtract/16" transform="translate(545.000000, 158.000000)">
                <g id="Group">
                    <g id="subtract" transform="translate(3.500000, 7.500000)">
                        <mask id="mask-6" fill="white">
                            <use xlink:href="#path-5"></use>
                        </mask>
                        <use id="icon-color" fill="#000000" xlink:href="#path-5"></use>
                    </g>
                    <rect id="transparent-rectangle" x="0" y="0" width="16" height="16"></rect>
                </g>
            </g>
        </g>
    </g>
</svg>