<?xml version="1.0" encoding="UTF-8"?>
<svg width="736px" height="228px" viewBox="0 0 736 228" version="1.1" xmlns="http://www.w3.org/2000/svg" xmlns:xlink="http://www.w3.org/1999/xlink">
    <!-- Generator: Sketch 52.5 (67469) - http://www.bohemiancoding.com/sketch -->
    <title>common-action-9</title>
    <desc>Created with Sketch.</desc>
    <defs>
        <path d="M0,12.5 L13,12.5 L13,13.5 L0,13.5 L0,12.5 Z M11.20705,3.5 C11.5971895,3.10938024 11.5971895,2.47656976 11.20705,2.08595 L9.41405,0.29295 C9.02322541,-0.0966942111 8.39082459,-0.0966942111 8,0.29295 L0.5,7.79295 L0.5,11 L3.70705,11 L11.20705,3.5 Z M8.70655,0.9995 L10.5,2.79295 L9,4.29295 L7.20665,2.4996 L8.70655,0.9995 Z M1.5,10 L1.5,8.20705 L6.49965,3.2067 L8.29295,5 L3.29295,10 L1.5,10 Z" id="path-1"></path>
        <filter x="-56.2%" y="-50.0%" width="212.5%" height="200.0%" filterUnits="objectBoundingBox" id="filter-3">
            <feOffset dx="0" dy="2" in="SourceAlpha" result="shadowOffsetOuter1"></feOffset>
            <feGaussianBlur stdDeviation="1" in="shadowOffsetOuter1" result="shadowBlurOuter1"></feGaussianBlur>
            <feColorMatrix values="0 0 0 0 0   0 0 0 0 0   0 0 0 0 0  0 0 0 0.2 0" type="matrix" in="shadowBlurOuter1" result="shadowMatrixOuter1"></feColorMatrix>
            <feMerge>
                <feMergeNode in="shadowMatrixOuter1"></feMergeNode>
                <feMergeNode in="SourceGraphic"></feMergeNode>
            </feMerge>
        </filter>
        <rect id="path-4" x="0" y="0" width="24" height="24"></rect>
    </defs>
    <g id="common-action-9" stroke="none" stroke-width="1" fill="none" fill-rule="evenodd">
        <g id="Group-2" transform="translate(-9.000000, -120.000000)">
            <g id="Group">
                <rect id="Rectangle-5-Copy-15" fill="#F3F3F3" x="4" y="0" width="742" height="136"></rect>
                <g id="Group-4-Copy-2" transform="translate(506.000000, 88.000000)" fill="#F3F3F3">
                    <rect id="Rectangle-2-Copy-298" x="0" y="0" width="48" height="48"></rect>
                </g>
                <g id="Group-6-Copy-2" transform="translate(4.000000, 136.000000)">
                    <polygon id="Rectangle-5-Copy-29" fill="#FFFFFF" points="74 0 742 0 742 48 74 48"></polygon>
                    <polygon id="Rectangle-5-Copy-29" fill="#DCDCDC" points="0 0 742 0 742 48 0 48"></polygon>
                    <text id="Rule" font-family="IBMPlexSans-SemiBold, IBM Plex Sans" font-size="14" font-weight="500" line-spacing="18" letter-spacing="0.00999999978" fill="#252525">
                        <tspan x="118" y="29">Rule</tspan>
                    </text>
                    <text id="Attached-Groups" font-family="IBMPlexSans-SemiBold, IBM Plex Sans" font-size="14" font-weight="500" line-spacing="18" letter-spacing="0.00999999978" fill="#252525">
                        <tspan x="310" y="29">Attached Groups</tspan>
                    </text>
                    <text id="Status" font-family="IBMPlexSans-SemiBold, IBM Plex Sans" font-size="14" font-weight="500" line-spacing="18" letter-spacing="0.00999999978" fill="#252525">
                        <tspan x="546" y="29">Status</tspan>
                    </text>
                </g>
                <g id="Row-Item---default-Copy-2" transform="translate(9.000000, 184.000000)" fill="#DCDCDC">
                    <rect id="Rectangle" x="0" y="0" width="737" height="1"></rect>
                </g>
                <g id="Row-Item---default-Copy-5" transform="translate(0.000000, 185.000000)">
                    <polygon id="Rectangle-5-Copy-13" fill="#F3F3F3" points="4 0 746 0 746 48 4 48"></polygon>
                    <rect id="Rectangle" fill="#DCDCDC" x="0" y="47" width="746" height="1"></rect>
                    <text id="Round-Robin" font-family="IBMPlexSans, IBM Plex Sans" font-size="14" font-weight="normal" line-spacing="18" letter-spacing="0.00999999978" fill="#565656">
                        <tspan x="122" y="29">Round Robin</tspan>
                    </text>
                    <text id="Maureen’s-VM-Group" font-family="IBMPlexSans, IBM Plex Sans" font-size="14" font-weight="normal" line-spacing="18" letter-spacing="0.00999999978" fill="#565656">
                        <tspan x="314" y="29">Maureen’s VM Group</tspan>
                    </text>
                    <text id="Active" font-family="IBMPlexSans, IBM Plex Sans" font-size="14" font-weight="normal" line-spacing="18" letter-spacing="0.00999999978" fill="#565656">
                        <tspan x="550" y="29">Active</tspan>
                    </text>
                </g>
                <g id="Group-Copy-2" transform="translate(554.000000, 88.000000)">
                    <rect id="Rectangle-5-Copy-80" fill="#0F6FFF" x="0" y="0" width="192" height="48"></rect>
                    <text id="Load-Balancer" font-family="IBMPlexSans, IBM Plex Sans" font-size="14" font-weight="normal" line-spacing="20" letter-spacing="0.1" fill="#FFFFFF">
                        <tspan x="17" y="28">Load Balancer</tspan>
                    </text>
                    <g id="Group-5-Copy-39" transform="translate(156.000000, 14.000000)">
                        <rect id="Rectangle-path" x="0" y="0" width="20" height="20"></rect>
                    </g>
                </g>
                <g id="Group-3" transform="translate(458.000000, 88.000000)" fill="#F3F3F3">
                    <rect id="Rectangle-2-Copy-297" x="0" y="0" width="48" height="48"></rect>
                </g>
                <g id="Group-3" transform="translate(410.000000, 88.000000)" fill="#F3F3F3">
                    <rect id="Rectangle-2-Copy-297" x="0" y="0" width="48" height="48"></rect>
                </g>
            </g>
        </g>
        <polygon id="Rectangle-5-Copy-13" fill="#E5E5E5" points="0 113 742 113 742 161 0 161"></polygon>
        <rect id="Rectangle" fill="#DCDCDC" x="0" y="160" width="742" height="1"></rect>
        <text id="Round-Robin" font-family="IBMPlexSans, IBM Plex Sans" font-size="14" font-weight="normal" line-spacing="18" letter-spacing="0.00999999978" fill="#565656">
            <tspan x="118" y="142">Round Robin</tspan>
        </text>
        <text id="Maureen’s-VM-Group" font-family="IBMPlexSans, IBM Plex Sans" font-size="14" font-weight="normal" line-spacing="18" letter-spacing="0.00999999978" fill="#565656">
            <tspan x="310" y="142">Maureen’s VM Group</tspan>
        </text>
        <text id="Active" font-family="IBMPlexSans, IBM Plex Sans" font-size="14" font-weight="normal" line-spacing="18" letter-spacing="0.00999999978" fill="#565656">
            <tspan x="546" y="142">Active</tspan>
        </text>
        <polygon id="Rectangle-5-Copy-13" fill="#F3F3F3" points="0 161 742 161 742 209 0 209"></polygon>
        <rect id="Rectangle" fill="#DCDCDC" x="-3" y="208" width="745" height="1"></rect>
        <g id="Group-4" transform="translate(-109.000000, 196.000000)">
            <g id="Group" stroke="#DCDCDC">
                <polyline id="Path-16" transform="translate(462.151987, 5.772216) rotate(-270.000000) translate(-462.151987, -5.772216) " points="456.379771 -60.379771 467.775428 -48.9841138 456.883273 -38.0919591 467.897955 -27.077277 456.911828 -16.0911491 467.871958 -5.05392461 456.902953 5.91508125 467.910522 16.9226508 456.920624 27.9125487 467.924204 38.9161282 456.884489 49.9558434 467.826639 60.8979934 456.800428 71.9242038"></polyline>
                <polyline id="Path-16" transform="translate(330.151987, 5.772216) rotate(-270.000000) translate(-330.151987, -5.772216) " points="324.379771 -60.379771 335.775428 -48.9841138 324.883273 -38.0919591 335.897955 -27.077277 324.911828 -16.0911491 335.871958 -5.05392461 324.902953 5.91508125 335.910522 16.9226508 324.920624 27.9125487 335.924204 38.9161282 324.884489 49.9558434 335.826639 60.8979934 324.800428 71.9242038"></polyline>
                <polyline id="Path-16" transform="translate(198.151987, 5.772216) rotate(-270.000000) translate(-198.151987, -5.772216) " points="192.379771 -60.379771 203.775428 -48.9841138 192.883273 -38.0919591 203.897955 -27.077277 192.911828 -16.0911491 203.871958 -5.05392461 192.902953 5.91508125 203.910522 16.9226508 192.920624 27.9125487 203.924204 38.9161282 192.884489 49.9558434 203.826639 60.8979934 192.800428 71.9242038"></polyline>
                <polyline id="Path-16" transform="translate(726.151987, 5.772216) rotate(-270.000000) translate(-726.151987, -5.772216) " points="720.379771 -60.379771 731.775428 -48.9841138 720.883273 -38.0919591 731.897955 -27.077277 720.911828 -16.0911491 731.871958 -5.05392461 720.902953 5.91508125 731.910522 16.9226508 720.920624 27.9125487 731.924204 38.9161282 720.884489 49.9558434 731.826639 60.8979934 720.800428 71.9242038"></polyline>
                <polyline id="Path-16" transform="translate(594.151987, 5.772216) rotate(-270.000000) translate(-594.151987, -5.772216) " points="588.379771 -60.379771 599.775428 -48.9841138 588.883273 -38.0919591 599.897955 -27.077277 588.911828 -16.0911491 599.871958 -5.05392461 588.902953 5.91508125 599.910522 16.9226508 588.920624 27.9125487 599.924204 38.9161282 588.884489 49.9558434 599.826639 60.8979934 588.800428 71.9242038"></polyline>
                <polyline id="Path-16" transform="translate(66.151987, 5.772216) rotate(-270.000000) translate(-66.151987, -5.772216) " points="60.379771 -60.379771 71.7754281 -48.9841138 60.8832733 -38.0919591 71.8979554 -27.077277 60.9118275 -16.0911491 71.8719585 -5.05392461 60.9029526 5.91508125 71.9105222 16.9226508 60.9206243 27.9125487 71.9242038 38.9161282 60.8844886 49.9558434 71.8266386 60.8979934 60.8004282 71.9242038"></polyline>
                <polyline id="Path-16" transform="translate(858.151987, 5.772216) rotate(-270.000000) translate(-858.151987, -5.772216) " points="852.379771 -60.379771 863.775428 -48.9841138 852.883273 -38.0919591 863.897955 -27.077277 852.911828 -16.0911491 863.871958 -5.05392461 852.902953 5.91508125 863.910522 16.9226508 852.920624 27.9125487 863.924204 38.9161282 852.884489 49.9558434 863.826639 60.8979934 852.800428 71.9242038"></polyline>
            </g>
            <polygon id="Fill-1" fill="#FFFFFF" points="857.997 1 852 6.997 847 11.997 835.997 1 825 11.997 813.997 1 803 11.997 791.997 1 781 11.997 769.997 1 759 11.997 747.997 1 737 11.997 725.997 1 715 11.997 703.997 1 693 11.997 681.997 1 671 11.997 659.997 1 649 11.997 637.997 1 627 11.997 615.997 1 605 11.997 593.997 1 583 11.997 571.998 1 561 11.997 560.994 11.997 549.997 1 539 11.997 527.998 1 517 11.997 516.994 11.997 505.997 1 495 11.997 483.997 1 473 11.997 461.998 1 451 11.997 450.994 11.997 439.997 1 429 11.997 417.998 1 407 11.997 406.994 11.997 395.997 1 385 11.997 373.998 1 363 11.997 362.994 11.997 351.997 1 341 11.997 329.998 1 319 11.997 318.994 11.997 307.998 1 297 11.997 285.997 1 275 11.997 263.998 1 253 11.997 252.994 11.997 241.997 1 231 11.997 219.998 1 209 11.997 208.994 11.997 197.997 1 187 11.997 175.998 1 165 11.997 164.994 11.997 153.997 1 143 11.997 131.998 1 121 11.997 120.994 11.997 116 7.003 109.998 1 99 11.997 99 47 869 47 869 11.997"></polygon>
        </g>
        <text id="Round-Robin" font-family="IBMPlexSans, IBM Plex Sans" font-size="14" font-weight="normal" line-spacing="18" letter-spacing="0.00999999978" fill="#565656">
            <tspan x="118" y="190">Round Robin</tspan>
        </text>
        <text id="Maureen’s-VM-Group" font-family="IBMPlexSans, IBM Plex Sans" font-size="14" font-weight="normal" line-spacing="18" letter-spacing="0.00999999978" fill="#565656">
            <tspan x="310" y="190">Maureen’s VM Group</tspan>
        </text>
        <text id="Active" font-family="IBMPlexSans, IBM Plex Sans" font-size="14" font-weight="normal" line-spacing="18" letter-spacing="0.00999999978" fill="#565656">
            <tspan x="546" y="190">Active</tspan>
        </text>
        <g id="icon/formatting/edit/20" transform="translate(514.000000, 129.000000)">
            <g id="edit" stroke-width="1" fill-rule="evenodd" transform="translate(1.500000, 1.000000)">
                <mask id="mask-2" fill="white">
                    <use xlink:href="#path-1"></use>
                </mask>
                <use id="icon-color" fill="#000000" xlink:href="#path-1"></use>
            </g>
            <rect id="transparent-rectangle" x="0" y="0" width="16" height="16"></rect>
        </g>
        <g id="icon/hover-states/hand-cursor" transform="translate(436.000000, 140.000000)">
            <g id="hand-cursor" filter="url(#filter-3)" stroke-width="1" fill-rule="evenodd" transform="translate(4.000000, 2.000000)" fill="#FFFFFF">
                <polygon id="Rectangle" points="7 4 10 4 10 8 7 8"></polygon>
                <polygon id="Rectangle-Copy" points="10 7 13 7 13 11 10 11"></polygon>
                <path d="M13.2815687,10.7869723 C13.2793405,10.8536671 13.2719207,10.9325894 13.2592869,11.023739 C13.2280924,11.2519911 13.1705384,11.4609684 13.0866028,11.6506708 C12.819221,12.2583277 12.3420114,12.5621673 11.6549961,12.5621673 C11.2561516,12.5621673 10.9546118,12.5695705 10.7503544,12.5843989 L10.5631872,12.5843989 L10.5631872,11.6506708 L10.5631872,9.9832991 M10.5631872,11.6506708 C10.560959,11.7173657 10.5535391,11.7962879 10.5409053,11.8874376 C10.5097108,12.1156896 10.4521569,12.3246669 10.3682213,12.5143693 C10.1008395,13.1220485 9.62362982,13.4258659 8.93661459,13.4258659 C8.53777008,13.4258659 8.23623026,13.4332912 8.03197286,13.4480975 L7.8448056,13.4480975 L7.8448056,10.8469976 M7.8448056,13.4480975 L7.8448056,16.2292735 C7.84331272,16.2959684 7.83662817,16.3748906 7.82475197,16.466018 C7.79578561,16.6942701 7.74266576,16.9032474 7.66543698,17.0929498 C7.43444139,17.6605898 7.0337475,17.9629621 6.463333,18 C5.89365381,17.9629621 5.49333871,17.6605898 5.26234312,17.0929498 C5.18509206,16.9032474 5.1319945,16.6942479 5.10302813,16.466018 C5.09112964,16.3748684 5.08408859,16.2959684 5.08186041,16.2292735 L5.08186041,7.93576665 C3.06312787,10.4279316 0.851739859,10.1112215 4.4408921e-15,8.1137102 C2.40124447,5.97131542 4.45574138,3.84533708 5.26234312,0 L14.1505595,0.0222316227 C14.4558204,0.863320603 14.8049096,1.37327819 15.1978049,2.81166418 C15.5914577,4.25005017 15.8569679,5.81524778 15.9943798,8.51490042 L15.9999503,9.64871318 C16.0006856,9.72430069 15.9932657,9.81916303 15.9776685,9.93327795 C15.9464739,10.16153 15.88892,10.3705073 15.8049844,10.5602097 C15.5376026,11.1678666 15.0603929,11.4717062 14.3733777,11.4717062 C13.9745332,11.4717062 13.6729934,11.4791094 13.468736,11.4939379 L13.2815687,11.5161695 L13.2815687,10.7869723 C13.2815687,10.7780796 13.2782264,9.23853974 13.2782264,9.23853974 L13.2815687,8.89283801 M13.2715419,8.69386498 L13.3043009,9.23853974" id="Shape" stroke="#000000" stroke-width="1.5" stroke-linecap="round" stroke-linejoin="round" transform="translate(8.000000, 9.000000) scale(1, -1) translate(-8.000000, -9.000000) "></path>
            </g>
            <mask id="mask-5" fill="white">
                <use xlink:href="#path-4"></use>
            </mask>
            <g id="icon-color"></g>
        </g>
        <polyline id="Path-3" stroke="#FFFFFF" stroke-width="16" fill-rule="nonzero" points="8 238.751953 8 8 728.21875 8 728.21875 216"></polyline>
    </g>
</svg>