<?xml version="1.0" encoding="UTF-8"?>
<svg width="736px" height="449px" viewBox="0 0 736 449" version="1.1" xmlns="http://www.w3.org/2000/svg" xmlns:xlink="http://www.w3.org/1999/xlink">
    <!-- Generator: Sketch 52.5 (67469) - http://www.bohemiancoding.com/sketch -->
    <title>common-action-2</title>
    <desc>Created with Sketch.</desc>
    <defs>
        <rect id="path-1" x="256" y="111" width="224" height="129"></rect>
        <filter x="-4.5%" y="-6.2%" width="108.9%" height="115.5%" filterUnits="objectBoundingBox" id="filter-2">
            <feOffset dx="0" dy="2" in="SourceAlpha" result="shadowOffsetOuter1"></feOffset>
            <feGaussianBlur stdDeviation="3" in="shadowOffsetOuter1" result="shadowBlurOuter1"></feGaussianBlur>
            <feColorMatrix values="0 0 0 0 0   0 0 0 0 0   0 0 0 0 0  0 0 0 0.3 0" type="matrix" in="shadowBlurOuter1"></feColorMatrix>
        </filter>
        <polygon id="path-3" points="5 0 10 5 9.293 5.707 5 1.414 0.707 5.707 0 5"></polygon>
        <path d="M11,0 L1,0 C0.44771525,0 0,0.44771525 0,1 L0,11 C0,11.5522847 0.44771525,12 1,12 L11,12 C11.5522847,12 12,11.5522847 12,11 L12,1 C12,0.44771525 11.5522847,0 11,0 Z M1,11 L1,1 L11,1 L11,11 L1,11 Z" id="path-5"></path>
        <path d="M11,0 L1,0 C0.44771525,0 0,0.44771525 0,1 L0,11 C0,11.5522847 0.44771525,12 1,12 L11,12 C11.5522847,12 12,11.5522847 12,11 L12,1 C12,0.44771525 11.5522847,0 11,0 Z M1,11 L1,1 L11,1 L11,11 L1,11 Z" id="path-7"></path>
        <rect id="path-9" x="0" y="0" width="12" height="12" rx="2"></rect>
        <polygon id="path-11" points="2.5 5.25 0 2.77 0.795 1.985 2.5 3.675 6.205 0 7 0.79"></polygon>
        <rect id="path-13" x="0" y="0" width="12" height="12" rx="2"></rect>
        <polygon id="path-15" points="2.5 5.25 0 2.77 0.795 1.985 2.5 3.675 6.205 0 7 0.79"></polygon>
        <polygon id="path-17" points="4.707 4 8 0.707 7.293 0 4 3.293 0.707 0 0 0.707 3.293 4 0 7.293 0.707 8 4 4.707 7.293 8 8 7.293"></polygon>
        <path d="M17.5,16.61875 L12.78125,11.875 C15.124581,9.04760025 14.8321769,4.8777481 12.1171855,2.40505497 C9.40219415,-0.0676381597 5.22324054,0.0299006827 2.62657061,2.62657061 C0.0299006827,5.22324054 -0.0676381597,9.40219415 2.40505497,12.1171855 C4.8777481,14.8321769 9.04760025,15.124581 11.875,12.78125 L16.61875,17.5 L17.5,16.61875 Z M1.875,7.5 C1.875,4.39339828 4.39339828,1.875 7.5,1.875 C10.6066017,1.875 13.125,4.39339828 13.125,7.5 C13.125,10.6066017 10.6066017,13.125 7.5,13.125 C4.39339828,13.125 1.875,10.6066017 1.875,7.5 Z" id="path-19"></path>
        <polygon id="path-21" points="5.88375 5 10 0.88375 9.11625 0 5 4.11625 0.88375 0 0 0.88375 4.11625 5 0 9.11625 0.88375 10 5 5.88375 9.11625 10 10 9.11625"></polygon>
        <filter x="-47.2%" y="-41.7%" width="194.0%" height="180.6%" filterUnits="objectBoundingBox" id="filter-23">
            <feOffset dx="0" dy="2" in="SourceAlpha" result="shadowOffsetOuter1"></feOffset>
            <feGaussianBlur stdDeviation="1" in="shadowOffsetOuter1" result="shadowBlurOuter1"></feGaussianBlur>
            <feColorMatrix values="0 0 0 0 0   0 0 0 0 0   0 0 0 0 0  0 0 0 0.2 0" type="matrix" in="shadowBlurOuter1" result="shadowMatrixOuter1"></feColorMatrix>
            <feMerge>
                <feMergeNode in="shadowMatrixOuter1"></feMergeNode>
                <feMergeNode in="SourceGraphic"></feMergeNode>
            </feMerge>
        </filter>
    </defs>
    <g id="common-action-2" stroke="none" stroke-width="1" fill="none" fill-rule="evenodd">
        <g id="Rectangle-4-Copy-21">
            <use fill="black" fill-opacity="1" filter="url(#filter-2)" xlink:href="#path-1"></use>
            <use fill="#DCDCDC" fill-rule="evenodd" xlink:href="#path-1"></use>
        </g>
        <polygon id="Rectangle-Copy-38" fill="#DCDCDC" points="256 112 480 112 480 144 256 144"></polygon>
        <polygon id="Rectangle-Copy-41" fill="#F3F3F3" points="256 176 480 176 480 208 256 208"></polygon>
        <polygon id="Rectangle-Copy-48" fill="#F3F3F3" points="256 208 480 208 480 240 256 240"></polygon>
        <polygon id="Rectangle-Copy-43" fill="#F3F3F3" points="256 144 480 144 480 176 256 176"></polygon>
        <polygon id="Rectangle-Copy-45" fill="#DCDCDC" points="256 144 480 144 480 176 256 176"></polygon>
        <text id="Option-1-Copy-8" font-family="IBMPlexSans, IBM Plex Sans" font-size="14" font-weight="normal" line-spacing="18" fill="#565656">
            <tspan x="288" y="133">Option 1</tspan>
        </text>
        <text id="Option-2" font-family="IBMPlexSans, IBM Plex Sans" font-size="14" font-weight="normal" line-spacing="18" fill="#565656">
            <tspan x="288" y="197">Option 2</tspan>
        </text>
        <text id="Option-4" font-family="IBMPlexSans, IBM Plex Sans" font-size="14" font-weight="normal" line-spacing="18" fill="#565656">
            <tspan x="288" y="165">Option 4</tspan>
        </text>
        <text id="Option-3" font-family="IBMPlexSans, IBM Plex Sans" font-size="14" font-weight="normal" line-spacing="18" fill="#565656">
            <tspan x="288" y="229">Option 3</tspan>
        </text>
        <polygon id="Rectangle-Copy-47" fill="#F3F3F3" points="256 80 480 80 480 112 256 112"></polygon>
        <text id="filters-are-selected-copy" font-family="IBMPlexSans, IBM Plex Sans" font-size="14" font-weight="normal" line-spacing="18" fill="#252525">
            <tspan x="314" y="101">filters are selected</tspan>
        </text>
        <g id="icon/navigation/chevron/up/16" transform="translate(448.000000, 88.000000)">
            <g id="Group">
                <g id="chevron--up" transform="translate(3.000000, 5.000000)">
                    <mask id="mask-4" fill="white">
                        <use xlink:href="#path-3"></use>
                    </mask>
                    <use id="icon-color" fill="#000000" xlink:href="#path-3"></use>
                </g>
                <rect id="transparent-rectangle" transform="translate(8.000000, 8.000000) rotate(-90.000000) translate(-8.000000, -8.000000) " x="0" y="0" width="16" height="16"></rect>
            </g>
        </g>
        <g id="icon/toggle/check-box/unchecked/16" transform="translate(264.000000, 216.000000)">
            <g id="check--box--unchecked" stroke-width="1" fill-rule="evenodd" transform="translate(2.000000, 2.000000)">
                <mask id="mask-6" fill="white">
                    <use xlink:href="#path-5"></use>
                </mask>
                <use id="icon-color" fill="#000000" xlink:href="#path-5"></use>
            </g>
            <rect id="transparent-rectangle" x="0" y="0" width="16" height="16"></rect>
        </g>
        <g id="icon/toggle/check-box/unchecked/16" transform="translate(264.000000, 184.000000)">
            <g id="check--box--unchecked" stroke-width="1" fill-rule="evenodd" transform="translate(2.000000, 2.000000)">
                <mask id="mask-8" fill="white">
                    <use xlink:href="#path-7"></use>
                </mask>
                <use id="icon-color" fill="#000000" xlink:href="#path-7"></use>
            </g>
            <rect id="transparent-rectangle" x="0" y="0" width="16" height="16"></rect>
        </g>
        <rect id="Rectangle-8-Copy-29" fill="#DCDCDC" x="272" y="207" width="192" height="1"></rect>
        <g id="Group-Copy-6" transform="translate(264.000000, 120.000000)">
            <rect id="Rectangle-9" fill="#FFFFFF" x="3" y="3" width="10" height="10"></rect>
            <g id="icon/toggle/check-box/checked/filled/16">
                <g id="Group">
                    <g id="checkbox--checked--filled" transform="translate(2.000000, 2.000000)">
                        <g id="icon-color-2">
                            <mask id="mask-10" fill="white">
                                <use xlink:href="#path-9"></use>
                            </mask>
                            <use id="icon-color" fill="#000000" xlink:href="#path-9"></use>
                        </g>
                        <g id="icon-color-1" transform="translate(2.500000, 3.500000)">
                            <mask id="mask-12" fill="white">
                                <use xlink:href="#path-11"></use>
                            </mask>
                            <use id="icon-color" fill="#FFFFFF" xlink:href="#path-11"></use>
                        </g>
                    </g>
                    <rect id="transparent-rectangle" x="0" y="0" width="16" height="16"></rect>
                </g>
            </g>
        </g>
        <g id="Group-Copy-8" transform="translate(264.000000, 152.000000)">
            <rect id="Rectangle-9" fill="#FFFFFF" x="3" y="3" width="10" height="10"></rect>
            <g id="icon/toggle/check-box/checked/filled/16">
                <g id="Group">
                    <g id="checkbox--checked--filled" transform="translate(2.000000, 2.000000)">
                        <g id="icon-color-2">
                            <mask id="mask-14" fill="white">
                                <use xlink:href="#path-13"></use>
                            </mask>
                            <use id="icon-color" fill="#000000" xlink:href="#path-13"></use>
                        </g>
                        <g id="icon-color-1" transform="translate(2.500000, 3.500000)">
                            <mask id="mask-16" fill="white">
                                <use xlink:href="#path-15"></use>
                            </mask>
                            <use id="icon-color" fill="#FFFFFF" xlink:href="#path-15"></use>
                        </g>
                    </g>
                    <rect id="transparent-rectangle" x="0" y="0" width="16" height="16"></rect>
                </g>
            </g>
        </g>
        <rect id="Rectangle-4-Copy-4" fill="#171717" x="264" y="84" width="42" height="24" rx="12"></rect>
        <text id="2" font-family="IBMPlexSans, IBM Plex Sans" font-size="12" font-weight="normal" line-spacing="16" fill="#F3F3F3">
            <tspan x="272" y="99">2</tspan>
        </text>
        <g id="icon/navigation/close/16" transform="translate(287.000000, 88.000000)">
            <g id="Group">
                <g id="close" transform="translate(4.000000, 4.000000)">
                    <mask id="mask-18" fill="white">
                        <use xlink:href="#path-17"></use>
                    </mask>
                    <use id="icon-color" fill="#F3F3F3" xlink:href="#path-17"></use>
                </g>
                <rect id="transparent-rectangle" x="0" y="0" width="16" height="16"></rect>
            </g>
        </g>
        <g id="Group" transform="translate(112.000000, 320.000000)">
            <rect id="Rectangle-11-Copy-7" fill="#F3F3F3" x="0" y="0" width="512" height="48"></rect>
            <g id="icon/image/search/20" transform="translate(14.000000, 14.000000)">
                <g id="search" stroke-width="1" fill-rule="evenodd" transform="translate(1.250000, 1.250000)">
                    <mask id="mask-20" fill="white">
                        <use xlink:href="#path-19"></use>
                    </mask>
                    <use id="icon-color" fill="#000000" xlink:href="#path-19"></use>
                </g>
                <rect id="transparent-rectangle" x="0" y="0" width="20" height="20"></rect>
            </g>
            <text id="What-does-Watson-eat-Copy-3" font-family="IBMPlexSans, IBM Plex Sans" font-size="16" font-weight="normal" letter-spacing="0.2" fill="#171717">
                <tspan x="48" y="30">What does Watson eat?</tspan>
            </text>
            <rect id="Rectangle-2-Copy-5" fill="#DCDCDC" x="464" y="1" width="48" height="48"></rect>
            <g id="icon/navigation/close/20" transform="translate(478.000000, 15.000000)">
                <g id="Group">
                    <g id="close" transform="translate(5.000000, 5.000000)">
                        <mask id="mask-22" fill="white">
                            <use xlink:href="#path-21"></use>
                        </mask>
                        <use id="icon-color" fill="#000000" xlink:href="#path-21"></use>
                    </g>
                    <rect id="transparent-rectangle" x="0" y="0" width="20" height="20"></rect>
                </g>
            </g>
            <path d="M0,48.25 L511.707031,48.25" id="Path-3-Copy-11" stroke="#8C8C8C"></path>
            <g id="hand-cursor" transform="translate(474.000000, 32.000000)" fill="#FFFFFF">
                <g filter="url(#filter-23)" transform="translate(6.045574, 7.338035)">
                    <polygon id="Rectangle" points="8.95479095 5.57216653 12.2630277 5.57216653 12.2630277 11.1954575 8.95479095 11.1954575"></polygon>
                    <rect id="Rectangle-Copy" x="11.9689622" y="8.53179335" width="3.30823671" height="5.62329096"></rect>
                    <path d="M15.5281432,12.7100097 C15.5255481,12.7883659 15.5169063,12.8810873 15.502192,12.988174 C15.4658602,13.2563347 15.398828,13.5018506 15.3010695,13.7247215 C14.9896542,14.4386241 14.4338557,14.7955885 13.6336999,14.7955885 C13.169172,14.7955885 12.8179733,14.804286 12.5800779,14.8217072 L12.3620872,14.8217072 L12.3620872,13.7247215 L12.3620872,11.7658185 M12.3620872,13.7247215 C12.3594921,13.8030776 12.3508503,13.895799 12.3361359,14.0028857 C12.2998041,14.2710465 12.232772,14.5165623 12.1350135,14.7394332 C11.8235982,15.453362 11.2677996,15.8103002 10.4676438,15.8103002 C10.0031159,15.8103002 9.65191726,15.8190239 9.41402189,15.8364189 L9.19603115,15.8364189 L9.19603115,12.7805302 M9.19603115,15.8364189 L9.19603115,19.1038691 C9.19429241,19.1822252 9.18650703,19.2749467 9.17267499,19.3820072 C9.13893833,19.650168 9.07707048,19.8956838 8.98712335,20.1185548 C8.71808644,20.7854437 8.25140459,21.1406842 7.58705184,21.184198 C6.92355549,21.1406842 6.45731481,20.7854437 6.1882779,20.1185548 C6.09830482,19.8956838 6.03646292,19.6501419 6.00272626,19.3820072 C5.98886827,19.2749205 5.98066767,19.1822252 5.97807254,19.1038691 L5.97807254,9.3602856 C3.62688666,12.2881926 1.05131798,11.9161075 0.0593100257,9.56934166 C2.85600152,7.05236026 5.2488416,4.55466562 6.1882779,0.0369912834 L16.5402431,0.0631099901 C16.8957756,1.05125902 17.3023543,1.65038005 17.7599532,3.34026037 C18.2184345,5.03014069 18.5276699,6.869005 18.6877115,10.0406779 L18.6941993,11.372732 C18.6950557,11.4615356 18.6864139,11.5729841 18.668248,11.7070514 C18.6319162,11.9752122 18.5648841,12.220728 18.4671256,12.4435989 C18.1557102,13.1575015 17.5999117,13.5144659 16.7997559,13.5144659 C16.335228,13.5144659 15.9840294,13.5231634 15.746134,13.5405846 L15.5281432,13.5667033 L15.5281432,12.7100097 C15.5281432,12.6995623 15.5242505,10.8908418 15.5242505,10.8908418 L15.5281432,10.4846959 M15.5164652,10.2509335 L15.5464652,10.8908418" id="Shape" stroke="#000000" stroke-width="1.5" stroke-linecap="round" stroke-linejoin="round" transform="translate(9.376784, 10.610595) scale(1, -1) translate(-9.376784, -10.610595) "></path>
                </g>
            </g>
        </g>
    </g>
</svg>