<?xml version="1.0" encoding="UTF-8"?>
<svg width="736px" height="362px" viewBox="0 0 736 362" version="1.1" xmlns="http://www.w3.org/2000/svg" xmlns:xlink="http://www.w3.org/1999/xlink">
    <!-- Generator: Sketch 52.5 (67469) - http://www.bohemiancoding.com/sketch -->
    <title>filter-1</title>
    <desc>Created with Sketch.</desc>
    <defs>
        <rect id="path-1" x="92" y="174" width="161" height="128"></rect>
        <filter x="-6.2%" y="-6.2%" width="112.4%" height="115.6%" filterUnits="objectBoundingBox" id="filter-2">
            <feOffset dx="0" dy="2" in="SourceAlpha" result="shadowOffsetOuter1"></feOffset>
            <feGaussianBlur stdDeviation="3" in="shadowOffsetOuter1" result="shadowBlurOuter1"></feGaussianBlur>
            <feColorMatrix values="0 0 0 0 0   0 0 0 0 0   0 0 0 0 0  0 0 0 0.3 0" type="matrix" in="shadowBlurOuter1"></feColorMatrix>
        </filter>
        <filter x="-32.7%" y="-24.4%" width="165.3%" height="155.0%" filterUnits="objectBoundingBox" id="filter-3">
            <feOffset dx="0" dy="1" in="SourceAlpha" result="shadowOffsetOuter1"></feOffset>
            <feGaussianBlur stdDeviation="0.4" in="shadowOffsetOuter1" result="shadowBlurOuter1"></feGaussianBlur>
            <feColorMatrix values="0 0 0 0 0   0 0 0 0 0   0 0 0 0 0  0 0 0 0.5 0" type="matrix" in="shadowBlurOuter1" result="shadowMatrixOuter1"></feColorMatrix>
            <feMerge>
                <feMergeNode in="shadowMatrixOuter1"></feMergeNode>
                <feMergeNode in="SourceGraphic"></feMergeNode>
            </feMerge>
        </filter>
        <polygon id="path-4" points="5 6 0 1 0.707 0.293 5 4.586 9.293 0.293 10 1"></polygon>
        <polygon id="path-6" points="5 6 0 1 0.707 0.293 5 4.586 9.293 0.293 10 1"></polygon>
        <polygon id="path-8" points="5 6 0 1 0.707 0.293 5 4.586 9.293 0.293 10 1"></polygon>
    </defs>
    <g id="filter-1" stroke="none" stroke-width="1" fill="none" fill-rule="evenodd">
        <g id="Group-3" transform="translate(80.000000, -69.000000)">
            <g id="Group">
                <path d="M288.5,216.5 L577,216.5 L576.5,216 L576.5,217 L577,216.5 L288.5,216.5 Z M288.5,216.5 L0,216.5 L0.5,217 L0.5,216 L0,216.5 L288.5,216.5 Z" id="Rectangle-3-Copy-35" stroke="#DCDCDC"></path>
                <path d="M288.5,370.5 L577,370.5 L576.5,370 L576.5,371 L577,370.5 L288.5,370.5 Z M288.5,370.5 L0,370.5 L0.5,371 L0.5,370 L0,370.5 L288.5,370.5 Z" id="Rectangle-3-Copy-38" stroke="#DCDCDC"></path>
                <path d="M288.5,293.5 L577,293.5 L576.5,293 L576.5,294 L577,293.5 L288.5,293.5 Z M288.5,293.5 L0,293.5 L0.5,294 L0.5,293 L0,293.5 L288.5,293.5 Z" id="Rectangle-3-Copy-39" stroke="#DCDCDC"></path>
                <text id="Tacos" font-family="IBMPlexSans-SemiBold, IBM Plex Sans" font-size="14" font-weight="500" line-spacing="18" letter-spacing="0.100000001" fill="#171717">
                    <tspan x="16" y="204">Tacos</tspan>
                </text>
                <text id="Description" font-family="IBMPlexSans-SemiBold, IBM Plex Sans" font-size="14" font-weight="500" line-spacing="18" letter-spacing="0.100000001" fill="#171717">
                    <tspan x="144" y="204">Description</tspan>
                </text>
                <text id="Pork-belly,-Goodflow" font-family="IBMPlexSans, IBM Plex Sans" font-size="14" font-weight="normal" line-spacing="18" letter-spacing="0.100000001" fill="#565656">
                    <tspan x="144" y="247">Pork belly, Goodflow Honey tomatillo-serrano </tspan>
                    <tspan x="144" y="265">salsa, avocado, cilantro, onion.</tspan>
                </text>
                <text id="Grilled-beef-tenderl" font-family="IBMPlexSans, IBM Plex Sans" font-size="14" font-weight="normal" line-spacing="18" letter-spacing="0.100000001" fill="#565656">
                    <tspan x="144" y="324">Grilled beef tenderloin, chipotle-sesame sauce, </tspan>
                    <tspan x="144" y="342">avocado, queso fresco</tspan>
                </text>
                <text id="Delibelly" font-family="IBMPlexSans, IBM Plex Sans" font-size="14" font-weight="normal" line-spacing="18" letter-spacing="0.100000001" fill="#565656">
                    <tspan x="16" y="247">Delibelly</tspan>
                </text>
                <text id="El-Picosito" font-family="IBMPlexSans, IBM Plex Sans" font-size="14" font-weight="normal" line-spacing="18" letter-spacing="0.100000001" fill="#565656">
                    <tspan x="16" y="324">El Picosito</tspan>
                </text>
                <text id="Red-chile-adobo-brai" font-family="IBMPlexSans, IBM Plex Sans" font-size="14" font-weight="normal" line-spacing="18" letter-spacing="0.100000001" fill="#565656">
                    <tspan x="144" y="401">Red chile adobo braised brisket, caramelized onion, </tspan>
                    <tspan x="144" y="419">mushroom, guacamole, cilantro, queso fresco.</tspan>
                </text>
                <text id="Tacoloco" font-family="IBMPlexSans, IBM Plex Sans" font-size="14" font-weight="normal" line-spacing="18" letter-spacing="0.100000001" fill="#565656">
                    <tspan x="16" y="401">Tacoloco</tspan>
                </text>
            </g>
            <g id="Rectangle-4-Copy-21">
                <use fill="black" fill-opacity="1" filter="url(#filter-2)" xlink:href="#path-1"></use>
                <use fill="#DCDCDC" fill-rule="evenodd" xlink:href="#path-1"></use>
            </g>
            <polygon id="Rectangle-Copy-35" fill="#F3F3F3" points="92 174 253 174 253 302 92 302"></polygon>
            <polygon id="Rectangle-Copy-72" fill="#F3F3F3" points="92 174 253 174 253 206 92 206"></polygon>
            <polygon id="Rectangle-Copy-75" fill="#F3F3F3" points="92 238 253 238 253 270 92 270"></polygon>
            <polygon id="Rectangle-Copy-80" fill="#E5E5E5" points="92 206 253 206 253 238 92 238"></polygon>
            <text id="All" font-family="IBMPlexSans, IBM Plex Sans" font-size="14" font-weight="normal" line-spacing="18" fill="#565656">
                <tspan x="108" y="195">All</tspan>
            </text>
            <text id="Pollo" font-family="IBMPlexSans, IBM Plex Sans" font-size="14" font-weight="normal" line-spacing="18" fill="#565656">
                <tspan x="108" y="259">Pollo</tspan>
            </text>
            <text id="Carne-asada" font-family="IBMPlexSans, IBM Plex Sans" font-size="14" font-weight="normal" line-spacing="18" fill="#565656">
                <tspan x="108" y="227">Carne asada</tspan>
            </text>
            <text id="Veggie" font-family="IBMPlexSans, IBM Plex Sans" font-size="14" font-weight="normal" line-spacing="18" fill="#565656">
                <tspan x="108" y="284">Veggie</tspan>
            </text>
            <g id="Cursor/Hand/Pointing" transform="translate(217.000000, 212.000000)">
                <g id="pointing" filter="url(#filter-3)" transform="translate(9.000000, 8.000000)">
                    <path d="M3.27,12.28 C2.99,11.92 2.64,11.19 2.03,10.28 C1.68,9.78 0.82,8.83 0.56,8.34 C0.372571391,8.04223059 0.318185191,7.67965592 0.41,7.34 C0.566959969,6.69420883 1.17956117,6.26581639 1.84,6.34 C2.3508012,6.44261082 2.82022287,6.69296904 3.19,7.06 C3.44818056,7.30317315 3.68566746,7.56741914 3.9,7.85 C4.06,8.05 4.1,8.13 4.28,8.36 C4.46,8.59 4.58,8.82 4.49,8.48 C4.42,7.98 4.3,7.14 4.13,6.39 C4,5.82 3.97,5.73 3.85,5.3 C3.73,4.87 3.66,4.51 3.53,4.02 C3.41116675,3.5385718 3.31770464,3.05123369 3.25,2.56 C3.12395297,1.93170405 3.21565432,1.27921373 3.51,0.71 C3.85939302,0.381369522 4.37193038,0.294632431 4.81,0.49 C5.25059657,0.815336248 5.57910137,1.2696514 5.75,1.79 C6.01206519,2.43038854 6.18696098,3.10306465 6.27,3.79 C6.43,4.79 6.74,6.25 6.75,6.55 C6.75,6.18 6.68,5.4 6.75,5.05 C6.81935301,4.68512412 7.07295842,4.3823117 7.42,4.25 C7.71780915,4.15862519 8.03284549,4.13807935 8.34,4.19 C8.65003669,4.25481591 8.92466387,4.43314524 9.11,4.69 C9.34168097,5.27339299 9.47025898,5.89259761 9.49,6.52 C9.51677857,5.97058648 9.61081334,5.42652817 9.77,4.9 C9.93710411,4.66454921 10.1811322,4.49479052 10.46,4.42 C10.7905931,4.35955512 11.1294069,4.35955512 11.46,4.42 C11.7310945,4.51063084 11.968241,4.68151586 12.14,4.91 C12.3517705,5.44034596 12.4799623,6.00034169 12.52,6.57 C12.52,6.71 12.59,6.18 12.81,5.83 C12.924325,5.49059769 13.2110346,5.23796868 13.5621281,5.16727587 C13.9132216,5.09658306 14.2753596,5.21856637 14.5121281,5.48727587 C14.7488967,5.75598537 14.824325,6.13059769 14.71,6.47 C14.71,7.12 14.71,7.09 14.71,7.53 C14.71,7.97 14.71,8.36 14.71,8.73 C14.6735613,9.31517926 14.5933368,9.89680669 14.47,10.47 C14.2959749,10.9771188 14.0537528,11.4581987 13.75,11.9 C13.2644478,12.4399641 12.8632544,13.0501826 12.56,13.71 C12.4847582,14.0378036 12.4511598,14.3737882 12.46,14.71 C12.4589965,15.020633 12.499351,15.3300173 12.58,15.63 C12.1711391,15.6732223 11.7588609,15.6732223 11.35,15.63 C10.96,15.57 10.48,14.79 10.35,14.55 C10.2856779,14.4211326 10.1540282,14.3397056 10.01,14.3397056 C9.86597177,14.3397056 9.73432211,14.4211326 9.67,14.55 C9.45,14.93 8.96,15.62 8.62,15.66 C7.95,15.74 6.57,15.66 5.48,15.66 C5.48,15.66 5.66,14.66 5.25,14.3 C4.84,13.94 4.42,13.52 4.11,13.24 L3.27,12.28 Z" id="Shape" fill="#FFFFFF" fill-rule="nonzero"></path>
                    <path d="M3.27,12.28 C2.99,11.92 2.64,11.19 2.03,10.28 C1.68,9.78 0.82,8.83 0.56,8.34 C0.372571391,8.04223059 0.318185191,7.67965592 0.41,7.34 C0.566959969,6.69420883 1.17956117,6.26581639 1.84,6.34 C2.3508012,6.44261082 2.82022287,6.69296904 3.19,7.06 C3.44818056,7.30317315 3.68566746,7.56741914 3.9,7.85 C4.06,8.05 4.1,8.13 4.28,8.36 C4.46,8.59 4.58,8.82 4.49,8.48 C4.42,7.98 4.3,7.14 4.13,6.39 C4,5.82 3.97,5.73 3.85,5.3 C3.73,4.87 3.66,4.51 3.53,4.02 C3.41116675,3.5385718 3.31770464,3.05123369 3.25,2.56 C3.12395297,1.93170405 3.21565432,1.27921373 3.51,0.71 C3.85939302,0.381369522 4.37193038,0.294632431 4.81,0.49 C5.25059657,0.815336248 5.57910137,1.2696514 5.75,1.79 C6.01206519,2.43038854 6.18696098,3.10306465 6.27,3.79 C6.43,4.79 6.74,6.25 6.75,6.55 C6.75,6.18 6.68,5.4 6.75,5.05 C6.81935301,4.68512412 7.07295842,4.3823117 7.42,4.25 C7.71780915,4.15862519 8.03284549,4.13807935 8.34,4.19 C8.65003669,4.25481591 8.92466387,4.43314524 9.11,4.69 C9.34168097,5.27339299 9.47025898,5.89259761 9.49,6.52 C9.51677857,5.97058648 9.61081334,5.42652817 9.77,4.9 C9.93710411,4.66454921 10.1811322,4.49479052 10.46,4.42 C10.7905931,4.35955512 11.1294069,4.35955512 11.46,4.42 C11.7310945,4.51063084 11.968241,4.68151586 12.14,4.91 C12.3517705,5.44034596 12.4799623,6.00034169 12.52,6.57 C12.52,6.71 12.59,6.18 12.81,5.83 C12.924325,5.49059769 13.2110346,5.23796868 13.5621281,5.16727587 C13.9132216,5.09658306 14.2753596,5.21856637 14.5121281,5.48727587 C14.7488967,5.75598537 14.824325,6.13059769 14.71,6.47 C14.71,7.12 14.71,7.09 14.71,7.53 C14.71,7.97 14.71,8.36 14.71,8.73 C14.6735613,9.31517926 14.5933368,9.89680669 14.47,10.47 C14.2959749,10.9771188 14.0537528,11.4581987 13.75,11.9 C13.2644478,12.4399641 12.8632544,13.0501826 12.56,13.71 C12.4847582,14.0378036 12.4511598,14.3737882 12.46,14.71 C12.4589965,15.020633 12.499351,15.3300173 12.58,15.63 C12.1711391,15.6732223 11.7588609,15.6732223 11.35,15.63 C10.96,15.57 10.48,14.79 10.35,14.55 C10.2856779,14.4211326 10.1540282,14.3397056 10.01,14.3397056 C9.86597177,14.3397056 9.73432211,14.4211326 9.67,14.55 C9.45,14.93 8.96,15.62 8.62,15.66 C7.95,15.74 6.57,15.66 5.48,15.66 C5.48,15.66 5.66,14.66 5.25,14.3 C4.84,13.94 4.42,13.52 4.11,13.24 L3.27,12.28 Z" id="Shape" stroke="#000000" stroke-width="0.75" stroke-linecap="round" stroke-linejoin="round"></path>
                    <path d="M11.75,12.8258906 L11.75,9.37410925 C11.75,9.16749441 11.5821068,9 11.375,9 C11.1678932,9 11,9.16749441 11,9.37410925 L11,12.8258906 C11,13.0325054 11.1678932,13.1999998 11.375,13.1999998 C11.5821068,13.1999998 11.75,13.0325054 11.75,12.8258906 Z" id="Shape" fill="#000000" fill-rule="nonzero"></path>
                    <path d="M9.76999391,12.8246259 L9.74999391,9.37107174 C9.74880023,9.16494995 9.57994213,8.99881831 9.37283879,9.00000633 C9.16573545,9.00119435 8.99881268,9.16925216 9.00000636,9.37537395 L9.02000636,12.8289281 C9.02120004,13.0350499 9.19005814,13.2011815 9.39716148,13.1999935 C9.60426482,13.1988055 9.77118758,13.0307477 9.76999391,12.8246259 Z" id="Shape" fill="#000000" fill-rule="nonzero"></path>
                    <path d="M7.00000651,9.37899137 L7.02000651,12.8254025 C7.02121411,13.0334966 7.19008343,13.2012066 7.39718669,13.1999933 C7.60428995,13.1987799 7.77120136,13.0291026 7.76999376,12.8210084 L7.74999376,9.37459734 C7.74878616,9.16650318 7.57991685,8.99879317 7.37281359,9.00000654 C7.16571032,9.00121992 6.99879891,9.17089721 7.00000651,9.37899137 Z" id="Shape" fill="#000000" fill-rule="nonzero"></path>
                </g>
            </g>
            <text id="Taco-meat" font-family="IBMPlexSans, IBM Plex Sans" font-size="14" font-weight="normal" line-spacing="18" fill="#171717">
                <tspan x="108" y="163">Taco meat</tspan>
            </text>
            <g id="icon/navigation/chevron/down/16" transform="translate(198.000000, 158.000000) rotate(-180.000000) translate(-198.000000, -158.000000) translate(190.000000, 150.000000)">
                <g id="chevron--down" stroke-width="1" fill-rule="evenodd" transform="translate(3.000000, 5.000000)">
                    <mask id="mask-5" fill="white">
                        <use xlink:href="#path-4"></use>
                    </mask>
                    <use id="Mask" fill="#000000" fill-rule="nonzero" xlink:href="#path-4"></use>
                    <g id="color/gray/100" mask="url(#mask-5)" fill="#171717">
                        <g transform="translate(-3.000000, -5.000000)">
                            <rect x="0" y="0" width="40" height="40"></rect>
                        </g>
                    </g>
                </g>
                <rect id="transparent-rectangle" transform="translate(17.000000, 8.000000) rotate(-90.000000) translate(-17.000000, -8.000000) " x="9" y="0" width="16" height="16"></rect>
            </g>
            <text id="Tortilla" font-family="IBMPlexSans, IBM Plex Sans" font-size="14" font-weight="normal" line-spacing="18" fill="#171717">
                <tspan x="292" y="163">Tortilla</tspan>
            </text>
            <g id="icon/navigation/chevron/down/16" transform="translate(353.000000, 150.000000)">
                <g id="chevron--down" stroke-width="1" fill-rule="evenodd" transform="translate(3.000000, 5.000000)">
                    <mask id="mask-7" fill="white">
                        <use xlink:href="#path-6"></use>
                    </mask>
                    <use id="Mask" fill="#000000" fill-rule="nonzero" xlink:href="#path-6"></use>
                    <g id="color/gray/100" mask="url(#mask-7)" fill="#171717">
                        <g transform="translate(-3.000000, -5.000000)">
                            <rect x="0" y="0" width="40" height="40"></rect>
                        </g>
                    </g>
                </g>
                <rect id="transparent-rectangle" transform="translate(17.000000, 8.000000) rotate(-90.000000) translate(-17.000000, -8.000000) " x="9" y="0" width="16" height="16"></rect>
            </g>
            <text id="Toppings" font-family="IBMPlexSans, IBM Plex Sans" font-size="14" font-weight="normal" line-spacing="18" fill="#171717">
                <tspan x="427" y="163">Toppings</tspan>
            </text>
            <g id="icon/navigation/chevron/down/16" transform="translate(501.000000, 150.000000)">
                <g id="chevron--down" stroke-width="1" fill-rule="evenodd" transform="translate(3.000000, 5.000000)">
                    <mask id="mask-9" fill="white">
                        <use xlink:href="#path-8"></use>
                    </mask>
                    <use id="Mask" fill="#000000" fill-rule="nonzero" xlink:href="#path-8"></use>
                    <g id="color/gray/100" mask="url(#mask-9)" fill="#171717">
                        <g transform="translate(-3.000000, -5.000000)">
                            <rect x="0" y="0" width="40" height="40"></rect>
                        </g>
                    </g>
                </g>
                <rect id="transparent-rectangle" transform="translate(17.000000, 8.000000) rotate(-90.000000) translate(-17.000000, -8.000000) " x="9" y="0" width="16" height="16"></rect>
            </g>
            <text id="Filter-by:" font-family="IBMPlexSans, IBM Plex Sans" font-size="14" font-weight="normal" line-spacing="18" letter-spacing="0.0233333334" fill="#565656">
                <tspan x="16" y="163">Filter by:</tspan>
            </text>
        </g>
        <g id="Group-2" transform="translate(-134.000000, 345.000000)">
            <g id="Group" stroke="#DCDCDC">
                <polyline id="Path-16" transform="translate(462.151987, 5.772216) rotate(-270.000000) translate(-462.151987, -5.772216) " points="456.379771 -60.379771 467.775428 -48.9841138 456.883273 -38.0919591 467.897955 -27.077277 456.911828 -16.0911491 467.871958 -5.05392461 456.902953 5.91508125 467.910522 16.9226508 456.920624 27.9125487 467.924204 38.9161282 456.884489 49.9558434 467.826639 60.8979934 456.800428 71.9242038"></polyline>
                <polyline id="Path-16" transform="translate(330.151987, 5.772216) rotate(-270.000000) translate(-330.151987, -5.772216) " points="324.379771 -60.379771 335.775428 -48.9841138 324.883273 -38.0919591 335.897955 -27.077277 324.911828 -16.0911491 335.871958 -5.05392461 324.902953 5.91508125 335.910522 16.9226508 324.920624 27.9125487 335.924204 38.9161282 324.884489 49.9558434 335.826639 60.8979934 324.800428 71.9242038"></polyline>
                <polyline id="Path-16" transform="translate(198.151987, 5.772216) rotate(-270.000000) translate(-198.151987, -5.772216) " points="192.379771 -60.379771 203.775428 -48.9841138 192.883273 -38.0919591 203.897955 -27.077277 192.911828 -16.0911491 203.871958 -5.05392461 192.902953 5.91508125 203.910522 16.9226508 192.920624 27.9125487 203.924204 38.9161282 192.884489 49.9558434 203.826639 60.8979934 192.800428 71.9242038"></polyline>
                <polyline id="Path-16" transform="translate(726.151987, 5.772216) rotate(-270.000000) translate(-726.151987, -5.772216) " points="720.379771 -60.379771 731.775428 -48.9841138 720.883273 -38.0919591 731.897955 -27.077277 720.911828 -16.0911491 731.871958 -5.05392461 720.902953 5.91508125 731.910522 16.9226508 720.920624 27.9125487 731.924204 38.9161282 720.884489 49.9558434 731.826639 60.8979934 720.800428 71.9242038"></polyline>
                <polyline id="Path-16" transform="translate(594.151987, 5.772216) rotate(-270.000000) translate(-594.151987, -5.772216) " points="588.379771 -60.379771 599.775428 -48.9841138 588.883273 -38.0919591 599.897955 -27.077277 588.911828 -16.0911491 599.871958 -5.05392461 588.902953 5.91508125 599.910522 16.9226508 588.920624 27.9125487 599.924204 38.9161282 588.884489 49.9558434 599.826639 60.8979934 588.800428 71.9242038"></polyline>
                <polyline id="Path-16" transform="translate(858.151987, 5.772216) rotate(-270.000000) translate(-858.151987, -5.772216) " points="852.379771 -60.379771 863.775428 -48.9841138 852.883273 -38.0919591 863.897955 -27.077277 852.911828 -16.0911491 863.871958 -5.05392461 852.902953 5.91508125 863.910522 16.9226508 852.920624 27.9125487 863.924204 38.9161282 852.884489 49.9558434 863.826639 60.8979934 852.800428 71.9242038"></polyline>
            </g>
            <polygon id="Fill-1" fill="#F3F3F3" points="857.997 1 852 6.997 847 11.997 835.997 1 825 11.997 813.997 1 803 11.997 791.997 1 781 11.997 769.997 1 759 11.997 747.997 1 737 11.997 725.997 1 715 11.997 703.997 1 693 11.997 681.997 1 671 11.997 659.997 1 649 11.997 637.997 1 627 11.997 615.997 1 605 11.997 593.997 1 583 11.997 571.998 1 561 11.997 560.994 11.997 549.997 1 539 11.997 527.998 1 517 11.997 516.994 11.997 505.997 1 495 11.997 483.997 1 473 11.997 461.998 1 451 11.997 450.994 11.997 439.997 1 429 11.997 417.998 1 407 11.997 406.994 11.997 395.997 1 385 11.997 373.998 1 363 11.997 362.994 11.997 351.997 1 341 11.997 329.998 1 319 11.997 318.994 11.997 307.998 1 297 11.997 285.997 1 275 11.997 263.998 1 253 11.997 252.994 11.997 241.997 1 231 11.997 219.998 1 209 11.997 208.994 11.997 197.997 1 187 11.997 175.998 1 165 11.997 164.994 11.997 153.997 1 143 11.997 131.998 1 121 11.997 120.994 11.997 116 7.003 109.998 1 99 11.997 99 17 869 17 869 11.997"></polygon>
        </g>
    </g>
</svg>