<?xml version="1.0" encoding="UTF-8"?>
<svg width="736px" height="379px" viewBox="0 0 736 379" version="1.1" xmlns="http://www.w3.org/2000/svg" xmlns:xlink="http://www.w3.org/1999/xlink">
    <!-- Generator: Sketch 52.5 (67469) - http://www.bohemiancoding.com/sketch -->
    <title>filter-4</title>
    <desc>Created with Sketch.</desc>
    <defs>
        <polygon id="path-1" points="0.7890625 32 455.378775 32 455.378775 -8.10018719e-13 487 -8.10018719e-13 487 32 487 218.044922 0.7890625 218.044922"></polygon>
        <filter x="-2.1%" y="-3.7%" width="104.1%" height="109.2%" filterUnits="objectBoundingBox" id="filter-2">
            <feOffset dx="0" dy="2" in="SourceAlpha" result="shadowOffsetOuter1"></feOffset>
            <feGaussianBlur stdDeviation="3" in="shadowOffsetOuter1" result="shadowBlurOuter1"></feGaussianBlur>
            <feColorMatrix values="0 0 0 0 0   0 0 0 0 0   0 0 0 0 0  0 0 0 0.3 0" type="matrix" in="shadowBlurOuter1"></feColorMatrix>
        </filter>
        <path d="M11,6.5 L10.295,5.795 L6.5,9.585 L6.5,0 L5.5,0 L5.5,9.585 L1.705,5.795 L1,6.5 L6,11.5 L11,6.5 Z M11,11 L11,13 L1,13 L1,11 L0,11 L0,13 C0,13.5522847 0.44771525,14 1,14 L11,14 C11.5522847,14 12,13.5522847 12,13 L12,11 L11,11 Z" id="path-3"></path>
        <path d="M12.5,7.38 C12.5,7.255 12.5,7.13 12.5,7 C12.5,6.87 12.5,6.745 12.5,6.615 L13.46,5.77 C13.8226785,5.44861899 13.9027429,4.91345193 13.65,4.5 L12.47,2.5 C12.2310889,2.08873489 11.7355635,1.90265151 11.285,2.055 L10.07,2.465 C9.86065614,2.32343568 9.64180423,2.19646816 9.415,2.085 L9.165,0.825 C9.07063152,0.349884227 8.64930803,0.0107188198 8.165,0.02 L5.82,0.02 C5.33569197,0.0107188198 4.91436848,0.349884227 4.82,0.825 L4.57,2.085 C4.33991492,2.19444594 4.11771309,2.31974773 3.905,2.46 L2.715,2.03 C2.25839183,1.88195725 1.76100441,2.07923327 1.53,2.5 L0.35,4.5 C0.112085016,4.91234575 0.197840727,5.43524643 0.555,5.75 L1.5,6.62 C1.5,6.745 1.5,6.87 1.5,7 C1.5,7.13 1.5,7.255 1.5,7.385 L0.555,8.225 C0.184625338,8.54299553 0.0979728044,9.08193202 0.35,9.5 L1.53,11.5 C1.76891112,11.9112651 2.26443652,12.0973485 2.715,11.945 L3.93,11.535 C4.13934386,11.6765643 4.35819577,11.8035318 4.585,11.915 L4.835,13.175 C4.92936848,13.6501158 5.35069197,13.9892812 5.835,13.98 L8.195,13.98 C8.67930803,13.9892812 9.10063152,13.6501158 9.195,13.175 L9.445,11.915 C9.67508508,11.8055541 9.89728691,11.6802523 10.11,11.54 L11.32,11.95 C11.7612283,12.0828775 12.2361328,11.8970453 12.47,11.5 L13.65,9.5 C13.887915,9.08765425 13.8021593,8.56475357 13.445,8.25 L12.5,7.38 Z M11.605,11 L9.89,10.42 C9.48730614,10.7570721 9.02871944,11.0210556 8.535,11.2 L8.18,13 L5.82,13 L5.465,11.225 C4.97488533,11.0425731 4.51988891,10.7770176 4.12,10.44 L2.395,11 L1.215,9 L2.58,7.805 C2.48786393,7.28740157 2.48786393,6.75759843 2.58,6.24 L1.215,5 L2.395,3 L4.11,3.58 C4.51269386,3.24292786 4.97128056,2.97894437 5.465,2.8 L5.82,1 L8.18,1 L8.535,2.775 C9.02511467,2.95742692 9.48011109,3.22298245 9.88,3.56 L11.605,3 L12.785,5 L11.42,6.2 C11.512241,6.71758916 11.512241,7.24741084 11.42,7.765 L12.785,9 L11.605,11 Z M7,10 C5.34314575,10 4,8.65685425 4,7 C4,5.34314575 5.34314575,4 7,4 C8.65685425,4 10,5.34314575 10,7 C10.0081032,7.79810602 9.69463548,8.56588494 9.13026021,9.13026021 C8.56588494,9.69463548 7.79810602,10.0081032 7,10 Z M7,5 C6.46584954,4.98755672 5.94987987,5.19427211 5.57207599,5.57207599 C5.19427211,5.94987987 4.98755672,6.46584954 5,7 C4.98755672,7.53415046 5.19427211,8.05012013 5.57207599,8.42792401 C5.94987987,8.80572789 6.46584954,9.01244328 7,9 C7.53415046,9.01244328 8.05012013,8.80572789 8.42792401,8.42792401 C8.80572789,8.05012013 9.01244328,7.53415046 9,7 C9.01244328,6.46584954 8.80572789,5.94987987 8.42792401,5.57207599 C8.05012013,5.19427211 7.53415046,4.98755672 7,5 Z" id="path-5"></path>
        <path d="M14,2.5 L11.4496,2.5 C11.2122683,1.33570882 10.1882091,0.49933692 8.999975,0.49933692 C7.8117409,0.49933692 6.78768166,1.33570882 6.55035,2.5 L0,2.5 L0,3.5 L6.5504,3.5 C6.78773166,4.66429118 7.8117909,5.50066308 9.000025,5.50066308 C10.1882591,5.50066308 11.2123183,4.66429118 11.44965,3.5 L14,3.5 L14,2.5 Z M9,4.5 C8.17157288,4.5 7.5,3.82842712 7.5,3 C7.5,2.17157288 8.17157288,1.5 9,1.5 C9.82842712,1.5 10.5,2.17157288 10.5,3 C10.4990631,3.82803876 9.82803876,4.49906315 9,4.5 Z M14,10.5 L7.4496,10.5 C7.21226834,9.33570882 6.1882091,8.49933692 4.999975,8.49933692 C3.8117409,8.49933692 2.78768166,9.33570882 2.55035,10.5 L0,10.5 L0,11.5 L2.5504,11.5 C2.78773166,12.6642912 3.8117909,13.5006631 5.000025,13.5006631 C6.1882591,13.5006631 7.21231834,12.6642912 7.44965,11.5 L14,11.5 L14,10.5 Z M5,12.5 C4.17157288,12.5 3.5,11.8284271 3.5,11 C3.5,10.1715729 4.17157288,9.5 5,9.5 C5.82842712,9.5 6.5,10.1715729 6.5,11 C6.49906315,11.8280388 5.82803876,12.4990631 5,12.5 Z" id="path-7"></path>
        <polygon id="path-9" points="3.125 6.5625 0 3.4625 0.99375 2.48125 3.125 4.59375 7.75625 0 8.75 0.9875"></polygon>
        <polygon id="path-11" points="3.125 6.5625 0 3.4625 0.99375 2.48125 3.125 4.59375 7.75625 0 8.75 0.9875"></polygon>
    </defs>
    <g id="filter-4" stroke="none" stroke-width="1" fill="none" fill-rule="evenodd">
        <g id="Group-3" transform="translate(97.000000, 80.000000)">
            <g id="Rectangle-2-Copy-10">
                <use fill="black" fill-opacity="1" filter="url(#filter-2)" xlink:href="#path-1"></use>
                <use fill="#F3F3F3" fill-rule="evenodd" xlink:href="#path-1"></use>
            </g>
            <g id="icon/file/download/16" transform="translate(495.000000, 7.000000)">
                <g id="Group">
                    <g id="download" transform="translate(2.000000, 1.000000)">
                        <mask id="mask-4" fill="white">
                            <use xlink:href="#path-3"></use>
                        </mask>
                        <use id="icon-color" fill="#000000" xlink:href="#path-3"></use>
                    </g>
                    <rect id="transparent-rectangle" x="0" y="0" width="16" height="16"></rect>
                </g>
            </g>
            <g id="icon/image/settings/16" transform="translate(527.000000, 7.000000)">
                <g id="settings" stroke-width="1" fill-rule="evenodd" transform="translate(1.000000, 1.000000)">
                    <mask id="mask-6" fill="white">
                        <use xlink:href="#path-5"></use>
                    </mask>
                    <use id="icon-color" fill="#000000" xlink:href="#path-5"></use>
                </g>
                <rect id="transparent-rectangle" x="0" y="0" width="16" height="16"></rect>
            </g>
            <g id="icon/image/filter/16" transform="translate(463.000000, 7.000000)">
                <g id="Group">
                    <g id="filter" transform="translate(1.000000, 1.000000)">
                        <mask id="mask-8" fill="white">
                            <use xlink:href="#path-7"></use>
                        </mask>
                        <use id="icon-color" fill="#0062FF" xlink:href="#path-7"></use>
                    </g>
                    <rect id="transparent-rectangle" x="0" y="0" width="16" height="16"></rect>
                </g>
            </g>
            <g id="Group" transform="translate(35.500000, 47.000000)">
                <text id="Type" font-family="IBMPlexSans, IBM Plex Sans" font-size="12" font-weight="normal" line-spacing="16" letter-spacing="0.0199999996" fill="#565656">
                    <tspan x="0" y="12">Type</tspan>
                </text>
                <g id="check--box--unchecked-copy-19" transform="translate(0.000000, 24.000000)">
                    <g id="Icon" transform="translate(2.500000, 2.500000)" fill="#252525" fill-rule="nonzero">
                        <path d="M13.75,0 L1.25,0 C0.559644063,0 0,0.559644063 0,1.25 L0,13.75 C0,14.4403559 0.559644063,15 1.25,15 L13.75,15 C14.4403559,15 15,14.4403559 15,13.75 L15,1.25 C15,0.559644063 14.4403559,0 13.75,0 Z M1.25,13.75 L1.25,1.25 L13.75,1.25 L13.75,13.75 L1.25,13.75 Z" id="Shape"></path>
                    </g>
                    <g id="Transparent_Rectangle">
                        <rect id="Rectangle-path" x="0" y="0" width="20" height="20"></rect>
                    </g>
                </g>
                <text id="Carne-asada" font-family="IBMPlexSans, IBM Plex Sans" font-size="14" font-weight="normal" line-spacing="18" letter-spacing="0.100000001" fill="#171717">
                    <tspan x="28" y="39">Carne asada</tspan>
                </text>
                <g id="check--box--unchecked-copy-21" transform="translate(0.000000, 56.000000)">
                    <g id="Icon" transform="translate(2.500000, 2.500000)" fill="#252525" fill-rule="nonzero">
                        <path d="M13.75,0 L1.25,0 C0.559644063,0 0,0.559644063 0,1.25 L0,13.75 C0,14.4403559 0.559644063,15 1.25,15 L13.75,15 C14.4403559,15 15,14.4403559 15,13.75 L15,1.25 C15,0.559644063 14.4403559,0 13.75,0 Z M1.25,13.75 L1.25,1.25 L13.75,1.25 L13.75,13.75 L1.25,13.75 Z" id="Shape"></path>
                    </g>
                    <g id="Transparent_Rectangle">
                        <rect id="Rectangle-path" x="0" y="0" width="20" height="20"></rect>
                    </g>
                </g>
                <text id="Carnitas" font-family="IBMPlexSans, IBM Plex Sans" font-size="14" font-weight="normal" line-spacing="18" letter-spacing="0.100000001" fill="#171717">
                    <tspan x="28" y="71">Carnitas</tspan>
                </text>
                <g id="check--box--unchecked-copy-21" transform="translate(0.000000, 88.000000)">
                    <g id="Icon" transform="translate(2.500000, 2.500000)" fill="#252525" fill-rule="nonzero">
                        <path d="M13.75,0 L1.25,0 C0.559644063,0 0,0.559644063 0,1.25 L0,13.75 C0,14.4403559 0.559644063,15 1.25,15 L13.75,15 C14.4403559,15 15,14.4403559 15,13.75 L15,1.25 C15,0.559644063 14.4403559,0 13.75,0 Z M1.25,13.75 L1.25,1.25 L13.75,1.25 L13.75,13.75 L1.25,13.75 Z" id="Shape"></path>
                    </g>
                    <g id="Transparent_Rectangle">
                        <rect id="Rectangle-path" x="0" y="0" width="20" height="20"></rect>
                    </g>
                </g>
                <text id="Pollo" font-family="IBMPlexSans, IBM Plex Sans" font-size="14" font-weight="normal" line-spacing="18" letter-spacing="0.100000001" fill="#171717">
                    <tspan x="28" y="103">Pollo</tspan>
                </text>
                <g id="check--box--unchecked-copy-21" transform="translate(0.000000, 120.000000)">
                    <g id="Icon" transform="translate(2.500000, 2.500000)" fill="#252525" fill-rule="nonzero">
                        <path d="M13.75,0 L1.25,0 C0.559644063,0 0,0.559644063 0,1.25 L0,13.75 C0,14.4403559 0.559644063,15 1.25,15 L13.75,15 C14.4403559,15 15,14.4403559 15,13.75 L15,1.25 C15,0.559644063 14.4403559,0 13.75,0 Z M1.25,13.75 L1.25,1.25 L13.75,1.25 L13.75,13.75 L1.25,13.75 Z" id="Shape"></path>
                    </g>
                    <g id="Transparent_Rectangle">
                        <rect id="Rectangle-path" x="0" y="0" width="20" height="20"></rect>
                    </g>
                </g>
                <text id="Veggies" font-family="IBMPlexSans, IBM Plex Sans" font-size="14" font-weight="normal" line-spacing="18" letter-spacing="0.100000001" fill="#171717">
                    <tspan x="28" y="135">Veggies</tspan>
                </text>
                <g id="Checkbox_20-Copy" transform="translate(0.000000, 56.000000)">
                    <g id="checkbox--checked--filled" transform="translate(2.500000, 2.500000)">
                        <g id="icon-color-2" fill="#000000">
                            <g id="color/black" transform="translate(-3.000000, -1.000000)">
                                <rect x="0" y="0" width="20" height="20"></rect>
                            </g>
                        </g>
                        <g id="icon-color-1" transform="translate(3.125000, 4.375000)">
                            <mask id="mask-10" fill="white">
                                <use xlink:href="#path-9"></use>
                            </mask>
                            <use id="Mask" fill="#FFFFFF" fill-rule="nonzero" xlink:href="#path-9"></use>
                            <g id="color/white" mask="url(#mask-10)" fill="#FFFFFF">
                                <g transform="translate(-6.000000, -7.000000)">
                                    <rect x="0" y="0" width="20" height="20"></rect>
                                </g>
                            </g>
                        </g>
                    </g>
                    <rect id="transparent-rectangle" x="0" y="0" width="20" height="20"></rect>
                </g>
            </g>
            <g id="Group-2" transform="translate(189.500000, 47.000000)">
                <text id="Tortilla" font-family="IBMPlexSans, IBM Plex Sans" font-size="12" font-weight="normal" line-spacing="16" letter-spacing="0.0199999996" fill="#565656">
                    <tspan x="0" y="12">Tortilla</tspan>
                </text>
                <g id="check--box--unchecked-copy-19" transform="translate(0.000000, 24.000000)">
                    <g id="Icon" transform="translate(2.500000, 2.500000)" fill="#252525" fill-rule="nonzero">
                        <path d="M13.75,0 L1.25,0 C0.559644063,0 0,0.559644063 0,1.25 L0,13.75 C0,14.4403559 0.559644063,15 1.25,15 L13.75,15 C14.4403559,15 15,14.4403559 15,13.75 L15,1.25 C15,0.559644063 14.4403559,0 13.75,0 Z M1.25,13.75 L1.25,1.25 L13.75,1.25 L13.75,13.75 L1.25,13.75 Z" id="Shape"></path>
                    </g>
                    <g id="Transparent_Rectangle">
                        <rect id="Rectangle-path" x="0" y="0" width="20" height="20"></rect>
                    </g>
                </g>
                <text id="Corn" font-family="IBMPlexSans, IBM Plex Sans" font-size="14" font-weight="normal" line-spacing="18" letter-spacing="0.100000001" fill="#171717">
                    <tspan x="28" y="39">Corn</tspan>
                </text>
                <g id="check--box--unchecked-copy-21" transform="translate(0.000000, 56.000000)">
                    <g id="Icon" transform="translate(2.500000, 2.500000)" fill="#252525" fill-rule="nonzero">
                        <path d="M13.75,0 L1.25,0 C0.559644063,0 0,0.559644063 0,1.25 L0,13.75 C0,14.4403559 0.559644063,15 1.25,15 L13.75,15 C14.4403559,15 15,14.4403559 15,13.75 L15,1.25 C15,0.559644063 14.4403559,0 13.75,0 Z M1.25,13.75 L1.25,1.25 L13.75,1.25 L13.75,13.75 L1.25,13.75 Z" id="Shape"></path>
                    </g>
                    <g id="Transparent_Rectangle">
                        <rect id="Rectangle-path" x="0" y="0" width="20" height="20"></rect>
                    </g>
                </g>
                <text id="Flour" font-family="IBMPlexSans, IBM Plex Sans" font-size="14" font-weight="normal" line-spacing="18" letter-spacing="0.100000001" fill="#171717">
                    <tspan x="28" y="71">Flour</tspan>
                </text>
                <g id="Checkbox_20-Copy" transform="translate(0.000000, 56.000000)">
                    <g id="checkbox--checked--filled" transform="translate(2.500000, 2.500000)">
                        <g id="icon-color-2" fill="#000000">
                            <g id="color/black" transform="translate(-3.000000, -2.000000)">
                                <rect x="0" y="0" width="20" height="20"></rect>
                            </g>
                        </g>
                        <g id="icon-color-1" transform="translate(3.125000, 4.375000)">
                            <mask id="mask-12" fill="white">
                                <use xlink:href="#path-11"></use>
                            </mask>
                            <use id="Mask" fill="#FFFFFF" fill-rule="nonzero" xlink:href="#path-11"></use>
                            <g id="color/white" mask="url(#mask-12)" fill="#FFFFFF">
                                <g transform="translate(-6.000000, -7.000000)">
                                    <rect x="0" y="0" width="20" height="20"></rect>
                                </g>
                            </g>
                        </g>
                    </g>
                    <rect id="transparent-rectangle" x="0" y="0" width="20" height="20"></rect>
                </g>
            </g>
            <rect id="Rectangle-5-Copy-78" fill="#0F6FFF" x="329" y="57" width="142" height="48"></rect>
            <text id="Apply-filters" font-family="IBMPlexSans, IBM Plex Sans" font-size="15" font-weight="normal" line-spacing="20" letter-spacing="0.1" fill="#FFFFFF">
                <tspan x="345" y="85">Apply filters</tspan>
            </text>
            <rect id="Rectangle-5-Copy-51" stroke="#0062FF" x="329.5" y="121.5" width="141" height="47"></rect>
            <text id="Reset-filters" font-family="IBMPlexSans, IBM Plex Sans" font-size="14" font-weight="normal" line-spacing="20" letter-spacing="0.1" fill="#0062FF">
                <tspan x="345" y="149">Reset filters</tspan>
            </text>
            <path d="M174,49 C174,49 174,185.625 174,185.625" id="Path-2" stroke="#DCDCDC" fill-rule="nonzero"></path>
            <rect id="Rectangle" fill="#DCDCDC" fill-rule="nonzero" x="312" y="32" width="1" height="186"></rect>
        </g>
    </g>
</svg>