<?xml version="1.0" encoding="UTF-8"?>
<svg width="736px" height="561px" viewBox="0 0 736 561" version="1.1" xmlns="http://www.w3.org/2000/svg" xmlns:xlink="http://www.w3.org/1999/xlink">
    <!-- Generator: Sketch 52.5 (67469) - http://www.bohemiancoding.com/sketch -->
    <title>filter-3</title>
    <desc>Created with Sketch.</desc>
    <defs>
        <polygon id="path-1" points="3.125 6.5625 0 3.4625 0.99375 2.48125 3.125 4.59375 7.75625 0 8.75 0.9875"></polygon>
        <polygon id="path-3" points="4.707 4 8 0.707 7.293 0 4 3.293 0.707 0 0 0.707 3.293 4 0 7.293 0.707 8 4 4.707 7.293 8 8 7.293"></polygon>
        <path d="M8.75,5.55111512e-16 C3.91750844,-2.77555756e-16 5.55111512e-16,3.91750844 0,8.75 C-5.55111512e-16,13.5824916 3.91750844,17.5 8.75,17.5 C13.5824916,17.5 17.5,13.5824916 17.5,8.75 C17.5,6.42935571 16.5781276,4.20375898 14.9371843,2.56281566 C13.296241,0.921872353 11.0706443,2.77555756e-16 8.75,5.55111512e-16 Z M8.75,16.25 C4.60786438,16.25 1.25,12.8921356 1.25,8.75 C1.25,4.60786438 4.60786438,1.25 8.75,1.25 C12.8921356,1.25 16.25,4.60786438 16.25,8.75 C16.25,10.7391237 15.4598237,12.646778 14.0533009,14.0533009 C12.646778,15.4598237 10.7391237,16.25 8.75,16.25 Z" id="path-5"></path>
        <path d="M8.75,5.55111512e-16 C3.91750844,-2.77555756e-16 5.55111512e-16,3.91750844 0,8.75 C-5.55111512e-16,13.5824916 3.91750844,17.5 8.75,17.5 C13.5824916,17.5 17.5,13.5824916 17.5,8.75 C17.5,6.42935571 16.5781276,4.20375898 14.9371843,2.56281566 C13.296241,0.921872353 11.0706443,2.77555756e-16 8.75,5.55111512e-16 Z M8.75,16.25 C4.60786438,16.25 1.25,12.8921356 1.25,8.75 C1.25,4.60786438 4.60786438,1.25 8.75,1.25 C12.8921356,1.25 16.25,4.60786438 16.25,8.75 C16.25,10.7391237 15.4598237,12.646778 14.0533009,14.0533009 C12.646778,15.4598237 10.7391237,16.25 8.75,16.25 Z" id="path-7"></path>
        <path d="M8.75,5.55111512e-16 C3.91750844,-2.77555756e-16 5.55111512e-16,3.91750844 0,8.75 C-5.55111512e-16,13.5824916 3.91750844,17.5 8.75,17.5 C13.5824916,17.5 17.5,13.5824916 17.5,8.75 C17.5,6.42935571 16.5781276,4.20375898 14.9371843,2.56281566 C13.296241,0.921872353 11.0706443,2.77555756e-16 8.75,5.55111512e-16 Z M8.75,16.25 C4.60786438,16.25 1.25,12.8921356 1.25,8.75 C1.25,4.60786438 4.60786438,1.25 8.75,1.25 C12.8921356,1.25 16.25,4.60786438 16.25,8.75 C16.25,10.7391237 15.4598237,12.646778 14.0533009,14.0533009 C12.646778,15.4598237 10.7391237,16.25 8.75,16.25 Z" id="path-9"></path>
        <path d="M8.75,5.55111512e-16 C3.91750844,-2.77555756e-16 5.55111512e-16,3.91750844 0,8.75 C-5.55111512e-16,13.5824916 3.91750844,17.5 8.75,17.5 C13.5824916,17.5 17.5,13.5824916 17.5,8.75 C17.5,6.42935571 16.5781276,4.20375898 14.9371843,2.56281566 C13.296241,0.921872353 11.0706443,2.77555756e-16 8.75,5.55111512e-16 Z M8.75,16.25 C4.60786438,16.25 1.25,12.8921356 1.25,8.75 C1.25,4.60786438 4.60786438,1.25 8.75,1.25 C12.8921356,1.25 16.25,4.60786438 16.25,8.75 C16.25,10.7391237 15.4598237,12.646778 14.0533009,14.0533009 C12.646778,15.4598237 10.7391237,16.25 8.75,16.25 Z" id="path-11"></path>
        <path d="M8.75,12.5 C10.8210678,12.5 12.5,10.8210678 12.5,8.75 C12.5,6.67893219 10.8210678,5 8.75,5 C6.67893219,5 5,6.67893219 5,8.75 C5,10.8210678 6.67893219,12.5 8.75,12.5 Z M8.75,5.55111512e-16 C3.91750844,-2.77555756e-16 5.55111512e-16,3.91750844 0,8.75 C-5.55111512e-16,13.5824916 3.91750844,17.5 8.75,17.5 C13.5824916,17.5 17.5,13.5824916 17.5,8.75 C17.5,6.42935571 16.5781276,4.20375898 14.9371843,2.56281566 C13.296241,0.921872353 11.0706443,2.77555756e-16 8.75,5.55111512e-16 Z M8.75,16.25 C4.60786438,16.25 1.25,12.8921356 1.25,8.75 C1.25,4.60786438 4.60786438,1.25 8.75,1.25 C12.8921356,1.25 16.25,4.60786438 16.25,8.75 C16.25,10.7391237 15.4598237,12.646778 14.0533009,14.0533009 C12.646778,15.4598237 10.7391237,16.25 8.75,16.25 Z" id="path-13"></path>
    </defs>
    <g id="filter-3" stroke="none" stroke-width="1" fill="none" fill-rule="evenodd">
        <text id="Type" font-family="IBMPlexSans, IBM Plex Sans" font-size="12" font-weight="normal" line-spacing="16" letter-spacing="0.0199999996" fill="#565656">
            <tspan x="32" y="212">Type</tspan>
        </text>
        <text id="Distance-(in-miles)" font-family="IBMPlexSans, IBM Plex Sans" font-size="12" font-weight="normal" line-spacing="16" letter-spacing="0.0199999996" fill="#565656">
            <tspan x="32" y="420">Distance (in miles)</tspan>
        </text>
        <g id="check--box--unchecked-copy-19" transform="translate(32.000000, 224.000000)">
            <g id="Icon" transform="translate(2.500000, 2.500000)" fill="#252525" fill-rule="nonzero">
                <path d="M13.75,0 L1.25,0 C0.559644063,0 0,0.559644063 0,1.25 L0,13.75 C0,14.4403559 0.559644063,15 1.25,15 L13.75,15 C14.4403559,15 15,14.4403559 15,13.75 L15,1.25 C15,0.559644063 14.4403559,0 13.75,0 Z M1.25,13.75 L1.25,1.25 L13.75,1.25 L13.75,13.75 L1.25,13.75 Z" id="Shape"></path>
            </g>
            <g id="Transparent_Rectangle">
                <rect id="Rectangle-path" x="0" y="0" width="20" height="20"></rect>
            </g>
        </g>
        <text id="American" font-family="IBMPlexSans, IBM Plex Sans" font-size="14" font-weight="normal" line-spacing="18" letter-spacing="0.100000001" fill="#171717">
            <tspan x="60" y="239">American</tspan>
        </text>
        <g id="check--box--unchecked-copy-21" transform="translate(32.000000, 256.000000)">
            <g id="Icon" transform="translate(2.500000, 2.500000)" fill="#252525" fill-rule="nonzero">
                <path d="M13.75,0 L1.25,0 C0.559644063,0 0,0.559644063 0,1.25 L0,13.75 C0,14.4403559 0.559644063,15 1.25,15 L13.75,15 C14.4403559,15 15,14.4403559 15,13.75 L15,1.25 C15,0.559644063 14.4403559,0 13.75,0 Z M1.25,13.75 L1.25,1.25 L13.75,1.25 L13.75,13.75 L1.25,13.75 Z" id="Shape"></path>
            </g>
            <g id="Transparent_Rectangle">
                <rect id="Rectangle-path" x="0" y="0" width="20" height="20"></rect>
            </g>
        </g>
        <text id="BBQ" font-family="IBMPlexSans, IBM Plex Sans" font-size="14" font-weight="normal" line-spacing="18" letter-spacing="0.100000001" fill="#171717">
            <tspan x="60" y="271">BBQ</tspan>
        </text>
        <g id="check--box--unchecked-copy-21" transform="translate(32.000000, 288.000000)">
            <g id="Icon" transform="translate(2.500000, 2.500000)" fill="#252525" fill-rule="nonzero">
                <path d="M13.75,0 L1.25,0 C0.559644063,0 0,0.559644063 0,1.25 L0,13.75 C0,14.4403559 0.559644063,15 1.25,15 L13.75,15 C14.4403559,15 15,14.4403559 15,13.75 L15,1.25 C15,0.559644063 14.4403559,0 13.75,0 Z M1.25,13.75 L1.25,1.25 L13.75,1.25 L13.75,13.75 L1.25,13.75 Z" id="Shape"></path>
            </g>
            <g id="Transparent_Rectangle">
                <rect id="Rectangle-path" x="0" y="0" width="20" height="20"></rect>
            </g>
        </g>
        <text id="Southern" font-family="IBMPlexSans, IBM Plex Sans" font-size="14" font-weight="normal" line-spacing="18" letter-spacing="0.100000001" fill="#171717">
            <tspan x="60" y="303">Southern</tspan>
        </text>
        <g id="check--box--unchecked-copy-21" transform="translate(32.000000, 320.000000)">
            <g id="Icon" transform="translate(2.500000, 2.500000)" fill="#252525" fill-rule="nonzero">
                <path d="M13.75,0 L1.25,0 C0.559644063,0 0,0.559644063 0,1.25 L0,13.75 C0,14.4403559 0.559644063,15 1.25,15 L13.75,15 C14.4403559,15 15,14.4403559 15,13.75 L15,1.25 C15,0.559644063 14.4403559,0 13.75,0 Z M1.25,13.75 L1.25,1.25 L13.75,1.25 L13.75,13.75 L1.25,13.75 Z" id="Shape"></path>
            </g>
            <g id="Transparent_Rectangle">
                <rect id="Rectangle-path" x="0" y="0" width="20" height="20"></rect>
            </g>
        </g>
        <text id="Steak-house" font-family="IBMPlexSans, IBM Plex Sans" font-size="14" font-weight="normal" line-spacing="18" letter-spacing="0.100000001" fill="#171717">
            <tspan x="60" y="335">Steak house</tspan>
        </text>
        <g id="Checkbox_20-Copy" transform="translate(32.000000, 256.000000)">
            <g id="checkbox--checked--filled" transform="translate(2.500000, 2.500000)">
                <g id="icon-color-2" fill="#000000">
                    <g id="color/black" transform="translate(-3.000000, -1.000000)">
                        <rect x="0" y="0" width="20" height="20"></rect>
                    </g>
                </g>
                <g id="icon-color-1" transform="translate(3.125000, 4.375000)">
                    <mask id="mask-2" fill="white">
                        <use xlink:href="#path-1"></use>
                    </mask>
                    <use id="Mask" fill="#FFFFFF" fill-rule="nonzero" xlink:href="#path-1"></use>
                    <g id="color/white" mask="url(#mask-2)" fill="#FFFFFF">
                        <g transform="translate(-6.000000, -7.000000)">
                            <rect x="0" y="0" width="20" height="20"></rect>
                        </g>
                    </g>
                </g>
            </g>
            <rect id="transparent-rectangle" x="0" y="0" width="20" height="20"></rect>
        </g>
        <text id="Reset-Filters" font-family="IBMPlexSans, IBM Plex Sans" font-size="14" font-weight="normal" line-spacing="20" fill="#0062FF">
            <tspan x="32" y="178">Reset Filters</tspan>
        </text>
        <text id="Show-more-…" font-family="IBMPlexSans, IBM Plex Sans" font-size="14" font-weight="normal" line-spacing="20" fill="#0062FF">
            <tspan x="32" y="366">Show more …</tspan>
        </text>
        <path d="M251.5,148 L251.5,555.738281" id="Path-2" stroke="#DCDCDC" fill-rule="nonzero"></path>
        <path d="M737,148.5 L0,148.5" id="Path-2" stroke="#DCDCDC" fill-rule="nonzero"></path>
        <rect id="Rectangle" fill="#F3F3F3" fill-rule="nonzero" x="363" y="180" width="377" height="16"></rect>
        <rect id="Rectangle" fill="#F3F3F3" fill-rule="nonzero" x="363" y="204" width="157" height="16"></rect>
        <rect id="Rectangle" fill="#F3F3F3" fill-rule="nonzero" x="363" y="244" width="377" height="16"></rect>
        <rect id="Rectangle" fill="#F3F3F3" fill-rule="nonzero" x="363" y="268" width="377" height="16"></rect>
        <rect id="Rectangle" fill="#F3F3F3" fill-rule="nonzero" x="363" y="292" width="157" height="16"></rect>
        <rect id="Rectangle" fill="#F3F3F3" x="283" y="180" width="64" height="64"></rect>
        <rect id="Rectangle" fill="#F3F3F3" fill-rule="nonzero" x="363" y="340.5" width="377" height="16"></rect>
        <rect id="Rectangle" fill="#F3F3F3" fill-rule="nonzero" x="363" y="364.5" width="157" height="16"></rect>
        <rect id="Rectangle" fill="#F3F3F3" fill-rule="nonzero" x="363" y="404.5" width="377" height="16"></rect>
        <rect id="Rectangle" fill="#F3F3F3" fill-rule="nonzero" x="363" y="428.5" width="377" height="16"></rect>
        <rect id="Rectangle" fill="#F3F3F3" fill-rule="nonzero" x="363" y="452.5" width="157" height="16"></rect>
        <rect id="Rectangle" fill="#F3F3F3" x="283" y="340.5" width="64" height="64"></rect>
        <rect id="Rectangle" fill="#F3F3F3" fill-rule="nonzero" x="363" y="340.5" width="377" height="16"></rect>
        <rect id="Rectangle" fill="#F3F3F3" fill-rule="nonzero" x="363" y="364.5" width="157" height="16"></rect>
        <rect id="Rectangle" fill="#F3F3F3" fill-rule="nonzero" x="363" y="404.5" width="377" height="16"></rect>
        <rect id="Rectangle" fill="#F3F3F3" fill-rule="nonzero" x="363" y="428.5" width="377" height="16"></rect>
        <rect id="Rectangle" fill="#F3F3F3" fill-rule="nonzero" x="363" y="452.5" width="157" height="16"></rect>
        <rect id="Rectangle" fill="#F3F3F3" x="283" y="340.5" width="64" height="64"></rect>
        <g id="Group-2" transform="translate(193.000000, 196.000000)">
            <rect id="Rectangle-4-Copy-10" fill="#171717" x="0" y="0" width="42" height="24" rx="12"></rect>
            <text id="2" font-family="IBMPlexSans, IBM Plex Sans" font-size="12" font-weight="normal" line-spacing="16" fill="#F3F3F3">
                <tspan x="8" y="15">2</tspan>
            </text>
            <g id="icon/navigation/close/16" transform="translate(23.000000, 4.000000)">
                <g id="Group">
                    <g id="close" transform="translate(4.000000, 4.000000)">
                        <mask id="mask-4" fill="white">
                            <use xlink:href="#path-3"></use>
                        </mask>
                        <use id="icon-color" fill="#F3F3F3" xlink:href="#path-3"></use>
                    </g>
                    <rect id="transparent-rectangle" x="0" y="0" width="16" height="16"></rect>
                </g>
            </g>
        </g>
        <text id="0-5" font-family="IBMPlexSans, IBM Plex Sans" font-size="14" font-weight="normal" line-spacing="20" letter-spacing="0.100000001" fill="#252525">
            <tspan x="61" y="472">0-5</tspan>
        </text>
        <text id="Any" font-family="IBMPlexSans, IBM Plex Sans" font-size="14" font-weight="normal" line-spacing="20" letter-spacing="0.100000001" fill="#252525">
            <tspan x="61" y="446">Any</tspan>
        </text>
        <g id="Group-2" transform="translate(32.000000, 458.000000)">
            <g id="radio--button--unchecked" transform="translate(1.000000, 1.000000)">
                <mask id="mask-6" fill="white">
                    <use xlink:href="#path-5"></use>
                </mask>
                <use id="Mask" fill="#000000" fill-rule="nonzero" xlink:href="#path-5"></use>
                <g id="color/black" mask="url(#mask-6)" fill="#000000">
                    <g transform="translate(-1.000000, -2.000000)">
                        <rect x="0" y="0" width="40" height="40"></rect>
                    </g>
                </g>
            </g>
            <rect id="Rectangle" x="0" y="0" width="20" height="20"></rect>
        </g>
        <text id="0-10" font-family="IBMPlexSans, IBM Plex Sans" font-size="14" font-weight="normal" line-spacing="20" letter-spacing="0.100000001" fill="#252525">
            <tspan x="61" y="498">0-10</tspan>
        </text>
        <g id="Group-2" transform="translate(32.000000, 484.000000)">
            <g id="radio--button--unchecked" transform="translate(1.000000, 1.000000)">
                <mask id="mask-8" fill="white">
                    <use xlink:href="#path-7"></use>
                </mask>
                <use id="Mask" fill="#000000" fill-rule="nonzero" xlink:href="#path-7"></use>
                <g id="color/black" mask="url(#mask-8)" fill="#000000">
                    <g transform="translate(-1.000000, -2.000000)">
                        <rect x="0" y="0" width="40" height="40"></rect>
                    </g>
                </g>
            </g>
            <rect id="Rectangle" x="0" y="0" width="20" height="20"></rect>
        </g>
        <text id="0-25" font-family="IBMPlexSans, IBM Plex Sans" font-size="14" font-weight="normal" line-spacing="20" letter-spacing="0.100000001" fill="#252525">
            <tspan x="61" y="524">0-25</tspan>
        </text>
        <g id="Group-2" transform="translate(32.000000, 510.000000)">
            <g id="radio--button--unchecked" transform="translate(1.000000, 1.000000)">
                <mask id="mask-10" fill="white">
                    <use xlink:href="#path-9"></use>
                </mask>
                <use id="Mask" fill="#000000" fill-rule="nonzero" xlink:href="#path-9"></use>
                <g id="color/black" mask="url(#mask-10)" fill="#000000">
                    <g transform="translate(-1.000000, -2.000000)">
                        <rect x="0" y="0" width="40" height="40"></rect>
                    </g>
                </g>
            </g>
            <rect id="Rectangle" x="0" y="0" width="20" height="20"></rect>
        </g>
        <g id="Group-5" transform="translate(33.000000, 432.000000)">
            <g id="icon/toggle/radio-button/unchecked/focus-blue-60/16-copy">
                <g id="radio--button--unchecked" transform="translate(1.250000, 1.250000)">
                    <mask id="mask-12" fill="white">
                        <use xlink:href="#path-11"></use>
                    </mask>
                    <use id="Mask" stroke="#0068FF" stroke-width="3" fill="#000000" fill-rule="nonzero" xlink:href="#path-11"></use>
                    <g id="color/blue/60" mask="url(#mask-12)" fill="#0062FF">
                        <g transform="translate(-1.000000, -2.000000)">
                            <rect x="0" y="0" width="20" height="20"></rect>
                        </g>
                    </g>
                </g>
                <rect id="transparent-rectangle" x="0" y="0" width="20" height="20"></rect>
            </g>
            <circle id="Oval" fill="#FFFFFF" cx="10.5" cy="9.5" r="7.5"></circle>
            <g id="icon/toggle/radio-button/checked/16">
                <g id="radio--button--checked" stroke-width="1" fill-rule="evenodd" transform="translate(1.250000, 1.250000)">
                    <mask id="mask-14" fill="white">
                        <use xlink:href="#path-13"></use>
                    </mask>
                    <use id="icon-color" fill="#000000" xlink:href="#path-13"></use>
                </g>
                <rect id="transparent-rectangle" x="0" y="0" width="20" height="20"></rect>
            </g>
        </g>
        <g id="Group-2" transform="translate(-108.000000, 544.000000)">
            <g id="Group" stroke="#DCDCDC">
                <polyline id="Path-16" transform="translate(462.151987, 5.772216) rotate(-270.000000) translate(-462.151987, -5.772216) " points="456.379771 -60.379771 467.775428 -48.9841138 456.883273 -38.0919591 467.897955 -27.077277 456.911828 -16.0911491 467.871958 -5.05392461 456.902953 5.91508125 467.910522 16.9226508 456.920624 27.9125487 467.924204 38.9161282 456.884489 49.9558434 467.826639 60.8979934 456.800428 71.9242038"></polyline>
                <polyline id="Path-16" transform="translate(330.151987, 5.772216) rotate(-270.000000) translate(-330.151987, -5.772216) " points="324.379771 -60.379771 335.775428 -48.9841138 324.883273 -38.0919591 335.897955 -27.077277 324.911828 -16.0911491 335.871958 -5.05392461 324.902953 5.91508125 335.910522 16.9226508 324.920624 27.9125487 335.924204 38.9161282 324.884489 49.9558434 335.826639 60.8979934 324.800428 71.9242038"></polyline>
                <polyline id="Path-16" transform="translate(198.151987, 5.772216) rotate(-270.000000) translate(-198.151987, -5.772216) " points="192.379771 -60.379771 203.775428 -48.9841138 192.883273 -38.0919591 203.897955 -27.077277 192.911828 -16.0911491 203.871958 -5.05392461 192.902953 5.91508125 203.910522 16.9226508 192.920624 27.9125487 203.924204 38.9161282 192.884489 49.9558434 203.826639 60.8979934 192.800428 71.9242038"></polyline>
                <polyline id="Path-16" transform="translate(726.151987, 5.772216) rotate(-270.000000) translate(-726.151987, -5.772216) " points="720.379771 -60.379771 731.775428 -48.9841138 720.883273 -38.0919591 731.897955 -27.077277 720.911828 -16.0911491 731.871958 -5.05392461 720.902953 5.91508125 731.910522 16.9226508 720.920624 27.9125487 731.924204 38.9161282 720.884489 49.9558434 731.826639 60.8979934 720.800428 71.9242038"></polyline>
                <polyline id="Path-16" transform="translate(594.151987, 5.772216) rotate(-270.000000) translate(-594.151987, -5.772216) " points="588.379771 -60.379771 599.775428 -48.9841138 588.883273 -38.0919591 599.897955 -27.077277 588.911828 -16.0911491 599.871958 -5.05392461 588.902953 5.91508125 599.910522 16.9226508 588.920624 27.9125487 599.924204 38.9161282 588.884489 49.9558434 599.826639 60.8979934 588.800428 71.9242038"></polyline>
                <polyline id="Path-16" transform="translate(66.151987, 5.772216) rotate(-270.000000) translate(-66.151987, -5.772216) " points="60.379771 -60.379771 71.7754281 -48.9841138 60.8832733 -38.0919591 71.8979554 -27.077277 60.9118275 -16.0911491 71.8719585 -5.05392461 60.9029526 5.91508125 71.9105222 16.9226508 60.9206243 27.9125487 71.9242038 38.9161282 60.8844886 49.9558434 71.8266386 60.8979934 60.8004282 71.9242038"></polyline>
                <polyline id="Path-16" transform="translate(858.151987, 5.772216) rotate(-270.000000) translate(-858.151987, -5.772216) " points="852.379771 -60.379771 863.775428 -48.9841138 852.883273 -38.0919591 863.897955 -27.077277 852.911828 -16.0911491 863.871958 -5.05392461 852.902953 5.91508125 863.910522 16.9226508 852.920624 27.9125487 863.924204 38.9161282 852.884489 49.9558434 863.826639 60.8979934 852.800428 71.9242038"></polyline>
            </g>
            <polygon id="Fill-1" fill="#F3F3F3" points="857.997 1 852 6.997 847 11.997 835.997 1 825 11.997 813.997 1 803 11.997 791.997 1 781 11.997 769.997 1 759 11.997 747.997 1 737 11.997 725.997 1 715 11.997 703.997 1 693 11.997 681.997 1 671 11.997 659.997 1 649 11.997 637.997 1 627 11.997 615.997 1 605 11.997 593.997 1 583 11.997 571.998 1 561 11.997 560.994 11.997 549.997 1 539 11.997 527.998 1 517 11.997 516.994 11.997 505.997 1 495 11.997 483.997 1 473 11.997 461.998 1 451 11.997 450.994 11.997 439.997 1 429 11.997 417.998 1 407 11.997 406.994 11.997 395.997 1 385 11.997 373.998 1 363 11.997 362.994 11.997 351.997 1 341 11.997 329.998 1 319 11.997 318.994 11.997 307.998 1 297 11.997 285.997 1 275 11.997 263.998 1 253 11.997 252.994 11.997 241.997 1 231 11.997 219.998 1 209 11.997 208.994 11.997 197.997 1 187 11.997 175.998 1 165 11.997 164.994 11.997 153.997 1 143 11.997 131.998 1 121 11.997 120.994 11.997 116 7.003 109.998 1 99 11.997 99 17 869 17 869 11.997"></polygon>
        </g>
        <g id="Group-3" transform="translate(32.000000, 32.000000)">
            <text id="Essentials" font-family="IBMPlexSans, IBM Plex Sans" font-size="14" font-weight="normal" fill="#0062FF">
                <tspan x="124" y="14">Essentials</tspan>
            </text>
            <text id="Food-in-Austin,-TX" font-family="IBMPlexSans-Light, IBM Plex Sans" font-size="42" font-weight="300" line-spacing="50" fill="#171717">
                <tspan x="0" y="77">Food in Austin, TX</tspan>
            </text>
            <text id="Travel" font-family="IBMPlexSans, IBM Plex Sans" font-size="14" font-weight="normal" fill="#0062FF">
                <tspan x="0" y="14">Travel</tspan>
            </text>
            <text id="/-copy-26" font-family="IBMPlexSans, IBM Plex Sans" font-size="14" font-weight="normal" fill="#171717">
                <tspan x="47" y="14">/</tspan>
            </text>
            <text id="/-copy-122" font-family="IBMPlexSans, IBM Plex Sans" font-size="14" font-weight="normal" fill="#171717">
                <tspan x="110" y="14">/</tspan>
            </text>
            <text id="Austin" font-family="IBMPlexSans, IBM Plex Sans" font-size="14" font-weight="normal" fill="#0062FF">
                <tspan x="61" y="14">Austin</tspan>
            </text>
        </g>
    </g>
</svg>