<?xml version="1.0" encoding="UTF-8"?>
<svg width="1440px" height="602px" viewBox="0 0 1440 602" version="1.1" xmlns="http://www.w3.org/2000/svg" xmlns:xlink="http://www.w3.org/1999/xlink">
    <!-- Generator: Sketch 47 (45396) - http://www.bohemiancoding.com/sketch -->
    <title>Group 16</title>
    <desc>Created with Sketch.</desc>
    <defs>
        <linearGradient x1="1.28996167%" y1="33.0334596%" x2="59.0809988%" y2="49.3250715%" id="linearGradient-1">
            <stop stop-color="#3C6DF0" offset="0%"></stop>
            <stop stop-color="#3151B7" offset="100%"></stop>
        </linearGradient>
    </defs>
    <g id="Final" stroke="none" stroke-width="1" fill="none" fill-rule="evenodd">
        <g id="Group-9" stroke-width="2">
            <g id="Group-16" transform="translate(-50.000000, -135.000000)">
                <g id="Group-8" style="mix-blend-mode: multiply;" transform="translate(143.719617, 222.858975) rotate(28.000000) translate(-143.719617, -222.858975) translate(47.719617, 131.358975)">
                    <path d="M104.33354,182.233411 C135.127301,182.233411 155.09513,166.847903 167.605095,140.112429 L137.77364,121.952485 C132.721538,136.329107 122.37676,148.183516 104.33354,148.183516 C82.9222539,148.183516 68.7282549,133.050229 68.7282549,105.305869 L68.7282549,77.0570666 C68.7282549,49.312707 82.9222539,34.17942 104.33354,34.17942 C122.37676,34.17942 131.278081,44.0160566 135.608454,58.6449007 L167.123943,41.4938421 C154.854554,13.2450396 135.127301,0.129524213 104.33354,0.129524213 C59.1052047,0.129524213 29.995478,32.9183128 29.995478,92.4425751 C29.995478,151.966837 59.1052047,182.233411 104.33354,182.233411 Z" id="Path" stroke="#3151B7" opacity="0.2"></path>
                    <path d="M74.3380625,182.233411 C105.131823,182.233411 125.099652,166.847903 137.609617,140.112429 L107.778162,121.952485 C102.72606,136.329107 92.3812816,148.183516 74.3380625,148.183516 C52.9267759,148.183516 38.7327769,133.050229 38.7327769,105.305869 L38.7327769,77.0570666 C38.7327769,49.312707 52.9267759,34.17942 74.3380625,34.17942 C92.3812816,34.17942 101.282603,44.0160566 105.612976,58.6449007 L137.128465,41.4938421 C124.859076,13.2450396 105.131823,0.129524213 74.3380625,0.129524213 C29.1097267,0.129524213 0,32.9183128 0,92.4425751 C0,151.966837 29.1097267,182.233411 74.3380625,182.233411 Z" id="Path" stroke="#2E3F8F" opacity="0.05"></path>
                    <path d="M127.767508,182.233411 C158.561268,182.233411 178.529097,166.847903 191.039062,140.112429 L161.207607,121.952485 C156.155506,136.329107 145.810727,148.183516 127.767508,148.183516 C106.356221,148.183516 92.1622221,133.050229 92.1622221,105.305869 L92.1622221,77.0570666 C92.1622221,49.312707 106.356221,34.17942 127.767508,34.17942 C145.810727,34.17942 154.712048,44.0160566 159.042421,58.6449007 L190.55791,41.4938421 C178.288521,13.2450396 158.561268,0.129524213 127.767508,0.129524213 C82.5391719,0.129524213 53.4294452,32.9183128 53.4294452,92.4425751 C53.4294452,151.966837 82.5391719,182.233411 127.767508,182.233411 Z" id="Path" stroke="#3151B7"></path>
                    <path d="M160.154694,121 L136.854368,121" id="Path-2" stroke="url(#linearGradient-1)"></path>
                    <path d="M191.013581,140.143842 L165.912488,139.467258" id="Path-2" stroke="url(#linearGradient-1)"></path>
                    <path d="M158.800067,59.0511523 L134.979651,58.9462374" id="Path-2" stroke="url(#linearGradient-1)"></path>
                    <path d="M189.732904,41.052336 L165.912488,40.9474211" id="Path-2" stroke="url(#linearGradient-1)"></path>
                </g>
                <g id="Group" style="mix-blend-mode: multiply;" transform="translate(134.186169, 696.941714) rotate(-22.000000) translate(-134.186169, -696.941714) translate(38.686169, 604.941714)" stroke="#3151B7">
                    <rect id="Rectangle-2" x="43.2829165" y="36.6066666" width="145.990208" height="145.990208"></rect>
                    <rect id="Rectangle-2" opacity="0.2" x="23.2541666" y="18.8033333" width="145.990208" height="145.990208"></rect>
                    <rect id="Rectangle-2" opacity="0.1" x="1" y="1" width="145.990208" height="145.990208"></rect>
                </g>
                <g id="Group" style="mix-blend-mode: multiply;" transform="translate(1151.628684, 266.210197) rotate(67.000000) translate(-1151.628684, -266.210197) translate(1056.128684, 173.710197)" stroke="#3151B7">
                    <rect id="Rectangle-2" x="43.4264432" y="36.7275312" width="146.492551" height="146.492551"></rect>
                    <rect id="Rectangle-2" opacity="0.2" x="23.329707" y="18.8637656" width="146.492551" height="146.492551"></rect>
                    <rect id="Rectangle-2" opacity="0.1" x="1" y="1" width="146.492551" height="146.492551"></rect>
                </g>
                <g id="Group" style="mix-blend-mode: multiply;" transform="translate(1361.020610, 716.946760) rotate(156.000000) translate(-1361.020610, -716.946760) translate(1261.020610, 618.446760)" stroke="#3151B7">
                    <rect id="Rectangle-2" x="56.9867581" y="54.0880228" width="141.213679" height="141.213679"></rect>
                    <rect id="Rectangle-2" opacity="0.3" x="31.647471" y="30.7646948" width="141.213679" height="141.213679"></rect>
                    <rect id="Rectangle-2" opacity="0.1" x="1.16893943" y="1.2264806" width="141.213679" height="141.213679"></rect>
                </g>
                <g id="Group" style="mix-blend-mode: multiply;" transform="translate(438.928123, 155.516289) rotate(35.000000) translate(-438.928123, -155.516289) translate(327.428123, 44.016289)" stroke="#3151B7">
                    <rect id="Rectangle-2" x="65.141065" y="65.0135284" width="155.993727" height="155.993727"></rect>
                    <rect id="Rectangle-2" opacity="0.2" x="35.6760023" y="27.6036679" width="155.993727" height="155.993727"></rect>
                    <rect id="Rectangle-2" opacity="0.1" x="1.21892501" y="1.55847445" width="155.993727" height="155.993727"></rect>
                </g>
                <g id="Group-5" style="mix-blend-mode: multiply;" transform="translate(316.386176, 331.386176) rotate(-19.000000) translate(-316.386176, -331.386176) translate(230.386176, 245.386176)" stroke="#3151B7">
                    <circle id="Oval" cx="105.560817" cy="105.560817" r="65.5608174"></circle>
                    <circle id="Oval" opacity="0.2" cx="85.5608174" cy="85.5608174" r="65.5608174"></circle>
                    <circle id="Oval" opacity="0.1" cx="65.5608174" cy="65.5608174" r="65.5608174"></circle>
                </g>
                <g id="Group-7" style="mix-blend-mode: multiply;" transform="translate(652.352409, 318.076842) rotate(131.000000) translate(-652.352409, -318.076842) translate(537.852409, 231.576842)" stroke="#3151B7">
                    <polygon id="Triangle" points="144.808685 29.1482744 228.449745 172.9762 61.1676246 172.9762"></polygon>
                    <polygon id="Triangle" opacity="0.3" points="117.889731 15.6887976 201.530792 159.516723 34.248671 159.516723"></polygon>
                    <polygon id="Triangle" opacity="0.1" points="84.2410395 0.883373111 167.8821 144.711299 0.599979034 144.711299"></polygon>
                </g>
                <g id="Group-7" style="mix-blend-mode: multiply;" transform="translate(143.294988, 480.739337) rotate(-146.000000) translate(-143.294988, -480.739337) translate(28.794988, 394.239337)" stroke="#3151B7">
                    <polygon id="Triangle" points="144.808685 29.1482744 228.449745 172.9762 61.1676246 172.9762"></polygon>
                    <polygon id="Triangle" opacity="0.3" points="117.889731 15.6887976 201.530792 159.516723 34.248671 159.516723"></polygon>
                    <polygon id="Triangle" opacity="0.1" points="84.2410395 0.883373111 167.8821 144.711299 0.599979034 144.711299"></polygon>
                </g>
                <g id="Group-7" style="mix-blend-mode: multiply;" transform="translate(1216.832378, 530.739337) rotate(-482.000000) translate(-1216.832378, -530.739337) translate(1102.332378, 444.239337)" stroke="#3151B7">
                    <polygon id="Triangle" points="144.808685 29.1482744 228.449745 172.9762 61.1676246 172.9762"></polygon>
                    <polygon id="Triangle" opacity="0.3" points="117.889731 15.6887976 201.530792 159.516723 34.248671 159.516723"></polygon>
                    <polygon id="Triangle" opacity="0.1" points="84.2410395 0.883373111 167.8821 144.711299 0.599979034 144.711299"></polygon>
                </g>
                <g id="Group-4" style="mix-blend-mode: multiply;" transform="translate(371.373459, 566.963329) rotate(-70.000000) translate(-371.373459, -566.963329) translate(278.373459, 454.963329)" stroke="#3151B7">
                    <polygon id="Polygon" points="68.7157693 0 137.327295 39.6128826 137.327295 118.838648 68.7157693 158.451531 0.104243928 118.838648 0.104243928 39.6128826"></polygon>
                    <polygon id="Polygon" opacity="0.3" points="90.2856552 34.1713153 158.897181 73.7841979 158.897181 153.009963 90.2856552 192.622846 21.6741299 153.009963 21.6741299 73.7841979"></polygon>
                    <polygon id="Polygon" opacity="0.1" points="116.610625 64.8837802 185.22215 104.496663 185.22215 183.722428 116.610625 223.335311 47.9990998 183.722428 47.9990998 104.496663"></polygon>
                </g>
                <g id="Group-4" style="mix-blend-mode: multiply;" transform="translate(993.947801, 586.291053) rotate(-210.000000) translate(-993.947801, -586.291053) translate(897.447801, 470.291053)" stroke="#3151B7">
                    <polygon id="Polygon" points="71.2801237 0 142.452113 41.0911674 142.452113 123.273502 71.2801237 164.364669 0.108134132 123.273502 0.108134132 41.0911674"></polygon>
                    <polygon id="Polygon" opacity="0.3" points="93.6549608 35.4465301 164.82695 76.5376974 164.82695 158.720032 93.6549608 199.8112 22.4829712 158.720032 22.4829712 76.5376974"></polygon>
                    <polygon id="Polygon" opacity="0.1" points="120.962333 67.3051314 192.134323 108.396299 192.134323 190.578633 120.962333 231.669801 49.7903437 190.578633 49.7903437 108.396299"></polygon>
                </g>
                <g id="Group-4" style="mix-blend-mode: multiply;" transform="translate(879.000000, 231.072194) rotate(-30.000000) translate(-879.000000, -231.072194) translate(761.500000, 95.072194)" stroke="#3151B7">
                    <polygon id="Polygon" points="86.7233725 0 173.315183 49.9938051 173.315183 149.981415 86.7233725 199.97522 0.131562014 149.981415 0.131562014 49.9938051"></polygon>
                    <polygon id="Polygon" opacity="0.3" points="113.945847 43.1262247 200.537657 93.1200298 200.537657 193.10764 113.945847 243.101445 27.3540362 193.10764 27.3540362 93.1200298"></polygon>
                    <polygon id="Polygon" opacity="0.1" points="148.242067 71.6825533 234.833878 121.676358 234.833878 221.663969 148.242067 271.657774 61.650257 221.663969 61.650257 121.676358"></polygon>
                </g>
                <g id="Group-8" style="mix-blend-mode: multiply;" transform="translate(527.753758, 707.539457) rotate(-26.000000) translate(-527.753758, -707.539457) translate(431.753758, 616.039457)">
                    <path d="M104.33354,182.233411 C135.127301,182.233411 155.09513,166.847903 167.605095,140.112429 L137.77364,121.952485 C132.721538,136.329107 122.37676,148.183516 104.33354,148.183516 C82.9222539,148.183516 68.7282549,133.050229 68.7282549,105.305869 L68.7282549,77.0570666 C68.7282549,49.312707 82.9222539,34.17942 104.33354,34.17942 C122.37676,34.17942 131.278081,44.0160566 135.608454,58.6449007 L167.123943,41.4938421 C154.854554,13.2450396 135.127301,0.129524213 104.33354,0.129524213 C59.1052047,0.129524213 29.995478,32.9183128 29.995478,92.4425751 C29.995478,151.966837 59.1052047,182.233411 104.33354,182.233411 Z" id="Path" stroke="#3151B7" opacity="0.2"></path>
                    <path d="M74.3380625,182.233411 C105.131823,182.233411 125.099652,166.847903 137.609617,140.112429 L107.778162,121.952485 C102.72606,136.329107 92.3812816,148.183516 74.3380625,148.183516 C52.9267759,148.183516 38.7327769,133.050229 38.7327769,105.305869 L38.7327769,77.0570666 C38.7327769,49.312707 52.9267759,34.17942 74.3380625,34.17942 C92.3812816,34.17942 101.282603,44.0160566 105.612976,58.6449007 L137.128465,41.4938421 C124.859076,13.2450396 105.131823,0.129524213 74.3380625,0.129524213 C29.1097267,0.129524213 0,32.9183128 0,92.4425751 C0,151.966837 29.1097267,182.233411 74.3380625,182.233411 Z" id="Path" stroke="#2E3F8F" opacity="0.05"></path>
                    <path d="M127.767508,182.233411 C158.561268,182.233411 178.529097,166.847903 191.039062,140.112429 L161.207607,121.952485 C156.155506,136.329107 145.810727,148.183516 127.767508,148.183516 C106.356221,148.183516 92.1622221,133.050229 92.1622221,105.305869 L92.1622221,77.0570666 C92.1622221,49.312707 106.356221,34.17942 127.767508,34.17942 C145.810727,34.17942 154.712048,44.0160566 159.042421,58.6449007 L190.55791,41.4938421 C178.288521,13.2450396 158.561268,0.129524213 127.767508,0.129524213 C82.5391719,0.129524213 53.4294452,32.9183128 53.4294452,92.4425751 C53.4294452,151.966837 82.5391719,182.233411 127.767508,182.233411 Z" id="Path" stroke="#3151B7"></path>
                    <path d="M160.154694,121 L136.854368,121" id="Path-2" stroke="url(#linearGradient-1)"></path>
                    <path d="M191.013581,140.143842 L165.912488,139.467258" id="Path-2" stroke="url(#linearGradient-1)"></path>
                    <path d="M158.800067,59.0511523 L134.979651,58.9462374" id="Path-2" stroke="url(#linearGradient-1)"></path>
                    <path d="M189.732904,41.052336 L165.912488,40.9474211" id="Path-2" stroke="url(#linearGradient-1)"></path>
                </g>
                <g id="Group-8" style="mix-blend-mode: multiply;" transform="translate(1429.969288, 449.257406) rotate(34.000000) translate(-1429.969288, -449.257406) translate(1333.969288, 357.757406)">
                    <path d="M104.33354,182.233411 C135.127301,182.233411 155.09513,166.847903 167.605095,140.112429 L137.77364,121.952485 C132.721538,136.329107 122.37676,148.183516 104.33354,148.183516 C82.9222539,148.183516 68.7282549,133.050229 68.7282549,105.305869 L68.7282549,77.0570666 C68.7282549,49.312707 82.9222539,34.17942 104.33354,34.17942 C122.37676,34.17942 131.278081,44.0160566 135.608454,58.6449007 L167.123943,41.4938421 C154.854554,13.2450396 135.127301,0.129524213 104.33354,0.129524213 C59.1052047,0.129524213 29.995478,32.9183128 29.995478,92.4425751 C29.995478,151.966837 59.1052047,182.233411 104.33354,182.233411 Z" id="Path" stroke="#3151B7" opacity="0.2"></path>
                    <path d="M74.3380625,182.233411 C105.131823,182.233411 125.099652,166.847903 137.609617,140.112429 L107.778162,121.952485 C102.72606,136.329107 92.3812816,148.183516 74.3380625,148.183516 C52.9267759,148.183516 38.7327769,133.050229 38.7327769,105.305869 L38.7327769,77.0570666 C38.7327769,49.312707 52.9267759,34.17942 74.3380625,34.17942 C92.3812816,34.17942 101.282603,44.0160566 105.612976,58.6449007 L137.128465,41.4938421 C124.859076,13.2450396 105.131823,0.129524213 74.3380625,0.129524213 C29.1097267,0.129524213 0,32.9183128 0,92.4425751 C0,151.966837 29.1097267,182.233411 74.3380625,182.233411 Z" id="Path" stroke="#2E3F8F" opacity="0.05"></path>
                    <path d="M127.767508,182.233411 C158.561268,182.233411 178.529097,166.847903 191.039062,140.112429 L161.207607,121.952485 C156.155506,136.329107 145.810727,148.183516 127.767508,148.183516 C106.356221,148.183516 92.1622221,133.050229 92.1622221,105.305869 L92.1622221,77.0570666 C92.1622221,49.312707 106.356221,34.17942 127.767508,34.17942 C145.810727,34.17942 154.712048,44.0160566 159.042421,58.6449007 L190.55791,41.4938421 C178.288521,13.2450396 158.561268,0.129524213 127.767508,0.129524213 C82.5391719,0.129524213 53.4294452,32.9183128 53.4294452,92.4425751 C53.4294452,151.966837 82.5391719,182.233411 127.767508,182.233411 Z" id="Path" stroke="#3151B7"></path>
                    <path d="M160.154694,121 L136.854368,121" id="Path-2" stroke="url(#linearGradient-1)"></path>
                    <path d="M191.013581,140.143842 L165.912488,139.467258" id="Path-2" stroke="url(#linearGradient-1)"></path>
                    <path d="M158.800067,59.0511523 L134.979651,58.9462374" id="Path-2" stroke="url(#linearGradient-1)"></path>
                </g>
                <g id="Group-6" style="mix-blend-mode: multiply;" transform="translate(1385.500000, 233.101649) rotate(-191.000000) translate(-1385.500000, -233.101649) translate(1259.000000, 118.601649)" stroke="#3151B7">
                    <circle id="Oval" transform="translate(96.688622, 131.962210) rotate(104.000000) translate(-96.688622, -131.962210) " cx="96.6886223" cy="131.96221" r="79.6095553"></circle>
                    <circle id="Oval" opacity="0.2" transform="translate(126.128190, 114.273134) rotate(104.000000) translate(-126.128190, -114.273134) " cx="126.12819" cy="114.273134" r="79.6095553"></circle>
                    <circle id="Oval" opacity="0.1" transform="translate(155.567757, 96.584057) rotate(104.000000) translate(-155.567757, -96.584057) " cx="155.567757" cy="96.5840569" r="79.6095553"></circle>
                </g>
                <g id="Group-6" style="mix-blend-mode: multiply;" transform="translate(770.000000, 660.765659) rotate(-119.000000) translate(-770.000000, -660.765659) translate(643.500000, 546.265659)" stroke="#3151B7">
                    <circle id="Oval" transform="translate(96.688622, 131.962210) rotate(104.000000) translate(-96.688622, -131.962210) " cx="96.6886223" cy="131.96221" r="79.6095553"></circle>
                    <circle id="Oval" opacity="0.2" transform="translate(126.128190, 114.273134) rotate(104.000000) translate(-126.128190, -114.273134) " cx="126.12819" cy="114.273134" r="79.6095553"></circle>
                    <circle id="Oval" opacity="0.1" transform="translate(155.567757, 96.584057) rotate(104.000000) translate(-155.567757, -96.584057) " cx="155.567757" cy="96.5840569" r="79.6095553"></circle>
                </g>
            </g>
        </g>
    </g>
</svg>