<?xml version="1.0" encoding="UTF-8"?>
<svg width="1362px" height="357px" viewBox="0 0 1362 357" version="1.1" xmlns="http://www.w3.org/2000/svg" xmlns:xlink="http://www.w3.org/1999/xlink">
    <!-- Generator: Sketch 47 (45396) - http://www.bohemiancoding.com/sketch -->
    <title>Group 14</title>
    <desc>Created with Sketch.</desc>
    <defs></defs>
    <g id="Final" stroke="none" stroke-width="1" fill="none" fill-rule="evenodd">
        <g id="1440" transform="translate(-40.000000, -1695.000000)">
            <g id="Group-14" transform="translate(40.000000, 1695.000000)">
                <polygon id="Rectangle-16" fill="#3C6DF0" points="1033.2838 289.855979 1042.89015 308.437491 1023.16277 308.437491"></polygon>
                <polygon id="Rectangle-16" fill="#3151B7" transform="translate(289.718816, 254.825166) rotate(-25.000000) translate(-289.718816, -254.825166) " points="289.976154 245.53441 299.582505 264.115922 279.855128 264.115922"></polygon>
                <polygon id="Rectangle-16" fill="#3C6DF0" transform="translate(590.016188, 333.251444) rotate(-70.000000) translate(-590.016188, -333.251444) " points="590.273526 323.960688 599.879876 342.5422 580.152499 342.5422"></polygon>
                <polygon id="Rectangle-16" fill="#3151B7" opacity="0.7" transform="translate(1293.126742, 125.660159) rotate(45.000000) translate(-1293.126742, -125.660159) " points="1293.38408 116.369403 1302.99043 134.950915 1283.26305 134.950915"></polygon>
                <polygon id="Rectangle-16" fill="#3151B7" opacity="0.7" transform="translate(802.226177, 57.514496) rotate(-45.000000) translate(-802.226177, -57.514496) " points="802.483515 48.2237404 812.089865 66.8052523 792.362488 66.8052523"></polygon>
                <polygon id="Rectangle-16" fill="#BCC7E3" opacity="0.7" transform="translate(643.845687, 50.855184) rotate(45.000000) translate(-643.845687, -50.855184) " points="644.103025 41.564428 653.709375 60.1459399 633.981999 60.1459399"></polygon>
                <rect id="Rectangle-17-Copy" fill-opacity="0.3" fill="#2144A2" style="mix-blend-mode: multiply;" x="1132.89204" y="39.8630078" width="16.6904691" height="17.6514885"></rect>
                <rect id="Rectangle-17-Copy" fill="#BDCCF6" style="mix-blend-mode: multiply;" transform="translate(140.723301, 308.686465) rotate(80.000000) translate(-140.723301, -308.686465) " x="132.378066" y="299.860721" width="16.6904691" height="17.6514885"></rect>
                <rect id="Rectangle-17-Copy" fill="#3C6DF0" style="mix-blend-mode: multiply;" transform="translate(487.009411, 18.111982) rotate(80.000000) translate(-487.009411, -18.111982) " x="478.664176" y="9.28623748" width="16.6904691" height="17.6514885"></rect>
                <rect id="Rectangle-17-Copy" fill="#2144A2" style="mix-blend-mode: multiply;" transform="translate(1350.489849, 317.263235) rotate(-25.000000) translate(-1350.489849, -317.263235) " x="1342.14461" y="308.437491" width="16.6904691" height="17.6514885"></rect>
                <rect id="Rectangle-17-Copy" fill="#E8EDFD" style="mix-blend-mode: multiply;" transform="translate(898.094721, 334.314614) rotate(-25.000000) translate(-898.094721, -334.314614) " x="889.749487" y="325.48887" width="16.6904691" height="17.6514885"></rect>
                <rect id="Rectangle-17-Copy" fill="#2144A2" style="mix-blend-mode: multiply;" transform="translate(41.875776, 57.514496) rotate(-25.000000) translate(-41.875776, -57.514496) " x="33.5305417" y="48.6887521" width="16.6904691" height="17.6514885"></rect>
                <ellipse id="Oval-2" fill="#3C6DF0" style="mix-blend-mode: multiply;" cx="1325.03949" cy="18.1159216" rx="8.70323194" ry="9.20530721"></ellipse>
                <ellipse id="Oval-2" fill="#2144A2" style="mix-blend-mode: multiply;" cx="764.938569" cy="300.01029" rx="8.70323194" ry="9.20530721"></ellipse>
                <ellipse id="Oval-2" fill="#3C6DF0" style="mix-blend-mode: multiply;" opacity="0.3" cx="1200.28574" cy="251.06916" rx="8.70323194" ry="9.20530721"></ellipse>
                <ellipse id="Oval-2" fill="#3C6DF0" style="mix-blend-mode: multiply;" opacity="0.3" cx="964.793701" cy="9.70530721" rx="8.70323194" ry="9.20530721"></ellipse>
                <ellipse id="Oval-2" fill="#3C6DF0" style="mix-blend-mode: multiply;" opacity="0.3" cx="309.879273" cy="55.1941143" rx="8.70323194" ry="9.20530721"></ellipse>
                <ellipse id="Oval-2" fill="#1F419E" style="mix-blend-mode: multiply;" cx="1105.28574" cy="157.321229" rx="8.70323194" ry="9.20530721"></ellipse>
                <ellipse id="Oval-2" fill="#1F419E" style="mix-blend-mode: multiply;" cx="233.285736" cy="171.410614" rx="8.70323194" ry="9.20530721"></ellipse>
                <polygon id="Rectangle-16" fill="#C5D3FB" opacity="0.4" points="135.904065 111.274467 145.510416 129.855979 125.783039 129.855979"></polygon>
                <ellipse id="Oval-2" fill="#3C6DF0" style="mix-blend-mode: multiply;" cx="9.28573647" cy="201.514101" rx="8.70323194" ry="9.20530721"></ellipse>
                <ellipse id="Oval-2" fill="#E8EDFD" style="mix-blend-mode: multiply;" cx="396" cy="347.205709" rx="8.70323194" ry="9.20530721"></ellipse>
            </g>
        </g>
    </g>
</svg>