<?xml version="1.0" encoding="UTF-8"?>
<svg width="929px" height="484px" viewBox="0 0 929 484" version="1.1" xmlns="http://www.w3.org/2000/svg" xmlns:xlink="http://www.w3.org/1999/xlink">
    <!-- Generator: Sketch 52.4 (67378) - http://www.bohemiancoding.com/sketch -->
    <title>Group 6</title>
    <desc>Created with Sketch.</desc>
    <g id="Page-1" stroke="none" stroke-width="1" fill="none" fill-rule="evenodd">
        <g id="Elements_Motion-overview_v10" transform="translate(-352.000000, -1277.000000)">
            <g id="Group-6" transform="translate(352.000000, 1271.000000)">
                <text id="Productive-Copy" font-family="IBMPlexSans, IBM Plex Sans" font-size="14" font-weight="normal" line-spacing="24" fill="#252525">
                    <tspan x="0" y="14">Productive</tspan>
                </text>
                <text id="Expressive-Copy" font-family="IBMPlexSans, IBM Plex Sans" font-size="14" font-weight="normal" line-spacing="24" fill="#252525">
                    <tspan x="480" y="14">Expressive</tspan>
                </text>
                <g id="Group-3-Copy-3" transform="translate(481.000000, 40.000000)">
                    <polygon id="Rectangle-21-Copy-2" fill="#F3F3F3" points="0 0 448 0 448 450 0 450"></polygon>
                    <path d="M1.00223714,448 C175.303583,388.474874 131.389365,1 432.966443,1" id="expressive" stroke="#FA75A6" stroke-width="2"></path>
                    <polygon id="Rectangle-21" fill="#BEBEBE" points="0 0 1.00223714 0 1.00223714 450 0 450"></polygon>
                    <polygon id="Rectangle-21-Copy" fill="#BEBEBE" points="0 449 446.966443 449 446.966443 450 0 450"></polygon>
                </g>
                <g id="Group-3-Copy-4" transform="translate(0.000000, 40.000000)">
                    <polygon id="Rectangle-21" fill="#F3F3F3" points="0.997772829 0 448 0 448 450 0.997772829 450"></polygon>
                    <path d="M2.99331849,449 C49.8136209,357.824121 91.5261013,1 239.465479,1" id="expressive" stroke="#0530AD" stroke-width="2"></path>
                    <polygon id="Rectangle-21-Copy-3" fill="#BEBEBE" points="0 0 0.997772829 0 0.997772829 450 0 450"></polygon>
                    <polygon id="Rectangle-21-Copy" fill="#BEBEBE" points="2.99331849 449 448 449 448 450 2.99331849 450"></polygon>
                </g>
                <text id="time-copy" font-family="IBMPlexSans, IBM Plex Sans" font-size="14" font-weight="normal" fill="#6F6F6F">
                    <tspan x="411" y="477">time</tspan>
                </text>
                <text id="distance-copy" transform="translate(17.000000, 75.000000) rotate(90.000000) translate(-17.000000, -75.000000) " font-family="IBMPlexSans, IBM Plex Sans" font-size="14" font-weight="normal" fill="#6F6F6F">
                    <tspan x="-10" y="80">distance</tspan>
                </text>
                <text id="time-copy-3" font-family="IBMPlexSans, IBM Plex Sans" font-size="14" font-weight="normal" fill="#6F6F6F">
                    <tspan x="892" y="477">time</tspan>
                </text>
                <text id="distance-copy-3" transform="translate(497.000000, 75.000000) rotate(90.000000) translate(-497.000000, -75.000000) " font-family="IBMPlexSans, IBM Plex Sans" font-size="14" font-weight="normal" fill="#6F6F6F">
                    <tspan x="470" y="80">distance</tspan>
                </text>
            </g>
        </g>
    </g>
</svg>