<svg xmlns="http://www.w3.org/2000/svg" id="Layer_1" data-name="Layer 1" viewBox="0 0 132.12 78.04">
  <defs>
    <style>
      .cls-1{fill:#3c6df0;}
    </style>
  </defs>
  <path d="M73.34 78H53.22l-5.37-17.81H25.11L19.7 78H0L25.66 0h22.35zm-17.9-3h13.78L45.83 3h-18L4.11 75h13.37l5.36-17.8h27.27zm-8.45-28.66H25.83l9.13-31.43h2.78zm-17.18-3h13.18l-6.63-22.52zM94.11 78c-11.68 0-18.93-6.8-18.93-17.81 0-12.26 9.07-19 25.53-19h7.4v-2c0-5-2.48-7.37-7.79-7.37-5.75 0-8.61 2.88-10.85 6l-1 1.35-11.63-10.34.74-1.09c5.31-7.84 12.68-11.34 23.88-11.34 16.4 0 25.42 7.82 25.42 22v23.07h5.23v15.28h-10.25a11.77 11.77 0 0 1-11.13-7.44C107.96 74.9 102.11 78 94.11 78zm6.62-33.86c-10.28 0-22.53 2.78-22.53 16C78.18 69.49 84.11 75 94.11 75c8 0 13.5-3.63 15-10l.27-1.16h3.11l.2 1.26c.85 5.28 4.38 8.56 9.2 8.56h7.22v-9.19h-5.23V38.41c0-12.61-7.54-19-22.42-19-9.71 0-16 2.69-20.64 9L88 34.78a14.9 14.9 0 0 1 12.28-5.93c7 0 10.79 3.68 10.79 10.37v5h-10.35zM99.97 67c-5.64 0-8.86-2.69-8.86-7.45V58c0-2.35 1.05-7.8 10.79-7.8h9.21v8.12c0 5.36-4.29 8.68-11.14 8.68zm1.92-13.89c-5.17.04-7.78 1.65-7.78 4.89v1.6c0 1.92.61 4.48 5.87 4.48 2.44 0 8.11-.56 8.11-5.76v-5.17h-6.19z" class="cls-1"/>
</svg>
