<?xml version="1.0" encoding="UTF-8"?><svg width="928px" height="522px" viewBox="0 0 928 522" version="1.1" xmlns="http://www.w3.org/2000/svg" xmlns:xlink="http://www.w3.org/1999/xlink"><!--Generator: Sketch 50.2 (55047) - http://www.bohemiancoding.com/sketch--><title>Sizing alignment example comp</title><desc>Created with Sketch.</desc><defs/><g id="sizing-alignment-example-comp_svg__Desktop" stroke="none" stroke-width="1" fill="none" fill-rule="evenodd"><g id="sizing-alignment-example-comp_svg__Icons_Desktop_1312px" transform="translate(-347.000000, -16289.000000)"><g id="sizing-alignment-example-comp_svg__Sizing-alignment-example-comp" transform="translate(347.000000, 16289.000000)"><polygon id="sizing-alignment-example-comp_svg__Fill-1" fill="#000000" points="0 521.845379 928 521.845379 928 0 0 0"/><path d="M17,157 L911.008949,157" id="sizing-alignment-example-comp_svg__Path-4" stroke="#DCDCDC" opacity="0.25" stroke-linecap="square"/><path d="M17,180 L911.008949,180" id="sizing-alignment-example-comp_svg__Path-4" stroke="#DCDCDC" opacity="0.25" stroke-linecap="square"/><path d="M17,204 L911.008949,204" id="sizing-alignment-example-comp_svg__Path-4" stroke="#DCDCDC" opacity="0.25" stroke-linecap="square"/><path d="M17,305.400391 L911.008949,305.400391" id="sizing-alignment-example-comp_svg__Path-4" stroke="#DCDCDC" opacity="0.25" stroke-linecap="square"/><path d="M17,331.900391 L911.008949,331.900391" id="sizing-alignment-example-comp_svg__Path-4" stroke="#DCDCDC" opacity="0.25" stroke-linecap="square"/><path d="M17,358.400391 L911.008949,358.400391" id="sizing-alignment-example-comp_svg__Path-4" stroke="#DCDCDC" opacity="0.25" stroke-linecap="square"/><g id="sizing-alignment-example-comp_svg__Group-66" transform="translate(155.000000, 146.116706)" fill="#FFFFFF"><polygon id="sizing-alignment-example-comp_svg__Fill-2" points="0.9482656 212.834986 0.9482656 207.422637 8.52971627 207.422637 8.52971627 164.265483 0.9482656 164.265483 0.9482656 158.848806 22.6096416 158.848806 22.6096416 164.265483 15.0281909 164.265483 15.0281909 207.422637 22.6096416 207.422637 22.6096416 212.834986"/><path d="M40.9330635,207.111015 L56.9469408,207.111015 C62.5164875,207.111015 65.9207008,204.171363 65.9207008,198.759015 L65.9207008,196.130769 C65.9207008,190.714092 62.5164875,187.774131 56.9469408,187.774131 L40.9330635,187.774131 L40.9330635,207.111015 Z M40.9330635,182.206234 L55.8636555,182.206234 C60.9695115,182.206234 64.0647008,179.502534 64.0647008,174.703411 L64.0647008,172.075166 C64.0647008,167.280992 60.9695115,164.572344 55.8636555,164.572344 L40.9330635,164.572344 L40.9330635,182.206234 Z M34.4333515,158.848898 L56.6379168,158.848898 C65.5337248,158.848898 71.0268661,164.341031 71.0268661,172.773434 C71.0268661,180.814028 65.8439861,183.678534 62.2851061,184.216305 L62.2851061,184.683569 C66.1533195,184.914573 72.8841035,188.241086 72.8841035,197.21126 C72.8841035,206.105979 66.9272715,212.835079 58.9585355,212.835079 L34.4333515,212.835079 L34.4333515,158.848898 Z" id="sizing-alignment-example-comp_svg__Fill-3"/><polygon id="sizing-alignment-example-comp_svg__Fill-5" points="126.941619 167.35654 126.554643 167.35654 121.99043 176.407117 109.070505 199.920001 96.2272939 176.407117 91.6627712 167.436633 91.2757952 167.436633 91.2757952 212.834862 84.9319872 212.834862 84.9319872 158.848682 93.4423659 158.848682 108.915838 187.929772 109.225171 187.929772 124.775049 158.848682 133.285427 158.848682 133.285427 212.834862 126.941619 212.834862"/><path d="M172.398214,184.06524 L187.406758,184.06524 C192.512614,184.06524 195.529852,181.281137 195.529852,176.331414 L195.529852,172.306324 C195.529852,167.356602 192.512614,164.572499 187.406758,164.572499 L172.398214,164.572499 L172.398214,184.06524 Z M165.898502,212.834924 L165.898502,158.848744 L187.406758,158.848744 C197.076828,158.848744 202.492017,164.803811 202.492017,174.316705 C202.492017,183.833927 197.076828,189.788995 187.406758,189.788995 L172.398214,189.788995 L172.398214,212.834924 L165.898502,212.834924 Z" id="sizing-alignment-example-comp_svg__Fill-7"/><path d="M218.719675,212.834986 C214.464485,212.834986 212.143248,210.126338 212.143248,206.417602 L212.143248,155.602386 L218.332389,155.602386 L218.332389,207.422637 L224.212507,207.422637 L224.212507,212.834986 L218.719675,212.834986 Z" id="sizing-alignment-example-comp_svg__Fill-9"/><path d="M236.735929,189.246276 L236.735929,189.788995 L258.78459,189.788995 L258.78459,188.934869 C258.78459,181.899311 254.529401,177.180592 248.185902,177.180592 C241.454809,177.180592 236.735929,182.286173 236.735929,189.246276 M230.236526,192.879557 C230.236526,180.195699 237.354286,171.999557 248.185902,171.999557 C258.862233,171.999557 265.437422,180.195699 265.437422,191.48766 L265.437422,194.427311 L236.735929,194.427311 L236.735929,196.281834 C236.735929,203.166482 241.145785,208.347518 248.572878,208.347518 C253.600782,208.347518 257.468686,205.874821 259.558542,201.467817 L263.968398,204.638473 C261.414851,210.050821 255.689401,213.764505 248.185902,213.764505 C237.354286,213.764505 230.236526,205.563414 230.236526,192.879557" id="sizing-alignment-example-comp_svg__Fill-11"/><polygon id="sizing-alignment-example-comp_svg__Fill-13" points="269.753952 212.834986 284.530187 192.72407 270.372309 172.924251 277.644736 172.924251 287.779733 187.774038 288.012352 187.774038 298.533397 172.924251 305.418848 172.924251 291.338613 192.261754 305.727872 212.834986 298.687755 212.834986 288.088757 196.824615 287.856448 196.824615 276.407093 212.834986"/><polygon id="sizing-alignment-example-comp_svg__Fill-15" points="332.394849 212.834986 332.394849 207.110922 347.480417 207.110922 347.480417 164.728418 332.239254 173.778377 329.686945 168.828654 346.86206 158.848806 353.978582 158.848806 353.978582 207.110922 367.905078 207.110922 367.905078 212.834986"/><path d="M406.490452,196.749005 L406.490452,196.130831 C406.490452,188.859322 402.313215,184.759086 395.195146,184.759086 C388.077695,184.759086 383.900148,188.859322 383.900148,196.130831 L383.900148,196.749005 C383.900148,204.015567 388.077695,208.116421 395.195146,208.116421 C402.313215,208.116421 406.490452,204.015567 406.490452,196.749005 M377.169364,193.035322 C377.169364,177.024951 387.768362,164.496951 396.433098,158.848651 L404.78881,158.848651 C393.261194,167.281054 386.839743,174.316612 383.900148,186.849251 L384.286196,187.004799 C386.839743,182.593157 390.707956,179.266335 397.283764,179.266335 C406.567167,179.266335 413.221236,185.688357 413.221236,195.89488 C413.221236,206.493211 406.103167,213.764412 395.27186,213.764412 C384.054815,213.764412 377.169364,205.875037 377.169364,193.035322" id="sizing-alignment-example-comp_svg__Fill-17"/><path d="M452.735167,196.281803 L452.735167,189.477558 C452.735167,182.361597 448.402026,177.567423 441.43986,177.567423 C435.792671,177.567423 431.150196,180.813842 431.150196,185.226103 L431.150196,200.075889 C431.150196,205.256616 435.792671,208.196267 441.43986,208.196267 C448.402026,208.196267 452.735167,203.397764 452.735167,196.281803 Z M424.961055,172.924468 L431.150196,172.924468 L431.150196,179.421945 L431.45953,179.421945 C433.548148,174.396458 437.648671,171.999835 443.141503,171.999835 C453.122143,171.999835 459.387999,180.120213 459.387999,192.879526 C459.387999,205.643477 453.122143,213.764474 443.141503,213.764474 C437.648671,213.764474 433.857172,211.287138 431.45953,206.337416 L431.150196,206.337416 L431.150196,228.302545 L424.961055,228.302545 L424.961055,172.924468 Z" id="sizing-alignment-example-comp_svg__Fill-19"/><path d="M478.169079,212.834986 C473.91389,212.834986 471.592653,210.126338 471.592653,206.261744 L471.592653,178.341547 L465.016535,178.341547 L465.016535,172.924251 L468.730082,172.924251 C471.360343,172.924251 472.212247,171.999618 472.212247,169.29097 L472.212247,161.868551 L477.782103,161.868551 L477.782103,172.924251 L486.524791,172.924251 L486.524791,178.341547 L477.782103,178.341547 L477.782103,207.422637 L485.905197,207.422637 L485.905197,212.834986 L478.169079,212.834986 Z" id="sizing-alignment-example-comp_svg__Fill-21"/><path d="M568.753603,222.083261 C548.733241,222.083261 532.503449,205.858276 532.503449,185.843844 C532.503449,165.829721 548.733241,149.604736 568.753603,149.604736 C588.773966,149.604736 605.003758,165.829721 605.003758,185.843844 C605.003758,205.858276 588.773966,222.083261 568.753603,222.083261 M568.753603,143.564936 C545.396462,143.564936 526.461859,162.49393 526.461859,185.843844 C526.461859,209.194067 545.396462,228.123061 568.753603,228.123061 C592.110745,228.123061 611.045347,209.194067 611.045347,185.843844 C611.045347,162.49393 592.110745,143.564936 568.753603,143.564936" id="sizing-alignment-example-comp_svg__Fill-23"/><polygon id="sizing-alignment-example-comp_svg__Fill-25" points="589.899444 175.002417 585.639924 170.744159 562.711828 193.693295 551.86722 182.8519 547.6077 187.109849 562.712447 202.210121"/><polygon id="sizing-alignment-example-comp_svg__Fill-40" points="0.9482656 57.7279429 0.9482656 52.99036 7.5834656 52.99036 7.5834656 15.2223611 0.9482656 15.2223611 0.9482656 10.4847782 19.9063776 10.4847782 19.9063776 15.2223611 13.2711776 15.2223611 13.2711776 52.99036 19.9063776 52.99036 19.9063776 57.7279429"/><path d="M35.9356907,52.7214743 L49.950656,52.7214743 C54.8251307,52.7214743 57.803392,50.1498203 57.803392,45.4075987 L57.803392,43.1096236 C57.803392,38.3720406 54.8251307,35.8003866 49.950656,35.8003866 L35.9356907,35.8003866 L35.9356907,52.7214743 Z M35.9356907,30.9261188 L49.0028587,30.9261188 C53.47056,30.9261188 56.1797013,28.5573274 56.1797013,24.3621544 L56.1797013,22.0595406 C56.1797013,17.8646769 53.47056,15.4961947 49.0028587,15.4961947 L35.9356907,15.4961947 L35.9356907,30.9261188 Z M30.2489067,10.4846236 L49.680608,10.4846236 C57.4662187,10.4846236 62.2723307,15.2883842 62.2723307,22.6684376 C62.2723307,29.7086342 57.736576,32.2094719 54.622208,32.6860134 L54.622208,33.0917385 C58.0078613,33.2949103 63.8972587,36.2061117 63.8972587,44.0580679 C63.8972587,51.8388985 58.6837547,57.7277883 51.711072,57.7277883 L30.2489067,57.7277883 L30.2489067,10.4846236 Z" id="sizing-alignment-example-comp_svg__Fill-42"/><polygon id="sizing-alignment-example-comp_svg__Fill-44" points="111.199151 17.9308855 110.860431 17.9308855 106.86601 25.8487102 95.5592576 46.426581 84.3205589 25.8487102 80.3252096 17.996754 79.9880363 17.996754 79.9880363 57.7278192 74.4358123 57.7278192 74.4358123 10.4846545 81.8830123 10.4846545 95.4234603 35.9324637 95.6950549 35.9324637 109.302938 10.4846545 116.749828 10.4846545 116.749828 57.7278192 111.199151 57.7278192"/><path d="M150.967818,32.5492049 L164.10273,32.5492049 C168.571359,32.5492049 171.212138,30.1142357 171.212138,25.7826871 L171.212138,22.2625887 C171.212138,17.9310402 168.571359,15.496071 164.10273,15.496071 L150.967818,15.496071 L150.967818,32.5492049 Z M145.281343,57.7279738 L145.281343,10.4848091 L164.10273,10.4848091 C172.56578,10.4848091 177.304767,15.6989335 177.304767,24.0224833 C177.304767,32.3463423 172.56578,37.5604667 164.10273,37.5604667 L150.967818,37.5604667 L150.967818,57.7279738 L145.281343,57.7279738 Z" id="sizing-alignment-example-comp_svg__Fill-46"/><path d="M191.500166,57.7279429 C187.776102,57.7279429 185.745329,55.3591514 185.745329,52.1080934 L185.745329,7.64408389 L191.161446,7.64408389 L191.161446,52.99036 L196.306278,52.99036 L196.306278,57.7279429 L191.500166,57.7279429 Z" id="sizing-alignment-example-comp_svg__Fill-48"/><path d="M207.264071,37.0838015 L207.264071,37.5606523 L226.559666,37.5606523 L226.559666,36.8147613 C226.559666,30.6525018 222.835602,26.5281451 217.284925,26.5281451 C211.39429,26.5281451 207.264071,30.9920492 207.264071,37.0838015 M201.577597,40.2643525 C201.577597,29.1659769 207.805714,21.9887861 217.284925,21.9887861 C226.627101,21.9887861 232.381629,29.1659769 232.381629,39.0468679 L232.381629,41.6185219 L207.264071,41.6185219 L207.264071,43.2417316 C207.264071,49.2673063 211.122695,53.8020267 217.622098,53.8020267 C222.023602,53.8020267 225.408946,51.6360977 227.236797,47.776452 L231.095421,50.5556072 C228.861725,55.2931902 223.851453,58.5396096 217.284925,58.5396096 C207.805714,58.5396096 201.577597,51.3670575 201.577597,40.2643525" id="sizing-alignment-example-comp_svg__Fill-50"/><polygon id="sizing-alignment-example-comp_svg__Fill-52" points="236.154413 57.7279429 249.086093 40.1320898 236.696055 22.805277 243.059661 22.805277 251.928557 35.800232 252.131479 35.800232 261.339405 22.805277 267.365527 22.805277 255.042925 39.7263647 267.635575 57.7279429 261.474893 57.7279429 252.200151 43.7183659 251.997229 43.7183659 241.976375 57.7279429"/><polygon id="sizing-alignment-example-comp_svg__Fill-54" points="290.964722 57.7279429 290.964722 52.7216289 304.166759 52.7216289 304.166759 15.6280863 290.829234 23.5459109 288.595229 19.2143623 303.625117 10.4847782 309.854162 10.4847782 309.854162 52.7216289 322.040349 52.7216289 322.040349 57.7279429"/><path d="M333.527659,43.718304 L350.995712,43.718304 L350.995712,14.8824427 L350.656992,14.8824427 L333.527659,43.718304 Z M350.995712,57.727881 L350.995712,48.455887 L328.178667,48.455887 L328.178667,43.4446251 L347.948779,10.4847164 L356.411829,10.4847164 L356.411829,43.718304 L363.249952,43.718304 L363.249952,48.455887 L356.411829,48.455887 L356.411829,57.727881 L350.995712,57.727881 Z" id="sizing-alignment-example-comp_svg__Fill-56"/><path d="M396.266738,43.2417316 L396.266738,37.2866641 C396.266738,31.0628655 392.474002,26.8633632 386.381682,26.8633632 C381.438535,26.8633632 377.377298,29.7086961 377.377298,33.5637032 L377.377298,46.5589674 C377.377298,51.0936878 381.438535,53.6653418 386.381682,53.6653418 C392.474002,53.6653418 396.266738,49.4704781 396.266738,43.2417316 Z M371.960871,22.8051842 L377.377298,22.8051842 L377.377298,28.4912115 L377.647346,28.4912115 C379.475197,24.0885373 383.063463,21.9887861 387.870813,21.9887861 C396.604221,21.9887861 402.088701,29.0997992 402.088701,40.2643525 C402.088701,51.4332352 396.604221,58.5396096 387.870813,58.5396096 C383.063463,58.5396096 379.746482,56.3736807 377.647346,52.0421321 L377.377298,52.0421321 L377.377298,71.2658335 L371.960871,71.2658335 L371.960871,22.8051842 Z" id="sizing-alignment-example-comp_svg__Fill-58"/><path d="M418.519405,57.7279429 C414.795341,57.7279429 412.764567,55.3591514 412.764567,51.9757379 L412.764567,27.54286 L407.009421,27.54286 L407.009421,22.805277 L410.259277,22.805277 C412.561335,22.805277 413.305901,21.9888789 413.305901,19.6200874 L413.305901,13.12261 L418.180685,13.12261 L418.180685,22.805277 L425.830807,22.805277 L425.830807,27.54286 L418.180685,27.54286 L418.180685,52.99036 L425.289165,52.99036 L425.289165,57.7279429 L418.519405,57.7279429 Z" id="sizing-alignment-example-comp_svg__Fill-60"/><path d="M498.386023,63.0995023 C482.369981,63.0995023 469.386023,50.1197001 469.386023,34.1080923 C469.386023,18.0967937 482.369981,5.11668235 498.386023,5.11668235 C514.402066,5.11668235 527.386023,18.0967937 527.386023,34.1080923 C527.386023,50.1197001 514.402066,63.0995023 498.386023,63.0995023 M498.386023,0.284780687 C479.700434,0.284780687 464.55269,15.4280378 464.55269,34.1080923 C464.55269,52.7881468 479.700434,67.9314039 498.386023,67.9314039 C517.071613,67.9314039 532.219357,52.7881468 532.219357,34.1080923 C532.219357,15.4280378 517.071613,0.284780687 498.386023,0.284780687" id="sizing-alignment-example-comp_svg__Fill-62"/><polygon id="sizing-alignment-example-comp_svg__Fill-64" points="515.30269 25.4348211 511.895074 22.0282145 493.552535 40.3878945 484.876973 31.7145924 481.469357 35.1208898 493.552845 47.2011078"/></g></g></g></g></svg>