<?xml version="1.0" encoding="UTF-8"?>
<svg width="736px" height="251px" viewBox="0 0 736 251" version="1.1" xmlns="http://www.w3.org/2000/svg" xmlns:xlink="http://www.w3.org/1999/xlink">
    <!-- Generator: Sketch 52.5 (67469) - http://www.bohemiancoding.com/sketch -->
    <title>Ellipse</title>
    <desc>Created with Sketch.</desc>
    <defs>
        <rect id="path-1" x="287" y="108" width="224" height="64"></rect>
        <filter x="-4.5%" y="-12.5%" width="108.9%" height="131.2%" filterUnits="objectBoundingBox" id="filter-2">
            <feOffset dx="0" dy="2" in="SourceAlpha" result="shadowOffsetOuter1"></feOffset>
            <feGaussianBlur stdDeviation="3" in="shadowOffsetOuter1" result="shadowBlurOuter1"></feGaussianBlur>
            <feColorMatrix values="0 0 0 0 0   0 0 0 0 0   0 0 0 0 0  0 0 0 0.3 0" type="matrix" in="shadowBlurOuter1"></feColorMatrix>
        </filter>
        <filter x="-32.7%" y="-24.4%" width="165.3%" height="155.0%" filterUnits="objectBoundingBox" id="filter-3">
            <feOffset dx="0" dy="1" in="SourceAlpha" result="shadowOffsetOuter1"></feOffset>
            <feGaussianBlur stdDeviation="0.4" in="shadowOffsetOuter1" result="shadowBlurOuter1"></feGaussianBlur>
            <feColorMatrix values="0 0 0 0 0   0 0 0 0 0   0 0 0 0 0  0 0 0 0.5 0" type="matrix" in="shadowBlurOuter1" result="shadowMatrixOuter1"></feColorMatrix>
            <feMerge>
                <feMergeNode in="shadowMatrixOuter1"></feMergeNode>
                <feMergeNode in="SourceGraphic"></feMergeNode>
            </feMerge>
        </filter>
    </defs>
    <g id="Ellipse" stroke="none" stroke-width="1" fill="none" fill-rule="evenodd">
        <text id="Breadcrumb-4" font-family="IBMPlexSans, IBM Plex Sans" font-size="14" font-weight="normal" fill="#0062FF">
            <tspan x="344" y="94">Breadcrumb 4</tspan>
        </text>
        <text id="Breadcrumb-1-Copy-5" font-family="IBMPlexSans, IBM Plex Sans" font-size="14" font-weight="normal" fill="#0062FF">
            <tspan x="191" y="94">Breadcrumb 1</tspan>
        </text>
        <text id="/-copy-26" font-family="IBMPlexSans, IBM Plex Sans" font-size="14" font-weight="normal" fill="#171717">
            <tspan x="289" y="94">/</tspan>
        </text>
        <text id="/-copy-122" font-family="IBMPlexSans, IBM Plex Sans" font-size="14" font-weight="normal" fill="#171717">
            <tspan x="330" y="94">/</tspan>
        </text>
        <text id="Breadcrumb-5" font-family="IBMPlexSans, IBM Plex Sans" font-size="14" font-weight="normal" fill="#0062FF">
            <tspan x="456" y="94">Breadcrumb 5</tspan>
        </text>
        <text id="/-copy-122" font-family="IBMPlexSans, IBM Plex Sans" font-size="14" font-weight="normal" fill="#171717">
            <tspan x="442" y="94">/</tspan>
        </text>
        <text id=".-.-." font-family="IBMPlexSans, IBM Plex Sans" font-size="14" font-weight="normal" fill="#0062FF">
            <tspan x="303" y="94">. . .</tspan>
        </text>
        <g id="Rectangle-4-Copy-21">
            <use fill="black" fill-opacity="1" filter="url(#filter-2)" xlink:href="#path-1"></use>
            <use fill="#DCDCDC" fill-rule="evenodd" xlink:href="#path-1"></use>
        </g>
        <polygon id="Rectangle-Copy-35" fill="#F3F3F3" points="287 108 511 108 511 172 287 172"></polygon>
        <polygon id="Rectangle-Copy-71" fill="#F3F3F3" points="287 108 511 108 511 140 287 140"></polygon>
        <polygon id="Rectangle-Copy-77" fill="#F3F3F3" points="287 140 511 140 511 172 287 172"></polygon>
        <text id="Breadcrumb-2" font-family="IBMPlexSans, IBM Plex Sans" font-size="14" font-weight="normal" line-spacing="18" fill="#565656">
            <tspan x="303" y="129">Breadcrumb 2</tspan>
        </text>
        <text id="Breadcrumb-3" font-family="IBMPlexSans, IBM Plex Sans" font-size="14" font-weight="normal" line-spacing="18" fill="#565656">
            <tspan x="303" y="161">Breadcrumb 3</tspan>
        </text>
        <rect id="Rectangle-8-Copy-11" fill="#DCDCDC" x="303" y="139" width="192" height="1"></rect>
        <rect id="Rectangle-3-Copy-10" fill="#0062FF" x="303" y="99" width="19" height="1"></rect>
        <g id="Cursor/Hand/Pointing" transform="translate(304.000000, 87.000000)">
            <g id="pointing" filter="url(#filter-3)" transform="translate(9.000000, 8.000000)">
                <path d="M3.27,12.28 C2.99,11.92 2.64,11.19 2.03,10.28 C1.68,9.78 0.82,8.83 0.56,8.34 C0.372571391,8.04223059 0.318185191,7.67965592 0.41,7.34 C0.566959969,6.69420883 1.17956117,6.26581639 1.84,6.34 C2.3508012,6.44261082 2.82022287,6.69296904 3.19,7.06 C3.44818056,7.30317315 3.68566746,7.56741914 3.9,7.85 C4.06,8.05 4.1,8.13 4.28,8.36 C4.46,8.59 4.58,8.82 4.49,8.48 C4.42,7.98 4.3,7.14 4.13,6.39 C4,5.82 3.97,5.73 3.85,5.3 C3.73,4.87 3.66,4.51 3.53,4.02 C3.41116675,3.5385718 3.31770464,3.05123369 3.25,2.56 C3.12395297,1.93170405 3.21565432,1.27921373 3.51,0.71 C3.85939302,0.381369522 4.37193038,0.294632431 4.81,0.49 C5.25059657,0.815336248 5.57910137,1.2696514 5.75,1.79 C6.01206519,2.43038854 6.18696098,3.10306465 6.27,3.79 C6.43,4.79 6.74,6.25 6.75,6.55 C6.75,6.18 6.68,5.4 6.75,5.05 C6.81935301,4.68512412 7.07295842,4.3823117 7.42,4.25 C7.71780915,4.15862519 8.03284549,4.13807935 8.34,4.19 C8.65003669,4.25481591 8.92466387,4.43314524 9.11,4.69 C9.34168097,5.27339299 9.47025898,5.89259761 9.49,6.52 C9.51677857,5.97058648 9.61081334,5.42652817 9.77,4.9 C9.93710411,4.66454921 10.1811322,4.49479052 10.46,4.42 C10.7905931,4.35955512 11.1294069,4.35955512 11.46,4.42 C11.7310945,4.51063084 11.968241,4.68151586 12.14,4.91 C12.3517705,5.44034596 12.4799623,6.00034169 12.52,6.57 C12.52,6.71 12.59,6.18 12.81,5.83 C12.924325,5.49059769 13.2110346,5.23796868 13.5621281,5.16727587 C13.9132216,5.09658306 14.2753596,5.21856637 14.5121281,5.48727587 C14.7488967,5.75598537 14.824325,6.13059769 14.71,6.47 C14.71,7.12 14.71,7.09 14.71,7.53 C14.71,7.97 14.71,8.36 14.71,8.73 C14.6735613,9.31517926 14.5933368,9.89680669 14.47,10.47 C14.2959749,10.9771188 14.0537528,11.4581987 13.75,11.9 C13.2644478,12.4399641 12.8632544,13.0501826 12.56,13.71 C12.4847582,14.0378036 12.4511598,14.3737882 12.46,14.71 C12.4589965,15.020633 12.499351,15.3300173 12.58,15.63 C12.1711391,15.6732223 11.7588609,15.6732223 11.35,15.63 C10.96,15.57 10.48,14.79 10.35,14.55 C10.2856779,14.4211326 10.1540282,14.3397056 10.01,14.3397056 C9.86597177,14.3397056 9.73432211,14.4211326 9.67,14.55 C9.45,14.93 8.96,15.62 8.62,15.66 C7.95,15.74 6.57,15.66 5.48,15.66 C5.48,15.66 5.66,14.66 5.25,14.3 C4.84,13.94 4.42,13.52 4.11,13.24 L3.27,12.28 Z" id="Shape" fill="#FFFFFF" fill-rule="nonzero"></path>
                <path d="M3.27,12.28 C2.99,11.92 2.64,11.19 2.03,10.28 C1.68,9.78 0.82,8.83 0.56,8.34 C0.372571391,8.04223059 0.318185191,7.67965592 0.41,7.34 C0.566959969,6.69420883 1.17956117,6.26581639 1.84,6.34 C2.3508012,6.44261082 2.82022287,6.69296904 3.19,7.06 C3.44818056,7.30317315 3.68566746,7.56741914 3.9,7.85 C4.06,8.05 4.1,8.13 4.28,8.36 C4.46,8.59 4.58,8.82 4.49,8.48 C4.42,7.98 4.3,7.14 4.13,6.39 C4,5.82 3.97,5.73 3.85,5.3 C3.73,4.87 3.66,4.51 3.53,4.02 C3.41116675,3.5385718 3.31770464,3.05123369 3.25,2.56 C3.12395297,1.93170405 3.21565432,1.27921373 3.51,0.71 C3.85939302,0.381369522 4.37193038,0.294632431 4.81,0.49 C5.25059657,0.815336248 5.57910137,1.2696514 5.75,1.79 C6.01206519,2.43038854 6.18696098,3.10306465 6.27,3.79 C6.43,4.79 6.74,6.25 6.75,6.55 C6.75,6.18 6.68,5.4 6.75,5.05 C6.81935301,4.68512412 7.07295842,4.3823117 7.42,4.25 C7.71780915,4.15862519 8.03284549,4.13807935 8.34,4.19 C8.65003669,4.25481591 8.92466387,4.43314524 9.11,4.69 C9.34168097,5.27339299 9.47025898,5.89259761 9.49,6.52 C9.51677857,5.97058648 9.61081334,5.42652817 9.77,4.9 C9.93710411,4.66454921 10.1811322,4.49479052 10.46,4.42 C10.7905931,4.35955512 11.1294069,4.35955512 11.46,4.42 C11.7310945,4.51063084 11.968241,4.68151586 12.14,4.91 C12.3517705,5.44034596 12.4799623,6.00034169 12.52,6.57 C12.52,6.71 12.59,6.18 12.81,5.83 C12.924325,5.49059769 13.2110346,5.23796868 13.5621281,5.16727587 C13.9132216,5.09658306 14.2753596,5.21856637 14.5121281,5.48727587 C14.7488967,5.75598537 14.824325,6.13059769 14.71,6.47 C14.71,7.12 14.71,7.09 14.71,7.53 C14.71,7.97 14.71,8.36 14.71,8.73 C14.6735613,9.31517926 14.5933368,9.89680669 14.47,10.47 C14.2959749,10.9771188 14.0537528,11.4581987 13.75,11.9 C13.2644478,12.4399641 12.8632544,13.0501826 12.56,13.71 C12.4847582,14.0378036 12.4511598,14.3737882 12.46,14.71 C12.4589965,15.020633 12.499351,15.3300173 12.58,15.63 C12.1711391,15.6732223 11.7588609,15.6732223 11.35,15.63 C10.96,15.57 10.48,14.79 10.35,14.55 C10.2856779,14.4211326 10.1540282,14.3397056 10.01,14.3397056 C9.86597177,14.3397056 9.73432211,14.4211326 9.67,14.55 C9.45,14.93 8.96,15.62 8.62,15.66 C7.95,15.74 6.57,15.66 5.48,15.66 C5.48,15.66 5.66,14.66 5.25,14.3 C4.84,13.94 4.42,13.52 4.11,13.24 L3.27,12.28 Z" id="Shape" stroke="#000000" stroke-width="0.75" stroke-linecap="round" stroke-linejoin="round"></path>
                <path d="M11.75,12.8258906 L11.75,9.37410925 C11.75,9.16749441 11.5821068,9 11.375,9 C11.1678932,9 11,9.16749441 11,9.37410925 L11,12.8258906 C11,13.0325054 11.1678932,13.1999998 11.375,13.1999998 C11.5821068,13.1999998 11.75,13.0325054 11.75,12.8258906 Z" id="Shape" fill="#000000" fill-rule="nonzero"></path>
                <path d="M9.76999391,12.8246259 L9.74999391,9.37107174 C9.74880023,9.16494995 9.57994213,8.99881831 9.37283879,9.00000633 C9.16573545,9.00119435 8.99881268,9.16925216 9.00000636,9.37537395 L9.02000636,12.8289281 C9.02120004,13.0350499 9.19005814,13.2011815 9.39716148,13.1999935 C9.60426482,13.1988055 9.77118758,13.0307477 9.76999391,12.8246259 Z" id="Shape" fill="#000000" fill-rule="nonzero"></path>
                <path d="M7.00000651,9.37899137 L7.02000651,12.8254025 C7.02121411,13.0334966 7.19008343,13.2012066 7.39718669,13.1999933 C7.60428995,13.1987799 7.77120136,13.0291026 7.76999376,12.8210084 L7.74999376,9.37459734 C7.74878616,9.16650318 7.57991685,8.99879317 7.37281359,9.00000654 C7.16571032,9.00121992 6.99879891,9.17089721 7.00000651,9.37899137 Z" id="Shape" fill="#000000" fill-rule="nonzero"></path>
            </g>
        </g>
    </g>
</svg>