<?xml version="1.0" encoding="UTF-8"?>
<svg width="320px" height="320px" viewBox="0 0 320 320" version="1.1" xmlns="http://www.w3.org/2000/svg" xmlns:xlink="http://www.w3.org/1999/xlink">
    <!-- Generator: Sketch 52.5 (67469) - http://www.bohemiancoding.com/sketch -->
    <title>Artboard</title>
    <desc>Created with Sketch.</desc>
    <defs>
        <polygon id="path-1" points="5 0 10 5 9.293 5.707 5 1.414 0.707 5.707 0 5"></polygon>
        <polygon id="path-3" points="5 0 10 5 9.293 5.707 5 1.414 0.707 5.707 0 5"></polygon>
        <polygon id="path-5" points="5 0 10 5 9.293 5.707 5 1.414 0.707 5.707 0 5"></polygon>
        <polygon id="path-7" points="5 0 10 5 9.293 5.707 5 1.414 0.707 5.707 0 5"></polygon>
    </defs>
    <g id="Artboard" stroke="none" stroke-width="1" fill="none" fill-rule="evenodd">
        <g id="Accordion" transform="translate(52.000000, 102.000000)">
            <g id="Group-7">
                <rect id="Rectangle-6-Copy-8" fill="#CACACA" x="16" y="67" width="94" height="12"></rect>
                <rect id="Rectangle-6-Copy-9" fill="#CACACA" x="16" y="96" width="133" height="12"></rect>
                <g id="color/gray/20" transform="translate(108.000000, 58.500000) scale(1, -1) translate(-108.000000, -58.500000) translate(0.000000, 58.000000)" fill="#DCDCDC">
                    <rect x="0" y="0" width="216" height="1"></rect>
                </g>
                <g id="color/gray/20" transform="translate(108.000000, 87.500000) scale(1, -1) translate(-108.000000, -87.500000) translate(0.000000, 87.000000)" fill="#DCDCDC">
                    <rect x="0" y="0" width="216" height="1"></rect>
                </g>
                <g id="color/gray/20" transform="translate(108.000000, 116.500000) scale(1, -1) translate(-108.000000, -116.500000) translate(0.000000, 116.000000)" fill="#DCDCDC">
                    <rect x="0" y="0" width="216" height="1"></rect>
                </g>
                <g id="icon/navigation/chevron/up/16" transform="translate(192.000000, 74.000000) scale(1, -1) translate(-192.000000, -74.000000) translate(184.000000, 66.000000)">
                    <g id="Group">
                        <g id="chevron--up" transform="translate(3.000000, 5.000000)">
                            <mask id="mask-2" fill="white">
                                <use xlink:href="#path-1"></use>
                            </mask>
                            <use id="Mask" fill="#000000" fill-rule="nonzero" xlink:href="#path-1"></use>
                            <g id="color/black" mask="url(#mask-2)" fill="#000000">
                                <g transform="translate(-3.000000, -5.000000)">
                                    <rect x="0" y="0" width="40" height="40"></rect>
                                </g>
                            </g>
                        </g>
                        <rect id="transparent-rectangle" transform="translate(8.000000, 8.000000) rotate(-90.000000) translate(-8.000000, -8.000000) " x="0" y="0" width="16" height="16"></rect>
                    </g>
                </g>
                <g id="icon/navigation/chevron/up/16" transform="translate(192.000000, 103.000000) scale(1, -1) translate(-192.000000, -103.000000) translate(184.000000, 95.000000)">
                    <g id="Group">
                        <g id="chevron--up" transform="translate(3.000000, 5.000000)">
                            <mask id="mask-4" fill="white">
                                <use xlink:href="#path-3"></use>
                            </mask>
                            <use id="Mask" fill="#000000" fill-rule="nonzero" xlink:href="#path-3"></use>
                            <g id="color/black" mask="url(#mask-4)" fill="#000000">
                                <g transform="translate(-3.000000, -5.000000)">
                                    <rect x="0" y="0" width="40" height="40"></rect>
                                </g>
                            </g>
                        </g>
                        <rect id="transparent-rectangle" transform="translate(8.000000, 8.000000) rotate(-90.000000) translate(-8.000000, -8.000000) " x="0" y="0" width="16" height="16"></rect>
                    </g>
                </g>
                <rect id="Rectangle-6-Copy-8" fill="#CACACA" x="16" y="9" width="94" height="12"></rect>
                <rect id="Rectangle-6-Copy-9" fill="#CACACA" x="16" y="38" width="133" height="12"></rect>
                <g id="color/gray/20" transform="translate(108.000000, 0.500000) scale(1, -1) translate(-108.000000, -0.500000) " fill="#DCDCDC">
                    <rect x="0" y="0" width="216" height="1"></rect>
                </g>
                <g id="color/gray/20" transform="translate(108.000000, 29.500000) scale(1, -1) translate(-108.000000, -29.500000) translate(0.000000, 29.000000)" fill="#DCDCDC">
                    <rect x="0" y="0" width="216" height="1"></rect>
                </g>
                <g id="color/gray/20" transform="translate(108.000000, 58.500000) scale(1, -1) translate(-108.000000, -58.500000) translate(0.000000, 58.000000)" fill="#DCDCDC">
                    <rect x="0" y="0" width="216" height="1"></rect>
                </g>
                <g id="icon/navigation/chevron/up/16" transform="translate(192.000000, 16.000000) scale(1, -1) translate(-192.000000, -16.000000) translate(184.000000, 8.000000)">
                    <g id="Group">
                        <g id="chevron--up" transform="translate(3.000000, 5.000000)">
                            <mask id="mask-6" fill="white">
                                <use xlink:href="#path-5"></use>
                            </mask>
                            <use id="Mask" fill="#000000" fill-rule="nonzero" xlink:href="#path-5"></use>
                            <g id="color/black" mask="url(#mask-6)" fill="#000000">
                                <g transform="translate(-3.000000, -5.000000)">
                                    <rect x="0" y="0" width="40" height="40"></rect>
                                </g>
                            </g>
                        </g>
                        <rect id="transparent-rectangle" transform="translate(8.000000, 8.000000) rotate(-90.000000) translate(-8.000000, -8.000000) " x="0" y="0" width="16" height="16"></rect>
                    </g>
                </g>
                <g id="icon/navigation/chevron/up/16" transform="translate(192.000000, 45.000000) scale(1, -1) translate(-192.000000, -45.000000) translate(184.000000, 37.000000)">
                    <g id="Group">
                        <g id="chevron--up" transform="translate(3.000000, 5.000000)">
                            <mask id="mask-8" fill="white">
                                <use xlink:href="#path-7"></use>
                            </mask>
                            <use id="Mask" fill="#000000" fill-rule="nonzero" xlink:href="#path-7"></use>
                            <g id="color/black" mask="url(#mask-8)" fill="#000000">
                                <g transform="translate(-3.000000, -5.000000)">
                                    <rect x="0" y="0" width="40" height="40"></rect>
                                </g>
                            </g>
                        </g>
                        <rect id="transparent-rectangle" transform="translate(8.000000, 8.000000) rotate(-90.000000) translate(-8.000000, -8.000000) " x="0" y="0" width="16" height="16"></rect>
                    </g>
                </g>
            </g>
        </g>
    </g>
</svg>