<?xml version="1.0" encoding="UTF-8" standalone="no"?>
<svg width="258px" height="165px" viewBox="0 0 258 165" version="1.1" xmlns="http://www.w3.org/2000/svg" xmlns:xlink="http://www.w3.org/1999/xlink">
    <!-- Generator: Sketch 50.2 (55047) - http://www.bohemiancoding.com/sketch -->
    <title>Breadcrumb</title>
    <desc>Created with Sketch.</desc>
    <defs></defs>
    <g id="Breadcrumb" stroke="none" stroke-width="1" fill="none" fill-rule="evenodd">
        <path d="M25.568,85.824 C26.96,85.824 27.98,85.092 28.508,83.916 L27.704,83.412 C27.368,84.324 26.636,84.924 25.568,84.924 C24.128,84.924 23.276,83.88 23.276,82.164 L23.276,80.916 C23.276,79.2 24.128,78.06 25.568,78.06 C26.6,78.06 27.296,78.624 27.632,79.488 L28.448,78.996 C27.92,77.832 26.96,77.16 25.568,77.16 C23.456,77.16 22.196,78.744 22.196,81.54 C22.196,84.336 23.456,85.824 25.568,85.824 Z M30.932,85.68 L30.932,81.48 C30.932,80.892 31.556,80.448 32.588,80.448 L33.152,80.448 L33.152,79.488 L32.78,79.488 C31.772,79.488 31.208,80.04 30.992,80.628 L30.932,80.628 L30.932,79.488 L29.972,79.488 L29.972,85.68 L30.932,85.68 Z M38.192,85.68 L39.152,85.68 L39.152,79.488 L38.192,79.488 L38.192,83.772 C38.192,84.588 37.448,84.96 36.692,84.96 C35.768,84.96 35.276,84.396 35.276,83.292 L35.276,79.488 L34.316,79.488 L34.316,83.46 C34.316,84.96 35.132,85.824 36.404,85.824 C37.436,85.824 37.904,85.26 38.144,84.672 L38.192,84.672 L38.192,85.68 Z M42.152,85.68 L42.152,81.384 C42.152,80.592 42.872,80.208 43.628,80.208 C44.54,80.208 44.96,80.772 44.96,81.876 L44.96,85.68 L45.92,85.68 L45.92,81.384 C45.92,80.592 46.616,80.208 47.372,80.208 C48.308,80.208 48.728,80.784 48.728,81.876 L48.728,85.68 L49.688,85.68 L49.688,81.708 C49.688,80.208 48.932,79.344 47.672,79.344 C46.616,79.344 46.016,79.932 45.788,80.604 L45.764,80.604 C45.428,79.716 44.684,79.344 43.868,79.344 C42.908,79.344 42.476,79.86 42.2,80.496 L42.152,80.496 L42.152,79.488 L41.192,79.488 L41.192,85.68 L42.152,85.68 Z M51.668,85.68 L51.668,76.8 L52.628,76.8 L52.628,80.496 L52.676,80.496 C53,79.716 53.636,79.344 54.488,79.344 C56.036,79.344 57.008,80.604 57.008,82.584 C57.008,84.564 56.036,85.824 54.488,85.824 C53.636,85.824 53.048,85.44 52.676,84.672 L52.628,84.672 L52.628,85.68 L51.668,85.68 Z M54.224,84.96 C55.304,84.96 55.976,84.216 55.976,83.112 L55.976,82.056 C55.976,80.952 55.304,80.208 54.224,80.208 C53.348,80.208 52.628,80.712 52.628,81.396 L52.628,83.7 C52.628,84.504 53.348,84.96 54.224,84.96 Z M67.004,85.68 L67.004,84.792 L64.844,84.792 L64.844,77.304 L63.74,77.304 L61.076,78.852 L61.472,79.62 L63.836,78.216 L63.836,84.792 L61.496,84.792 L61.496,85.68 L67.004,85.68 Z M82.772,87.492 L85.904,76.8 L85.04,76.8 L81.908,87.492 L82.772,87.492 Z M104.624,85.824 C106.016,85.824 107.036,85.092 107.564,83.916 L106.76,83.412 C106.424,84.324 105.692,84.924 104.624,84.924 C103.184,84.924 102.332,83.88 102.332,82.164 L102.332,80.916 C102.332,79.2 103.184,78.06 104.624,78.06 C105.656,78.06 106.352,78.624 106.688,79.488 L107.504,78.996 C106.976,77.832 106.016,77.16 104.624,77.16 C102.512,77.16 101.252,78.744 101.252,81.54 C101.252,84.336 102.512,85.824 104.624,85.824 Z M109.988,85.68 L109.988,81.48 C109.988,80.892 110.612,80.448 111.644,80.448 L112.208,80.448 L112.208,79.488 L111.836,79.488 C110.828,79.488 110.264,80.04 110.048,80.628 L109.988,80.628 L109.988,79.488 L109.028,79.488 L109.028,85.68 L109.988,85.68 Z M117.248,85.68 L118.208,85.68 L118.208,79.488 L117.248,79.488 L117.248,83.772 C117.248,84.588 116.504,84.96 115.748,84.96 C114.824,84.96 114.332,84.396 114.332,83.292 L114.332,79.488 L113.372,79.488 L113.372,83.46 C113.372,84.96 114.188,85.824 115.46,85.824 C116.492,85.824 116.96,85.26 117.2,84.672 L117.248,84.672 L117.248,85.68 Z M121.208,85.68 L121.208,81.384 C121.208,80.592 121.928,80.208 122.684,80.208 C123.596,80.208 124.016,80.772 124.016,81.876 L124.016,85.68 L124.976,85.68 L124.976,81.384 C124.976,80.592 125.672,80.208 126.428,80.208 C127.364,80.208 127.784,80.784 127.784,81.876 L127.784,85.68 L128.744,85.68 L128.744,81.708 C128.744,80.208 127.988,79.344 126.728,79.344 C125.672,79.344 125.072,79.932 124.844,80.604 L124.82,80.604 C124.484,79.716 123.74,79.344 122.924,79.344 C121.964,79.344 121.532,79.86 121.256,80.496 L121.208,80.496 L121.208,79.488 L120.248,79.488 L120.248,85.68 L121.208,85.68 Z M130.724,85.68 L130.724,76.8 L131.684,76.8 L131.684,80.496 L131.732,80.496 C132.056,79.716 132.692,79.344 133.544,79.344 C135.092,79.344 136.064,80.604 136.064,82.584 C136.064,84.564 135.092,85.824 133.544,85.824 C132.692,85.824 132.104,85.44 131.732,84.672 L131.684,84.672 L131.684,85.68 L130.724,85.68 Z M133.28,84.96 C134.36,84.96 135.032,84.216 135.032,83.112 L135.032,82.056 C135.032,80.952 134.36,80.208 133.28,80.208 C132.404,80.208 131.684,80.712 131.684,81.396 L131.684,83.7 C131.684,84.504 132.404,84.96 133.28,84.96 Z M145.892,84.792 L141.488,84.792 L143.744,82.764 C144.812,81.804 145.58,80.892 145.58,79.596 C145.58,78.168 144.644,77.16 143.012,77.16 C141.392,77.16 140.648,78.144 140.324,79.128 L141.224,79.476 C141.452,78.684 141.932,78.06 142.964,78.06 C143.996,78.06 144.512,78.696 144.512,79.62 L144.512,79.764 C144.512,80.568 143.912,81.408 143.132,82.128 L140.396,84.648 L140.396,85.68 L145.892,85.68 L145.892,84.792 Z M158.996,87.492 L162.128,76.8 L161.264,76.8 L158.132,87.492 L158.996,87.492 Z M180.848,85.824 C182.24,85.824 183.26,85.092 183.788,83.916 L182.984,83.412 C182.648,84.324 181.916,84.924 180.848,84.924 C179.408,84.924 178.556,83.88 178.556,82.164 L178.556,80.916 C178.556,79.2 179.408,78.06 180.848,78.06 C181.88,78.06 182.576,78.624 182.912,79.488 L183.728,78.996 C183.2,77.832 182.24,77.16 180.848,77.16 C178.736,77.16 177.476,78.744 177.476,81.54 C177.476,84.336 178.736,85.824 180.848,85.824 Z M186.212,85.68 L186.212,81.48 C186.212,80.892 186.836,80.448 187.868,80.448 L188.432,80.448 L188.432,79.488 L188.06,79.488 C187.052,79.488 186.488,80.04 186.272,80.628 L186.212,80.628 L186.212,79.488 L185.252,79.488 L185.252,85.68 L186.212,85.68 Z M193.472,85.68 L194.432,85.68 L194.432,79.488 L193.472,79.488 L193.472,83.772 C193.472,84.588 192.728,84.96 191.972,84.96 C191.048,84.96 190.556,84.396 190.556,83.292 L190.556,79.488 L189.596,79.488 L189.596,83.46 C189.596,84.96 190.412,85.824 191.684,85.824 C192.716,85.824 193.184,85.26 193.424,84.672 L193.472,84.672 L193.472,85.68 Z M197.432,85.68 L197.432,81.384 C197.432,80.592 198.152,80.208 198.908,80.208 C199.82,80.208 200.24,80.772 200.24,81.876 L200.24,85.68 L201.2,85.68 L201.2,81.384 C201.2,80.592 201.896,80.208 202.652,80.208 C203.588,80.208 204.008,80.784 204.008,81.876 L204.008,85.68 L204.968,85.68 L204.968,81.708 C204.968,80.208 204.212,79.344 202.952,79.344 C201.896,79.344 201.296,79.932 201.068,80.604 L201.044,80.604 C200.708,79.716 199.964,79.344 199.148,79.344 C198.188,79.344 197.756,79.86 197.48,80.496 L197.432,80.496 L197.432,79.488 L196.472,79.488 L196.472,85.68 L197.432,85.68 Z M206.948,85.68 L206.948,76.8 L207.908,76.8 L207.908,80.496 L207.956,80.496 C208.28,79.716 208.916,79.344 209.768,79.344 C211.316,79.344 212.288,80.604 212.288,82.584 C212.288,84.564 211.316,85.824 209.768,85.824 C208.916,85.824 208.328,85.44 207.956,84.672 L207.908,84.672 L207.908,85.68 L206.948,85.68 Z M209.504,84.96 C210.584,84.96 211.256,84.216 211.256,83.112 L211.256,82.056 C211.256,80.952 210.584,80.208 209.504,80.208 C208.628,80.208 207.908,80.712 207.908,81.396 L207.908,83.7 C207.908,84.504 208.628,84.96 209.504,84.96 Z M217.94,80.856 L217.94,81.732 L218.924,81.732 C220.1,81.732 220.724,82.296 220.724,83.28 L220.724,83.376 C220.724,84.36 220.1,84.924 218.924,84.924 C217.904,84.924 217.412,84.48 216.98,83.82 L216.224,84.396 C216.74,85.116 217.484,85.824 218.936,85.824 C220.64,85.824 221.78,84.828 221.78,83.388 C221.78,82.128 220.916,81.456 220.016,81.276 L220.016,81.228 C220.904,81 221.624,80.352 221.624,79.272 C221.624,77.916 220.496,77.16 219.08,77.16 C217.736,77.16 217.004,77.856 216.584,78.528 L217.328,79.104 C217.676,78.468 218.192,78.06 219.056,78.06 C219.944,78.06 220.556,78.504 220.556,79.38 L220.556,79.464 C220.556,80.268 219.98,80.856 218.852,80.856 L217.94,80.856 Z M232.388,87.492 L235.52,76.8 L234.656,76.8 L231.524,87.492 L232.388,87.492 Z" id="Crumb-1-/-Crumb-2-/" fill="#3D70B2"></path>
    </g>
</svg>