<?xml version="1.0" encoding="UTF-8" standalone="no"?>
<svg width="258px" height="165px" viewBox="0 0 258 165" version="1.1" xmlns="http://www.w3.org/2000/svg" xmlns:xlink="http://www.w3.org/1999/xlink">
    <!-- Generator: Sketch 50.2 (55047) - http://www.bohemiancoding.com/sketch -->
    <title>Button</title>
    <desc>Created with Sketch.</desc>
    <defs></defs>
    <g id="Button" stroke="none" stroke-width="1" fill="none" fill-rule="evenodd">
        <g id="Primary-Button---Normal" transform="translate(90.712891, 62.500000)">
            <polygon id="Fill-23-Copy-9" fill="#3D70B2" points="76.4449403 40 0 40 0 0 76.4449403 0"></polygon>
            <path d="M17.148,23.92875 L17.148,14.15675 L21.67,14.15675 C23.28,14.15675 24.26,15.15075 24.26,16.66275 C24.26,18.14675 23.406,18.70675 22.51,18.76275 L22.51,18.84675 C23.364,18.86075 24.624,19.46275 24.624,21.12875 C24.624,22.69675 23.546,23.92875 22.104,23.92875 L17.148,23.92875 Z M18.996,19.74275 L18.996,22.36075 L21.572,22.36075 C22.272,22.36075 22.692,21.98275 22.692,21.29675 L22.692,20.82075 C22.692,20.13475 22.272,19.74275 21.572,19.74275 L18.996,19.74275 Z M18.996,15.72475 L18.996,18.23075 L21.278,18.23075 C21.95,18.23075 22.342,17.83875 22.342,17.19475 L22.342,16.76075 C22.342,16.10275 21.95,15.72475 21.278,15.72475 L18.996,15.72475 Z M30.7093333,23.92875 L32.5013333,23.92875 L32.5013333,16.62075 L30.7093333,16.62075 L30.7093333,21.45075 C30.7093333,22.23475 29.9953333,22.61275 29.2813333,22.61275 C28.4273333,22.61275 28.0493333,22.06675 28.0493333,21.05875 L28.0493333,16.62075 L26.2573333,16.62075 L26.2573333,21.24075 C26.2573333,23.06075 27.0973333,24.09675 28.5953333,24.09675 C29.7993333,24.09675 30.3873333,23.43875 30.6393333,22.71075 L30.7093333,22.71075 L30.7093333,23.92875 Z M38.1666667,23.92875 L38.1666667,22.50075 L36.7806667,22.50075 L36.7806667,18.03475 L38.2786667,18.03475 L38.2786667,16.62075 L36.7806667,16.62075 L36.7806667,14.61875 L35.1706667,14.61875 L35.1706667,15.86475 C35.1706667,16.36875 35.0026667,16.62075 34.4706667,16.62075 L33.9106667,16.62075 L33.9106667,18.03475 L34.9886667,18.03475 L34.9886667,22.06675 C34.9886667,23.25675 35.6466667,23.92875 36.8786667,23.92875 L38.1666667,23.92875 Z M43.342,23.92875 L43.342,22.50075 L41.956,22.50075 L41.956,18.03475 L43.454,18.03475 L43.454,16.62075 L41.956,16.62075 L41.956,14.61875 L40.346,14.61875 L40.346,15.86475 C40.346,16.36875 40.178,16.62075 39.646,16.62075 L39.086,16.62075 L39.086,18.03475 L40.164,18.03475 L40.164,22.06675 C40.164,23.25675 40.822,23.92875 42.054,23.92875 L43.342,23.92875 Z M47.8733333,24.09675 C45.7873333,24.09675 44.4853333,22.61275 44.4853333,20.26075 C44.4853333,17.92275 45.7873333,16.45275 47.8733333,16.45275 C49.9733333,16.45275 51.2753333,17.92275 51.2753333,20.26075 C51.2753333,22.61275 49.9733333,24.09675 47.8733333,24.09675 Z M47.8733333,22.65475 C48.8113333,22.65475 49.3993333,22.05275 49.3993333,20.94675 L49.3993333,19.58875 C49.3993333,18.49675 48.8113333,17.89475 47.8733333,17.89475 C46.9493333,17.89475 46.3613333,18.49675 46.3613333,19.58875 L46.3613333,20.94675 C46.3613333,22.05275 46.9493333,22.65475 47.8733333,22.65475 Z M54.6726667,23.92875 L54.6726667,19.09875 C54.6726667,18.31475 55.3866667,17.92275 56.1286667,17.92275 C56.9826667,17.92275 57.3326667,18.45475 57.3326667,19.49075 L57.3326667,23.92875 L59.1246667,23.92875 L59.1246667,19.30875 C59.1246667,17.48875 58.2846667,16.45275 56.7866667,16.45275 C55.6526667,16.45275 55.0366667,17.05475 54.7426667,17.83875 L54.6726667,17.83875 L54.6726667,16.62075 L52.8806667,16.62075 L52.8806667,23.92875 L54.6726667,23.92875 Z" id="Primary-Button" fill="#FFFFFF"></path>
        </g>
    </g>
</svg>