<?xml version="1.0" encoding="UTF-8"?>
<svg width="320px" height="320px" viewBox="0 0 320 320" version="1.1" xmlns="http://www.w3.org/2000/svg" xmlns:xlink="http://www.w3.org/1999/xlink">
    <!-- Generator: Sketch 53 (72520) - https://sketchapp.com -->
    <title>Artboard</title>
    <desc>Created with Sketch.</desc>
    <defs>
        <path d="M17.302,28 L17.302,18.228 L21.32,18.228 C22.93,18.228 23.924,19.222 23.924,20.748 C23.924,22.204 22.986,22.722 22.342,22.82 L22.342,22.904 C23.042,22.946 24.26,23.548 24.26,25.172 C24.26,26.782 23.182,28 21.74,28 L17.302,28 Z M18.478,23.464 L18.478,26.964 L21.376,26.964 C22.384,26.964 23,26.432 23,25.452 L23,24.976 C23,23.996 22.384,23.464 21.376,23.464 L18.478,23.464 Z M18.478,19.264 L18.478,22.456 L21.18,22.456 C22.104,22.456 22.664,21.966 22.664,21.098 L22.664,20.622 C22.664,19.754 22.104,19.264 21.18,19.264 L18.478,19.264 Z M30.784,28 L30.784,26.824 L30.728,26.824 C30.448,27.51 29.902,28.168 28.698,28.168 C27.214,28.168 26.262,27.16 26.262,25.41 L26.262,20.776 L27.382,20.776 L27.382,25.214 C27.382,26.502 27.956,27.16 29.034,27.16 C29.916,27.16 30.784,26.726 30.784,25.774 L30.784,20.776 L31.904,20.776 L31.904,28 L30.784,28 Z M37.28,28 L35.88,28 C35.11,28 34.69,27.51 34.69,26.81 L34.69,21.756 L33.5,21.756 L33.5,20.776 L34.172,20.776 C34.648,20.776 34.802,20.608 34.802,20.118 L34.802,18.774 L35.81,18.774 L35.81,20.776 L37.392,20.776 L37.392,21.756 L35.81,21.756 L35.81,27.02 L37.28,27.02 L37.28,28 Z M42.068,28 L40.668,28 C39.898,28 39.478,27.51 39.478,26.81 L39.478,21.756 L38.288,21.756 L38.288,20.776 L38.96,20.776 C39.436,20.776 39.59,20.608 39.59,20.118 L39.59,18.774 L40.598,18.774 L40.598,20.776 L42.18,20.776 L42.18,21.756 L40.598,21.756 L40.598,27.02 L42.068,27.02 L42.068,28 Z M46.66,28.168 C44.728,28.168 43.398,26.684 43.398,24.388 C43.398,22.092 44.728,20.608 46.66,20.608 C48.592,20.608 49.922,22.092 49.922,24.388 C49.922,26.684 48.592,28.168 46.66,28.168 Z M46.66,27.174 C47.864,27.174 48.718,26.432 48.718,24.906 L48.718,23.87 C48.718,22.344 47.864,21.602 46.66,21.602 C45.456,21.602 44.602,22.344 44.602,23.87 L44.602,24.906 C44.602,26.432 45.456,27.174 46.66,27.174 Z M52.89,28 L51.77,28 L51.77,20.776 L52.89,20.776 L52.89,21.952 L52.946,21.952 C53.296,21.14 53.912,20.608 54.99,20.608 C56.474,20.608 57.412,21.616 57.412,23.366 L57.412,28 L56.292,28 L56.292,23.562 C56.292,22.274 55.732,21.616 54.654,21.616 C53.758,21.616 52.89,22.064 52.89,22.988 L52.89,28 Z" id="path-1"></path>
    </defs>
    <g id="Artboard" stroke="none" stroke-width="1" fill="none" fill-rule="evenodd">
        <g id="Button" transform="translate(80.000000, 136.000000)">
            <g id="Group-2" transform="translate(111.000000, 14.000000)">
                <rect id="Rectangle-path" x="0" y="0" width="20" height="20"></rect>
            </g>
            <g id="Group-3">
                <rect id="Rectangle-5-Copy-129" fill="#0068FF" fill-rule="nonzero" x="0" y="0" width="160" height="48"></rect>
                <g id="Group-5-Copy-39" transform="translate(128.000000, 14.000000)">
                    <polygon id="Shape" fill="#FFFFFF" fill-rule="nonzero" points="10.875 9.625 10.875 4 9.625 4 9.625 9.625 4 9.625 4 10.875 9.625 10.875 9.625 16.5 10.875 16.5 10.875 10.875 16.5 10.875 16.5 9.625"></polygon>
                    <rect id="Rectangle-path" x="0" y="0" width="20" height="20"></rect>
                </g>
                <g id="Button" fill-rule="nonzero">
                    <use fill="#000000" xlink:href="#path-1"></use>
                    <use fill="#F3F3F3" xlink:href="#path-1"></use>
                </g>
            </g>
        </g>
    </g>
</svg>