<?xml version="1.0" encoding="UTF-8" standalone="no"?>
<svg width="258px" height="165px" viewBox="0 0 258 165" version="1.1" xmlns="http://www.w3.org/2000/svg" xmlns:xlink="http://www.w3.org/1999/xlink">
    <!-- Generator: Sketch 50.2 (55047) - http://www.bohemiancoding.com/sketch -->
    <title>Checkbox</title>
    <desc>Created with Sketch.</desc>
    <defs></defs>
    <g id="Checkbox" stroke="none" stroke-width="1" fill="none" fill-rule="evenodd">
        <rect id="Rectangle-18" fill="#FFFFFF" x="68" y="73.7546387" width="14.6799316" height="15.3139648"></rect>
        <g id="Group" transform="translate(64.000000, 50.000000)">
            <g id="Checkbox-/-Unchecked" transform="translate(0.000000, 22.079971)">
                <path d="M4,2 L4,16 L18,16 L18,2 L4,2 Z M2,0 L20,0 L20,18 L2,18 L2,0 Z" id="Rectangle-2-Copy" fill="#5A6872" fill-rule="nonzero"></path>
                <g id="Component/Checkbox/Pieces/States/Selected,-enabled" transform="translate(0.000000, 21.920029)">
                    <g id="Checkbox/Selected" stroke-width="1" fill-rule="evenodd" transform="translate(2.000000, 2.000000)" fill="#3D70B2">
                        <rect id="Background" x="0" y="0" width="18" height="18"></rect>
                    </g>
                    <g id="UI-Icon/checkmark/$ui-01" transform="translate(6.000000, 7.000000)" fill="#FFFFFF" fill-rule="nonzero">
                        <polygon id="Path-7" points="8.49778895 0 10 1.50221105 3.67222048 7.82999057 0 4.1577701 1.50221105 2.65555905 3.67222048 4.82556848"></polygon>
                    </g>
                </g>
            </g>
            <rect id="Rectangle" fill="#DFE3E6" x="2" y="0" width="70" height="8"></rect>
            <rect id="Rectangle" fill="#DFE3E6" x="28" y="28.7304688" width="100" height="4"></rect>
            <rect id="Rectangle" fill="#DFE3E6" x="28" y="52.4609375" width="100" height="4"></rect>
        </g>
    </g>
</svg>