<?xml version="1.0" encoding="UTF-8" standalone="no"?>
<svg width="258px" height="165px" viewBox="0 0 258 165" version="1.1" xmlns="http://www.w3.org/2000/svg" xmlns:xlink="http://www.w3.org/1999/xlink">
    <!-- Generator: Sketch 50.2 (55047) - http://www.bohemiancoding.com/sketch -->
    <title>File Uploader</title>
    <desc>Created with Sketch.</desc>
    <defs></defs>
    <g id="File-Uploader" stroke="none" stroke-width="1" fill="none" fill-rule="evenodd">
        <g id="Group-2" transform="translate(83.000000, 34.000000)">
            <rect id="Rectangle" fill="#DFE3E6" x="0.78515625" y="0.951171875" width="70" height="8"></rect>
            <rect id="Rectangle" stroke="#DFE3E6" fill="#FFFFFF" x="0.28515625" y="65.5488281" width="104.564453" height="13"></rect>
            <rect id="Rectangle" stroke="#DFE3E6" fill="#FFFFFF" x="0.28515625" y="83.5488281" width="104.564453" height="13"></rect>
            <rect id="Rectangle" fill="#DFE3E6" x="0.78515625" y="17.0488281" width="90.6191406" height="6"></rect>
            <rect id="Rectangle" fill-opacity="0.4" fill="#8C9BA5" x="5.47558594" y="70.0488281" width="45.3095703" height="4"></rect>
            <rect id="Rectangle" fill-opacity="0.4" fill="#8C9BA5" x="5.47558594" y="88.0488281" width="36.8662109" height="4"></rect>
        </g>
        <g id="Group-3" transform="translate(82.785156, 67.000000)" fill="#3D70B2">
            <path d="M49.5019039,1.33799674 L1.92071293,1.33799674 L1.92071293,21.8844201 L49.5019039,21.8844201 L49.5019039,1.33799674 Z M0.839322225,22.9658108 L0.839322225,0.256606038 L50.5832946,0.256606038 L50.5832946,22.9658108 L0.839322225,22.9658108 Z" id="Fill-23-Copy-9" fill-rule="nonzero"></path>
            <path d="M14.9590406,13.7354653 L13.921987,13.7354653 L13.4980818,12.3880525 L11.6207875,12.3880525 L11.2044521,13.7354653 L10.1901076,13.7354653 L11.9614256,8.44422058 L13.2028621,8.44422058 L14.9590406,13.7354653 Z M13.2558503,11.5326724 L12.5745741,9.3601585 L12.5367255,9.3601585 L11.8630191,11.5326724 L13.2558503,11.5326724 Z M18.1433758,13.7354653 L18.1433758,13.0768983 L18.1055271,13.0768983 C17.9617022,13.5235127 17.537797,13.8263021 17.0154853,13.8263021 C16.02385,13.8263021 15.4712594,13.0768983 15.4712594,11.7521947 C15.4712594,10.4350609 16.02385,9.69322684 17.0154853,9.69322684 C17.537797,9.69322684 17.9692719,9.98087677 18.1055271,10.4350609 L18.1433758,10.4350609 L18.1433758,8.13386144 L19.1123019,8.13386144 L19.1123019,13.7354653 L18.1433758,13.7354653 Z M17.3258444,13.0239102 C17.7875983,13.0239102 18.1433758,12.7892484 18.1433758,12.3804827 L18.1433758,11.1239067 C18.1433758,10.7378503 17.7875983,10.488049 17.3258444,10.488049 C16.8262419,10.488049 16.4856039,10.858966 16.4856039,11.4191264 L16.4856039,12.1004025 C16.4856039,12.6605629 16.8262419,13.0239102 17.3258444,13.0239102 Z M22.697833,13.7354653 L22.697833,13.0768983 L22.6599843,13.0768983 C22.5161593,13.5235127 22.0922542,13.8263021 21.5699425,13.8263021 C20.5783072,13.8263021 20.0257166,13.0768983 20.0257166,11.7521947 C20.0257166,10.4350609 20.5783072,9.69322684 21.5699425,9.69322684 C22.0922542,9.69322684 22.5237291,9.98087677 22.6599843,10.4350609 L22.697833,10.4350609 L22.697833,8.13386144 L23.666759,8.13386144 L23.666759,13.7354653 L22.697833,13.7354653 Z M21.8803016,13.0239102 C22.3420554,13.0239102 22.697833,12.7892484 22.697833,12.3804827 L22.697833,11.1239067 C22.697833,10.7378503 22.3420554,10.488049 21.8803016,10.488049 C21.3806991,10.488049 21.040061,10.858966 21.040061,11.4191264 L21.040061,12.1004025 C21.040061,12.6605629 21.3806991,13.0239102 21.8803016,13.0239102 Z M26.7955828,13.7354653 L26.7955828,10.5486069 L26.2127132,10.5486069 L26.2127132,9.78406366 L26.7955828,9.78406366 L26.7955828,9.21633354 C26.7955828,8.51991793 27.1740696,8.13386144 27.8856246,8.13386144 L28.5744705,8.13386144 L28.5744705,8.90597441 L27.7645089,8.90597441 L27.7645089,9.78406366 L30.2019635,9.78406366 L30.2019635,13.7354653 L29.2330375,13.7354653 L29.2330375,10.5486069 L27.7645089,10.5486069 L27.7645089,13.7354653 L26.7955828,13.7354653 Z M29.7175005,9.2087638 C29.3163045,9.2087638 29.1497704,9.00438096 29.1497704,8.72430077 L29.1497704,8.57290607 C29.1497704,8.29282588 29.3163045,8.08844303 29.7175005,8.08844303 C30.1111267,8.08844303 30.2852306,8.29282588 30.2852306,8.57290607 L30.2852306,8.72430077 C30.2852306,9.00438096 30.1111267,9.2087638 29.7175005,9.2087638 Z M32.8261383,13.7354653 L32.8261383,12.9633523 L32.3038266,12.9633523 L32.3038266,8.13386144 L31.3349005,8.13386144 L31.3349005,12.7816787 C31.3349005,13.3872575 31.6452597,13.7354653 32.3038266,13.7354653 L32.8261383,13.7354653 Z M35.1702329,13.8263021 C34.0044937,13.8263021 33.3080781,13.0163405 33.3080781,11.7521947 C33.3080781,10.5031885 33.9817845,9.69322684 35.1399539,9.69322684 C36.3738207,9.69322684 36.9415509,10.601595 36.9415509,11.6840671 L36.9415509,12.001996 L34.3148528,12.001996 L34.3148528,12.1004025 C34.3148528,12.6681327 34.6403514,13.0541891 35.2762092,13.0541891 C35.7531025,13.0541891 36.0407524,12.8270971 36.2829839,12.516738 L36.8052956,13.0996076 C36.479797,13.5462219 35.9044972,13.8263021 35.1702329,13.8263021 Z M35.1550934,10.4199214 C34.6479212,10.4199214 34.3148528,10.7984081 34.3148528,11.3434291 L34.3148528,11.4039869 L35.9347761,11.4039869 L35.9347761,11.3358593 C35.9347761,10.7908384 35.6546959,10.4199214 35.1550934,10.4199214 Z M39.1039718,13.8263021 C40.0880373,13.8263021 40.7314648,13.2964207 40.7314648,12.5318774 C40.7314648,11.8733105 40.3151294,11.487254 39.4521796,11.3661383 L39.0509837,11.3131501 C38.6800666,11.2525922 38.5362417,11.1314765 38.5362417,10.8665358 C38.5362417,10.6243042 38.7179153,10.4577701 39.1342507,10.4577701 C39.5203072,10.4577701 39.8533756,10.6394437 40.0804676,10.8816752 L40.6481977,10.3139451 C40.269711,9.92031889 39.8760848,9.69322684 39.1039718,9.69322684 C38.2031733,9.69322684 37.6051643,10.1776899 37.6051643,10.9422331 C37.6051643,11.6613579 38.0744879,12.0322749 38.9222982,12.1382512 L39.3159244,12.1912394 C39.6641322,12.2366578 39.8003874,12.3804827 39.8003874,12.6075748 C39.8003874,12.887655 39.6035743,13.0617589 39.1418205,13.0617589 C38.6952061,13.0617589 38.3469983,12.857376 38.0593484,12.5243077 L37.4689091,13.0996076 C37.8625353,13.5537916 38.354568,13.8263021 39.1039718,13.8263021 Z" id="Add-files"></path>
        </g>
        <g id="Group" transform="translate(178.000000, 103.000000)" fill="#5A6872" fill-rule="nonzero">
            <path d="M3,5.625 C4.44974747,5.625 5.625,4.44974747 5.625,3 C5.625,1.55025253 4.44974747,0.375 3,0.375 C1.55025253,0.375 0.375,1.55025253 0.375,3 C0.375,4.44974747 1.55025253,5.625 3,5.625 Z M3,6 C1.34314575,6 0,4.65685425 0,3 C0,1.34314575 1.34314575,0 3,0 C4.65685425,0 6,1.34314575 6,3 C6,4.65685425 4.65685425,6 3,6 Z" id="circle"></path>
            <path d="M3,2.73483496 L3.92807765,1.80675731 L4.19324269,2.07192235 L3.26516504,3 L4.19324269,3.92807765 L3.92807765,4.19324269 L3,3.26516504 L2.07192235,4.19324269 L1.80675731,3.92807765 L2.73483496,3 L1.80675731,2.07192235 L2.07192235,1.80675731 L3,2.73483496 Z" id="x"></path>
        </g>
        <g id="Group-Copy" transform="translate(178.000000, 121.000000)" fill="#5A6872" fill-rule="nonzero">
            <path d="M3,5.625 C4.44974747,5.625 5.625,4.44974747 5.625,3 C5.625,1.55025253 4.44974747,0.375 3,0.375 C1.55025253,0.375 0.375,1.55025253 0.375,3 C0.375,4.44974747 1.55025253,5.625 3,5.625 Z M3,6 C1.34314575,6 0,4.65685425 0,3 C0,1.34314575 1.34314575,0 3,0 C4.65685425,0 6,1.34314575 6,3 C6,4.65685425 4.65685425,6 3,6 Z" id="circle"></path>
            <path d="M3,2.73483496 L3.92807765,1.80675731 L4.19324269,2.07192235 L3.26516504,3 L4.19324269,3.92807765 L3.92807765,4.19324269 L3,3.26516504 L2.07192235,4.19324269 L1.80675731,3.92807765 L2.73483496,3 L1.80675731,2.07192235 L2.07192235,1.80675731 L3,2.73483496 Z" id="x"></path>
        </g>
    </g>
</svg>