<?xml version="1.0" encoding="UTF-8"?>
<svg width="320px" height="320px" viewBox="0 0 320 320" version="1.1" xmlns="http://www.w3.org/2000/svg" xmlns:xlink="http://www.w3.org/1999/xlink">
    <!-- Generator: Sketch 53 (72520) - https://sketchapp.com -->
    <title>Artboard</title>
    <desc>Created with Sketch.</desc>
    <defs>
        <path d="M24.652,21 L23.42,21 L22.44,18.116 L18.492,18.116 L17.512,21 L16.322,21 L19.738,11.228 L21.236,11.228 L24.652,21 Z M22.146,17.08 L20.494,12.32 L20.424,12.32 L18.772,17.08 L22.146,17.08 Z M30.784,21 L30.784,19.824 L30.728,19.824 C30.294,20.72 29.608,21.168 28.614,21.168 C26.808,21.168 25.674,19.698 25.674,17.388 C25.674,15.078 26.808,13.608 28.614,13.608 C29.608,13.608 30.35,14.042 30.728,14.952 L30.784,14.952 L30.784,10.64 L31.904,10.64 L31.904,21 L30.784,21 Z M28.922,20.16 C29.944,20.16 30.784,19.628 30.784,18.69 L30.784,16.002 C30.784,15.204 29.944,14.616 28.922,14.616 C27.662,14.616 26.878,15.484 26.878,16.772 L26.878,18.004 C26.878,19.292 27.662,20.16 28.922,20.16 Z M38.904,21 L38.904,19.824 L38.848,19.824 C38.414,20.72 37.728,21.168 36.734,21.168 C34.928,21.168 33.794,19.698 33.794,17.388 C33.794,15.078 34.928,13.608 36.734,13.608 C37.728,13.608 38.47,14.042 38.848,14.952 L38.904,14.952 L38.904,10.64 L40.024,10.64 L40.024,21 L38.904,21 Z M37.042,20.16 C38.064,20.16 38.904,19.628 38.904,18.69 L38.904,16.002 C38.904,15.204 38.064,14.616 37.042,14.616 C35.782,14.616 34.998,15.484 34.998,16.772 L34.998,18.004 C34.998,19.292 35.782,20.16 37.042,20.16 Z M46.1,21 L46.1,14.756 L44.924,14.756 L44.924,13.776 L46.1,13.776 L46.1,12.32 C46.1,11.326 46.618,10.64 47.682,10.64 L48.774,10.64 L48.774,11.62 L47.22,11.62 L47.22,13.776 L48.774,13.776 L48.774,14.756 L47.22,14.756 L47.22,21 L46.1,21 Z M50.804,12.082 C50.328,12.082 50.118,11.83 50.118,11.452 L50.118,11.27 C50.118,10.892 50.328,10.64 50.804,10.64 C51.28,10.64 51.49,10.892 51.49,11.27 L51.49,11.452 C51.49,11.83 51.28,12.082 50.804,12.082 Z M50.244,21 L50.244,13.776 L51.364,13.776 L51.364,21 L50.244,21 Z M55.928,21 L54.934,21 C54.164,21 53.744,20.51 53.744,19.838 L53.744,10.64 L54.864,10.64 L54.864,20.02 L55.928,20.02 L55.928,21 Z M60.268,21.168 C58.308,21.168 57.02,19.684 57.02,17.388 C57.02,15.092 58.308,13.608 60.268,13.608 C62.2,13.608 63.39,15.092 63.39,17.136 L63.39,17.668 L58.196,17.668 L58.196,18.004 C58.196,19.25 58.994,20.188 60.338,20.188 C61.248,20.188 61.948,19.74 62.326,18.942 L63.124,19.516 C62.662,20.496 61.626,21.168 60.268,21.168 Z M60.268,14.546 C59.05,14.546 58.196,15.47 58.196,16.73 L58.196,16.828 L62.186,16.828 L62.186,16.674 C62.186,15.4 61.416,14.546 60.268,14.546 Z" id="path-1"></path>
        <circle id="path-2" cx="8" cy="8" r="8"></circle>
    </defs>
    <g id="Artboard" stroke="none" stroke-width="1" fill="none" fill-rule="evenodd">
        <g id="File-Uploader" transform="translate(52.000000, 80.000000)">
            <g id="Group-22" fill-rule="nonzero">
                <rect id="Rectangle-3-Copy-24" fill="#CACACA" x="0" y="27" width="196" height="12"></rect>
                <rect id="Rectangle-3-Copy-25" fill="#CACACA" x="0" y="44" width="136" height="12"></rect>
                <rect id="Rectangle-3-Copy-26" fill="#A4A4A4" x="0" y="0" width="96" height="12"></rect>
                <g id="components-light/lg/button-fixed/primary/active/max-width/4-unit-height" transform="translate(0.000000, 72.000000)">
                    <rect id="Rectangle" fill="#0062FF" x="0" y="0" width="96" height="32"></rect>
                    <g id="Addfile">
                        <use fill="#000000" xlink:href="#path-1"></use>
                        <use fill="#FFFFFF" xlink:href="#path-1"></use>
                    </g>
                </g>
            </g>
            <g id="Group" transform="translate(0.000000, 128.000000)">
                <rect id="Rectangle-2-Copy-32" fill="#F3F3F3" fill-rule="nonzero" x="0" y="0" width="216" height="32"></rect>
                <rect id="Rectangle-3-Copy-12" fill="#D8D8D8" fill-rule="nonzero" x="11" y="10" width="96" height="12"></rect>
                <circle id="Oval-3-Copy" stroke="#DCDCDC" stroke-width="3" cx="200" cy="16" r="6.5"></circle>
                <g id="Oval-3-Copy-2" stroke-dasharray="20,33" transform="translate(200.000000, 16.000000) rotate(180.000000) translate(-200.000000, -16.000000) translate(192.000000, 8.000000)">
                    <g id="path-1-Clipped">
                        <mask id="mask-3" fill="white">
                            <use xlink:href="#path-2"></use>
                        </mask>
                        <g id="path-1"></g>
                        <path d="M8,16 C12.418278,16 16,12.418278 16,8 C16,3.581722 12.418278,0 8,0 C3.581722,0 0,3.581722 0,8 C0,12.418278 3.581722,16 8,16 Z" id="path-1" stroke="#0062FF" stroke-width="6" mask="url(#mask-3)"></path>
                    </g>
                </g>
            </g>
        </g>
    </g>
</svg>