<?xml version="1.0" encoding="UTF-8"?>
<svg width="320px" height="320px" viewBox="0 0 320 320" version="1.1" xmlns="http://www.w3.org/2000/svg" xmlns:xlink="http://www.w3.org/1999/xlink">
    <!-- Generator: Sketch 52.5 (67469) - http://www.bohemiancoding.com/sketch -->
    <title>Artboard</title>
    <desc>Created with Sketch.</desc>
    <defs>
        <polygon id="path-1" points="0 -8.27586207e-05 7.99994483 -8.27586207e-05 7.99994483 7.99991724 0 7.99991724"></polygon>
        <polygon id="path-3" points="0 -4.97379915e-14 16 -4.97379915e-14 16 15.9998621 0 15.9998621"></polygon>
    </defs>
    <g id="Artboard" stroke="none" stroke-width="1" fill="none" fill-rule="evenodd">
        <g id="Inline_loading" transform="translate(52.000000, 144.000000)">
            <g id="Group-11" fill="#F3F3F3" stroke="#0062FF">
                <rect id="Rectangle-Copy-41" x="0.5" y="0.5" width="215" height="31"></rect>
            </g>
            <g id="Group-2" transform="translate(181.000000, 8.000000)"></g>
            <rect id="Rectangle-3-Copy-9" fill="#D8D8D8" x="10" y="10" width="96" height="12"></rect>
        </g>
        <g id="loading-2-copy" transform="translate(236.000000, 152.000000)">
            <g id="loading">
                <g id="Group-3" transform="translate(0.000000, 8.000000)">
                    <mask id="mask-2" fill="white">
                        <use xlink:href="#path-1"></use>
                    </mask>
                    <g id="Clip-2"></g>
                    <path d="M2.97925517,-8.27586207e-05 L-5.51724138e-05,-8.27586207e-05 C-5.51724138e-05,4.4184 3.58173793,7.99991724 7.99994483,7.99991724 L7.99994483,5.0206069 C5.23166897,5.0206069 2.97925517,2.7681931 2.97925517,-8.27586207e-05" id="Fill-1" fill="#CACACA" mask="url(#mask-2)"></path>
                </g>
                <g id="Group-6">
                    <g id="Clip-6">
                        <mask id="mask-4" fill="white">
                            <use xlink:href="#path-3"></use>
                        </mask>
                        <g id="Clip-5"></g>
                    </g>
                    <path d="M8,2.97917241 C10.7685517,2.97917241 13.0206897,5.23158621 13.0206897,7.99986207 C13.0206897,10.7681379 10.7685517,13.0205517 8,13.0205517 L8,15.9998621 C12.4182069,15.9998621 16,12.4183448 16,7.99986207 C16,3.58193103 12.4182069,-0.000137931034 8,-0.000137931034 C3.5817931,-0.000137931034 0,3.58193103 0,7.99986207 L2.97931034,7.99986207 C2.97931034,5.23158621 5.23144828,2.97917241 8,2.97917241" id="Fill-4" fill="#0062FF"></path>
                </g>
            </g>
        </g>
    </g>
</svg>