<?xml version="1.0" encoding="UTF-8"?>
<svg width="320px" height="320px" viewBox="0 0 320 320" version="1.1" xmlns="http://www.w3.org/2000/svg" xmlns:xlink="http://www.w3.org/1999/xlink">
    <!-- Generator: Sketch 53 (72520) - https://sketchapp.com -->
    <title>Artboard</title>
    <desc>Created with Sketch.</desc>
    <defs>
        <path d="M8.8,6.016 L5.248,6.016 L5.248,16 L3.904,16 L3.904,6.016 L0.352,6.016 L0.352,4.832 L8.8,4.832 L8.8,6.016 Z M12.576,16.192 C10.336,16.192 8.864,14.496 8.864,11.872 C8.864,9.248 10.336,7.552 12.576,7.552 C14.784,7.552 16.144,9.248 16.144,11.584 L16.144,12.192 L10.208,12.192 L10.208,12.576 C10.208,14 11.12,15.072 12.656,15.072 C13.696,15.072 14.496,14.56 14.928,13.648 L15.84,14.304 C15.312,15.424 14.128,16.192 12.576,16.192 Z M12.576,8.624 C11.184,8.624 10.208,9.68 10.208,11.12 L10.208,11.232 L14.768,11.232 L14.768,11.056 C14.768,9.6 13.888,8.624 12.576,8.624 Z M17.04,16 L20.096,11.84 L17.168,7.744 L18.672,7.744 L20.768,10.816 L20.816,10.816 L22.992,7.744 L24.416,7.744 L21.504,11.744 L24.48,16 L22.976,16 L20.832,12.768 L20.784,12.768 L18.464,16 L17.04,16 Z M29.6,16 L28,16 C27.12,16 26.64,15.44 26.64,14.64 L26.64,8.864 L25.28,8.864 L25.28,7.744 L26.048,7.744 C26.592,7.744 26.768,7.552 26.768,6.992 L26.768,5.456 L27.92,5.456 L27.92,7.744 L29.728,7.744 L29.728,8.864 L27.92,8.864 L27.92,14.88 L29.6,14.88 L29.6,16 Z M38.064,16 L36.928,16 C36.048,16 35.568,15.44 35.568,14.672 L35.568,4.16 L36.848,4.16 L36.848,14.88 L38.064,14.88 L38.064,16 Z M40.56,5.808 C40.016,5.808 39.776,5.52 39.776,5.088 L39.776,4.88 C39.776,4.448 40.016,4.16 40.56,4.16 C41.104,4.16 41.344,4.448 41.344,4.88 L41.344,5.088 C41.344,5.52 41.104,5.808 40.56,5.808 Z M39.92,16 L39.92,7.744 L41.2,7.744 L41.2,16 L39.92,16 Z M45.2,16 L43.92,16 L43.92,7.744 L45.2,7.744 L45.2,9.088 L45.264,9.088 C45.664,8.16 46.368,7.552 47.6,7.552 C49.296,7.552 50.368,8.704 50.368,10.704 L50.368,16 L49.088,16 L49.088,10.928 C49.088,9.456 48.448,8.704 47.216,8.704 C46.192,8.704 45.2,9.216 45.2,10.272 L45.2,16 Z M53.008,16 L53.008,4.16 L54.288,4.16 L54.288,11.664 L54.352,11.664 L55.616,10.256 L57.952,7.744 L59.504,7.744 L56.448,11.008 L59.808,16 L58.256,16 L55.52,11.792 L54.288,13.056 L54.288,16 L53.008,16 Z" id="path-1"></path>
    </defs>
    <g id="Artboard" stroke="none" stroke-width="1" fill="none" fill-rule="evenodd">
        <g id="Link" transform="translate(129.000000, 149.000000)">
            <g id="Textlink" fill-rule="nonzero">
                <use fill="#000000" xlink:href="#path-1"></use>
                <use fill="#0062FF" xlink:href="#path-1"></use>
            </g>
            <path d="M2,21.5 L61.109375,21.5" id="Path-3" stroke="#0062FF"></path>
        </g>
    </g>
</svg>