<?xml version="1.0" encoding="UTF-8" standalone="no"?>
<svg width="258px" height="165px" viewBox="0 0 258 165" version="1.1" xmlns="http://www.w3.org/2000/svg" xmlns:xlink="http://www.w3.org/1999/xlink">
    <!-- Generator: Sketch 50.2 (55047) - http://www.bohemiancoding.com/sketch -->
    <title>Link</title>
    <desc>Created with Sketch.</desc>
    <defs></defs>
    <g id="Link" stroke="none" stroke-width="1" fill="none" fill-rule="evenodd">
        <path d="M121.468,87.743 L121.468,85.853 L117.744,85.853 L117.744,77.971 L115.616,77.971 L115.616,87.743 L121.468,87.743 Z M123.96,79.609 C124.8,79.609 125.164,79.175 125.164,78.587 L125.164,78.279 C125.164,77.691 124.8,77.257 123.96,77.257 C123.12,77.257 122.756,77.691 122.756,78.279 L122.756,78.587 C122.756,79.175 123.12,79.609 123.96,79.609 Z M122.924,87.743 L124.996,87.743 L124.996,80.393 L122.924,80.393 L122.924,87.743 Z M129,87.743 L129,82.983 C129,82.255 129.658,81.905 130.33,81.905 C131.086,81.905 131.352,82.367 131.352,83.305 L131.352,87.743 L133.424,87.743 L133.424,83.137 C133.424,81.289 132.626,80.225 131.128,80.225 C129.966,80.225 129.35,80.869 129.084,81.639 L129,81.639 L129,80.393 L126.928,80.393 L126.928,87.743 L129,87.743 Z M135.272,87.743 L137.344,87.743 L137.344,85.671 L138.268,84.635 L139.92,87.743 L142.384,87.743 L139.654,83.207 L142.104,80.393 L139.808,80.393 L138.338,82.143 L137.428,83.501 L137.344,83.501 L137.344,77.383 L135.272,77.383 L135.272,87.743 Z" fill="#3D70B2"></path>
        <polygon id="Path-6" fill="#3D70B2" fill-rule="nonzero" points="115.5 90.243 142.190623 90.243 142.190623 89.243 115.5 89.243"></polygon>
    </g>
</svg>