<?xml version="1.0" encoding="UTF-8" standalone="no"?>
<svg width="258px" height="165px" viewBox="0 0 258 165" version="1.1" xmlns="http://www.w3.org/2000/svg" xmlns:xlink="http://www.w3.org/1999/xlink">
    <!-- Generator: Sketch 50.2 (55047) - http://www.bohemiancoding.com/sketch -->
    <title>Progress Indicator</title>
    <desc>Created with Sketch.</desc>
    <defs></defs>
    <g id="Progress-Indicator" stroke="none" stroke-width="1" fill="none" fill-rule="evenodd">
        <path d="M202.457031,63.8333333 C206.123698,63.8333333 209.123698,66.8333333 209.123698,70.5 C209.123698,74.1666667 206.123698,77.1666667 202.457031,77.1666667 C198.790365,77.1666667 195.790365,74.1666667 195.790365,70.5 C195.790365,66.8333333 198.790365,63.8333333 202.457031,63.8333333 L202.457031,63.8333333 Z M202.457031,62.5 C198.057031,62.5 194.457031,66.1 194.457031,70.5 C194.457031,74.9 198.057031,78.5 202.457031,78.5 C206.857031,78.5 210.457031,74.9 210.457031,70.5 C210.457031,66.1 206.857031,62.5 202.457031,62.5 L202.457031,62.5 L202.457031,62.5 Z" id="Indicator-Circle---Future-Step" fill="#8C9BA5"></path>
        <polygon id="Path" fill="#8C9BA5" fill-rule="nonzero" points="125.995089 71.18 194.457031 71.18 194.457031 69.18 125.995089 69.18"></polygon>
        <g id="Indicator-Circle---Current-Step" transform="translate(110.832031, 62.500000)">
            <path d="M7.895,1.28 C11.415,1.28 14.295,4.16 14.295,7.68 C14.295,11.2 11.415,14.08 7.895,14.08 C4.375,14.08 1.495,11.2 1.495,7.68 C1.495,4.16 4.375,1.28 7.895,1.28 L7.895,1.28 Z M7.895,0 C3.671,0 0.215,3.456 0.215,7.68 C0.215,11.904 3.671,15.36 7.895,15.36 C12.119,15.36 15.575,11.904 15.575,7.68 C15.575,3.456 12.119,0 7.895,0 L7.895,0 L7.895,0 Z" id="Shape" fill="#3D70B2"></path>
            <circle id="Oval-4" fill="#4178BE" cx="7.895" cy="7.68" r="3.84"></circle>
        </g>
        <polygon id="Path" fill="#3D70B2" fill-rule="nonzero" points="43.9981572 71.5 111.832031 71.5 111.832031 69.5 43.9981572 69.5"></polygon>
        <g id="Indicator-Circle---Completed-Step" transform="translate(28.542969, 62.500000)" fill="#3D70B2">
            <path d="M8,1.33333333 C11.6666667,1.33333333 14.6666667,4.33333333 14.6666667,8 C14.6666667,11.6666667 11.6666667,14.6666667 8,14.6666667 C4.33333333,14.6666667 1.33333333,11.6666667 1.33333333,8 C1.33333333,4.33333333 4.33333333,1.33333333 8,1.33333333 L8,1.33333333 Z M8,0 C3.6,0 0,3.6 0,8 C0,12.4 3.6,16 8,16 C12.4,16 16,12.4 16,8 C16,3.6 12.4,0 8,0 L8,0 L8,0 Z" id="Shape"></path>
            <polygon id="Shape" points="6.86666667 9.06666667 5.13333333 7.33333333 4.2 8.26666667 6.86666667 10.9333333 11.8666667 6 10.9333333 5.06666667"></polygon>
        </g>
        <rect id="Rectangle-5" fill-opacity="0.1" fill="#152935" x="28.5429688" y="88.5" width="30" height="6"></rect>
        <rect id="Rectangle-5" fill-opacity="0.1" fill="#152935" x="110.832031" y="88.5" width="40" height="6"></rect>
        <rect id="Rectangle-5" fill-opacity="0.1" fill="#152935" x="194.457031" y="88.5" width="35" height="6"></rect>
    </g>
</svg>