<?xml version="1.0" encoding="UTF-8" standalone="no"?>
<svg width="258px" height="165px" viewBox="0 0 258 165" version="1.1" xmlns="http://www.w3.org/2000/svg" xmlns:xlink="http://www.w3.org/1999/xlink">
    <!-- Generator: Sketch 50.2 (55047) - http://www.bohemiancoding.com/sketch -->
    <title>Radio Button</title>
    <desc>Created with Sketch.</desc>
    <defs></defs>
    <g id="Radio-Button" stroke="none" stroke-width="1" fill="none" fill-rule="evenodd">
        <path d="M75,113.5 C78.8659932,113.5 82,110.365993 82,106.5 C82,102.634007 78.8659932,99.5 75,99.5 C71.1340068,99.5 68,102.634007 68,106.5 C68,110.365993 71.1340068,113.5 75,113.5 Z M75,115.5 C70.0294373,115.5 66,111.470563 66,106.5 C66,101.529437 70.0294373,97.5 75,97.5 C79.9705627,97.5 84,101.529437 84,106.5 C84,111.470563 79.9705627,115.5 75,115.5 Z" id="Oval-1-Copy" fill="#3D70B2" fill-rule="nonzero"></path>
        <circle id="Oval-3" fill="#3D70B2" cx="75" cy="106.5" r="4"></circle>
        <path d="M75,89.5 C78.8659932,89.5 82,86.3659932 82,82.5 C82,78.6340068 78.8659932,75.5 75,75.5 C71.1340068,75.5 68,78.6340068 68,82.5 C68,86.3659932 71.1340068,89.5 75,89.5 Z M75,91.5 C70.0294373,91.5 66,87.4705627 66,82.5 C66,77.5294373 70.0294373,73.5 75,73.5 C79.9705627,73.5 84,77.5294373 84,82.5 C84,87.4705627 79.9705627,91.5 75,91.5 Z" id="Oval-1" fill="#5A6872" fill-rule="nonzero"></path>
        <rect id="Rectangle" fill="#DFE3E6" x="66" y="49.5" width="70" height="8"></rect>
        <rect id="Rectangle" fill="#DFE3E6" x="92" y="78.2304688" width="100" height="6"></rect>
        <rect id="Rectangle" fill="#DFE3E6" x="92" y="101.960938" width="100" height="6"></rect>
    </g>
</svg>