<?xml version="1.0" encoding="UTF-8" standalone="no"?>
<svg width="258px" height="165px" viewBox="0 0 258 165" version="1.1" xmlns="http://www.w3.org/2000/svg" xmlns:xlink="http://www.w3.org/1999/xlink">
    <!-- Generator: Sketch 50.2 (55047) - http://www.bohemiancoding.com/sketch -->
    <title>Structured List</title>
    <desc>Created with Sketch.</desc>
    <defs></defs>
    <g id="Structured-List" stroke="none" stroke-width="1" fill="none" fill-rule="evenodd">
        <g id="Group" transform="translate(21.000000, 28.000000)">
            <polygon id="Line" fill="#DFE3E6" fill-rule="nonzero" points="0.507606084 55.3125 215.492394 55.3125 215.492394 54.3125 0.507606084 54.3125"></polygon>
            <polygon id="Line" fill="#DFE3E6" fill-rule="nonzero" points="0.293192469 82.3125 215.063567 82.3125 215.063567 81.3125 0.293192469 81.3125"></polygon>
            <rect id="Rectangle-5" fill-opacity="0.1" fill="#152935" x="0.793192469" y="38.3125" width="102.047819" height="6"></rect>
            <rect id="Rectangle-5" fill-opacity="0.1" fill="#152935" x="0.793192469" y="0.6875" width="74.6691355" height="8"></rect>
            <rect id="Rectangle-5" fill-opacity="0.1" fill="#152935" x="141.786324" y="0.6875" width="70" height="8"></rect>
            <rect id="Rectangle-5" fill-opacity="0.1" fill="#152935" x="141.786324" y="38.3125" width="60" height="6"></rect>
            <rect id="Rectangle-5" fill-opacity="0.1" fill="#152935" x="0.793192469" y="65.3125" width="102.047819" height="6"></rect>
            <rect id="Rectangle-5" fill-opacity="0.1" fill="#152935" x="141.786324" y="65.3125" width="60" height="6"></rect>
            <rect id="Rectangle-5" fill-opacity="0.1" fill="#152935" x="0.793192469" y="92.3125" width="102.047819" height="6"></rect>
            <rect id="Rectangle-5" fill-opacity="0.1" fill="#152935" x="141.786324" y="92.3125" width="60" height="6"></rect>
            <polygon id="Line" fill="#DFE3E6" fill-rule="nonzero" points="0.507606084 109.3125 215.27798 109.3125 215.27798 108.3125 0.507606084 108.3125"></polygon>
            <polygon id="Line" fill="#3D70B2" fill-rule="nonzero" points="0.793192469 28.3125 215.206808 28.3125 215.206808 26.3125 0.793192469 26.3125"></polygon>
        </g>
    </g>
</svg>