<?xml version="1.0" encoding="UTF-8" standalone="no"?>
<svg width="258px" height="165px" viewBox="0 0 258 165" version="1.1" xmlns="http://www.w3.org/2000/svg" xmlns:xlink="http://www.w3.org/1999/xlink">
    <!-- Generator: Sketch 50.2 (55047) - http://www.bohemiancoding.com/sketch -->
    <title>Tabs</title>
    <desc>Created with Sketch.</desc>
    <defs></defs>
    <g id="Tabs" stroke="none" stroke-width="1" fill="none" fill-rule="evenodd">
        <polygon id="Selected" fill="#3D70B2" points="108.083008 95.5 146.083008 95.5 146.083008 97.5 108.083008 97.5"></polygon>
        <path d="M115.839008,69.366 L115.839008,67.728 L108.447008,67.728 L108.447008,69.366 L111.219008,69.366 L111.219008,77.5 L113.067008,77.5 L113.067008,69.366 L115.839008,69.366 Z M118.265008,77.668 C116.781008,77.668 115.941008,76.814 115.941008,75.512 C115.941008,74.014 117.075008,73.272 119.063008,73.272 L120.309008,73.272 L120.309008,72.74 C120.309008,71.928 119.903008,71.452 118.951008,71.452 C118.111008,71.452 117.635008,71.872 117.285008,72.376 L116.221008,71.424 C116.753008,70.584 117.607008,70.024 119.077008,70.024 C121.051008,70.024 122.101008,70.962 122.101008,72.628 L122.101008,76.072 L122.829008,76.072 L122.829008,77.5 L121.835008,77.5 C121.065008,77.5 120.589008,76.996 120.477008,76.24 L120.393008,76.24 C120.155008,77.178 119.357008,77.668 118.265008,77.668 Z M118.867008,76.366 C119.665008,76.366 120.309008,76.002 120.309008,75.316 L120.309008,74.35 L119.161008,74.35 C118.223008,74.35 117.761008,74.672 117.761008,75.246 L117.761008,75.484 C117.761008,76.072 118.167008,76.366 118.867008,76.366 Z M124.485008,77.5 L124.485008,67.14 L126.277008,67.14 L126.277008,71.396 L126.333008,71.396 C126.599008,70.556 127.383008,70.024 128.349008,70.024 C130.197008,70.024 131.219008,71.396 131.219008,73.832 C131.219008,76.282 130.197008,77.668 128.349008,77.668 C127.383008,77.668 126.613008,77.108 126.333008,76.282 L126.277008,76.282 L126.277008,77.5 L124.485008,77.5 Z M127.775008,76.184 C128.699008,76.184 129.343008,75.512 129.343008,74.476 L129.343008,73.216 C129.343008,72.18 128.699008,71.494 127.775008,71.494 C126.921008,71.494 126.277008,71.956 126.277008,72.67 L126.277008,74.994 C126.277008,75.75 126.921008,76.184 127.775008,76.184 Z M143.197008,75.946 L138.423008,75.946 L140.481008,74.252 C141.839008,73.132 142.945008,72.096 142.945008,70.472 C142.945008,68.792 141.769008,67.56 139.711008,67.56 C137.723008,67.56 136.673008,68.694 136.253008,69.996 L137.849008,70.612 C138.073008,69.814 138.549008,69.156 139.557008,69.156 C140.355008,69.156 140.999008,69.632 140.999008,70.486 L140.999008,70.668 C140.999008,71.522 140.523008,72.194 139.487008,73.104 L136.421008,75.792 L136.421008,77.5 L143.197008,77.5 L143.197008,75.946 Z" id="Tab-2" fill="#3D70B2"></path>
        <path d="M56.6729922,69.366 L56.6729922,67.728 L49.2809922,67.728 L49.2809922,69.366 L52.0529922,69.366 L52.0529922,77.5 L53.9009922,77.5 L53.9009922,69.366 L56.6729922,69.366 Z M59.0989922,77.668 C57.6149922,77.668 56.7749922,76.814 56.7749922,75.512 C56.7749922,74.014 57.9089922,73.272 59.8969922,73.272 L61.1429922,73.272 L61.1429922,72.74 C61.1429922,71.928 60.7369922,71.452 59.7849922,71.452 C58.9449922,71.452 58.4689922,71.872 58.1189922,72.376 L57.0549922,71.424 C57.5869922,70.584 58.4409922,70.024 59.9109922,70.024 C61.8849922,70.024 62.9349922,70.962 62.9349922,72.628 L62.9349922,76.072 L63.6629922,76.072 L63.6629922,77.5 L62.6689922,77.5 C61.8989922,77.5 61.4229922,76.996 61.3109922,76.24 L61.2269922,76.24 C60.9889922,77.178 60.1909922,77.668 59.0989922,77.668 Z M59.7009922,76.366 C60.4989922,76.366 61.1429922,76.002 61.1429922,75.316 L61.1429922,74.35 L59.9949922,74.35 C59.0569922,74.35 58.5949922,74.672 58.5949922,75.246 L58.5949922,75.484 C58.5949922,76.072 59.0009922,76.366 59.7009922,76.366 Z M65.3189922,77.5 L65.3189922,67.14 L67.1109922,67.14 L67.1109922,71.396 L67.1669922,71.396 C67.4329922,70.556 68.2169922,70.024 69.1829922,70.024 C71.0309922,70.024 72.0529922,71.396 72.0529922,73.832 C72.0529922,76.282 71.0309922,77.668 69.1829922,77.668 C68.2169922,77.668 67.4469922,77.108 67.1669922,76.282 L67.1109922,76.282 L67.1109922,77.5 L65.3189922,77.5 Z M68.6089922,76.184 C69.5329922,76.184 70.1769922,75.512 70.1769922,74.476 L70.1769922,73.216 C70.1769922,72.18 69.5329922,71.494 68.6089922,71.494 C67.7549922,71.494 67.1109922,71.956 67.1109922,72.67 L67.1109922,74.994 C67.1109922,75.75 67.7549922,76.184 68.6089922,76.184 Z M84.1429922,77.5 L84.1429922,76.002 L81.8749922,76.002 L81.8749922,67.728 L79.9569922,67.728 L77.0029922,69.38 L77.7029922,70.724 L80.0689922,69.394 L80.0689922,76.002 L77.5349922,76.002 L77.5349922,77.5 L84.1429922,77.5 Z" id="Tab-1" fill="#152935"></path>
        <path d="M178.839008,69.366 L178.839008,67.728 L171.447008,67.728 L171.447008,69.366 L174.219008,69.366 L174.219008,77.5 L176.067008,77.5 L176.067008,69.366 L178.839008,69.366 Z M181.265008,77.668 C179.781008,77.668 178.941008,76.814 178.941008,75.512 C178.941008,74.014 180.075008,73.272 182.063008,73.272 L183.309008,73.272 L183.309008,72.74 C183.309008,71.928 182.903008,71.452 181.951008,71.452 C181.111008,71.452 180.635008,71.872 180.285008,72.376 L179.221008,71.424 C179.753008,70.584 180.607008,70.024 182.077008,70.024 C184.051008,70.024 185.101008,70.962 185.101008,72.628 L185.101008,76.072 L185.829008,76.072 L185.829008,77.5 L184.835008,77.5 C184.065008,77.5 183.589008,76.996 183.477008,76.24 L183.393008,76.24 C183.155008,77.178 182.357008,77.668 181.265008,77.668 Z M181.867008,76.366 C182.665008,76.366 183.309008,76.002 183.309008,75.316 L183.309008,74.35 L182.161008,74.35 C181.223008,74.35 180.761008,74.672 180.761008,75.246 L180.761008,75.484 C180.761008,76.072 181.167008,76.366 181.867008,76.366 Z M187.485008,77.5 L187.485008,67.14 L189.277008,67.14 L189.277008,71.396 L189.333008,71.396 C189.599008,70.556 190.383008,70.024 191.349008,70.024 C193.197008,70.024 194.219008,71.396 194.219008,73.832 C194.219008,76.282 193.197008,77.668 191.349008,77.668 C190.383008,77.668 189.613008,77.108 189.333008,76.282 L189.277008,76.282 L189.277008,77.5 L187.485008,77.5 Z M190.775008,76.184 C191.699008,76.184 192.343008,75.512 192.343008,74.476 L192.343008,73.216 C192.343008,72.18 191.699008,71.494 190.775008,71.494 C189.921008,71.494 189.277008,71.956 189.277008,72.67 L189.277008,74.994 C189.277008,75.75 189.921008,76.184 190.775008,76.184 Z M201.255008,71.676 L201.255008,73.216 L202.221008,73.216 C203.383008,73.216 204.041008,73.692 204.041008,74.588 L204.041008,74.686 C204.041008,75.596 203.439008,76.156 202.361008,76.156 C201.269008,76.156 200.681008,75.596 200.247008,74.812 L198.889008,75.848 C199.505008,76.8 200.457008,77.668 202.361008,77.668 C204.517008,77.668 205.959008,76.52 205.959008,74.798 C205.959008,73.412 205.049008,72.628 203.915008,72.418 L203.915008,72.334 C204.937008,72.124 205.791008,71.368 205.791008,70.108 C205.791008,68.54 204.447008,67.56 202.473008,67.56 C200.821008,67.56 199.897008,68.274 199.239008,69.184 L200.415008,70.248 C200.891008,69.506 201.563008,69.072 202.417008,69.072 C203.299008,69.072 203.859008,69.562 203.859008,70.36 L203.859008,70.458 C203.859008,71.158 203.341008,71.676 202.221008,71.676 L201.255008,71.676 Z" id="Tab-3" fill="#152935"></path>
    </g>
</svg>