<?xml version="1.0" encoding="UTF-8" standalone="no"?>
<svg width="258px" height="165px" viewBox="0 0 258 165" version="1.1" xmlns="http://www.w3.org/2000/svg" xmlns:xlink="http://www.w3.org/1999/xlink">
    <!-- Generator: Sketch 50.2 (55047) - http://www.bohemiancoding.com/sketch -->
    <title>Toggle</title>
    <desc>Created with Sketch.</desc>
    <defs></defs>
    <g id="Toggle" stroke="none" stroke-width="1" fill="none" fill-rule="evenodd">
        <circle id="Oval-1-Copy-14" fill="#FFFFFF" cx="117.5" cy="82.5" r="11.5"></circle>
        <rect id="Rectangle-5" fill-opacity="0.1" fill="#152935" x="70.1142578" y="79.5" width="27.3857422" height="6"></rect>
        <rect id="Rectangle-5" fill-opacity="0.1" fill="#152935" x="160.5" y="79.5" width="20" height="6"></rect>
        <rect id="Rectangle-2-Copy-14" fill="#8C9BA5" x="128.5" y="80.5" width="24" height="4"></rect>
        <path d="M117.5,92.5 C123.022847,92.5 127.5,88.0228475 127.5,82.5 C127.5,76.9771525 123.022847,72.5 117.5,72.5 C111.977153,72.5 107.5,76.9771525 107.5,82.5 C107.5,88.0228475 111.977153,92.5 117.5,92.5 Z M117.5,94.5 C110.872583,94.5 105.5,89.127417 105.5,82.5 C105.5,75.872583 110.872583,70.5 117.5,70.5 C124.127417,70.5 129.5,75.872583 129.5,82.5 C129.5,89.127417 124.127417,94.5 117.5,94.5 Z" id="Oval-1-Copy-14" fill="#8C9BA5" fill-rule="nonzero"></path>
    </g>
</svg>