<svg xmlns="http://www.w3.org/2000/svg" id="Layer_1" width="500" height="360">
  <style>
    .st0{fill:#e7e9f7}.st1{fill:#b0bef3}.st2{fill:#d1d7f4}.st4{fill:#2e3f8f}.st5{fill:#fff}.st6{fill:#e3bc13}
  </style>
  <path d="M296 88C183.3 88 92 179.3 92 292h408c0-112.7-91.3-204-204-204z" class="st0"/>
  <path d="M318.4 171.7L175.8 291.6l-46.1-.1zm-159.7 29.4L17 292l-17-7.1z" class="st1"/>
  <path d="M318.4 171.7L236 241l-77.3-39.9L17 292h483z" class="st2"/>
  <circle cx="197" cy="120" r="37" class="st0"/>
  <circle cx="191" cy="122" r="37" fill="#f9f9fd"/>
  <path d="M383.5 261.8c.5-.8-.6-1.9-.7-2.6-.3-2.4 5.2-15.8 4.6-14-.6 1.9.7-2.1 2.8-3.2 2.1-1 7.3-2.9 7.8-3.2.5-.3 1.2-1.1.9-1.8-.4-.8-.9-.6-1.5-.4-.5.1-6.3 3-7.6 3.4-1.3.4-1.4-.2-1.1-1.1s8.3-12.7 10.1-14.1c1.8-1.4 2.6-2.1 4.5-2.8 1.9-.7 9.2-1.1 9.7-1.7s.5-2.1-1-2.4c-1.5-.3-8.1 2.1-8.9 2-.8-.1-1.2-.5-1-1.1.1-.7 13.5-14.1 13.5-15.4 0-1.3-1.3-1.5-1.8-.9s-14 14.5-17.8 19.2-8.7 11.8-11.9 20.4c-3.3 8.6-4.2 13.4-4.2 15.9 0 .8 0 1.8.3 2.8.4 1.3 2.5 2.2 3.3 1z" class="st0"/>
  <path d="M380.6 264.9c-4.2-11.1-13.2-32.5-23.1-41.1-6.8-5.5-9.4-7.2-12.2-7.9-2.8-.7-3.4 1.6-2.1 3.3s5 5.5 6.2 9.9c1.3 4.5 2.4 10.2 5.1 11.6 1.9 1 13.7 16 20.6 24.8" class="st1"/>
  <path d="M386.5 263.4c-1.8-1.5-4.2-2.5-6.8-2.5-.5 0-1 0-1.4.1-7.3-10.2-19.4-25.6-29.8-31-7.9-3.7-10.8-4.8-13.7-4.8-2.9 0-2.9 2.4-1.3 3.7 1.7 1.3 6.1 4.1 8.4 8.2 2.3 4.1 4.8 9.4 7.7 10 1.8.4 14 9.8 22.8 16.7-.6.5-1.1 1.1-1.5 1.7-1.2 1.7-1.9 3.8-1.9 6v.1c-.2 2.1-1.9 3.8-4.1 3.8-1.2 0-2.2-.6-3-1.3-3.3-2.2-9-6.4-9.7-6.9-7.7-5.9-17.6-9.8-26.2-10.4-.8-.1-1.5-.1-2.3-.1-11.8 0-22.1 6.2-27.9 15.5 0 0-.1 0-.2.1-.7 1.1-1.8 1.5-3.1 0l-.1-.1c-1.2-1.6-3.2-2.7-5.4-2.7-3.8 0-6.8 3-6.8 6.8s3 6.8 6.8 6.8c1.1 0 2.1-.3 3-.7h.1c.8-.4 1.1-.3 1.3.2-.5 2.3-.8 4.6-.8 7 0 15.3 10.4 28.2 24.6 31.9 0 0 1.7 1 4 2.3l-19.9 19.9c11.5 6.4 18.4 1.9 24-3.7 3.9-3.9 9.4-9.2 9.4-9.2H383s1-11.4-9.8-11.4h-22.9l29.4-26.1c.7-.6 1.5-.9 2.4-.9h15.6c4.8-.8 9.5-8.5 9.2-9.7-.9-4.5-14.3-14.8-20.4-19.3z" class="st4"/>
  <path d="M343.2 316.8v-33.5c0-7.7-6.2-13.9-13.9-13.9-.8 0-1.4.6-1.4 1.4 0 .8.6 1.4 1.4 1.4 6.1 0 11.2 5 11.2 11.2v36.3h14.9V317h-12.2zM406.6 197c-1.1 0-15.5 10.2-20.8 24.6-4.2 11.5-7.2 31.2-8.2 38.8v.3c0 .2-.1.3-.1.5 0 1.1.9 2 2 2 .7 0 1.4-.4 1.7-1 .1-.1.2-.2.2-.4v-.2c-.2-1.9-.2-4.2.4-5.8 1.2-3 12.5-7.1 10.6-9.6-1.9-2.6-7.8 5.2-9.1 3.7-1.3-1.6 1.4-7.7 2.3-11.3.7-2.7 12.8-9.4 14.1-9.5 1.3-.1 1.8.3 2.2.1.4-.2.6-1.3.2-1.8-.4-.5-1.5-.9-2.6-.4s-8.5 4.2-9.3 4.5c-.8.3-1.8.2-1.9-1.1-.1-1.4 1-2.6 2-4.2 1.6-2.7 8.9-9.4 10.4-11.6 1.5-2.2-.7-3.1-1.5-2.3l-7 7c-.5.4-1 .4-1-.5s3.5-5.6 5.8-9.1c3.3-5 10.4-9.4 11-10.6.6-1.3-.3-2.1-1.4-2.1z" class="st5"/>
  <circle cx="384.9" cy="274.3" r="2.1" class="st5"/>
  <path d="M407.1 283c-.9-.9-3.5-1-3.5-1s-.3 3.6 1.1 5.4c.7-.7 2.1-2.7 2.4-4.4z" class="st6"/>
  <circle cx="387" cy="275.2" r="2.1" class="st4"/>
  <path d="M148.4 259.8c-1.8.3-3.1 2-3.1 3.9v8.6c0 .8-.6 1.4-1.4 1.4 0 0-2.9.1-3.4.3v-21.6c0-3.7-3-6.7-6.7-6.7s-6.7 3-6.7 6.7v31c-.4-.1-3.1-.2-3.1-.2-.8 0-1.4-.6-1.4-1.4v-8.6c0-1.9-1.3-3.5-3.1-3.9-2.4-.4-4.6 1.4-4.6 3.8v10.5c0 4.7 4.3 8.3 7.9 8.3h3.1c.4 0 .8-.1 1.1-.2v13.5h13.3v-23.1c.5.2.9.3 1.4.3h3.1c3.6 0 7.9-3.6 7.9-8.3v-10.5c.3-2.4-1.8-4.3-4.3-3.8z" class="st1"/>
  <path d="M443.7 51.4l-1 3.1c-.2.6-.7 1.1-1.3 1.3l-2.9 1.1 2.4.9c1.3.5 2.3 1.5 2.7 2.8l.6 2.1.5-2.6c.3-1.4 1.3-2.6 2.7-3l2.1-.6s-2.6-.2-3.9-1.6c-1.1-1.3-1.9-3.5-1.9-3.5z" class="st6"/>
  <path d="M141.5 5.9l-1.4 4.4c-.4.9-1.1 1.6-1.9 1.9l-4.2 1.6 3.5 1.2c1.9.7 3.3 2.2 3.9 4.1l.9 3 .7-3.8c.4-2.1 1.9-3.7 3.9-4.3l3.1-.9s-3.7-.2-5.7-2.4c-1.6-1.7-2.7-4.8-2.8-4.8z" class="st2"/>
  <path d="M101.4 91.8l-1.7 5.6c-.4 1.1-1.3 2-2.4 2.4l-5.2 2 4.4 1.6c2.3.8 4.1 2.7 4.8 5.1l1.1 3.8.8-4.7c.5-2.6 2.3-4.7 4.9-5.4l3.9-1.1s-4.7-.3-7.1-3c-2-2.3-3.4-6.3-3.5-6.3z" class="st6"/>
  <path d="M484.3 275.4c-.9.2-1.6 1-1.6 2v4.3c0 .4-.3.7-.7.7h-1c-.3 0-.5.1-.7.1v-10.8c0-1.8-1.5-3.3-3.3-3.3-1.8 0-3.3 1.5-3.3 3.3v15.6c-.2 0-.4-.1-.6-.1h-1c-.4 0-.7-.3-.7-.7v-4.3c0-.9-.7-1.8-1.6-2-1.2-.2-2.3.7-2.3 1.9v5.3c0 2.3 2.2 4.2 4 4.2h1.6c.2 0 .4 0 .6-.1v6.8h6.7v-11.6c.2.1.5.1.7.1h1.6c1.8 0 4-1.8 4-4.2v-5.3c-.1-1.2-1.2-2.2-2.4-1.9z" class="st1"/>
</svg>
