<?xml version="1.0" encoding="UTF-8"?>
<svg width="32px" height="32px" viewBox="0 0 32 32" version="1.1" xmlns="http://www.w3.org/2000/svg" xmlns:xlink="http://www.w3.org/1999/xlink">
    <!-- Generator: Sketch 47 (45396) - http://www.bohemiancoding.com/sketch -->
    <title>Fill 3</title>
    <desc>Created with Sketch.</desc>
    <defs></defs>
    <g id="Final" stroke="none" stroke-width="1" fill="none" fill-rule="evenodd">
        <g id="3" transform="translate(-862.000000, -433.000000)" fill="#161514">
            <path d="M862,449.624318 C862,456.693411 866.584057,462.689912 872.942018,464.805631 C873.742534,464.952965 874.034255,464.458905 874.034255,464.034582 C874.034255,463.655442 874.020504,462.648659 874.012646,461.313811 C869.562172,462.280323 868.623162,459.168626 868.623162,459.168626 C867.895331,457.320073 866.846312,456.827977 866.846312,456.827977 C865.393597,455.835927 866.956322,455.855571 866.956322,455.855571 C868.562264,455.968527 869.40698,457.504732 869.40698,457.504732 C870.834157,459.949497 873.152215,459.243275 874.063722,458.833686 C874.209092,457.800382 874.62261,457.095143 875.079346,456.695376 C871.526628,456.29168 867.791215,454.918526 867.791215,448.78746 C867.791215,447.041059 868.41493,445.611917 869.438411,444.494142 C869.273397,444.089464 868.724332,442.461913 869.595568,440.259758 C869.595568,440.259758 870.938273,439.829542 873.994966,441.900078 C875.27088,441.544512 876.640106,441.367711 878.000491,441.360835 C879.359894,441.367711 880.728138,441.544512 882.006016,441.900078 C885.060745,439.829542 886.401486,440.259758 886.401486,440.259758 C887.274686,442.461913 886.725621,444.089464 886.561589,444.494142 C887.587035,445.611917 888.205838,447.041059 888.205838,448.78746 C888.205838,454.934241 884.464532,456.286769 880.90101,456.682607 C881.474631,457.176668 881.986372,458.153002 881.986372,459.645988 C881.986372,461.784298 881.966727,463.510073 881.966727,464.034582 C881.966727,464.462834 882.255502,464.960823 883.066822,464.804649 C889.419872,462.684019 894,456.691447 894,449.624318 C894,440.787214 886.83563,433.623827 877.998527,433.623827 C869.16437,433.623827 862,440.787214 862,449.624318 Z" id="Fill-3"></path>
        </g>
    </g>
</svg>