<?xml version="1.0" encoding="UTF-8"?>
<svg width="32px" height="29px" viewBox="0 0 32 29" version="1.1" xmlns="http://www.w3.org/2000/svg" xmlns:xlink="http://www.w3.org/1999/xlink">
    <!-- Generator: Sketch 47 (45396) - http://www.bohemiancoding.com/sketch -->
    <title>react</title>
    <desc>Created with Sketch.</desc>
    <defs></defs>
    <g id="Final" stroke="none" stroke-width="1" fill="none" fill-rule="evenodd">
        <g id="3" transform="translate(-389.000000, -1065.000000)" fill-rule="nonzero">
            <g id="react" transform="translate(389.000000, 1065.000000)">
                <path d="M0.09425,14.34375 C0.09425,16.745625 2.439625,18.98775 6.137125,20.251625 C5.39875,23.96875 6.004875,26.964875 8.029125,28.13225 C10.10975,29.33225 13.2095,28.501625 16.151625,25.92975 C19.0195,28.39775 21.917875,29.369 23.940375,28.19825 C26.019125,26.994875 26.65125,23.795625 25.8925,19.962375 C29.74375,18.689125 31.898,16.77725 31.898,14.34375 C31.898,11.997625 29.548375,9.968 25.900625,8.71225 C26.7175,4.720625 26.025375,1.79725 23.91725,0.581625 C21.884875,-0.590375 18.95275,0.431125 16.04275,2.963625 C13.01525,0.275625 10.112125,-0.545 8.00625,0.674 C5.97575,1.849375 5.396375,4.9 6.137125,8.685875 C2.564375,9.9315 0.09425,12.007125 0.09425,14.34375 Z" id="Shape" fill="#FFFFFF"></path>
                <path d="M25.128125,9.95925 C24.8274961,9.85612844 24.5243165,9.76059812 24.218875,9.67275 C24.2695282,9.46692571 24.3163695,9.26018201 24.359375,9.052625 C25.047625,5.711625 24.597625,3.020125 23.060875,2.134125 C21.5875,1.284375 19.17775,2.170375 16.744,4.28825 C16.5041854,4.49741789 16.2696939,4.71261155 16.04075,4.933625 C15.8874325,4.78666415 15.7314057,4.6425561 15.57275,4.501375 C13.022125,2.236625 10.4655,1.282375 8.930375,2.171 C7.458375,3.023125 7.022375,5.5535 7.642,8.71975 C7.70364836,9.03330112 7.77325416,9.34523513 7.85075,9.65525 C7.489,9.758 7.139625,9.8675 6.805375,9.984 C3.815125,11.0265 1.905375,12.6605 1.905375,14.35525 C1.905375,16.10575 3.955375,17.8615 7.070125,18.926 C7.32268523,19.0119163 7.57734764,19.0915244 7.833875,19.16475 C7.75053774,19.4987425 7.67655052,19.8349988 7.612,20.173125 C7.02125,23.284375 7.482625,25.75475 8.95075,26.601625 C10.467125,27.476 13.012125,26.57725 15.490375,24.411 C15.68625,24.23975 15.882875,24.058125 16.07975,23.86775 C16.3277277,24.1070074 16.5823266,24.339306 16.84325,24.564375 C19.24375,26.63 21.6145,27.464125 23.081375,26.615 C24.596375,25.738 25.088625,23.084125 24.449375,19.85525 C24.400625,19.608625 24.34375,19.35675 24.28,19.10025 C24.45875,19.0475 24.634125,18.993 24.80525,18.93625 C28.04325,17.8635 30.149875,16.129125 30.149875,14.35525 C30.149875,12.654375 28.178625,11.009375 25.128125,9.95925 Z" id="Shape" fill="#53C1DE"></path>
                <path d="M24.42575,17.791 C24.271375,17.842125 24.112875,17.8915 23.951375,17.939375 C23.593875,16.80775 23.111375,15.604375 22.521125,14.36125 C23.0845,13.1475 23.54825,11.959625 23.89575,10.83525 C24.184625,10.919 24.465125,11.007125 24.735375,11.10025 C27.349125,11.999875 28.943375,13.33025 28.943375,14.35525 C28.943375,15.447125 27.2215,16.864625 24.425875,17.791 L24.42575,17.791 Z M23.26575,20.089625 C23.548375,21.517375 23.58875,22.80825 23.4015,23.817375 C23.23325,24.724125 22.895,25.328625 22.47675,25.57075 C21.586625,26.086 19.683,25.41625 17.63025,23.64975 C17.394875,23.44725 17.15775,23.231 16.92,23.00225 C17.715875,22.13175 18.51125,21.11975 19.2875,19.996 C20.653,19.874875 21.943,19.67675 23.112875,19.406375 C23.170375,19.638875 23.221625,19.86675 23.26575,20.089625 L23.26575,20.089625 Z M11.5345,25.48175 C10.664875,25.788875 9.97225,25.797625 9.553625,25.55625 C8.662625,25.0425 8.292375,23.05875 8.7975,20.398125 C8.8575675,20.083695 8.92634394,19.7709915 9.00375,19.460375 C10.160625,19.71625 11.44125,19.900375 12.81,20.011375 C13.591375,21.111 14.40975,22.12175 15.2345,23.006875 C15.0592187,23.1764329 14.8797893,23.3416497 14.696375,23.502375 C13.6005,24.460375 12.502375,25.139875 11.534625,25.48175 L11.5345,25.48175 Z M7.460375,17.78425 C6.083125,17.3135 4.94575,16.70175 4.166125,16.03425 C3.465625,15.43425 3.111875,14.838625 3.111875,14.35525 C3.111875,13.326875 4.64525,12.015 7.202625,11.123375 C7.5236124,11.0119522 7.84779292,10.9099501 8.17475,10.8175 C8.52825,11.967125 8.991875,13.169125 9.551375,14.384625 C8.984625,15.61825 8.514375,16.839375 8.157625,18.0025 C7.92345517,17.935474 7.69096829,17.8627021 7.460375,17.78425 L7.460375,17.78425 Z M8.826125,8.488 C8.29525,5.775125 8.64775,3.72875 9.534875,3.21525 C10.479875,2.66825 12.56925,3.44825 14.7715,5.403625 C14.91225,5.528625 15.053625,5.6595 15.19525,5.794875 C14.37475,6.676 13.563875,7.679125 12.78925,8.772375 C11.460875,8.8955 10.18925,9.09325 9.02025,9.358125 C8.94824043,9.0697187 8.88351154,8.77954323 8.826125,8.487875 L8.826125,8.488 Z M21.0095,11.496375 C20.7333846,11.0194288 20.4470265,10.5484862 20.150625,10.083875 C21.051875,10.197625 21.91525,10.348875 22.726,10.534 C22.482625,11.314125 22.17925,12.129875 21.822,12.966125 C21.5609771,12.4708487 21.2900898,11.9808344 21.0095,11.496375 L21.0095,11.496375 Z M16.041125,6.657125 C16.597625,7.26 17.155,7.93325 17.70325,8.663625 C16.5911263,8.61107252 15.4771472,8.61082224 14.365,8.662875 C14.91375,7.93925 15.475875,7.267 16.041125,6.657125 L16.041125,6.657125 Z M11.040875,11.504625 C10.7637983,11.9852315 10.4979759,12.4722391 10.243625,12.96525 C9.89225,12.131875 9.591625,11.3125 9.346125,10.52125 C10.152,10.340875 11.011375,10.1935 11.90675,10.081625 C11.6070267,10.5491156 11.3183221,11.0235797 11.040875,11.504625 L11.040875,11.504625 Z M11.9325,18.715 C11.0075,18.61175 10.135125,18.471875 9.3295,18.2965 C9.578875,17.49125 9.886125,16.65425 10.245,15.803 C10.5004232,16.2963763 10.7674136,16.7836777 11.04575,17.2645 C11.3297639,17.7549785 11.6254313,18.2386159 11.9325,18.715 L11.9325,18.715 Z M16.0745,22.138625 C15.502625,21.5215 14.93225,20.839 14.375125,20.104875 C14.915875,20.126125 15.46725,20.136875 16.027625,20.136875 C16.603375,20.136875 17.1725,20.124 17.732625,20.099 C17.182625,20.8465 16.62725,21.53 16.0745,22.138625 Z M21.8335,15.759625 C22.211,16.620125 22.52925,17.452625 22.782,18.24425 C21.963,18.431125 21.078875,18.581625 20.14725,18.693375 C20.4457939,18.2200892 20.7348928,17.7409111 21.014375,17.256125 C21.2984857,16.7634307 21.571595,16.2644738 21.8335,15.759625 L21.8335,15.759625 Z M19.969125,16.653375 C19.541275,17.3966195 19.0893695,18.1257548 18.614125,18.839625 C17.776125,18.8995 16.910125,18.930375 16.027625,18.930375 C15.14875,18.930375 14.29375,18.903 13.470375,18.849625 C12.9828045,18.1374169 12.5223503,17.4070197 12.09,16.66 C11.6596705,15.9169437 11.2577142,15.1578133 10.885,14.38425 C11.2567662,13.6104549 11.6575079,12.8509179 12.086375,12.10725 L12.086375,12.1075 C12.5151076,11.3636737 12.9719368,10.6363995 13.455875,9.92725 C14.295875,9.86375 15.157125,9.8305 16.02775,9.8305 C16.90225,9.8305 17.764625,9.864 18.604375,9.928 C19.0834182,10.6360582 19.5373257,11.3608009 19.96525,12.100875 C20.3955919,12.8428884 20.8016816,13.5987048 21.182875,14.367125 C20.8056028,15.1433742 20.4008046,15.9059408 19.96925,16.653375 L19.969125,16.653375 Z M22.45825,3.179375 C23.404,3.724875 23.771875,5.9245 23.177625,8.809125 C23.1386751,8.99704089 23.0963348,9.18423807 23.050625,9.370625 C21.878875,9.10025 20.606375,8.899 19.274125,8.774 C18.498,7.668875 17.693875,6.664 16.886625,5.79425 C17.0981579,5.59031849 17.3147247,5.39167387 17.536125,5.1985 C19.621375,3.38375 21.57025,2.66725 22.45825,3.179375 L22.45825,3.179375 Z" id="Shape" fill="#FFFFFF"></path>
                <path d="M16.027625,11.833125 C17.420625,11.833125 18.54975,12.962375 18.54975,14.35525 C18.54975,15.74825 17.420625,16.8775 16.027625,16.8775 C14.63475,16.8775 13.5055,15.74825 13.5055,14.35525 C13.5055,12.962375 14.63475,11.833125 16.027625,11.833125" id="Shape" fill="#53C1DE"></path>
            </g>
        </g>
    </g>
</svg>