<?xml version="1.0" encoding="UTF-8"?><svg width="928px" height="522px" viewBox="0 0 928 522" version="1.1" xmlns="http://www.w3.org/2000/svg" xmlns:xlink="http://www.w3.org/1999/xlink"><!--Generator: Sketch 50.2 (55047) - http://www.bohemiancoding.com/sketch--><title>Alignment example comp</title><desc>Created with Sketch.</desc><defs><path d="M92.8125,0 L8.4375,0 C3.77759742,0 0,3.77759742 0,8.4375 L0,92.8125 C0,97.4724026 3.77759742,101.25 8.4375,101.25 L92.8125,101.25 C97.4724026,101.25 101.25,97.4724026 101.25,92.8125 L101.25,8.4375 C101.25,3.77759742 97.4724026,0 92.8125,0 Z M92.8125,8.4375 L92.8125,25.3125 L8.4375,25.3125 L8.4375,8.4375 L92.8125,8.4375 Z M8.4375,92.8125 L8.4375,33.75 L92.8125,33.75 L92.8125,92.8125 L8.4375,92.8125 Z M23.5659375,52.3715625 L34.475625,63.28125 L23.5659375,74.1909375 L29.53125,80.15625 L46.40625,63.28125 L29.53125,46.40625 L23.5659375,52.3715625 Z" id="alignment-example-comp_svg__path-1"/><path d="M59.0625,3.74700271e-15 C26.443182,-1.87350135e-15 3.74700271e-15,26.443182 0,59.0625 C-3.74700271e-15,91.681818 26.443182,118.125 59.0625,118.125 C91.681818,118.125 118.125,91.681818 118.125,59.0625 C118.125,43.3981511 111.902362,28.3753731 100.825994,17.2990057 C89.7496269,6.22263838 74.7268489,1.87350135e-15 59.0625,3.74700271e-15 Z M109.473609,54.84375 L84.2193281,54.84375 C83.7659025,39.3189476 79.7945937,24.0995641 72.6046875,10.3325625 C92.9797678,16.0205153 107.678426,33.7659413 109.473609,54.84375 Z M59.0625,109.6875 C58.1152612,109.685819 57.1690765,109.624243 56.2296094,109.503141 C47.5605481,95.6094771 42.76103,79.6519133 42.3275625,63.28125 L75.7974375,63.28125 C75.36397,79.6519133 70.5644519,95.6094771 61.8953906,109.503141 C60.9559238,109.624246 60.0097389,109.685822 59.0625,109.6875 Z M42.3275625,54.84375 C42.76103,38.4730867 47.5605481,22.5155229 56.2296094,8.62185938 C58.1102045,8.37604548 60.0147955,8.37604548 61.8953906,8.62185938 C70.5644519,22.5155229 75.36397,38.4730867 75.7974375,54.84375 L42.3275625,54.84375 Z M45.5203125,10.3325625 C38.3304063,24.0995641 34.3590975,39.3189476 33.9056719,54.84375 L8.65139063,54.84375 C10.4465742,33.7659413 25.1452322,16.0205153 45.5203125,10.3325625 Z M8.65139063,63.28125 L33.9056719,63.28125 C34.3590975,78.8060524 38.3304063,94.0254359 45.5203125,107.792438 C25.1452322,102.104485 10.4465742,84.3590587 8.65139063,63.28125 Z M72.6046875,107.792438 C79.7945937,94.0254359 83.7659025,78.8060524 84.2193281,63.28125 L109.473609,63.28125 C107.678426,84.3590587 92.9797678,102.104485 72.6046875,107.792438 Z" id="alignment-example-comp_svg__path-3"/><path d="M111.796875,0 L6.328125,0 C2.83319807,0 0,2.83319807 0,6.328125 L0,78.046875 C0,81.5418019 2.83319807,84.375 6.328125,84.375 L111.796875,84.375 C115.291802,84.375 118.125,81.5418019 118.125,78.046875 L118.125,6.328125 C118.125,2.83319807 115.291802,0 111.796875,0 Z M109.6875,8.4375 L109.6875,21.09375 L8.4375,21.09375 L8.4375,8.4375 L109.6875,8.4375 Z M8.4375,75.9375 L8.4375,29.53125 L109.6875,29.53125 L109.6875,75.9375 L8.4375,75.9375 Z M16.875,59.0625 L59.0625,59.0625 L59.0625,67.5 L16.875,67.5 L16.875,59.0625 Z" id="alignment-example-comp_svg__path-5"/><path d="M21.3125,92.8125 L63.5,92.8125 L63.5,101.25 L21.3125,101.25 L21.3125,92.8125 Z M29.75,109.6875 L55.0625,109.6875 L55.0625,118.125 L29.75,118.125 L29.75,109.6875 Z M42.40625,1.87350135e-15 C19.1067371,-9.36750677e-16 0.21875,18.8879871 0.21875,42.1875 C-0.367536498,54.602947 5.06684095,66.5397298 14.815625,74.25 C19.034375,78.1734375 21.3125,80.4515625 21.3125,84.290625 L29.75,84.290625 C29.75,76.528125 25.0671875,72.1828125 20.5109375,68.00625 C12.5001006,61.9161735 8.05378267,52.232378 8.65625,42.1875 C8.65625,23.5478897 23.7666397,8.4375 42.40625,8.4375 C61.0458603,8.4375 76.15625,23.5478897 76.15625,42.1875 C76.7609451,52.2233002 72.3326985,61.9021821 64.34375,68.00625 C59.8296875,72.225 55.146875,76.44375 55.146875,84.290625 L63.584375,84.290625 C63.584375,80.409375 65.8203125,78.1734375 70.08125,74.2078125 C79.7803768,66.4844129 85.1793194,54.5722112 84.59375,42.1875 C84.59375,30.9986793 80.1490083,20.2681236 72.2373173,12.3564327 C64.3256264,4.4447417 53.5950707,9.36750677e-16 42.40625,1.87350135e-15 Z" id="alignment-example-comp_svg__path-7"/></defs><g id="alignment-example-comp_svg__Desktop" stroke="none" stroke-width="1" fill="none" fill-rule="evenodd"><g id="alignment-example-comp_svg__Icons_Desktop_1312px" transform="translate(-352.000000, -17779.000000)"><g id="alignment-example-comp_svg__Alignment-example-comp" transform="translate(352.000000, 17779.000000)"><rect id="alignment-example-comp_svg__Rectangle-3" fill="#FFFFFF" x="0" y="0" width="928" height="522"/><g id="alignment-example-comp_svg__Group-14" transform="translate(17.000000, 104.000000)" stroke="#6EA6FF"><path d="M347,0 L347,314" id="alignment-example-comp_svg__Path-3"/><path d="M147,0 L147,314" id="alignment-example-comp_svg__Path-3"/><path d="M548,0 L548,314" id="alignment-example-comp_svg__Path-3"/><path d="M748,0 L748,314" id="alignment-example-comp_svg__Path-3"/><path d="M447,-290 L447,604" id="alignment-example-comp_svg__Path-3" transform="translate(447.000000, 157.000000) rotate(90.000000) translate(-447.000000, -157.000000) "/></g><g id="alignment-example-comp_svg__icon/image/terminal/32" transform="translate(96.000000, 193.000000)"><rect id="alignment-example-comp_svg__transparent-rectangle" fill="#6EA6FF" opacity="0.3" x="0" y="0" width="135" height="135"/><g id="alignment-example-comp_svg__terminal" transform="translate(16.875000, 16.875000)"><mask id="alignment-example-comp_svg__mask-2" fill="white"><use xlink:href="#alignment-example-comp_svg__path-1"/></mask><use id="alignment-example-comp_svg__Mask" fill="#000000" fill-rule="nonzero" xlink:href="#alignment-example-comp_svg__path-1"/></g></g><g id="alignment-example-comp_svg__icon/image/wikis/32" transform="translate(296.000000, 193.000000)"><rect id="alignment-example-comp_svg__transparent-rectangle" fill="#6EA6FF" opacity="0.3" transform="translate(67.500000, 67.500000) rotate(90.000000) translate(-67.500000, -67.500000) " x="0" y="0" width="135" height="135"/><g id="alignment-example-comp_svg__wikis" transform="translate(8.437500, 8.437500)"><mask id="alignment-example-comp_svg__mask-4" fill="white"><use xlink:href="#alignment-example-comp_svg__path-3"/></mask><use id="alignment-example-comp_svg__Mask" fill="#000000" fill-rule="nonzero" xlink:href="#alignment-example-comp_svg__path-3"/></g></g><g id="alignment-example-comp_svg__icon/image/purchase/32" transform="translate(497.000000, 193.000000)"><rect id="alignment-example-comp_svg__transparent-rectangle" fill="#6EA6FF" opacity="0.3" x="0" y="0" width="135" height="135"/><g id="alignment-example-comp_svg__purchase" transform="translate(8.437500, 25.312500)"><mask id="alignment-example-comp_svg__mask-6" fill="white"><use xlink:href="#alignment-example-comp_svg__path-5"/></mask><use id="alignment-example-comp_svg__Mask" fill="#000000" fill-rule="nonzero" xlink:href="#alignment-example-comp_svg__path-5"/></g></g><g id="alignment-example-comp_svg__icon/image/idea/32" transform="translate(697.000000, 193.000000)"><rect id="alignment-example-comp_svg__transparent-rectangle" fill="#6EA6FF" opacity="0.3" x="0" y="0" width="135" height="135"/><g id="alignment-example-comp_svg__idea" transform="translate(25.093750, 8.437500)"><mask id="alignment-example-comp_svg__mask-8" fill="white"><use xlink:href="#alignment-example-comp_svg__path-7"/></mask><use id="alignment-example-comp_svg__Mask" fill="#000000" fill-rule="nonzero" xlink:href="#alignment-example-comp_svg__path-7"/></g></g></g></g></g></svg>