<?xml version="1.0" encoding="UTF-8"?>
<svg width="928px" height="522px" viewBox="0 0 928 522" version="1.1" xmlns="http://www.w3.org/2000/svg" xmlns:xlink="http://www.w3.org/1999/xlink">
    <!-- Generator: Sketch 51.2 (57519) - http://www.bohemiancoding.com/sketch -->
    <title>Clearance example comp</title>
    <desc>Created with Sketch.</desc>
    <defs>
        <path d="M0,0 L101.25,0 L101.25,8.4375 L0,8.4375 L0,0 Z M0,75.9375 L101.25,75.9375 L101.25,84.375 L0,84.375 L0,75.9375 Z M0,37.96875 L101.25,37.96875 L101.25,46.40625 L0,46.40625 L0,37.96875 Z" id="path-1"></path>
        <path d="M42.1875,8.4375 C53.8372564,8.4375 63.28125,17.8814936 63.28125,29.53125 C63.28125,41.1810064 53.8372564,50.625 42.1875,50.625 C30.5377436,50.625 21.09375,41.1810064 21.09375,29.53125 C21.1070018,17.8869871 30.5432371,8.45075181 42.1875,8.4375 Z M42.1875,0 C25.877841,0 12.65625,13.221591 12.65625,29.53125 C12.65625,45.840909 25.877841,59.0625 42.1875,59.0625 C58.497159,59.0625 71.71875,45.840909 71.71875,29.53125 C71.71875,13.221591 58.497159,9.36750677e-15 42.1875,0 Z M84.375,118.125 L75.9375,118.125 L75.9375,97.03125 C75.9237843,85.3871795 66.4878205,75.9512157 54.84375,75.9375 L29.53125,75.9375 C17.8871795,75.9512157 8.45121574,85.3871795 8.4375,97.03125 L8.4375,118.125 L0,118.125 L0,97.03125 C0.0190628666,80.7294936 13.2294936,67.5190629 29.53125,67.5 L54.84375,67.5 C71.1455064,67.5190629 84.3559371,80.7294936 84.375,97.03125 L84.375,118.125 Z" id="path-3"></path>
    </defs>
    <g id="Page-1" stroke="none" stroke-width="1" fill="none" fill-rule="evenodd">
        <g id="Icons-Copy" transform="translate(-352.000000, -20087.000000)">
            <g id="Clearance-example-comp" transform="translate(352.000000, 20087.000000)">
                <rect id="Rectangle-3" fill="#FFFFFF" x="0" y="0" width="928" height="522"></rect>
                <g id="Group-14" transform="translate(278.000000, 167.000000)">
                    <path d="M1,203.5 L1,207 L0,207 L0,199 L1,199 L1,202.5 L185,202.5 L185,199 L186,199 L186,207 L185,207 L185,203.5 L1,203.5 Z" id="Combined-Shape" fill="#95C0FF" fill-rule="nonzero"></path>
                    <path d="M83.445,227 L82.325,227 L82.325,225.082 L77.607,225.082 L77.607,224.046 L81.695,217.228 L83.445,217.228 L83.445,224.102 L84.859,224.102 L84.859,225.082 L83.445,225.082 L83.445,227 Z M82.255,218.138 L78.713,224.102 L82.325,224.102 L82.325,218.138 L82.255,218.138 Z M91.845,227 L90.725,227 L90.725,225.082 L86.007,225.082 L86.007,224.046 L90.095,217.228 L91.845,217.228 L91.845,224.102 L93.259,224.102 L93.259,225.082 L91.845,225.082 L91.845,227 Z M90.655,218.138 L87.113,224.102 L90.725,224.102 L90.725,218.138 L90.655,218.138 Z M95.065,229.8 L95.065,219.776 L96.185,219.776 L96.185,220.952 L96.241,220.952 C96.619,220.042 97.361,219.608 98.355,219.608 C100.161,219.608 101.295,221.078 101.295,223.388 C101.295,225.698 100.161,227.168 98.355,227.168 C97.361,227.168 96.675,226.72 96.241,225.824 L96.185,225.824 L96.185,229.8 L95.065,229.8 Z M98.047,226.16 C99.307,226.16 100.091,225.292 100.091,224.004 L100.091,222.772 C100.091,221.484 99.307,220.616 98.047,220.616 C97.025,220.616 96.185,221.204 96.185,222.002 L96.185,224.69 C96.185,225.628 97.025,226.16 98.047,226.16 Z M102.121,227 L104.795,223.36 L102.233,219.776 L103.549,219.776 L105.383,222.464 L105.425,222.464 L107.329,219.776 L108.575,219.776 L106.027,223.276 L108.631,227 L107.315,227 L105.439,224.172 L105.397,224.172 L103.367,227 L102.121,227 Z" id="44px" fill="#6F6F6F"></path>
                    <g id="icon-01">
                        <path d="M0,0 L186,0 L186,186 L0,186 L0,0 Z M26,161 L160.995781,161 L160.995781,26 L26,26 L26,161 Z" id="Combined-Shape" fill="#87B6FF" opacity="0.600000024"></path>
                        <g id="icon/navigation/menu/24" transform="translate(26.000000, 26.000000)">
                            <g id="menu" stroke-width="1" fill-rule="evenodd" transform="translate(16.875000, 25.312500)">
                                <mask id="mask-2" fill="white">
                                    <use xlink:href="#path-1"></use>
                                </mask>
                                <use id="Mask" fill="#000000" fill-rule="nonzero" xlink:href="#path-1"></use>
                                <g id="color/black" mask="url(#mask-2)">
                                    <g transform="translate(-16.875000, -25.312500)"></g>
                                </g>
                            </g>
                            <rect id="transparent-rectangle" x="0" y="0" width="135" height="135"></rect>
                        </g>
                    </g>
                    <g id="icon-01" transform="translate(186.000000, 0.000000)">
                        <path d="M0,0 L186,0 L186,186 L0,186 L0,0 Z M26,161 L160.995781,161 L160.995781,26 L26,26 L26,161 Z" id="Combined-Shape" fill="#DCDCDC" opacity="0.400000006"></path>
                        <g id="Group" transform="translate(26.000000, 26.000000)">
                            <g id="user" transform="translate(25.312500, 8.437500)">
                                <mask id="mask-4" fill="white">
                                    <use xlink:href="#path-3"></use>
                                </mask>
                                <use id="Mask" fill="#DCDCDC" fill-rule="nonzero" opacity="0.400000006" xlink:href="#path-3"></use>
                            </g>
                            <rect id="transparent-rectangle" x="0" y="0" width="135" height="135"></rect>
                        </g>
                    </g>
                </g>
            </g>
        </g>
    </g>
</svg>