<?xml version="1.0" encoding="UTF-8"?>
<svg width="288px" height="288px" viewBox="0 0 288 288" version="1.1" xmlns="http://www.w3.org/2000/svg" xmlns:xlink="http://www.w3.org/1999/xlink">
    <!-- Generator: Sketch 52.4 (67378) - http://www.bohemiancoding.com/sketch -->
    <title>iconography-usage-sizing-5</title>
    <desc>Created with Sketch.</desc>
    <g id="sizing-5" stroke="none" stroke-width="1" fill="none" fill-rule="evenodd">
        <g id="Sizing-alignment-do">
            <rect id="Rectangle-3" fill="#FFFFFF" x="0" y="0" width="288" height="288"></rect>
            <g id="Page-1" transform="translate(48.000000, 115.000000)">
                <polygon id="Fill-1" fill="#000000" points="21.042208 49.0402338 21.042208 11.5703172 43.5401573 11.5703172 43.5401573 15.5426859 25.5851165 15.5426859 25.5851165 27.5675116 41.9717686 27.5675116 41.9717686 31.5398803 25.5851165 31.5398803 25.5851165 49.0402338"></polygon>
                <g id="Group-9" transform="translate(50.269384, 0.000000)" fill="#000000">
                    <path d="M0.571428429,49.0401742 L4.89804374,49.0401742 L4.89804374,21.3402702 L0.571428429,21.3402702 L0.571428429,49.0401742 Z M0.0846560636,12.4291843 L0.0846560636,11.7313157 C0.0846560636,10.2819419 0.89594334,9.31559343 2.73466103,9.31559343 C4.57352883,9.31559343 5.3848161,10.2819419 5.3848161,11.7313157 L5.3848161,12.4291843 C5.3848161,13.8785581 4.57352883,14.8449066 2.73466103,14.8449066 C0.89594334,14.8449066 0.0846560636,13.8785581 0.0846560636,12.4291843 Z" id="Fill-2"></path>
                    <path d="M18.6889818,49.0402338 C15.7144619,49.0402338 14.0920375,47.1614712 14.0920375,44.5846909 L14.0920375,9.31565303 L18.4185027,9.31565303 L18.4185027,45.2824106 L22.5286747,45.2824106 L22.5286747,49.0402338 L18.6889818,49.0402338 Z" id="Fill-4"></path>
                    <path d="M31.2894215,32.6671975 L31.2894215,33.04295 L46.7026789,33.04295 L46.7026789,32.452503 C46.7026789,27.5674222 43.728159,24.2929222 39.2934722,24.2929222 C34.5884563,24.2929222 31.2894215,27.835902 31.2894215,32.6671975 M26.7465129,35.1903414 C26.7465129,26.3865283 31.722008,20.6961571 39.2934722,20.6961571 C46.7567147,20.6961571 51.353659,26.3865283 51.353659,34.2239929 L51.353659,36.2639626 L31.2894215,36.2639626 L31.2894215,37.5522783 C31.2894215,42.3299374 34.3720129,45.9267025 39.5638012,45.9267025 C43.0791292,45.9267025 45.7833201,44.208849 47.2434871,41.1490434 L50.3260785,43.3499222 C48.5415467,47.1077455 44.5392962,49.6843768 39.2934722,49.6843768 C31.722008,49.6843768 26.7465129,43.9940056 26.7465129,35.1903414" id="Fill-5"></path>
                    <path d="M117.463185,54.6634404 L83.6621504,54.6634404 L83.6621504,4.33658939 L100.562593,4.33658939 L100.562593,16.9181904 C100.562593,19.225001 102.463902,21.1122561 104.787741,21.1122561 L117.463185,21.1122561 L117.463185,54.6634404 Z M104.787741,5.17525354 L116.618126,16.9181904 L104.787741,16.9181904 L104.787741,5.17525354 Z M121.054614,15.4504909 L106.26652,0.771708081 C105.84414,0.352301515 105.421461,0.142523737 104.787741,0.142523737 L83.6621504,0.142523737 C81.3381613,0.142523737 79.4368522,2.02977879 79.4368522,4.33658939 L79.4368522,54.6634404 C79.4368522,56.970102 81.3381613,58.8573571 83.6621504,58.8573571 L117.463185,58.8573571 C119.787024,58.8573571 121.688333,56.970102 121.688333,54.6634404 L121.688333,16.9181904 C121.688333,16.289304 121.477143,15.8697485 121.054614,15.4504909 Z" id="Fill-6"></path>
                    <polygon id="Fill-7" points="89.9997525 46.2755177 111.125493 46.2755177 111.125493 42.08175 89.9997525 42.08175"></polygon>
                    <polygon id="Fill-8" points="89.9997525 33.6939167 111.125493 33.6939167 111.125493 29.5 89.9997525 29.5"></polygon>
                </g>
                <g id="Group-28" transform="translate(0.000000, 28.500000)" stroke="#95C0FF">
                    <path d="M96,-95 L96,97" id="Path-3" transform="translate(96.000000, 1.000000) rotate(90.000000) translate(-96.000000, -1.000000) "></path>
                </g>
            </g>
        </g>
    </g>
</svg>